<?xml version="1.0" encoding="UTF-8"?>
<svg height="287.79mm" viewBox="0.0 0.0 570.61 287.79" width="570.61mm" xmlns="http://www.w3.org/2000/svg" xmlns:cc="http://creativecommons.org/ns#" xmlns:dc="http://purl.org/dc/elements/1.1/" xmlns:inkscape="http://www.inkscape.org/namespaces/inkscape" xmlns:rdf="http://www.w3.org/1999/02/22-rdf-syntax-ns#" xmlns:svg="http://www.w3.org/2000/svg" xmlns:xlink="http://www.w3.org/1999/xlink">
<!--
PhoneHolder - 
    Smartphone desk holder
    



    This phone stand holds your phone between two tabs, with access to its
    bottom, in order to connect a charger, headphones, and also not to obstruct
    the mic.

    Default values are currently based on Galaxy S7.



Created with Boxes.py (https://festi.info/boxes.py)
Creation date: 2021-07-26 17:34:33
Command line (remove spaces between dashes): boxes PhoneHolder - -FingerJoint_angle=90.0 - -FingerJoint_style=rectangular - -FingerJoint_surroundingspaces=2.0 - -FingerJoint_edge_width=1.0 - -FingerJoint_finger=2.0 - -FingerJoint_play=0.0 - -FingerJoint_space=2.0 - -FingerJoint_width=1.0 - -phone_height=222 - -phone_width=136 - -phone_depth=10 - -angle=25 - -bottom_margin=30 - -tab_size=76 - -bottom_support_spacing=70 - -thickness=3.0 - -format=svg - -tabs=0.0 - -debug=0 - -labels=0 - -labels=1 - -reference=100 - -burn=0.1
Url: http://festi.info/PhoneHolder?FingerJoint_angle=90.0&FingerJoint_style=rectangular&FingerJoint_surroundingspaces=2.0&FingerJoint_edge_width=1.0&FingerJoint_finger=2.0&FingerJoint_play=0.0&FingerJoint_space=2.0&FingerJoint_width=1.0&phone_height=222&phone_width=136&phone_depth=10&angle=25&bottom_margin=30&tab_size=76&bottom_support_spacing=70&thickness=3.0&format=svg&tabs=0.0&debug=0&labels=0&labels=1&reference=100&burn=0.1&render=1
SettingsUrl: http://festi.info/PhoneHolder?FingerJoint_angle=90.0&FingerJoint_style=rectangular&FingerJoint_surroundingspaces=2.0&FingerJoint_edge_width=1.0&FingerJoint_finger=2.0&FingerJoint_play=0.0&FingerJoint_space=2.0&FingerJoint_width=1.0&phone_height=222&phone_width=136&phone_depth=10&angle=25&bottom_margin=30&tab_size=76&bottom_support_spacing=70&thickness=3.0&format=svg&tabs=0.0&debug=0&labels=0&labels=1&reference=100&burn=0.1
-->
<title>PhoneHolder</title>
<metadata>
<rdf:RDF><cc:Work>
<dc:title>Misc - PhoneHolder</dc:title>
<dc:date>2021-07-26 17:34:33</dc:date>
<dc:source>http://festi.info/PhoneHolder?FingerJoint_angle=90.0&amp;FingerJoint_style=rectangular&amp;FingerJoint_surroundingspaces=2.0&amp;FingerJoint_edge_width=1.0&amp;FingerJoint_finger=2.0&amp;FingerJoint_play=0.0&amp;FingerJoint_space=2.0&amp;FingerJoint_width=1.0&amp;phone_height=222&amp;phone_width=136&amp;phone_depth=10&amp;angle=25&amp;bottom_margin=30&amp;tab_size=76&amp;bottom_support_spacing=70&amp;thickness=3.0&amp;format=svg&amp;tabs=0.0&amp;debug=0&amp;labels=0&amp;labels=1&amp;reference=100&amp;burn=0.1&amp;render=1</dc:source>
<dc:description>
    Smartphone desk holder
    


    This phone stand holds your phone between two tabs, with access to its
    bottom, in order to connect a charger, headphones, and also not to obstruct
    the mic.

    Default values are currently based on Galaxy S7.


Created with Boxes.py (https://festi.info/boxes.py)
Command line: boxes PhoneHolder --FingerJoint_angle=90.0 --FingerJoint_style=rectangular --FingerJoint_surroundingspaces=2.0 --FingerJoint_edge_width=1.0 --FingerJoint_finger=2.0 --FingerJoint_play=0.0 --FingerJoint_space=2.0 --FingerJoint_width=1.0 --phone_height=222 --phone_width=136 --phone_depth=10 --angle=25 --bottom_margin=30 --tab_size=76 --bottom_support_spacing=70 --thickness=3.0 --format=svg --tabs=0.0 --debug=0 --labels=0 --labels=1 --reference=100 --burn=0.1
Url: http://festi.info/PhoneHolder?FingerJoint_angle=90.0&amp;FingerJoint_style=rectangular&amp;FingerJoint_surroundingspaces=2.0&amp;FingerJoint_edge_width=1.0&amp;FingerJoint_finger=2.0&amp;FingerJoint_play=0.0&amp;FingerJoint_space=2.0&amp;FingerJoint_width=1.0&amp;phone_height=222&amp;phone_width=136&amp;phone_depth=10&amp;angle=25&amp;bottom_margin=30&amp;tab_size=76&amp;bottom_support_spacing=70&amp;thickness=3.0&amp;format=svg&amp;tabs=0.0&amp;debug=0&amp;labels=0&amp;labels=1&amp;reference=100&amp;burn=0.1&amp;render=1
SettingsUrl: http://festi.info/PhoneHolder?FingerJoint_angle=90.0&amp;FingerJoint_style=rectangular&amp;FingerJoint_surroundingspaces=2.0&amp;FingerJoint_edge_width=1.0&amp;FingerJoint_finger=2.0&amp;FingerJoint_play=0.0&amp;FingerJoint_space=2.0&amp;FingerJoint_width=1.0&amp;phone_height=222&amp;phone_width=136&amp;phone_depth=10&amp;angle=25&amp;bottom_margin=30&amp;tab_size=76&amp;bottom_support_spacing=70&amp;thickness=3.0&amp;format=svg&amp;tabs=0.0&amp;debug=0&amp;labels=0&amp;labels=1&amp;reference=100&amp;burn=0.1
</dc:description>
</cc:Work></rdf:RDF></metadata>
<g id="p-0" style="fill:none;stroke-linecap:round;stroke-linejoin:round;">
  <path d="M 10.100 277.790 H 110.100 V 267.790 H 10.100 V 277.790 Z" stroke="rgb(0,0,0)" stroke-width="0.20"/>
  <text alignment-baseline="hanging" font-size="10px" style="font-family: sans-serif ; font-weight: normal; font-style: normal; fill: rgb(0,0,0)" text-anchor="middle" transform="matrix( 1.000 0.000 0.000 1.000 60.100 267.790 )">100mm</text><text alignment-baseline="hanging" font-size="4px" style="font-family: sans-serif ; font-weight: normal; font-style: normal; fill: rgb(255,0,0)" text-anchor="middle" transform="matrix( 1.000 0.000 0.000 1.000 15.100 270.790 )"/>
</g>
<g id="p-1" style="fill:none;stroke-linecap:round;stroke-linejoin:round;">
  <path d="M 46.000 221.990 V 224.890 C 46.000 224.990 46.100 224.890 46.000 224.890 H 43.200 C 43.100 224.890 43.200 224.990 43.200 224.890 V 219.090 C 43.200 218.990 43.100 219.090 43.200 219.090 H 46.000 C 46.100 219.090 46.000 218.990 46.000 219.090 V 221.990 Z" stroke="rgb(0,0,255)" stroke-width="0.20"/>
  <path d="M 46.000 209.990 V 212.890 C 46.000 212.990 46.100 212.890 46.000 212.890 H 43.200 C 43.100 212.890 43.200 212.990 43.200 212.890 V 207.090 C 43.200 206.990 43.100 207.090 43.200 207.090 H 46.000 C 46.100 207.090 46.000 206.990 46.000 207.090 V 209.990 Z" stroke="rgb(0,0,255)" stroke-width="0.20"/>
  <path d="M 46.000 197.990 V 200.890 C 46.000 200.990 46.100 200.890 46.000 200.890 H 43.200 C 43.100 200.890 43.200 200.990 43.200 200.890 V 195.090 C 43.200 194.990 43.100 195.090 43.200 195.090 H 46.000 C 46.100 195.090 46.000 194.990 46.000 195.090 V 197.990 Z" stroke="rgb(0,0,255)" stroke-width="0.20"/>
  <path d="M 46.000 185.990 V 188.890 C 46.000 188.990 46.100 188.890 46.000 188.890 H 43.200 C 43.100 188.890 43.200 188.990 43.200 188.890 V 183.090 C 43.200 182.990 43.100 183.090 43.200 183.090 H 46.000 C 46.100 183.090 46.000 182.990 46.000 183.090 V 185.990 Z" stroke="rgb(0,0,255)" stroke-width="0.20"/>
  <path d="M 46.000 173.990 V 176.890 C 46.000 176.990 46.100 176.890 46.000 176.890 H 43.200 C 43.100 176.890 43.200 176.990 43.200 176.890 V 171.090 C 43.200 170.990 43.100 171.090 43.200 171.090 H 46.000 C 46.100 171.090 46.000 170.990 46.000 171.090 V 173.990 Z" stroke="rgb(0,0,255)" stroke-width="0.20"/>
  <path d="M 119.000 221.990 V 224.890 C 119.000 224.990 119.100 224.890 119.000 224.890 H 116.200 C 116.100 224.890 116.200 224.990 116.200 224.890 V 219.090 C 116.200 218.990 116.100 219.090 116.200 219.090 H 119.000 C 119.100 219.090 119.000 218.990 119.000 219.090 V 221.990 Z" stroke="rgb(0,0,255)" stroke-width="0.20"/>
  <path d="M 119.000 209.990 V 212.890 C 119.000 212.990 119.100 212.890 119.000 212.890 H 116.200 C 116.100 212.890 116.200 212.990 116.200 212.890 V 207.090 C 116.200 206.990 116.100 207.090 116.200 207.090 H 119.000 C 119.100 207.090 119.000 206.990 119.000 207.090 V 209.990 Z" stroke="rgb(0,0,255)" stroke-width="0.20"/>
  <path d="M 119.000 197.990 V 200.890 C 119.000 200.990 119.100 200.890 119.000 200.890 H 116.200 C 116.100 200.890 116.200 200.990 116.200 200.890 V 195.090 C 116.200 194.990 116.100 195.090 116.200 195.090 H 119.000 C 119.100 195.090 119.000 194.990 119.000 195.090 V 197.990 Z" stroke="rgb(0,0,255)" stroke-width="0.20"/>
  <path d="M 119.000 185.990 V 188.890 C 119.000 188.990 119.100 188.890 119.000 188.890 H 116.200 C 116.100 188.890 116.200 188.990 116.200 188.890 V 183.090 C 116.200 182.990 116.100 183.090 116.200 183.090 H 119.000 C 119.100 183.090 119.000 182.990 119.000 183.090 V 185.990 Z" stroke="rgb(0,0,255)" stroke-width="0.20"/>
  <path d="M 119.000 173.990 V 176.890 C 119.000 176.990 119.100 176.890 119.000 176.890 H 116.200 C 116.100 176.890 116.200 176.990 116.200 176.890 V 171.090 C 116.200 170.990 116.100 171.090 116.200 171.090 H 119.000 C 119.100 171.090 119.000 170.990 119.000 171.090 V 173.990 Z" stroke="rgb(0,0,255)" stroke-width="0.20"/>
  <text alignment-baseline="hanging" font-size="4px" style="font-family: sans-serif ; font-weight: normal; font-style: normal; fill: rgb(255,0,0)" text-anchor="middle" transform="matrix( 1.000 0.000 0.000 1.000 81.100 138.090 )"/><path d="M 13.100 266.090 H 43.100 C 43.155 266.090 43.200 266.045 43.200 265.990 V 236.090 C 43.200 235.990 43.100 236.090 43.200 236.090 H 46.000 C 46.100 236.090 46.000 235.990 46.000 236.090 V 265.990 C 46.000 266.045 46.045 266.090 46.100 266.090 H 78.600 C 78.655 266.090 78.700 266.045 78.700 265.990 V 260.990 C 78.700 260.568 78.811 260.154 79.022 259.790 C 79.232 259.425 79.535 259.122 79.900 258.911 C 80.265 258.700 80.679 258.590 81.100 258.590 C 81.521 258.590 81.935 258.700 82.300 258.911 C 82.665 259.122 82.968 259.425 83.178 259.790 C 83.389 260.154 83.500 260.568 83.500 260.990 V 265.990 C 83.500 266.045 83.545 266.090 83.600 266.090 H 116.100 C 116.155 266.090 116.200 266.045 116.200 265.990 V 236.090 C 116.200 235.990 116.100 236.090 116.200 236.090 H 119.000 C 119.100 236.090 119.000 235.990 119.000 236.090 V 265.990 C 119.000 266.045 119.045 266.090 119.100 266.090 H 149.100 H 152.100 C 152.155 266.090 152.200 266.045 152.200 265.990 V 259.990 C 152.200 259.934 152.155 259.890 152.100 259.890 H 149.200 C 149.100 259.890 149.200 259.990 149.200 259.890 V 254.090 C 149.200 253.990 149.100 254.090 149.200 254.090 H 152.100 C 152.155 254.090 152.200 254.045 152.200 253.990 V 247.990 C 152.200 247.934 152.155 247.890 152.100 247.890 H 149.200 C 149.100 247.890 149.200 247.990 149.200 247.890 V 242.090 C 149.200 241.990 149.100 242.090 149.200 242.090 H 152.100 C 152.155 242.090 152.200 242.045 152.200 241.990 V 235.990 C 152.200 235.934 152.155 235.890 152.100 235.890 H 149.200 C 149.100 235.890 149.200 235.990 149.200 235.890 V 225.090 C 149.200 224.990 149.100 225.090 149.200 225.090 H 152.100 C 152.155 225.090 152.200 225.045 152.200 224.990 V 218.990 C 152.200 218.934 152.155 218.890 152.100 218.890 H 149.200 C 149.100 218.890 149.200 218.990 149.200 218.890 V 213.090 C 149.200 212.990 149.100 213.090 149.200 213.090 H 152.100 C 152.155 213.090 152.200 213.045 152.200 212.990 V 206.990 C 152.200 206.934 152.155 206.890 152.100 206.890 H 149.200 C 149.100 206.890 149.200 206.990 149.200 206.890 V 201.090 C 149.200 200.990 149.100 201.090 149.200 201.090 H 152.100 C 152.155 201.090 152.200 201.045 152.200 200.990 V 194.990 C 152.200 194.934 152.155 194.890 152.100 194.890 H 149.200 C 149.100 194.890 149.200 194.990 149.200 194.890 V 189.090 C 149.200 188.990 149.100 189.090 149.200 189.090 H 152.100 C 152.155 189.090 152.200 189.045 152.200 188.990 V 182.990 C 152.200 182.934 152.155 182.890 152.100 182.890 H 149.200 C 149.100 182.890 149.200 182.990 149.200 182.890 V 177.090 C 149.200 176.990 149.100 177.090 149.200 177.090 H 152.100 C 152.155 177.090 152.200 177.045 152.200 176.990 V 170.990 C 152.200 170.934 152.155 170.890 152.100 170.890 H 149.200 C 149.100 170.890 149.200 170.990 149.200 170.890 V 160.090 C 149.200 159.990 149.100 160.090 149.200 160.090 H 152.100 C 152.155 160.090 152.200 160.045 152.200 159.990 V 149.990 C 152.200 149.934 152.155 149.890 152.100 149.890 H 149.200 C 149.100 149.890 149.200 149.990 149.200 149.890 V 144.090 C 149.200 143.990 149.100 144.090 149.200 144.090 H 152.100 C 152.155 144.090 152.200 144.045 152.200 143.990 V 137.990 C 152.200 137.934 152.155 137.890 152.100 137.890 H 149.200 C 149.100 137.890 149.200 137.990 149.200 137.890 V 132.090 C 149.200 131.990 149.100 132.090 149.200 132.090 H 152.100 C 152.155 132.090 152.200 132.045 152.200 131.990 V 125.990 C 152.200 125.934 152.155 125.890 152.100 125.890 H 149.200 C 149.100 125.890 149.200 125.990 149.200 125.890 V 120.090 C 149.200 119.990 149.100 120.090 149.200 120.090 H 152.100 C 152.155 120.090 152.200 120.045 152.200 119.990 V 113.990 C 152.200 113.934 152.155 113.890 152.100 113.890 H 149.200 C 149.100 113.890 149.200 113.990 149.200 113.890 V 108.090 C 149.200 107.990 149.100 108.090 149.200 108.090 H 152.100 C 152.155 108.090 152.200 108.045 152.200 107.990 V 101.990 C 152.200 101.934 152.155 101.890 152.100 101.890 H 149.200 C 149.100 101.890 149.200 101.990 149.200 101.890 V 96.090 C 149.200 95.990 149.100 96.090 149.200 96.090 H 152.100 C 152.155 96.090 152.200 96.045 152.200 95.990 V 89.990 C 152.200 89.934 152.155 89.890 152.100 89.890 H 149.200 C 149.100 89.890 149.200 89.990 149.200 89.890 V 84.090 C 149.200 83.990 149.100 84.090 149.200 84.090 H 152.100 C 152.155 84.090 152.200 84.045 152.200 83.990 V 77.990 C 152.200 77.934 152.155 77.890 152.100 77.890 H 149.200 C 149.100 77.890 149.200 77.990 149.200 77.890 V 72.090 C 149.200 71.990 149.100 72.090 149.200 72.090 H 152.100 C 152.155 72.090 152.200 72.045 152.200 71.990 V 65.990 C 152.200 65.934 152.155 65.890 152.100 65.890 H 149.200 C 149.100 65.890 149.200 65.990 149.200 65.890 V 60.090 C 149.200 59.990 149.100 60.090 149.200 60.090 H 152.100 C 152.155 60.090 152.200 60.045 152.200 59.990 V 53.990 C 152.200 53.934 152.155 53.890 152.100 53.890 H 149.200 C 149.100 53.890 149.200 53.990 149.200 53.890 V 48.090 C 149.200 47.990 149.100 48.090 149.200 48.090 H 152.100 C 152.155 48.090 152.200 48.045 152.200 47.990 V 41.990 C 152.200 41.934 152.155 41.890 152.100 41.890 H 149.200 C 149.100 41.890 149.200 41.990 149.200 41.890 V 36.090 C 149.200 35.990 149.100 36.090 149.200 36.090 H 152.100 C 152.155 36.090 152.200 36.045 152.200 35.990 V 29.990 C 152.200 29.934 152.155 29.890 152.100 29.890 H 149.200 C 149.100 29.890 149.200 29.990 149.200 29.890 V 24.090 C 149.200 23.990 149.100 24.090 149.200 24.090 H 152.100 C 152.155 24.090 152.200 24.045 152.200 23.990 V 13.990 C 152.200 13.934 152.155 13.890 152.100 13.890 H 149.100 H 13.100 H 10.100 C 10.045 13.890 10.000 13.934 10.000 13.990 V 23.990 C 10.000 24.045 10.045 24.090 10.100 24.090 H 13.000 C 13.100 24.090 13.000 23.990 13.000 24.090 V 29.890 C 13.000 29.990 13.100 29.890 13.000 29.890 H 10.100 C 10.045 29.890 10.000 29.934 10.000 29.990 V 35.990 C 10.000 36.045 10.045 36.090 10.100 36.090 H 13.000 C 13.100 36.090 13.000 35.990 13.000 36.090 V 41.890 C 13.000 41.990 13.100 41.890 13.000 41.890 H 10.100 C 10.045 41.890 10.000 41.934 10.000 41.990 V 47.990 C 10.000 48.045 10.045 48.090 10.100 48.090 H 13.000 C 13.100 48.090 13.000 47.990 13.000 48.090 V 53.890 C 13.000 53.990 13.100 53.890 13.000 53.890 H 10.100 C 10.045 53.890 10.000 53.934 10.000 53.990 V 59.990 C 10.000 60.045 10.045 60.090 10.100 60.090 H 13.000 C 13.100 60.090 13.000 59.990 13.000 60.090 V 65.890 C 13.000 65.990 13.100 65.890 13.000 65.890 H 10.100 C 10.045 65.890 10.000 65.934 10.000 65.990 V 71.990 C 10.000 72.045 10.045 72.090 10.100 72.090 H 13.000 C 13.100 72.090 13.000 71.990 13.000 72.090 V 77.890 C 13.000 77.990 13.100 77.890 13.000 77.890 H 10.100 C 10.045 77.890 10.000 77.934 10.000 77.990 V 83.990 C 10.000 84.045 10.045 84.090 10.100 84.090 H 13.000 C 13.100 84.090 13.000 83.990 13.000 84.090 V 89.890 C 13.000 89.990 13.100 89.890 13.000 89.890 H 10.100 C 10.045 89.890 10.000 89.934 10.000 89.990 V 95.990 C 10.000 96.045 10.045 96.090 10.100 96.090 H 13.000 C 13.100 96.090 13.000 95.990 13.000 96.090 V 101.890 C 13.000 101.990 13.100 101.890 13.000 101.890 H 10.100 C 10.045 101.890 10.000 101.934 10.000 101.990 V 107.990 C 10.000 108.045 10.045 108.090 10.100 108.090 H 13.000 C 13.100 108.090 13.000 107.990 13.000 108.090 V 113.890 C 13.000 113.990 13.100 113.890 13.000 113.890 H 10.100 C 10.045 113.890 10.000 113.934 10.000 113.990 V 119.990 C 10.000 120.045 10.045 120.090 10.100 120.090 H 13.000 C 13.100 120.090 13.000 119.990 13.000 120.090 V 125.890 C 13.000 125.990 13.100 125.890 13.000 125.890 H 10.100 C 10.045 125.890 10.000 125.934 10.000 125.990 V 131.990 C 10.000 132.045 10.045 132.090 10.100 132.090 H 13.000 C 13.100 132.090 13.000 131.990 13.000 132.090 V 137.890 C 13.000 137.990 13.100 137.890 13.000 137.890 H 10.100 C 10.045 137.890 10.000 137.934 10.000 137.990 V 143.990 C 10.000 144.045 10.045 144.090 10.100 144.090 H 13.000 C 13.100 144.090 13.000 143.990 13.000 144.090 V 149.890 C 13.000 149.990 13.100 149.890 13.000 149.890 H 10.100 C 10.045 149.890 10.000 149.934 10.000 149.990 V 159.990 C 10.000 160.045 10.045 160.090 10.100 160.090 H 13.000 C 13.100 160.090 13.000 159.990 13.000 160.090 V 170.890 C 13.000 170.990 13.100 170.890 13.000 170.890 H 10.100 C 10.045 170.890 10.000 170.934 10.000 170.990 V 176.990 C 10.000 177.045 10.045 177.090 10.100 177.090 H 13.000 C 13.100 177.090 13.000 176.990 13.000 177.090 V 182.890 C 13.000 182.990 13.100 182.890 13.000 182.890 H 10.100 C 10.045 182.890 10.000 182.934 10.000 182.990 V 188.990 C 10.000 189.045 10.045 189.090 10.100 189.090 H 13.000 C 13.100 189.090 13.000 188.990 13.000 189.090 V 194.890 C 13.000 194.990 13.100 194.890 13.000 194.890 H 10.100 C 10.045 194.890 10.000 194.934 10.000 194.990 V 200.990 C 10.000 201.045 10.045 201.090 10.100 201.090 H 13.000 C 13.100 201.090 13.000 200.990 13.000 201.090 V 206.890 C 13.000 206.990 13.100 206.890 13.000 206.890 H 10.100 C 10.045 206.890 10.000 206.934 10.000 206.990 V 212.990 C 10.000 213.045 10.045 213.090 10.100 213.090 H 13.000 C 13.100 213.090 13.000 212.990 13.000 213.090 V 218.890 C 13.000 218.990 13.100 218.890 13.000 218.890 H 10.100 C 10.045 218.890 10.000 218.934 10.000 218.990 V 224.990 C 10.000 225.045 10.045 225.090 10.100 225.090 H 13.000 C 13.100 225.090 13.000 224.990 13.000 225.090 V 235.890 C 13.000 235.990 13.100 235.890 13.000 235.890 H 10.100 C 10.045 235.890 10.000 235.934 10.000 235.990 V 241.990 C 10.000 242.045 10.045 242.090 10.100 242.090 H 13.000 C 13.100 242.090 13.000 241.990 13.000 242.090 V 247.890 C 13.000 247.990 13.100 247.890 13.000 247.890 H 10.100 C 10.045 247.890 10.000 247.934 10.000 247.990 V 253.990 C 10.000 254.045 10.045 254.090 10.100 254.090 H 13.000 C 13.100 254.090 13.000 253.990 13.000 254.090 V 259.890 C 13.000 259.990 13.100 259.890 13.000 259.890 H 10.100 C 10.045 259.890 10.000 259.934 10.000 259.990 V 265.990 C 10.000 266.045 10.045 266.090 10.100 266.090 H 13.100" stroke="rgb(0,0,0)" stroke-width="0.20"/>
</g>
<g id="p-2" style="fill:none;stroke-linecap:round;stroke-linejoin:round;">
  <text alignment-baseline="hanging" font-size="4px" style="font-family: sans-serif ; font-weight: normal; font-style: normal; fill: rgb(255,0,0)" text-anchor="middle" transform="matrix( 1.000 0.000 0.000 1.000 224.800 149.895 )"/><path d="M 156.800 266.090 H 219.300 C 219.355 266.090 219.400 266.045 219.400 265.990 C 219.400 266.045 219.355 266.090 219.300 266.090 H 222.300 C 222.245 266.090 222.200 266.045 222.200 265.990 C 222.200 266.045 222.245 266.090 222.300 266.090 C 222.355 266.090 222.400 266.045 222.400 265.990 V 260.990 C 222.400 260.568 222.511 260.154 222.722 259.790 C 222.932 259.425 223.235 259.122 223.600 258.911 C 223.965 258.700 224.379 258.590 224.800 258.590 C 225.221 258.590 225.635 258.700 226.000 258.911 C 226.365 259.122 226.668 259.425 226.878 259.790 C 227.089 260.154 227.200 260.568 227.200 260.990 V 265.990 C 227.200 266.045 227.245 266.090 227.300 266.090 C 227.355 266.090 227.400 266.045 227.400 265.990 C 227.400 266.045 227.355 266.090 227.300 266.090 H 230.300 C 230.245 266.090 230.200 266.045 230.200 265.990 C 230.200 266.045 230.245 266.090 230.300 266.090 H 292.800 H 295.800 C 295.855 266.090 295.900 266.045 295.900 265.990 V 256.795 C 295.900 256.740 295.855 256.695 295.800 256.695 H 292.900 C 292.800 256.695 292.900 256.795 292.900 256.695 V 250.895 C 292.900 250.795 292.800 250.895 292.900 250.895 H 295.800 C 295.855 250.895 295.900 250.850 295.900 250.795 V 244.795 C 295.900 244.740 295.855 244.695 295.800 244.695 H 292.900 C 292.800 244.695 292.900 244.795 292.900 244.695 V 238.895 C 292.900 238.795 292.800 238.895 292.900 238.895 H 295.800 C 295.855 238.895 295.900 238.850 295.900 238.795 V 232.795 C 295.900 232.740 295.855 232.695 295.800 232.695 H 292.900 C 292.800 232.695 292.900 232.795 292.900 232.695 V 226.895 C 292.900 226.795 292.800 226.895 292.900 226.895 H 295.800 C 295.855 226.895 295.900 226.850 295.900 226.795 V 220.795 C 295.900 220.740 295.855 220.695 295.800 220.695 H 292.900 C 292.800 220.695 292.900 220.795 292.900 220.695 V 214.895 C 292.900 214.795 292.800 214.895 292.900 214.895 H 295.800 C 295.855 214.895 295.900 214.850 295.900 214.795 V 208.795 C 295.900 208.740 295.855 208.695 295.800 208.695 H 292.900 C 292.800 208.695 292.900 208.795 292.900 208.695 V 202.895 C 292.900 202.795 292.800 202.895 292.900 202.895 H 295.800 C 295.855 202.895 295.900 202.850 295.900 202.795 V 196.795 C 295.900 196.740 295.855 196.695 295.800 196.695 H 292.900 C 292.800 196.695 292.900 196.795 292.900 196.695 V 190.895 C 292.900 190.795 292.800 190.895 292.900 190.895 H 295.800 C 295.855 190.895 295.900 190.850 295.900 190.795 V 184.795 C 295.900 184.740 295.855 184.695 295.800 184.695 H 292.900 C 292.800 184.695 292.900 184.795 292.900 184.695 V 178.895 C 292.900 178.795 292.800 178.895 292.900 178.895 H 295.800 C 295.855 178.895 295.900 178.850 295.900 178.795 V 172.795 C 295.900 172.740 295.855 172.695 295.800 172.695 H 292.900 C 292.800 172.695 292.900 172.795 292.900 172.695 V 166.895 C 292.900 166.795 292.800 166.895 292.900 166.895 H 295.800 C 295.855 166.895 295.900 166.850 295.900 166.795 V 160.795 C 295.900 160.740 295.855 160.695 295.800 160.695 H 292.900 C 292.800 160.695 292.900 160.795 292.900 160.695 V 154.895 C 292.900 154.795 292.800 154.895 292.900 154.895 H 295.800 C 295.855 154.895 295.900 154.850 295.900 154.795 V 148.795 C 295.900 148.740 295.855 148.695 295.800 148.695 H 292.900 C 292.800 148.695 292.900 148.795 292.900 148.695 V 142.895 C 292.900 142.795 292.800 142.895 292.900 142.895 H 295.800 C 295.855 142.895 295.900 142.850 295.900 142.795 V 136.795 C 295.900 136.740 295.855 136.695 295.800 136.695 H 292.900 C 292.800 136.695 292.900 136.795 292.900 136.695 V 130.895 C 292.900 130.795 292.800 130.895 292.900 130.895 H 295.800 C 295.855 130.895 295.900 130.850 295.900 130.795 V 124.795 C 295.900 124.740 295.855 124.695 295.800 124.695 H 292.900 C 292.800 124.695 292.900 124.795 292.900 124.695 V 118.895 C 292.900 118.795 292.800 118.895 292.900 118.895 H 295.800 C 295.855 118.895 295.900 118.850 295.900 118.795 V 112.795 C 295.900 112.740 295.855 112.695 295.800 112.695 H 292.900 C 292.800 112.695 292.900 112.795 292.900 112.695 V 106.895 C 292.900 106.795 292.800 106.895 292.900 106.895 H 295.800 C 295.855 106.895 295.900 106.850 295.900 106.795 V 100.795 C 295.900 100.740 295.855 100.695 295.800 100.695 H 292.900 C 292.800 100.695 292.900 100.795 292.900 100.695 V 94.895 C 292.900 94.795 292.800 94.895 292.900 94.895 H 295.800 C 295.855 94.895 295.900 94.850 295.900 94.795 V 88.795 C 295.900 88.740 295.855 88.695 295.800 88.695 H 292.900 C 292.800 88.695 292.900 88.795 292.900 88.695 V 82.895 C 292.900 82.795 292.800 82.895 292.900 82.895 H 295.800 C 295.855 82.895 295.900 82.850 295.900 82.795 V 76.795 C 295.900 76.740 295.855 76.695 295.800 76.695 H 292.900 C 292.800 76.695 292.900 76.795 292.900 76.695 V 70.895 C 292.900 70.795 292.800 70.895 292.900 70.895 H 295.800 C 295.855 70.895 295.900 70.850 295.900 70.795 V 64.795 C 295.900 64.740 295.855 64.695 295.800 64.695 H 292.900 C 292.800 64.695 292.900 64.795 292.900 64.695 V 58.895 C 292.900 58.795 292.800 58.895 292.900 58.895 H 295.800 C 295.855 58.895 295.900 58.850 295.900 58.795 V 52.795 C 295.900 52.740 295.855 52.695 295.800 52.695 H 292.900 C 292.800 52.695 292.900 52.795 292.900 52.695 V 46.895 C 292.900 46.795 292.800 46.895 292.900 46.895 H 295.800 C 295.855 46.895 295.900 46.850 295.900 46.795 V 37.600 C 295.900 37.545 295.855 37.500 295.800 37.500 H 292.800 H 156.800 H 153.800 C 153.745 37.500 153.700 37.545 153.700 37.600 V 46.795 C 153.700 46.850 153.745 46.895 153.800 46.895 H 156.700 C 156.800 46.895 156.700 46.795 156.700 46.895 V 52.695 C 156.700 52.795 156.800 52.695 156.700 52.695 H 153.800 C 153.745 52.695 153.700 52.740 153.700 52.795 V 58.795 C 153.700 58.850 153.745 58.895 153.800 58.895 H 156.700 C 156.800 58.895 156.700 58.795 156.700 58.895 V 64.695 C 156.700 64.795 156.800 64.695 156.700 64.695 H 153.800 C 153.745 64.695 153.700 64.740 153.700 64.795 V 70.795 C 153.700 70.850 153.745 70.895 153.800 70.895 H 156.700 C 156.800 70.895 156.700 70.795 156.700 70.895 V 76.695 C 156.700 76.795 156.800 76.695 156.700 76.695 H 153.800 C 153.745 76.695 153.700 76.740 153.700 76.795 V 82.795 C 153.700 82.850 153.745 82.895 153.800 82.895 H 156.700 C 156.800 82.895 156.700 82.795 156.700 82.895 V 88.695 C 156.700 88.795 156.800 88.695 156.700 88.695 H 153.800 C 153.745 88.695 153.700 88.740 153.700 88.795 V 94.795 C 153.700 94.850 153.745 94.895 153.800 94.895 H 156.700 C 156.800 94.895 156.700 94.795 156.700 94.895 V 100.695 C 156.700 100.795 156.800 100.695 156.700 100.695 H 153.800 C 153.745 100.695 153.700 100.740 153.700 100.795 V 106.795 C 153.700 106.850 153.745 106.895 153.800 106.895 H 156.700 C 156.800 106.895 156.700 106.795 156.700 106.895 V 112.695 C 156.700 112.795 156.800 112.695 156.700 112.695 H 153.800 C 153.745 112.695 153.700 112.740 153.700 112.795 V 118.795 C 153.700 118.850 153.745 118.895 153.800 118.895 H 156.700 C 156.800 118.895 156.700 118.795 156.700 118.895 V 124.695 C 156.700 124.795 156.800 124.695 156.700 124.695 H 153.800 C 153.745 124.695 153.700 124.740 153.700 124.795 V 130.795 C 153.700 130.850 153.745 130.895 153.800 130.895 H 156.700 C 156.800 130.895 156.700 130.795 156.700 130.895 V 136.695 C 156.700 136.795 156.800 136.695 156.700 136.695 H 153.800 C 153.745 136.695 153.700 136.740 153.700 136.795 V 142.795 C 153.700 142.850 153.745 142.895 153.800 142.895 H 156.700 C 156.800 142.895 156.700 142.795 156.700 142.895 V 148.695 C 156.700 148.795 156.800 148.695 156.700 148.695 H 153.800 C 153.745 148.695 153.700 148.740 153.700 148.795 V 154.795 C 153.700 154.850 153.745 154.895 153.800 154.895 H 156.700 C 156.800 154.895 156.700 154.795 156.700 154.895 V 160.695 C 156.700 160.795 156.800 160.695 156.700 160.695 H 153.800 C 153.745 160.695 153.700 160.740 153.700 160.795 V 166.795 C 153.700 166.850 153.745 166.895 153.800 166.895 H 156.700 C 156.800 166.895 156.700 166.795 156.700 166.895 V 172.695 C 156.700 172.795 156.800 172.695 156.700 172.695 H 153.800 C 153.745 172.695 153.700 172.740 153.700 172.795 V 178.795 C 153.700 178.850 153.745 178.895 153.800 178.895 H 156.700 C 156.800 178.895 156.700 178.795 156.700 178.895 V 184.695 C 156.700 184.795 156.800 184.695 156.700 184.695 H 153.800 C 153.745 184.695 153.700 184.740 153.700 184.795 V 190.795 C 153.700 190.850 153.745 190.895 153.800 190.895 H 156.700 C 156.800 190.895 156.700 190.795 156.700 190.895 V 196.695 C 156.700 196.795 156.800 196.695 156.700 196.695 H 153.800 C 153.745 196.695 153.700 196.740 153.700 196.795 V 202.795 C 153.700 202.850 153.745 202.895 153.800 202.895 H 156.700 C 156.800 202.895 156.700 202.795 156.700 202.895 V 208.695 C 156.700 208.795 156.800 208.695 156.700 208.695 H 153.800 C 153.745 208.695 153.700 208.740 153.700 208.795 V 214.795 C 153.700 214.850 153.745 214.895 153.800 214.895 H 156.700 C 156.800 214.895 156.700 214.795 156.700 214.895 V 220.695 C 156.700 220.795 156.800 220.695 156.700 220.695 H 153.800 C 153.745 220.695 153.700 220.740 153.700 220.795 V 226.795 C 153.700 226.850 153.745 226.895 153.800 226.895 H 156.700 C 156.800 226.895 156.700 226.795 156.700 226.895 V 232.695 C 156.700 232.795 156.800 232.695 156.700 232.695 H 153.800 C 153.745 232.695 153.700 232.740 153.700 232.795 V 238.795 C 153.700 238.850 153.745 238.895 153.800 238.895 H 156.700 C 156.800 238.895 156.700 238.795 156.700 238.895 V 244.695 C 156.700 244.795 156.800 244.695 156.700 244.695 H 153.800 C 153.745 244.695 153.700 244.740 153.700 244.795 V 250.795 C 153.700 250.850 153.745 250.895 153.800 250.895 H 156.700 C 156.800 250.895 156.700 250.795 156.700 250.895 V 256.695 C 156.700 256.795 156.800 256.695 156.700 256.695 H 153.800 C 153.745 256.695 153.700 256.740 153.700 256.795 V 265.990 C 153.700 266.045 153.745 266.090 153.800 266.090 H 156.800" stroke="rgb(0,0,0)" stroke-width="0.20"/>
</g>
<g id="p-3" style="fill:none;stroke-linecap:round;stroke-linejoin:round;">
  <path d="M 329.900 266.090 H 436.400 C 436.455 266.090 436.500 266.045 436.500 265.990 V 256.895 C 436.500 256.795 436.400 256.895 436.500 256.895 H 439.400 C 439.455 256.895 439.500 256.850 439.500 256.795 V 250.795 C 439.500 250.740 439.455 250.695 439.400 250.695 H 436.500 C 436.400 250.695 436.500 250.795 436.500 250.695 V 244.895 C 436.500 244.795 436.400 244.895 436.500 244.895 H 439.400 C 439.455 244.895 439.500 244.850 439.500 244.795 V 238.795 C 439.500 238.740 439.455 238.695 439.400 238.695 H 436.500 C 436.400 238.695 436.500 238.795 436.500 238.695 V 232.895 C 436.500 232.795 436.400 232.895 436.500 232.895 H 439.400 C 439.455 232.895 439.500 232.850 439.500 232.795 V 226.795 C 439.500 226.740 439.455 226.695 439.400 226.695 H 436.500 C 436.400 226.695 436.500 226.795 436.500 226.695 V 220.895 C 436.500 220.795 436.400 220.895 436.500 220.895 H 439.400 C 439.455 220.895 439.500 220.850 439.500 220.795 V 214.795 C 439.500 214.740 439.455 214.695 439.400 214.695 H 436.500 C 436.400 214.695 436.500 214.795 436.500 214.695 V 208.895 C 436.500 208.795 436.400 208.895 436.500 208.895 H 439.400 C 439.455 208.895 439.500 208.850 439.500 208.795 V 202.795 C 439.500 202.740 439.455 202.695 439.400 202.695 H 436.500 C 436.400 202.695 436.500 202.795 436.500 202.695 V 196.895 C 436.500 196.795 436.400 196.895 436.500 196.895 H 439.400 C 439.455 196.895 439.500 196.850 439.500 196.795 V 190.795 C 439.500 190.740 439.455 190.695 439.400 190.695 H 436.500 C 436.400 190.695 436.500 190.795 436.500 190.695 V 184.895 C 436.500 184.795 436.400 184.895 436.500 184.895 H 439.400 C 439.455 184.895 439.500 184.850 439.500 184.795 V 178.795 C 439.500 178.740 439.455 178.695 439.400 178.695 H 436.500 C 436.400 178.695 436.500 178.795 436.500 178.695 V 172.895 C 436.500 172.795 436.400 172.895 436.500 172.895 H 439.400 C 439.455 172.895 439.500 172.850 439.500 172.795 V 166.795 C 439.500 166.740 439.455 166.695 439.400 166.695 H 436.500 C 436.400 166.695 436.500 166.795 436.500 166.695 V 160.895 C 436.500 160.795 436.400 160.895 436.500 160.895 H 439.400 C 439.455 160.895 439.500 160.850 439.500 160.795 V 154.795 C 439.500 154.740 439.455 154.695 439.400 154.695 H 436.500 C 436.400 154.695 436.500 154.795 436.500 154.695 V 148.895 C 436.500 148.795 436.400 148.895 436.500 148.895 H 439.400 C 439.455 148.895 439.500 148.850 439.500 148.795 V 142.795 C 439.500 142.740 439.455 142.695 439.400 142.695 H 436.500 C 436.400 142.695 436.500 142.795 436.500 142.695 V 136.895 C 436.500 136.795 436.400 136.895 436.500 136.895 H 439.400 C 439.455 136.895 439.500 136.850 439.500 136.795 V 130.795 C 439.500 130.740 439.455 130.695 439.400 130.695 H 436.500 C 436.400 130.695 436.500 130.795 436.500 130.695 V 124.895 C 436.500 124.795 436.400 124.895 436.500 124.895 H 439.400 C 439.455 124.895 439.500 124.850 439.500 124.795 V 118.795 C 439.500 118.740 439.455 118.695 439.400 118.695 H 436.500 C 436.400 118.695 436.500 118.795 436.500 118.695 V 112.895 C 436.500 112.795 436.400 112.895 436.500 112.895 H 439.400 C 439.455 112.895 439.500 112.850 439.500 112.795 V 106.795 C 439.500 106.740 439.455 106.695 439.400 106.695 H 436.500 C 436.400 106.695 436.500 106.795 436.500 106.695 V 100.895 C 436.500 100.795 436.400 100.895 436.500 100.895 H 439.400 C 439.455 100.895 439.500 100.850 439.500 100.795 V 94.795 C 439.500 94.740 439.455 94.695 439.400 94.695 H 436.500 C 436.400 94.695 436.500 94.795 436.500 94.695 V 88.895 C 436.500 88.795 436.400 88.895 436.500 88.895 H 439.400 C 439.455 88.895 439.500 88.850 439.500 88.795 V 82.795 C 439.500 82.740 439.455 82.695 439.400 82.695 H 436.500 C 436.400 82.695 436.500 82.795 436.500 82.695 V 76.895 C 436.500 76.795 436.400 76.895 436.500 76.895 H 439.400 C 439.455 76.895 439.500 76.850 439.500 76.795 V 70.795 C 439.500 70.740 439.455 70.695 439.400 70.695 H 436.500 C 436.400 70.695 436.500 70.795 436.500 70.695 V 64.895 C 436.500 64.795 436.400 64.895 436.500 64.895 H 439.400 C 439.455 64.895 439.500 64.850 439.500 64.795 V 58.795 C 439.500 58.740 439.455 58.695 439.400 58.695 H 436.500 C 436.400 58.695 436.500 58.795 436.500 58.695 V 52.895 C 436.500 52.795 436.400 52.895 436.500 52.895 H 439.400 C 439.455 52.895 439.500 52.850 439.500 52.795 V 46.795 C 439.500 46.740 439.455 46.695 439.400 46.695 H 436.500 C 436.400 46.695 436.500 46.795 436.500 46.695 V 37.600 C 436.500 37.545 436.455 37.500 436.400 37.500 C 436.361 37.500 436.326 37.523 436.309 37.558 L 432.125 46.530 C 432.083 46.621 432.216 46.572 432.125 46.530 L 429.497 45.305 C 429.447 45.281 429.387 45.303 429.364 45.353 L 426.828 50.791 C 426.805 50.841 426.827 50.900 426.877 50.924 L 429.505 52.149 C 429.596 52.192 429.547 52.059 429.505 52.149 L 427.054 57.406 C 427.012 57.497 427.144 57.448 427.054 57.406 L 424.426 56.180 C 424.375 56.157 424.316 56.179 424.293 56.229 L 421.757 61.667 C 421.734 61.717 421.755 61.776 421.805 61.799 L 424.434 63.025 C 424.524 63.067 424.476 62.934 424.434 63.025 L 421.982 68.282 C 421.940 68.372 422.073 68.324 421.982 68.282 L 419.354 67.056 C 419.304 67.033 419.245 67.054 419.221 67.104 L 416.686 72.542 C 416.662 72.592 416.684 72.652 416.734 72.675 L 419.362 73.901 C 419.453 73.943 419.404 73.810 419.362 73.901 L 416.911 79.157 C 416.869 79.248 417.002 79.200 416.911 79.157 L 414.283 77.932 C 414.233 77.908 414.173 77.930 414.150 77.980 L 411.614 83.418 C 411.591 83.468 411.612 83.527 411.662 83.551 L 414.291 84.776 C 414.381 84.819 414.333 84.686 414.291 84.776 L 411.840 90.033 C 411.797 90.124 411.930 90.075 411.840 90.033 L 409.211 88.807 C 409.161 88.784 409.102 88.806 409.078 88.856 L 406.543 94.294 C 406.519 94.344 406.541 94.403 406.591 94.426 L 409.219 95.652 C 409.310 95.694 409.262 95.561 409.219 95.652 L 406.768 100.909 C 406.726 100.999 406.859 100.951 406.768 100.909 L 404.140 99.683 C 404.090 99.660 404.030 99.681 404.007 99.731 L 401.471 105.169 C 401.448 105.219 401.470 105.279 401.520 105.302 L 404.148 106.528 C 404.239 106.570 404.190 106.437 404.148 106.528 L 401.697 111.784 C 401.654 111.875 401.787 111.827 401.697 111.784 L 399.068 110.559 C 399.018 110.535 398.959 110.557 398.936 110.607 L 396.400 116.045 C 396.377 116.095 396.398 116.155 396.448 116.178 L 399.077 117.403 C 399.167 117.446 399.119 117.313 399.077 117.403 L 396.625 122.660 C 396.583 122.751 396.716 122.702 396.625 122.660 L 393.997 121.434 C 393.947 121.411 393.887 121.433 393.864 121.483 L 391.328 126.921 C 391.305 126.971 391.327 127.030 391.377 127.054 L 394.005 128.279 C 394.096 128.321 394.047 128.189 394.005 128.279 L 391.554 133.536 C 391.512 133.626 391.645 133.578 391.554 133.536 L 388.926 132.310 C 388.876 132.287 388.816 132.308 388.793 132.359 L 386.257 137.796 C 386.234 137.846 386.255 137.906 386.305 137.929 L 388.934 139.155 C 389.024 139.197 388.976 139.064 388.934 139.155 L 386.482 144.411 C 386.440 144.502 386.573 144.454 386.482 144.411 L 383.854 143.186 C 383.804 143.162 383.745 143.184 383.721 143.234 L 381.186 148.672 C 381.162 148.722 381.184 148.782 381.234 148.805 L 383.862 150.031 C 383.953 150.073 383.905 149.940 383.862 150.031 L 381.411 155.287 C 381.369 155.378 381.502 155.329 381.411 155.287 L 378.783 154.062 C 378.733 154.038 378.673 154.060 378.650 154.110 L 376.114 159.548 C 376.091 159.598 376.112 159.657 376.163 159.681 L 378.791 160.906 C 378.881 160.948 378.833 160.816 378.791 160.906 L 374.649 169.788 C 374.607 169.879 374.740 169.830 374.649 169.788 L 372.021 168.562 C 370.414 167.813 368.638 167.500 366.872 167.655 C 365.106 167.809 363.412 168.426 361.959 169.443 C 360.507 170.460 359.348 171.841 358.599 173.448 L 334.932 224.201 C 334.183 225.808 333.870 227.583 334.024 229.350 C 334.179 231.116 334.795 232.810 335.812 234.263 C 336.829 235.715 338.211 236.874 339.817 237.623 L 342.446 238.849 C 342.536 238.891 342.488 238.758 342.446 238.849 L 339.994 244.105 C 339.952 244.196 340.085 244.148 339.994 244.105 L 337.366 242.880 C 337.316 242.856 337.257 242.878 337.233 242.928 L 334.698 248.366 C 334.674 248.416 334.696 248.475 334.746 248.499 L 337.374 249.724 C 337.465 249.767 337.416 249.634 337.374 249.724 L 334.923 254.981 C 334.881 255.072 335.014 255.023 334.923 254.981 L 332.295 253.755 C 332.245 253.732 332.185 253.754 332.162 253.804 L 329.626 259.242 C 329.603 259.292 329.624 259.351 329.675 259.374 L 332.303 260.600 C 332.393 260.642 332.345 260.509 332.303 260.600 L 329.809 265.947 C 329.803 265.961 329.800 265.975 329.800 265.990 C 329.800 266.045 329.845 266.090 329.900 266.090 Z" stroke="rgb(0,0,0)" stroke-width="0.20"/>
  <path d="M 366.062 181.341 L 367.288 178.713 C 367.330 178.622 367.197 178.671 367.288 178.713 L 369.825 179.896 C 369.916 179.939 369.867 179.806 369.825 179.896 L 367.374 185.153 C 367.332 185.244 367.465 185.195 367.374 185.153 L 364.836 183.970 C 364.746 183.927 364.794 184.060 364.836 183.970 L 366.062 181.341 Z" stroke="rgb(0,0,255)" stroke-width="0.20"/>
  <path d="M 360.991 192.217 L 362.216 189.589 C 362.258 189.498 362.125 189.547 362.216 189.589 L 364.754 190.772 C 364.844 190.814 364.796 190.681 364.754 190.772 L 362.303 196.029 C 362.260 196.119 362.393 196.071 362.303 196.029 L 359.765 194.845 C 359.674 194.803 359.723 194.936 359.765 194.845 L 360.991 192.217 Z" stroke="rgb(0,0,255)" stroke-width="0.20"/>
  <path d="M 355.919 203.093 L 357.145 200.464 C 357.187 200.374 357.054 200.422 357.145 200.464 L 359.682 201.648 C 359.773 201.690 359.725 201.557 359.682 201.648 L 357.231 206.904 C 357.189 206.995 357.322 206.947 357.231 206.904 L 354.694 205.721 C 354.603 205.679 354.651 205.812 354.694 205.721 L 355.919 203.093 Z" stroke="rgb(0,0,255)" stroke-width="0.20"/>
  <path d="M 350.848 213.968 L 352.073 211.340 C 352.116 211.250 351.983 211.298 352.073 211.340 L 354.611 212.524 C 354.702 212.566 354.653 212.433 354.611 212.524 L 352.160 217.780 C 352.118 217.871 352.250 217.822 352.160 217.780 L 349.622 216.597 C 349.531 216.555 349.580 216.687 349.622 216.597 L 350.848 213.968 Z" stroke="rgb(0,0,255)" stroke-width="0.20"/>
  <path d="M 345.776 224.844 L 347.002 222.216 C 347.044 222.125 346.911 222.174 347.002 222.216 L 349.540 223.399 C 349.630 223.441 349.582 223.309 349.540 223.399 L 347.088 228.656 C 347.046 228.746 347.179 228.698 347.088 228.656 L 344.551 227.472 C 344.460 227.430 344.508 227.563 344.551 227.472 L 345.776 224.844 Z" stroke="rgb(0,0,255)" stroke-width="0.20"/>
  <path d="M 421.700 10.000 H 315.200 C 315.145 10.000 315.100 10.045 315.100 10.100 V 19.195 C 315.100 19.295 315.200 19.195 315.100 19.195 H 312.200 C 312.145 19.195 312.100 19.240 312.100 19.295 V 25.295 C 312.100 25.350 312.145 25.395 312.200 25.395 H 315.100 C 315.200 25.395 315.100 25.295 315.100 25.395 V 31.195 C 315.100 31.295 315.200 31.195 315.100 31.195 H 312.200 C 312.145 31.195 312.100 31.240 312.100 31.295 V 37.295 C 312.100 37.350 312.145 37.395 312.200 37.395 H 315.100 C 315.200 37.395 315.100 37.295 315.100 37.395 V 43.195 C 315.100 43.295 315.200 43.195 315.100 43.195 H 312.200 C 312.145 43.195 312.100 43.240 312.100 43.295 V 49.295 C 312.100 49.350 312.145 49.395 312.200 49.395 H 315.100 C 315.200 49.395 315.100 49.295 315.100 49.395 V 55.195 C 315.100 55.295 315.200 55.195 315.100 55.195 H 312.200 C 312.145 55.195 312.100 55.240 312.100 55.295 V 61.295 C 312.100 61.350 312.145 61.395 312.200 61.395 H 315.100 C 315.200 61.395 315.100 61.295 315.100 61.395 V 67.195 C 315.100 67.295 315.200 67.195 315.100 67.195 H 312.200 C 312.145 67.195 312.100 67.240 312.100 67.295 V 73.295 C 312.100 73.350 312.145 73.395 312.200 73.395 H 315.100 C 315.200 73.395 315.100 73.295 315.100 73.395 V 79.195 C 315.100 79.295 315.200 79.195 315.100 79.195 H 312.200 C 312.145 79.195 312.100 79.240 312.100 79.295 V 85.295 C 312.100 85.350 312.145 85.395 312.200 85.395 H 315.100 C 315.200 85.395 315.100 85.295 315.100 85.395 V 91.195 C 315.100 91.295 315.200 91.195 315.100 91.195 H 312.200 C 312.145 91.195 312.100 91.240 312.100 91.295 V 97.295 C 312.100 97.350 312.145 97.395 312.200 97.395 H 315.100 C 315.200 97.395 315.100 97.295 315.100 97.395 V 103.195 C 315.100 103.295 315.200 103.195 315.100 103.195 H 312.200 C 312.145 103.195 312.100 103.240 312.100 103.295 V 109.295 C 312.100 109.350 312.145 109.395 312.200 109.395 H 315.100 C 315.200 109.395 315.100 109.295 315.100 109.395 V 115.195 C 315.100 115.295 315.200 115.195 315.100 115.195 H 312.200 C 312.145 115.195 312.100 115.240 312.100 115.295 V 121.295 C 312.100 121.350 312.145 121.395 312.200 121.395 H 315.100 C 315.200 121.395 315.100 121.295 315.100 121.395 V 127.195 C 315.100 127.295 315.200 127.195 315.100 127.195 H 312.200 C 312.145 127.195 312.100 127.240 312.100 127.295 V 133.295 C 312.100 133.350 312.145 133.395 312.200 133.395 H 315.100 C 315.200 133.395 315.100 133.295 315.100 133.395 V 139.195 C 315.100 139.295 315.200 139.195 315.100 139.195 H 312.200 C 312.145 139.195 312.100 139.240 312.100 139.295 V 145.295 C 312.100 145.350 312.145 145.395 312.200 145.395 H 315.100 C 315.200 145.395 315.100 145.295 315.100 145.395 V 151.195 C 315.100 151.295 315.200 151.195 315.100 151.195 H 312.200 C 312.145 151.195 312.100 151.240 312.100 151.295 V 157.295 C 312.100 157.350 312.145 157.395 312.200 157.395 H 315.100 C 315.200 157.395 315.100 157.295 315.100 157.395 V 163.195 C 315.100 163.295 315.200 163.195 315.100 163.195 H 312.200 C 312.145 163.195 312.100 163.240 312.100 163.295 V 169.295 C 312.100 169.350 312.145 169.395 312.200 169.395 H 315.100 C 315.200 169.395 315.100 169.295 315.100 169.395 V 175.195 C 315.100 175.295 315.200 175.195 315.100 175.195 H 312.200 C 312.145 175.195 312.100 175.240 312.100 175.295 V 181.295 C 312.100 181.350 312.145 181.395 312.200 181.395 H 315.100 C 315.200 181.395 315.100 181.295 315.100 181.395 V 187.195 C 315.100 187.295 315.200 187.195 315.100 187.195 H 312.200 C 312.145 187.195 312.100 187.240 312.100 187.295 V 193.295 C 312.100 193.350 312.145 193.395 312.200 193.395 H 315.100 C 315.200 193.395 315.100 193.295 315.100 193.395 V 199.195 C 315.100 199.295 315.200 199.195 315.100 199.195 H 312.200 C 312.145 199.195 312.100 199.240 312.100 199.295 V 205.295 C 312.100 205.350 312.145 205.395 312.200 205.395 H 315.100 C 315.200 205.395 315.100 205.295 315.100 205.395 V 211.195 C 315.100 211.295 315.200 211.195 315.100 211.195 H 312.200 C 312.145 211.195 312.100 211.240 312.100 211.295 V 217.295 C 312.100 217.350 312.145 217.395 312.200 217.395 H 315.100 C 315.200 217.395 315.100 217.295 315.100 217.395 V 223.195 C 315.100 223.295 315.200 223.195 315.100 223.195 H 312.200 C 312.145 223.195 312.100 223.240 312.100 223.295 V 229.295 C 312.100 229.350 312.145 229.395 312.200 229.395 H 315.100 C 315.200 229.395 315.100 229.295 315.100 229.395 V 238.490 C 315.100 238.545 315.145 238.590 315.200 238.590 C 315.239 238.590 315.274 238.567 315.291 238.532 L 319.475 229.559 C 319.517 229.469 319.384 229.517 319.475 229.559 L 322.103 230.785 C 322.153 230.808 322.212 230.787 322.236 230.737 L 324.771 225.299 C 324.795 225.249 324.773 225.189 324.723 225.166 L 322.095 223.940 C 322.004 223.898 322.053 224.031 322.095 223.940 L 324.546 218.684 C 324.588 218.593 324.455 218.641 324.546 218.684 L 327.174 219.909 C 327.224 219.933 327.284 219.911 327.307 219.861 L 329.843 214.423 C 329.866 214.373 329.845 214.314 329.794 214.290 L 327.166 213.065 C 327.076 213.022 327.124 213.155 327.166 213.065 L 329.617 207.808 C 329.660 207.717 329.527 207.766 329.617 207.808 L 332.246 209.034 C 332.296 209.057 332.355 209.035 332.379 208.985 L 334.914 203.547 C 334.938 203.497 334.916 203.438 334.866 203.414 L 332.238 202.189 C 332.147 202.147 332.195 202.280 332.238 202.189 L 334.689 196.932 C 334.731 196.842 334.598 196.890 334.689 196.932 L 337.317 198.158 C 337.367 198.181 337.427 198.160 337.450 198.110 L 339.986 192.672 C 340.009 192.622 339.987 192.562 339.937 192.539 L 337.309 191.313 C 337.218 191.271 337.267 191.404 337.309 191.313 L 339.760 186.057 C 339.802 185.966 339.670 186.014 339.760 186.057 L 342.389 187.282 C 342.439 187.306 342.498 187.284 342.521 187.234 L 345.057 181.796 C 345.080 181.746 345.059 181.686 345.009 181.663 L 342.380 180.437 C 342.290 180.395 342.338 180.528 342.380 180.437 L 344.832 175.181 C 344.874 175.090 344.741 175.139 344.832 175.181 L 347.460 176.407 C 347.510 176.430 347.569 176.408 347.593 176.358 L 350.129 170.920 C 350.152 170.870 350.130 170.811 350.080 170.787 L 347.452 169.562 C 347.361 169.520 347.410 169.652 347.452 169.562 L 349.903 164.305 C 349.945 164.215 349.812 164.263 349.903 164.305 L 352.531 165.531 C 352.581 165.554 352.641 165.532 352.664 165.482 L 355.200 160.045 C 355.223 159.995 355.202 159.935 355.152 159.912 L 352.523 158.686 C 352.433 158.644 352.481 158.777 352.523 158.686 L 354.974 153.430 C 355.017 153.339 354.884 153.387 354.974 153.430 L 357.603 154.655 C 357.653 154.678 357.712 154.657 357.736 154.607 L 360.271 149.169 C 360.295 149.119 360.273 149.059 360.223 149.036 L 357.595 147.810 C 357.504 147.768 357.552 147.901 357.595 147.810 L 360.046 142.554 C 360.088 142.463 359.955 142.512 360.046 142.554 L 362.674 143.779 C 362.724 143.803 362.784 143.781 362.807 143.731 L 365.343 138.293 C 365.366 138.243 365.344 138.184 365.294 138.160 L 362.666 136.935 C 362.576 136.892 362.624 137.025 362.666 136.935 L 365.117 131.678 C 365.160 131.588 365.027 131.636 365.117 131.678 L 367.746 132.904 C 367.796 132.927 367.855 132.905 367.879 132.855 L 370.414 127.418 C 370.438 127.367 370.416 127.308 370.366 127.285 L 367.738 126.059 C 367.647 126.017 367.695 126.150 367.738 126.059 L 370.189 120.802 C 370.231 120.712 370.098 120.760 370.189 120.802 L 372.817 122.028 C 372.867 122.051 372.927 122.030 372.950 121.980 L 375.486 116.542 C 375.509 116.492 375.487 116.432 375.437 116.409 L 372.809 115.183 C 372.718 115.141 372.767 115.274 372.809 115.183 L 376.951 106.302 C 376.993 106.211 376.860 106.259 376.951 106.302 L 379.579 107.527 C 381.186 108.276 382.961 108.589 384.728 108.435 C 386.494 108.280 388.188 107.664 389.640 106.647 C 391.093 105.630 392.252 104.249 393.001 102.642 L 416.668 51.889 C 417.417 50.282 417.730 48.506 417.576 46.740 C 417.421 44.974 416.804 43.279 415.787 41.827 C 414.771 40.375 413.389 39.216 411.782 38.466 L 409.154 37.241 C 409.064 37.199 409.112 37.331 409.154 37.241 L 411.605 31.984 C 411.648 31.894 411.515 31.942 411.605 31.984 L 414.234 33.210 C 414.284 33.233 414.343 33.212 414.367 33.162 L 416.902 27.724 C 416.926 27.674 416.904 27.614 416.854 27.591 L 414.226 26.365 C 414.135 26.323 414.183 26.456 414.226 26.365 L 416.677 21.109 C 416.719 21.018 416.586 21.066 416.677 21.109 L 419.305 22.334 C 419.355 22.358 419.415 22.336 419.438 22.286 L 421.974 16.848 C 421.997 16.798 421.975 16.738 421.925 16.715 L 419.297 15.489 C 419.206 15.447 419.255 15.580 419.297 15.489 L 421.790 10.142 C 421.797 10.129 421.800 10.115 421.800 10.100 C 421.800 10.045 421.755 10.000 421.700 10.000 Z" stroke="rgb(0,0,0)" stroke-width="0.20"/>
  <path d="M 385.538 94.748 L 384.312 97.376 C 384.270 97.467 384.403 97.419 384.312 97.376 L 381.775 96.193 C 381.684 96.151 381.732 96.284 381.775 96.193 L 384.226 90.937 C 384.268 90.846 384.135 90.894 384.226 90.937 L 386.763 92.120 C 386.854 92.162 386.806 92.029 386.763 92.120 L 385.538 94.748 Z" stroke="rgb(0,0,255)" stroke-width="0.20"/>
  <path d="M 390.609 83.872 L 389.384 86.501 C 389.341 86.591 389.474 86.543 389.384 86.501 L 386.846 85.317 C 386.755 85.275 386.804 85.408 386.846 85.317 L 389.297 80.061 C 389.339 79.970 389.207 80.019 389.297 80.061 L 391.835 81.244 C 391.925 81.286 391.877 81.154 391.835 81.244 L 390.609 83.872 Z" stroke="rgb(0,0,255)" stroke-width="0.20"/>
  <path d="M 395.681 72.997 L 394.455 75.625 C 394.413 75.716 394.546 75.667 394.455 75.625 L 391.917 74.442 C 391.827 74.399 391.875 74.532 391.917 74.442 L 394.369 69.185 C 394.411 69.095 394.278 69.143 394.369 69.185 L 396.906 70.368 C 396.997 70.411 396.949 70.278 396.906 70.368 L 395.681 72.997 Z" stroke="rgb(0,0,255)" stroke-width="0.20"/>
  <path d="M 400.752 62.121 L 399.527 64.749 C 399.484 64.840 399.617 64.792 399.527 64.749 L 396.989 63.566 C 396.898 63.524 396.947 63.657 396.989 63.566 L 399.440 58.309 C 399.482 58.219 399.349 58.267 399.440 58.309 L 401.978 59.493 C 402.068 59.535 402.020 59.402 401.978 59.493 L 400.752 62.121 Z" stroke="rgb(0,0,255)" stroke-width="0.20"/>
  <path d="M 405.824 51.245 L 404.598 53.874 C 404.556 53.964 404.689 53.916 404.598 53.874 L 402.060 52.690 C 401.970 52.648 402.018 52.781 402.060 52.690 L 404.511 47.434 C 404.554 47.343 404.421 47.392 404.511 47.434 L 407.049 48.617 C 407.140 48.659 407.091 48.526 407.049 48.617 L 405.824 51.245 Z" stroke="rgb(0,0,255)" stroke-width="0.20"/>
  <text alignment-baseline="hanging" font-size="4px" style="font-family: sans-serif ; font-weight: normal; font-style: normal; fill: rgb(255,0,0)" text-anchor="middle" transform="matrix( 1.000 0.000 0.000 1.000 368.450 136.045 )"/>
</g>
<g id="p-4" style="fill:none;stroke-linecap:round;stroke-linejoin:round;">
  <text alignment-baseline="hanging" font-size="4px" style="font-family: sans-serif ; font-weight: normal; font-style: normal; fill: rgb(255,0,0)" text-anchor="middle" transform="matrix( 1.000 0.000 0.000 1.000 472.108 216.055 )"/><path d="M 503.117 266.090 H 458.320 C 458.305 266.090 458.291 266.086 458.277 266.080 C 455.239 264.663 452.627 262.471 450.704 259.725 C 448.781 256.979 447.614 253.774 447.322 250.434 C 447.030 247.094 447.622 243.736 449.039 240.698 L 455.801 226.197 C 456.031 225.704 456.387 225.280 456.832 224.968 C 457.278 224.655 457.798 224.466 458.340 224.419 C 458.882 224.371 459.427 224.467 459.920 224.697 C 460.414 224.927 460.838 225.283 461.150 225.729 C 461.462 226.175 461.651 226.695 461.699 227.237 C 461.746 227.779 461.650 228.324 461.420 228.817 L 459.518 232.895 C 459.488 232.959 459.476 233.029 459.482 233.099 C 459.488 233.169 459.513 233.236 459.553 233.294 C 459.593 233.351 459.648 233.397 459.712 233.427 L 470.950 238.667 C 471.040 238.710 470.908 238.758 470.950 238.667 L 475.514 228.879 C 475.556 228.789 475.605 228.922 475.514 228.879 L 472.886 227.654 C 472.836 227.630 472.814 227.571 472.837 227.521 L 475.373 222.083 C 475.396 222.033 475.456 222.011 475.506 222.035 L 478.134 223.260 C 478.225 223.302 478.092 223.351 478.134 223.260 L 480.586 218.004 C 480.628 217.913 480.676 218.046 480.586 218.004 L 477.957 216.778 C 477.907 216.755 477.886 216.695 477.909 216.645 L 480.445 211.207 C 480.468 211.157 480.527 211.136 480.577 211.159 L 483.206 212.385 C 483.296 212.427 483.163 212.475 483.206 212.385 L 485.657 207.128 C 485.699 207.037 485.748 207.170 485.657 207.128 L 483.029 205.902 C 482.979 205.879 482.957 205.819 482.980 205.769 L 485.516 200.332 C 485.539 200.282 485.599 200.260 485.649 200.283 L 488.277 201.509 C 488.368 201.551 488.235 201.599 488.277 201.509 L 490.728 196.252 C 490.771 196.162 490.819 196.294 490.728 196.252 L 488.100 195.027 C 488.050 195.003 488.028 194.944 488.052 194.894 L 490.587 189.456 C 490.611 189.406 490.670 189.384 490.720 189.408 L 493.349 190.633 C 493.439 190.675 493.306 190.724 493.349 190.633 L 495.800 185.377 C 495.842 185.286 495.890 185.419 495.800 185.377 L 493.171 184.151 C 493.121 184.128 493.100 184.068 493.123 184.018 L 495.659 178.580 C 495.682 178.530 495.742 178.508 495.792 178.532 L 498.420 179.757 C 498.511 179.800 498.378 179.848 498.420 179.757 L 503.027 169.879 C 503.034 169.862 503.046 169.848 503.061 169.838 C 503.076 169.828 503.094 169.822 503.112 169.821 C 503.130 169.820 503.148 169.824 503.164 169.833 C 503.180 169.841 503.194 169.854 503.203 169.869 C 503.212 169.885 503.217 169.903 503.217 169.921 V 265.990 C 503.217 266.045 503.172 266.090 503.117 266.090" stroke="rgb(0,0,0)" stroke-width="0.20"/>
</g>
<g id="p-5" style="fill:none;stroke-linecap:round;stroke-linejoin:round;">
  <text alignment-baseline="hanging" font-size="4px" style="font-family: sans-serif ; font-weight: normal; font-style: normal; fill: rgb(255,0,0)" text-anchor="middle" transform="matrix( 1.000 0.000 0.000 1.000 535.826 216.055 )"/><path d="M 504.817 266.090 H 549.615 C 549.629 266.090 549.644 266.086 549.657 266.080 C 552.696 264.663 555.308 262.471 557.231 259.725 C 559.154 256.979 560.320 253.774 560.612 250.434 C 560.905 247.094 560.312 243.736 558.895 240.698 L 552.134 226.197 C 551.904 225.704 551.548 225.280 551.102 224.968 C 550.656 224.655 550.136 224.466 549.594 224.419 C 549.052 224.371 548.507 224.467 548.014 224.697 C 547.521 224.927 547.097 225.283 546.785 225.729 C 546.473 226.175 546.283 226.695 546.236 227.237 C 546.188 227.779 546.284 228.324 546.514 228.817 L 548.416 232.895 C 548.446 232.959 548.458 233.029 548.452 233.099 C 548.446 233.169 548.422 233.236 548.381 233.294 C 548.341 233.351 548.286 233.397 548.223 233.427 L 536.985 238.667 C 536.894 238.710 537.027 238.758 536.985 238.667 L 532.420 228.879 C 532.378 228.789 532.330 228.922 532.420 228.879 L 535.049 227.654 C 535.099 227.630 535.120 227.571 535.097 227.521 L 532.561 222.083 C 532.538 222.033 532.478 222.011 532.428 222.035 L 529.800 223.260 C 529.709 223.302 529.842 223.351 529.800 223.260 L 527.349 218.004 C 527.307 217.913 527.258 218.046 527.349 218.004 L 529.977 216.778 C 530.027 216.755 530.049 216.695 530.026 216.645 L 527.490 211.207 C 527.466 211.157 527.407 211.136 527.357 211.159 L 524.729 212.385 C 524.638 212.427 524.771 212.475 524.729 212.385 L 522.277 207.128 C 522.235 207.037 522.187 207.170 522.277 207.128 L 524.906 205.902 C 524.956 205.879 524.977 205.819 524.954 205.769 L 522.418 200.332 C 522.395 200.282 522.336 200.260 522.285 200.283 L 519.657 201.509 C 519.567 201.551 519.699 201.599 519.657 201.509 L 517.206 196.252 C 517.164 196.162 517.115 196.294 517.206 196.252 L 519.834 195.027 C 519.884 195.003 519.906 194.944 519.883 194.894 L 517.347 189.456 C 517.324 189.406 517.264 189.384 517.214 189.408 L 514.586 190.633 C 514.495 190.675 514.628 190.724 514.586 190.633 L 512.135 185.377 C 512.092 185.286 512.044 185.419 512.135 185.377 L 514.763 184.151 C 514.813 184.128 514.835 184.068 514.811 184.018 L 512.276 178.580 C 512.252 178.530 512.193 178.508 512.143 178.532 L 509.514 179.757 C 509.424 179.800 509.557 179.848 509.514 179.757 L 504.908 169.879 C 504.900 169.862 504.888 169.848 504.873 169.838 C 504.858 169.828 504.841 169.822 504.822 169.821 C 504.804 169.820 504.786 169.824 504.770 169.833 C 504.754 169.841 504.741 169.854 504.731 169.869 C 504.722 169.885 504.717 169.903 504.717 169.921 V 265.990 C 504.717 266.045 504.762 266.090 504.817 266.090" stroke="rgb(0,0,0)" stroke-width="0.20"/>
</g>
</svg>