<?xml version="1.0" encoding="UTF-8"?>
<svg height="366.20mm" viewBox="0.0 0.0 804.90 366.20" width="804.90mm" xmlns="http://www.w3.org/2000/svg" xmlns:cc="http://creativecommons.org/ns#" xmlns:dc="http://purl.org/dc/elements/1.1/" xmlns:inkscape="http://www.inkscape.org/namespaces/inkscape" xmlns:rdf="http://www.w3.org/1999/02/22-rdf-syntax-ns#" xmlns:svg="http://www.w3.org/2000/svg" xmlns:xlink="http://www.w3.org/1999/xlink">
<!--
TwoPiece - A two piece box where top slips over the bottom half to form 
       the enclosure.
    

Created with Boxes.py (https://festi.info/boxes.py)
Creation date: 2021-07-01 14:20:24
Command line (remove spaces between dashes): boxes TwoPiece - -FingerJoint_angle=90.0 - -FingerJoint_style=rectangular - -FingerJoint_surroundingspaces=2.0 - -FingerJoint_edge_width=1.0 - -FingerJoint_finger=2.0 - -FingerJoint_play=0.0 - -FingerJoint_space=2.0 - -FingerJoint_width=1.0 - -x=182 - -y=182 - -h=65 - -hi=0.0 - -outside=0 - -play=0.15 - -thickness=3.0 - -format=svg - -tabs=0.0 - -debug=0 - -labels=0 - -labels=1 - -reference=100 - -burn=0.1
Url: http://www.festi.info/TwoPiece?FingerJoint_angle=90.0&FingerJoint_style=rectangular&FingerJoint_surroundingspaces=2.0&FingerJoint_edge_width=1.0&FingerJoint_finger=2.0&FingerJoint_play=0.0&FingerJoint_space=2.0&FingerJoint_width=1.0&x=182&y=182&h=65&hi=0.0&outside=0&play=0.15&thickness=3.0&format=svg&tabs=0.0&debug=0&labels=0&labels=1&reference=100&burn=0.1&render=1
SettingsUrl: http://www.festi.info/TwoPiece?FingerJoint_angle=90.0&FingerJoint_style=rectangular&FingerJoint_surroundingspaces=2.0&FingerJoint_edge_width=1.0&FingerJoint_finger=2.0&FingerJoint_play=0.0&FingerJoint_space=2.0&FingerJoint_width=1.0&x=182&y=182&h=65&hi=0.0&outside=0&play=0.15&thickness=3.0&format=svg&tabs=0.0&debug=0&labels=0&labels=1&reference=100&burn=0.1
-->
<title>TwoPiece</title>
<metadata>
<rdf:RDF><cc:Work>
<dc:title>Box - TwoPiece</dc:title>
<dc:date>2021-07-01 14:20:24</dc:date>
<dc:source>http://www.festi.info/TwoPiece?FingerJoint_angle=90.0&amp;FingerJoint_style=rectangular&amp;FingerJoint_surroundingspaces=2.0&amp;FingerJoint_edge_width=1.0&amp;FingerJoint_finger=2.0&amp;FingerJoint_play=0.0&amp;FingerJoint_space=2.0&amp;FingerJoint_width=1.0&amp;x=182&amp;y=182&amp;h=65&amp;hi=0.0&amp;outside=0&amp;play=0.15&amp;thickness=3.0&amp;format=svg&amp;tabs=0.0&amp;debug=0&amp;labels=0&amp;labels=1&amp;reference=100&amp;burn=0.1&amp;render=1</dc:source>
<dc:description>A two piece box where top slips over the bottom half to form 
       the enclosure.
    

Created with Boxes.py (https://festi.info/boxes.py)
Command line: boxes TwoPiece --FingerJoint_angle=90.0 --FingerJoint_style=rectangular --FingerJoint_surroundingspaces=2.0 --FingerJoint_edge_width=1.0 --FingerJoint_finger=2.0 --FingerJoint_play=0.0 --FingerJoint_space=2.0 --FingerJoint_width=1.0 --x=182 --y=182 --h=65 --hi=0.0 --outside=0 --play=0.15 --thickness=3.0 --format=svg --tabs=0.0 --debug=0 --labels=0 --labels=1 --reference=100 --burn=0.1
Url: http://www.festi.info/TwoPiece?FingerJoint_angle=90.0&amp;FingerJoint_style=rectangular&amp;FingerJoint_surroundingspaces=2.0&amp;FingerJoint_edge_width=1.0&amp;FingerJoint_finger=2.0&amp;FingerJoint_play=0.0&amp;FingerJoint_space=2.0&amp;FingerJoint_width=1.0&amp;x=182&amp;y=182&amp;h=65&amp;hi=0.0&amp;outside=0&amp;play=0.15&amp;thickness=3.0&amp;format=svg&amp;tabs=0.0&amp;debug=0&amp;labels=0&amp;labels=1&amp;reference=100&amp;burn=0.1&amp;render=1
SettingsUrl: http://www.festi.info/TwoPiece?FingerJoint_angle=90.0&amp;FingerJoint_style=rectangular&amp;FingerJoint_surroundingspaces=2.0&amp;FingerJoint_edge_width=1.0&amp;FingerJoint_finger=2.0&amp;FingerJoint_play=0.0&amp;FingerJoint_space=2.0&amp;FingerJoint_width=1.0&amp;x=182&amp;y=182&amp;h=65&amp;hi=0.0&amp;outside=0&amp;play=0.15&amp;thickness=3.0&amp;format=svg&amp;tabs=0.0&amp;debug=0&amp;labels=0&amp;labels=1&amp;reference=100&amp;burn=0.1
</dc:description>
</cc:Work></rdf:RDF></metadata>
<g id="p-0" style="fill:none;stroke-linecap:round;stroke-linejoin:round;">
  <path d="M 10.100 356.200 H 110.100 V 346.200 H 10.100 V 356.200 Z" stroke="rgb(0,0,0)" stroke-width="0.20"/>
  <text alignment-baseline="hanging" font-size="10px" style="font-family: sans-serif ; font-weight: normal; font-style: normal; fill: rgb(0,0,0)" text-anchor="middle" transform="matrix( 1.000 0.000 0.000 1.000 60.100 346.200 )">100mm</text><text alignment-baseline="hanging" font-size="4px" style="font-family: sans-serif ; font-weight: normal; font-style: normal; fill: rgb(255,0,0)" text-anchor="middle" transform="matrix( 1.000 0.000 0.000 1.000 15.100 349.200 )"/>
</g>
<g id="p-1" style="fill:none;stroke-linecap:round;stroke-linejoin:round;">
  <text alignment-baseline="hanging" font-size="4px" style="font-family: sans-serif ; font-weight: normal; font-style: normal; fill: rgb(255,0,0)" text-anchor="middle" transform="matrix( 1.000 0.000 0.000 1.000 104.100 308.500 )"/><path d="M 13.100 341.500 H 23.000 C 23.100 341.500 23.000 341.400 23.000 341.500 V 344.400 C 23.000 344.455 23.045 344.500 23.100 344.500 H 29.100 C 29.155 344.500 29.200 344.455 29.200 344.400 V 341.500 C 29.200 341.400 29.100 341.500 29.200 341.500 H 35.000 C 35.100 341.500 35.000 341.400 35.000 341.500 V 344.400 C 35.000 344.455 35.045 344.500 35.100 344.500 H 41.100 C 41.155 344.500 41.200 344.455 41.200 344.400 V 341.500 C 41.200 341.400 41.100 341.500 41.200 341.500 H 47.000 C 47.100 341.500 47.000 341.400 47.000 341.500 V 344.400 C 47.000 344.455 47.045 344.500 47.100 344.500 H 53.100 C 53.155 344.500 53.200 344.455 53.200 344.400 V 341.500 C 53.200 341.400 53.100 341.500 53.200 341.500 H 59.000 C 59.100 341.500 59.000 341.400 59.000 341.500 V 344.400 C 59.000 344.455 59.045 344.500 59.100 344.500 H 65.100 C 65.155 344.500 65.200 344.455 65.200 344.400 V 341.500 C 65.200 341.400 65.100 341.500 65.200 341.500 H 71.000 C 71.100 341.500 71.000 341.400 71.000 341.500 V 344.400 C 71.000 344.455 71.045 344.500 71.100 344.500 H 77.100 C 77.155 344.500 77.200 344.455 77.200 344.400 V 341.500 C 77.200 341.400 77.100 341.500 77.200 341.500 H 83.000 C 83.100 341.500 83.000 341.400 83.000 341.500 V 344.400 C 83.000 344.455 83.045 344.500 83.100 344.500 H 89.100 C 89.155 344.500 89.200 344.455 89.200 344.400 V 341.500 C 89.200 341.400 89.100 341.500 89.200 341.500 H 95.000 C 95.100 341.500 95.000 341.400 95.000 341.500 V 344.400 C 95.000 344.455 95.045 344.500 95.100 344.500 H 101.100 C 101.155 344.500 101.200 344.455 101.200 344.400 V 341.500 C 101.200 341.400 101.100 341.500 101.200 341.500 H 107.000 C 107.100 341.500 107.000 341.400 107.000 341.500 V 344.400 C 107.000 344.455 107.045 344.500 107.100 344.500 H 113.100 C 113.155 344.500 113.200 344.455 113.200 344.400 V 341.500 C 113.200 341.400 113.100 341.500 113.200 341.500 H 119.000 C 119.100 341.500 119.000 341.400 119.000 341.500 V 344.400 C 119.000 344.455 119.045 344.500 119.100 344.500 H 125.100 C 125.155 344.500 125.200 344.455 125.200 344.400 V 341.500 C 125.200 341.400 125.100 341.500 125.200 341.500 H 131.000 C 131.100 341.500 131.000 341.400 131.000 341.500 V 344.400 C 131.000 344.455 131.045 344.500 131.100 344.500 H 137.100 C 137.155 344.500 137.200 344.455 137.200 344.400 V 341.500 C 137.200 341.400 137.100 341.500 137.200 341.500 H 143.000 C 143.100 341.500 143.000 341.400 143.000 341.500 V 344.400 C 143.000 344.455 143.045 344.500 143.100 344.500 H 149.100 C 149.155 344.500 149.200 344.455 149.200 344.400 V 341.500 C 149.200 341.400 149.100 341.500 149.200 341.500 H 155.000 C 155.100 341.500 155.000 341.400 155.000 341.500 V 344.400 C 155.000 344.455 155.045 344.500 155.100 344.500 H 161.100 C 161.155 344.500 161.200 344.455 161.200 344.400 V 341.500 C 161.200 341.400 161.100 341.500 161.200 341.500 H 167.000 C 167.100 341.500 167.000 341.400 167.000 341.500 V 344.400 C 167.000 344.455 167.045 344.500 167.100 344.500 H 173.100 C 173.155 344.500 173.200 344.455 173.200 344.400 V 341.500 C 173.200 341.400 173.100 341.500 173.200 341.500 H 179.000 C 179.100 341.500 179.000 341.400 179.000 341.500 V 344.400 C 179.000 344.455 179.045 344.500 179.100 344.500 H 185.100 C 185.155 344.500 185.200 344.455 185.200 344.400 V 341.500 C 185.200 341.400 185.100 341.500 185.200 341.500 H 195.100 H 198.100 C 198.155 341.500 198.200 341.455 198.200 341.400 V 329.900 C 198.200 329.845 198.155 329.800 198.100 329.800 H 195.200 C 195.100 329.800 195.200 329.900 195.200 329.800 V 324.000 C 195.200 323.900 195.100 324.000 195.200 324.000 H 198.100 C 198.155 324.000 198.200 323.955 198.200 323.900 V 317.900 C 198.200 317.845 198.155 317.800 198.100 317.800 H 195.200 C 195.100 317.800 195.200 317.900 195.200 317.800 V 312.000 C 195.200 311.900 195.100 312.000 195.200 312.000 H 198.100 C 198.155 312.000 198.200 311.955 198.200 311.900 V 305.900 C 198.200 305.845 198.155 305.800 198.100 305.800 H 195.200 C 195.100 305.800 195.200 305.900 195.200 305.800 V 300.000 C 195.200 299.900 195.100 300.000 195.200 300.000 H 198.100 C 198.155 300.000 198.200 299.955 198.200 299.900 V 293.900 C 198.200 293.845 198.155 293.800 198.100 293.800 H 195.200 C 195.100 293.800 195.200 293.900 195.200 293.800 V 288.000 C 195.200 287.900 195.100 288.000 195.200 288.000 H 198.100 C 198.155 288.000 198.200 287.955 198.200 287.900 V 276.400 C 198.200 276.345 198.155 276.300 198.100 276.300 H 195.100 H 13.100 H 10.100 C 10.045 276.300 10.000 276.345 10.000 276.400 V 287.900 C 10.000 287.955 10.045 288.000 10.100 288.000 H 13.000 C 13.100 288.000 13.000 287.900 13.000 288.000 V 293.800 C 13.000 293.900 13.100 293.800 13.000 293.800 H 10.100 C 10.045 293.800 10.000 293.845 10.000 293.900 V 299.900 C 10.000 299.955 10.045 300.000 10.100 300.000 H 13.000 C 13.100 300.000 13.000 299.900 13.000 300.000 V 305.800 C 13.000 305.900 13.100 305.800 13.000 305.800 H 10.100 C 10.045 305.800 10.000 305.845 10.000 305.900 V 311.900 C 10.000 311.955 10.045 312.000 10.100 312.000 H 13.000 C 13.100 312.000 13.000 311.900 13.000 312.000 V 317.800 C 13.000 317.900 13.100 317.800 13.000 317.800 H 10.100 C 10.045 317.800 10.000 317.845 10.000 317.900 V 323.900 C 10.000 323.955 10.045 324.000 10.100 324.000 H 13.000 C 13.100 324.000 13.000 323.900 13.000 324.000 V 329.800 C 13.000 329.900 13.100 329.800 13.000 329.800 H 10.100 C 10.045 329.800 10.000 329.845 10.000 329.900 V 341.400 C 10.000 341.455 10.045 341.500 10.100 341.500 H 13.100" stroke="rgb(0,0,0)" stroke-width="0.20"/>
</g>
<g id="p-2" style="fill:none;stroke-linecap:round;stroke-linejoin:round;">
  <text alignment-baseline="hanging" font-size="4px" style="font-family: sans-serif ; font-weight: normal; font-style: normal; fill: rgb(255,0,0)" text-anchor="middle" transform="matrix( 1.000 0.000 0.000 1.000 293.800 308.500 )"/><path d="M 202.800 341.500 H 212.700 C 212.800 341.500 212.700 341.400 212.700 341.500 V 344.400 C 212.700 344.455 212.745 344.500 212.800 344.500 H 218.800 C 218.855 344.500 218.900 344.455 218.900 344.400 V 341.500 C 218.900 341.400 218.800 341.500 218.900 341.500 H 224.700 C 224.800 341.500 224.700 341.400 224.700 341.500 V 344.400 C 224.700 344.455 224.745 344.500 224.800 344.500 H 230.800 C 230.855 344.500 230.900 344.455 230.900 344.400 V 341.500 C 230.900 341.400 230.800 341.500 230.900 341.500 H 236.700 C 236.800 341.500 236.700 341.400 236.700 341.500 V 344.400 C 236.700 344.455 236.745 344.500 236.800 344.500 H 242.800 C 242.855 344.500 242.900 344.455 242.900 344.400 V 341.500 C 242.900 341.400 242.800 341.500 242.900 341.500 H 248.700 C 248.800 341.500 248.700 341.400 248.700 341.500 V 344.400 C 248.700 344.455 248.745 344.500 248.800 344.500 H 254.800 C 254.855 344.500 254.900 344.455 254.900 344.400 V 341.500 C 254.900 341.400 254.800 341.500 254.900 341.500 H 260.700 C 260.800 341.500 260.700 341.400 260.700 341.500 V 344.400 C 260.700 344.455 260.745 344.500 260.800 344.500 H 266.800 C 266.855 344.500 266.900 344.455 266.900 344.400 V 341.500 C 266.900 341.400 266.800 341.500 266.900 341.500 H 272.700 C 272.800 341.500 272.700 341.400 272.700 341.500 V 344.400 C 272.700 344.455 272.745 344.500 272.800 344.500 H 278.800 C 278.855 344.500 278.900 344.455 278.900 344.400 V 341.500 C 278.900 341.400 278.800 341.500 278.900 341.500 H 284.700 C 284.800 341.500 284.700 341.400 284.700 341.500 V 344.400 C 284.700 344.455 284.745 344.500 284.800 344.500 H 290.800 C 290.855 344.500 290.900 344.455 290.900 344.400 V 341.500 C 290.900 341.400 290.800 341.500 290.900 341.500 H 296.700 C 296.800 341.500 296.700 341.400 296.700 341.500 V 344.400 C 296.700 344.455 296.745 344.500 296.800 344.500 H 302.800 C 302.855 344.500 302.900 344.455 302.900 344.400 V 341.500 C 302.900 341.400 302.800 341.500 302.900 341.500 H 308.700 C 308.800 341.500 308.700 341.400 308.700 341.500 V 344.400 C 308.700 344.455 308.745 344.500 308.800 344.500 H 314.800 C 314.855 344.500 314.900 344.455 314.900 344.400 V 341.500 C 314.900 341.400 314.800 341.500 314.900 341.500 H 320.700 C 320.800 341.500 320.700 341.400 320.700 341.500 V 344.400 C 320.700 344.455 320.745 344.500 320.800 344.500 H 326.800 C 326.855 344.500 326.900 344.455 326.900 344.400 V 341.500 C 326.900 341.400 326.800 341.500 326.900 341.500 H 332.700 C 332.800 341.500 332.700 341.400 332.700 341.500 V 344.400 C 332.700 344.455 332.745 344.500 332.800 344.500 H 338.800 C 338.855 344.500 338.900 344.455 338.900 344.400 V 341.500 C 338.900 341.400 338.800 341.500 338.900 341.500 H 344.700 C 344.800 341.500 344.700 341.400 344.700 341.500 V 344.400 C 344.700 344.455 344.745 344.500 344.800 344.500 H 350.800 C 350.855 344.500 350.900 344.455 350.900 344.400 V 341.500 C 350.900 341.400 350.800 341.500 350.900 341.500 H 356.700 C 356.800 341.500 356.700 341.400 356.700 341.500 V 344.400 C 356.700 344.455 356.745 344.500 356.800 344.500 H 362.800 C 362.855 344.500 362.900 344.455 362.900 344.400 V 341.500 C 362.900 341.400 362.800 341.500 362.900 341.500 H 368.700 C 368.800 341.500 368.700 341.400 368.700 341.500 V 344.400 C 368.700 344.455 368.745 344.500 368.800 344.500 H 374.800 C 374.855 344.500 374.900 344.455 374.900 344.400 V 341.500 C 374.900 341.400 374.800 341.500 374.900 341.500 H 384.800 C 384.855 341.500 384.900 341.455 384.900 341.400 V 330.000 C 384.900 329.900 384.800 330.000 384.900 330.000 H 387.800 C 387.855 330.000 387.900 329.955 387.900 329.900 V 323.900 C 387.900 323.845 387.855 323.800 387.800 323.800 H 384.900 C 384.800 323.800 384.900 323.900 384.900 323.800 V 318.000 C 384.900 317.900 384.800 318.000 384.900 318.000 H 387.800 C 387.855 318.000 387.900 317.955 387.900 317.900 V 311.900 C 387.900 311.845 387.855 311.800 387.800 311.800 H 384.900 C 384.800 311.800 384.900 311.900 384.900 311.800 V 306.000 C 384.900 305.900 384.800 306.000 384.900 306.000 H 387.800 C 387.855 306.000 387.900 305.955 387.900 305.900 V 299.900 C 387.900 299.845 387.855 299.800 387.800 299.800 H 384.900 C 384.800 299.800 384.900 299.900 384.900 299.800 V 294.000 C 384.900 293.900 384.800 294.000 384.900 294.000 H 387.800 C 387.855 294.000 387.900 293.955 387.900 293.900 V 287.900 C 387.900 287.845 387.855 287.800 387.800 287.800 H 384.900 C 384.800 287.800 384.900 287.900 384.900 287.800 V 276.400 C 384.900 276.345 384.855 276.300 384.800 276.300 H 202.800 C 202.745 276.300 202.700 276.345 202.700 276.400 V 287.800 C 202.700 287.900 202.800 287.800 202.700 287.800 H 199.800 C 199.745 287.800 199.700 287.845 199.700 287.900 V 293.900 C 199.700 293.955 199.745 294.000 199.800 294.000 H 202.700 C 202.800 294.000 202.700 293.900 202.700 294.000 V 299.800 C 202.700 299.900 202.800 299.800 202.700 299.800 H 199.800 C 199.745 299.800 199.700 299.845 199.700 299.900 V 305.900 C 199.700 305.955 199.745 306.000 199.800 306.000 H 202.700 C 202.800 306.000 202.700 305.900 202.700 306.000 V 311.800 C 202.700 311.900 202.800 311.800 202.700 311.800 H 199.800 C 199.745 311.800 199.700 311.845 199.700 311.900 V 317.900 C 199.700 317.955 199.745 318.000 199.800 318.000 H 202.700 C 202.800 318.000 202.700 317.900 202.700 318.000 V 323.800 C 202.700 323.900 202.800 323.800 202.700 323.800 H 199.800 C 199.745 323.800 199.700 323.845 199.700 323.900 V 329.900 C 199.700 329.955 199.745 330.000 199.800 330.000 H 202.700 C 202.800 330.000 202.700 329.900 202.700 330.000 V 341.400 C 202.700 341.455 202.745 341.500 202.800 341.500" stroke="rgb(0,0,0)" stroke-width="0.20"/>
</g>
<g id="p-3" style="fill:none;stroke-linecap:round;stroke-linejoin:round;">
  <text alignment-baseline="hanging" font-size="4px" style="font-family: sans-serif ; font-weight: normal; font-style: normal; fill: rgb(255,0,0)" text-anchor="middle" transform="matrix( 1.000 0.000 0.000 1.000 483.500 308.500 )"/><path d="M 392.500 341.500 H 402.400 C 402.500 341.500 402.400 341.400 402.400 341.500 V 344.400 C 402.400 344.455 402.445 344.500 402.500 344.500 H 408.500 C 408.555 344.500 408.600 344.455 408.600 344.400 V 341.500 C 408.600 341.400 408.500 341.500 408.600 341.500 H 414.400 C 414.500 341.500 414.400 341.400 414.400 341.500 V 344.400 C 414.400 344.455 414.445 344.500 414.500 344.500 H 420.500 C 420.555 344.500 420.600 344.455 420.600 344.400 V 341.500 C 420.600 341.400 420.500 341.500 420.600 341.500 H 426.400 C 426.500 341.500 426.400 341.400 426.400 341.500 V 344.400 C 426.400 344.455 426.445 344.500 426.500 344.500 H 432.500 C 432.555 344.500 432.600 344.455 432.600 344.400 V 341.500 C 432.600 341.400 432.500 341.500 432.600 341.500 H 438.400 C 438.500 341.500 438.400 341.400 438.400 341.500 V 344.400 C 438.400 344.455 438.445 344.500 438.500 344.500 H 444.500 C 444.555 344.500 444.600 344.455 444.600 344.400 V 341.500 C 444.600 341.400 444.500 341.500 444.600 341.500 H 450.400 C 450.500 341.500 450.400 341.400 450.400 341.500 V 344.400 C 450.400 344.455 450.445 344.500 450.500 344.500 H 456.500 C 456.555 344.500 456.600 344.455 456.600 344.400 V 341.500 C 456.600 341.400 456.500 341.500 456.600 341.500 H 462.400 C 462.500 341.500 462.400 341.400 462.400 341.500 V 344.400 C 462.400 344.455 462.445 344.500 462.500 344.500 H 468.500 C 468.555 344.500 468.600 344.455 468.600 344.400 V 341.500 C 468.600 341.400 468.500 341.500 468.600 341.500 H 474.400 C 474.500 341.500 474.400 341.400 474.400 341.500 V 344.400 C 474.400 344.455 474.445 344.500 474.500 344.500 H 480.500 C 480.555 344.500 480.600 344.455 480.600 344.400 V 341.500 C 480.600 341.400 480.500 341.500 480.600 341.500 H 486.400 C 486.500 341.500 486.400 341.400 486.400 341.500 V 344.400 C 486.400 344.455 486.445 344.500 486.500 344.500 H 492.500 C 492.555 344.500 492.600 344.455 492.600 344.400 V 341.500 C 492.600 341.400 492.500 341.500 492.600 341.500 H 498.400 C 498.500 341.500 498.400 341.400 498.400 341.500 V 344.400 C 498.400 344.455 498.445 344.500 498.500 344.500 H 504.500 C 504.555 344.500 504.600 344.455 504.600 344.400 V 341.500 C 504.600 341.400 504.500 341.500 504.600 341.500 H 510.400 C 510.500 341.500 510.400 341.400 510.400 341.500 V 344.400 C 510.400 344.455 510.445 344.500 510.500 344.500 H 516.500 C 516.555 344.500 516.600 344.455 516.600 344.400 V 341.500 C 516.600 341.400 516.500 341.500 516.600 341.500 H 522.400 C 522.500 341.500 522.400 341.400 522.400 341.500 V 344.400 C 522.400 344.455 522.445 344.500 522.500 344.500 H 528.500 C 528.555 344.500 528.600 344.455 528.600 344.400 V 341.500 C 528.600 341.400 528.500 341.500 528.600 341.500 H 534.400 C 534.500 341.500 534.400 341.400 534.400 341.500 V 344.400 C 534.400 344.455 534.445 344.500 534.500 344.500 H 540.500 C 540.555 344.500 540.600 344.455 540.600 344.400 V 341.500 C 540.600 341.400 540.500 341.500 540.600 341.500 H 546.400 C 546.500 341.500 546.400 341.400 546.400 341.500 V 344.400 C 546.400 344.455 546.445 344.500 546.500 344.500 H 552.500 C 552.555 344.500 552.600 344.455 552.600 344.400 V 341.500 C 552.600 341.400 552.500 341.500 552.600 341.500 H 558.400 C 558.500 341.500 558.400 341.400 558.400 341.500 V 344.400 C 558.400 344.455 558.445 344.500 558.500 344.500 H 564.500 C 564.555 344.500 564.600 344.455 564.600 344.400 V 341.500 C 564.600 341.400 564.500 341.500 564.600 341.500 H 574.500 H 577.500 C 577.555 341.500 577.600 341.455 577.600 341.400 V 329.900 C 577.600 329.845 577.555 329.800 577.500 329.800 H 574.600 C 574.500 329.800 574.600 329.900 574.600 329.800 V 324.000 C 574.600 323.900 574.500 324.000 574.600 324.000 H 577.500 C 577.555 324.000 577.600 323.955 577.600 323.900 V 317.900 C 577.600 317.845 577.555 317.800 577.500 317.800 H 574.600 C 574.500 317.800 574.600 317.900 574.600 317.800 V 312.000 C 574.600 311.900 574.500 312.000 574.600 312.000 H 577.500 C 577.555 312.000 577.600 311.955 577.600 311.900 V 305.900 C 577.600 305.845 577.555 305.800 577.500 305.800 H 574.600 C 574.500 305.800 574.600 305.900 574.600 305.800 V 300.000 C 574.600 299.900 574.500 300.000 574.600 300.000 H 577.500 C 577.555 300.000 577.600 299.955 577.600 299.900 V 293.900 C 577.600 293.845 577.555 293.800 577.500 293.800 H 574.600 C 574.500 293.800 574.600 293.900 574.600 293.800 V 288.000 C 574.600 287.900 574.500 288.000 574.600 288.000 H 577.500 C 577.555 288.000 577.600 287.955 577.600 287.900 V 276.400 C 577.600 276.345 577.555 276.300 577.500 276.300 H 574.500 H 392.500 H 389.500 C 389.445 276.300 389.400 276.345 389.400 276.400 V 287.900 C 389.400 287.955 389.445 288.000 389.500 288.000 H 392.400 C 392.500 288.000 392.400 287.900 392.400 288.000 V 293.800 C 392.400 293.900 392.500 293.800 392.400 293.800 H 389.500 C 389.445 293.800 389.400 293.845 389.400 293.900 V 299.900 C 389.400 299.955 389.445 300.000 389.500 300.000 H 392.400 C 392.500 300.000 392.400 299.900 392.400 300.000 V 305.800 C 392.400 305.900 392.500 305.800 392.400 305.800 H 389.500 C 389.445 305.800 389.400 305.845 389.400 305.900 V 311.900 C 389.400 311.955 389.445 312.000 389.500 312.000 H 392.400 C 392.500 312.000 392.400 311.900 392.400 312.000 V 317.800 C 392.400 317.900 392.500 317.800 392.400 317.800 H 389.500 C 389.445 317.800 389.400 317.845 389.400 317.900 V 323.900 C 389.400 323.955 389.445 324.000 389.500 324.000 H 392.400 C 392.500 324.000 392.400 323.900 392.400 324.000 V 329.800 C 392.400 329.900 392.500 329.800 392.400 329.800 H 389.500 C 389.445 329.800 389.400 329.845 389.400 329.900 V 341.400 C 389.400 341.455 389.445 341.500 389.500 341.500 H 392.500" stroke="rgb(0,0,0)" stroke-width="0.20"/>
</g>
<g id="p-4" style="fill:none;stroke-linecap:round;stroke-linejoin:round;">
  <text alignment-baseline="hanging" font-size="4px" style="font-family: sans-serif ; font-weight: normal; font-style: normal; fill: rgb(255,0,0)" text-anchor="middle" transform="matrix( 1.000 0.000 0.000 1.000 673.200 308.500 )"/><path d="M 582.200 341.500 H 592.100 C 592.200 341.500 592.100 341.400 592.100 341.500 V 344.400 C 592.100 344.455 592.145 344.500 592.200 344.500 H 598.200 C 598.255 344.500 598.300 344.455 598.300 344.400 V 341.500 C 598.300 341.400 598.200 341.500 598.300 341.500 H 604.100 C 604.200 341.500 604.100 341.400 604.100 341.500 V 344.400 C 604.100 344.455 604.145 344.500 604.200 344.500 H 610.200 C 610.255 344.500 610.300 344.455 610.300 344.400 V 341.500 C 610.300 341.400 610.200 341.500 610.300 341.500 H 616.100 C 616.200 341.500 616.100 341.400 616.100 341.500 V 344.400 C 616.100 344.455 616.145 344.500 616.200 344.500 H 622.200 C 622.255 344.500 622.300 344.455 622.300 344.400 V 341.500 C 622.300 341.400 622.200 341.500 622.300 341.500 H 628.100 C 628.200 341.500 628.100 341.400 628.100 341.500 V 344.400 C 628.100 344.455 628.145 344.500 628.200 344.500 H 634.200 C 634.255 344.500 634.300 344.455 634.300 344.400 V 341.500 C 634.300 341.400 634.200 341.500 634.300 341.500 H 640.100 C 640.200 341.500 640.100 341.400 640.100 341.500 V 344.400 C 640.100 344.455 640.145 344.500 640.200 344.500 H 646.200 C 646.255 344.500 646.300 344.455 646.300 344.400 V 341.500 C 646.300 341.400 646.200 341.500 646.300 341.500 H 652.100 C 652.200 341.500 652.100 341.400 652.100 341.500 V 344.400 C 652.100 344.455 652.145 344.500 652.200 344.500 H 658.200 C 658.255 344.500 658.300 344.455 658.300 344.400 V 341.500 C 658.300 341.400 658.200 341.500 658.300 341.500 H 664.100 C 664.200 341.500 664.100 341.400 664.100 341.500 V 344.400 C 664.100 344.455 664.145 344.500 664.200 344.500 H 670.200 C 670.255 344.500 670.300 344.455 670.300 344.400 V 341.500 C 670.300 341.400 670.200 341.500 670.300 341.500 H 676.100 C 676.200 341.500 676.100 341.400 676.100 341.500 V 344.400 C 676.100 344.455 676.145 344.500 676.200 344.500 H 682.200 C 682.255 344.500 682.300 344.455 682.300 344.400 V 341.500 C 682.300 341.400 682.200 341.500 682.300 341.500 H 688.100 C 688.200 341.500 688.100 341.400 688.100 341.500 V 344.400 C 688.100 344.455 688.145 344.500 688.200 344.500 H 694.200 C 694.255 344.500 694.300 344.455 694.300 344.400 V 341.500 C 694.300 341.400 694.200 341.500 694.300 341.500 H 700.100 C 700.200 341.500 700.100 341.400 700.100 341.500 V 344.400 C 700.100 344.455 700.145 344.500 700.200 344.500 H 706.200 C 706.255 344.500 706.300 344.455 706.300 344.400 V 341.500 C 706.300 341.400 706.200 341.500 706.300 341.500 H 712.100 C 712.200 341.500 712.100 341.400 712.100 341.500 V 344.400 C 712.100 344.455 712.145 344.500 712.200 344.500 H 718.200 C 718.255 344.500 718.300 344.455 718.300 344.400 V 341.500 C 718.300 341.400 718.200 341.500 718.300 341.500 H 724.100 C 724.200 341.500 724.100 341.400 724.100 341.500 V 344.400 C 724.100 344.455 724.145 344.500 724.200 344.500 H 730.200 C 730.255 344.500 730.300 344.455 730.300 344.400 V 341.500 C 730.300 341.400 730.200 341.500 730.300 341.500 H 736.100 C 736.200 341.500 736.100 341.400 736.100 341.500 V 344.400 C 736.100 344.455 736.145 344.500 736.200 344.500 H 742.200 C 742.255 344.500 742.300 344.455 742.300 344.400 V 341.500 C 742.300 341.400 742.200 341.500 742.300 341.500 H 748.100 C 748.200 341.500 748.100 341.400 748.100 341.500 V 344.400 C 748.100 344.455 748.145 344.500 748.200 344.500 H 754.200 C 754.255 344.500 754.300 344.455 754.300 344.400 V 341.500 C 754.300 341.400 754.200 341.500 754.300 341.500 H 764.200 C 764.255 341.500 764.300 341.455 764.300 341.400 V 330.000 C 764.300 329.900 764.200 330.000 764.300 330.000 H 767.200 C 767.255 330.000 767.300 329.955 767.300 329.900 V 323.900 C 767.300 323.845 767.255 323.800 767.200 323.800 H 764.300 C 764.200 323.800 764.300 323.900 764.300 323.800 V 318.000 C 764.300 317.900 764.200 318.000 764.300 318.000 H 767.200 C 767.255 318.000 767.300 317.955 767.300 317.900 V 311.900 C 767.300 311.845 767.255 311.800 767.200 311.800 H 764.300 C 764.200 311.800 764.300 311.900 764.300 311.800 V 306.000 C 764.300 305.900 764.200 306.000 764.300 306.000 H 767.200 C 767.255 306.000 767.300 305.955 767.300 305.900 V 299.900 C 767.300 299.845 767.255 299.800 767.200 299.800 H 764.300 C 764.200 299.800 764.300 299.900 764.300 299.800 V 294.000 C 764.300 293.900 764.200 294.000 764.300 294.000 H 767.200 C 767.255 294.000 767.300 293.955 767.300 293.900 V 287.900 C 767.300 287.845 767.255 287.800 767.200 287.800 H 764.300 C 764.200 287.800 764.300 287.900 764.300 287.800 V 276.400 C 764.300 276.345 764.255 276.300 764.200 276.300 H 582.200 C 582.145 276.300 582.100 276.345 582.100 276.400 V 287.800 C 582.100 287.900 582.200 287.800 582.100 287.800 H 579.200 C 579.145 287.800 579.100 287.845 579.100 287.900 V 293.900 C 579.100 293.955 579.145 294.000 579.200 294.000 H 582.100 C 582.200 294.000 582.100 293.900 582.100 294.000 V 299.800 C 582.100 299.900 582.200 299.800 582.100 299.800 H 579.200 C 579.145 299.800 579.100 299.845 579.100 299.900 V 305.900 C 579.100 305.955 579.145 306.000 579.200 306.000 H 582.100 C 582.200 306.000 582.100 305.900 582.100 306.000 V 311.800 C 582.100 311.900 582.200 311.800 582.100 311.800 H 579.200 C 579.145 311.800 579.100 311.845 579.100 311.900 V 317.900 C 579.100 317.955 579.145 318.000 579.200 318.000 H 582.100 C 582.200 318.000 582.100 317.900 582.100 318.000 V 323.800 C 582.100 323.900 582.200 323.800 582.100 323.800 H 579.200 C 579.145 323.800 579.100 323.845 579.100 323.900 V 329.900 C 579.100 329.955 579.145 330.000 579.200 330.000 H 582.100 C 582.200 330.000 582.100 329.900 582.100 330.000 V 341.400 C 582.100 341.455 582.145 341.500 582.200 341.500" stroke="rgb(0,0,0)" stroke-width="0.20"/>
</g>
<g id="p-5" style="fill:none;stroke-linecap:round;stroke-linejoin:round;">
  <text alignment-baseline="hanging" font-size="4px" style="font-family: sans-serif ; font-weight: normal; font-style: normal; fill: rgb(255,0,0)" text-anchor="middle" transform="matrix( 1.000 0.000 0.000 1.000 107.550 238.800 )"/><path d="M 13.100 271.800 H 20.450 C 20.550 271.800 20.450 271.700 20.450 271.800 V 274.700 C 20.450 274.755 20.495 274.800 20.550 274.800 H 26.550 C 26.605 274.800 26.650 274.755 26.650 274.700 V 271.800 C 26.650 271.700 26.550 271.800 26.650 271.800 H 32.450 C 32.550 271.800 32.450 271.700 32.450 271.800 V 274.700 C 32.450 274.755 32.495 274.800 32.550 274.800 H 38.550 C 38.605 274.800 38.650 274.755 38.650 274.700 V 271.800 C 38.650 271.700 38.550 271.800 38.650 271.800 H 44.450 C 44.550 271.800 44.450 271.700 44.450 271.800 V 274.700 C 44.450 274.755 44.495 274.800 44.550 274.800 H 50.550 C 50.605 274.800 50.650 274.755 50.650 274.700 V 271.800 C 50.650 271.700 50.550 271.800 50.650 271.800 H 56.450 C 56.550 271.800 56.450 271.700 56.450 271.800 V 274.700 C 56.450 274.755 56.495 274.800 56.550 274.800 H 62.550 C 62.605 274.800 62.650 274.755 62.650 274.700 V 271.800 C 62.650 271.700 62.550 271.800 62.650 271.800 H 68.450 C 68.550 271.800 68.450 271.700 68.450 271.800 V 274.700 C 68.450 274.755 68.495 274.800 68.550 274.800 H 74.550 C 74.605 274.800 74.650 274.755 74.650 274.700 V 271.800 C 74.650 271.700 74.550 271.800 74.650 271.800 H 80.450 C 80.550 271.800 80.450 271.700 80.450 271.800 V 274.700 C 80.450 274.755 80.495 274.800 80.550 274.800 H 86.550 C 86.605 274.800 86.650 274.755 86.650 274.700 V 271.800 C 86.650 271.700 86.550 271.800 86.650 271.800 H 92.450 C 92.550 271.800 92.450 271.700 92.450 271.800 V 274.700 C 92.450 274.755 92.495 274.800 92.550 274.800 H 98.550 C 98.605 274.800 98.650 274.755 98.650 274.700 V 271.800 C 98.650 271.700 98.550 271.800 98.650 271.800 H 104.450 C 104.550 271.800 104.450 271.700 104.450 271.800 V 274.700 C 104.450 274.755 104.495 274.800 104.550 274.800 H 110.550 C 110.605 274.800 110.650 274.755 110.650 274.700 V 271.800 C 110.650 271.700 110.550 271.800 110.650 271.800 H 116.450 C 116.550 271.800 116.450 271.700 116.450 271.800 V 274.700 C 116.450 274.755 116.495 274.800 116.550 274.800 H 122.550 C 122.605 274.800 122.650 274.755 122.650 274.700 V 271.800 C 122.650 271.700 122.550 271.800 122.650 271.800 H 128.450 C 128.550 271.800 128.450 271.700 128.450 271.800 V 274.700 C 128.450 274.755 128.495 274.800 128.550 274.800 H 134.550 C 134.605 274.800 134.650 274.755 134.650 274.700 V 271.800 C 134.650 271.700 134.550 271.800 134.650 271.800 H 140.450 C 140.550 271.800 140.450 271.700 140.450 271.800 V 274.700 C 140.450 274.755 140.495 274.800 140.550 274.800 H 146.550 C 146.605 274.800 146.650 274.755 146.650 274.700 V 271.800 C 146.650 271.700 146.550 271.800 146.650 271.800 H 152.450 C 152.550 271.800 152.450 271.700 152.450 271.800 V 274.700 C 152.450 274.755 152.495 274.800 152.550 274.800 H 158.550 C 158.605 274.800 158.650 274.755 158.650 274.700 V 271.800 C 158.650 271.700 158.550 271.800 158.650 271.800 H 164.450 C 164.550 271.800 164.450 271.700 164.450 271.800 V 274.700 C 164.450 274.755 164.495 274.800 164.550 274.800 H 170.550 C 170.605 274.800 170.650 274.755 170.650 274.700 V 271.800 C 170.650 271.700 170.550 271.800 170.650 271.800 H 176.450 C 176.550 271.800 176.450 271.700 176.450 271.800 V 274.700 C 176.450 274.755 176.495 274.800 176.550 274.800 H 182.550 C 182.605 274.800 182.650 274.755 182.650 274.700 V 271.800 C 182.650 271.700 182.550 271.800 182.650 271.800 H 188.450 C 188.550 271.800 188.450 271.700 188.450 271.800 V 274.700 C 188.450 274.755 188.495 274.800 188.550 274.800 H 194.550 C 194.605 274.800 194.650 274.755 194.650 274.700 V 271.800 C 194.650 271.700 194.550 271.800 194.650 271.800 H 202.000 H 205.000 C 205.055 271.800 205.100 271.755 205.100 271.700 V 260.200 C 205.100 260.145 205.055 260.100 205.000 260.100 H 202.100 C 202.000 260.100 202.100 260.200 202.100 260.100 V 254.300 C 202.100 254.200 202.000 254.300 202.100 254.300 H 205.000 C 205.055 254.300 205.100 254.255 205.100 254.200 V 248.200 C 205.100 248.145 205.055 248.100 205.000 248.100 H 202.100 C 202.000 248.100 202.100 248.200 202.100 248.100 V 242.300 C 202.100 242.200 202.000 242.300 202.100 242.300 H 205.000 C 205.055 242.300 205.100 242.255 205.100 242.200 V 236.200 C 205.100 236.145 205.055 236.100 205.000 236.100 H 202.100 C 202.000 236.100 202.100 236.200 202.100 236.100 V 230.300 C 202.100 230.200 202.000 230.300 202.100 230.300 H 205.000 C 205.055 230.300 205.100 230.255 205.100 230.200 V 224.200 C 205.100 224.145 205.055 224.100 205.000 224.100 H 202.100 C 202.000 224.100 202.100 224.200 202.100 224.100 V 218.300 C 202.100 218.200 202.000 218.300 202.100 218.300 H 205.000 C 205.055 218.300 205.100 218.255 205.100 218.200 V 206.700 C 205.100 206.645 205.055 206.600 205.000 206.600 H 202.000 H 13.100 H 10.100 C 10.045 206.600 10.000 206.645 10.000 206.700 V 218.200 C 10.000 218.255 10.045 218.300 10.100 218.300 H 13.000 C 13.100 218.300 13.000 218.200 13.000 218.300 V 224.100 C 13.000 224.200 13.100 224.100 13.000 224.100 H 10.100 C 10.045 224.100 10.000 224.145 10.000 224.200 V 230.200 C 10.000 230.255 10.045 230.300 10.100 230.300 H 13.000 C 13.100 230.300 13.000 230.200 13.000 230.300 V 236.100 C 13.000 236.200 13.100 236.100 13.000 236.100 H 10.100 C 10.045 236.100 10.000 236.145 10.000 236.200 V 242.200 C 10.000 242.255 10.045 242.300 10.100 242.300 H 13.000 C 13.100 242.300 13.000 242.200 13.000 242.300 V 248.100 C 13.000 248.200 13.100 248.100 13.000 248.100 H 10.100 C 10.045 248.100 10.000 248.145 10.000 248.200 V 254.200 C 10.000 254.255 10.045 254.300 10.100 254.300 H 13.000 C 13.100 254.300 13.000 254.200 13.000 254.300 V 260.100 C 13.000 260.200 13.100 260.100 13.000 260.100 H 10.100 C 10.045 260.100 10.000 260.145 10.000 260.200 V 271.700 C 10.000 271.755 10.045 271.800 10.100 271.800 H 13.100" stroke="rgb(0,0,0)" stroke-width="0.20"/>
</g>
<g id="p-6" style="fill:none;stroke-linecap:round;stroke-linejoin:round;">
  <text alignment-baseline="hanging" font-size="4px" style="font-family: sans-serif ; font-weight: normal; font-style: normal; fill: rgb(255,0,0)" text-anchor="middle" transform="matrix( 1.000 0.000 0.000 1.000 304.150 238.800 )"/><path d="M 209.700 271.800 H 217.050 C 217.150 271.800 217.050 271.700 217.050 271.800 V 274.700 C 217.050 274.755 217.095 274.800 217.150 274.800 H 223.150 C 223.205 274.800 223.250 274.755 223.250 274.700 V 271.800 C 223.250 271.700 223.150 271.800 223.250 271.800 H 229.050 C 229.150 271.800 229.050 271.700 229.050 271.800 V 274.700 C 229.050 274.755 229.095 274.800 229.150 274.800 H 235.150 C 235.205 274.800 235.250 274.755 235.250 274.700 V 271.800 C 235.250 271.700 235.150 271.800 235.250 271.800 H 241.050 C 241.150 271.800 241.050 271.700 241.050 271.800 V 274.700 C 241.050 274.755 241.095 274.800 241.150 274.800 H 247.150 C 247.205 274.800 247.250 274.755 247.250 274.700 V 271.800 C 247.250 271.700 247.150 271.800 247.250 271.800 H 253.050 C 253.150 271.800 253.050 271.700 253.050 271.800 V 274.700 C 253.050 274.755 253.095 274.800 253.150 274.800 H 259.150 C 259.205 274.800 259.250 274.755 259.250 274.700 V 271.800 C 259.250 271.700 259.150 271.800 259.250 271.800 H 265.050 C 265.150 271.800 265.050 271.700 265.050 271.800 V 274.700 C 265.050 274.755 265.095 274.800 265.150 274.800 H 271.150 C 271.205 274.800 271.250 274.755 271.250 274.700 V 271.800 C 271.250 271.700 271.150 271.800 271.250 271.800 H 277.050 C 277.150 271.800 277.050 271.700 277.050 271.800 V 274.700 C 277.050 274.755 277.095 274.800 277.150 274.800 H 283.150 C 283.205 274.800 283.250 274.755 283.250 274.700 V 271.800 C 283.250 271.700 283.150 271.800 283.250 271.800 H 289.050 C 289.150 271.800 289.050 271.700 289.050 271.800 V 274.700 C 289.050 274.755 289.095 274.800 289.150 274.800 H 295.150 C 295.205 274.800 295.250 274.755 295.250 274.700 V 271.800 C 295.250 271.700 295.150 271.800 295.250 271.800 H 301.050 C 301.150 271.800 301.050 271.700 301.050 271.800 V 274.700 C 301.050 274.755 301.095 274.800 301.150 274.800 H 307.150 C 307.205 274.800 307.250 274.755 307.250 274.700 V 271.800 C 307.250 271.700 307.150 271.800 307.250 271.800 H 313.050 C 313.150 271.800 313.050 271.700 313.050 271.800 V 274.700 C 313.050 274.755 313.095 274.800 313.150 274.800 H 319.150 C 319.205 274.800 319.250 274.755 319.250 274.700 V 271.800 C 319.250 271.700 319.150 271.800 319.250 271.800 H 325.050 C 325.150 271.800 325.050 271.700 325.050 271.800 V 274.700 C 325.050 274.755 325.095 274.800 325.150 274.800 H 331.150 C 331.205 274.800 331.250 274.755 331.250 274.700 V 271.800 C 331.250 271.700 331.150 271.800 331.250 271.800 H 337.050 C 337.150 271.800 337.050 271.700 337.050 271.800 V 274.700 C 337.050 274.755 337.095 274.800 337.150 274.800 H 343.150 C 343.205 274.800 343.250 274.755 343.250 274.700 V 271.800 C 343.250 271.700 343.150 271.800 343.250 271.800 H 349.050 C 349.150 271.800 349.050 271.700 349.050 271.800 V 274.700 C 349.050 274.755 349.095 274.800 349.150 274.800 H 355.150 C 355.205 274.800 355.250 274.755 355.250 274.700 V 271.800 C 355.250 271.700 355.150 271.800 355.250 271.800 H 361.050 C 361.150 271.800 361.050 271.700 361.050 271.800 V 274.700 C 361.050 274.755 361.095 274.800 361.150 274.800 H 367.150 C 367.205 274.800 367.250 274.755 367.250 274.700 V 271.800 C 367.250 271.700 367.150 271.800 367.250 271.800 H 373.050 C 373.150 271.800 373.050 271.700 373.050 271.800 V 274.700 C 373.050 274.755 373.095 274.800 373.150 274.800 H 379.150 C 379.205 274.800 379.250 274.755 379.250 274.700 V 271.800 C 379.250 271.700 379.150 271.800 379.250 271.800 H 385.050 C 385.150 271.800 385.050 271.700 385.050 271.800 V 274.700 C 385.050 274.755 385.095 274.800 385.150 274.800 H 391.150 C 391.205 274.800 391.250 274.755 391.250 274.700 V 271.800 C 391.250 271.700 391.150 271.800 391.250 271.800 H 398.600 C 398.655 271.800 398.700 271.755 398.700 271.700 V 260.300 C 398.700 260.200 398.600 260.300 398.700 260.300 H 401.600 C 401.655 260.300 401.700 260.255 401.700 260.200 V 254.200 C 401.700 254.145 401.655 254.100 401.600 254.100 H 398.700 C 398.600 254.100 398.700 254.200 398.700 254.100 V 248.300 C 398.700 248.200 398.600 248.300 398.700 248.300 H 401.600 C 401.655 248.300 401.700 248.255 401.700 248.200 V 242.200 C 401.700 242.145 401.655 242.100 401.600 242.100 H 398.700 C 398.600 242.100 398.700 242.200 398.700 242.100 V 236.300 C 398.700 236.200 398.600 236.300 398.700 236.300 H 401.600 C 401.655 236.300 401.700 236.255 401.700 236.200 V 230.200 C 401.700 230.145 401.655 230.100 401.600 230.100 H 398.700 C 398.600 230.100 398.700 230.200 398.700 230.100 V 224.300 C 398.700 224.200 398.600 224.300 398.700 224.300 H 401.600 C 401.655 224.300 401.700 224.255 401.700 224.200 V 218.200 C 401.700 218.145 401.655 218.100 401.600 218.100 H 398.700 C 398.600 218.100 398.700 218.200 398.700 218.100 V 206.700 C 398.700 206.645 398.655 206.600 398.600 206.600 H 209.700 C 209.645 206.600 209.600 206.645 209.600 206.700 V 218.100 C 209.600 218.200 209.700 218.100 209.600 218.100 H 206.700 C 206.645 218.100 206.600 218.145 206.600 218.200 V 224.200 C 206.600 224.255 206.645 224.300 206.700 224.300 H 209.600 C 209.700 224.300 209.600 224.200 209.600 224.300 V 230.100 C 209.600 230.200 209.700 230.100 209.600 230.100 H 206.700 C 206.645 230.100 206.600 230.145 206.600 230.200 V 236.200 C 206.600 236.255 206.645 236.300 206.700 236.300 H 209.600 C 209.700 236.300 209.600 236.200 209.600 236.300 V 242.100 C 209.600 242.200 209.700 242.100 209.600 242.100 H 206.700 C 206.645 242.100 206.600 242.145 206.600 242.200 V 248.200 C 206.600 248.255 206.645 248.300 206.700 248.300 H 209.600 C 209.700 248.300 209.600 248.200 209.600 248.300 V 254.100 C 209.600 254.200 209.700 254.100 209.600 254.100 H 206.700 C 206.645 254.100 206.600 254.145 206.600 254.200 V 260.200 C 206.600 260.255 206.645 260.300 206.700 260.300 H 209.600 C 209.700 260.300 209.600 260.200 209.600 260.300 V 271.700 C 209.600 271.755 209.645 271.800 209.700 271.800" stroke="rgb(0,0,0)" stroke-width="0.20"/>
</g>
<g id="p-7" style="fill:none;stroke-linecap:round;stroke-linejoin:round;">
  <text alignment-baseline="hanging" font-size="4px" style="font-family: sans-serif ; font-weight: normal; font-style: normal; fill: rgb(255,0,0)" text-anchor="middle" transform="matrix( 1.000 0.000 0.000 1.000 500.750 238.800 )"/><path d="M 406.300 271.800 H 413.650 C 413.750 271.800 413.650 271.700 413.650 271.800 V 274.700 C 413.650 274.755 413.695 274.800 413.750 274.800 H 419.750 C 419.805 274.800 419.850 274.755 419.850 274.700 V 271.800 C 419.850 271.700 419.750 271.800 419.850 271.800 H 425.650 C 425.750 271.800 425.650 271.700 425.650 271.800 V 274.700 C 425.650 274.755 425.695 274.800 425.750 274.800 H 431.750 C 431.805 274.800 431.850 274.755 431.850 274.700 V 271.800 C 431.850 271.700 431.750 271.800 431.850 271.800 H 437.650 C 437.750 271.800 437.650 271.700 437.650 271.800 V 274.700 C 437.650 274.755 437.695 274.800 437.750 274.800 H 443.750 C 443.805 274.800 443.850 274.755 443.850 274.700 V 271.800 C 443.850 271.700 443.750 271.800 443.850 271.800 H 449.650 C 449.750 271.800 449.650 271.700 449.650 271.800 V 274.700 C 449.650 274.755 449.695 274.800 449.750 274.800 H 455.750 C 455.805 274.800 455.850 274.755 455.850 274.700 V 271.800 C 455.850 271.700 455.750 271.800 455.850 271.800 H 461.650 C 461.750 271.800 461.650 271.700 461.650 271.800 V 274.700 C 461.650 274.755 461.695 274.800 461.750 274.800 H 467.750 C 467.805 274.800 467.850 274.755 467.850 274.700 V 271.800 C 467.850 271.700 467.750 271.800 467.850 271.800 H 473.650 C 473.750 271.800 473.650 271.700 473.650 271.800 V 274.700 C 473.650 274.755 473.695 274.800 473.750 274.800 H 479.750 C 479.805 274.800 479.850 274.755 479.850 274.700 V 271.800 C 479.850 271.700 479.750 271.800 479.850 271.800 H 485.650 C 485.750 271.800 485.650 271.700 485.650 271.800 V 274.700 C 485.650 274.755 485.695 274.800 485.750 274.800 H 491.750 C 491.805 274.800 491.850 274.755 491.850 274.700 V 271.800 C 491.850 271.700 491.750 271.800 491.850 271.800 H 497.650 C 497.750 271.800 497.650 271.700 497.650 271.800 V 274.700 C 497.650 274.755 497.695 274.800 497.750 274.800 H 503.750 C 503.805 274.800 503.850 274.755 503.850 274.700 V 271.800 C 503.850 271.700 503.750 271.800 503.850 271.800 H 509.650 C 509.750 271.800 509.650 271.700 509.650 271.800 V 274.700 C 509.650 274.755 509.695 274.800 509.750 274.800 H 515.750 C 515.805 274.800 515.850 274.755 515.850 274.700 V 271.800 C 515.850 271.700 515.750 271.800 515.850 271.800 H 521.650 C 521.750 271.800 521.650 271.700 521.650 271.800 V 274.700 C 521.650 274.755 521.695 274.800 521.750 274.800 H 527.750 C 527.805 274.800 527.850 274.755 527.850 274.700 V 271.800 C 527.850 271.700 527.750 271.800 527.850 271.800 H 533.650 C 533.750 271.800 533.650 271.700 533.650 271.800 V 274.700 C 533.650 274.755 533.695 274.800 533.750 274.800 H 539.750 C 539.805 274.800 539.850 274.755 539.850 274.700 V 271.800 C 539.850 271.700 539.750 271.800 539.850 271.800 H 545.650 C 545.750 271.800 545.650 271.700 545.650 271.800 V 274.700 C 545.650 274.755 545.695 274.800 545.750 274.800 H 551.750 C 551.805 274.800 551.850 274.755 551.850 274.700 V 271.800 C 551.850 271.700 551.750 271.800 551.850 271.800 H 557.650 C 557.750 271.800 557.650 271.700 557.650 271.800 V 274.700 C 557.650 274.755 557.695 274.800 557.750 274.800 H 563.750 C 563.805 274.800 563.850 274.755 563.850 274.700 V 271.800 C 563.850 271.700 563.750 271.800 563.850 271.800 H 569.650 C 569.750 271.800 569.650 271.700 569.650 271.800 V 274.700 C 569.650 274.755 569.695 274.800 569.750 274.800 H 575.750 C 575.805 274.800 575.850 274.755 575.850 274.700 V 271.800 C 575.850 271.700 575.750 271.800 575.850 271.800 H 581.650 C 581.750 271.800 581.650 271.700 581.650 271.800 V 274.700 C 581.650 274.755 581.695 274.800 581.750 274.800 H 587.750 C 587.805 274.800 587.850 274.755 587.850 274.700 V 271.800 C 587.850 271.700 587.750 271.800 587.850 271.800 H 595.200 H 598.200 C 598.255 271.800 598.300 271.755 598.300 271.700 V 260.200 C 598.300 260.145 598.255 260.100 598.200 260.100 H 595.300 C 595.200 260.100 595.300 260.200 595.300 260.100 V 254.300 C 595.300 254.200 595.200 254.300 595.300 254.300 H 598.200 C 598.255 254.300 598.300 254.255 598.300 254.200 V 248.200 C 598.300 248.145 598.255 248.100 598.200 248.100 H 595.300 C 595.200 248.100 595.300 248.200 595.300 248.100 V 242.300 C 595.300 242.200 595.200 242.300 595.300 242.300 H 598.200 C 598.255 242.300 598.300 242.255 598.300 242.200 V 236.200 C 598.300 236.145 598.255 236.100 598.200 236.100 H 595.300 C 595.200 236.100 595.300 236.200 595.300 236.100 V 230.300 C 595.300 230.200 595.200 230.300 595.300 230.300 H 598.200 C 598.255 230.300 598.300 230.255 598.300 230.200 V 224.200 C 598.300 224.145 598.255 224.100 598.200 224.100 H 595.300 C 595.200 224.100 595.300 224.200 595.300 224.100 V 218.300 C 595.300 218.200 595.200 218.300 595.300 218.300 H 598.200 C 598.255 218.300 598.300 218.255 598.300 218.200 V 206.700 C 598.300 206.645 598.255 206.600 598.200 206.600 H 595.200 H 406.300 H 403.300 C 403.245 206.600 403.200 206.645 403.200 206.700 V 218.200 C 403.200 218.255 403.245 218.300 403.300 218.300 H 406.200 C 406.300 218.300 406.200 218.200 406.200 218.300 V 224.100 C 406.200 224.200 406.300 224.100 406.200 224.100 H 403.300 C 403.245 224.100 403.200 224.145 403.200 224.200 V 230.200 C 403.200 230.255 403.245 230.300 403.300 230.300 H 406.200 C 406.300 230.300 406.200 230.200 406.200 230.300 V 236.100 C 406.200 236.200 406.300 236.100 406.200 236.100 H 403.300 C 403.245 236.100 403.200 236.145 403.200 236.200 V 242.200 C 403.200 242.255 403.245 242.300 403.300 242.300 H 406.200 C 406.300 242.300 406.200 242.200 406.200 242.300 V 248.100 C 406.200 248.200 406.300 248.100 406.200 248.100 H 403.300 C 403.245 248.100 403.200 248.145 403.200 248.200 V 254.200 C 403.200 254.255 403.245 254.300 403.300 254.300 H 406.200 C 406.300 254.300 406.200 254.200 406.200 254.300 V 260.100 C 406.200 260.200 406.300 260.100 406.200 260.100 H 403.300 C 403.245 260.100 403.200 260.145 403.200 260.200 V 271.700 C 403.200 271.755 403.245 271.800 403.300 271.800 H 406.300" stroke="rgb(0,0,0)" stroke-width="0.20"/>
</g>
<g id="p-8" style="fill:none;stroke-linecap:round;stroke-linejoin:round;">
  <text alignment-baseline="hanging" font-size="4px" style="font-family: sans-serif ; font-weight: normal; font-style: normal; fill: rgb(255,0,0)" text-anchor="middle" transform="matrix( 1.000 0.000 0.000 1.000 697.350 238.800 )"/><path d="M 602.900 271.800 H 610.250 C 610.350 271.800 610.250 271.700 610.250 271.800 V 274.700 C 610.250 274.755 610.295 274.800 610.350 274.800 H 616.350 C 616.405 274.800 616.450 274.755 616.450 274.700 V 271.800 C 616.450 271.700 616.350 271.800 616.450 271.800 H 622.250 C 622.350 271.800 622.250 271.700 622.250 271.800 V 274.700 C 622.250 274.755 622.295 274.800 622.350 274.800 H 628.350 C 628.405 274.800 628.450 274.755 628.450 274.700 V 271.800 C 628.450 271.700 628.350 271.800 628.450 271.800 H 634.250 C 634.350 271.800 634.250 271.700 634.250 271.800 V 274.700 C 634.250 274.755 634.295 274.800 634.350 274.800 H 640.350 C 640.405 274.800 640.450 274.755 640.450 274.700 V 271.800 C 640.450 271.700 640.350 271.800 640.450 271.800 H 646.250 C 646.350 271.800 646.250 271.700 646.250 271.800 V 274.700 C 646.250 274.755 646.295 274.800 646.350 274.800 H 652.350 C 652.405 274.800 652.450 274.755 652.450 274.700 V 271.800 C 652.450 271.700 652.350 271.800 652.450 271.800 H 658.250 C 658.350 271.800 658.250 271.700 658.250 271.800 V 274.700 C 658.250 274.755 658.295 274.800 658.350 274.800 H 664.350 C 664.405 274.800 664.450 274.755 664.450 274.700 V 271.800 C 664.450 271.700 664.350 271.800 664.450 271.800 H 670.250 C 670.350 271.800 670.250 271.700 670.250 271.800 V 274.700 C 670.250 274.755 670.295 274.800 670.350 274.800 H 676.350 C 676.405 274.800 676.450 274.755 676.450 274.700 V 271.800 C 676.450 271.700 676.350 271.800 676.450 271.800 H 682.250 C 682.350 271.800 682.250 271.700 682.250 271.800 V 274.700 C 682.250 274.755 682.295 274.800 682.350 274.800 H 688.350 C 688.405 274.800 688.450 274.755 688.450 274.700 V 271.800 C 688.450 271.700 688.350 271.800 688.450 271.800 H 694.250 C 694.350 271.800 694.250 271.700 694.250 271.800 V 274.700 C 694.250 274.755 694.295 274.800 694.350 274.800 H 700.350 C 700.405 274.800 700.450 274.755 700.450 274.700 V 271.800 C 700.450 271.700 700.350 271.800 700.450 271.800 H 706.250 C 706.350 271.800 706.250 271.700 706.250 271.800 V 274.700 C 706.250 274.755 706.295 274.800 706.350 274.800 H 712.350 C 712.405 274.800 712.450 274.755 712.450 274.700 V 271.800 C 712.450 271.700 712.350 271.800 712.450 271.800 H 718.250 C 718.350 271.800 718.250 271.700 718.250 271.800 V 274.700 C 718.250 274.755 718.295 274.800 718.350 274.800 H 724.350 C 724.405 274.800 724.450 274.755 724.450 274.700 V 271.800 C 724.450 271.700 724.350 271.800 724.450 271.800 H 730.250 C 730.350 271.800 730.250 271.700 730.250 271.800 V 274.700 C 730.250 274.755 730.295 274.800 730.350 274.800 H 736.350 C 736.405 274.800 736.450 274.755 736.450 274.700 V 271.800 C 736.450 271.700 736.350 271.800 736.450 271.800 H 742.250 C 742.350 271.800 742.250 271.700 742.250 271.800 V 274.700 C 742.250 274.755 742.295 274.800 742.350 274.800 H 748.350 C 748.405 274.800 748.450 274.755 748.450 274.700 V 271.800 C 748.450 271.700 748.350 271.800 748.450 271.800 H 754.250 C 754.350 271.800 754.250 271.700 754.250 271.800 V 274.700 C 754.250 274.755 754.295 274.800 754.350 274.800 H 760.350 C 760.405 274.800 760.450 274.755 760.450 274.700 V 271.800 C 760.450 271.700 760.350 271.800 760.450 271.800 H 766.250 C 766.350 271.800 766.250 271.700 766.250 271.800 V 274.700 C 766.250 274.755 766.295 274.800 766.350 274.800 H 772.350 C 772.405 274.800 772.450 274.755 772.450 274.700 V 271.800 C 772.450 271.700 772.350 271.800 772.450 271.800 H 778.250 C 778.350 271.800 778.250 271.700 778.250 271.800 V 274.700 C 778.250 274.755 778.295 274.800 778.350 274.800 H 784.350 C 784.405 274.800 784.450 274.755 784.450 274.700 V 271.800 C 784.450 271.700 784.350 271.800 784.450 271.800 H 791.800 C 791.855 271.800 791.900 271.755 791.900 271.700 V 260.300 C 791.900 260.200 791.800 260.300 791.900 260.300 H 794.800 C 794.855 260.300 794.900 260.255 794.900 260.200 V 254.200 C 794.900 254.145 794.855 254.100 794.800 254.100 H 791.900 C 791.800 254.100 791.900 254.200 791.900 254.100 V 248.300 C 791.900 248.200 791.800 248.300 791.900 248.300 H 794.800 C 794.855 248.300 794.900 248.255 794.900 248.200 V 242.200 C 794.900 242.145 794.855 242.100 794.800 242.100 H 791.900 C 791.800 242.100 791.900 242.200 791.900 242.100 V 236.300 C 791.900 236.200 791.800 236.300 791.900 236.300 H 794.800 C 794.855 236.300 794.900 236.255 794.900 236.200 V 230.200 C 794.900 230.145 794.855 230.100 794.800 230.100 H 791.900 C 791.800 230.100 791.900 230.200 791.900 230.100 V 224.300 C 791.900 224.200 791.800 224.300 791.900 224.300 H 794.800 C 794.855 224.300 794.900 224.255 794.900 224.200 V 218.200 C 794.900 218.145 794.855 218.100 794.800 218.100 H 791.900 C 791.800 218.100 791.900 218.200 791.900 218.100 V 206.700 C 791.900 206.645 791.855 206.600 791.800 206.600 H 602.900 C 602.845 206.600 602.800 206.645 602.800 206.700 V 218.100 C 602.800 218.200 602.900 218.100 602.800 218.100 H 599.900 C 599.845 218.100 599.800 218.145 599.800 218.200 V 224.200 C 599.800 224.255 599.845 224.300 599.900 224.300 H 602.800 C 602.900 224.300 602.800 224.200 602.800 224.300 V 230.100 C 602.800 230.200 602.900 230.100 602.800 230.100 H 599.900 C 599.845 230.100 599.800 230.145 599.800 230.200 V 236.200 C 599.800 236.255 599.845 236.300 599.900 236.300 H 602.800 C 602.900 236.300 602.800 236.200 602.800 236.300 V 242.100 C 602.800 242.200 602.900 242.100 602.800 242.100 H 599.900 C 599.845 242.100 599.800 242.145 599.800 242.200 V 248.200 C 599.800 248.255 599.845 248.300 599.900 248.300 H 602.800 C 602.900 248.300 602.800 248.200 602.800 248.300 V 254.100 C 602.800 254.200 602.900 254.100 602.800 254.100 H 599.900 C 599.845 254.100 599.800 254.145 599.800 254.200 V 260.200 C 599.800 260.255 599.845 260.300 599.900 260.300 H 602.800 C 602.900 260.300 602.800 260.200 602.800 260.300 V 271.700 C 602.800 271.755 602.845 271.800 602.900 271.800" stroke="rgb(0,0,0)" stroke-width="0.20"/>
</g>
<g id="p-9" style="fill:none;stroke-linecap:round;stroke-linejoin:round;">
  <path d="M 29.550 201.450 H 26.650 C 26.550 201.450 26.650 201.550 26.650 201.450 V 198.650 C 26.650 198.550 26.550 198.650 26.650 198.650 H 32.450 C 32.550 198.650 32.450 198.550 32.450 198.650 V 201.450 C 32.450 201.550 32.550 201.450 32.450 201.450 H 29.550 Z" stroke="rgb(0,0,255)" stroke-width="0.20"/>
  <path d="M 41.550 201.450 H 38.650 C 38.550 201.450 38.650 201.550 38.650 201.450 V 198.650 C 38.650 198.550 38.550 198.650 38.650 198.650 H 44.450 C 44.550 198.650 44.450 198.550 44.450 198.650 V 201.450 C 44.450 201.550 44.550 201.450 44.450 201.450 H 41.550 Z" stroke="rgb(0,0,255)" stroke-width="0.20"/>
  <path d="M 53.550 201.450 H 50.650 C 50.550 201.450 50.650 201.550 50.650 201.450 V 198.650 C 50.650 198.550 50.550 198.650 50.650 198.650 H 56.450 C 56.550 198.650 56.450 198.550 56.450 198.650 V 201.450 C 56.450 201.550 56.550 201.450 56.450 201.450 H 53.550 Z" stroke="rgb(0,0,255)" stroke-width="0.20"/>
  <path d="M 65.550 201.450 H 62.650 C 62.550 201.450 62.650 201.550 62.650 201.450 V 198.650 C 62.650 198.550 62.550 198.650 62.650 198.650 H 68.450 C 68.550 198.650 68.450 198.550 68.450 198.650 V 201.450 C 68.450 201.550 68.550 201.450 68.450 201.450 H 65.550 Z" stroke="rgb(0,0,255)" stroke-width="0.20"/>
  <path d="M 77.550 201.450 H 74.650 C 74.550 201.450 74.650 201.550 74.650 201.450 V 198.650 C 74.650 198.550 74.550 198.650 74.650 198.650 H 80.450 C 80.550 198.650 80.450 198.550 80.450 198.650 V 201.450 C 80.450 201.550 80.550 201.450 80.450 201.450 H 77.550 Z" stroke="rgb(0,0,255)" stroke-width="0.20"/>
  <path d="M 89.550 201.450 H 86.650 C 86.550 201.450 86.650 201.550 86.650 201.450 V 198.650 C 86.650 198.550 86.550 198.650 86.650 198.650 H 92.450 C 92.550 198.650 92.450 198.550 92.450 198.650 V 201.450 C 92.450 201.550 92.550 201.450 92.450 201.450 H 89.550 Z" stroke="rgb(0,0,255)" stroke-width="0.20"/>
  <path d="M 101.550 201.450 H 98.650 C 98.550 201.450 98.650 201.550 98.650 201.450 V 198.650 C 98.650 198.550 98.550 198.650 98.650 198.650 H 104.450 C 104.550 198.650 104.450 198.550 104.450 198.650 V 201.450 C 104.450 201.550 104.550 201.450 104.450 201.450 H 101.550 Z" stroke="rgb(0,0,255)" stroke-width="0.20"/>
  <path d="M 113.550 201.450 H 110.650 C 110.550 201.450 110.650 201.550 110.650 201.450 V 198.650 C 110.650 198.550 110.550 198.650 110.650 198.650 H 116.450 C 116.550 198.650 116.450 198.550 116.450 198.650 V 201.450 C 116.450 201.550 116.550 201.450 116.450 201.450 H 113.550 Z" stroke="rgb(0,0,255)" stroke-width="0.20"/>
  <path d="M 125.550 201.450 H 122.650 C 122.550 201.450 122.650 201.550 122.650 201.450 V 198.650 C 122.650 198.550 122.550 198.650 122.650 198.650 H 128.450 C 128.550 198.650 128.450 198.550 128.450 198.650 V 201.450 C 128.450 201.550 128.550 201.450 128.450 201.450 H 125.550 Z" stroke="rgb(0,0,255)" stroke-width="0.20"/>
  <path d="M 137.550 201.450 H 134.650 C 134.550 201.450 134.650 201.550 134.650 201.450 V 198.650 C 134.650 198.550 134.550 198.650 134.650 198.650 H 140.450 C 140.550 198.650 140.450 198.550 140.450 198.650 V 201.450 C 140.450 201.550 140.550 201.450 140.450 201.450 H 137.550 Z" stroke="rgb(0,0,255)" stroke-width="0.20"/>
  <path d="M 149.550 201.450 H 146.650 C 146.550 201.450 146.650 201.550 146.650 201.450 V 198.650 C 146.650 198.550 146.550 198.650 146.650 198.650 H 152.450 C 152.550 198.650 152.450 198.550 152.450 198.650 V 201.450 C 152.450 201.550 152.550 201.450 152.450 201.450 H 149.550 Z" stroke="rgb(0,0,255)" stroke-width="0.20"/>
  <path d="M 161.550 201.450 H 158.650 C 158.550 201.450 158.650 201.550 158.650 201.450 V 198.650 C 158.650 198.550 158.550 198.650 158.650 198.650 H 164.450 C 164.550 198.650 164.450 198.550 164.450 198.650 V 201.450 C 164.450 201.550 164.550 201.450 164.450 201.450 H 161.550 Z" stroke="rgb(0,0,255)" stroke-width="0.20"/>
  <path d="M 173.550 201.450 H 170.650 C 170.550 201.450 170.650 201.550 170.650 201.450 V 198.650 C 170.650 198.550 170.550 198.650 170.650 198.650 H 176.450 C 176.550 198.650 176.450 198.550 176.450 198.650 V 201.450 C 176.450 201.550 176.550 201.450 176.450 201.450 H 173.550 Z" stroke="rgb(0,0,255)" stroke-width="0.20"/>
  <path d="M 185.550 201.450 H 182.650 C 182.550 201.450 182.650 201.550 182.650 201.450 V 198.650 C 182.650 198.550 182.550 198.650 182.650 198.650 H 188.450 C 188.550 198.650 188.450 198.550 188.450 198.650 V 201.450 C 188.450 201.550 188.550 201.450 188.450 201.450 H 185.550 Z" stroke="rgb(0,0,255)" stroke-width="0.20"/>
  <text alignment-baseline="hanging" font-size="4px" style="font-family: sans-serif ; font-weight: normal; font-style: normal; fill: rgb(255,0,0)" text-anchor="middle" transform="matrix( 1.000 0.000 0.000 1.000 107.550 105.650 )"/><path d="M 16.550 205.100 H 198.550 H 205.000 C 205.055 205.100 205.100 205.055 205.100 205.000 V 198.550 V 16.550 V 10.100 C 205.100 10.045 205.055 10.000 205.000 10.000 H 198.550 H 16.550 H 10.100 C 10.045 10.000 10.000 10.045 10.000 10.100 V 16.550 V 198.550 V 205.000 C 10.000 205.055 10.045 205.100 10.100 205.100 H 16.550" stroke="rgb(0,0,0)" stroke-width="0.20"/>
  <path d="M 201.450 185.550 V 188.450 C 201.450 188.550 201.550 188.450 201.450 188.450 H 198.650 C 198.550 188.450 198.650 188.550 198.650 188.450 V 182.650 C 198.650 182.550 198.550 182.650 198.650 182.650 H 201.450 C 201.550 182.650 201.450 182.550 201.450 182.650 V 185.550 Z" stroke="rgb(0,0,255)" stroke-width="0.20"/>
  <path d="M 201.450 173.550 V 176.450 C 201.450 176.550 201.550 176.450 201.450 176.450 H 198.650 C 198.550 176.450 198.650 176.550 198.650 176.450 V 170.650 C 198.650 170.550 198.550 170.650 198.650 170.650 H 201.450 C 201.550 170.650 201.450 170.550 201.450 170.650 V 173.550 Z" stroke="rgb(0,0,255)" stroke-width="0.20"/>
  <path d="M 201.450 161.550 V 164.450 C 201.450 164.550 201.550 164.450 201.450 164.450 H 198.650 C 198.550 164.450 198.650 164.550 198.650 164.450 V 158.650 C 198.650 158.550 198.550 158.650 198.650 158.650 H 201.450 C 201.550 158.650 201.450 158.550 201.450 158.650 V 161.550 Z" stroke="rgb(0,0,255)" stroke-width="0.20"/>
  <path d="M 201.450 149.550 V 152.450 C 201.450 152.550 201.550 152.450 201.450 152.450 H 198.650 C 198.550 152.450 198.650 152.550 198.650 152.450 V 146.650 C 198.650 146.550 198.550 146.650 198.650 146.650 H 201.450 C 201.550 146.650 201.450 146.550 201.450 146.650 V 149.550 Z" stroke="rgb(0,0,255)" stroke-width="0.20"/>
  <path d="M 201.450 137.550 V 140.450 C 201.450 140.550 201.550 140.450 201.450 140.450 H 198.650 C 198.550 140.450 198.650 140.550 198.650 140.450 V 134.650 C 198.650 134.550 198.550 134.650 198.650 134.650 H 201.450 C 201.550 134.650 201.450 134.550 201.450 134.650 V 137.550 Z" stroke="rgb(0,0,255)" stroke-width="0.20"/>
  <path d="M 201.450 125.550 V 128.450 C 201.450 128.550 201.550 128.450 201.450 128.450 H 198.650 C 198.550 128.450 198.650 128.550 198.650 128.450 V 122.650 C 198.650 122.550 198.550 122.650 198.650 122.650 H 201.450 C 201.550 122.650 201.450 122.550 201.450 122.650 V 125.550 Z" stroke="rgb(0,0,255)" stroke-width="0.20"/>
  <path d="M 201.450 113.550 V 116.450 C 201.450 116.550 201.550 116.450 201.450 116.450 H 198.650 C 198.550 116.450 198.650 116.550 198.650 116.450 V 110.650 C 198.650 110.550 198.550 110.650 198.650 110.650 H 201.450 C 201.550 110.650 201.450 110.550 201.450 110.650 V 113.550 Z" stroke="rgb(0,0,255)" stroke-width="0.20"/>
  <path d="M 201.450 101.550 V 104.450 C 201.450 104.550 201.550 104.450 201.450 104.450 H 198.650 C 198.550 104.450 198.650 104.550 198.650 104.450 V 98.650 C 198.650 98.550 198.550 98.650 198.650 98.650 H 201.450 C 201.550 98.650 201.450 98.550 201.450 98.650 V 101.550 Z" stroke="rgb(0,0,255)" stroke-width="0.20"/>
  <path d="M 201.450 89.550 V 92.450 C 201.450 92.550 201.550 92.450 201.450 92.450 H 198.650 C 198.550 92.450 198.650 92.550 198.650 92.450 V 86.650 C 198.650 86.550 198.550 86.650 198.650 86.650 H 201.450 C 201.550 86.650 201.450 86.550 201.450 86.650 V 89.550 Z" stroke="rgb(0,0,255)" stroke-width="0.20"/>
  <path d="M 201.450 77.550 V 80.450 C 201.450 80.550 201.550 80.450 201.450 80.450 H 198.650 C 198.550 80.450 198.650 80.550 198.650 80.450 V 74.650 C 198.650 74.550 198.550 74.650 198.650 74.650 H 201.450 C 201.550 74.650 201.450 74.550 201.450 74.650 V 77.550 Z" stroke="rgb(0,0,255)" stroke-width="0.20"/>
  <path d="M 201.450 65.550 V 68.450 C 201.450 68.550 201.550 68.450 201.450 68.450 H 198.650 C 198.550 68.450 198.650 68.550 198.650 68.450 V 62.650 C 198.650 62.550 198.550 62.650 198.650 62.650 H 201.450 C 201.550 62.650 201.450 62.550 201.450 62.650 V 65.550 Z" stroke="rgb(0,0,255)" stroke-width="0.20"/>
  <path d="M 201.450 53.550 V 56.450 C 201.450 56.550 201.550 56.450 201.450 56.450 H 198.650 C 198.550 56.450 198.650 56.550 198.650 56.450 V 50.650 C 198.650 50.550 198.550 50.650 198.650 50.650 H 201.450 C 201.550 50.650 201.450 50.550 201.450 50.650 V 53.550 Z" stroke="rgb(0,0,255)" stroke-width="0.20"/>
  <path d="M 201.450 41.550 V 44.450 C 201.450 44.550 201.550 44.450 201.450 44.450 H 198.650 C 198.550 44.450 198.650 44.550 198.650 44.450 V 38.650 C 198.650 38.550 198.550 38.650 198.650 38.650 H 201.450 C 201.550 38.650 201.450 38.550 201.450 38.650 V 41.550 Z" stroke="rgb(0,0,255)" stroke-width="0.20"/>
  <path d="M 201.450 29.550 V 32.450 C 201.450 32.550 201.550 32.450 201.450 32.450 H 198.650 C 198.550 32.450 198.650 32.550 198.650 32.450 V 26.650 C 198.650 26.550 198.550 26.650 198.650 26.650 H 201.450 C 201.550 26.650 201.450 26.550 201.450 26.650 V 29.550 Z" stroke="rgb(0,0,255)" stroke-width="0.20"/>
  <path d="M 185.550 13.650 H 188.450 C 188.550 13.650 188.450 13.550 188.450 13.650 V 16.450 C 188.450 16.550 188.550 16.450 188.450 16.450 H 182.650 C 182.550 16.450 182.650 16.550 182.650 16.450 V 13.650 C 182.650 13.550 182.550 13.650 182.650 13.650 H 185.550 Z" stroke="rgb(0,0,255)" stroke-width="0.20"/>
  <path d="M 173.550 13.650 H 176.450 C 176.550 13.650 176.450 13.550 176.450 13.650 V 16.450 C 176.450 16.550 176.550 16.450 176.450 16.450 H 170.650 C 170.550 16.450 170.650 16.550 170.650 16.450 V 13.650 C 170.650 13.550 170.550 13.650 170.650 13.650 H 173.550 Z" stroke="rgb(0,0,255)" stroke-width="0.20"/>
  <path d="M 161.550 13.650 H 164.450 C 164.550 13.650 164.450 13.550 164.450 13.650 V 16.450 C 164.450 16.550 164.550 16.450 164.450 16.450 H 158.650 C 158.550 16.450 158.650 16.550 158.650 16.450 V 13.650 C 158.650 13.550 158.550 13.650 158.650 13.650 H 161.550 Z" stroke="rgb(0,0,255)" stroke-width="0.20"/>
  <path d="M 149.550 13.650 H 152.450 C 152.550 13.650 152.450 13.550 152.450 13.650 V 16.450 C 152.450 16.550 152.550 16.450 152.450 16.450 H 146.650 C 146.550 16.450 146.650 16.550 146.650 16.450 V 13.650 C 146.650 13.550 146.550 13.650 146.650 13.650 H 149.550 Z" stroke="rgb(0,0,255)" stroke-width="0.20"/>
  <path d="M 137.550 13.650 H 140.450 C 140.550 13.650 140.450 13.550 140.450 13.650 V 16.450 C 140.450 16.550 140.550 16.450 140.450 16.450 H 134.650 C 134.550 16.450 134.650 16.550 134.650 16.450 V 13.650 C 134.650 13.550 134.550 13.650 134.650 13.650 H 137.550 Z" stroke="rgb(0,0,255)" stroke-width="0.20"/>
  <path d="M 125.550 13.650 H 128.450 C 128.550 13.650 128.450 13.550 128.450 13.650 V 16.450 C 128.450 16.550 128.550 16.450 128.450 16.450 H 122.650 C 122.550 16.450 122.650 16.550 122.650 16.450 V 13.650 C 122.650 13.550 122.550 13.650 122.650 13.650 H 125.550 Z" stroke="rgb(0,0,255)" stroke-width="0.20"/>
  <path d="M 113.550 13.650 H 116.450 C 116.550 13.650 116.450 13.550 116.450 13.650 V 16.450 C 116.450 16.550 116.550 16.450 116.450 16.450 H 110.650 C 110.550 16.450 110.650 16.550 110.650 16.450 V 13.650 C 110.650 13.550 110.550 13.650 110.650 13.650 H 113.550 Z" stroke="rgb(0,0,255)" stroke-width="0.20"/>
  <path d="M 101.550 13.650 H 104.450 C 104.550 13.650 104.450 13.550 104.450 13.650 V 16.450 C 104.450 16.550 104.550 16.450 104.450 16.450 H 98.650 C 98.550 16.450 98.650 16.550 98.650 16.450 V 13.650 C 98.650 13.550 98.550 13.650 98.650 13.650 H 101.550 Z" stroke="rgb(0,0,255)" stroke-width="0.20"/>
  <path d="M 89.550 13.650 H 92.450 C 92.550 13.650 92.450 13.550 92.450 13.650 V 16.450 C 92.450 16.550 92.550 16.450 92.450 16.450 H 86.650 C 86.550 16.450 86.650 16.550 86.650 16.450 V 13.650 C 86.650 13.550 86.550 13.650 86.650 13.650 H 89.550 Z" stroke="rgb(0,0,255)" stroke-width="0.20"/>
  <path d="M 77.550 13.650 H 80.450 C 80.550 13.650 80.450 13.550 80.450 13.650 V 16.450 C 80.450 16.550 80.550 16.450 80.450 16.450 H 74.650 C 74.550 16.450 74.650 16.550 74.650 16.450 V 13.650 C 74.650 13.550 74.550 13.650 74.650 13.650 H 77.550 Z" stroke="rgb(0,0,255)" stroke-width="0.20"/>
  <path d="M 65.550 13.650 H 68.450 C 68.550 13.650 68.450 13.550 68.450 13.650 V 16.450 C 68.450 16.550 68.550 16.450 68.450 16.450 H 62.650 C 62.550 16.450 62.650 16.550 62.650 16.450 V 13.650 C 62.650 13.550 62.550 13.650 62.650 13.650 H 65.550 Z" stroke="rgb(0,0,255)" stroke-width="0.20"/>
  <path d="M 53.550 13.650 H 56.450 C 56.550 13.650 56.450 13.550 56.450 13.650 V 16.450 C 56.450 16.550 56.550 16.450 56.450 16.450 H 50.650 C 50.550 16.450 50.650 16.550 50.650 16.450 V 13.650 C 50.650 13.550 50.550 13.650 50.650 13.650 H 53.550 Z" stroke="rgb(0,0,255)" stroke-width="0.20"/>
  <path d="M 41.550 13.650 H 44.450 C 44.550 13.650 44.450 13.550 44.450 13.650 V 16.450 C 44.450 16.550 44.550 16.450 44.450 16.450 H 38.650 C 38.550 16.450 38.650 16.550 38.650 16.450 V 13.650 C 38.650 13.550 38.550 13.650 38.650 13.650 H 41.550 Z" stroke="rgb(0,0,255)" stroke-width="0.20"/>
  <path d="M 29.550 13.650 H 32.450 C 32.550 13.650 32.450 13.550 32.450 13.650 V 16.450 C 32.450 16.550 32.550 16.450 32.450 16.450 H 26.650 C 26.550 16.450 26.650 16.550 26.650 16.450 V 13.650 C 26.650 13.550 26.550 13.650 26.650 13.650 H 29.550 Z" stroke="rgb(0,0,255)" stroke-width="0.20"/>
  <path d="M 13.650 29.550 V 26.650 C 13.650 26.550 13.550 26.650 13.650 26.650 H 16.450 C 16.550 26.650 16.450 26.550 16.450 26.650 V 32.450 C 16.450 32.550 16.550 32.450 16.450 32.450 H 13.650 C 13.550 32.450 13.650 32.550 13.650 32.450 V 29.550 Z" stroke="rgb(0,0,255)" stroke-width="0.20"/>
  <path d="M 13.650 41.550 V 38.650 C 13.650 38.550 13.550 38.650 13.650 38.650 H 16.450 C 16.550 38.650 16.450 38.550 16.450 38.650 V 44.450 C 16.450 44.550 16.550 44.450 16.450 44.450 H 13.650 C 13.550 44.450 13.650 44.550 13.650 44.450 V 41.550 Z" stroke="rgb(0,0,255)" stroke-width="0.20"/>
  <path d="M 13.650 53.550 V 50.650 C 13.650 50.550 13.550 50.650 13.650 50.650 H 16.450 C 16.550 50.650 16.450 50.550 16.450 50.650 V 56.450 C 16.450 56.550 16.550 56.450 16.450 56.450 H 13.650 C 13.550 56.450 13.650 56.550 13.650 56.450 V 53.550 Z" stroke="rgb(0,0,255)" stroke-width="0.20"/>
  <path d="M 13.650 65.550 V 62.650 C 13.650 62.550 13.550 62.650 13.650 62.650 H 16.450 C 16.550 62.650 16.450 62.550 16.450 62.650 V 68.450 C 16.450 68.550 16.550 68.450 16.450 68.450 H 13.650 C 13.550 68.450 13.650 68.550 13.650 68.450 V 65.550 Z" stroke="rgb(0,0,255)" stroke-width="0.20"/>
  <path d="M 13.650 77.550 V 74.650 C 13.650 74.550 13.550 74.650 13.650 74.650 H 16.450 C 16.550 74.650 16.450 74.550 16.450 74.650 V 80.450 C 16.450 80.550 16.550 80.450 16.450 80.450 H 13.650 C 13.550 80.450 13.650 80.550 13.650 80.450 V 77.550 Z" stroke="rgb(0,0,255)" stroke-width="0.20"/>
  <path d="M 13.650 89.550 V 86.650 C 13.650 86.550 13.550 86.650 13.650 86.650 H 16.450 C 16.550 86.650 16.450 86.550 16.450 86.650 V 92.450 C 16.450 92.550 16.550 92.450 16.450 92.450 H 13.650 C 13.550 92.450 13.650 92.550 13.650 92.450 V 89.550 Z" stroke="rgb(0,0,255)" stroke-width="0.20"/>
  <path d="M 13.650 101.550 V 98.650 C 13.650 98.550 13.550 98.650 13.650 98.650 H 16.450 C 16.550 98.650 16.450 98.550 16.450 98.650 V 104.450 C 16.450 104.550 16.550 104.450 16.450 104.450 H 13.650 C 13.550 104.450 13.650 104.550 13.650 104.450 V 101.550 Z" stroke="rgb(0,0,255)" stroke-width="0.20"/>
  <path d="M 13.650 113.550 V 110.650 C 13.650 110.550 13.550 110.650 13.650 110.650 H 16.450 C 16.550 110.650 16.450 110.550 16.450 110.650 V 116.450 C 16.450 116.550 16.550 116.450 16.450 116.450 H 13.650 C 13.550 116.450 13.650 116.550 13.650 116.450 V 113.550 Z" stroke="rgb(0,0,255)" stroke-width="0.20"/>
  <path d="M 13.650 125.550 V 122.650 C 13.650 122.550 13.550 122.650 13.650 122.650 H 16.450 C 16.550 122.650 16.450 122.550 16.450 122.650 V 128.450 C 16.450 128.550 16.550 128.450 16.450 128.450 H 13.650 C 13.550 128.450 13.650 128.550 13.650 128.450 V 125.550 Z" stroke="rgb(0,0,255)" stroke-width="0.20"/>
  <path d="M 13.650 137.550 V 134.650 C 13.650 134.550 13.550 134.650 13.650 134.650 H 16.450 C 16.550 134.650 16.450 134.550 16.450 134.650 V 140.450 C 16.450 140.550 16.550 140.450 16.450 140.450 H 13.650 C 13.550 140.450 13.650 140.550 13.650 140.450 V 137.550 Z" stroke="rgb(0,0,255)" stroke-width="0.20"/>
  <path d="M 13.650 149.550 V 146.650 C 13.650 146.550 13.550 146.650 13.650 146.650 H 16.450 C 16.550 146.650 16.450 146.550 16.450 146.650 V 152.450 C 16.450 152.550 16.550 152.450 16.450 152.450 H 13.650 C 13.550 152.450 13.650 152.550 13.650 152.450 V 149.550 Z" stroke="rgb(0,0,255)" stroke-width="0.20"/>
  <path d="M 13.650 161.550 V 158.650 C 13.650 158.550 13.550 158.650 13.650 158.650 H 16.450 C 16.550 158.650 16.450 158.550 16.450 158.650 V 164.450 C 16.450 164.550 16.550 164.450 16.450 164.450 H 13.650 C 13.550 164.450 13.650 164.550 13.650 164.450 V 161.550 Z" stroke="rgb(0,0,255)" stroke-width="0.20"/>
  <path d="M 13.650 173.550 V 170.650 C 13.650 170.550 13.550 170.650 13.650 170.650 H 16.450 C 16.550 170.650 16.450 170.550 16.450 170.650 V 176.450 C 16.450 176.550 16.550 176.450 16.450 176.450 H 13.650 C 13.550 176.450 13.650 176.550 13.650 176.450 V 173.550 Z" stroke="rgb(0,0,255)" stroke-width="0.20"/>
  <path d="M 13.650 185.550 V 182.650 C 13.650 182.550 13.550 182.650 13.650 182.650 H 16.450 C 16.550 182.650 16.450 182.550 16.450 182.650 V 188.450 C 16.450 188.550 16.550 188.450 16.450 188.450 H 13.650 C 13.550 188.450 13.650 188.550 13.650 188.450 V 185.550 Z" stroke="rgb(0,0,255)" stroke-width="0.20"/>
</g>
<g id="p-10" style="fill:none;stroke-linecap:round;stroke-linejoin:round;">
  <text alignment-baseline="hanging" font-size="4px" style="font-family: sans-serif ; font-weight: normal; font-style: normal; fill: rgb(255,0,0)" text-anchor="middle" transform="matrix( 1.000 0.000 0.000 1.000 304.150 105.650 )"/><path d="M 209.700 205.100 H 217.150 C 217.205 205.100 217.250 205.055 217.250 205.000 V 202.100 C 217.250 202.000 217.150 202.100 217.250 202.100 H 223.050 C 223.150 202.100 223.050 202.000 223.050 202.100 V 205.000 C 223.050 205.055 223.095 205.100 223.150 205.100 H 229.150 C 229.205 205.100 229.250 205.055 229.250 205.000 V 202.100 C 229.250 202.000 229.150 202.100 229.250 202.100 H 235.050 C 235.150 202.100 235.050 202.000 235.050 202.100 V 205.000 C 235.050 205.055 235.095 205.100 235.150 205.100 H 241.150 C 241.205 205.100 241.250 205.055 241.250 205.000 V 202.100 C 241.250 202.000 241.150 202.100 241.250 202.100 H 247.050 C 247.150 202.100 247.050 202.000 247.050 202.100 V 205.000 C 247.050 205.055 247.095 205.100 247.150 205.100 H 253.150 C 253.205 205.100 253.250 205.055 253.250 205.000 V 202.100 C 253.250 202.000 253.150 202.100 253.250 202.100 H 259.050 C 259.150 202.100 259.050 202.000 259.050 202.100 V 205.000 C 259.050 205.055 259.095 205.100 259.150 205.100 H 265.150 C 265.205 205.100 265.250 205.055 265.250 205.000 V 202.100 C 265.250 202.000 265.150 202.100 265.250 202.100 H 271.050 C 271.150 202.100 271.050 202.000 271.050 202.100 V 205.000 C 271.050 205.055 271.095 205.100 271.150 205.100 H 277.150 C 277.205 205.100 277.250 205.055 277.250 205.000 V 202.100 C 277.250 202.000 277.150 202.100 277.250 202.100 H 283.050 C 283.150 202.100 283.050 202.000 283.050 202.100 V 205.000 C 283.050 205.055 283.095 205.100 283.150 205.100 H 289.150 C 289.205 205.100 289.250 205.055 289.250 205.000 V 202.100 C 289.250 202.000 289.150 202.100 289.250 202.100 H 295.050 C 295.150 202.100 295.050 202.000 295.050 202.100 V 205.000 C 295.050 205.055 295.095 205.100 295.150 205.100 H 301.150 C 301.205 205.100 301.250 205.055 301.250 205.000 V 202.100 C 301.250 202.000 301.150 202.100 301.250 202.100 H 307.050 C 307.150 202.100 307.050 202.000 307.050 202.100 V 205.000 C 307.050 205.055 307.095 205.100 307.150 205.100 H 313.150 C 313.205 205.100 313.250 205.055 313.250 205.000 V 202.100 C 313.250 202.000 313.150 202.100 313.250 202.100 H 319.050 C 319.150 202.100 319.050 202.000 319.050 202.100 V 205.000 C 319.050 205.055 319.095 205.100 319.150 205.100 H 325.150 C 325.205 205.100 325.250 205.055 325.250 205.000 V 202.100 C 325.250 202.000 325.150 202.100 325.250 202.100 H 331.050 C 331.150 202.100 331.050 202.000 331.050 202.100 V 205.000 C 331.050 205.055 331.095 205.100 331.150 205.100 H 337.150 C 337.205 205.100 337.250 205.055 337.250 205.000 V 202.100 C 337.250 202.000 337.150 202.100 337.250 202.100 H 343.050 C 343.150 202.100 343.050 202.000 343.050 202.100 V 205.000 C 343.050 205.055 343.095 205.100 343.150 205.100 H 349.150 C 349.205 205.100 349.250 205.055 349.250 205.000 V 202.100 C 349.250 202.000 349.150 202.100 349.250 202.100 H 355.050 C 355.150 202.100 355.050 202.000 355.050 202.100 V 205.000 C 355.050 205.055 355.095 205.100 355.150 205.100 H 361.150 C 361.205 205.100 361.250 205.055 361.250 205.000 V 202.100 C 361.250 202.000 361.150 202.100 361.250 202.100 H 367.050 C 367.150 202.100 367.050 202.000 367.050 202.100 V 205.000 C 367.050 205.055 367.095 205.100 367.150 205.100 H 373.150 C 373.205 205.100 373.250 205.055 373.250 205.000 V 202.100 C 373.250 202.000 373.150 202.100 373.250 202.100 H 379.050 C 379.150 202.100 379.050 202.000 379.050 202.100 V 205.000 C 379.050 205.055 379.095 205.100 379.150 205.100 H 385.150 C 385.205 205.100 385.250 205.055 385.250 205.000 V 202.100 C 385.250 202.000 385.150 202.100 385.250 202.100 H 391.050 C 391.150 202.100 391.050 202.000 391.050 202.100 V 205.000 C 391.050 205.055 391.095 205.100 391.150 205.100 H 398.600 H 401.600 C 401.655 205.100 401.700 205.055 401.700 205.000 V 202.000 V 194.550 C 401.700 194.495 401.655 194.450 401.600 194.450 H 398.700 C 398.600 194.450 398.700 194.550 398.700 194.450 V 188.650 C 398.700 188.550 398.600 188.650 398.700 188.650 H 401.600 C 401.655 188.650 401.700 188.605 401.700 188.550 V 182.550 C 401.700 182.495 401.655 182.450 401.600 182.450 H 398.700 C 398.600 182.450 398.700 182.550 398.700 182.450 V 176.650 C 398.700 176.550 398.600 176.650 398.700 176.650 H 401.600 C 401.655 176.650 401.700 176.605 401.700 176.550 V 170.550 C 401.700 170.495 401.655 170.450 401.600 170.450 H 398.700 C 398.600 170.450 398.700 170.550 398.700 170.450 V 164.650 C 398.700 164.550 398.600 164.650 398.700 164.650 H 401.600 C 401.655 164.650 401.700 164.605 401.700 164.550 V 158.550 C 401.700 158.495 401.655 158.450 401.600 158.450 H 398.700 C 398.600 158.450 398.700 158.550 398.700 158.450 V 152.650 C 398.700 152.550 398.600 152.650 398.700 152.650 H 401.600 C 401.655 152.650 401.700 152.605 401.700 152.550 V 146.550 C 401.700 146.495 401.655 146.450 401.600 146.450 H 398.700 C 398.600 146.450 398.700 146.550 398.700 146.450 V 140.650 C 398.700 140.550 398.600 140.650 398.700 140.650 H 401.600 C 401.655 140.650 401.700 140.605 401.700 140.550 V 134.550 C 401.700 134.495 401.655 134.450 401.600 134.450 H 398.700 C 398.600 134.450 398.700 134.550 398.700 134.450 V 128.650 C 398.700 128.550 398.600 128.650 398.700 128.650 H 401.600 C 401.655 128.650 401.700 128.605 401.700 128.550 V 122.550 C 401.700 122.495 401.655 122.450 401.600 122.450 H 398.700 C 398.600 122.450 398.700 122.550 398.700 122.450 V 116.650 C 398.700 116.550 398.600 116.650 398.700 116.650 H 401.600 C 401.655 116.650 401.700 116.605 401.700 116.550 V 110.550 C 401.700 110.495 401.655 110.450 401.600 110.450 H 398.700 C 398.600 110.450 398.700 110.550 398.700 110.450 V 104.650 C 398.700 104.550 398.600 104.650 398.700 104.650 H 401.600 C 401.655 104.650 401.700 104.605 401.700 104.550 V 98.550 C 401.700 98.495 401.655 98.450 401.600 98.450 H 398.700 C 398.600 98.450 398.700 98.550 398.700 98.450 V 92.650 C 398.700 92.550 398.600 92.650 398.700 92.650 H 401.600 C 401.655 92.650 401.700 92.605 401.700 92.550 V 86.550 C 401.700 86.495 401.655 86.450 401.600 86.450 H 398.700 C 398.600 86.450 398.700 86.550 398.700 86.450 V 80.650 C 398.700 80.550 398.600 80.650 398.700 80.650 H 401.600 C 401.655 80.650 401.700 80.605 401.700 80.550 V 74.550 C 401.700 74.495 401.655 74.450 401.600 74.450 H 398.700 C 398.600 74.450 398.700 74.550 398.700 74.450 V 68.650 C 398.700 68.550 398.600 68.650 398.700 68.650 H 401.600 C 401.655 68.650 401.700 68.605 401.700 68.550 V 62.550 C 401.700 62.495 401.655 62.450 401.600 62.450 H 398.700 C 398.600 62.450 398.700 62.550 398.700 62.450 V 56.650 C 398.700 56.550 398.600 56.650 398.700 56.650 H 401.600 C 401.655 56.650 401.700 56.605 401.700 56.550 V 50.550 C 401.700 50.495 401.655 50.450 401.600 50.450 H 398.700 C 398.600 50.450 398.700 50.550 398.700 50.450 V 44.650 C 398.700 44.550 398.600 44.650 398.700 44.650 H 401.600 C 401.655 44.650 401.700 44.605 401.700 44.550 V 38.550 C 401.700 38.495 401.655 38.450 401.600 38.450 H 398.700 C 398.600 38.450 398.700 38.550 398.700 38.450 V 32.650 C 398.700 32.550 398.600 32.650 398.700 32.650 H 401.600 C 401.655 32.650 401.700 32.605 401.700 32.550 V 26.550 C 401.700 26.495 401.655 26.450 401.600 26.450 H 398.700 C 398.600 26.450 398.700 26.550 398.700 26.450 V 20.650 C 398.700 20.550 398.600 20.650 398.700 20.650 H 401.600 C 401.655 20.650 401.700 20.605 401.700 20.550 V 13.100 V 10.100 C 401.700 10.045 401.655 10.000 401.600 10.000 H 398.600 H 391.150 C 391.095 10.000 391.050 10.045 391.050 10.100 V 13.000 C 391.050 13.100 391.150 13.000 391.050 13.000 H 385.250 C 385.150 13.000 385.250 13.100 385.250 13.000 V 10.100 C 385.250 10.045 385.205 10.000 385.150 10.000 H 379.150 C 379.095 10.000 379.050 10.045 379.050 10.100 V 13.000 C 379.050 13.100 379.150 13.000 379.050 13.000 H 373.250 C 373.150 13.000 373.250 13.100 373.250 13.000 V 10.100 C 373.250 10.045 373.205 10.000 373.150 10.000 H 367.150 C 367.095 10.000 367.050 10.045 367.050 10.100 V 13.000 C 367.050 13.100 367.150 13.000 367.050 13.000 H 361.250 C 361.150 13.000 361.250 13.100 361.250 13.000 V 10.100 C 361.250 10.045 361.205 10.000 361.150 10.000 H 355.150 C 355.095 10.000 355.050 10.045 355.050 10.100 V 13.000 C 355.050 13.100 355.150 13.000 355.050 13.000 H 349.250 C 349.150 13.000 349.250 13.100 349.250 13.000 V 10.100 C 349.250 10.045 349.205 10.000 349.150 10.000 H 343.150 C 343.095 10.000 343.050 10.045 343.050 10.100 V 13.000 C 343.050 13.100 343.150 13.000 343.050 13.000 H 337.250 C 337.150 13.000 337.250 13.100 337.250 13.000 V 10.100 C 337.250 10.045 337.205 10.000 337.150 10.000 H 331.150 C 331.095 10.000 331.050 10.045 331.050 10.100 V 13.000 C 331.050 13.100 331.150 13.000 331.050 13.000 H 325.250 C 325.150 13.000 325.250 13.100 325.250 13.000 V 10.100 C 325.250 10.045 325.205 10.000 325.150 10.000 H 319.150 C 319.095 10.000 319.050 10.045 319.050 10.100 V 13.000 C 319.050 13.100 319.150 13.000 319.050 13.000 H 313.250 C 313.150 13.000 313.250 13.100 313.250 13.000 V 10.100 C 313.250 10.045 313.205 10.000 313.150 10.000 H 307.150 C 307.095 10.000 307.050 10.045 307.050 10.100 V 13.000 C 307.050 13.100 307.150 13.000 307.050 13.000 H 301.250 C 301.150 13.000 301.250 13.100 301.250 13.000 V 10.100 C 301.250 10.045 301.205 10.000 301.150 10.000 H 295.150 C 295.095 10.000 295.050 10.045 295.050 10.100 V 13.000 C 295.050 13.100 295.150 13.000 295.050 13.000 H 289.250 C 289.150 13.000 289.250 13.100 289.250 13.000 V 10.100 C 289.250 10.045 289.205 10.000 289.150 10.000 H 283.150 C 283.095 10.000 283.050 10.045 283.050 10.100 V 13.000 C 283.050 13.100 283.150 13.000 283.050 13.000 H 277.250 C 277.150 13.000 277.250 13.100 277.250 13.000 V 10.100 C 277.250 10.045 277.205 10.000 277.150 10.000 H 271.150 C 271.095 10.000 271.050 10.045 271.050 10.100 V 13.000 C 271.050 13.100 271.150 13.000 271.050 13.000 H 265.250 C 265.150 13.000 265.250 13.100 265.250 13.000 V 10.100 C 265.250 10.045 265.205 10.000 265.150 10.000 H 259.150 C 259.095 10.000 259.050 10.045 259.050 10.100 V 13.000 C 259.050 13.100 259.150 13.000 259.050 13.000 H 253.250 C 253.150 13.000 253.250 13.100 253.250 13.000 V 10.100 C 253.250 10.045 253.205 10.000 253.150 10.000 H 247.150 C 247.095 10.000 247.050 10.045 247.050 10.100 V 13.000 C 247.050 13.100 247.150 13.000 247.050 13.000 H 241.250 C 241.150 13.000 241.250 13.100 241.250 13.000 V 10.100 C 241.250 10.045 241.205 10.000 241.150 10.000 H 235.150 C 235.095 10.000 235.050 10.045 235.050 10.100 V 13.000 C 235.050 13.100 235.150 13.000 235.050 13.000 H 229.250 C 229.150 13.000 229.250 13.100 229.250 13.000 V 10.100 C 229.250 10.045 229.205 10.000 229.150 10.000 H 223.150 C 223.095 10.000 223.050 10.045 223.050 10.100 V 13.000 C 223.050 13.100 223.150 13.000 223.050 13.000 H 217.250 C 217.150 13.000 217.250 13.100 217.250 13.000 V 10.100 C 217.250 10.045 217.205 10.000 217.150 10.000 H 209.700 H 206.700 C 206.645 10.000 206.600 10.045 206.600 10.100 V 13.100 V 20.550 C 206.600 20.605 206.645 20.650 206.700 20.650 H 209.600 C 209.700 20.650 209.600 20.550 209.600 20.650 V 26.450 C 209.600 26.550 209.700 26.450 209.600 26.450 H 206.700 C 206.645 26.450 206.600 26.495 206.600 26.550 V 32.550 C 206.600 32.605 206.645 32.650 206.700 32.650 H 209.600 C 209.700 32.650 209.600 32.550 209.600 32.650 V 38.450 C 209.600 38.550 209.700 38.450 209.600 38.450 H 206.700 C 206.645 38.450 206.600 38.495 206.600 38.550 V 44.550 C 206.600 44.605 206.645 44.650 206.700 44.650 H 209.600 C 209.700 44.650 209.600 44.550 209.600 44.650 V 50.450 C 209.600 50.550 209.700 50.450 209.600 50.450 H 206.700 C 206.645 50.450 206.600 50.495 206.600 50.550 V 56.550 C 206.600 56.605 206.645 56.650 206.700 56.650 H 209.600 C 209.700 56.650 209.600 56.550 209.600 56.650 V 62.450 C 209.600 62.550 209.700 62.450 209.600 62.450 H 206.700 C 206.645 62.450 206.600 62.495 206.600 62.550 V 68.550 C 206.600 68.605 206.645 68.650 206.700 68.650 H 209.600 C 209.700 68.650 209.600 68.550 209.600 68.650 V 74.450 C 209.600 74.550 209.700 74.450 209.600 74.450 H 206.700 C 206.645 74.450 206.600 74.495 206.600 74.550 V 80.550 C 206.600 80.605 206.645 80.650 206.700 80.650 H 209.600 C 209.700 80.650 209.600 80.550 209.600 80.650 V 86.450 C 209.600 86.550 209.700 86.450 209.600 86.450 H 206.700 C 206.645 86.450 206.600 86.495 206.600 86.550 V 92.550 C 206.600 92.605 206.645 92.650 206.700 92.650 H 209.600 C 209.700 92.650 209.600 92.550 209.600 92.650 V 98.450 C 209.600 98.550 209.700 98.450 209.600 98.450 H 206.700 C 206.645 98.450 206.600 98.495 206.600 98.550 V 104.550 C 206.600 104.605 206.645 104.650 206.700 104.650 H 209.600 C 209.700 104.650 209.600 104.550 209.600 104.650 V 110.450 C 209.600 110.550 209.700 110.450 209.600 110.450 H 206.700 C 206.645 110.450 206.600 110.495 206.600 110.550 V 116.550 C 206.600 116.605 206.645 116.650 206.700 116.650 H 209.600 C 209.700 116.650 209.600 116.550 209.600 116.650 V 122.450 C 209.600 122.550 209.700 122.450 209.600 122.450 H 206.700 C 206.645 122.450 206.600 122.495 206.600 122.550 V 128.550 C 206.600 128.605 206.645 128.650 206.700 128.650 H 209.600 C 209.700 128.650 209.600 128.550 209.600 128.650 V 134.450 C 209.600 134.550 209.700 134.450 209.600 134.450 H 206.700 C 206.645 134.450 206.600 134.495 206.600 134.550 V 140.550 C 206.600 140.605 206.645 140.650 206.700 140.650 H 209.600 C 209.700 140.650 209.600 140.550 209.600 140.650 V 146.450 C 209.600 146.550 209.700 146.450 209.600 146.450 H 206.700 C 206.645 146.450 206.600 146.495 206.600 146.550 V 152.550 C 206.600 152.605 206.645 152.650 206.700 152.650 H 209.600 C 209.700 152.650 209.600 152.550 209.600 152.650 V 158.450 C 209.600 158.550 209.700 158.450 209.600 158.450 H 206.700 C 206.645 158.450 206.600 158.495 206.600 158.550 V 164.550 C 206.600 164.605 206.645 164.650 206.700 164.650 H 209.600 C 209.700 164.650 209.600 164.550 209.600 164.650 V 170.450 C 209.600 170.550 209.700 170.450 209.600 170.450 H 206.700 C 206.645 170.450 206.600 170.495 206.600 170.550 V 176.550 C 206.600 176.605 206.645 176.650 206.700 176.650 H 209.600 C 209.700 176.650 209.600 176.550 209.600 176.650 V 182.450 C 209.600 182.550 209.700 182.450 209.600 182.450 H 206.700 C 206.645 182.450 206.600 182.495 206.600 182.550 V 188.550 C 206.600 188.605 206.645 188.650 206.700 188.650 H 209.600 C 209.700 188.650 209.600 188.550 209.600 188.650 V 194.450 C 209.600 194.550 209.700 194.450 209.600 194.450 H 206.700 C 206.645 194.450 206.600 194.495 206.600 194.550 V 202.000 V 205.000 C 206.600 205.055 206.645 205.100 206.700 205.100 H 209.700" stroke="rgb(0,0,0)" stroke-width="0.20"/>
</g>
</svg>