<?xml version="1.0" encoding="UTF-8" standalone="no"?>
<!DOCTYPE svg PUBLIC "-//W3C//DTD SVG 1.1//EN" "http://www.w3.org/Graphics/SVG/1.1/DTD/svg11.dtd">
<svg width="100%" height="100%" viewBox="0 0 1893 1087" version="1.1" xmlns="http://www.w3.org/2000/svg" xmlns:xlink="http://www.w3.org/1999/xlink" xml:space="preserve" xmlns:serif="http://www.serif.com/" style="fill-rule:evenodd;clip-rule:evenodd;stroke-linecap:round;stroke-linejoin:round;">
    <g id="p-1">
        <g transform="matrix(1,0,0,1,25.5643,-275.121)">
            <path d="M1091.62,1002.9L1091.62,1019.34C1091.62,1019.62 1091.91,1019.34 1091.62,1019.34L1083.68,1019.34C1083.4,1019.34 1083.68,1019.62 1083.68,1019.34L1083.68,1002.9C1083.68,1002.61 1083.4,1002.9 1083.68,1002.9L1091.62,1002.9C1091.91,1002.9 1091.62,1002.61 1091.62,1002.9Z" style="fill:none;fill-rule:nonzero;stroke:rgb(0,0,255);stroke-width:0.57px;"/>
        </g>
        <g transform="matrix(1,0,0,1,25.5643,-275.121)">
            <path d="M1091.62,968.882L1091.62,985.323C1091.62,985.606 1091.91,985.323 1091.62,985.323L1083.68,985.323C1083.4,985.323 1083.68,985.606 1083.68,985.323L1083.68,968.882C1083.68,968.598 1083.4,968.882 1083.68,968.882L1091.62,968.882C1091.91,968.882 1091.62,968.598 1091.62,968.882Z" style="fill:none;fill-rule:nonzero;stroke:rgb(0,0,255);stroke-width:0.57px;"/>
        </g>
        <g transform="matrix(1,0,0,1,25.5643,-275.121)">
            <path d="M1091.62,934.866L1091.62,951.307C1091.62,951.591 1091.91,951.307 1091.62,951.307L1083.68,951.307C1083.4,951.307 1083.68,951.591 1083.68,951.307L1083.68,934.866C1083.68,934.583 1083.4,934.866 1083.68,934.866L1091.62,934.866C1091.91,934.866 1091.62,934.583 1091.62,934.866Z" style="fill:none;fill-rule:nonzero;stroke:rgb(0,0,255);stroke-width:0.57px;"/>
        </g>
        <g transform="matrix(1,0,0,1,25.5643,-275.121)">
            <path d="M1091.62,900.85L1091.62,917.291C1091.62,917.575 1091.91,917.291 1091.62,917.291L1083.68,917.291C1083.4,917.291 1083.68,917.575 1083.68,917.291L1083.68,900.85C1083.68,900.567 1083.4,900.85 1083.68,900.85L1091.62,900.85C1091.91,900.85 1091.62,900.567 1091.62,900.85Z" style="fill:none;fill-rule:nonzero;stroke:rgb(0,0,255);stroke-width:0.57px;"/>
        </g>
        <g transform="matrix(1,0,0,1,25.5643,-275.121)">
            <path d="M1091.62,866.835L1091.62,883.276C1091.62,883.559 1091.91,883.276 1091.62,883.276L1083.68,883.276C1083.4,883.276 1083.68,883.559 1083.68,883.276L1083.68,866.835C1083.68,866.551 1083.4,866.835 1083.68,866.835L1091.62,866.835C1091.91,866.835 1091.62,866.551 1091.62,866.835Z" style="fill:none;fill-rule:nonzero;stroke:rgb(0,0,255);stroke-width:0.57px;"/>
        </g>
        <g transform="matrix(1,0,0,1,25.5643,-275.121)">
            <path d="M1091.62,832.819L1091.62,849.26C1091.62,849.543 1091.91,849.26 1091.62,849.26L1083.68,849.26C1083.4,849.26 1083.68,849.543 1083.68,849.26L1083.68,832.819C1083.68,832.535 1083.4,832.819 1083.68,832.819L1091.62,832.819C1091.91,832.819 1091.62,832.535 1091.62,832.819Z" style="fill:none;fill-rule:nonzero;stroke:rgb(0,0,255);stroke-width:0.57px;"/>
        </g>
        <g transform="matrix(1,0,0,1,25.5643,-275.121)">
            <path d="M1091.62,798.803L1091.62,815.244C1091.62,815.528 1091.91,815.244 1091.62,815.244L1083.68,815.244C1083.4,815.244 1083.68,815.528 1083.68,815.244L1083.68,798.803C1083.68,798.52 1083.4,798.803 1083.68,798.803L1091.62,798.803C1091.91,798.803 1091.62,798.52 1091.62,798.803Z" style="fill:none;fill-rule:nonzero;stroke:rgb(0,0,255);stroke-width:0.57px;"/>
        </g>
        <g transform="matrix(1,0,0,1,25.5643,-275.121)">
            <path d="M1091.62,764.787L1091.62,781.228C1091.62,781.512 1091.91,781.228 1091.62,781.228L1083.68,781.228C1083.4,781.228 1083.68,781.512 1083.68,781.228L1083.68,764.787C1083.68,764.504 1083.4,764.787 1083.68,764.787L1091.62,764.787C1091.91,764.787 1091.62,764.504 1091.62,764.787Z" style="fill:none;fill-rule:nonzero;stroke:rgb(0,0,255);stroke-width:0.57px;"/>
        </g>
        <g transform="matrix(1,0,0,1,25.5643,-275.121)">
            <path d="M1091.62,730.772L1091.62,747.213C1091.62,747.496 1091.91,747.213 1091.62,747.213L1083.68,747.213C1083.4,747.213 1083.68,747.496 1083.68,747.213L1083.68,730.772C1083.68,730.488 1083.4,730.772 1083.68,730.772L1091.62,730.772C1091.91,730.772 1091.62,730.488 1091.62,730.772Z" style="fill:none;fill-rule:nonzero;stroke:rgb(0,0,255);stroke-width:0.57px;"/>
        </g>
        <g transform="matrix(1,0,0,1,25.5643,-275.121)">
            <path d="M1298.55,1002.9L1298.55,1019.34C1298.55,1019.62 1298.84,1019.34 1298.55,1019.34L1290.61,1019.34C1290.33,1019.34 1290.61,1019.62 1290.61,1019.34L1290.61,1002.9C1290.61,1002.61 1290.33,1002.9 1290.61,1002.9L1298.55,1002.9C1298.84,1002.9 1298.55,1002.61 1298.55,1002.9Z" style="fill:none;fill-rule:nonzero;stroke:rgb(0,0,255);stroke-width:0.57px;"/>
        </g>
        <g transform="matrix(1,0,0,1,25.5643,-275.121)">
            <path d="M1298.55,968.882L1298.55,985.323C1298.55,985.606 1298.84,985.323 1298.55,985.323L1290.61,985.323C1290.33,985.323 1290.61,985.606 1290.61,985.323L1290.61,968.882C1290.61,968.598 1290.33,968.882 1290.61,968.882L1298.55,968.882C1298.84,968.882 1298.55,968.598 1298.55,968.882Z" style="fill:none;fill-rule:nonzero;stroke:rgb(0,0,255);stroke-width:0.57px;"/>
        </g>
        <g transform="matrix(1,0,0,1,25.5643,-275.121)">
            <path d="M1298.55,934.866L1298.55,951.307C1298.55,951.591 1298.84,951.307 1298.55,951.307L1290.61,951.307C1290.33,951.307 1290.61,951.591 1290.61,951.307L1290.61,934.866C1290.61,934.583 1290.33,934.866 1290.61,934.866L1298.55,934.866C1298.84,934.866 1298.55,934.583 1298.55,934.866Z" style="fill:none;fill-rule:nonzero;stroke:rgb(0,0,255);stroke-width:0.57px;"/>
        </g>
        <g transform="matrix(1,0,0,1,25.5643,-275.121)">
            <path d="M1298.55,900.85L1298.55,917.291C1298.55,917.575 1298.84,917.291 1298.55,917.291L1290.61,917.291C1290.33,917.291 1290.61,917.575 1290.61,917.291L1290.61,900.85C1290.61,900.567 1290.33,900.85 1290.61,900.85L1298.55,900.85C1298.84,900.85 1298.55,900.567 1298.55,900.85Z" style="fill:none;fill-rule:nonzero;stroke:rgb(0,0,255);stroke-width:0.57px;"/>
        </g>
        <g transform="matrix(1,0,0,1,25.5643,-275.121)">
            <path d="M1298.55,866.835L1298.55,883.276C1298.55,883.559 1298.84,883.276 1298.55,883.276L1290.61,883.276C1290.33,883.276 1290.61,883.559 1290.61,883.276L1290.61,866.835C1290.61,866.551 1290.33,866.835 1290.61,866.835L1298.55,866.835C1298.84,866.835 1298.55,866.551 1298.55,866.835Z" style="fill:none;fill-rule:nonzero;stroke:rgb(0,0,255);stroke-width:0.57px;"/>
        </g>
        <g transform="matrix(1,0,0,1,25.5643,-275.121)">
            <path d="M1298.55,832.819L1298.55,849.26C1298.55,849.543 1298.84,849.26 1298.55,849.26L1290.61,849.26C1290.33,849.26 1290.61,849.543 1290.61,849.26L1290.61,832.819C1290.61,832.535 1290.33,832.819 1290.61,832.819L1298.55,832.819C1298.84,832.819 1298.55,832.535 1298.55,832.819Z" style="fill:none;fill-rule:nonzero;stroke:rgb(0,0,255);stroke-width:0.57px;"/>
        </g>
        <g transform="matrix(1,0,0,1,25.5643,-275.121)">
            <path d="M1298.55,798.803L1298.55,815.244C1298.55,815.528 1298.84,815.244 1298.55,815.244L1290.61,815.244C1290.33,815.244 1290.61,815.528 1290.61,815.244L1290.61,798.803C1290.61,798.52 1290.33,798.803 1290.61,798.803L1298.55,798.803C1298.84,798.803 1298.55,798.52 1298.55,798.803Z" style="fill:none;fill-rule:nonzero;stroke:rgb(0,0,255);stroke-width:0.57px;"/>
        </g>
        <g transform="matrix(1,0,0,1,25.5643,-275.121)">
            <path d="M1298.55,764.787L1298.55,781.228C1298.55,781.512 1298.84,781.228 1298.55,781.228L1290.61,781.228C1290.33,781.228 1290.61,781.512 1290.61,781.228L1290.61,764.787C1290.61,764.504 1290.33,764.787 1290.61,764.787L1298.55,764.787C1298.84,764.787 1298.55,764.504 1298.55,764.787Z" style="fill:none;fill-rule:nonzero;stroke:rgb(0,0,255);stroke-width:0.57px;"/>
        </g>
        <g transform="matrix(1,0,0,1,25.5643,-275.121)">
            <path d="M1298.55,730.772L1298.55,747.213C1298.55,747.496 1298.84,747.213 1298.55,747.213L1290.61,747.213C1290.33,747.213 1290.61,747.496 1290.61,747.213L1290.61,730.772C1290.61,730.488 1290.33,730.772 1290.61,730.772L1298.55,730.772C1298.84,730.772 1298.55,730.488 1298.55,730.772Z" style="fill:none;fill-rule:nonzero;stroke:rgb(0,0,255);stroke-width:0.57px;"/>
        </g>
        <g transform="matrix(1,0,0,1,25.5643,-275.121)">
            <path d="M1505.48,1002.9L1505.48,1019.34C1505.48,1019.62 1505.76,1019.34 1505.48,1019.34L1497.54,1019.34C1497.26,1019.34 1497.54,1019.62 1497.54,1019.34L1497.54,1002.9C1497.54,1002.61 1497.26,1002.9 1497.54,1002.9L1505.48,1002.9C1505.76,1002.9 1505.48,1002.61 1505.48,1002.9Z" style="fill:none;fill-rule:nonzero;stroke:rgb(0,0,255);stroke-width:0.57px;"/>
        </g>
        <g transform="matrix(1,0,0,1,25.5643,-275.121)">
            <path d="M1505.48,968.882L1505.48,985.323C1505.48,985.606 1505.76,985.323 1505.48,985.323L1497.54,985.323C1497.26,985.323 1497.54,985.606 1497.54,985.323L1497.54,968.882C1497.54,968.598 1497.26,968.882 1497.54,968.882L1505.48,968.882C1505.76,968.882 1505.48,968.598 1505.48,968.882Z" style="fill:none;fill-rule:nonzero;stroke:rgb(0,0,255);stroke-width:0.57px;"/>
        </g>
        <g transform="matrix(1,0,0,1,25.5643,-275.121)">
            <path d="M1505.48,934.866L1505.48,951.307C1505.48,951.591 1505.76,951.307 1505.48,951.307L1497.54,951.307C1497.26,951.307 1497.54,951.591 1497.54,951.307L1497.54,934.866C1497.54,934.583 1497.26,934.866 1497.54,934.866L1505.48,934.866C1505.76,934.866 1505.48,934.583 1505.48,934.866Z" style="fill:none;fill-rule:nonzero;stroke:rgb(0,0,255);stroke-width:0.57px;"/>
        </g>
        <g transform="matrix(1,0,0,1,25.5643,-275.121)">
            <path d="M1505.48,900.85L1505.48,917.291C1505.48,917.575 1505.76,917.291 1505.48,917.291L1497.54,917.291C1497.26,917.291 1497.54,917.575 1497.54,917.291L1497.54,900.85C1497.54,900.567 1497.26,900.85 1497.54,900.85L1505.48,900.85C1505.76,900.85 1505.48,900.567 1505.48,900.85Z" style="fill:none;fill-rule:nonzero;stroke:rgb(0,0,255);stroke-width:0.57px;"/>
        </g>
        <g transform="matrix(1,0,0,1,25.5643,-275.121)">
            <path d="M1505.48,866.835L1505.48,883.276C1505.48,883.559 1505.76,883.276 1505.48,883.276L1497.54,883.276C1497.26,883.276 1497.54,883.559 1497.54,883.276L1497.54,866.835C1497.54,866.551 1497.26,866.835 1497.54,866.835L1505.48,866.835C1505.76,866.835 1505.48,866.551 1505.48,866.835Z" style="fill:none;fill-rule:nonzero;stroke:rgb(0,0,255);stroke-width:0.57px;"/>
        </g>
        <g transform="matrix(1,0,0,1,25.5643,-275.121)">
            <path d="M1505.48,832.819L1505.48,849.26C1505.48,849.543 1505.76,849.26 1505.48,849.26L1497.54,849.26C1497.26,849.26 1497.54,849.543 1497.54,849.26L1497.54,832.819C1497.54,832.535 1497.26,832.819 1497.54,832.819L1505.48,832.819C1505.76,832.819 1505.48,832.535 1505.48,832.819Z" style="fill:none;fill-rule:nonzero;stroke:rgb(0,0,255);stroke-width:0.57px;"/>
        </g>
        <g transform="matrix(1,0,0,1,25.5643,-275.121)">
            <path d="M1505.48,798.803L1505.48,815.244C1505.48,815.528 1505.76,815.244 1505.48,815.244L1497.54,815.244C1497.26,815.244 1497.54,815.528 1497.54,815.244L1497.54,798.803C1497.54,798.52 1497.26,798.803 1497.54,798.803L1505.48,798.803C1505.76,798.803 1505.48,798.52 1505.48,798.803Z" style="fill:none;fill-rule:nonzero;stroke:rgb(0,0,255);stroke-width:0.57px;"/>
        </g>
        <g transform="matrix(1,0,0,1,25.5643,-275.121)">
            <path d="M1505.48,764.787L1505.48,781.228C1505.48,781.512 1505.76,781.228 1505.48,781.228L1497.54,781.228C1497.26,781.228 1497.54,781.512 1497.54,781.228L1497.54,764.787C1497.54,764.504 1497.26,764.787 1497.54,764.787L1505.48,764.787C1505.76,764.787 1505.48,764.504 1505.48,764.787Z" style="fill:none;fill-rule:nonzero;stroke:rgb(0,0,255);stroke-width:0.57px;"/>
        </g>
        <g transform="matrix(1,0,0,1,25.5643,-275.121)">
            <path d="M1505.48,730.772L1505.48,747.213C1505.48,747.496 1505.76,747.213 1505.48,747.213L1497.54,747.213C1497.26,747.213 1497.54,747.496 1497.54,747.213L1497.54,730.772C1497.54,730.488 1497.26,730.772 1497.54,730.772L1505.48,730.772C1505.76,730.772 1505.48,730.488 1505.48,730.772Z" style="fill:none;fill-rule:nonzero;stroke:rgb(0,0,255);stroke-width:0.57px;"/>
        </g>
        <g transform="matrix(1,0,0,1,25.5643,-275.121)">
            <path d="M876.472,1049.67L894.614,1049.67C894.898,1049.67 894.614,1049.39 894.614,1049.67L894.614,1057.89C894.614,1058.05 894.742,1058.17 894.898,1058.17L911.906,1058.17C912.061,1058.17 912.189,1058.05 912.189,1057.89L912.189,1049.67C912.189,1049.39 911.906,1049.67 912.189,1049.67L928.63,1049.67C928.913,1049.67 928.63,1049.39 928.63,1049.67L928.63,1057.89C928.63,1058.05 928.757,1058.17 928.913,1058.17L945.921,1058.17C946.077,1058.17 946.205,1058.05 946.205,1057.89L946.205,1049.67C946.205,1049.39 945.921,1049.67 946.205,1049.67L962.646,1049.67C962.929,1049.67 962.646,1049.39 962.646,1049.67L962.646,1057.89C962.646,1058.05 962.773,1058.17 962.929,1058.17L979.937,1058.17C980.093,1058.17 980.22,1058.05 980.22,1057.89L980.22,1049.67C980.22,1049.39 979.937,1049.67 980.22,1049.67L996.661,1049.67C996.945,1049.67 996.661,1049.39 996.661,1049.67L996.661,1057.89C996.661,1058.05 996.789,1058.17 996.945,1058.17L1013.95,1058.17C1014.11,1058.17 1014.24,1058.05 1014.24,1057.89L1014.24,1049.67C1014.24,1049.39 1013.95,1049.67 1014.24,1049.67L1030.68,1049.67C1030.96,1049.67 1030.68,1049.39 1030.68,1049.67L1030.68,1057.89C1030.68,1058.05 1030.81,1058.17 1030.96,1058.17L1047.97,1058.17C1048.12,1058.17 1048.25,1058.05 1048.25,1057.89L1048.25,1049.67C1048.25,1049.39 1047.97,1049.67 1048.25,1049.67L1064.69,1049.67C1064.98,1049.67 1064.69,1049.39 1064.69,1049.67L1064.69,1057.89C1064.69,1058.05 1064.82,1058.17 1064.98,1058.17L1081.98,1058.17C1082.14,1058.17 1082.27,1058.05 1082.27,1057.89L1082.27,1049.67C1082.27,1049.39 1081.98,1049.67 1082.27,1049.67L1098.71,1049.67C1098.99,1049.67 1098.71,1049.39 1098.71,1049.67L1098.71,1057.89C1098.71,1058.05 1098.84,1058.17 1098.99,1058.17L1116,1058.17C1116.16,1058.17 1116.28,1058.05 1116.28,1057.89L1116.28,1049.67C1116.28,1049.39 1116,1049.67 1116.28,1049.67L1132.72,1049.67C1133.01,1049.67 1132.72,1049.39 1132.72,1049.67L1132.72,1057.89C1132.72,1058.05 1132.85,1058.17 1133.01,1058.17L1150.02,1058.17C1150.17,1058.17 1150.3,1058.05 1150.3,1057.89L1150.3,1049.67C1150.3,1049.39 1150.02,1049.67 1150.3,1049.67L1166.74,1049.67C1167.02,1049.67 1166.74,1049.39 1166.74,1049.67L1166.74,1057.89C1166.74,1058.05 1166.87,1058.17 1167.02,1058.17L1184.03,1058.17C1184.19,1058.17 1184.32,1058.05 1184.32,1057.89L1184.32,1049.67C1184.32,1049.39 1184.03,1049.67 1184.32,1049.67L1200.76,1049.67C1201.04,1049.67 1200.76,1049.39 1200.76,1049.67L1200.76,1057.89C1200.76,1058.05 1200.88,1058.17 1201.04,1058.17L1218.05,1058.17C1218.2,1058.17 1218.33,1058.05 1218.33,1057.89L1218.33,1049.67C1218.33,1049.39 1218.05,1049.67 1218.33,1049.67L1234.77,1049.67C1235.06,1049.67 1234.77,1049.39 1234.77,1049.67L1234.77,1057.89C1234.77,1058.05 1234.9,1058.17 1235.06,1058.17L1252.06,1058.17C1252.22,1058.17 1252.35,1058.05 1252.35,1057.89L1252.35,1049.67C1252.35,1049.39 1252.06,1049.67 1252.35,1049.67L1268.79,1049.67C1269.07,1049.67 1268.79,1049.39 1268.79,1049.67L1268.79,1057.89C1268.79,1058.05 1268.91,1058.17 1269.07,1058.17L1286.08,1058.17C1286.24,1058.17 1286.36,1058.05 1286.36,1057.89L1286.36,1049.67C1286.36,1049.39 1286.08,1049.67 1286.36,1049.67L1302.8,1049.67C1303.09,1049.67 1302.8,1049.39 1302.8,1049.67L1302.8,1057.89C1302.8,1058.05 1302.93,1058.17 1303.09,1058.17L1320.09,1058.17C1320.25,1058.17 1320.38,1058.05 1320.38,1057.89L1320.38,1049.67C1320.38,1049.39 1320.09,1049.67 1320.38,1049.67L1336.82,1049.67C1337.1,1049.67 1336.82,1049.39 1336.82,1049.67L1336.82,1057.89C1336.82,1058.05 1336.95,1058.17 1337.1,1058.17L1354.11,1058.17C1354.27,1058.17 1354.39,1058.05 1354.39,1057.89L1354.39,1049.67C1354.39,1049.39 1354.11,1049.67 1354.39,1049.67L1370.84,1049.67C1371.12,1049.67 1370.84,1049.39 1370.84,1049.67L1370.84,1057.89C1370.84,1058.05 1370.96,1058.17 1371.12,1058.17L1388.13,1058.17C1388.28,1058.17 1388.41,1058.05 1388.41,1057.89L1388.41,1049.67C1388.41,1049.39 1388.13,1049.67 1388.41,1049.67L1404.85,1049.67C1405.13,1049.67 1404.85,1049.39 1404.85,1049.67L1404.85,1057.89C1404.85,1058.05 1404.98,1058.17 1405.13,1058.17L1422.14,1058.17C1422.3,1058.17 1422.42,1058.05 1422.42,1057.89L1422.42,1049.67C1422.42,1049.39 1422.14,1049.67 1422.42,1049.67L1438.87,1049.67C1439.15,1049.67 1438.87,1049.39 1438.87,1049.67L1438.87,1057.89C1438.87,1058.05 1438.99,1058.17 1439.15,1058.17L1456.16,1058.17C1456.31,1058.17 1456.44,1058.05 1456.44,1057.89L1456.44,1049.67C1456.44,1049.39 1456.16,1049.67 1456.44,1049.67L1472.88,1049.67C1473.16,1049.67 1472.88,1049.39 1472.88,1049.67L1472.88,1057.89C1472.88,1058.05 1473.01,1058.17 1473.16,1058.17L1490.17,1058.17C1490.33,1058.17 1490.46,1058.05 1490.46,1057.89L1490.46,1049.67C1490.46,1049.39 1490.17,1049.67 1490.46,1049.67L1506.9,1049.67C1507.18,1049.67 1506.9,1049.39 1506.9,1049.67L1506.9,1057.89C1506.9,1058.05 1507.03,1058.17 1507.18,1058.17L1524.19,1058.17C1524.35,1058.17 1524.47,1058.05 1524.47,1057.89L1524.47,1049.67C1524.47,1049.39 1524.19,1049.67 1524.47,1049.67L1540.91,1049.67C1541.2,1049.67 1540.91,1049.39 1540.91,1049.67L1540.91,1057.89C1540.91,1058.05 1541.04,1058.17 1541.2,1058.17L1558.2,1058.17C1558.36,1058.17 1558.49,1058.05 1558.49,1057.89L1558.49,1049.67C1558.49,1049.39 1558.2,1049.67 1558.49,1049.67L1574.93,1049.67C1575.21,1049.67 1574.93,1049.39 1574.93,1049.67L1574.93,1057.89C1574.93,1058.05 1575.06,1058.17 1575.21,1058.17L1592.22,1058.17C1592.38,1058.17 1592.5,1058.05 1592.5,1057.89L1592.5,1049.67C1592.5,1049.39 1592.22,1049.67 1592.5,1049.67L1608.94,1049.67C1609.23,1049.67 1608.94,1049.39 1608.94,1049.67L1608.94,1057.89C1608.94,1058.05 1609.07,1058.17 1609.23,1058.17L1626.24,1058.17C1626.39,1058.17 1626.52,1058.05 1626.52,1057.89L1626.52,1049.67C1626.52,1049.39 1626.24,1049.67 1626.52,1049.67L1642.96,1049.67C1643.24,1049.67 1642.96,1049.39 1642.96,1049.67L1642.96,1057.89C1642.96,1058.05 1643.09,1058.17 1643.24,1058.17L1660.25,1058.17C1660.41,1058.17 1660.54,1058.05 1660.54,1057.89L1660.54,1049.67C1660.54,1049.39 1660.25,1049.67 1660.54,1049.67L1676.98,1049.67C1677.26,1049.67 1676.98,1049.39 1676.98,1049.67L1676.98,1057.89C1676.98,1058.05 1677.1,1058.17 1677.26,1058.17L1694.27,1058.17C1694.42,1058.17 1694.55,1058.05 1694.55,1057.89L1694.55,1049.67C1694.55,1049.39 1694.27,1049.67 1694.55,1049.67L1712.69,1049.67C1712.85,1049.67 1712.98,1049.54 1712.98,1049.39L1712.98,1019.91C1712.98,1019.62 1712.69,1019.91 1712.98,1019.91L1721.2,1019.91C1721.35,1019.91 1721.48,1019.78 1721.48,1019.62L1721.48,1002.61C1721.48,1002.46 1721.35,1002.33 1721.2,1002.33L1712.98,1002.33C1712.69,1002.33 1712.98,1002.61 1712.98,1002.33L1712.98,985.89C1712.98,985.606 1712.69,985.89 1712.98,985.89L1721.2,985.89C1721.35,985.89 1721.48,985.762 1721.48,985.606L1721.48,968.598C1721.48,968.443 1721.35,968.315 1721.2,968.315L1712.98,968.315C1712.69,968.315 1712.98,968.598 1712.98,968.315L1712.98,951.874C1712.98,951.591 1712.69,951.874 1712.98,951.874L1721.2,951.874C1721.35,951.874 1721.48,951.746 1721.48,951.591L1721.48,934.583C1721.48,934.427 1721.35,934.299 1721.2,934.299L1712.98,934.299C1712.69,934.299 1712.98,934.583 1712.98,934.299L1712.98,917.858C1712.98,917.575 1712.69,917.858 1712.98,917.858L1721.2,917.858C1721.35,917.858 1721.48,917.731 1721.48,917.575L1721.48,900.567C1721.48,900.411 1721.35,900.283 1721.2,900.283L1712.98,900.283C1712.69,900.283 1712.98,900.567 1712.98,900.283L1712.98,883.843C1712.98,883.559 1712.69,883.843 1712.98,883.843L1721.2,883.843C1721.35,883.843 1721.48,883.715 1721.48,883.559L1721.48,866.551C1721.48,866.395 1721.35,866.268 1721.2,866.268L1712.98,866.268C1712.69,866.268 1712.98,866.551 1712.98,866.268L1712.98,849.827C1712.98,849.543 1712.69,849.827 1712.98,849.827L1721.2,849.827C1721.35,849.827 1721.48,849.699 1721.48,849.543L1721.48,832.535C1721.48,832.38 1721.35,832.252 1721.2,832.252L1712.98,832.252C1712.69,832.252 1712.98,832.535 1712.98,832.252L1712.98,815.811C1712.98,815.528 1712.69,815.811 1712.98,815.811L1721.2,815.811C1721.35,815.811 1721.48,815.683 1721.48,815.528L1721.48,798.52C1721.48,798.364 1721.35,798.236 1721.2,798.236L1712.98,798.236C1712.69,798.236 1712.98,798.52 1712.98,798.236L1712.98,781.795C1712.98,781.512 1712.69,781.795 1712.98,781.795L1721.2,781.795C1721.35,781.795 1721.48,781.668 1721.48,781.512L1721.48,764.504C1721.48,764.348 1721.35,764.22 1721.2,764.22L1712.98,764.22C1712.69,764.22 1712.98,764.504 1712.98,764.22L1712.98,747.78C1712.98,747.496 1712.69,747.78 1712.98,747.78L1721.2,747.78C1721.35,747.78 1721.48,747.652 1721.48,747.496L1721.48,730.488C1721.48,730.332 1721.35,730.205 1721.2,730.205L1712.98,730.205C1712.69,730.205 1712.98,730.488 1712.98,730.205L1712.98,700.724C1712.98,700.569 1712.85,700.441 1712.69,700.441L1694.55,700.441C1694.27,700.441 1694.55,700.724 1694.55,700.441L1694.55,692.22C1694.55,692.065 1694.42,691.937 1694.27,691.937L1677.26,691.937C1677.1,691.937 1676.98,692.065 1676.98,692.22L1676.98,700.441C1676.98,700.724 1677.26,700.441 1676.98,700.441L1660.54,700.441C1660.25,700.441 1660.54,700.724 1660.54,700.441L1660.54,692.22C1660.54,692.065 1660.41,691.937 1660.25,691.937L1643.24,691.937C1643.09,691.937 1642.96,692.065 1642.96,692.22L1642.96,700.441C1642.96,700.724 1643.24,700.441 1642.96,700.441L1626.52,700.441C1626.24,700.441 1626.52,700.724 1626.52,700.441L1626.52,692.22C1626.52,692.065 1626.39,691.937 1626.24,691.937L1609.23,691.937C1609.07,691.937 1608.94,692.065 1608.94,692.22L1608.94,700.441C1608.94,700.724 1609.23,700.441 1608.94,700.441L1592.5,700.441C1592.22,700.441 1592.5,700.724 1592.5,700.441L1592.5,692.22C1592.5,692.065 1592.38,691.937 1592.22,691.937L1575.21,691.937C1575.06,691.937 1574.93,692.065 1574.93,692.22L1574.93,700.441C1574.93,700.724 1575.21,700.441 1574.93,700.441L1558.49,700.441C1558.2,700.441 1558.49,700.724 1558.49,700.441L1558.49,692.22C1558.49,692.065 1558.36,691.937 1558.2,691.937L1541.2,691.937C1541.04,691.937 1540.91,692.065 1540.91,692.22L1540.91,700.441C1540.91,700.724 1541.2,700.441 1540.91,700.441L1524.47,700.441C1524.19,700.441 1524.47,700.724 1524.47,700.441L1524.47,692.22C1524.47,692.065 1524.35,691.937 1524.19,691.937L1507.18,691.937C1507.03,691.937 1506.9,692.065 1506.9,692.22L1506.9,700.441C1506.9,700.724 1507.18,700.441 1506.9,700.441L1490.46,700.441C1490.17,700.441 1490.46,700.724 1490.46,700.441L1490.46,692.22C1490.46,692.065 1490.33,691.937 1490.17,691.937L1473.16,691.937C1473.01,691.937 1472.88,692.065 1472.88,692.22L1472.88,700.441C1472.88,700.724 1473.16,700.441 1472.88,700.441L1456.44,700.441C1456.16,700.441 1456.44,700.724 1456.44,700.441L1456.44,692.22C1456.44,692.065 1456.31,691.937 1456.16,691.937L1439.15,691.937C1438.99,691.937 1438.87,692.065 1438.87,692.22L1438.87,700.441C1438.87,700.724 1439.15,700.441 1438.87,700.441L1422.42,700.441C1422.14,700.441 1422.42,700.724 1422.42,700.441L1422.42,692.22C1422.42,692.065 1422.3,691.937 1422.14,691.937L1405.13,691.937C1404.98,691.937 1404.85,692.065 1404.85,692.22L1404.85,700.441C1404.85,700.724 1405.13,700.441 1404.85,700.441L1388.41,700.441C1388.13,700.441 1388.41,700.724 1388.41,700.441L1388.41,692.22C1388.41,692.065 1388.28,691.937 1388.13,691.937L1371.12,691.937C1370.96,691.937 1370.84,692.065 1370.84,692.22L1370.84,700.441C1370.84,700.724 1371.12,700.441 1370.84,700.441L1354.39,700.441C1354.11,700.441 1354.39,700.724 1354.39,700.441L1354.39,692.22C1354.39,692.065 1354.27,691.937 1354.11,691.937L1337.1,691.937C1336.95,691.937 1336.82,692.065 1336.82,692.22L1336.82,700.441C1336.82,700.724 1337.1,700.441 1336.82,700.441L1320.38,700.441C1320.09,700.441 1320.38,700.724 1320.38,700.441L1320.38,692.22C1320.38,692.065 1320.25,691.937 1320.09,691.937L1303.09,691.937C1302.93,691.937 1302.8,692.065 1302.8,692.22L1302.8,700.441C1302.8,700.724 1303.09,700.441 1302.8,700.441L1286.36,700.441C1286.08,700.441 1286.36,700.724 1286.36,700.441L1286.36,692.22C1286.36,692.065 1286.24,691.937 1286.08,691.937L1269.07,691.937C1268.91,691.937 1268.79,692.065 1268.79,692.22L1268.79,700.441C1268.79,700.724 1269.07,700.441 1268.79,700.441L1252.35,700.441C1252.06,700.441 1252.35,700.724 1252.35,700.441L1252.35,692.22C1252.35,692.065 1252.22,691.937 1252.06,691.937L1235.06,691.937C1234.9,691.937 1234.77,692.065 1234.77,692.22L1234.77,700.441C1234.77,700.724 1235.06,700.441 1234.77,700.441L1218.33,700.441C1218.05,700.441 1218.33,700.724 1218.33,700.441L1218.33,692.22C1218.33,692.065 1218.2,691.937 1218.05,691.937L1201.04,691.937C1200.88,691.937 1200.76,692.065 1200.76,692.22L1200.76,700.441C1200.76,700.724 1201.04,700.441 1200.76,700.441L1184.32,700.441C1184.03,700.441 1184.32,700.724 1184.32,700.441L1184.32,692.22C1184.32,692.065 1184.19,691.937 1184.03,691.937L1167.02,691.937C1166.87,691.937 1166.74,692.065 1166.74,692.22L1166.74,700.441C1166.74,700.724 1167.02,700.441 1166.74,700.441L1150.3,700.441C1150.02,700.441 1150.3,700.724 1150.3,700.441L1150.3,692.22C1150.3,692.065 1150.17,691.937 1150.02,691.937L1133.01,691.937C1132.85,691.937 1132.72,692.065 1132.72,692.22L1132.72,700.441C1132.72,700.724 1133.01,700.441 1132.72,700.441L1116.28,700.441C1116,700.441 1116.28,700.724 1116.28,700.441L1116.28,692.22C1116.28,692.065 1116.16,691.937 1116,691.937L1098.99,691.937C1098.84,691.937 1098.71,692.065 1098.71,692.22L1098.71,700.441C1098.71,700.724 1098.99,700.441 1098.71,700.441L1082.27,700.441C1081.98,700.441 1082.27,700.724 1082.27,700.441L1082.27,692.22C1082.27,692.065 1082.14,691.937 1081.98,691.937L1064.98,691.937C1064.82,691.937 1064.69,692.065 1064.69,692.22L1064.69,700.441C1064.69,700.724 1064.98,700.441 1064.69,700.441L1048.25,700.441C1047.97,700.441 1048.25,700.724 1048.25,700.441L1048.25,692.22C1048.25,692.065 1048.12,691.937 1047.97,691.937L1030.96,691.937C1030.81,691.937 1030.68,692.065 1030.68,692.22L1030.68,700.441C1030.68,700.724 1030.96,700.441 1030.68,700.441L1014.24,700.441C1013.95,700.441 1014.24,700.724 1014.24,700.441L1014.24,692.22C1014.24,692.065 1014.11,691.937 1013.95,691.937L996.945,691.937C996.789,691.937 996.661,692.065 996.661,692.22L996.661,700.441C996.661,700.724 996.945,700.441 996.661,700.441L980.22,700.441C979.937,700.441 980.22,700.724 980.22,700.441L980.22,692.22C980.22,692.065 980.093,691.937 979.937,691.937L962.929,691.937C962.773,691.937 962.646,692.065 962.646,692.22L962.646,700.441C962.646,700.724 962.929,700.441 962.646,700.441L946.205,700.441C945.921,700.441 946.205,700.724 946.205,700.441L946.205,692.22C946.205,692.065 946.077,691.937 945.921,691.937L928.913,691.937C928.757,691.937 928.63,692.065 928.63,692.22L928.63,700.441C928.63,700.724 928.913,700.441 928.63,700.441L912.189,700.441C911.906,700.441 912.189,700.724 912.189,700.441L912.189,692.22C912.189,692.065 912.061,691.937 911.906,691.937L894.898,691.937C894.742,691.937 894.614,692.065 894.614,692.22L894.614,700.441C894.614,700.724 894.898,700.441 894.614,700.441L876.472,700.441C876.317,700.441 876.189,700.569 876.189,700.724L876.189,730.205C876.189,730.488 876.472,730.205 876.189,730.205L867.969,730.205C867.813,730.205 867.685,730.332 867.685,730.488L867.685,747.496C867.685,747.652 867.813,747.78 867.969,747.78L876.189,747.78C876.472,747.78 876.189,747.496 876.189,747.78L876.189,764.22C876.189,764.504 876.472,764.22 876.189,764.22L867.969,764.22C867.813,764.22 867.685,764.348 867.685,764.504L867.685,781.512C867.685,781.668 867.813,781.795 867.969,781.795L876.189,781.795C876.472,781.795 876.189,781.512 876.189,781.795L876.189,798.236C876.189,798.52 876.472,798.236 876.189,798.236L867.969,798.236C867.813,798.236 867.685,798.364 867.685,798.52L867.685,815.528C867.685,815.683 867.813,815.811 867.969,815.811L876.189,815.811C876.472,815.811 876.189,815.528 876.189,815.811L876.189,832.252C876.189,832.535 876.472,832.252 876.189,832.252L867.969,832.252C867.813,832.252 867.685,832.38 867.685,832.535L867.685,849.543C867.685,849.699 867.813,849.827 867.969,849.827L876.189,849.827C876.472,849.827 876.189,849.543 876.189,849.827L876.189,866.268C876.189,866.551 876.472,866.268 876.189,866.268L867.969,866.268C867.813,866.268 867.685,866.395 867.685,866.551L867.685,883.559C867.685,883.715 867.813,883.843 867.969,883.843L876.189,883.843C876.472,883.843 876.189,883.559 876.189,883.843L876.189,900.283C876.189,900.567 876.472,900.283 876.189,900.283L867.969,900.283C867.813,900.283 867.685,900.411 867.685,900.567L867.685,917.575C867.685,917.731 867.813,917.858 867.969,917.858L876.189,917.858C876.472,917.858 876.189,917.575 876.189,917.858L876.189,934.299C876.189,934.583 876.472,934.299 876.189,934.299L867.969,934.299C867.813,934.299 867.685,934.427 867.685,934.583L867.685,951.591C867.685,951.746 867.813,951.874 867.969,951.874L876.189,951.874C876.472,951.874 876.189,951.591 876.189,951.874L876.189,968.315C876.189,968.598 876.472,968.315 876.189,968.315L867.969,968.315C867.813,968.315 867.685,968.443 867.685,968.598L867.685,985.606C867.685,985.762 867.813,985.89 867.969,985.89L876.189,985.89C876.472,985.89 876.189,985.606 876.189,985.89L876.189,1002.33C876.189,1002.61 876.472,1002.33 876.189,1002.33L867.969,1002.33C867.813,1002.33 867.685,1002.46 867.685,1002.61L867.685,1019.62C867.685,1019.78 867.813,1019.91 867.969,1019.91L876.189,1019.91C876.472,1019.91 876.189,1019.62 876.189,1019.91L876.189,1049.39C876.189,1049.54 876.317,1049.67 876.472,1049.67" style="fill:none;fill-rule:nonzero;stroke:black;stroke-width:0.57px;"/>
        </g>
    </g>
    <g id="p-2">
        <path d="M252.283,635.244L252.283,651.685C252.283,651.969 252.567,651.685 252.283,651.685L244.346,651.685C244.063,651.685 244.346,651.969 244.346,651.685L244.346,635.244C244.346,634.961 244.063,635.244 244.346,635.244L252.283,635.244C252.567,635.244 252.283,634.961 252.283,635.244Z" style="fill:none;fill-rule:nonzero;stroke:rgb(0,0,255);stroke-width:0.57px;"/>
        <path d="M252.283,601.228L252.283,617.669C252.283,617.953 252.567,617.669 252.283,617.669L244.346,617.669C244.063,617.669 244.346,617.953 244.346,617.669L244.346,601.228C244.346,600.945 244.063,601.228 244.346,601.228L252.283,601.228C252.567,601.228 252.283,600.945 252.283,601.228Z" style="fill:none;fill-rule:nonzero;stroke:rgb(0,0,255);stroke-width:0.57px;"/>
        <path d="M252.283,567.213L252.283,583.654C252.283,583.937 252.567,583.654 252.283,583.654L244.346,583.654C244.063,583.654 244.346,583.937 244.346,583.654L244.346,567.213C244.346,566.929 244.063,567.213 244.346,567.213L252.283,567.213C252.567,567.213 252.283,566.929 252.283,567.213Z" style="fill:none;fill-rule:nonzero;stroke:rgb(0,0,255);stroke-width:0.57px;"/>
        <path d="M252.283,533.197L252.283,549.638C252.283,549.921 252.567,549.638 252.283,549.638L244.346,549.638C244.063,549.638 244.346,549.921 244.346,549.638L244.346,533.197C244.346,532.913 244.063,533.197 244.346,533.197L252.283,533.197C252.567,533.197 252.283,532.913 252.283,533.197Z" style="fill:none;fill-rule:nonzero;stroke:rgb(0,0,255);stroke-width:0.57px;"/>
        <path d="M252.283,499.181L252.283,515.622C252.283,515.906 252.567,515.622 252.283,515.622L244.346,515.622C244.063,515.622 244.346,515.906 244.346,515.622L244.346,499.181C244.346,498.898 244.063,499.181 244.346,499.181L252.283,499.181C252.567,499.181 252.283,498.898 252.283,499.181Z" style="fill:none;fill-rule:nonzero;stroke:rgb(0,0,255);stroke-width:0.57px;"/>
        <path d="M252.283,465.165L252.283,481.606C252.283,481.89 252.567,481.606 252.283,481.606L244.346,481.606C244.063,481.606 244.346,481.89 244.346,481.606L244.346,465.165C244.346,464.882 244.063,465.165 244.346,465.165L252.283,465.165C252.567,465.165 252.283,464.882 252.283,465.165Z" style="fill:none;fill-rule:nonzero;stroke:rgb(0,0,255);stroke-width:0.57px;"/>
        <path d="M459.213,635.244L459.213,651.685C459.213,651.969 459.496,651.685 459.213,651.685L451.276,651.685C450.992,651.685 451.276,651.969 451.276,651.685L451.276,635.244C451.276,634.961 450.992,635.244 451.276,635.244L459.213,635.244C459.496,635.244 459.213,634.961 459.213,635.244Z" style="fill:none;fill-rule:nonzero;stroke:rgb(0,0,255);stroke-width:0.57px;"/>
        <path d="M459.213,601.228L459.213,617.669C459.213,617.953 459.496,617.669 459.213,617.669L451.276,617.669C450.992,617.669 451.276,617.953 451.276,617.669L451.276,601.228C451.276,600.945 450.992,601.228 451.276,601.228L459.213,601.228C459.496,601.228 459.213,600.945 459.213,601.228Z" style="fill:none;fill-rule:nonzero;stroke:rgb(0,0,255);stroke-width:0.57px;"/>
        <path d="M459.213,567.213L459.213,583.654C459.213,583.937 459.496,583.654 459.213,583.654L451.276,583.654C450.992,583.654 451.276,583.937 451.276,583.654L451.276,567.213C451.276,566.929 450.992,567.213 451.276,567.213L459.213,567.213C459.496,567.213 459.213,566.929 459.213,567.213Z" style="fill:none;fill-rule:nonzero;stroke:rgb(0,0,255);stroke-width:0.57px;"/>
        <path d="M459.213,533.197L459.213,549.638C459.213,549.921 459.496,549.638 459.213,549.638L451.276,549.638C450.992,549.638 451.276,549.921 451.276,549.638L451.276,533.197C451.276,532.913 450.992,533.197 451.276,533.197L459.213,533.197C459.496,533.197 459.213,532.913 459.213,533.197Z" style="fill:none;fill-rule:nonzero;stroke:rgb(0,0,255);stroke-width:0.57px;"/>
        <path d="M459.213,499.181L459.213,515.622C459.213,515.906 459.496,515.622 459.213,515.622L451.276,515.622C450.992,515.622 451.276,515.906 451.276,515.622L451.276,499.181C451.276,498.898 450.992,499.181 451.276,499.181L459.213,499.181C459.496,499.181 459.213,498.898 459.213,499.181Z" style="fill:none;fill-rule:nonzero;stroke:rgb(0,0,255);stroke-width:0.57px;"/>
        <path d="M459.213,465.165L459.213,481.606C459.213,481.89 459.496,481.606 459.213,481.606L451.276,481.606C450.992,481.606 451.276,481.89 451.276,481.606L451.276,465.165C451.276,464.882 450.992,465.165 451.276,465.165L459.213,465.165C459.496,465.165 459.213,464.882 459.213,465.165Z" style="fill:none;fill-rule:nonzero;stroke:rgb(0,0,255);stroke-width:0.57px;"/>
        <path d="M666.142,635.244L666.142,651.685C666.142,651.969 666.425,651.685 666.142,651.685L658.205,651.685C657.921,651.685 658.205,651.969 658.205,651.685L658.205,635.244C658.205,634.961 657.921,635.244 658.205,635.244L666.142,635.244C666.425,635.244 666.142,634.961 666.142,635.244Z" style="fill:none;fill-rule:nonzero;stroke:rgb(0,0,255);stroke-width:0.57px;"/>
        <path d="M666.142,601.228L666.142,617.669C666.142,617.953 666.425,617.669 666.142,617.669L658.205,617.669C657.921,617.669 658.205,617.953 658.205,617.669L658.205,601.228C658.205,600.945 657.921,601.228 658.205,601.228L666.142,601.228C666.425,601.228 666.142,600.945 666.142,601.228Z" style="fill:none;fill-rule:nonzero;stroke:rgb(0,0,255);stroke-width:0.57px;"/>
        <path d="M666.142,567.213L666.142,583.654C666.142,583.937 666.425,583.654 666.142,583.654L658.205,583.654C657.921,583.654 658.205,583.937 658.205,583.654L658.205,567.213C658.205,566.929 657.921,567.213 658.205,567.213L666.142,567.213C666.425,567.213 666.142,566.929 666.142,567.213Z" style="fill:none;fill-rule:nonzero;stroke:rgb(0,0,255);stroke-width:0.57px;"/>
        <path d="M666.142,533.197L666.142,549.638C666.142,549.921 666.425,549.638 666.142,549.638L658.205,549.638C657.921,549.638 658.205,549.921 658.205,549.638L658.205,533.197C658.205,532.913 657.921,533.197 658.205,533.197L666.142,533.197C666.425,533.197 666.142,532.913 666.142,533.197Z" style="fill:none;fill-rule:nonzero;stroke:rgb(0,0,255);stroke-width:0.57px;"/>
        <path d="M666.142,499.181L666.142,515.622C666.142,515.906 666.425,515.622 666.142,515.622L658.205,515.622C657.921,515.622 658.205,515.906 658.205,515.622L658.205,499.181C658.205,498.898 657.921,499.181 658.205,499.181L666.142,499.181C666.425,499.181 666.142,498.898 666.142,499.181Z" style="fill:none;fill-rule:nonzero;stroke:rgb(0,0,255);stroke-width:0.57px;"/>
        <path d="M666.142,465.165L666.142,481.606C666.142,481.89 666.425,481.606 666.142,481.606L658.205,481.606C657.921,481.606 658.205,481.89 658.205,481.606L658.205,465.165C658.205,464.882 657.921,465.165 658.205,465.165L666.142,465.165C666.425,465.165 666.142,464.882 666.142,465.165Z" style="fill:none;fill-rule:nonzero;stroke:rgb(0,0,255);stroke-width:0.57px;"/>
        <path d="M37.134,687.685L55.559,687.685C55.715,687.685 55.843,687.557 55.843,687.402L55.843,679.181C55.843,678.898 55.559,679.181 55.843,679.181L72.283,679.181C72.567,679.181 72.283,678.898 72.283,679.181L72.283,687.402C72.283,687.557 72.411,687.685 72.567,687.685L89.575,687.685C89.731,687.685 89.858,687.557 89.858,687.402L89.858,679.181C89.858,678.898 89.575,679.181 89.858,679.181L106.299,679.181C106.583,679.181 106.299,678.898 106.299,679.181L106.299,687.402C106.299,687.557 106.427,687.685 106.583,687.685L123.591,687.685C123.746,687.685 123.874,687.557 123.874,687.402L123.874,679.181C123.874,678.898 123.591,679.181 123.874,679.181L140.315,679.181C140.598,679.181 140.315,678.898 140.315,679.181L140.315,687.402C140.315,687.557 140.443,687.685 140.598,687.685L157.606,687.685C157.762,687.685 157.89,687.557 157.89,687.402L157.89,679.181C157.89,678.898 157.606,679.181 157.89,679.181L174.331,679.181C174.614,679.181 174.331,678.898 174.331,679.181L174.331,687.402C174.331,687.557 174.458,687.685 174.614,687.685L191.622,687.685C191.778,687.685 191.906,687.557 191.906,687.402L191.906,679.181C191.906,678.898 191.622,679.181 191.906,679.181L208.346,679.181C208.63,679.181 208.346,678.898 208.346,679.181L208.346,687.402C208.346,687.557 208.474,687.685 208.63,687.685L225.638,687.685C225.794,687.685 225.921,687.557 225.921,687.402L225.921,679.181C225.921,678.898 225.638,679.181 225.921,679.181L242.362,679.181C242.646,679.181 242.362,678.898 242.362,679.181L242.362,687.402C242.362,687.557 242.49,687.685 242.646,687.685L259.654,687.685C259.809,687.685 259.937,687.557 259.937,687.402L259.937,679.181C259.937,678.898 259.654,679.181 259.937,679.181L276.378,679.181C276.661,679.181 276.378,678.898 276.378,679.181L276.378,687.402C276.378,687.557 276.506,687.685 276.661,687.685L293.669,687.685C293.825,687.685 293.953,687.557 293.953,687.402L293.953,679.181C293.953,678.898 293.669,679.181 293.953,679.181L310.394,679.181C310.677,679.181 310.394,678.898 310.394,679.181L310.394,687.402C310.394,687.557 310.521,687.685 310.677,687.685L327.685,687.685C327.841,687.685 327.969,687.557 327.969,687.402L327.969,679.181C327.969,678.898 327.685,679.181 327.969,679.181L344.409,679.181C344.693,679.181 344.409,678.898 344.409,679.181L344.409,687.402C344.409,687.557 344.537,687.685 344.693,687.685L361.701,687.685C361.857,687.685 361.984,687.557 361.984,687.402L361.984,679.181C361.984,678.898 361.701,679.181 361.984,679.181L378.425,679.181C378.709,679.181 378.425,678.898 378.425,679.181L378.425,687.402C378.425,687.557 378.553,687.685 378.709,687.685L395.717,687.685C395.872,687.685 396,687.557 396,687.402L396,679.181C396,678.898 395.717,679.181 396,679.181L412.441,679.181C412.724,679.181 412.441,678.898 412.441,679.181L412.441,687.402C412.441,687.557 412.569,687.685 412.724,687.685L429.732,687.685C429.888,687.685 430.016,687.557 430.016,687.402L430.016,679.181C430.016,678.898 429.732,679.181 430.016,679.181L446.457,679.181C446.74,679.181 446.457,678.898 446.457,679.181L446.457,687.402C446.457,687.557 446.584,687.685 446.74,687.685L463.748,687.685C463.904,687.685 464.031,687.557 464.031,687.402L464.031,679.181C464.031,678.898 463.748,679.181 464.031,679.181L480.472,679.181C480.756,679.181 480.472,678.898 480.472,679.181L480.472,687.402C480.472,687.557 480.6,687.685 480.756,687.685L497.764,687.685C497.92,687.685 498.047,687.557 498.047,687.402L498.047,679.181C498.047,678.898 497.764,679.181 498.047,679.181L514.488,679.181C514.772,679.181 514.488,678.898 514.488,679.181L514.488,687.402C514.488,687.557 514.616,687.685 514.772,687.685L531.78,687.685C531.935,687.685 532.063,687.557 532.063,687.402L532.063,679.181C532.063,678.898 531.78,679.181 532.063,679.181L548.504,679.181C548.787,679.181 548.504,678.898 548.504,679.181L548.504,687.402C548.504,687.557 548.631,687.685 548.787,687.685L565.795,687.685C565.951,687.685 566.079,687.557 566.079,687.402L566.079,679.181C566.079,678.898 565.795,679.181 566.079,679.181L582.52,679.181C582.803,679.181 582.52,678.898 582.52,679.181L582.52,687.402C582.52,687.557 582.647,687.685 582.803,687.685L599.811,687.685C599.967,687.685 600.094,687.557 600.094,687.402L600.094,679.181C600.094,678.898 599.811,679.181 600.094,679.181L616.535,679.181C616.819,679.181 616.535,678.898 616.535,679.181L616.535,687.402C616.535,687.557 616.663,687.685 616.819,687.685L633.827,687.685C633.983,687.685 634.11,687.557 634.11,687.402L634.11,679.181C634.11,678.898 633.827,679.181 634.11,679.181L650.551,679.181C650.835,679.181 650.551,678.898 650.551,679.181L650.551,687.402C650.551,687.557 650.679,687.685 650.835,687.685L667.843,687.685C667.998,687.685 668.126,687.557 668.126,687.402L668.126,679.181C668.126,678.898 667.843,679.181 668.126,679.181L684.567,679.181C684.85,679.181 684.567,678.898 684.567,679.181L684.567,687.402C684.567,687.557 684.694,687.685 684.85,687.685L701.858,687.685C702.014,687.685 702.142,687.557 702.142,687.402L702.142,679.181C702.142,678.898 701.858,679.181 702.142,679.181L718.583,679.181C718.866,679.181 718.583,678.898 718.583,679.181L718.583,687.402C718.583,687.557 718.71,687.685 718.866,687.685L735.874,687.685C736.03,687.685 736.157,687.557 736.157,687.402L736.157,679.181C736.157,678.898 735.874,679.181 736.157,679.181L752.598,679.181C752.882,679.181 752.598,678.898 752.598,679.181L752.598,687.402C752.598,687.557 752.726,687.685 752.882,687.685L769.89,687.685C770.046,687.685 770.173,687.557 770.173,687.402L770.173,679.181C770.173,678.898 769.89,679.181 770.173,679.181L786.614,679.181C786.898,679.181 786.614,678.898 786.614,679.181L786.614,687.402C786.614,687.557 786.742,687.685 786.898,687.685L803.906,687.685C804.061,687.685 804.189,687.557 804.189,687.402L804.189,679.181C804.189,678.898 803.906,679.181 804.189,679.181L820.63,679.181C820.913,679.181 820.63,678.898 820.63,679.181L820.63,687.402C820.63,687.557 820.757,687.685 820.913,687.685L837.921,687.685C838.077,687.685 838.205,687.557 838.205,687.402L838.205,679.181C838.205,678.898 837.921,679.181 838.205,679.181L854.646,679.181C854.929,679.181 854.646,678.898 854.646,679.181L854.646,687.402C854.646,687.557 854.773,687.685 854.929,687.685L881.858,687.685C882.014,687.685 882.142,687.557 882.142,687.402L882.142,647.717C882.142,647.561 882.014,647.433 881.858,647.433L873.638,647.433C873.354,647.433 873.638,647.717 873.638,647.433L873.638,630.992C873.638,630.709 873.354,630.992 873.638,630.992L881.858,630.992C882.014,630.992 882.142,630.865 882.142,630.709L882.142,613.701C882.142,613.545 882.014,613.417 881.858,613.417L873.638,613.417C873.354,613.417 873.638,613.701 873.638,613.417L873.638,596.976C873.638,596.693 873.354,596.976 873.638,596.976L881.858,596.976C882.014,596.976 882.142,596.849 882.142,596.693L882.142,579.685C882.142,579.529 882.014,579.402 881.858,579.402L873.638,579.402C873.354,579.402 873.638,579.685 873.638,579.402L873.638,562.961C873.638,562.677 873.354,562.961 873.638,562.961L881.858,562.961C882.014,562.961 882.142,562.833 882.142,562.677L882.142,545.669C882.142,545.513 882.014,545.386 881.858,545.386L873.638,545.386C873.354,545.386 873.638,545.669 873.638,545.386L873.638,528.945C873.638,528.661 873.354,528.945 873.638,528.945L881.858,528.945C882.014,528.945 882.142,528.817 882.142,528.661L882.142,511.654C882.142,511.498 882.014,511.37 881.858,511.37L873.638,511.37C873.354,511.37 873.638,511.654 873.638,511.37L873.638,494.929C873.638,494.646 873.354,494.929 873.638,494.929L881.858,494.929C882.014,494.929 882.142,494.802 882.142,494.646L882.142,477.638C882.142,477.482 882.014,477.354 881.858,477.354L873.638,477.354C873.354,477.354 873.638,477.638 873.638,477.354L873.638,460.913C873.638,460.63 873.354,460.913 873.638,460.913L881.858,460.913C882.014,460.913 882.142,460.786 882.142,460.63L882.142,420.945C882.142,420.789 882.014,420.661 881.858,420.661L28.63,420.661C28.474,420.661 28.346,420.789 28.346,420.945L28.346,460.63C28.346,460.786 28.474,460.913 28.63,460.913L36.85,460.913C37.134,460.913 36.85,460.63 36.85,460.913L36.85,477.354C36.85,477.638 37.134,477.354 36.85,477.354L28.63,477.354C28.474,477.354 28.346,477.482 28.346,477.638L28.346,494.646C28.346,494.802 28.474,494.929 28.63,494.929L36.85,494.929C37.134,494.929 36.85,494.646 36.85,494.929L36.85,511.37C36.85,511.654 37.134,511.37 36.85,511.37L28.63,511.37C28.474,511.37 28.346,511.498 28.346,511.654L28.346,528.661C28.346,528.817 28.474,528.945 28.63,528.945L36.85,528.945C37.134,528.945 36.85,528.661 36.85,528.945L36.85,545.386C36.85,545.669 37.134,545.386 36.85,545.386L28.63,545.386C28.474,545.386 28.346,545.513 28.346,545.669L28.346,562.677C28.346,562.833 28.474,562.961 28.63,562.961L36.85,562.961C37.134,562.961 36.85,562.677 36.85,562.961L36.85,579.402C36.85,579.685 37.134,579.402 36.85,579.402L28.63,579.402C28.474,579.402 28.346,579.529 28.346,579.685L28.346,596.693C28.346,596.849 28.474,596.976 28.63,596.976L36.85,596.976C37.134,596.976 36.85,596.693 36.85,596.976L36.85,613.417C36.85,613.701 37.134,613.417 36.85,613.417L28.63,613.417C28.474,613.417 28.346,613.545 28.346,613.701L28.346,630.709C28.346,630.865 28.474,630.992 28.63,630.992L36.85,630.992C37.134,630.992 36.85,630.709 36.85,630.992L36.85,647.433C36.85,647.717 37.134,647.433 36.85,647.433L28.63,647.433C28.474,647.433 28.346,647.561 28.346,647.717L28.346,687.402C28.346,687.557 28.474,687.685 28.63,687.685L37.134,687.685" style="fill:none;fill-rule:nonzero;stroke:black;stroke-width:0.57px;"/>
        <g transform="matrix(1,0,0,1,-1.21735,279.99)">
            <path d="M252.283,635.244L252.283,651.685C252.283,651.969 252.567,651.685 252.283,651.685L244.346,651.685C244.063,651.685 244.346,651.969 244.346,651.685L244.346,635.244C244.346,634.961 244.063,635.244 244.346,635.244L252.283,635.244C252.567,635.244 252.283,634.961 252.283,635.244Z" style="fill:none;fill-rule:nonzero;stroke:rgb(0,0,255);stroke-width:0.57px;"/>
        </g>
        <g transform="matrix(1,0,0,1,-1.21735,279.99)">
            <path d="M252.283,601.228L252.283,617.669C252.283,617.953 252.567,617.669 252.283,617.669L244.346,617.669C244.063,617.669 244.346,617.953 244.346,617.669L244.346,601.228C244.346,600.945 244.063,601.228 244.346,601.228L252.283,601.228C252.567,601.228 252.283,600.945 252.283,601.228Z" style="fill:none;fill-rule:nonzero;stroke:rgb(0,0,255);stroke-width:0.57px;"/>
        </g>
        <g transform="matrix(1,0,0,1,-1.21735,279.99)">
            <path d="M252.283,567.213L252.283,583.654C252.283,583.937 252.567,583.654 252.283,583.654L244.346,583.654C244.063,583.654 244.346,583.937 244.346,583.654L244.346,567.213C244.346,566.929 244.063,567.213 244.346,567.213L252.283,567.213C252.567,567.213 252.283,566.929 252.283,567.213Z" style="fill:none;fill-rule:nonzero;stroke:rgb(0,0,255);stroke-width:0.57px;"/>
        </g>
        <g transform="matrix(1,0,0,1,-1.21735,279.99)">
            <path d="M252.283,533.197L252.283,549.638C252.283,549.921 252.567,549.638 252.283,549.638L244.346,549.638C244.063,549.638 244.346,549.921 244.346,549.638L244.346,533.197C244.346,532.913 244.063,533.197 244.346,533.197L252.283,533.197C252.567,533.197 252.283,532.913 252.283,533.197Z" style="fill:none;fill-rule:nonzero;stroke:rgb(0,0,255);stroke-width:0.57px;"/>
        </g>
        <g transform="matrix(1,0,0,1,-1.21735,279.99)">
            <path d="M252.283,499.181L252.283,515.622C252.283,515.906 252.567,515.622 252.283,515.622L244.346,515.622C244.063,515.622 244.346,515.906 244.346,515.622L244.346,499.181C244.346,498.898 244.063,499.181 244.346,499.181L252.283,499.181C252.567,499.181 252.283,498.898 252.283,499.181Z" style="fill:none;fill-rule:nonzero;stroke:rgb(0,0,255);stroke-width:0.57px;"/>
        </g>
        <g transform="matrix(1,0,0,1,-1.21735,279.99)">
            <path d="M252.283,465.165L252.283,481.606C252.283,481.89 252.567,481.606 252.283,481.606L244.346,481.606C244.063,481.606 244.346,481.89 244.346,481.606L244.346,465.165C244.346,464.882 244.063,465.165 244.346,465.165L252.283,465.165C252.567,465.165 252.283,464.882 252.283,465.165Z" style="fill:none;fill-rule:nonzero;stroke:rgb(0,0,255);stroke-width:0.57px;"/>
        </g>
        <g transform="matrix(1,0,0,1,-1.21735,279.99)">
            <path d="M459.213,635.244L459.213,651.685C459.213,651.969 459.496,651.685 459.213,651.685L451.276,651.685C450.992,651.685 451.276,651.969 451.276,651.685L451.276,635.244C451.276,634.961 450.992,635.244 451.276,635.244L459.213,635.244C459.496,635.244 459.213,634.961 459.213,635.244Z" style="fill:none;fill-rule:nonzero;stroke:rgb(0,0,255);stroke-width:0.57px;"/>
        </g>
        <g transform="matrix(1,0,0,1,-1.21735,279.99)">
            <path d="M459.213,601.228L459.213,617.669C459.213,617.953 459.496,617.669 459.213,617.669L451.276,617.669C450.992,617.669 451.276,617.953 451.276,617.669L451.276,601.228C451.276,600.945 450.992,601.228 451.276,601.228L459.213,601.228C459.496,601.228 459.213,600.945 459.213,601.228Z" style="fill:none;fill-rule:nonzero;stroke:rgb(0,0,255);stroke-width:0.57px;"/>
        </g>
        <g transform="matrix(1,0,0,1,-1.21735,279.99)">
            <path d="M459.213,567.213L459.213,583.654C459.213,583.937 459.496,583.654 459.213,583.654L451.276,583.654C450.992,583.654 451.276,583.937 451.276,583.654L451.276,567.213C451.276,566.929 450.992,567.213 451.276,567.213L459.213,567.213C459.496,567.213 459.213,566.929 459.213,567.213Z" style="fill:none;fill-rule:nonzero;stroke:rgb(0,0,255);stroke-width:0.57px;"/>
        </g>
        <g transform="matrix(1,0,0,1,-1.21735,279.99)">
            <path d="M459.213,533.197L459.213,549.638C459.213,549.921 459.496,549.638 459.213,549.638L451.276,549.638C450.992,549.638 451.276,549.921 451.276,549.638L451.276,533.197C451.276,532.913 450.992,533.197 451.276,533.197L459.213,533.197C459.496,533.197 459.213,532.913 459.213,533.197Z" style="fill:none;fill-rule:nonzero;stroke:rgb(0,0,255);stroke-width:0.57px;"/>
        </g>
        <g transform="matrix(1,0,0,1,-1.21735,279.99)">
            <path d="M459.213,499.181L459.213,515.622C459.213,515.906 459.496,515.622 459.213,515.622L451.276,515.622C450.992,515.622 451.276,515.906 451.276,515.622L451.276,499.181C451.276,498.898 450.992,499.181 451.276,499.181L459.213,499.181C459.496,499.181 459.213,498.898 459.213,499.181Z" style="fill:none;fill-rule:nonzero;stroke:rgb(0,0,255);stroke-width:0.57px;"/>
        </g>
        <g transform="matrix(1,0,0,1,-1.21735,279.99)">
            <path d="M459.213,465.165L459.213,481.606C459.213,481.89 459.496,481.606 459.213,481.606L451.276,481.606C450.992,481.606 451.276,481.89 451.276,481.606L451.276,465.165C451.276,464.882 450.992,465.165 451.276,465.165L459.213,465.165C459.496,465.165 459.213,464.882 459.213,465.165Z" style="fill:none;fill-rule:nonzero;stroke:rgb(0,0,255);stroke-width:0.57px;"/>
        </g>
        <g transform="matrix(1,0,0,1,-1.21735,279.99)">
            <path d="M666.142,635.244L666.142,651.685C666.142,651.969 666.425,651.685 666.142,651.685L658.205,651.685C657.921,651.685 658.205,651.969 658.205,651.685L658.205,635.244C658.205,634.961 657.921,635.244 658.205,635.244L666.142,635.244C666.425,635.244 666.142,634.961 666.142,635.244Z" style="fill:none;fill-rule:nonzero;stroke:rgb(0,0,255);stroke-width:0.57px;"/>
        </g>
        <g transform="matrix(1,0,0,1,-1.21735,279.99)">
            <path d="M666.142,601.228L666.142,617.669C666.142,617.953 666.425,617.669 666.142,617.669L658.205,617.669C657.921,617.669 658.205,617.953 658.205,617.669L658.205,601.228C658.205,600.945 657.921,601.228 658.205,601.228L666.142,601.228C666.425,601.228 666.142,600.945 666.142,601.228Z" style="fill:none;fill-rule:nonzero;stroke:rgb(0,0,255);stroke-width:0.57px;"/>
        </g>
        <g transform="matrix(1,0,0,1,-1.21735,279.99)">
            <path d="M666.142,567.213L666.142,583.654C666.142,583.937 666.425,583.654 666.142,583.654L658.205,583.654C657.921,583.654 658.205,583.937 658.205,583.654L658.205,567.213C658.205,566.929 657.921,567.213 658.205,567.213L666.142,567.213C666.425,567.213 666.142,566.929 666.142,567.213Z" style="fill:none;fill-rule:nonzero;stroke:rgb(0,0,255);stroke-width:0.57px;"/>
        </g>
        <g transform="matrix(1,0,0,1,-1.21735,279.99)">
            <path d="M666.142,533.197L666.142,549.638C666.142,549.921 666.425,549.638 666.142,549.638L658.205,549.638C657.921,549.638 658.205,549.921 658.205,549.638L658.205,533.197C658.205,532.913 657.921,533.197 658.205,533.197L666.142,533.197C666.425,533.197 666.142,532.913 666.142,533.197Z" style="fill:none;fill-rule:nonzero;stroke:rgb(0,0,255);stroke-width:0.57px;"/>
        </g>
        <g transform="matrix(1,0,0,1,-1.21735,279.99)">
            <path d="M666.142,499.181L666.142,515.622C666.142,515.906 666.425,515.622 666.142,515.622L658.205,515.622C657.921,515.622 658.205,515.906 658.205,515.622L658.205,499.181C658.205,498.898 657.921,499.181 658.205,499.181L666.142,499.181C666.425,499.181 666.142,498.898 666.142,499.181Z" style="fill:none;fill-rule:nonzero;stroke:rgb(0,0,255);stroke-width:0.57px;"/>
        </g>
        <g transform="matrix(1,0,0,1,-1.21735,279.99)">
            <path d="M666.142,465.165L666.142,481.606C666.142,481.89 666.425,481.606 666.142,481.606L658.205,481.606C657.921,481.606 658.205,481.89 658.205,481.606L658.205,465.165C658.205,464.882 657.921,465.165 658.205,465.165L666.142,465.165C666.425,465.165 666.142,464.882 666.142,465.165Z" style="fill:none;fill-rule:nonzero;stroke:rgb(0,0,255);stroke-width:0.57px;"/>
        </g>
        <g transform="matrix(1,0,0,1,-1.21735,279.99)">
            <path d="M37.134,687.685L55.559,687.685C55.715,687.685 55.843,687.557 55.843,687.402L55.843,679.181C55.843,678.898 55.559,679.181 55.843,679.181L72.283,679.181C72.567,679.181 72.283,678.898 72.283,679.181L72.283,687.402C72.283,687.557 72.411,687.685 72.567,687.685L89.575,687.685C89.731,687.685 89.858,687.557 89.858,687.402L89.858,679.181C89.858,678.898 89.575,679.181 89.858,679.181L106.299,679.181C106.583,679.181 106.299,678.898 106.299,679.181L106.299,687.402C106.299,687.557 106.427,687.685 106.583,687.685L123.591,687.685C123.746,687.685 123.874,687.557 123.874,687.402L123.874,679.181C123.874,678.898 123.591,679.181 123.874,679.181L140.315,679.181C140.598,679.181 140.315,678.898 140.315,679.181L140.315,687.402C140.315,687.557 140.443,687.685 140.598,687.685L157.606,687.685C157.762,687.685 157.89,687.557 157.89,687.402L157.89,679.181C157.89,678.898 157.606,679.181 157.89,679.181L174.331,679.181C174.614,679.181 174.331,678.898 174.331,679.181L174.331,687.402C174.331,687.557 174.458,687.685 174.614,687.685L191.622,687.685C191.778,687.685 191.906,687.557 191.906,687.402L191.906,679.181C191.906,678.898 191.622,679.181 191.906,679.181L208.346,679.181C208.63,679.181 208.346,678.898 208.346,679.181L208.346,687.402C208.346,687.557 208.474,687.685 208.63,687.685L225.638,687.685C225.794,687.685 225.921,687.557 225.921,687.402L225.921,679.181C225.921,678.898 225.638,679.181 225.921,679.181L242.362,679.181C242.646,679.181 242.362,678.898 242.362,679.181L242.362,687.402C242.362,687.557 242.49,687.685 242.646,687.685L259.654,687.685C259.809,687.685 259.937,687.557 259.937,687.402L259.937,679.181C259.937,678.898 259.654,679.181 259.937,679.181L276.378,679.181C276.661,679.181 276.378,678.898 276.378,679.181L276.378,687.402C276.378,687.557 276.506,687.685 276.661,687.685L293.669,687.685C293.825,687.685 293.953,687.557 293.953,687.402L293.953,679.181C293.953,678.898 293.669,679.181 293.953,679.181L310.394,679.181C310.677,679.181 310.394,678.898 310.394,679.181L310.394,687.402C310.394,687.557 310.521,687.685 310.677,687.685L327.685,687.685C327.841,687.685 327.969,687.557 327.969,687.402L327.969,679.181C327.969,678.898 327.685,679.181 327.969,679.181L344.409,679.181C344.693,679.181 344.409,678.898 344.409,679.181L344.409,687.402C344.409,687.557 344.537,687.685 344.693,687.685L361.701,687.685C361.857,687.685 361.984,687.557 361.984,687.402L361.984,679.181C361.984,678.898 361.701,679.181 361.984,679.181L378.425,679.181C378.709,679.181 378.425,678.898 378.425,679.181L378.425,687.402C378.425,687.557 378.553,687.685 378.709,687.685L395.717,687.685C395.872,687.685 396,687.557 396,687.402L396,679.181C396,678.898 395.717,679.181 396,679.181L412.441,679.181C412.724,679.181 412.441,678.898 412.441,679.181L412.441,687.402C412.441,687.557 412.569,687.685 412.724,687.685L429.732,687.685C429.888,687.685 430.016,687.557 430.016,687.402L430.016,679.181C430.016,678.898 429.732,679.181 430.016,679.181L446.457,679.181C446.74,679.181 446.457,678.898 446.457,679.181L446.457,687.402C446.457,687.557 446.584,687.685 446.74,687.685L463.748,687.685C463.904,687.685 464.031,687.557 464.031,687.402L464.031,679.181C464.031,678.898 463.748,679.181 464.031,679.181L480.472,679.181C480.756,679.181 480.472,678.898 480.472,679.181L480.472,687.402C480.472,687.557 480.6,687.685 480.756,687.685L497.764,687.685C497.92,687.685 498.047,687.557 498.047,687.402L498.047,679.181C498.047,678.898 497.764,679.181 498.047,679.181L514.488,679.181C514.772,679.181 514.488,678.898 514.488,679.181L514.488,687.402C514.488,687.557 514.616,687.685 514.772,687.685L531.78,687.685C531.935,687.685 532.063,687.557 532.063,687.402L532.063,679.181C532.063,678.898 531.78,679.181 532.063,679.181L548.504,679.181C548.787,679.181 548.504,678.898 548.504,679.181L548.504,687.402C548.504,687.557 548.631,687.685 548.787,687.685L565.795,687.685C565.951,687.685 566.079,687.557 566.079,687.402L566.079,679.181C566.079,678.898 565.795,679.181 566.079,679.181L582.52,679.181C582.803,679.181 582.52,678.898 582.52,679.181L582.52,687.402C582.52,687.557 582.647,687.685 582.803,687.685L599.811,687.685C599.967,687.685 600.094,687.557 600.094,687.402L600.094,679.181C600.094,678.898 599.811,679.181 600.094,679.181L616.535,679.181C616.819,679.181 616.535,678.898 616.535,679.181L616.535,687.402C616.535,687.557 616.663,687.685 616.819,687.685L633.827,687.685C633.983,687.685 634.11,687.557 634.11,687.402L634.11,679.181C634.11,678.898 633.827,679.181 634.11,679.181L650.551,679.181C650.835,679.181 650.551,678.898 650.551,679.181L650.551,687.402C650.551,687.557 650.679,687.685 650.835,687.685L667.843,687.685C667.998,687.685 668.126,687.557 668.126,687.402L668.126,679.181C668.126,678.898 667.843,679.181 668.126,679.181L684.567,679.181C684.85,679.181 684.567,678.898 684.567,679.181L684.567,687.402C684.567,687.557 684.694,687.685 684.85,687.685L701.858,687.685C702.014,687.685 702.142,687.557 702.142,687.402L702.142,679.181C702.142,678.898 701.858,679.181 702.142,679.181L718.583,679.181C718.866,679.181 718.583,678.898 718.583,679.181L718.583,687.402C718.583,687.557 718.71,687.685 718.866,687.685L735.874,687.685C736.03,687.685 736.157,687.557 736.157,687.402L736.157,679.181C736.157,678.898 735.874,679.181 736.157,679.181L752.598,679.181C752.882,679.181 752.598,678.898 752.598,679.181L752.598,687.402C752.598,687.557 752.726,687.685 752.882,687.685L769.89,687.685C770.046,687.685 770.173,687.557 770.173,687.402L770.173,679.181C770.173,678.898 769.89,679.181 770.173,679.181L786.614,679.181C786.898,679.181 786.614,678.898 786.614,679.181L786.614,687.402C786.614,687.557 786.742,687.685 786.898,687.685L803.906,687.685C804.061,687.685 804.189,687.557 804.189,687.402L804.189,679.181C804.189,678.898 803.906,679.181 804.189,679.181L820.63,679.181C820.913,679.181 820.63,678.898 820.63,679.181L820.63,687.402C820.63,687.557 820.757,687.685 820.913,687.685L837.921,687.685C838.077,687.685 838.205,687.557 838.205,687.402L838.205,679.181C838.205,678.898 837.921,679.181 838.205,679.181L854.646,679.181C854.929,679.181 854.646,678.898 854.646,679.181L854.646,687.402C854.646,687.557 854.773,687.685 854.929,687.685L881.858,687.685C882.014,687.685 882.142,687.557 882.142,687.402L882.142,647.717C882.142,647.561 882.014,647.433 881.858,647.433L873.638,647.433C873.354,647.433 873.638,647.717 873.638,647.433L873.638,630.992C873.638,630.709 873.354,630.992 873.638,630.992L881.858,630.992C882.014,630.992 882.142,630.865 882.142,630.709L882.142,613.701C882.142,613.545 882.014,613.417 881.858,613.417L873.638,613.417C873.354,613.417 873.638,613.701 873.638,613.417L873.638,596.976C873.638,596.693 873.354,596.976 873.638,596.976L881.858,596.976C882.014,596.976 882.142,596.849 882.142,596.693L882.142,579.685C882.142,579.529 882.014,579.402 881.858,579.402L873.638,579.402C873.354,579.402 873.638,579.685 873.638,579.402L873.638,562.961C873.638,562.677 873.354,562.961 873.638,562.961L881.858,562.961C882.014,562.961 882.142,562.833 882.142,562.677L882.142,545.669C882.142,545.513 882.014,545.386 881.858,545.386L873.638,545.386C873.354,545.386 873.638,545.669 873.638,545.386L873.638,528.945C873.638,528.661 873.354,528.945 873.638,528.945L881.858,528.945C882.014,528.945 882.142,528.817 882.142,528.661L882.142,511.654C882.142,511.498 882.014,511.37 881.858,511.37L873.638,511.37C873.354,511.37 873.638,511.654 873.638,511.37L873.638,494.929C873.638,494.646 873.354,494.929 873.638,494.929L881.858,494.929C882.014,494.929 882.142,494.802 882.142,494.646L882.142,477.638C882.142,477.482 882.014,477.354 881.858,477.354L873.638,477.354C873.354,477.354 873.638,477.638 873.638,477.354L873.638,460.913C873.638,460.63 873.354,460.913 873.638,460.913L881.858,460.913C882.014,460.913 882.142,460.786 882.142,460.63L882.142,420.945C882.142,420.789 882.014,420.661 881.858,420.661L28.63,420.661C28.474,420.661 28.346,420.789 28.346,420.945L28.346,460.63C28.346,460.786 28.474,460.913 28.63,460.913L36.85,460.913C37.134,460.913 36.85,460.63 36.85,460.913L36.85,477.354C36.85,477.638 37.134,477.354 36.85,477.354L28.63,477.354C28.474,477.354 28.346,477.482 28.346,477.638L28.346,494.646C28.346,494.802 28.474,494.929 28.63,494.929L36.85,494.929C37.134,494.929 36.85,494.646 36.85,494.929L36.85,511.37C36.85,511.654 37.134,511.37 36.85,511.37L28.63,511.37C28.474,511.37 28.346,511.498 28.346,511.654L28.346,528.661C28.346,528.817 28.474,528.945 28.63,528.945L36.85,528.945C37.134,528.945 36.85,528.661 36.85,528.945L36.85,545.386C36.85,545.669 37.134,545.386 36.85,545.386L28.63,545.386C28.474,545.386 28.346,545.513 28.346,545.669L28.346,562.677C28.346,562.833 28.474,562.961 28.63,562.961L36.85,562.961C37.134,562.961 36.85,562.677 36.85,562.961L36.85,579.402C36.85,579.685 37.134,579.402 36.85,579.402L28.63,579.402C28.474,579.402 28.346,579.529 28.346,579.685L28.346,596.693C28.346,596.849 28.474,596.976 28.63,596.976L36.85,596.976C37.134,596.976 36.85,596.693 36.85,596.976L36.85,613.417C36.85,613.701 37.134,613.417 36.85,613.417L28.63,613.417C28.474,613.417 28.346,613.545 28.346,613.701L28.346,630.709C28.346,630.865 28.474,630.992 28.63,630.992L36.85,630.992C37.134,630.992 36.85,630.709 36.85,630.992L36.85,647.433C36.85,647.717 37.134,647.433 36.85,647.433L28.63,647.433C28.474,647.433 28.346,647.561 28.346,647.717L28.346,687.402C28.346,687.557 28.474,687.685 28.63,687.685L37.134,687.685" style="fill:none;fill-rule:nonzero;stroke:black;stroke-width:0.57px;"/>
        </g>
    </g>
    <g id="p-5">
        <path d="M37.134,386.079L68.031,386.079C68.315,386.079 68.031,385.795 68.031,386.079L68.031,394.299C68.031,394.455 68.159,394.583 68.315,394.583L85.323,394.583C85.479,394.583 85.606,394.455 85.606,394.299L85.606,386.079C85.606,385.795 85.323,386.079 85.606,386.079L102.047,386.079C102.331,386.079 102.047,385.795 102.047,386.079L102.047,394.299C102.047,394.455 102.175,394.583 102.331,394.583L119.339,394.583C119.494,394.583 119.622,394.455 119.622,394.299L119.622,386.079C119.622,385.795 119.339,386.079 119.622,386.079L136.063,386.079C136.346,386.079 136.063,385.795 136.063,386.079L136.063,394.299C136.063,394.455 136.191,394.583 136.346,394.583L153.354,394.583C153.51,394.583 153.638,394.455 153.638,394.299L153.638,386.079C153.638,385.795 153.354,386.079 153.638,386.079L170.079,386.079C170.362,386.079 170.079,385.795 170.079,386.079L170.079,394.299C170.079,394.455 170.206,394.583 170.362,394.583L187.37,394.583C187.526,394.583 187.654,394.455 187.654,394.299L187.654,386.079C187.654,385.795 187.37,386.079 187.654,386.079L204.094,386.079C204.378,386.079 204.094,385.795 204.094,386.079L204.094,394.299C204.094,394.455 204.222,394.583 204.378,394.583L221.386,394.583C221.542,394.583 221.669,394.455 221.669,394.299L221.669,386.079C221.669,385.795 221.386,386.079 221.669,386.079L238.11,386.079C238.394,386.079 238.11,385.795 238.11,386.079L238.11,394.299C238.11,394.455 238.238,394.583 238.394,394.583L255.402,394.583C255.557,394.583 255.685,394.455 255.685,394.299L255.685,386.079C255.685,385.795 255.402,386.079 255.685,386.079L295.087,386.079C295.243,386.079 295.37,385.951 295.37,385.795L295.37,37.134C295.37,36.978 295.243,36.85 295.087,36.85L255.685,36.85C255.402,36.85 255.685,37.134 255.685,36.85L255.685,28.63C255.685,28.474 255.557,28.346 255.402,28.346L238.394,28.346C238.238,28.346 238.11,28.474 238.11,28.63L238.11,36.85C238.11,37.134 238.394,36.85 238.11,36.85L221.669,36.85C221.386,36.85 221.669,37.134 221.669,36.85L221.669,28.63C221.669,28.474 221.542,28.346 221.386,28.346L204.378,28.346C204.222,28.346 204.094,28.474 204.094,28.63L204.094,36.85C204.094,37.134 204.378,36.85 204.094,36.85L187.654,36.85C187.37,36.85 187.654,37.134 187.654,36.85L187.654,28.63C187.654,28.474 187.526,28.346 187.37,28.346L170.362,28.346C170.206,28.346 170.079,28.474 170.079,28.63L170.079,36.85C170.079,37.134 170.362,36.85 170.079,36.85L153.638,36.85C153.354,36.85 153.638,37.134 153.638,36.85L153.638,28.63C153.638,28.474 153.51,28.346 153.354,28.346L136.346,28.346C136.191,28.346 136.063,28.474 136.063,28.63L136.063,36.85C136.063,37.134 136.346,36.85 136.063,36.85L119.622,36.85C119.339,36.85 119.622,37.134 119.622,36.85L119.622,28.63C119.622,28.474 119.494,28.346 119.339,28.346L102.331,28.346C102.175,28.346 102.047,28.474 102.047,28.63L102.047,36.85C102.047,37.134 102.331,36.85 102.047,36.85L85.606,36.85C85.323,36.85 85.606,37.134 85.606,36.85L85.606,28.63C85.606,28.474 85.479,28.346 85.323,28.346L68.315,28.346C68.159,28.346 68.031,28.474 68.031,28.63L68.031,36.85C68.031,37.134 68.315,36.85 68.031,36.85L28.63,36.85C28.474,36.85 28.346,36.978 28.346,37.134L28.346,66.898C28.346,67.054 28.474,67.181 28.63,67.181L36.85,67.181C37.134,67.181 36.85,66.898 36.85,67.181L36.85,83.622C36.85,83.906 37.134,83.622 36.85,83.622L28.63,83.622C28.474,83.622 28.346,83.75 28.346,83.906L28.346,100.913C28.346,101.069 28.474,101.197 28.63,101.197L36.85,101.197C37.134,101.197 36.85,100.913 36.85,101.197L36.85,117.638C36.85,117.921 37.134,117.638 36.85,117.638L28.63,117.638C28.474,117.638 28.346,117.765 28.346,117.921L28.346,134.929C28.346,135.085 28.474,135.213 28.63,135.213L36.85,135.213C37.134,135.213 36.85,134.929 36.85,135.213L36.85,151.654C36.85,151.937 37.134,151.654 36.85,151.654L28.63,151.654C28.474,151.654 28.346,151.781 28.346,151.937L28.346,168.945C28.346,169.101 28.474,169.228 28.63,169.228L36.85,169.228C37.134,169.228 36.85,168.945 36.85,169.228L36.85,185.669C36.85,185.953 37.134,185.669 36.85,185.669L28.63,185.669C28.474,185.669 28.346,185.797 28.346,185.953L28.346,202.961C28.346,203.117 28.474,203.244 28.63,203.244L36.85,203.244C37.134,203.244 36.85,202.961 36.85,203.244L36.85,219.685C36.85,219.969 37.134,219.685 36.85,219.685L28.63,219.685C28.474,219.685 28.346,219.813 28.346,219.969L28.346,236.976C28.346,237.132 28.474,237.26 28.63,237.26L36.85,237.26C37.134,237.26 36.85,236.976 36.85,237.26L36.85,253.701C36.85,253.984 37.134,253.701 36.85,253.701L28.63,253.701C28.474,253.701 28.346,253.828 28.346,253.984L28.346,270.992C28.346,271.148 28.474,271.276 28.63,271.276L36.85,271.276C37.134,271.276 36.85,270.992 36.85,271.276L36.85,287.717C36.85,288 37.134,287.717 36.85,287.717L28.63,287.717C28.474,287.717 28.346,287.844 28.346,288L28.346,305.008C28.346,305.164 28.474,305.291 28.63,305.291L36.85,305.291C37.134,305.291 36.85,305.008 36.85,305.291L36.85,321.732C36.85,322.016 37.134,321.732 36.85,321.732L28.63,321.732C28.474,321.732 28.346,321.86 28.346,322.016L28.346,339.024C28.346,339.18 28.474,339.307 28.63,339.307L36.85,339.307C37.134,339.307 36.85,339.024 36.85,339.307L36.85,355.748C36.85,356.031 37.134,355.748 36.85,355.748L28.63,355.748C28.474,355.748 28.346,355.876 28.346,356.031L28.346,385.795C28.346,385.951 28.474,386.079 28.63,386.079L37.134,386.079" style="fill:none;fill-rule:nonzero;stroke:black;stroke-width:0.57px;"/>
    </g>
    <g id="p-6">
        <path d="M308.409,386.079L339.307,386.079C339.591,386.079 339.307,385.795 339.307,386.079L339.307,394.299C339.307,394.455 339.435,394.583 339.591,394.583L356.598,394.583C356.754,394.583 356.882,394.455 356.882,394.299L356.882,386.079C356.882,385.795 356.598,386.079 356.882,386.079L373.323,386.079C373.606,386.079 373.323,385.795 373.323,386.079L373.323,394.299C373.323,394.455 373.45,394.583 373.606,394.583L390.614,394.583C390.77,394.583 390.898,394.455 390.898,394.299L390.898,386.079C390.898,385.795 390.614,386.079 390.898,386.079L407.339,386.079C407.622,386.079 407.339,385.795 407.339,386.079L407.339,394.299C407.339,394.455 407.466,394.583 407.622,394.583L424.63,394.583C424.786,394.583 424.913,394.455 424.913,394.299L424.913,386.079C424.913,385.795 424.63,386.079 424.913,386.079L441.354,386.079C441.638,386.079 441.354,385.795 441.354,386.079L441.354,394.299C441.354,394.455 441.482,394.583 441.638,394.583L458.646,394.583C458.802,394.583 458.929,394.455 458.929,394.299L458.929,386.079C458.929,385.795 458.646,386.079 458.929,386.079L475.37,386.079C475.654,386.079 475.37,385.795 475.37,386.079L475.37,394.299C475.37,394.455 475.498,394.583 475.654,394.583L492.661,394.583C492.817,394.583 492.945,394.455 492.945,394.299L492.945,386.079C492.945,385.795 492.661,386.079 492.945,386.079L509.386,386.079C509.669,386.079 509.386,385.795 509.386,386.079L509.386,394.299C509.386,394.455 509.513,394.583 509.669,394.583L526.677,394.583C526.833,394.583 526.961,394.455 526.961,394.299L526.961,386.079C526.961,385.795 526.677,386.079 526.961,386.079L566.362,386.079C566.518,386.079 566.646,385.951 566.646,385.795L566.646,37.134C566.646,36.978 566.518,36.85 566.362,36.85L526.961,36.85C526.677,36.85 526.961,37.134 526.961,36.85L526.961,28.63C526.961,28.474 526.833,28.346 526.677,28.346L509.669,28.346C509.513,28.346 509.386,28.474 509.386,28.63L509.386,36.85C509.386,37.134 509.669,36.85 509.386,36.85L492.945,36.85C492.661,36.85 492.945,37.134 492.945,36.85L492.945,28.63C492.945,28.474 492.817,28.346 492.661,28.346L475.654,28.346C475.498,28.346 475.37,28.474 475.37,28.63L475.37,36.85C475.37,37.134 475.654,36.85 475.37,36.85L458.929,36.85C458.646,36.85 458.929,37.134 458.929,36.85L458.929,28.63C458.929,28.474 458.802,28.346 458.646,28.346L441.638,28.346C441.482,28.346 441.354,28.474 441.354,28.63L441.354,36.85C441.354,37.134 441.638,36.85 441.354,36.85L424.913,36.85C424.63,36.85 424.913,37.134 424.913,36.85L424.913,28.63C424.913,28.474 424.786,28.346 424.63,28.346L407.622,28.346C407.466,28.346 407.339,28.474 407.339,28.63L407.339,36.85C407.339,37.134 407.622,36.85 407.339,36.85L390.898,36.85C390.614,36.85 390.898,37.134 390.898,36.85L390.898,28.63C390.898,28.474 390.77,28.346 390.614,28.346L373.606,28.346C373.45,28.346 373.323,28.474 373.323,28.63L373.323,36.85C373.323,37.134 373.606,36.85 373.323,36.85L356.882,36.85C356.598,36.85 356.882,37.134 356.882,36.85L356.882,28.63C356.882,28.474 356.754,28.346 356.598,28.346L339.591,28.346C339.435,28.346 339.307,28.474 339.307,28.63L339.307,36.85C339.307,37.134 339.591,36.85 339.307,36.85L299.906,36.85C299.75,36.85 299.622,36.978 299.622,37.134L299.622,66.898C299.622,67.054 299.75,67.181 299.906,67.181L308.126,67.181C308.409,67.181 308.126,66.898 308.126,67.181L308.126,83.622C308.126,83.906 308.409,83.622 308.126,83.622L299.906,83.622C299.75,83.622 299.622,83.75 299.622,83.906L299.622,100.913C299.622,101.069 299.75,101.197 299.906,101.197L308.126,101.197C308.409,101.197 308.126,100.913 308.126,101.197L308.126,117.638C308.126,117.921 308.409,117.638 308.126,117.638L299.906,117.638C299.75,117.638 299.622,117.765 299.622,117.921L299.622,134.929C299.622,135.085 299.75,135.213 299.906,135.213L308.126,135.213C308.409,135.213 308.126,134.929 308.126,135.213L308.126,151.654C308.126,151.937 308.409,151.654 308.126,151.654L299.906,151.654C299.75,151.654 299.622,151.781 299.622,151.937L299.622,168.945C299.622,169.101 299.75,169.228 299.906,169.228L308.126,169.228C308.409,169.228 308.126,168.945 308.126,169.228L308.126,185.669C308.126,185.953 308.409,185.669 308.126,185.669L299.906,185.669C299.75,185.669 299.622,185.797 299.622,185.953L299.622,202.961C299.622,203.117 299.75,203.244 299.906,203.244L308.126,203.244C308.409,203.244 308.126,202.961 308.126,203.244L308.126,219.685C308.126,219.969 308.409,219.685 308.126,219.685L299.906,219.685C299.75,219.685 299.622,219.813 299.622,219.969L299.622,236.976C299.622,237.132 299.75,237.26 299.906,237.26L308.126,237.26C308.409,237.26 308.126,236.976 308.126,237.26L308.126,253.701C308.126,253.984 308.409,253.701 308.126,253.701L299.906,253.701C299.75,253.701 299.622,253.828 299.622,253.984L299.622,270.992C299.622,271.148 299.75,271.276 299.906,271.276L308.126,271.276C308.409,271.276 308.126,270.992 308.126,271.276L308.126,287.717C308.126,288 308.409,287.717 308.126,287.717L299.906,287.717C299.75,287.717 299.622,287.844 299.622,288L299.622,305.008C299.622,305.164 299.75,305.291 299.906,305.291L308.126,305.291C308.409,305.291 308.126,305.008 308.126,305.291L308.126,321.732C308.126,322.016 308.409,321.732 308.126,321.732L299.906,321.732C299.75,321.732 299.622,321.86 299.622,322.016L299.622,339.024C299.622,339.18 299.75,339.307 299.906,339.307L308.126,339.307C308.409,339.307 308.126,339.024 308.126,339.307L308.126,355.748C308.126,356.031 308.409,355.748 308.126,355.748L299.906,355.748C299.75,355.748 299.622,355.876 299.622,356.031L299.622,385.795C299.622,385.951 299.75,386.079 299.906,386.079L308.409,386.079" style="fill:none;fill-rule:nonzero;stroke:black;stroke-width:0.57px;"/>
    </g>
    <g id="p-11">
        <g transform="matrix(1.06805,0,0,1,-605.694,-1.55821)">
            <path d="M1114.87,386.079L1141.51,386.079C1141.8,386.079 1141.51,385.795 1141.51,386.079L1141.51,394.299C1141.51,394.455 1141.64,394.583 1141.8,394.583L1158.8,394.583C1158.96,394.583 1159.09,394.455 1159.09,394.299L1159.09,386.079C1159.09,385.795 1158.8,386.079 1159.09,386.079L1175.53,386.079C1175.81,386.079 1175.53,385.795 1175.53,386.079L1175.53,394.299C1175.53,394.455 1175.65,394.583 1175.81,394.583L1192.82,394.583C1192.98,394.583 1193.1,394.455 1193.1,394.299L1193.1,386.079C1193.1,385.795 1192.82,386.079 1193.1,386.079L1209.54,386.079C1209.83,386.079 1209.54,385.795 1209.54,386.079L1209.54,394.299C1209.54,394.455 1209.67,394.583 1209.83,394.583L1226.84,394.583C1226.99,394.583 1227.12,394.455 1227.12,394.299L1227.12,386.079C1227.12,385.795 1226.84,386.079 1227.12,386.079L1243.56,386.079C1243.84,386.079 1243.56,385.795 1243.56,386.079L1243.56,394.299C1243.56,394.455 1243.69,394.583 1243.84,394.583L1260.85,394.583C1261.01,394.583 1261.13,394.455 1261.13,394.299L1261.13,386.079C1261.13,385.795 1260.85,386.079 1261.13,386.079L1277.58,386.079C1277.86,386.079 1277.58,385.795 1277.58,386.079L1277.58,394.299C1277.58,394.455 1277.7,394.583 1277.86,394.583L1294.87,394.583C1295.02,394.583 1295.15,394.455 1295.15,394.299L1295.15,386.079C1295.15,385.795 1294.87,386.079 1295.15,386.079L1311.59,386.079C1311.87,386.079 1311.59,385.795 1311.59,386.079L1311.59,394.299C1311.59,394.455 1311.72,394.583 1311.87,394.583L1328.88,394.583C1329.04,394.583 1329.16,394.455 1329.16,394.299L1329.16,386.079C1329.16,385.795 1328.88,386.079 1329.16,386.079L1355.81,386.079C1355.97,386.079 1356.09,385.951 1356.09,385.795L1356.09,239.811C1356.09,239.655 1355.97,239.528 1355.81,239.528L1254.8,239.528C1249.88,239.528 1245.04,238.232 1240.77,235.769C1236.5,233.306 1232.96,229.762 1230.5,225.496C1228.03,221.23 1226.74,216.391 1226.74,211.465C1226.74,206.538 1228.03,201.699 1230.5,197.433C1232.96,193.167 1236.5,189.624 1240.77,187.16C1245.04,184.697 1249.88,183.402 1254.8,183.402L1355.81,183.402C1355.97,183.402 1356.09,183.274 1356.09,183.118L1356.09,37.134C1356.09,36.978 1355.97,36.85 1355.81,36.85L1329.16,36.85C1328.88,36.85 1329.16,37.134 1329.16,36.85L1329.16,28.63C1329.16,28.474 1329.04,28.346 1328.88,28.346L1311.87,28.346C1311.72,28.346 1311.59,28.474 1311.59,28.63L1311.59,36.85C1311.59,37.134 1311.87,36.85 1311.59,36.85L1295.15,36.85C1294.87,36.85 1295.15,37.134 1295.15,36.85L1295.15,28.63C1295.15,28.474 1295.02,28.346 1294.87,28.346L1277.86,28.346C1277.7,28.346 1277.58,28.474 1277.58,28.63L1277.58,36.85C1277.58,37.134 1277.86,36.85 1277.58,36.85L1261.13,36.85C1260.85,36.85 1261.13,37.134 1261.13,36.85L1261.13,28.63C1261.13,28.474 1261.01,28.346 1260.85,28.346L1243.84,28.346C1243.69,28.346 1243.56,28.474 1243.56,28.63L1243.56,36.85C1243.56,37.134 1243.84,36.85 1243.56,36.85L1227.12,36.85C1226.84,36.85 1227.12,37.134 1227.12,36.85L1227.12,28.63C1227.12,28.474 1226.99,28.346 1226.84,28.346L1209.83,28.346C1209.67,28.346 1209.54,28.474 1209.54,28.63L1209.54,36.85C1209.54,37.134 1209.83,36.85 1209.54,36.85L1193.1,36.85C1192.82,36.85 1193.1,37.134 1193.1,36.85L1193.1,28.63C1193.1,28.474 1192.98,28.346 1192.82,28.346L1175.81,28.346C1175.65,28.346 1175.53,28.474 1175.53,28.63L1175.53,36.85C1175.53,37.134 1175.81,36.85 1175.53,36.85L1159.09,36.85C1158.8,36.85 1159.09,37.134 1159.09,36.85L1159.09,28.63C1159.09,28.474 1158.96,28.346 1158.8,28.346L1141.8,28.346C1141.64,28.346 1141.51,28.474 1141.51,28.63L1141.51,36.85C1141.51,37.134 1141.8,36.85 1141.51,36.85L1114.87,36.85C1114.71,36.85 1114.58,36.978 1114.58,37.134L1114.58,66.614C1114.58,66.898 1114.87,66.614 1114.58,66.614L1106.36,66.614C1106.21,66.614 1106.08,66.742 1106.08,66.898L1106.08,83.906C1106.08,84.061 1106.21,84.189 1106.36,84.189L1114.58,84.189C1114.87,84.189 1114.58,83.906 1114.58,84.189L1114.58,100.63C1114.58,100.913 1114.87,100.63 1114.58,100.63L1106.36,100.63C1106.21,100.63 1106.08,100.757 1106.08,100.913L1106.08,117.921C1106.08,118.077 1106.21,118.205 1106.36,118.205L1114.58,118.205C1114.87,118.205 1114.58,117.921 1114.58,118.205L1114.58,134.646C1114.58,134.929 1114.87,134.646 1114.58,134.646L1106.36,134.646C1106.21,134.646 1106.08,134.773 1106.08,134.929L1106.08,151.937C1106.08,152.093 1106.21,152.22 1106.36,152.22L1114.58,152.22C1114.87,152.22 1114.58,151.937 1114.58,152.22L1114.58,168.661C1114.58,168.945 1114.87,168.661 1114.58,168.661L1106.36,168.661C1106.21,168.661 1106.08,168.789 1106.08,168.945L1106.08,185.953C1106.08,186.109 1106.21,186.236 1106.36,186.236L1114.58,186.236C1114.87,186.236 1114.58,185.953 1114.58,186.236L1114.58,202.677C1114.58,202.961 1114.87,202.677 1114.58,202.677L1106.36,202.677C1106.21,202.677 1106.08,202.805 1106.08,202.961L1106.08,219.969C1106.08,220.124 1106.21,220.252 1106.36,220.252L1114.58,220.252C1114.87,220.252 1114.58,219.969 1114.58,220.252L1114.58,236.693C1114.58,236.976 1114.87,236.693 1114.58,236.693L1106.36,236.693C1106.21,236.693 1106.08,236.82 1106.08,236.976L1106.08,253.984C1106.08,254.14 1106.21,254.268 1106.36,254.268L1114.58,254.268C1114.87,254.268 1114.58,253.984 1114.58,254.268L1114.58,270.709C1114.58,270.992 1114.87,270.709 1114.58,270.709L1106.36,270.709C1106.21,270.709 1106.08,270.836 1106.08,270.992L1106.08,288C1106.08,288.156 1106.21,288.283 1106.36,288.283L1114.58,288.283C1114.87,288.283 1114.58,288 1114.58,288.283L1114.58,304.724C1114.58,305.008 1114.87,304.724 1114.58,304.724L1106.36,304.724C1106.21,304.724 1106.08,304.852 1106.08,305.008L1106.08,322.016C1106.08,322.172 1106.21,322.299 1106.36,322.299L1114.58,322.299C1114.87,322.299 1114.58,322.016 1114.58,322.299L1114.58,338.74C1114.58,339.024 1114.87,338.74 1114.58,338.74L1106.36,338.74C1106.21,338.74 1106.08,338.868 1106.08,339.024L1106.08,356.031C1106.08,356.187 1106.21,356.315 1106.36,356.315L1114.58,356.315C1114.87,356.315 1114.58,356.031 1114.58,356.315L1114.58,385.795C1114.58,385.951 1114.71,386.079 1114.87,386.079" style="fill:none;fill-rule:nonzero;stroke:black;stroke-width:0.57px;"/>
        </g>
        <g transform="matrix(1.06805,0,0,1,-327.063,-4.77009)">
            <path d="M1114.87,386.079L1141.51,386.079C1141.8,386.079 1141.51,385.795 1141.51,386.079L1141.51,394.299C1141.51,394.455 1141.64,394.583 1141.8,394.583L1158.8,394.583C1158.96,394.583 1159.09,394.455 1159.09,394.299L1159.09,386.079C1159.09,385.795 1158.8,386.079 1159.09,386.079L1175.53,386.079C1175.81,386.079 1175.53,385.795 1175.53,386.079L1175.53,394.299C1175.53,394.455 1175.65,394.583 1175.81,394.583L1192.82,394.583C1192.98,394.583 1193.1,394.455 1193.1,394.299L1193.1,386.079C1193.1,385.795 1192.82,386.079 1193.1,386.079L1209.54,386.079C1209.83,386.079 1209.54,385.795 1209.54,386.079L1209.54,394.299C1209.54,394.455 1209.67,394.583 1209.83,394.583L1226.84,394.583C1226.99,394.583 1227.12,394.455 1227.12,394.299L1227.12,386.079C1227.12,385.795 1226.84,386.079 1227.12,386.079L1243.56,386.079C1243.84,386.079 1243.56,385.795 1243.56,386.079L1243.56,394.299C1243.56,394.455 1243.69,394.583 1243.84,394.583L1260.85,394.583C1261.01,394.583 1261.13,394.455 1261.13,394.299L1261.13,386.079C1261.13,385.795 1260.85,386.079 1261.13,386.079L1277.58,386.079C1277.86,386.079 1277.58,385.795 1277.58,386.079L1277.58,394.299C1277.58,394.455 1277.7,394.583 1277.86,394.583L1294.87,394.583C1295.02,394.583 1295.15,394.455 1295.15,394.299L1295.15,386.079C1295.15,385.795 1294.87,386.079 1295.15,386.079L1311.59,386.079C1311.87,386.079 1311.59,385.795 1311.59,386.079L1311.59,394.299C1311.59,394.455 1311.72,394.583 1311.87,394.583L1328.88,394.583C1329.04,394.583 1329.16,394.455 1329.16,394.299L1329.16,386.079C1329.16,385.795 1328.88,386.079 1329.16,386.079L1355.81,386.079C1355.97,386.079 1356.09,385.951 1356.09,385.795L1356.09,239.811C1356.09,239.655 1355.97,239.528 1355.81,239.528L1254.8,239.528C1249.88,239.528 1245.04,238.232 1240.77,235.769C1236.5,233.306 1232.96,229.762 1230.5,225.496C1228.03,221.23 1226.74,216.391 1226.74,211.465C1226.74,206.538 1228.03,201.699 1230.5,197.433C1232.96,193.167 1236.5,189.624 1240.77,187.16C1245.04,184.697 1249.88,183.402 1254.8,183.402L1355.81,183.402C1355.97,183.402 1356.09,183.274 1356.09,183.118L1356.09,37.134C1356.09,36.978 1355.97,36.85 1355.81,36.85L1329.16,36.85C1328.88,36.85 1329.16,37.134 1329.16,36.85L1329.16,28.63C1329.16,28.474 1329.04,28.346 1328.88,28.346L1311.87,28.346C1311.72,28.346 1311.59,28.474 1311.59,28.63L1311.59,36.85C1311.59,37.134 1311.87,36.85 1311.59,36.85L1295.15,36.85C1294.87,36.85 1295.15,37.134 1295.15,36.85L1295.15,28.63C1295.15,28.474 1295.02,28.346 1294.87,28.346L1277.86,28.346C1277.7,28.346 1277.58,28.474 1277.58,28.63L1277.58,36.85C1277.58,37.134 1277.86,36.85 1277.58,36.85L1261.13,36.85C1260.85,36.85 1261.13,37.134 1261.13,36.85L1261.13,28.63C1261.13,28.474 1261.01,28.346 1260.85,28.346L1243.84,28.346C1243.69,28.346 1243.56,28.474 1243.56,28.63L1243.56,36.85C1243.56,37.134 1243.84,36.85 1243.56,36.85L1227.12,36.85C1226.84,36.85 1227.12,37.134 1227.12,36.85L1227.12,28.63C1227.12,28.474 1226.99,28.346 1226.84,28.346L1209.83,28.346C1209.67,28.346 1209.54,28.474 1209.54,28.63L1209.54,36.85C1209.54,37.134 1209.83,36.85 1209.54,36.85L1193.1,36.85C1192.82,36.85 1193.1,37.134 1193.1,36.85L1193.1,28.63C1193.1,28.474 1192.98,28.346 1192.82,28.346L1175.81,28.346C1175.65,28.346 1175.53,28.474 1175.53,28.63L1175.53,36.85C1175.53,37.134 1175.81,36.85 1175.53,36.85L1159.09,36.85C1158.8,36.85 1159.09,37.134 1159.09,36.85L1159.09,28.63C1159.09,28.474 1158.96,28.346 1158.8,28.346L1141.8,28.346C1141.64,28.346 1141.51,28.474 1141.51,28.63L1141.51,36.85C1141.51,37.134 1141.8,36.85 1141.51,36.85L1114.87,36.85C1114.71,36.85 1114.58,36.978 1114.58,37.134L1114.58,66.614C1114.58,66.898 1114.87,66.614 1114.58,66.614L1106.36,66.614C1106.21,66.614 1106.08,66.742 1106.08,66.898L1106.08,83.906C1106.08,84.061 1106.21,84.189 1106.36,84.189L1114.58,84.189C1114.87,84.189 1114.58,83.906 1114.58,84.189L1114.58,100.63C1114.58,100.913 1114.87,100.63 1114.58,100.63L1106.36,100.63C1106.21,100.63 1106.08,100.757 1106.08,100.913L1106.08,117.921C1106.08,118.077 1106.21,118.205 1106.36,118.205L1114.58,118.205C1114.87,118.205 1114.58,117.921 1114.58,118.205L1114.58,134.646C1114.58,134.929 1114.87,134.646 1114.58,134.646L1106.36,134.646C1106.21,134.646 1106.08,134.773 1106.08,134.929L1106.08,151.937C1106.08,152.093 1106.21,152.22 1106.36,152.22L1114.58,152.22C1114.87,152.22 1114.58,151.937 1114.58,152.22L1114.58,168.661C1114.58,168.945 1114.87,168.661 1114.58,168.661L1106.36,168.661C1106.21,168.661 1106.08,168.789 1106.08,168.945L1106.08,185.953C1106.08,186.109 1106.21,186.236 1106.36,186.236L1114.58,186.236C1114.87,186.236 1114.58,185.953 1114.58,186.236L1114.58,202.677C1114.58,202.961 1114.87,202.677 1114.58,202.677L1106.36,202.677C1106.21,202.677 1106.08,202.805 1106.08,202.961L1106.08,219.969C1106.08,220.124 1106.21,220.252 1106.36,220.252L1114.58,220.252C1114.87,220.252 1114.58,219.969 1114.58,220.252L1114.58,236.693C1114.58,236.976 1114.87,236.693 1114.58,236.693L1106.36,236.693C1106.21,236.693 1106.08,236.82 1106.08,236.976L1106.08,253.984C1106.08,254.14 1106.21,254.268 1106.36,254.268L1114.58,254.268C1114.87,254.268 1114.58,253.984 1114.58,254.268L1114.58,270.709C1114.58,270.992 1114.87,270.709 1114.58,270.709L1106.36,270.709C1106.21,270.709 1106.08,270.836 1106.08,270.992L1106.08,288C1106.08,288.156 1106.21,288.283 1106.36,288.283L1114.58,288.283C1114.87,288.283 1114.58,288 1114.58,288.283L1114.58,304.724C1114.58,305.008 1114.87,304.724 1114.58,304.724L1106.36,304.724C1106.21,304.724 1106.08,304.852 1106.08,305.008L1106.08,322.016C1106.08,322.172 1106.21,322.299 1106.36,322.299L1114.58,322.299C1114.87,322.299 1114.58,322.016 1114.58,322.299L1114.58,338.74C1114.58,339.024 1114.87,338.74 1114.58,338.74L1106.36,338.74C1106.21,338.74 1106.08,338.868 1106.08,339.024L1106.08,356.031C1106.08,356.187 1106.21,356.315 1106.36,356.315L1114.58,356.315C1114.87,356.315 1114.58,356.031 1114.58,356.315L1114.58,385.795C1114.58,385.951 1114.71,386.079 1114.87,386.079" style="fill:none;fill-rule:nonzero;stroke:black;stroke-width:0.57px;"/>
        </g>
        <g transform="matrix(1.06805,0,0,1,-46.8271,-5.57306)">
            <path d="M1114.87,386.079L1141.51,386.079C1141.8,386.079 1141.51,385.795 1141.51,386.079L1141.51,394.299C1141.51,394.455 1141.64,394.583 1141.8,394.583L1158.8,394.583C1158.96,394.583 1159.09,394.455 1159.09,394.299L1159.09,386.079C1159.09,385.795 1158.8,386.079 1159.09,386.079L1175.53,386.079C1175.81,386.079 1175.53,385.795 1175.53,386.079L1175.53,394.299C1175.53,394.455 1175.65,394.583 1175.81,394.583L1192.82,394.583C1192.98,394.583 1193.1,394.455 1193.1,394.299L1193.1,386.079C1193.1,385.795 1192.82,386.079 1193.1,386.079L1209.54,386.079C1209.83,386.079 1209.54,385.795 1209.54,386.079L1209.54,394.299C1209.54,394.455 1209.67,394.583 1209.83,394.583L1226.84,394.583C1226.99,394.583 1227.12,394.455 1227.12,394.299L1227.12,386.079C1227.12,385.795 1226.84,386.079 1227.12,386.079L1243.56,386.079C1243.84,386.079 1243.56,385.795 1243.56,386.079L1243.56,394.299C1243.56,394.455 1243.69,394.583 1243.84,394.583L1260.85,394.583C1261.01,394.583 1261.13,394.455 1261.13,394.299L1261.13,386.079C1261.13,385.795 1260.85,386.079 1261.13,386.079L1277.58,386.079C1277.86,386.079 1277.58,385.795 1277.58,386.079L1277.58,394.299C1277.58,394.455 1277.7,394.583 1277.86,394.583L1294.87,394.583C1295.02,394.583 1295.15,394.455 1295.15,394.299L1295.15,386.079C1295.15,385.795 1294.87,386.079 1295.15,386.079L1311.59,386.079C1311.87,386.079 1311.59,385.795 1311.59,386.079L1311.59,394.299C1311.59,394.455 1311.72,394.583 1311.87,394.583L1328.88,394.583C1329.04,394.583 1329.16,394.455 1329.16,394.299L1329.16,386.079C1329.16,385.795 1328.88,386.079 1329.16,386.079L1355.81,386.079C1355.97,386.079 1356.09,385.951 1356.09,385.795L1356.09,239.811C1356.09,239.655 1355.97,239.528 1355.81,239.528L1254.8,239.528C1249.88,239.528 1245.04,238.232 1240.77,235.769C1236.5,233.306 1232.96,229.762 1230.5,225.496C1228.03,221.23 1226.74,216.391 1226.74,211.465C1226.74,206.538 1228.03,201.699 1230.5,197.433C1232.96,193.167 1236.5,189.624 1240.77,187.16C1245.04,184.697 1249.88,183.402 1254.8,183.402L1355.81,183.402C1355.97,183.402 1356.09,183.274 1356.09,183.118L1356.09,37.134C1356.09,36.978 1355.97,36.85 1355.81,36.85L1329.16,36.85C1328.88,36.85 1329.16,37.134 1329.16,36.85L1329.16,28.63C1329.16,28.474 1329.04,28.346 1328.88,28.346L1311.87,28.346C1311.72,28.346 1311.59,28.474 1311.59,28.63L1311.59,36.85C1311.59,37.134 1311.87,36.85 1311.59,36.85L1295.15,36.85C1294.87,36.85 1295.15,37.134 1295.15,36.85L1295.15,28.63C1295.15,28.474 1295.02,28.346 1294.87,28.346L1277.86,28.346C1277.7,28.346 1277.58,28.474 1277.58,28.63L1277.58,36.85C1277.58,37.134 1277.86,36.85 1277.58,36.85L1261.13,36.85C1260.85,36.85 1261.13,37.134 1261.13,36.85L1261.13,28.63C1261.13,28.474 1261.01,28.346 1260.85,28.346L1243.84,28.346C1243.69,28.346 1243.56,28.474 1243.56,28.63L1243.56,36.85C1243.56,37.134 1243.84,36.85 1243.56,36.85L1227.12,36.85C1226.84,36.85 1227.12,37.134 1227.12,36.85L1227.12,28.63C1227.12,28.474 1226.99,28.346 1226.84,28.346L1209.83,28.346C1209.67,28.346 1209.54,28.474 1209.54,28.63L1209.54,36.85C1209.54,37.134 1209.83,36.85 1209.54,36.85L1193.1,36.85C1192.82,36.85 1193.1,37.134 1193.1,36.85L1193.1,28.63C1193.1,28.474 1192.98,28.346 1192.82,28.346L1175.81,28.346C1175.65,28.346 1175.53,28.474 1175.53,28.63L1175.53,36.85C1175.53,37.134 1175.81,36.85 1175.53,36.85L1159.09,36.85C1158.8,36.85 1159.09,37.134 1159.09,36.85L1159.09,28.63C1159.09,28.474 1158.96,28.346 1158.8,28.346L1141.8,28.346C1141.64,28.346 1141.51,28.474 1141.51,28.63L1141.51,36.85C1141.51,37.134 1141.8,36.85 1141.51,36.85L1114.87,36.85C1114.71,36.85 1114.58,36.978 1114.58,37.134L1114.58,66.614C1114.58,66.898 1114.87,66.614 1114.58,66.614L1106.36,66.614C1106.21,66.614 1106.08,66.742 1106.08,66.898L1106.08,83.906C1106.08,84.061 1106.21,84.189 1106.36,84.189L1114.58,84.189C1114.87,84.189 1114.58,83.906 1114.58,84.189L1114.58,100.63C1114.58,100.913 1114.87,100.63 1114.58,100.63L1106.36,100.63C1106.21,100.63 1106.08,100.757 1106.08,100.913L1106.08,117.921C1106.08,118.077 1106.21,118.205 1106.36,118.205L1114.58,118.205C1114.87,118.205 1114.58,117.921 1114.58,118.205L1114.58,134.646C1114.58,134.929 1114.87,134.646 1114.58,134.646L1106.36,134.646C1106.21,134.646 1106.08,134.773 1106.08,134.929L1106.08,151.937C1106.08,152.093 1106.21,152.22 1106.36,152.22L1114.58,152.22C1114.87,152.22 1114.58,151.937 1114.58,152.22L1114.58,168.661C1114.58,168.945 1114.87,168.661 1114.58,168.661L1106.36,168.661C1106.21,168.661 1106.08,168.789 1106.08,168.945L1106.08,185.953C1106.08,186.109 1106.21,186.236 1106.36,186.236L1114.58,186.236C1114.87,186.236 1114.58,185.953 1114.58,186.236L1114.58,202.677C1114.58,202.961 1114.87,202.677 1114.58,202.677L1106.36,202.677C1106.21,202.677 1106.08,202.805 1106.08,202.961L1106.08,219.969C1106.08,220.124 1106.21,220.252 1106.36,220.252L1114.58,220.252C1114.87,220.252 1114.58,219.969 1114.58,220.252L1114.58,236.693C1114.58,236.976 1114.87,236.693 1114.58,236.693L1106.36,236.693C1106.21,236.693 1106.08,236.82 1106.08,236.976L1106.08,253.984C1106.08,254.14 1106.21,254.268 1106.36,254.268L1114.58,254.268C1114.87,254.268 1114.58,253.984 1114.58,254.268L1114.58,270.709C1114.58,270.992 1114.87,270.709 1114.58,270.709L1106.36,270.709C1106.21,270.709 1106.08,270.836 1106.08,270.992L1106.08,288C1106.08,288.156 1106.21,288.283 1106.36,288.283L1114.58,288.283C1114.87,288.283 1114.58,288 1114.58,288.283L1114.58,304.724C1114.58,305.008 1114.87,304.724 1114.58,304.724L1106.36,304.724C1106.21,304.724 1106.08,304.852 1106.08,305.008L1106.08,322.016C1106.08,322.172 1106.21,322.299 1106.36,322.299L1114.58,322.299C1114.87,322.299 1114.58,322.016 1114.58,322.299L1114.58,338.74C1114.58,339.024 1114.87,338.74 1114.58,338.74L1106.36,338.74C1106.21,338.74 1106.08,338.868 1106.08,339.024L1106.08,356.031C1106.08,356.187 1106.21,356.315 1106.36,356.315L1114.58,356.315C1114.87,356.315 1114.58,356.031 1114.58,356.315L1114.58,385.795C1114.58,385.951 1114.71,386.079 1114.87,386.079" style="fill:none;fill-rule:nonzero;stroke:black;stroke-width:0.57px;"/>
        </g>
    </g>
</svg>
