<?xml version='1.0' encoding='us-ascii'?>
<svg height="326.23mm" viewBox="0.0 0.0 696.37 326.23" width="696.37mm" xmlns="http://www.w3.org/2000/svg" xmlns:cc="http://creativecommons.org/ns#" xmlns:dc="http://purl.org/dc/elements/1.1/" xmlns:inkscape="http://www.inkscape.org/namespaces/inkscape" xmlns:rdf="http://www.w3.org/1999/02/22-rdf-syntax-ns#" xmlns:svg="http://www.w3.org/2000/svg" xmlns:xlink="http://www.w3.org/1999/xlink">
<!--
PhoneHolder - 
    Smartphone desk holder
    



    This phone stand holds your phone between two tabs, with access to its
    bottom, in order to connect a charger, headphones, and also not to obstruct
    the mic.

    Default values are currently based on Galaxy S7.



Created with Boxes.py (https://festi.info/boxes.py)
Creation date: 2021-07-29 17:38:24
Command line (remove spaces between dashes): boxes PhoneHolder - -FingerJoint_angle=90.0 - -FingerJoint_style=rectangular - -FingerJoint_surroundingspaces=2.0 - -FingerJoint_edge_width=1.0 - -FingerJoint_finger=2.0 - -FingerJoint_play=0.0 - -FingerJoint_space=2.0 - -FingerJoint_width=1.0 - -phone_height=250 - -phone_width=173 - -phone_depth=12 - -angle=25 - -bottom_margin=40 - -tab_size=100 - -bottom_support_spacing=60 - -thickness=3.0 - -format=svg - -tabs=0.0 - -debug=0 - -labels=0 - -labels=1 - -reference=100 - -burn=0.1
Url: http://www.festi.info/PhoneHolder?FingerJoint_angle=90.0&FingerJoint_style=rectangular&FingerJoint_surroundingspaces=2.0&FingerJoint_edge_width=1.0&FingerJoint_finger=2.0&FingerJoint_play=0.0&FingerJoint_space=2.0&FingerJoint_width=1.0&phone_height=250&phone_width=173&phone_depth=12&angle=25&bottom_margin=40&tab_size=100&bottom_support_spacing=60&thickness=3.0&format=svg&tabs=0.0&debug=0&labels=0&labels=1&reference=100&burn=0.1&render=1
SettingsUrl: http://www.festi.info/PhoneHolder?FingerJoint_angle=90.0&FingerJoint_style=rectangular&FingerJoint_surroundingspaces=2.0&FingerJoint_edge_width=1.0&FingerJoint_finger=2.0&FingerJoint_play=0.0&FingerJoint_space=2.0&FingerJoint_width=1.0&phone_height=250&phone_width=173&phone_depth=12&angle=25&bottom_margin=40&tab_size=100&bottom_support_spacing=60&thickness=3.0&format=svg&tabs=0.0&debug=0&labels=0&labels=1&reference=100&burn=0.1
-->
<title>PhoneHolder</title>
<metadata>
<rdf:RDF><cc:Work>
<dc:title>Misc - PhoneHolder</dc:title>
<dc:date>2021-07-29 17:38:24</dc:date>
<dc:source>http://www.festi.info/PhoneHolder?FingerJoint_angle=90.0&amp;FingerJoint_style=rectangular&amp;FingerJoint_surroundingspaces=2.0&amp;FingerJoint_edge_width=1.0&amp;FingerJoint_finger=2.0&amp;FingerJoint_play=0.0&amp;FingerJoint_space=2.0&amp;FingerJoint_width=1.0&amp;phone_height=250&amp;phone_width=173&amp;phone_depth=12&amp;angle=25&amp;bottom_margin=40&amp;tab_size=100&amp;bottom_support_spacing=60&amp;thickness=3.0&amp;format=svg&amp;tabs=0.0&amp;debug=0&amp;labels=0&amp;labels=1&amp;reference=100&amp;burn=0.1&amp;render=1</dc:source>
<dc:description>
    Smartphone desk holder
    


    This phone stand holds your phone between two tabs, with access to its
    bottom, in order to connect a charger, headphones, and also not to obstruct
    the mic.

    Default values are currently based on Galaxy S7.


Created with Boxes.py (https://festi.info/boxes.py)
Command line: boxes PhoneHolder --FingerJoint_angle=90.0 --FingerJoint_style=rectangular --FingerJoint_surroundingspaces=2.0 --FingerJoint_edge_width=1.0 --FingerJoint_finger=2.0 --FingerJoint_play=0.0 --FingerJoint_space=2.0 --FingerJoint_width=1.0 --phone_height=250 --phone_width=173 --phone_depth=12 --angle=25 --bottom_margin=40 --tab_size=100 --bottom_support_spacing=60 --thickness=3.0 --format=svg --tabs=0.0 --debug=0 --labels=0 --labels=1 --reference=100 --burn=0.1
Url: http://www.festi.info/PhoneHolder?FingerJoint_angle=90.0&amp;FingerJoint_style=rectangular&amp;FingerJoint_surroundingspaces=2.0&amp;FingerJoint_edge_width=1.0&amp;FingerJoint_finger=2.0&amp;FingerJoint_play=0.0&amp;FingerJoint_space=2.0&amp;FingerJoint_width=1.0&amp;phone_height=250&amp;phone_width=173&amp;phone_depth=12&amp;angle=25&amp;bottom_margin=40&amp;tab_size=100&amp;bottom_support_spacing=60&amp;thickness=3.0&amp;format=svg&amp;tabs=0.0&amp;debug=0&amp;labels=0&amp;labels=1&amp;reference=100&amp;burn=0.1&amp;render=1
SettingsUrl: http://www.festi.info/PhoneHolder?FingerJoint_angle=90.0&amp;FingerJoint_style=rectangular&amp;FingerJoint_surroundingspaces=2.0&amp;FingerJoint_edge_width=1.0&amp;FingerJoint_finger=2.0&amp;FingerJoint_play=0.0&amp;FingerJoint_space=2.0&amp;FingerJoint_width=1.0&amp;phone_height=250&amp;phone_width=173&amp;phone_depth=12&amp;angle=25&amp;bottom_margin=40&amp;tab_size=100&amp;bottom_support_spacing=60&amp;thickness=3.0&amp;format=svg&amp;tabs=0.0&amp;debug=0&amp;labels=0&amp;labels=1&amp;reference=100&amp;burn=0.1
</dc:description>
</cc:Work></rdf:RDF></metadata>
<g id="p-0" style="fill:none;stroke-linecap:round;stroke-linejoin:round;">
  <path d="M 10.100 316.229 H 110.100 V 306.229 H 10.100 V 316.229 Z" stroke="rgb(0,0,0)" stroke-width="0.20" />
  <text alignment-baseline="hanging" font-size="10px" style="font-family: sans-serif ; font-weight: normal; font-style: normal; fill: rgb(0,0,0)" text-anchor="middle" transform="matrix( 1.000 0.000 0.000 1.000 60.100 306.229 )">100mm</text><text alignment-baseline="hanging" font-size="4px" style="font-family: sans-serif ; font-weight: normal; font-style: normal; fill: rgb(255,0,0)" text-anchor="middle" transform="matrix( 1.000 0.000 0.000 1.000 15.100 309.229 )" />
</g>
<g id="p-1" style="fill:none;stroke-linecap:round;stroke-linejoin:round;">
  <path d="M 69.500 250.429 V 253.329 C 69.500 253.429 69.600 253.329 69.500 253.329 H 66.700 C 66.600 253.329 66.700 253.429 66.700 253.329 V 247.529 C 66.700 247.429 66.600 247.529 66.700 247.529 H 69.500 C 69.600 247.529 69.500 247.429 69.500 247.529 V 250.429 Z" stroke="rgb(0,0,255)" stroke-width="0.20" />
  <path d="M 69.500 238.429 V 241.329 C 69.500 241.429 69.600 241.329 69.500 241.329 H 66.700 C 66.600 241.329 66.700 241.429 66.700 241.329 V 235.529 C 66.700 235.429 66.600 235.529 66.700 235.529 H 69.500 C 69.600 235.529 69.500 235.429 69.500 235.529 V 238.429 Z" stroke="rgb(0,0,255)" stroke-width="0.20" />
  <path d="M 69.500 226.429 V 229.329 C 69.500 229.429 69.600 229.329 69.500 229.329 H 66.700 C 66.600 229.329 66.700 229.429 66.700 229.329 V 223.529 C 66.700 223.429 66.600 223.529 66.700 223.529 H 69.500 C 69.600 223.529 69.500 223.429 69.500 223.529 V 226.429 Z" stroke="rgb(0,0,255)" stroke-width="0.20" />
  <path d="M 69.500 214.429 V 217.329 C 69.500 217.429 69.600 217.329 69.500 217.329 H 66.700 C 66.600 217.329 66.700 217.429 66.700 217.329 V 211.529 C 66.700 211.429 66.600 211.529 66.700 211.529 H 69.500 C 69.600 211.529 69.500 211.429 69.500 211.529 V 214.429 Z" stroke="rgb(0,0,255)" stroke-width="0.20" />
  <path d="M 69.500 202.429 V 205.329 C 69.500 205.429 69.600 205.329 69.500 205.329 H 66.700 C 66.600 205.329 66.700 205.429 66.700 205.329 V 199.529 C 66.700 199.429 66.600 199.529 66.700 199.529 H 69.500 C 69.600 199.529 69.500 199.429 69.500 199.529 V 202.429 Z" stroke="rgb(0,0,255)" stroke-width="0.20" />
  <path d="M 69.500 190.429 V 193.329 C 69.500 193.429 69.600 193.329 69.500 193.329 H 66.700 C 66.600 193.329 66.700 193.429 66.700 193.329 V 187.529 C 66.700 187.429 66.600 187.529 66.700 187.529 H 69.500 C 69.600 187.529 69.500 187.429 69.500 187.529 V 190.429 Z" stroke="rgb(0,0,255)" stroke-width="0.20" />
  <path d="M 69.500 178.429 V 181.329 C 69.500 181.429 69.600 181.329 69.500 181.329 H 66.700 C 66.600 181.329 66.700 181.429 66.700 181.329 V 175.529 C 66.700 175.429 66.600 175.529 66.700 175.529 H 69.500 C 69.600 175.529 69.500 175.429 69.500 175.529 V 178.429 Z" stroke="rgb(0,0,255)" stroke-width="0.20" />
  <path d="M 132.500 250.429 V 253.329 C 132.500 253.429 132.600 253.329 132.500 253.329 H 129.700 C 129.600 253.329 129.700 253.429 129.700 253.329 V 247.529 C 129.700 247.429 129.600 247.529 129.700 247.529 H 132.500 C 132.600 247.529 132.500 247.429 132.500 247.529 V 250.429 Z" stroke="rgb(0,0,255)" stroke-width="0.20" />
  <path d="M 132.500 238.429 V 241.329 C 132.500 241.429 132.600 241.329 132.500 241.329 H 129.700 C 129.600 241.329 129.700 241.429 129.700 241.329 V 235.529 C 129.700 235.429 129.600 235.529 129.700 235.529 H 132.500 C 132.600 235.529 132.500 235.429 132.500 235.529 V 238.429 Z" stroke="rgb(0,0,255)" stroke-width="0.20" />
  <path d="M 132.500 226.429 V 229.329 C 132.500 229.429 132.600 229.329 132.500 229.329 H 129.700 C 129.600 229.329 129.700 229.429 129.700 229.329 V 223.529 C 129.700 223.429 129.600 223.529 129.700 223.529 H 132.500 C 132.600 223.529 132.500 223.429 132.500 223.529 V 226.429 Z" stroke="rgb(0,0,255)" stroke-width="0.20" />
  <path d="M 132.500 214.429 V 217.329 C 132.500 217.429 132.600 217.329 132.500 217.329 H 129.700 C 129.600 217.329 129.700 217.429 129.700 217.329 V 211.529 C 129.700 211.429 129.600 211.529 129.700 211.529 H 132.500 C 132.600 211.529 132.500 211.429 132.500 211.529 V 214.429 Z" stroke="rgb(0,0,255)" stroke-width="0.20" />
  <path d="M 132.500 202.429 V 205.329 C 132.500 205.429 132.600 205.329 132.500 205.329 H 129.700 C 129.600 205.329 129.700 205.429 129.700 205.329 V 199.529 C 129.700 199.429 129.600 199.529 129.700 199.529 H 132.500 C 132.600 199.529 132.500 199.429 132.500 199.529 V 202.429 Z" stroke="rgb(0,0,255)" stroke-width="0.20" />
  <path d="M 132.500 190.429 V 193.329 C 132.500 193.429 132.600 193.329 132.500 193.329 H 129.700 C 129.600 193.329 129.700 193.429 129.700 193.329 V 187.529 C 129.700 187.429 129.600 187.529 129.700 187.529 H 132.500 C 132.600 187.529 132.500 187.429 132.500 187.529 V 190.429 Z" stroke="rgb(0,0,255)" stroke-width="0.20" />
  <path d="M 132.500 178.429 V 181.329 C 132.500 181.429 132.600 181.329 132.500 181.329 H 129.700 C 129.600 181.329 129.700 181.429 129.700 181.329 V 175.529 C 129.700 175.429 129.600 175.529 129.700 175.529 H 132.500 C 132.600 175.529 132.500 175.429 132.500 175.529 V 178.429 Z" stroke="rgb(0,0,255)" stroke-width="0.20" />
  <text alignment-baseline="hanging" font-size="4px" style="font-family: sans-serif ; font-weight: normal; font-style: normal; fill: rgb(255,0,0)" text-anchor="middle" transform="matrix( 1.000 0.000 0.000 1.000 99.600 157.529 )" /><path d="M 13.100 304.529 H 66.600 C 66.655 304.529 66.700 304.484 66.700 304.429 V 264.529 C 66.700 264.429 66.600 264.529 66.700 264.529 H 69.500 C 69.600 264.529 69.500 264.429 69.500 264.529 V 304.429 C 69.500 304.484 69.545 304.529 69.600 304.529 H 97.100 C 97.155 304.529 97.200 304.484 97.200 304.429 V 299.429 C 97.200 299.008 97.311 298.594 97.522 298.229 C 97.732 297.864 98.035 297.561 98.400 297.351 C 98.765 297.140 99.179 297.029 99.600 297.029 C 100.021 297.029 100.435 297.140 100.800 297.351 C 101.165 297.561 101.468 297.864 101.678 298.229 C 101.889 298.594 102.000 299.008 102.000 299.429 V 304.429 C 102.000 304.484 102.045 304.529 102.100 304.529 H 129.600 C 129.655 304.529 129.700 304.484 129.700 304.429 V 264.529 C 129.700 264.429 129.600 264.529 129.700 264.529 H 132.500 C 132.600 264.529 132.500 264.429 132.500 264.529 V 304.429 C 132.500 304.484 132.545 304.529 132.600 304.529 H 186.100 H 189.100 C 189.155 304.529 189.200 304.484 189.200 304.429 V 293.429 C 189.200 293.374 189.155 293.329 189.100 293.329 H 186.200 C 186.100 293.329 186.200 293.429 186.200 293.329 V 287.529 C 186.200 287.429 186.100 287.529 186.200 287.529 H 189.100 C 189.155 287.529 189.200 287.484 189.200 287.429 V 281.429 C 189.200 281.374 189.155 281.329 189.100 281.329 H 186.200 C 186.100 281.329 186.200 281.429 186.200 281.329 V 275.529 C 186.200 275.429 186.100 275.529 186.200 275.529 H 189.100 C 189.155 275.529 189.200 275.484 189.200 275.429 V 264.429 C 189.200 264.374 189.155 264.329 189.100 264.329 H 186.200 C 186.100 264.329 186.200 264.429 186.200 264.329 V 253.529 C 186.200 253.429 186.100 253.529 186.200 253.529 H 189.100 C 189.155 253.529 189.200 253.484 189.200 253.429 V 247.429 C 189.200 247.374 189.155 247.329 189.100 247.329 H 186.200 C 186.100 247.329 186.200 247.429 186.200 247.329 V 241.529 C 186.200 241.429 186.100 241.529 186.200 241.529 H 189.100 C 189.155 241.529 189.200 241.484 189.200 241.429 V 235.429 C 189.200 235.374 189.155 235.329 189.100 235.329 H 186.200 C 186.100 235.329 186.200 235.429 186.200 235.329 V 229.529 C 186.200 229.429 186.100 229.529 186.200 229.529 H 189.100 C 189.155 229.529 189.200 229.484 189.200 229.429 V 223.429 C 189.200 223.374 189.155 223.329 189.100 223.329 H 186.200 C 186.100 223.329 186.200 223.429 186.200 223.329 V 217.529 C 186.200 217.429 186.100 217.529 186.200 217.529 H 189.100 C 189.155 217.529 189.200 217.484 189.200 217.429 V 211.429 C 189.200 211.374 189.155 211.329 189.100 211.329 H 186.200 C 186.100 211.329 186.200 211.429 186.200 211.329 V 205.529 C 186.200 205.429 186.100 205.529 186.200 205.529 H 189.100 C 189.155 205.529 189.200 205.484 189.200 205.429 V 199.429 C 189.200 199.374 189.155 199.329 189.100 199.329 H 186.200 C 186.100 199.329 186.200 199.429 186.200 199.329 V 193.529 C 186.200 193.429 186.100 193.529 186.200 193.529 H 189.100 C 189.155 193.529 189.200 193.484 189.200 193.429 V 187.429 C 189.200 187.374 189.155 187.329 189.100 187.329 H 186.200 C 186.100 187.329 186.200 187.429 186.200 187.329 V 181.529 C 186.200 181.429 186.100 181.529 186.200 181.529 H 189.100 C 189.155 181.529 189.200 181.484 189.200 181.429 V 175.429 C 189.200 175.374 189.155 175.329 189.100 175.329 H 186.200 C 186.100 175.329 186.200 175.429 186.200 175.329 V 164.529 C 186.200 164.429 186.100 164.529 186.200 164.529 H 189.100 C 189.155 164.529 189.200 164.484 189.200 164.429 V 158.429 C 189.200 158.374 189.155 158.329 189.100 158.329 H 186.200 C 186.100 158.329 186.200 158.429 186.200 158.329 V 152.529 C 186.200 152.429 186.100 152.529 186.200 152.529 H 189.100 C 189.155 152.529 189.200 152.484 189.200 152.429 V 146.429 C 189.200 146.374 189.155 146.329 189.100 146.329 H 186.200 C 186.100 146.329 186.200 146.429 186.200 146.329 V 140.529 C 186.200 140.429 186.100 140.529 186.200 140.529 H 189.100 C 189.155 140.529 189.200 140.484 189.200 140.429 V 134.429 C 189.200 134.374 189.155 134.329 189.100 134.329 H 186.200 C 186.100 134.329 186.200 134.429 186.200 134.329 V 128.529 C 186.200 128.429 186.100 128.529 186.200 128.529 H 189.100 C 189.155 128.529 189.200 128.484 189.200 128.429 V 122.429 C 189.200 122.374 189.155 122.329 189.100 122.329 H 186.200 C 186.100 122.329 186.200 122.429 186.200 122.329 V 116.529 C 186.200 116.429 186.100 116.529 186.200 116.529 H 189.100 C 189.155 116.529 189.200 116.484 189.200 116.429 V 110.429 C 189.200 110.374 189.155 110.329 189.100 110.329 H 186.200 C 186.100 110.329 186.200 110.429 186.200 110.329 V 104.529 C 186.200 104.429 186.100 104.529 186.200 104.529 H 189.100 C 189.155 104.529 189.200 104.484 189.200 104.429 V 98.429 C 189.200 98.374 189.155 98.329 189.100 98.329 H 186.200 C 186.100 98.329 186.200 98.429 186.200 98.329 V 92.529 C 186.200 92.429 186.100 92.529 186.200 92.529 H 189.100 C 189.155 92.529 189.200 92.484 189.200 92.429 V 86.429 C 189.200 86.374 189.155 86.329 189.100 86.329 H 186.200 C 186.100 86.329 186.200 86.429 186.200 86.329 V 80.529 C 186.200 80.429 186.100 80.529 186.200 80.529 H 189.100 C 189.155 80.529 189.200 80.484 189.200 80.429 V 74.429 C 189.200 74.374 189.155 74.329 189.100 74.329 H 186.200 C 186.100 74.329 186.200 74.429 186.200 74.329 V 68.529 C 186.200 68.429 186.100 68.529 186.200 68.529 H 189.100 C 189.155 68.529 189.200 68.484 189.200 68.429 V 62.429 C 189.200 62.374 189.155 62.329 189.100 62.329 H 186.200 C 186.100 62.329 186.200 62.429 186.200 62.329 V 56.529 C 186.200 56.429 186.100 56.529 186.200 56.529 H 189.100 C 189.155 56.529 189.200 56.484 189.200 56.429 V 50.429 C 189.200 50.374 189.155 50.329 189.100 50.329 H 186.200 C 186.100 50.329 186.200 50.429 186.200 50.329 V 44.529 C 186.200 44.429 186.100 44.529 186.200 44.529 H 189.100 C 189.155 44.529 189.200 44.484 189.200 44.429 V 38.429 C 189.200 38.374 189.155 38.329 189.100 38.329 H 186.200 C 186.100 38.329 186.200 38.429 186.200 38.329 V 32.529 C 186.200 32.429 186.100 32.529 186.200 32.529 H 189.100 C 189.155 32.529 189.200 32.484 189.200 32.429 V 26.429 C 189.200 26.374 189.155 26.329 189.100 26.329 H 186.200 C 186.100 26.329 186.200 26.429 186.200 26.329 V 20.529 C 186.200 20.429 186.100 20.529 186.200 20.529 H 189.100 C 189.155 20.529 189.200 20.484 189.200 20.429 V 14.429 C 189.200 14.374 189.155 14.329 189.100 14.329 H 186.100 H 13.100 H 10.100 C 10.045 14.329 10.000 14.374 10.000 14.429 V 20.429 C 10.000 20.484 10.045 20.529 10.100 20.529 H 13.000 C 13.100 20.529 13.000 20.429 13.000 20.529 V 26.329 C 13.000 26.429 13.100 26.329 13.000 26.329 H 10.100 C 10.045 26.329 10.000 26.374 10.000 26.429 V 32.429 C 10.000 32.484 10.045 32.529 10.100 32.529 H 13.000 C 13.100 32.529 13.000 32.429 13.000 32.529 V 38.329 C 13.000 38.429 13.100 38.329 13.000 38.329 H 10.100 C 10.045 38.329 10.000 38.374 10.000 38.429 V 44.429 C 10.000 44.484 10.045 44.529 10.100 44.529 H 13.000 C 13.100 44.529 13.000 44.429 13.000 44.529 V 50.329 C 13.000 50.429 13.100 50.329 13.000 50.329 H 10.100 C 10.045 50.329 10.000 50.374 10.000 50.429 V 56.429 C 10.000 56.484 10.045 56.529 10.100 56.529 H 13.000 C 13.100 56.529 13.000 56.429 13.000 56.529 V 62.329 C 13.000 62.429 13.100 62.329 13.000 62.329 H 10.100 C 10.045 62.329 10.000 62.374 10.000 62.429 V 68.429 C 10.000 68.484 10.045 68.529 10.100 68.529 H 13.000 C 13.100 68.529 13.000 68.429 13.000 68.529 V 74.329 C 13.000 74.429 13.100 74.329 13.000 74.329 H 10.100 C 10.045 74.329 10.000 74.374 10.000 74.429 V 80.429 C 10.000 80.484 10.045 80.529 10.100 80.529 H 13.000 C 13.100 80.529 13.000 80.429 13.000 80.529 V 86.329 C 13.000 86.429 13.100 86.329 13.000 86.329 H 10.100 C 10.045 86.329 10.000 86.374 10.000 86.429 V 92.429 C 10.000 92.484 10.045 92.529 10.100 92.529 H 13.000 C 13.100 92.529 13.000 92.429 13.000 92.529 V 98.329 C 13.000 98.429 13.100 98.329 13.000 98.329 H 10.100 C 10.045 98.329 10.000 98.374 10.000 98.429 V 104.429 C 10.000 104.484 10.045 104.529 10.100 104.529 H 13.000 C 13.100 104.529 13.000 104.429 13.000 104.529 V 110.329 C 13.000 110.429 13.100 110.329 13.000 110.329 H 10.100 C 10.045 110.329 10.000 110.374 10.000 110.429 V 116.429 C 10.000 116.484 10.045 116.529 10.100 116.529 H 13.000 C 13.100 116.529 13.000 116.429 13.000 116.529 V 122.329 C 13.000 122.429 13.100 122.329 13.000 122.329 H 10.100 C 10.045 122.329 10.000 122.374 10.000 122.429 V 128.429 C 10.000 128.484 10.045 128.529 10.100 128.529 H 13.000 C 13.100 128.529 13.000 128.429 13.000 128.529 V 134.329 C 13.000 134.429 13.100 134.329 13.000 134.329 H 10.100 C 10.045 134.329 10.000 134.374 10.000 134.429 V 140.429 C 10.000 140.484 10.045 140.529 10.100 140.529 H 13.000 C 13.100 140.529 13.000 140.429 13.000 140.529 V 146.329 C 13.000 146.429 13.100 146.329 13.000 146.329 H 10.100 C 10.045 146.329 10.000 146.374 10.000 146.429 V 152.429 C 10.000 152.484 10.045 152.529 10.100 152.529 H 13.000 C 13.100 152.529 13.000 152.429 13.000 152.529 V 158.329 C 13.000 158.429 13.100 158.329 13.000 158.329 H 10.100 C 10.045 158.329 10.000 158.374 10.000 158.429 V 164.429 C 10.000 164.484 10.045 164.529 10.100 164.529 H 13.000 C 13.100 164.529 13.000 164.429 13.000 164.529 V 175.329 C 13.000 175.429 13.100 175.329 13.000 175.329 H 10.100 C 10.045 175.329 10.000 175.374 10.000 175.429 V 181.429 C 10.000 181.484 10.045 181.529 10.100 181.529 H 13.000 C 13.100 181.529 13.000 181.429 13.000 181.529 V 187.329 C 13.000 187.429 13.100 187.329 13.000 187.329 H 10.100 C 10.045 187.329 10.000 187.374 10.000 187.429 V 193.429 C 10.000 193.484 10.045 193.529 10.100 193.529 H 13.000 C 13.100 193.529 13.000 193.429 13.000 193.529 V 199.329 C 13.000 199.429 13.100 199.329 13.000 199.329 H 10.100 C 10.045 199.329 10.000 199.374 10.000 199.429 V 205.429 C 10.000 205.484 10.045 205.529 10.100 205.529 H 13.000 C 13.100 205.529 13.000 205.429 13.000 205.529 V 211.329 C 13.000 211.429 13.100 211.329 13.000 211.329 H 10.100 C 10.045 211.329 10.000 211.374 10.000 211.429 V 217.429 C 10.000 217.484 10.045 217.529 10.100 217.529 H 13.000 C 13.100 217.529 13.000 217.429 13.000 217.529 V 223.329 C 13.000 223.429 13.100 223.329 13.000 223.329 H 10.100 C 10.045 223.329 10.000 223.374 10.000 223.429 V 229.429 C 10.000 229.484 10.045 229.529 10.100 229.529 H 13.000 C 13.100 229.529 13.000 229.429 13.000 229.529 V 235.329 C 13.000 235.429 13.100 235.329 13.000 235.329 H 10.100 C 10.045 235.329 10.000 235.374 10.000 235.429 V 241.429 C 10.000 241.484 10.045 241.529 10.100 241.529 H 13.000 C 13.100 241.529 13.000 241.429 13.000 241.529 V 247.329 C 13.000 247.429 13.100 247.329 13.000 247.329 H 10.100 C 10.045 247.329 10.000 247.374 10.000 247.429 V 253.429 C 10.000 253.484 10.045 253.529 10.100 253.529 H 13.000 C 13.100 253.529 13.000 253.429 13.000 253.529 V 264.329 C 13.000 264.429 13.100 264.329 13.000 264.329 H 10.100 C 10.045 264.329 10.000 264.374 10.000 264.429 V 275.429 C 10.000 275.484 10.045 275.529 10.100 275.529 H 13.000 C 13.100 275.529 13.000 275.429 13.000 275.529 V 281.329 C 13.000 281.429 13.100 281.329 13.000 281.329 H 10.100 C 10.045 281.329 10.000 281.374 10.000 281.429 V 287.429 C 10.000 287.484 10.045 287.529 10.100 287.529 H 13.000 C 13.100 287.529 13.000 287.429 13.000 287.529 V 293.329 C 13.000 293.429 13.100 293.329 13.000 293.329 H 10.100 C 10.045 293.329 10.000 293.374 10.000 293.429 V 304.429 C 10.000 304.484 10.045 304.529 10.100 304.529 H 13.100" stroke="rgb(0,0,0)" stroke-width="0.20" />
</g>
<g id="p-2" style="fill:none;stroke-linecap:round;stroke-linejoin:round;">
  <text alignment-baseline="hanging" font-size="4px" style="font-family: sans-serif ; font-weight: normal; font-style: normal; fill: rgb(255,0,0)" text-anchor="middle" transform="matrix( 1.000 0.000 0.000 1.000 280.300 171.115 )" /><path d="M 193.800 304.529 H 274.800 C 274.855 304.529 274.900 304.484 274.900 304.429 C 274.900 304.484 274.855 304.529 274.800 304.529 H 277.800 C 277.745 304.529 277.700 304.484 277.700 304.429 C 277.700 304.484 277.745 304.529 277.800 304.529 C 277.855 304.529 277.900 304.484 277.900 304.429 V 299.429 C 277.900 299.008 278.011 298.594 278.222 298.229 C 278.432 297.864 278.735 297.561 279.100 297.351 C 279.465 297.140 279.879 297.029 280.300 297.029 C 280.721 297.029 281.135 297.140 281.500 297.351 C 281.865 297.561 282.168 297.864 282.378 298.229 C 282.589 298.594 282.700 299.008 282.700 299.429 V 304.429 C 282.700 304.484 282.745 304.529 282.800 304.529 C 282.855 304.529 282.900 304.484 282.900 304.429 C 282.900 304.484 282.855 304.529 282.800 304.529 H 285.800 C 285.745 304.529 285.700 304.484 285.700 304.429 C 285.700 304.484 285.745 304.529 285.800 304.529 H 366.800 H 369.800 C 369.855 304.529 369.900 304.484 369.900 304.429 V 296.015 C 369.900 295.959 369.855 295.915 369.800 295.915 H 366.900 C 366.800 295.915 366.900 296.015 366.900 295.915 V 290.115 C 366.900 290.015 366.800 290.115 366.900 290.115 H 369.800 C 369.855 290.115 369.900 290.070 369.900 290.015 V 284.015 C 369.900 283.959 369.855 283.915 369.800 283.915 H 366.900 C 366.800 283.915 366.900 284.015 366.900 283.915 V 278.115 C 366.900 278.015 366.800 278.115 366.900 278.115 H 369.800 C 369.855 278.115 369.900 278.070 369.900 278.015 V 272.015 C 369.900 271.959 369.855 271.915 369.800 271.915 H 366.900 C 366.800 271.915 366.900 272.015 366.900 271.915 V 266.115 C 366.900 266.015 366.800 266.115 366.900 266.115 H 369.800 C 369.855 266.115 369.900 266.070 369.900 266.015 V 260.015 C 369.900 259.959 369.855 259.915 369.800 259.915 H 366.900 C 366.800 259.915 366.900 260.015 366.900 259.915 V 254.115 C 366.900 254.015 366.800 254.115 366.900 254.115 H 369.800 C 369.855 254.115 369.900 254.070 369.900 254.015 V 248.015 C 369.900 247.959 369.855 247.915 369.800 247.915 H 366.900 C 366.800 247.915 366.900 248.015 366.900 247.915 V 242.115 C 366.900 242.015 366.800 242.115 366.900 242.115 H 369.800 C 369.855 242.115 369.900 242.070 369.900 242.015 V 236.015 C 369.900 235.959 369.855 235.915 369.800 235.915 H 366.900 C 366.800 235.915 366.900 236.015 366.900 235.915 V 230.115 C 366.900 230.015 366.800 230.115 366.900 230.115 H 369.800 C 369.855 230.115 369.900 230.070 369.900 230.015 V 224.015 C 369.900 223.959 369.855 223.915 369.800 223.915 H 366.900 C 366.800 223.915 366.900 224.015 366.900 223.915 V 218.115 C 366.900 218.015 366.800 218.115 366.900 218.115 H 369.800 C 369.855 218.115 369.900 218.070 369.900 218.015 V 212.015 C 369.900 211.959 369.855 211.915 369.800 211.915 H 366.900 C 366.800 211.915 366.900 212.015 366.900 211.915 V 206.115 C 366.900 206.015 366.800 206.115 366.900 206.115 H 369.800 C 369.855 206.115 369.900 206.070 369.900 206.015 V 200.015 C 369.900 199.959 369.855 199.915 369.800 199.915 H 366.900 C 366.800 199.915 366.900 200.015 366.900 199.915 V 194.115 C 366.900 194.015 366.800 194.115 366.900 194.115 H 369.800 C 369.855 194.115 369.900 194.070 369.900 194.015 V 188.015 C 369.900 187.959 369.855 187.915 369.800 187.915 H 366.900 C 366.800 187.915 366.900 188.015 366.900 187.915 V 182.115 C 366.900 182.015 366.800 182.115 366.900 182.115 H 369.800 C 369.855 182.115 369.900 182.070 369.900 182.015 V 176.015 C 369.900 175.959 369.855 175.915 369.800 175.915 H 366.900 C 366.800 175.915 366.900 176.015 366.900 175.915 V 170.115 C 366.900 170.015 366.800 170.115 366.900 170.115 H 369.800 C 369.855 170.115 369.900 170.070 369.900 170.015 V 164.015 C 369.900 163.959 369.855 163.915 369.800 163.915 H 366.900 C 366.800 163.915 366.900 164.015 366.900 163.915 V 158.115 C 366.900 158.015 366.800 158.115 366.900 158.115 H 369.800 C 369.855 158.115 369.900 158.070 369.900 158.015 V 152.015 C 369.900 151.959 369.855 151.915 369.800 151.915 H 366.900 C 366.800 151.915 366.900 152.015 366.900 151.915 V 146.115 C 366.900 146.015 366.800 146.115 366.900 146.115 H 369.800 C 369.855 146.115 369.900 146.070 369.900 146.015 V 140.015 C 369.900 139.959 369.855 139.915 369.800 139.915 H 366.900 C 366.800 139.915 366.900 140.015 366.900 139.915 V 134.115 C 366.900 134.015 366.800 134.115 366.900 134.115 H 369.800 C 369.855 134.115 369.900 134.070 369.900 134.015 V 128.015 C 369.900 127.959 369.855 127.915 369.800 127.915 H 366.900 C 366.800 127.915 366.900 128.015 366.900 127.915 V 122.115 C 366.900 122.015 366.800 122.115 366.900 122.115 H 369.800 C 369.855 122.115 369.900 122.070 369.900 122.015 V 116.015 C 369.900 115.959 369.855 115.915 369.800 115.915 H 366.900 C 366.800 115.915 366.900 116.015 366.900 115.915 V 110.115 C 366.900 110.015 366.800 110.115 366.900 110.115 H 369.800 C 369.855 110.115 369.900 110.070 369.900 110.015 V 104.015 C 369.900 103.959 369.855 103.915 369.800 103.915 H 366.900 C 366.800 103.915 366.900 104.015 366.900 103.915 V 98.115 C 366.900 98.015 366.800 98.115 366.900 98.115 H 369.800 C 369.855 98.115 369.900 98.070 369.900 98.015 V 92.015 C 369.900 91.959 369.855 91.915 369.800 91.915 H 366.900 C 366.800 91.915 366.900 92.015 366.900 91.915 V 86.115 C 366.900 86.015 366.800 86.115 366.900 86.115 H 369.800 C 369.855 86.115 369.900 86.070 369.900 86.015 V 80.015 C 369.900 79.959 369.855 79.915 369.800 79.915 H 366.900 C 366.800 79.915 366.900 80.015 366.900 79.915 V 74.115 C 366.900 74.015 366.800 74.115 366.900 74.115 H 369.800 C 369.855 74.115 369.900 74.070 369.900 74.015 V 68.015 C 369.900 67.959 369.855 67.915 369.800 67.915 H 366.900 C 366.800 67.915 366.900 68.015 366.900 67.915 V 62.115 C 366.900 62.015 366.800 62.115 366.900 62.115 H 369.800 C 369.855 62.115 369.900 62.070 369.900 62.015 V 56.015 C 369.900 55.959 369.855 55.915 369.800 55.915 H 366.900 C 366.800 55.915 366.900 56.015 366.900 55.915 V 50.115 C 366.900 50.015 366.800 50.115 366.900 50.115 H 369.800 C 369.855 50.115 369.900 50.070 369.900 50.015 V 41.600 C 369.900 41.545 369.855 41.500 369.800 41.500 H 366.800 H 193.800 H 190.800 C 190.745 41.500 190.700 41.545 190.700 41.600 V 50.015 C 190.700 50.070 190.745 50.115 190.800 50.115 H 193.700 C 193.800 50.115 193.700 50.015 193.700 50.115 V 55.915 C 193.700 56.015 193.800 55.915 193.700 55.915 H 190.800 C 190.745 55.915 190.700 55.959 190.700 56.015 V 62.015 C 190.700 62.070 190.745 62.115 190.800 62.115 H 193.700 C 193.800 62.115 193.700 62.015 193.700 62.115 V 67.915 C 193.700 68.015 193.800 67.915 193.700 67.915 H 190.800 C 190.745 67.915 190.700 67.959 190.700 68.015 V 74.015 C 190.700 74.070 190.745 74.115 190.800 74.115 H 193.700 C 193.800 74.115 193.700 74.015 193.700 74.115 V 79.915 C 193.700 80.015 193.800 79.915 193.700 79.915 H 190.800 C 190.745 79.915 190.700 79.959 190.700 80.015 V 86.015 C 190.700 86.070 190.745 86.115 190.800 86.115 H 193.700 C 193.800 86.115 193.700 86.015 193.700 86.115 V 91.915 C 193.700 92.015 193.800 91.915 193.700 91.915 H 190.800 C 190.745 91.915 190.700 91.959 190.700 92.015 V 98.015 C 190.700 98.070 190.745 98.115 190.800 98.115 H 193.700 C 193.800 98.115 193.700 98.015 193.700 98.115 V 103.915 C 193.700 104.015 193.800 103.915 193.700 103.915 H 190.800 C 190.745 103.915 190.700 103.959 190.700 104.015 V 110.015 C 190.700 110.070 190.745 110.115 190.800 110.115 H 193.700 C 193.800 110.115 193.700 110.015 193.700 110.115 V 115.915 C 193.700 116.015 193.800 115.915 193.700 115.915 H 190.800 C 190.745 115.915 190.700 115.959 190.700 116.015 V 122.015 C 190.700 122.070 190.745 122.115 190.800 122.115 H 193.700 C 193.800 122.115 193.700 122.015 193.700 122.115 V 127.915 C 193.700 128.015 193.800 127.915 193.700 127.915 H 190.800 C 190.745 127.915 190.700 127.959 190.700 128.015 V 134.015 C 190.700 134.070 190.745 134.115 190.800 134.115 H 193.700 C 193.800 134.115 193.700 134.015 193.700 134.115 V 139.915 C 193.700 140.015 193.800 139.915 193.700 139.915 H 190.800 C 190.745 139.915 190.700 139.959 190.700 140.015 V 146.015 C 190.700 146.070 190.745 146.115 190.800 146.115 H 193.700 C 193.800 146.115 193.700 146.015 193.700 146.115 V 151.915 C 193.700 152.015 193.800 151.915 193.700 151.915 H 190.800 C 190.745 151.915 190.700 151.959 190.700 152.015 V 158.015 C 190.700 158.070 190.745 158.115 190.800 158.115 H 193.700 C 193.800 158.115 193.700 158.015 193.700 158.115 V 163.915 C 193.700 164.015 193.800 163.915 193.700 163.915 H 190.800 C 190.745 163.915 190.700 163.959 190.700 164.015 V 170.015 C 190.700 170.070 190.745 170.115 190.800 170.115 H 193.700 C 193.800 170.115 193.700 170.015 193.700 170.115 V 175.915 C 193.700 176.015 193.800 175.915 193.700 175.915 H 190.800 C 190.745 175.915 190.700 175.959 190.700 176.015 V 182.015 C 190.700 182.070 190.745 182.115 190.800 182.115 H 193.700 C 193.800 182.115 193.700 182.015 193.700 182.115 V 187.915 C 193.700 188.015 193.800 187.915 193.700 187.915 H 190.800 C 190.745 187.915 190.700 187.959 190.700 188.015 V 194.015 C 190.700 194.070 190.745 194.115 190.800 194.115 H 193.700 C 193.800 194.115 193.700 194.015 193.700 194.115 V 199.915 C 193.700 200.015 193.800 199.915 193.700 199.915 H 190.800 C 190.745 199.915 190.700 199.959 190.700 200.015 V 206.015 C 190.700 206.070 190.745 206.115 190.800 206.115 H 193.700 C 193.800 206.115 193.700 206.015 193.700 206.115 V 211.915 C 193.700 212.015 193.800 211.915 193.700 211.915 H 190.800 C 190.745 211.915 190.700 211.959 190.700 212.015 V 218.015 C 190.700 218.070 190.745 218.115 190.800 218.115 H 193.700 C 193.800 218.115 193.700 218.015 193.700 218.115 V 223.915 C 193.700 224.015 193.800 223.915 193.700 223.915 H 190.800 C 190.745 223.915 190.700 223.959 190.700 224.015 V 230.015 C 190.700 230.070 190.745 230.115 190.800 230.115 H 193.700 C 193.800 230.115 193.700 230.015 193.700 230.115 V 235.915 C 193.700 236.015 193.800 235.915 193.700 235.915 H 190.800 C 190.745 235.915 190.700 235.959 190.700 236.015 V 242.015 C 190.700 242.070 190.745 242.115 190.800 242.115 H 193.700 C 193.800 242.115 193.700 242.015 193.700 242.115 V 247.915 C 193.700 248.015 193.800 247.915 193.700 247.915 H 190.800 C 190.745 247.915 190.700 247.959 190.700 248.015 V 254.015 C 190.700 254.070 190.745 254.115 190.800 254.115 H 193.700 C 193.800 254.115 193.700 254.015 193.700 254.115 V 259.915 C 193.700 260.015 193.800 259.915 193.700 259.915 H 190.800 C 190.745 259.915 190.700 259.959 190.700 260.015 V 266.015 C 190.700 266.070 190.745 266.115 190.800 266.115 H 193.700 C 193.800 266.115 193.700 266.015 193.700 266.115 V 271.915 C 193.700 272.015 193.800 271.915 193.700 271.915 H 190.800 C 190.745 271.915 190.700 271.959 190.700 272.015 V 278.015 C 190.700 278.070 190.745 278.115 190.800 278.115 H 193.700 C 193.800 278.115 193.700 278.015 193.700 278.115 V 283.915 C 193.700 284.015 193.800 283.915 193.700 283.915 H 190.800 C 190.745 283.915 190.700 283.959 190.700 284.015 V 290.015 C 190.700 290.070 190.745 290.115 190.800 290.115 H 193.700 C 193.800 290.115 193.700 290.015 193.700 290.115 V 295.915 C 193.700 296.015 193.800 295.915 193.700 295.915 H 190.800 C 190.745 295.915 190.700 295.959 190.700 296.015 V 304.429 C 190.700 304.484 190.745 304.529 190.800 304.529 H 193.800" stroke="rgb(0,0,0)" stroke-width="0.20" />
</g>
<g id="p-3" style="fill:none;stroke-linecap:round;stroke-linejoin:round;">
  <path d="M 407.900 304.529 H 530.459 C 530.515 304.529 530.559 304.484 530.559 304.429 V 296.115 C 530.559 296.015 530.459 296.115 530.559 296.115 H 533.459 C 533.515 296.115 533.559 296.070 533.559 296.015 V 290.015 C 533.559 289.959 533.515 289.915 533.459 289.915 H 530.559 C 530.459 289.915 530.559 290.015 530.559 289.915 V 284.115 C 530.559 284.015 530.459 284.115 530.559 284.115 H 533.459 C 533.515 284.115 533.559 284.070 533.559 284.015 V 278.015 C 533.559 277.959 533.515 277.915 533.459 277.915 H 530.559 C 530.459 277.915 530.559 278.015 530.559 277.915 V 272.115 C 530.559 272.015 530.459 272.115 530.559 272.115 H 533.459 C 533.515 272.115 533.559 272.070 533.559 272.015 V 266.015 C 533.559 265.959 533.515 265.915 533.459 265.915 H 530.559 C 530.459 265.915 530.559 266.015 530.559 265.915 V 260.115 C 530.559 260.015 530.459 260.115 530.559 260.115 H 533.459 C 533.515 260.115 533.559 260.070 533.559 260.015 V 254.015 C 533.559 253.959 533.515 253.915 533.459 253.915 H 530.559 C 530.459 253.915 530.559 254.015 530.559 253.915 V 248.115 C 530.559 248.015 530.459 248.115 530.559 248.115 H 533.459 C 533.515 248.115 533.559 248.070 533.559 248.015 V 242.015 C 533.559 241.959 533.515 241.915 533.459 241.915 H 530.559 C 530.459 241.915 530.559 242.015 530.559 241.915 V 236.115 C 530.559 236.015 530.459 236.115 530.559 236.115 H 533.459 C 533.515 236.115 533.559 236.070 533.559 236.015 V 230.015 C 533.559 229.959 533.515 229.915 533.459 229.915 H 530.559 C 530.459 229.915 530.559 230.015 530.559 229.915 V 224.115 C 530.559 224.015 530.459 224.115 530.559 224.115 H 533.459 C 533.515 224.115 533.559 224.070 533.559 224.015 V 218.015 C 533.559 217.959 533.515 217.915 533.459 217.915 H 530.559 C 530.459 217.915 530.559 218.015 530.559 217.915 V 212.115 C 530.559 212.015 530.459 212.115 530.559 212.115 H 533.459 C 533.515 212.115 533.559 212.070 533.559 212.015 V 206.015 C 533.559 205.959 533.515 205.915 533.459 205.915 H 530.559 C 530.459 205.915 530.559 206.015 530.559 205.915 V 200.115 C 530.559 200.015 530.459 200.115 530.559 200.115 H 533.459 C 533.515 200.115 533.559 200.070 533.559 200.015 V 194.015 C 533.559 193.959 533.515 193.915 533.459 193.915 H 530.559 C 530.459 193.915 530.559 194.015 530.559 193.915 V 188.115 C 530.559 188.015 530.459 188.115 530.559 188.115 H 533.459 C 533.515 188.115 533.559 188.070 533.559 188.015 V 182.015 C 533.559 181.959 533.515 181.915 533.459 181.915 H 530.559 C 530.459 181.915 530.559 182.015 530.559 181.915 V 176.115 C 530.559 176.015 530.459 176.115 530.559 176.115 H 533.459 C 533.515 176.115 533.559 176.070 533.559 176.015 V 170.015 C 533.559 169.959 533.515 169.915 533.459 169.915 H 530.559 C 530.459 169.915 530.559 170.015 530.559 169.915 V 164.115 C 530.559 164.015 530.459 164.115 530.559 164.115 H 533.459 C 533.515 164.115 533.559 164.070 533.559 164.015 V 158.015 C 533.559 157.959 533.515 157.915 533.459 157.915 H 530.559 C 530.459 157.915 530.559 158.015 530.559 157.915 V 152.115 C 530.559 152.015 530.459 152.115 530.559 152.115 H 533.459 C 533.515 152.115 533.559 152.070 533.559 152.015 V 146.015 C 533.559 145.959 533.515 145.915 533.459 145.915 H 530.559 C 530.459 145.915 530.559 146.015 530.559 145.915 V 140.115 C 530.559 140.015 530.459 140.115 530.559 140.115 H 533.459 C 533.515 140.115 533.559 140.070 533.559 140.015 V 134.015 C 533.559 133.959 533.515 133.915 533.459 133.915 H 530.559 C 530.459 133.915 530.559 134.015 530.559 133.915 V 128.115 C 530.559 128.015 530.459 128.115 530.559 128.115 H 533.459 C 533.515 128.115 533.559 128.070 533.559 128.015 V 122.015 C 533.559 121.959 533.515 121.915 533.459 121.915 H 530.559 C 530.459 121.915 530.559 122.015 530.559 121.915 V 116.115 C 530.559 116.015 530.459 116.115 530.559 116.115 H 533.459 C 533.515 116.115 533.559 116.070 533.559 116.015 V 110.015 C 533.559 109.959 533.515 109.915 533.459 109.915 H 530.559 C 530.459 109.915 530.559 110.015 530.559 109.915 V 104.115 C 530.559 104.015 530.459 104.115 530.559 104.115 H 533.459 C 533.515 104.115 533.559 104.070 533.559 104.015 V 98.015 C 533.559 97.959 533.515 97.915 533.459 97.915 H 530.559 C 530.459 97.915 530.559 98.015 530.559 97.915 V 92.115 C 530.559 92.015 530.459 92.115 530.559 92.115 H 533.459 C 533.515 92.115 533.559 92.070 533.559 92.015 V 86.015 C 533.559 85.959 533.515 85.915 533.459 85.915 H 530.559 C 530.459 85.915 530.559 86.015 530.559 85.915 V 80.115 C 530.559 80.015 530.459 80.115 530.559 80.115 H 533.459 C 533.515 80.115 533.559 80.070 533.559 80.015 V 74.015 C 533.559 73.959 533.515 73.915 533.459 73.915 H 530.559 C 530.459 73.915 530.559 74.015 530.559 73.915 V 68.115 C 530.559 68.015 530.459 68.115 530.559 68.115 H 533.459 C 533.515 68.115 533.559 68.070 533.559 68.015 V 62.015 C 533.559 61.959 533.515 61.915 533.459 61.915 H 530.559 C 530.459 61.915 530.559 62.015 530.559 61.915 V 56.115 C 530.559 56.015 530.459 56.115 530.559 56.115 H 533.459 C 533.515 56.115 533.559 56.070 533.559 56.015 V 50.015 C 533.559 49.959 533.515 49.915 533.459 49.915 H 530.559 C 530.459 49.915 530.559 50.015 530.559 49.915 V 41.600 C 530.559 41.545 530.515 41.500 530.459 41.500 C 530.420 41.500 530.385 41.523 530.369 41.558 L 527.875 46.905 C 527.833 46.996 527.966 46.947 527.875 46.905 L 525.247 45.679 C 525.197 45.656 525.137 45.678 525.114 45.728 L 522.578 51.166 C 522.555 51.216 522.577 51.275 522.627 51.298 L 525.255 52.524 C 525.346 52.566 525.297 52.433 525.255 52.524 L 522.804 57.781 C 522.762 57.871 522.894 57.823 522.804 57.781 L 520.176 56.555 C 520.125 56.532 520.066 56.553 520.043 56.603 L 517.507 62.041 C 517.484 62.091 517.505 62.151 517.555 62.174 L 520.184 63.400 C 520.274 63.442 520.226 63.309 520.184 63.400 L 517.732 68.656 C 517.690 68.747 517.823 68.699 517.732 68.656 L 515.104 67.431 C 515.054 67.407 514.995 67.429 514.971 67.479 L 512.435 72.917 C 512.412 72.967 512.434 73.027 512.484 73.050 L 515.112 74.275 C 515.203 74.318 515.154 74.185 515.112 74.275 L 512.661 79.532 C 512.619 79.623 512.752 79.574 512.661 79.532 L 510.033 78.306 C 509.983 78.283 509.923 78.305 509.900 78.355 L 507.364 83.793 C 507.341 83.843 507.362 83.902 507.412 83.926 L 510.041 85.151 C 510.131 85.193 510.083 85.061 510.041 85.151 L 507.590 90.408 C 507.547 90.498 507.680 90.450 507.590 90.408 L 504.961 89.182 C 504.911 89.159 504.852 89.180 504.828 89.231 L 502.293 94.668 C 502.269 94.718 502.291 94.778 502.341 94.801 L 504.969 96.027 C 505.060 96.069 505.012 95.936 504.969 96.027 L 502.518 101.283 C 502.476 101.374 502.609 101.326 502.518 101.283 L 499.890 100.058 C 499.840 100.034 499.780 100.056 499.757 100.106 L 497.221 105.544 C 497.198 105.594 497.220 105.654 497.270 105.677 L 499.898 106.903 C 499.989 106.945 499.940 106.812 499.898 106.903 L 497.447 112.159 C 497.404 112.250 497.537 112.201 497.447 112.159 L 494.818 110.934 C 494.768 110.910 494.709 110.932 494.686 110.982 L 492.150 116.420 C 492.126 116.470 492.148 116.529 492.198 116.553 L 494.826 117.778 C 494.917 117.820 494.869 117.688 494.826 117.778 L 492.375 123.035 C 492.333 123.125 492.466 123.077 492.375 123.035 L 489.747 121.809 C 489.697 121.786 489.637 121.808 489.614 121.858 L 487.078 127.295 C 487.055 127.345 487.077 127.405 487.127 127.428 L 489.755 128.654 C 489.846 128.696 489.797 128.563 489.755 128.654 L 487.304 133.911 C 487.262 134.001 487.394 133.953 487.304 133.911 L 484.676 132.685 C 484.626 132.662 484.566 132.683 484.543 132.733 L 482.007 138.171 C 481.984 138.221 482.005 138.281 482.055 138.304 L 484.684 139.530 C 484.774 139.572 484.726 139.439 484.684 139.530 L 482.232 144.786 C 482.190 144.877 482.323 144.828 482.232 144.786 L 479.604 143.561 C 479.554 143.537 479.495 143.559 479.471 143.609 L 476.936 149.047 C 476.912 149.097 476.934 149.156 476.984 149.180 L 479.612 150.405 C 479.703 150.448 479.654 150.315 479.612 150.405 L 477.161 155.662 C 477.119 155.753 477.252 155.704 477.161 155.662 L 474.533 154.436 C 474.483 154.413 474.423 154.435 474.400 154.485 L 471.864 159.923 C 471.841 159.973 471.862 160.032 471.913 160.055 L 474.541 161.281 C 474.631 161.323 474.583 161.190 474.541 161.281 L 472.090 166.538 C 472.047 166.628 472.180 166.580 472.090 166.538 L 469.461 165.312 C 469.411 165.289 469.352 165.310 469.328 165.360 L 466.793 170.798 C 466.769 170.848 466.791 170.908 466.841 170.931 L 469.469 172.157 C 469.560 172.199 469.512 172.066 469.469 172.157 L 467.018 177.413 C 466.976 177.504 467.109 177.456 467.018 177.413 L 464.390 176.188 C 462.465 175.290 460.338 174.915 458.222 175.100 C 456.106 175.285 454.076 176.024 452.336 177.242 C 450.596 178.461 449.208 180.115 448.310 182.040 L 416.191 250.920 C 415.293 252.845 414.918 254.972 415.103 257.088 C 415.288 259.204 416.027 261.234 417.245 262.974 C 418.464 264.714 420.119 266.102 422.044 267.000 L 424.672 268.225 C 424.762 268.268 424.714 268.135 424.672 268.225 L 420.108 278.013 C 420.065 278.104 420.198 278.056 420.108 278.013 L 417.479 276.788 C 417.429 276.765 417.370 276.786 417.346 276.836 L 414.811 282.274 C 414.787 282.324 414.809 282.384 414.859 282.407 L 417.487 283.633 C 417.578 283.675 417.530 283.542 417.487 283.633 L 415.036 288.889 C 414.994 288.980 415.127 288.931 415.036 288.889 L 412.408 287.664 C 412.358 287.640 412.298 287.662 412.275 287.712 L 409.739 293.150 C 409.716 293.200 409.738 293.259 409.788 293.283 L 412.416 294.508 C 412.507 294.551 412.458 294.418 412.416 294.508 L 407.809 304.387 C 407.803 304.400 407.800 304.415 407.800 304.429 C 407.800 304.484 407.845 304.529 407.900 304.529 Z" stroke="rgb(0,0,0)" stroke-width="0.20" />
  <path d="M 458.431 188.967 L 459.657 186.338 C 459.699 186.248 459.566 186.296 459.657 186.338 L 462.194 187.522 C 462.285 187.564 462.236 187.431 462.194 187.522 L 459.743 192.778 C 459.701 192.869 459.834 192.821 459.743 192.778 L 457.205 191.595 C 457.115 191.553 457.163 191.686 457.205 191.595 L 458.431 188.967 Z" stroke="rgb(0,0,255)" stroke-width="0.20" />
  <path d="M 453.360 199.842 L 454.585 197.214 C 454.627 197.123 454.495 197.172 454.585 197.214 L 457.123 198.397 C 457.213 198.440 457.165 198.307 457.123 198.397 L 454.672 203.654 C 454.629 203.745 454.762 203.696 454.672 203.654 L 452.134 202.471 C 452.043 202.428 452.092 202.561 452.134 202.471 L 453.360 199.842 Z" stroke="rgb(0,0,255)" stroke-width="0.20" />
  <path d="M 448.288 210.718 L 449.514 208.090 C 449.556 207.999 449.423 208.047 449.514 208.090 L 452.051 209.273 C 452.142 209.315 452.094 209.182 452.051 209.273 L 449.600 214.530 C 449.558 214.620 449.691 214.572 449.600 214.530 L 447.063 213.346 C 446.972 213.304 447.020 213.437 447.063 213.346 L 448.288 210.718 Z" stroke="rgb(0,0,255)" stroke-width="0.20" />
  <path d="M 443.217 221.594 L 444.442 218.965 C 444.485 218.875 444.352 218.923 444.442 218.965 L 446.980 220.149 C 447.071 220.191 447.022 220.058 446.980 220.149 L 444.529 225.405 C 444.487 225.496 444.619 225.448 444.529 225.405 L 441.991 224.222 C 441.900 224.180 441.949 224.313 441.991 224.222 L 443.217 221.594 Z" stroke="rgb(0,0,255)" stroke-width="0.20" />
  <path d="M 438.145 232.469 L 439.371 229.841 C 439.413 229.750 439.280 229.799 439.371 229.841 L 441.909 231.024 C 441.999 231.067 441.951 230.934 441.909 231.024 L 439.457 236.281 C 439.415 236.372 439.548 236.323 439.457 236.281 L 436.920 235.098 C 436.829 235.055 436.877 235.188 436.920 235.098 L 438.145 232.469 Z" stroke="rgb(0,0,255)" stroke-width="0.20" />
  <path d="M 433.074 243.345 L 434.299 240.717 C 434.342 240.626 434.209 240.675 434.299 240.717 L 436.837 241.900 C 436.928 241.942 436.879 241.809 436.837 241.900 L 434.386 247.157 C 434.344 247.247 434.477 247.199 434.386 247.157 L 431.848 245.973 C 431.758 245.931 431.806 246.064 431.848 245.973 L 433.074 243.345 Z" stroke="rgb(0,0,255)" stroke-width="0.20" />
  <path d="M 428.002 254.221 L 429.228 251.592 C 429.270 251.502 429.137 251.550 429.228 251.592 L 431.766 252.776 C 431.856 252.818 431.808 252.685 431.766 252.776 L 429.315 258.032 C 429.272 258.123 429.405 258.075 429.315 258.032 L 426.777 256.849 C 426.686 256.807 426.735 256.940 426.777 256.849 L 428.002 254.221 Z" stroke="rgb(0,0,255)" stroke-width="0.20" />
  <path d="M 513.759 10.000 H 391.200 C 391.145 10.000 391.100 10.045 391.100 10.100 V 18.415 C 391.100 18.515 391.200 18.415 391.100 18.415 H 388.200 C 388.145 18.415 388.100 18.459 388.100 18.515 V 24.515 C 388.100 24.570 388.145 24.615 388.200 24.615 H 391.100 C 391.200 24.615 391.100 24.515 391.100 24.615 V 30.415 C 391.100 30.515 391.200 30.415 391.100 30.415 H 388.200 C 388.145 30.415 388.100 30.459 388.100 30.515 V 36.515 C 388.100 36.570 388.145 36.615 388.200 36.615 H 391.100 C 391.200 36.615 391.100 36.515 391.100 36.615 V 42.415 C 391.100 42.515 391.200 42.415 391.100 42.415 H 388.200 C 388.145 42.415 388.100 42.459 388.100 42.515 V 48.515 C 388.100 48.570 388.145 48.615 388.200 48.615 H 391.100 C 391.200 48.615 391.100 48.515 391.100 48.615 V 54.415 C 391.100 54.515 391.200 54.415 391.100 54.415 H 388.200 C 388.145 54.415 388.100 54.459 388.100 54.515 V 60.515 C 388.100 60.570 388.145 60.615 388.200 60.615 H 391.100 C 391.200 60.615 391.100 60.515 391.100 60.615 V 66.415 C 391.100 66.515 391.200 66.415 391.100 66.415 H 388.200 C 388.145 66.415 388.100 66.459 388.100 66.515 V 72.515 C 388.100 72.570 388.145 72.615 388.200 72.615 H 391.100 C 391.200 72.615 391.100 72.515 391.100 72.615 V 78.415 C 391.100 78.515 391.200 78.415 391.100 78.415 H 388.200 C 388.145 78.415 388.100 78.459 388.100 78.515 V 84.515 C 388.100 84.570 388.145 84.615 388.200 84.615 H 391.100 C 391.200 84.615 391.100 84.515 391.100 84.615 V 90.415 C 391.100 90.515 391.200 90.415 391.100 90.415 H 388.200 C 388.145 90.415 388.100 90.459 388.100 90.515 V 96.515 C 388.100 96.570 388.145 96.615 388.200 96.615 H 391.100 C 391.200 96.615 391.100 96.515 391.100 96.615 V 102.415 C 391.100 102.515 391.200 102.415 391.100 102.415 H 388.200 C 388.145 102.415 388.100 102.459 388.100 102.515 V 108.515 C 388.100 108.570 388.145 108.615 388.200 108.615 H 391.100 C 391.200 108.615 391.100 108.515 391.100 108.615 V 114.415 C 391.100 114.515 391.200 114.415 391.100 114.415 H 388.200 C 388.145 114.415 388.100 114.459 388.100 114.515 V 120.515 C 388.100 120.570 388.145 120.615 388.200 120.615 H 391.100 C 391.200 120.615 391.100 120.515 391.100 120.615 V 126.415 C 391.100 126.515 391.200 126.415 391.100 126.415 H 388.200 C 388.145 126.415 388.100 126.459 388.100 126.515 V 132.515 C 388.100 132.570 388.145 132.615 388.200 132.615 H 391.100 C 391.200 132.615 391.100 132.515 391.100 132.615 V 138.415 C 391.100 138.515 391.200 138.415 391.100 138.415 H 388.200 C 388.145 138.415 388.100 138.459 388.100 138.515 V 144.515 C 388.100 144.570 388.145 144.615 388.200 144.615 H 391.100 C 391.200 144.615 391.100 144.515 391.100 144.615 V 150.415 C 391.100 150.515 391.200 150.415 391.100 150.415 H 388.200 C 388.145 150.415 388.100 150.459 388.100 150.515 V 156.515 C 388.100 156.570 388.145 156.615 388.200 156.615 H 391.100 C 391.200 156.615 391.100 156.515 391.100 156.615 V 162.415 C 391.100 162.515 391.200 162.415 391.100 162.415 H 388.200 C 388.145 162.415 388.100 162.459 388.100 162.515 V 168.515 C 388.100 168.570 388.145 168.615 388.200 168.615 H 391.100 C 391.200 168.615 391.100 168.515 391.100 168.615 V 174.415 C 391.100 174.515 391.200 174.415 391.100 174.415 H 388.200 C 388.145 174.415 388.100 174.459 388.100 174.515 V 180.515 C 388.100 180.570 388.145 180.615 388.200 180.615 H 391.100 C 391.200 180.615 391.100 180.515 391.100 180.615 V 186.415 C 391.100 186.515 391.200 186.415 391.100 186.415 H 388.200 C 388.145 186.415 388.100 186.459 388.100 186.515 V 192.515 C 388.100 192.570 388.145 192.615 388.200 192.615 H 391.100 C 391.200 192.615 391.100 192.515 391.100 192.615 V 198.415 C 391.100 198.515 391.200 198.415 391.100 198.415 H 388.200 C 388.145 198.415 388.100 198.459 388.100 198.515 V 204.515 C 388.100 204.570 388.145 204.615 388.200 204.615 H 391.100 C 391.200 204.615 391.100 204.515 391.100 204.615 V 210.415 C 391.100 210.515 391.200 210.415 391.100 210.415 H 388.200 C 388.145 210.415 388.100 210.459 388.100 210.515 V 216.515 C 388.100 216.570 388.145 216.615 388.200 216.615 H 391.100 C 391.200 216.615 391.100 216.515 391.100 216.615 V 222.415 C 391.100 222.515 391.200 222.415 391.100 222.415 H 388.200 C 388.145 222.415 388.100 222.459 388.100 222.515 V 228.515 C 388.100 228.570 388.145 228.615 388.200 228.615 H 391.100 C 391.200 228.615 391.100 228.515 391.100 228.615 V 234.415 C 391.100 234.515 391.200 234.415 391.100 234.415 H 388.200 C 388.145 234.415 388.100 234.459 388.100 234.515 V 240.515 C 388.100 240.570 388.145 240.615 388.200 240.615 H 391.100 C 391.200 240.615 391.100 240.515 391.100 240.615 V 246.415 C 391.100 246.515 391.200 246.415 391.100 246.415 H 388.200 C 388.145 246.415 388.100 246.459 388.100 246.515 V 252.515 C 388.100 252.570 388.145 252.615 388.200 252.615 H 391.100 C 391.200 252.615 391.100 252.515 391.100 252.615 V 258.415 C 391.100 258.515 391.200 258.415 391.100 258.415 H 388.200 C 388.145 258.415 388.100 258.459 388.100 258.515 V 264.515 C 388.100 264.570 388.145 264.615 388.200 264.615 H 391.100 C 391.200 264.615 391.100 264.515 391.100 264.615 V 272.929 C 391.100 272.984 391.145 273.029 391.200 273.029 C 391.239 273.029 391.274 273.007 391.291 272.972 L 393.784 267.624 C 393.826 267.534 393.693 267.582 393.784 267.624 L 396.412 268.850 C 396.462 268.873 396.522 268.852 396.545 268.802 L 399.081 263.364 C 399.104 263.314 399.083 263.254 399.033 263.231 L 396.404 262.005 C 396.314 261.963 396.362 262.096 396.404 262.005 L 398.855 256.749 C 398.898 256.658 398.765 256.706 398.855 256.749 L 401.484 257.974 C 401.534 257.998 401.593 257.976 401.617 257.926 L 404.152 252.488 C 404.176 252.438 404.154 252.378 404.104 252.355 L 401.476 251.130 C 401.385 251.087 401.433 251.220 401.476 251.130 L 403.927 245.873 C 403.969 245.782 403.836 245.831 403.927 245.873 L 406.555 247.099 C 406.605 247.122 406.665 247.100 406.688 247.050 L 409.224 241.612 C 409.247 241.562 409.225 241.503 409.175 241.479 L 406.547 240.254 C 406.457 240.212 406.505 240.344 406.547 240.254 L 408.998 234.997 C 409.041 234.907 408.908 234.955 408.998 234.997 L 411.627 236.223 C 411.677 236.246 411.736 236.225 411.760 236.174 L 414.295 230.737 C 414.319 230.687 414.297 230.627 414.247 230.604 L 411.619 229.378 C 411.528 229.336 411.576 229.469 411.619 229.378 L 414.070 224.122 C 414.112 224.031 413.979 224.079 414.070 224.122 L 416.698 225.347 C 416.748 225.370 416.808 225.349 416.831 225.299 L 419.367 219.861 C 419.390 219.811 419.368 219.751 419.318 219.728 L 416.690 218.502 C 416.599 218.460 416.648 218.593 416.690 218.502 L 419.141 213.246 C 419.183 213.155 419.051 213.204 419.141 213.246 L 421.769 214.471 C 421.820 214.495 421.879 214.473 421.902 214.423 L 424.438 208.985 C 424.461 208.935 424.440 208.876 424.390 208.852 L 421.761 207.627 C 421.671 207.584 421.719 207.717 421.761 207.627 L 424.213 202.370 C 424.255 202.280 424.122 202.328 424.213 202.370 L 426.841 203.596 C 426.891 203.619 426.950 203.597 426.974 203.547 L 429.509 198.110 C 429.533 198.059 429.511 198.000 429.461 197.977 L 426.833 196.751 C 426.742 196.709 426.791 196.842 426.833 196.751 L 429.284 191.494 C 429.326 191.404 429.193 191.452 429.284 191.494 L 431.912 192.720 C 431.962 192.743 432.022 192.722 432.045 192.672 L 434.581 187.234 C 434.604 187.184 434.583 187.124 434.533 187.101 L 431.904 185.875 C 431.814 185.833 431.862 185.966 431.904 185.875 L 434.355 180.619 C 434.398 180.528 434.265 180.576 434.355 180.619 L 436.984 181.844 C 437.034 181.868 437.093 181.846 437.117 181.796 L 439.652 176.358 C 439.676 176.308 439.654 176.249 439.604 176.225 L 436.976 175.000 C 436.885 174.957 436.933 175.090 436.976 175.000 L 439.427 169.743 C 439.469 169.652 439.336 169.701 439.427 169.743 L 442.055 170.969 C 442.105 170.992 442.165 170.970 442.188 170.920 L 444.724 165.482 C 444.747 165.432 444.725 165.373 444.675 165.350 L 442.047 164.124 C 441.956 164.082 442.005 164.215 442.047 164.124 L 444.498 158.867 C 444.541 158.777 444.408 158.825 444.498 158.867 L 447.127 160.093 C 447.177 160.116 447.236 160.095 447.259 160.045 L 449.795 154.607 C 449.819 154.557 449.797 154.497 449.747 154.474 L 447.119 153.248 C 447.028 153.206 447.076 153.339 447.119 153.248 L 449.570 147.992 C 449.612 147.901 449.479 147.949 449.570 147.992 L 452.198 149.217 C 452.248 149.241 452.308 149.219 452.331 149.169 L 454.867 143.731 C 454.890 143.681 454.868 143.622 454.818 143.598 L 452.190 142.373 C 452.099 142.330 452.148 142.463 452.190 142.373 L 454.641 137.116 C 454.683 137.025 454.550 137.074 454.641 137.116 L 457.269 138.342 C 459.194 139.239 461.322 139.614 463.438 139.429 C 465.554 139.244 467.583 138.505 469.323 137.287 C 471.063 136.069 472.452 134.414 473.349 132.489 L 505.468 63.610 C 506.366 61.685 506.741 59.557 506.556 57.441 C 506.371 55.325 505.632 53.295 504.414 51.556 C 503.196 49.816 501.541 48.427 499.616 47.530 L 496.987 46.304 C 496.897 46.262 496.945 46.395 496.987 46.304 L 501.552 36.516 C 501.594 36.425 501.461 36.474 501.552 36.516 L 504.180 37.741 C 504.230 37.765 504.290 37.743 504.313 37.693 L 506.849 32.255 C 506.872 32.205 506.850 32.146 506.800 32.122 L 504.172 30.897 C 504.081 30.854 504.130 30.987 504.172 30.897 L 506.623 25.640 C 506.665 25.549 506.533 25.598 506.623 25.640 L 509.251 26.866 C 509.302 26.889 509.361 26.867 509.384 26.817 L 511.920 21.380 C 511.943 21.329 511.922 21.270 511.872 21.247 L 509.243 20.021 C 509.153 19.979 509.201 20.112 509.243 20.021 L 513.850 10.142 C 513.856 10.129 513.859 10.115 513.859 10.100 C 513.859 10.045 513.815 10.000 513.759 10.000 Z" stroke="rgb(0,0,0)" stroke-width="0.20" />
  <path d="M 463.228 125.563 L 462.003 128.191 C 461.960 128.282 462.093 128.233 462.003 128.191 L 459.465 127.008 C 459.374 126.965 459.423 127.098 459.465 127.008 L 461.916 121.751 C 461.959 121.660 461.826 121.709 461.916 121.751 L 464.454 122.934 C 464.545 122.977 464.496 122.844 464.454 122.934 L 463.228 125.563 Z" stroke="rgb(0,0,255)" stroke-width="0.20" />
  <path d="M 468.300 114.687 L 467.074 117.315 C 467.032 117.406 467.165 117.357 467.074 117.315 L 464.536 116.132 C 464.446 116.090 464.494 116.223 464.536 116.132 L 466.988 110.875 C 467.030 110.785 466.897 110.833 466.988 110.875 L 469.525 112.059 C 469.616 112.101 469.568 111.968 469.525 112.059 L 468.300 114.687 Z" stroke="rgb(0,0,255)" stroke-width="0.20" />
  <path d="M 473.371 103.811 L 472.146 106.440 C 472.103 106.530 472.236 106.482 472.146 106.440 L 469.608 105.256 C 469.517 105.214 469.566 105.347 469.608 105.256 L 472.059 100.000 C 472.101 99.909 471.968 99.957 472.059 100.000 L 474.597 101.183 C 474.687 101.225 474.639 101.092 474.597 101.183 L 473.371 103.811 Z" stroke="rgb(0,0,255)" stroke-width="0.20" />
  <path d="M 478.443 92.936 L 477.217 95.564 C 477.175 95.654 477.308 95.606 477.217 95.564 L 474.679 94.381 C 474.589 94.338 474.637 94.471 474.679 94.381 L 477.131 89.124 C 477.173 89.033 477.040 89.082 477.131 89.124 L 479.668 90.307 C 479.759 90.350 479.710 90.217 479.668 90.307 L 478.443 92.936 Z" stroke="rgb(0,0,255)" stroke-width="0.20" />
  <path d="M 483.514 82.060 L 482.288 84.688 C 482.246 84.779 482.379 84.730 482.288 84.688 L 479.751 83.505 C 479.660 83.463 479.708 83.595 479.751 83.505 L 482.202 78.248 C 482.244 78.158 482.111 78.206 482.202 78.248 L 484.740 79.432 C 484.830 79.474 484.782 79.341 484.740 79.432 L 483.514 82.060 Z" stroke="rgb(0,0,255)" stroke-width="0.20" />
  <path d="M 488.585 71.184 L 487.360 73.812 C 487.318 73.903 487.450 73.855 487.360 73.812 L 484.822 72.629 C 484.732 72.587 484.780 72.720 484.822 72.629 L 487.273 67.373 C 487.316 67.282 487.183 67.330 487.273 67.373 L 489.811 68.556 C 489.902 68.598 489.853 68.465 489.811 68.556 L 488.585 71.184 Z" stroke="rgb(0,0,255)" stroke-width="0.20" />
  <path d="M 493.657 60.308 L 492.431 62.937 C 492.389 63.027 492.522 62.979 492.431 62.937 L 489.894 61.753 C 489.803 61.711 489.851 61.844 489.894 61.753 L 492.345 56.497 C 492.387 56.406 492.254 56.455 492.345 56.497 L 494.882 57.680 C 494.973 57.722 494.925 57.590 494.882 57.680 L 493.657 60.308 Z" stroke="rgb(0,0,255)" stroke-width="0.20" />
  <text alignment-baseline="hanging" font-size="4px" style="font-family: sans-serif ; font-weight: normal; font-style: normal; fill: rgb(255,0,0)" text-anchor="middle" transform="matrix( 1.000 0.000 0.000 1.000 452.480 155.265 )" />
</g>
<g id="p-4" style="fill:none;stroke-linecap:round;stroke-linejoin:round;">
  <text alignment-baseline="hanging" font-size="4px" style="font-family: sans-serif ; font-weight: normal; font-style: normal; fill: rgb(255,0,0)" text-anchor="middle" transform="matrix( 1.000 0.000 0.000 1.000 574.259 239.088 )" /><path d="M 613.358 304.529 H 554.192 C 554.177 304.529 554.163 304.526 554.149 304.520 C 550.793 302.955 547.907 300.533 545.783 297.499 C 543.658 294.465 542.370 290.926 542.047 287.236 C 541.724 283.546 542.378 279.836 543.944 276.480 L 554.086 254.728 C 554.316 254.235 554.672 253.811 555.118 253.499 C 555.564 253.187 556.084 252.998 556.626 252.950 C 557.168 252.903 557.713 252.999 558.206 253.229 C 558.699 253.459 559.123 253.814 559.435 254.260 C 559.748 254.706 559.937 255.226 559.984 255.768 C 560.032 256.310 559.936 256.855 559.706 257.348 L 557.804 261.427 C 557.774 261.490 557.762 261.561 557.768 261.631 C 557.774 261.701 557.798 261.768 557.839 261.825 C 557.879 261.883 557.934 261.929 557.997 261.958 L 571.048 268.044 C 571.139 268.086 571.006 268.135 571.048 268.044 L 575.612 258.256 C 575.655 258.165 575.703 258.298 575.612 258.256 L 572.984 257.030 C 572.934 257.007 572.912 256.947 572.936 256.897 L 575.471 251.460 C 575.495 251.410 575.554 251.388 575.604 251.411 L 578.233 252.637 C 578.323 252.679 578.190 252.727 578.233 252.637 L 580.684 247.380 C 580.726 247.290 580.774 247.422 580.684 247.380 L 578.056 246.155 C 578.005 246.131 577.984 246.072 578.007 246.022 L 580.543 240.584 C 580.566 240.534 580.626 240.512 580.676 240.536 L 583.304 241.761 C 583.395 241.803 583.262 241.852 583.304 241.761 L 585.755 236.505 C 585.797 236.414 585.846 236.547 585.755 236.505 L 583.127 235.279 C 583.077 235.256 583.055 235.196 583.079 235.146 L 585.614 229.708 C 585.638 229.658 585.697 229.637 585.747 229.660 L 588.375 230.885 C 588.466 230.928 588.333 230.976 588.375 230.885 L 590.827 225.629 C 590.869 225.538 590.917 225.671 590.827 225.629 L 588.198 224.403 C 588.148 224.380 588.127 224.320 588.150 224.270 L 590.686 218.833 C 590.709 218.782 590.769 218.761 590.819 218.784 L 593.447 220.010 C 593.538 220.052 593.405 220.100 593.447 220.010 L 595.898 214.753 C 595.940 214.663 595.989 214.795 595.898 214.753 L 593.270 213.528 C 593.220 213.504 593.198 213.445 593.221 213.395 L 595.757 207.957 C 595.780 207.907 595.840 207.885 595.890 207.908 L 598.518 209.134 C 598.609 209.176 598.476 209.225 598.518 209.134 L 600.969 203.877 C 601.012 203.787 601.060 203.920 600.969 203.877 L 598.341 202.652 C 598.291 202.629 598.269 202.569 598.293 202.519 L 600.829 197.081 C 600.852 197.031 600.911 197.009 600.961 197.033 L 603.590 198.258 C 603.680 198.301 603.547 198.349 603.590 198.258 L 606.041 193.002 C 606.083 192.911 606.132 193.044 606.041 193.002 L 603.413 191.776 C 603.363 191.753 603.341 191.693 603.364 191.643 L 605.900 186.205 C 605.923 186.155 605.983 186.134 606.033 186.157 L 608.661 187.383 C 608.752 187.425 608.619 187.473 608.661 187.383 L 613.268 177.504 C 613.275 177.487 613.287 177.473 613.302 177.463 C 613.317 177.453 613.335 177.447 613.353 177.446 C 613.371 177.445 613.389 177.449 613.405 177.458 C 613.421 177.466 613.435 177.479 613.444 177.495 C 613.453 177.510 613.458 177.528 613.458 177.546 V 304.429 C 613.458 304.484 613.414 304.529 613.358 304.529" stroke="rgb(0,0,0)" stroke-width="0.20" />
</g>
<g id="p-5" style="fill:none;stroke-linecap:round;stroke-linejoin:round;">
  <text alignment-baseline="hanging" font-size="4px" style="font-family: sans-serif ; font-weight: normal; font-style: normal; fill: rgb(255,0,0)" text-anchor="middle" transform="matrix( 1.000 0.000 0.000 1.000 654.158 239.088 )" /><path d="M 615.058 304.529 H 674.225 C 674.239 304.529 674.254 304.526 674.267 304.520 C 677.624 302.955 680.510 300.533 682.634 297.499 C 684.758 294.465 686.047 290.926 686.370 287.236 C 686.692 283.546 686.038 279.836 684.473 276.480 L 674.330 254.728 C 674.100 254.235 673.744 253.811 673.299 253.499 C 672.853 253.187 672.333 252.998 671.791 252.950 C 671.249 252.903 670.704 252.999 670.210 253.229 C 669.717 253.459 669.293 253.814 668.981 254.260 C 668.669 254.706 668.480 255.226 668.432 255.768 C 668.385 256.310 668.481 256.855 668.711 257.348 L 670.613 261.427 C 670.642 261.490 670.655 261.561 670.649 261.631 C 670.643 261.701 670.618 261.768 670.578 261.825 C 670.538 261.883 670.483 261.929 670.419 261.958 L 657.369 268.044 C 657.278 268.086 657.411 268.135 657.369 268.044 L 652.804 258.256 C 652.762 258.165 652.714 258.298 652.804 258.256 L 655.433 257.030 C 655.483 257.007 655.504 256.947 655.481 256.897 L 652.945 251.460 C 652.922 251.410 652.862 251.388 652.812 251.411 L 650.184 252.637 C 650.093 252.679 650.226 252.727 650.184 252.637 L 647.733 247.380 C 647.691 247.290 647.642 247.422 647.733 247.380 L 650.361 246.155 C 650.411 246.131 650.433 246.072 650.409 246.022 L 647.874 240.584 C 647.850 240.534 647.791 240.512 647.741 240.536 L 645.113 241.761 C 645.022 241.803 645.155 241.852 645.113 241.761 L 642.661 236.505 C 642.619 236.414 642.571 236.547 642.661 236.505 L 645.290 235.279 C 645.340 235.256 645.361 235.196 645.338 235.146 L 642.802 229.708 C 642.779 229.658 642.720 229.637 642.669 229.660 L 640.041 230.885 C 639.951 230.928 640.083 230.976 640.041 230.885 L 637.590 225.629 C 637.548 225.538 637.499 225.671 637.590 225.629 L 640.218 224.403 C 640.268 224.380 640.290 224.320 640.267 224.270 L 637.731 218.833 C 637.708 218.782 637.648 218.761 637.598 218.784 L 634.970 220.010 C 634.879 220.052 635.012 220.100 634.970 220.010 L 632.519 214.753 C 632.476 214.663 632.428 214.795 632.519 214.753 L 635.147 213.528 C 635.197 213.504 635.219 213.445 635.195 213.395 L 632.660 207.957 C 632.636 207.907 632.577 207.885 632.527 207.908 L 629.898 209.134 C 629.808 209.176 629.941 209.225 629.898 209.134 L 627.447 203.877 C 627.405 203.787 627.357 203.920 627.447 203.877 L 630.075 202.652 C 630.125 202.629 630.147 202.569 630.124 202.519 L 627.588 197.081 C 627.565 197.031 627.505 197.009 627.455 197.033 L 624.827 198.258 C 624.736 198.301 624.869 198.349 624.827 198.258 L 622.376 193.002 C 622.333 192.911 622.285 193.044 622.376 193.002 L 625.004 191.776 C 625.054 191.753 625.076 191.693 625.052 191.643 L 622.517 186.205 C 622.493 186.155 622.434 186.134 622.384 186.157 L 619.755 187.383 C 619.665 187.425 619.798 187.473 619.755 187.383 L 615.149 177.504 C 615.141 177.487 615.129 177.473 615.114 177.463 C 615.099 177.453 615.082 177.447 615.064 177.446 C 615.045 177.445 615.027 177.449 615.011 177.458 C 614.995 177.466 614.982 177.479 614.973 177.495 C 614.963 177.510 614.958 177.528 614.958 177.546 V 304.429 C 614.958 304.484 615.003 304.529 615.058 304.529" stroke="rgb(0,0,0)" stroke-width="0.20" />
</g>
</svg>