<?xml version="1.0" encoding="UTF-8" standalone="no"?>
<!DOCTYPE svg PUBLIC "-//W3C//DTD SVG 1.1//EN" "http://www.w3.org/Graphics/SVG/1.1/DTD/svg11.dtd">
<svg width="100%" height="100%" viewBox="0 0 1974 925" version="1.1" xmlns="http://www.w3.org/2000/svg" xmlns:xlink="http://www.w3.org/1999/xlink" xml:space="preserve" xmlns:serif="http://www.serif.com/" style="fill-rule:evenodd;clip-rule:evenodd;stroke-linecap:round;stroke-linejoin:round;">
    <g id="p-0">
    </g>
    <g id="p-1">
        <g transform="matrix(1,0,0,1,14.0157,0)">
            <path d="M197.008,701.657L197.008,718.098C197.008,718.381 197.291,718.098 197.008,718.098L189.071,718.098C188.787,718.098 189.071,718.381 189.071,718.098L189.071,701.657C189.071,701.374 188.787,701.657 189.071,701.657L197.008,701.657C197.291,701.657 197.008,701.374 197.008,701.657Z" style="fill:none;fill-rule:nonzero;stroke:rgb(0,0,255);stroke-width:0.57px;"/>
        </g>
        <g transform="matrix(1,0,0,1,14.0157,0)">
            <path d="M197.008,667.641L197.008,684.082C197.008,684.366 197.291,684.082 197.008,684.082L189.071,684.082C188.787,684.082 189.071,684.366 189.071,684.082L189.071,667.641C189.071,667.358 188.787,667.641 189.071,667.641L197.008,667.641C197.291,667.641 197.008,667.358 197.008,667.641Z" style="fill:none;fill-rule:nonzero;stroke:rgb(0,0,255);stroke-width:0.57px;"/>
        </g>
        <g transform="matrix(1,0,0,1,14.0157,0)">
            <path d="M197.008,633.626L197.008,650.066C197.008,650.35 197.291,650.066 197.008,650.066L189.071,650.066C188.787,650.066 189.071,650.35 189.071,650.066L189.071,633.626C189.071,633.342 188.787,633.626 189.071,633.626L197.008,633.626C197.291,633.626 197.008,633.342 197.008,633.626Z" style="fill:none;fill-rule:nonzero;stroke:rgb(0,0,255);stroke-width:0.57px;"/>
        </g>
        <g transform="matrix(1,0,0,1,14.0157,0)">
            <path d="M197.008,599.61L197.008,616.051C197.008,616.334 197.291,616.051 197.008,616.051L189.071,616.051C188.787,616.051 189.071,616.334 189.071,616.051L189.071,599.61C189.071,599.326 188.787,599.61 189.071,599.61L197.008,599.61C197.291,599.61 197.008,599.326 197.008,599.61Z" style="fill:none;fill-rule:nonzero;stroke:rgb(0,0,255);stroke-width:0.57px;"/>
        </g>
        <g transform="matrix(1,0,0,1,14.0157,0)">
            <path d="M197.008,565.594L197.008,582.035C197.008,582.318 197.291,582.035 197.008,582.035L189.071,582.035C188.787,582.035 189.071,582.318 189.071,582.035L189.071,565.594C189.071,565.311 188.787,565.594 189.071,565.594L197.008,565.594C197.291,565.594 197.008,565.311 197.008,565.594Z" style="fill:none;fill-rule:nonzero;stroke:rgb(0,0,255);stroke-width:0.57px;"/>
        </g>
        <g transform="matrix(1,0,0,1,14.0157,0)">
            <path d="M197.008,531.578L197.008,548.019C197.008,548.303 197.291,548.019 197.008,548.019L189.071,548.019C188.787,548.019 189.071,548.303 189.071,548.019L189.071,531.578C189.071,531.295 188.787,531.578 189.071,531.578L197.008,531.578C197.291,531.578 197.008,531.295 197.008,531.578Z" style="fill:none;fill-rule:nonzero;stroke:rgb(0,0,255);stroke-width:0.57px;"/>
        </g>
        <g transform="matrix(1,0,0,1,-28.2205,0)">
            <path d="M239.244,497.563L239.244,514.003C239.244,514.287 239.528,514.003 239.244,514.003L231.307,514.003C231.024,514.003 231.307,514.287 231.307,514.003L231.307,497.563C231.307,497.279 231.024,497.563 231.307,497.563L239.244,497.563C239.528,497.563 239.244,497.279 239.244,497.563Z" style="fill:none;fill-rule:nonzero;stroke:rgb(0,0,255);stroke-width:0.57px;"/>
        </g>
        <path d="M389.764,701.657L389.764,718.098C389.764,718.381 390.047,718.098 389.764,718.098L381.827,718.098C381.543,718.098 381.827,718.381 381.827,718.098L381.827,701.657C381.827,701.374 381.543,701.657 381.827,701.657L389.764,701.657C390.047,701.657 389.764,701.374 389.764,701.657Z" style="fill:none;fill-rule:nonzero;stroke:rgb(0,0,255);stroke-width:0.57px;"/>
        <path d="M389.764,667.641L389.764,684.082C389.764,684.366 390.047,684.082 389.764,684.082L381.827,684.082C381.543,684.082 381.827,684.366 381.827,684.082L381.827,667.641C381.827,667.358 381.543,667.641 381.827,667.641L389.764,667.641C390.047,667.641 389.764,667.358 389.764,667.641Z" style="fill:none;fill-rule:nonzero;stroke:rgb(0,0,255);stroke-width:0.57px;"/>
        <path d="M389.764,633.626L389.764,650.066C389.764,650.35 390.047,650.066 389.764,650.066L381.827,650.066C381.543,650.066 381.827,650.35 381.827,650.066L381.827,633.626C381.827,633.342 381.543,633.626 381.827,633.626L389.764,633.626C390.047,633.626 389.764,633.342 389.764,633.626Z" style="fill:none;fill-rule:nonzero;stroke:rgb(0,0,255);stroke-width:0.57px;"/>
        <path d="M389.764,599.61L389.764,616.051C389.764,616.334 390.047,616.051 389.764,616.051L381.827,616.051C381.543,616.051 381.827,616.334 381.827,616.051L381.827,599.61C381.827,599.326 381.543,599.61 381.827,599.61L389.764,599.61C390.047,599.61 389.764,599.326 389.764,599.61Z" style="fill:none;fill-rule:nonzero;stroke:rgb(0,0,255);stroke-width:0.57px;"/>
        <path d="M389.764,565.594L389.764,582.035C389.764,582.318 390.047,582.035 389.764,582.035L381.827,582.035C381.543,582.035 381.827,582.318 381.827,582.035L381.827,565.594C381.827,565.311 381.543,565.594 381.827,565.594L389.764,565.594C390.047,565.594 389.764,565.311 389.764,565.594Z" style="fill:none;fill-rule:nonzero;stroke:rgb(0,0,255);stroke-width:0.57px;"/>
        <path d="M389.764,531.578L389.764,548.019C389.764,548.303 390.047,548.019 389.764,548.019L381.827,548.019C381.543,548.019 381.827,548.303 381.827,548.019L381.827,531.578C381.827,531.295 381.543,531.578 381.827,531.578L389.764,531.578C390.047,531.578 389.764,531.295 389.764,531.578Z" style="fill:none;fill-rule:nonzero;stroke:rgb(0,0,255);stroke-width:0.57px;"/>
        <path d="M389.764,497.563L389.764,514.003C389.764,514.287 390.047,514.003 389.764,514.003L381.827,514.003C381.543,514.003 381.827,514.287 381.827,514.003L381.827,497.563C381.827,497.279 381.543,497.563 381.827,497.563L389.764,497.563C390.047,497.563 389.764,497.279 389.764,497.563Z" style="fill:none;fill-rule:nonzero;stroke:rgb(0,0,255);stroke-width:0.57px;"/>
        <path d="M37.134,863.232L202.961,863.232C203.117,863.232 203.244,863.104 203.244,862.948L203.244,749.846C203.244,749.563 202.961,749.846 203.244,749.846L211.181,749.846C211.465,749.846 211.181,749.563 211.181,749.846L211.181,862.948C211.181,863.104 211.309,863.232 211.465,863.232L165.386,863.232C165.542,863.232 165.669,863.104 165.669,862.948L165.669,848.775C165.669,847.582 165.984,846.408 166.582,845.374C167.177,844.339 168.036,843.48 169.071,842.885C170.105,842.287 171.279,841.972 172.472,841.972C173.666,841.972 174.839,842.287 175.874,842.885C176.908,843.48 177.767,844.339 178.363,845.374C178.961,846.408 179.275,847.582 179.275,848.775L179.275,862.948C179.275,863.104 179.403,863.232 179.559,863.232L381.543,863.232C381.699,863.232 381.827,863.104 381.827,862.948L381.827,749.846C381.827,749.563 381.543,749.846 381.827,749.846L389.764,749.846C390.047,749.846 389.764,749.563 389.764,749.846L389.764,862.948C389.764,863.104 389.891,863.232 390.047,863.232L536.031,863.232C536.187,863.232 536.315,863.104 536.315,862.948L536.315,831.767C536.315,831.611 536.187,831.484 536.031,831.484L527.811,831.484C527.528,831.484 527.811,831.767 527.811,831.484L527.811,815.043C527.811,814.759 527.528,815.043 527.811,815.043L536.031,815.043C536.187,815.043 536.315,814.915 536.315,814.759L536.315,797.751C536.315,797.596 536.187,797.468 536.031,797.468L527.811,797.468C527.528,797.468 527.811,797.751 527.811,797.468L527.811,781.027C527.811,780.744 527.528,781.027 527.811,781.027L536.031,781.027C536.187,781.027 536.315,780.9 536.315,780.744L536.315,749.563C536.315,749.407 536.187,749.279 536.031,749.279L527.811,749.279C527.528,749.279 527.811,749.563 527.811,749.279L527.811,718.665C527.811,718.381 527.528,718.665 527.811,718.665L536.031,718.665C536.187,718.665 536.315,718.537 536.315,718.381L536.315,701.374C536.315,701.218 536.187,701.09 536.031,701.09L527.811,701.09C527.528,701.09 527.811,701.374 527.811,701.09L527.811,684.649C527.811,684.366 527.528,684.649 527.811,684.649L536.031,684.649C536.187,684.649 536.315,684.522 536.315,684.366L536.315,667.358C536.315,667.202 536.187,667.074 536.031,667.074L527.811,667.074C527.528,667.074 527.811,667.358 527.811,667.074L527.811,650.633C527.811,650.35 527.528,650.633 527.811,650.633L536.031,650.633C536.187,650.633 536.315,650.506 536.315,650.35L536.315,633.342C536.315,633.186 536.187,633.059 536.031,633.059L527.811,633.059C527.528,633.059 527.811,633.342 527.811,633.059L527.811,616.618C527.811,616.334 527.528,616.618 527.811,616.618L536.031,616.618C536.187,616.618 536.315,616.49 536.315,616.334L536.315,599.326C536.315,599.17 536.187,599.043 536.031,599.043L527.811,599.043C527.528,599.043 527.811,599.326 527.811,599.043L527.811,582.602C527.811,582.318 527.528,582.602 527.811,582.602L536.031,582.602C536.187,582.602 536.315,582.474 536.315,582.318L536.315,565.311C536.315,565.155 536.187,565.027 536.031,565.027L527.811,565.027C527.528,565.027 527.811,565.311 527.811,565.027L527.811,548.586C527.811,548.303 527.528,548.586 527.811,548.586L536.031,548.586C536.187,548.586 536.315,548.459 536.315,548.303L536.315,531.295C536.315,531.139 536.187,531.011 536.031,531.011L527.811,531.011C527.528,531.011 527.811,531.295 527.811,531.011L527.811,514.57C527.811,514.287 527.528,514.57 527.811,514.57L536.031,514.57C536.187,514.57 536.315,514.443 536.315,514.287L536.315,497.279C536.315,497.123 536.187,496.996 536.031,496.996L527.811,496.996C527.528,496.996 527.811,497.279 527.811,496.996L527.811,466.381C527.811,466.098 527.528,466.381 527.811,466.381L536.031,466.381C536.187,466.381 536.315,466.254 536.315,466.098L536.315,449.09C536.315,448.934 536.187,448.807 536.031,448.807L527.811,448.807C527.528,448.807 527.811,449.09 527.811,448.807L527.811,432.366C527.811,432.082 527.528,432.366 527.811,432.366L536.031,432.366C536.187,432.366 536.315,432.238 536.315,432.082L536.315,415.074C536.315,414.918 536.187,414.791 536.031,414.791L527.811,414.791C527.528,414.791 527.811,415.074 527.811,414.791L527.811,398.35C527.811,398.066 527.528,398.35 527.811,398.35L536.031,398.35C536.187,398.35 536.315,398.222 536.315,398.066L536.315,381.059C536.315,380.903 536.187,380.775 536.031,380.775L527.811,380.775C527.528,380.775 527.811,381.059 527.811,380.775L527.811,364.334C527.811,364.051 527.528,364.334 527.811,364.334L536.031,364.334C536.187,364.334 536.315,364.207 536.315,364.051L536.315,347.043C536.315,346.887 536.187,346.759 536.031,346.759L527.811,346.759C527.528,346.759 527.811,347.043 527.811,346.759L527.811,330.318C527.811,330.035 527.528,330.318 527.811,330.318L536.031,330.318C536.187,330.318 536.315,330.191 536.315,330.035L536.315,313.027C536.315,312.871 536.187,312.744 536.031,312.744L527.811,312.744C527.528,312.744 527.811,313.027 527.811,312.744L527.811,296.303C527.811,296.019 527.528,296.303 527.811,296.303L536.031,296.303C536.187,296.303 536.315,296.175 536.315,296.019L536.315,279.011C536.315,278.855 536.187,278.728 536.031,278.728L527.811,278.728C527.528,278.728 527.811,279.011 527.811,278.728L527.811,262.287C527.811,262.003 527.528,262.287 527.811,262.287L536.031,262.287C536.187,262.287 536.315,262.159 536.315,262.003L536.315,244.996C536.315,244.84 536.187,244.712 536.031,244.712L527.811,244.712C527.528,244.712 527.811,244.996 527.811,244.712L527.811,228.271C527.811,227.988 527.528,228.271 527.811,228.271L536.031,228.271C536.187,228.271 536.315,228.144 536.315,227.988L536.315,210.98C536.315,210.824 536.187,210.696 536.031,210.696L527.811,210.696C527.528,210.696 527.811,210.98 527.811,210.696L527.811,194.255C527.811,193.972 527.528,194.255 527.811,194.255L536.031,194.255C536.187,194.255 536.315,194.128 536.315,193.972L536.315,176.964C536.315,176.808 536.187,176.681 536.031,176.681L527.811,176.681C527.528,176.681 527.811,176.964 527.811,176.681L527.811,160.24C527.811,159.956 527.528,160.24 527.811,160.24L536.031,160.24C536.187,160.24 536.315,160.112 536.315,159.956L536.315,142.948C536.315,142.792 536.187,142.665 536.031,142.665L527.811,142.665C527.528,142.665 527.811,142.948 527.811,142.665L527.811,126.224C527.811,125.94 527.528,126.224 527.811,126.224L536.031,126.224C536.187,126.224 536.315,126.096 536.315,125.94L536.315,108.933C536.315,108.777 536.187,108.649 536.031,108.649L527.811,108.649C527.528,108.649 527.811,108.933 527.811,108.649L527.811,92.208C527.811,91.925 527.528,92.208 527.811,92.208L536.031,92.208C536.187,92.208 536.315,92.081 536.315,91.925L536.315,74.917C536.315,74.761 536.187,74.633 536.031,74.633L527.811,74.633C527.528,74.633 527.811,74.917 527.811,74.633L527.811,58.192C527.811,57.909 527.528,58.192 527.811,58.192L536.031,58.192C536.187,58.192 536.315,58.065 536.315,57.909L536.315,40.901C536.315,40.745 536.187,40.618 536.031,40.618L28.63,40.618C28.474,40.618 28.346,40.745 28.346,40.901L28.346,57.909C28.346,58.065 28.474,58.192 28.63,58.192L36.85,58.192C37.134,58.192 36.85,57.909 36.85,58.192L36.85,74.633C36.85,74.917 37.134,74.633 36.85,74.633L28.63,74.633C28.474,74.633 28.346,74.761 28.346,74.917L28.346,91.925C28.346,92.081 28.474,92.208 28.63,92.208L36.85,92.208C37.134,92.208 36.85,91.925 36.85,92.208L36.85,108.649C36.85,108.933 37.134,108.649 36.85,108.649L28.63,108.649C28.474,108.649 28.346,108.777 28.346,108.933L28.346,125.94C28.346,126.096 28.474,126.224 28.63,126.224L36.85,126.224C37.134,126.224 36.85,125.94 36.85,126.224L36.85,142.665C36.85,142.948 37.134,142.665 36.85,142.665L28.63,142.665C28.474,142.665 28.346,142.792 28.346,142.948L28.346,159.956C28.346,160.112 28.474,160.24 28.63,160.24L36.85,160.24C37.134,160.24 36.85,159.956 36.85,160.24L36.85,176.681C36.85,176.964 37.134,176.681 36.85,176.681L28.63,176.681C28.474,176.681 28.346,176.808 28.346,176.964L28.346,193.972C28.346,194.128 28.474,194.255 28.63,194.255L36.85,194.255C37.134,194.255 36.85,193.972 36.85,194.255L36.85,210.696C36.85,210.98 37.134,210.696 36.85,210.696L28.63,210.696C28.474,210.696 28.346,210.824 28.346,210.98L28.346,227.988C28.346,228.144 28.474,228.271 28.63,228.271L36.85,228.271C37.134,228.271 36.85,227.988 36.85,228.271L36.85,244.712C36.85,244.996 37.134,244.712 36.85,244.712L28.63,244.712C28.474,244.712 28.346,244.84 28.346,244.996L28.346,262.003C28.346,262.159 28.474,262.287 28.63,262.287L36.85,262.287C37.134,262.287 36.85,262.003 36.85,262.287L36.85,278.728C36.85,279.011 37.134,278.728 36.85,278.728L28.63,278.728C28.474,278.728 28.346,278.855 28.346,279.011L28.346,296.019C28.346,296.175 28.474,296.303 28.63,296.303L36.85,296.303C37.134,296.303 36.85,296.019 36.85,296.303L36.85,312.744C36.85,313.027 37.134,312.744 36.85,312.744L28.63,312.744C28.474,312.744 28.346,312.871 28.346,313.027L28.346,330.035C28.346,330.191 28.474,330.318 28.63,330.318L36.85,330.318C37.134,330.318 36.85,330.035 36.85,330.318L36.85,346.759C36.85,347.043 37.134,346.759 36.85,346.759L28.63,346.759C28.474,346.759 28.346,346.887 28.346,347.043L28.346,364.051C28.346,364.207 28.474,364.334 28.63,364.334L36.85,364.334C37.134,364.334 36.85,364.051 36.85,364.334L36.85,380.775C36.85,381.059 37.134,380.775 36.85,380.775L28.63,380.775C28.474,380.775 28.346,380.903 28.346,381.059L28.346,398.066C28.346,398.222 28.474,398.35 28.63,398.35L36.85,398.35C37.134,398.35 36.85,398.066 36.85,398.35L36.85,414.791C36.85,415.074 37.134,414.791 36.85,414.791L28.63,414.791C28.474,414.791 28.346,414.918 28.346,415.074L28.346,432.082C28.346,432.238 28.474,432.366 28.63,432.366L36.85,432.366C37.134,432.366 36.85,432.082 36.85,432.366L36.85,448.807C36.85,449.09 37.134,448.807 36.85,448.807L28.63,448.807C28.474,448.807 28.346,448.934 28.346,449.09L28.346,466.098C28.346,466.254 28.474,466.381 28.63,466.381L36.85,466.381C37.134,466.381 36.85,466.098 36.85,466.381L36.85,496.996C36.85,497.279 37.134,496.996 36.85,496.996L28.63,496.996C28.474,496.996 28.346,497.123 28.346,497.279L28.346,514.287C28.346,514.443 28.474,514.57 28.63,514.57L36.85,514.57C37.134,514.57 36.85,514.287 36.85,514.57L36.85,531.011C36.85,531.295 37.134,531.011 36.85,531.011L28.63,531.011C28.474,531.011 28.346,531.139 28.346,531.295L28.346,548.303C28.346,548.459 28.474,548.586 28.63,548.586L36.85,548.586C37.134,548.586 36.85,548.303 36.85,548.586L36.85,565.027C36.85,565.311 37.134,565.027 36.85,565.027L28.63,565.027C28.474,565.027 28.346,565.155 28.346,565.311L28.346,582.318C28.346,582.474 28.474,582.602 28.63,582.602L36.85,582.602C37.134,582.602 36.85,582.318 36.85,582.602L36.85,599.043C36.85,599.326 37.134,599.043 36.85,599.043L28.63,599.043C28.474,599.043 28.346,599.17 28.346,599.326L28.346,616.334C28.346,616.49 28.474,616.618 28.63,616.618L36.85,616.618C37.134,616.618 36.85,616.334 36.85,616.618L36.85,633.059C36.85,633.342 37.134,633.059 36.85,633.059L28.63,633.059C28.474,633.059 28.346,633.186 28.346,633.342L28.346,650.35C28.346,650.506 28.474,650.633 28.63,650.633L36.85,650.633C37.134,650.633 36.85,650.35 36.85,650.633L36.85,667.074C36.85,667.358 37.134,667.074 36.85,667.074L28.63,667.074C28.474,667.074 28.346,667.202 28.346,667.358L28.346,684.366C28.346,684.522 28.474,684.649 28.63,684.649L36.85,684.649C37.134,684.649 36.85,684.366 36.85,684.649L36.85,701.09C36.85,701.374 37.134,701.09 36.85,701.09L28.63,701.09C28.474,701.09 28.346,701.218 28.346,701.374L28.346,718.381C28.346,718.537 28.474,718.665 28.63,718.665L36.85,718.665C37.134,718.665 36.85,718.381 36.85,718.665L36.85,749.279C36.85,749.563 37.134,749.279 36.85,749.279L28.63,749.279C28.474,749.279 28.346,749.407 28.346,749.563L28.346,780.744C28.346,780.9 28.474,781.027 28.63,781.027L36.85,781.027C37.134,781.027 36.85,780.744 36.85,781.027L36.85,797.468C36.85,797.751 37.134,797.468 36.85,797.468L28.63,797.468C28.474,797.468 28.346,797.596 28.346,797.751L28.346,814.759C28.346,814.915 28.474,815.043 28.63,815.043L36.85,815.043C37.134,815.043 36.85,814.759 36.85,815.043L36.85,831.484C36.85,831.767 37.134,831.484 36.85,831.484L28.63,831.484C28.474,831.484 28.346,831.611 28.346,831.767L28.346,862.948C28.346,863.104 28.474,863.232 28.63,863.232L37.134,863.232" style="fill:none;fill-rule:nonzero;stroke:black;stroke-width:0.57px;"/>
    </g>
    <g id="p-2">
        <path d="M549.354,863.232L778.961,863.232C779.117,863.232 779.244,863.104 779.244,862.948C779.244,863.104 779.117,863.232 778.961,863.232L787.465,863.232C787.309,863.232 787.181,863.104 787.181,862.948C787.181,863.104 787.309,863.232 787.465,863.232C787.62,863.232 787.748,863.104 787.748,862.948L787.748,848.775C787.748,847.582 788.063,846.408 788.661,845.374C789.256,844.339 790.115,843.48 791.15,842.885C792.184,842.287 793.358,841.972 794.551,841.972C795.745,841.972 796.918,842.287 797.953,842.885C798.987,843.48 799.846,844.339 800.442,845.374C801.04,846.408 801.354,847.582 801.354,848.775L801.354,862.948C801.354,863.104 801.482,863.232 801.638,863.232C801.794,863.232 801.921,863.104 801.921,862.948C801.921,863.104 801.794,863.232 801.638,863.232L810.142,863.232C809.986,863.232 809.858,863.104 809.858,862.948C809.858,863.104 809.986,863.232 810.142,863.232L1048.25,863.232C1048.41,863.232 1048.54,863.104 1048.54,862.948L1048.54,839.098C1048.54,838.939 1048.41,838.814 1048.25,838.814L1040.03,838.814C1039.75,838.814 1040.03,839.098 1040.03,838.814L1040.03,822.373C1040.03,822.09 1039.75,822.373 1040.03,822.373L1048.25,822.373C1048.41,822.373 1048.54,822.246 1048.54,822.09L1048.54,805.082C1048.54,804.923 1048.41,804.798 1048.25,804.798L1040.03,804.798C1039.75,804.798 1040.03,805.082 1040.03,804.798L1040.03,788.357C1040.03,788.074 1039.75,788.357 1040.03,788.357L1048.25,788.357C1048.41,788.357 1048.54,788.23 1048.54,788.074L1048.54,771.066C1048.54,770.907 1048.41,770.783 1048.25,770.783L1040.03,770.783C1039.75,770.783 1040.03,771.066 1040.03,770.783L1040.03,754.342C1040.03,754.058 1039.75,754.342 1040.03,754.342L1048.25,754.342C1048.41,754.342 1048.54,754.214 1048.54,754.058L1048.54,737.05C1048.54,736.892 1048.41,736.767 1048.25,736.767L1040.03,736.767C1039.75,736.767 1040.03,737.05 1040.03,736.767L1040.03,720.326C1040.03,720.043 1039.75,720.326 1040.03,720.326L1048.25,720.326C1048.41,720.326 1048.54,720.198 1048.54,720.043L1048.54,703.035C1048.54,702.876 1048.41,702.751 1048.25,702.751L1040.03,702.751C1039.75,702.751 1040.03,703.035 1040.03,702.751L1040.03,686.31C1040.03,686.027 1039.75,686.31 1040.03,686.31L1048.25,686.31C1048.41,686.31 1048.54,686.183 1048.54,686.027L1048.54,669.019C1048.54,668.86 1048.41,668.735 1048.25,668.735L1040.03,668.735C1039.75,668.735 1040.03,669.019 1040.03,668.735L1040.03,652.294C1040.03,652.011 1039.75,652.294 1040.03,652.294L1048.25,652.294C1048.41,652.294 1048.54,652.167 1048.54,652.011L1048.54,635.003C1048.54,634.844 1048.41,634.72 1048.25,634.72L1040.03,634.72C1039.75,634.72 1040.03,635.003 1040.03,634.72L1040.03,618.279C1040.03,617.995 1039.75,618.279 1040.03,618.279L1048.25,618.279C1048.41,618.279 1048.54,618.151 1048.54,617.995L1048.54,600.987C1048.54,600.829 1048.41,600.704 1048.25,600.704L1040.03,600.704C1039.75,600.704 1040.03,600.987 1040.03,600.704L1040.03,584.263C1040.03,583.98 1039.75,584.263 1040.03,584.263L1048.25,584.263C1048.41,584.263 1048.54,584.135 1048.54,583.98L1048.54,566.972C1048.54,566.813 1048.41,566.688 1048.25,566.688L1040.03,566.688C1039.75,566.688 1040.03,566.972 1040.03,566.688L1040.03,550.247C1040.03,549.964 1039.75,550.247 1040.03,550.247L1048.25,550.247C1048.41,550.247 1048.54,550.12 1048.54,549.964L1048.54,532.956C1048.54,532.797 1048.41,532.672 1048.25,532.672L1040.03,532.672C1039.75,532.672 1040.03,532.956 1040.03,532.672L1040.03,516.231C1040.03,515.948 1039.75,516.231 1040.03,516.231L1048.25,516.231C1048.41,516.231 1048.54,516.104 1048.54,515.948L1048.54,498.94C1048.54,498.781 1048.41,498.657 1048.25,498.657L1040.03,498.657C1039.75,498.657 1040.03,498.94 1040.03,498.657L1040.03,482.216C1040.03,481.932 1039.75,482.216 1040.03,482.216L1048.25,482.216C1048.41,482.216 1048.54,482.088 1048.54,481.932L1048.54,464.924C1048.54,464.766 1048.41,464.641 1048.25,464.641L1040.03,464.641C1039.75,464.641 1040.03,464.924 1040.03,464.641L1040.03,448.2C1040.03,447.917 1039.75,448.2 1040.03,448.2L1048.25,448.2C1048.41,448.2 1048.54,448.072 1048.54,447.917L1048.54,430.909C1048.54,430.75 1048.41,430.625 1048.25,430.625L1040.03,430.625C1039.75,430.625 1040.03,430.909 1040.03,430.625L1040.03,414.184C1040.03,413.901 1039.75,414.184 1040.03,414.184L1048.25,414.184C1048.41,414.184 1048.54,414.057 1048.54,413.901L1048.54,396.893C1048.54,396.734 1048.41,396.609 1048.25,396.609L1040.03,396.609C1039.75,396.609 1040.03,396.893 1040.03,396.609L1040.03,380.169C1040.03,379.885 1039.75,380.169 1040.03,380.169L1048.25,380.169C1048.41,380.169 1048.54,380.041 1048.54,379.885L1048.54,362.877C1048.54,362.718 1048.41,362.594 1048.25,362.594L1040.03,362.594C1039.75,362.594 1040.03,362.877 1040.03,362.594L1040.03,346.153C1040.03,345.869 1039.75,346.153 1040.03,346.153L1048.25,346.153C1048.41,346.153 1048.54,346.025 1048.54,345.869L1048.54,328.861C1048.54,328.703 1048.41,328.578 1048.25,328.578L1040.03,328.578C1039.75,328.578 1040.03,328.861 1040.03,328.578L1040.03,312.137C1040.03,311.854 1039.75,312.137 1040.03,312.137L1048.25,312.137C1048.41,312.137 1048.54,312.009 1048.54,311.854L1048.54,294.846C1048.54,294.687 1048.41,294.562 1048.25,294.562L1040.03,294.562C1039.75,294.562 1040.03,294.846 1040.03,294.562L1040.03,278.121C1040.03,277.838 1039.75,278.121 1040.03,278.121L1048.25,278.121C1048.41,278.121 1048.54,277.994 1048.54,277.838L1048.54,260.83C1048.54,260.671 1048.41,260.546 1048.25,260.546L1040.03,260.546C1039.75,260.546 1040.03,260.83 1040.03,260.546L1040.03,244.106C1040.03,243.822 1039.75,244.106 1040.03,244.106L1048.25,244.106C1048.41,244.106 1048.54,243.978 1048.54,243.822L1048.54,226.814C1048.54,226.655 1048.41,226.531 1048.25,226.531L1040.03,226.531C1039.75,226.531 1040.03,226.814 1040.03,226.531L1040.03,210.09C1040.03,209.806 1039.75,210.09 1040.03,210.09L1048.25,210.09C1048.41,210.09 1048.54,209.962 1048.54,209.806L1048.54,192.798C1048.54,192.64 1048.41,192.515 1048.25,192.515L1040.03,192.515C1039.75,192.515 1040.03,192.798 1040.03,192.515L1040.03,176.074C1040.03,175.791 1039.75,176.074 1040.03,176.074L1048.25,176.074C1048.41,176.074 1048.54,175.946 1048.54,175.791L1048.54,158.783C1048.54,158.624 1048.41,158.499 1048.25,158.499L1040.03,158.499C1039.75,158.499 1040.03,158.783 1040.03,158.499L1040.03,142.058C1040.03,141.775 1039.75,142.058 1040.03,142.058L1048.25,142.058C1048.41,142.058 1048.54,141.931 1048.54,141.775L1048.54,117.921C1048.54,117.765 1048.41,117.638 1048.25,117.638L540.85,117.638C540.694,117.638 540.567,117.765 540.567,117.921L540.567,141.775C540.567,141.931 540.694,142.058 540.85,142.058L549.071,142.058C549.354,142.058 549.071,141.775 549.071,142.058L549.071,158.499C549.071,158.783 549.354,158.499 549.071,158.499L540.85,158.499C540.694,158.499 540.567,158.624 540.567,158.783L540.567,175.791C540.567,175.946 540.694,176.074 540.85,176.074L549.071,176.074C549.354,176.074 549.071,175.791 549.071,176.074L549.071,192.515C549.071,192.798 549.354,192.515 549.071,192.515L540.85,192.515C540.694,192.515 540.567,192.64 540.567,192.798L540.567,209.806C540.567,209.962 540.694,210.09 540.85,210.09L549.071,210.09C549.354,210.09 549.071,209.806 549.071,210.09L549.071,226.531C549.071,226.814 549.354,226.531 549.071,226.531L540.85,226.531C540.694,226.531 540.567,226.655 540.567,226.814L540.567,243.822C540.567,243.978 540.694,244.106 540.85,244.106L549.071,244.106C549.354,244.106 549.071,243.822 549.071,244.106L549.071,260.546C549.071,260.83 549.354,260.546 549.071,260.546L540.85,260.546C540.694,260.546 540.567,260.671 540.567,260.83L540.567,277.838C540.567,277.994 540.694,278.121 540.85,278.121L549.071,278.121C549.354,278.121 549.071,277.838 549.071,278.121L549.071,294.562C549.071,294.846 549.354,294.562 549.071,294.562L540.85,294.562C540.694,294.562 540.567,294.687 540.567,294.846L540.567,311.854C540.567,312.009 540.694,312.137 540.85,312.137L549.071,312.137C549.354,312.137 549.071,311.854 549.071,312.137L549.071,328.578C549.071,328.861 549.354,328.578 549.071,328.578L540.85,328.578C540.694,328.578 540.567,328.703 540.567,328.861L540.567,345.869C540.567,346.025 540.694,346.153 540.85,346.153L549.071,346.153C549.354,346.153 549.071,345.869 549.071,346.153L549.071,362.594C549.071,362.877 549.354,362.594 549.071,362.594L540.85,362.594C540.694,362.594 540.567,362.718 540.567,362.877L540.567,379.885C540.567,380.041 540.694,380.169 540.85,380.169L549.071,380.169C549.354,380.169 549.071,379.885 549.071,380.169L549.071,396.609C549.071,396.893 549.354,396.609 549.071,396.609L540.85,396.609C540.694,396.609 540.567,396.734 540.567,396.893L540.567,413.901C540.567,414.057 540.694,414.184 540.85,414.184L549.071,414.184C549.354,414.184 549.071,413.901 549.071,414.184L549.071,430.625C549.071,430.909 549.354,430.625 549.071,430.625L540.85,430.625C540.694,430.625 540.567,430.75 540.567,430.909L540.567,447.917C540.567,448.072 540.694,448.2 540.85,448.2L549.071,448.2C549.354,448.2 549.071,447.917 549.071,448.2L549.071,464.641C549.071,464.924 549.354,464.641 549.071,464.641L540.85,464.641C540.694,464.641 540.567,464.766 540.567,464.924L540.567,481.932C540.567,482.088 540.694,482.216 540.85,482.216L549.071,482.216C549.354,482.216 549.071,481.932 549.071,482.216L549.071,498.657C549.071,498.94 549.354,498.657 549.071,498.657L540.85,498.657C540.694,498.657 540.567,498.781 540.567,498.94L540.567,515.948C540.567,516.104 540.694,516.231 540.85,516.231L549.071,516.231C549.354,516.231 549.071,515.948 549.071,516.231L549.071,532.672C549.071,532.956 549.354,532.672 549.071,532.672L540.85,532.672C540.694,532.672 540.567,532.797 540.567,532.956L540.567,549.964C540.567,550.12 540.694,550.247 540.85,550.247L549.071,550.247C549.354,550.247 549.071,549.964 549.071,550.247L549.071,566.688C549.071,566.972 549.354,566.688 549.071,566.688L540.85,566.688C540.694,566.688 540.567,566.813 540.567,566.972L540.567,583.98C540.567,584.135 540.694,584.263 540.85,584.263L549.071,584.263C549.354,584.263 549.071,583.98 549.071,584.263L549.071,600.704C549.071,600.987 549.354,600.704 549.071,600.704L540.85,600.704C540.694,600.704 540.567,600.829 540.567,600.987L540.567,617.995C540.567,618.151 540.694,618.279 540.85,618.279L549.071,618.279C549.354,618.279 549.071,617.995 549.071,618.279L549.071,634.72C549.071,635.003 549.354,634.72 549.071,634.72L540.85,634.72C540.694,634.72 540.567,634.844 540.567,635.003L540.567,652.011C540.567,652.167 540.694,652.294 540.85,652.294L549.071,652.294C549.354,652.294 549.071,652.011 549.071,652.294L549.071,668.735C549.071,669.019 549.354,668.735 549.071,668.735L540.85,668.735C540.694,668.735 540.567,668.86 540.567,669.019L540.567,686.027C540.567,686.183 540.694,686.31 540.85,686.31L549.071,686.31C549.354,686.31 549.071,686.027 549.071,686.31L549.071,702.751C549.071,703.035 549.354,702.751 549.071,702.751L540.85,702.751C540.694,702.751 540.567,702.876 540.567,703.035L540.567,720.043C540.567,720.198 540.694,720.326 540.85,720.326L549.071,720.326C549.354,720.326 549.071,720.043 549.071,720.326L549.071,736.767C549.071,737.05 549.354,736.767 549.071,736.767L540.85,736.767C540.694,736.767 540.567,736.892 540.567,737.05L540.567,754.058C540.567,754.214 540.694,754.342 540.85,754.342L549.071,754.342C549.354,754.342 549.071,754.058 549.071,754.342L549.071,770.783C549.071,771.066 549.354,770.783 549.071,770.783L540.85,770.783C540.694,770.783 540.567,770.907 540.567,771.066L540.567,788.074C540.567,788.23 540.694,788.357 540.85,788.357L549.071,788.357C549.354,788.357 549.071,788.074 549.071,788.357L549.071,804.798C549.071,805.082 549.354,804.798 549.071,804.798L540.85,804.798C540.694,804.798 540.567,804.923 540.567,805.082L540.567,822.09C540.567,822.246 540.694,822.373 540.85,822.373L549.071,822.373C549.354,822.373 549.071,822.09 549.071,822.373L549.071,838.814C549.071,839.098 549.354,838.814 549.071,838.814L540.85,838.814C540.694,838.814 540.567,838.939 540.567,839.098L540.567,862.948C540.567,863.104 540.694,863.232 540.85,863.232L549.354,863.232" style="fill:none;fill-rule:nonzero;stroke:black;stroke-width:0.57px;"/>
    </g>
    <g id="p-3">
        <path d="M1156.25,863.232L1503.66,863.232C1503.82,863.232 1503.95,863.104 1503.95,862.948L1503.95,839.381C1503.95,839.098 1503.66,839.381 1503.95,839.381L1512.17,839.381C1512.33,839.381 1512.45,839.254 1512.45,839.098L1512.45,822.09C1512.45,821.931 1512.33,821.806 1512.17,821.806L1503.95,821.806C1503.66,821.806 1503.95,822.09 1503.95,821.806L1503.95,805.365C1503.95,805.082 1503.66,805.365 1503.95,805.365L1512.17,805.365C1512.33,805.365 1512.45,805.238 1512.45,805.082L1512.45,788.074C1512.45,787.915 1512.33,787.791 1512.17,787.791L1503.95,787.791C1503.66,787.791 1503.95,788.074 1503.95,787.791L1503.95,771.35C1503.95,771.066 1503.66,771.35 1503.95,771.35L1512.17,771.35C1512.33,771.35 1512.45,771.222 1512.45,771.066L1512.45,754.058C1512.45,753.9 1512.33,753.775 1512.17,753.775L1503.95,753.775C1503.66,753.775 1503.95,754.058 1503.95,753.775L1503.95,737.334C1503.95,737.05 1503.66,737.334 1503.95,737.334L1512.17,737.334C1512.33,737.334 1512.45,737.206 1512.45,737.05L1512.45,720.043C1512.45,719.884 1512.33,719.759 1512.17,719.759L1503.95,719.759C1503.66,719.759 1503.95,720.043 1503.95,719.759L1503.95,703.318C1503.95,703.035 1503.66,703.318 1503.95,703.318L1512.17,703.318C1512.33,703.318 1512.45,703.191 1512.45,703.035L1512.45,686.027C1512.45,685.868 1512.33,685.743 1512.17,685.743L1503.95,685.743C1503.66,685.743 1503.95,686.027 1503.95,685.743L1503.95,669.302C1503.95,669.019 1503.66,669.302 1503.95,669.302L1512.17,669.302C1512.33,669.302 1512.45,669.175 1512.45,669.019L1512.45,652.011C1512.45,651.852 1512.33,651.728 1512.17,651.728L1503.95,651.728C1503.66,651.728 1503.95,652.011 1503.95,651.728L1503.95,635.287C1503.95,635.003 1503.66,635.287 1503.95,635.287L1512.17,635.287C1512.33,635.287 1512.45,635.159 1512.45,635.003L1512.45,617.995C1512.45,617.837 1512.33,617.712 1512.17,617.712L1503.95,617.712C1503.66,617.712 1503.95,617.995 1503.95,617.712L1503.95,601.271C1503.95,600.987 1503.66,601.271 1503.95,601.271L1512.17,601.271C1512.33,601.271 1512.45,601.143 1512.45,600.987L1512.45,583.98C1512.45,583.821 1512.33,583.696 1512.17,583.696L1503.95,583.696C1503.66,583.696 1503.95,583.98 1503.95,583.696L1503.95,567.255C1503.95,566.972 1503.66,567.255 1503.95,567.255L1512.17,567.255C1512.33,567.255 1512.45,567.128 1512.45,566.972L1512.45,549.964C1512.45,549.805 1512.33,549.68 1512.17,549.68L1503.95,549.68C1503.66,549.68 1503.95,549.964 1503.95,549.68L1503.95,533.239C1503.95,532.956 1503.66,533.239 1503.95,533.239L1512.17,533.239C1512.33,533.239 1512.45,533.112 1512.45,532.956L1512.45,515.948C1512.45,515.789 1512.33,515.665 1512.17,515.665L1503.95,515.665C1503.66,515.665 1503.95,515.948 1503.95,515.665L1503.95,499.224C1503.95,498.94 1503.66,499.224 1503.95,499.224L1512.17,499.224C1512.33,499.224 1512.45,499.096 1512.45,498.94L1512.45,481.932C1512.45,481.774 1512.33,481.649 1512.17,481.649L1503.95,481.649C1503.66,481.649 1503.95,481.932 1503.95,481.649L1503.95,465.208C1503.95,464.924 1503.66,465.208 1503.95,465.208L1512.17,465.208C1512.33,465.208 1512.45,465.08 1512.45,464.924L1512.45,447.917C1512.45,447.758 1512.33,447.633 1512.17,447.633L1503.95,447.633C1503.66,447.633 1503.95,447.917 1503.95,447.633L1503.95,431.192C1503.95,430.909 1503.66,431.192 1503.95,431.192L1512.17,431.192C1512.33,431.192 1512.45,431.065 1512.45,430.909L1512.45,413.901C1512.45,413.742 1512.33,413.617 1512.17,413.617L1503.95,413.617C1503.66,413.617 1503.95,413.901 1503.95,413.617L1503.95,397.176C1503.95,396.893 1503.66,397.176 1503.95,397.176L1512.17,397.176C1512.33,397.176 1512.45,397.049 1512.45,396.893L1512.45,379.885C1512.45,379.726 1512.33,379.602 1512.17,379.602L1503.95,379.602C1503.66,379.602 1503.95,379.885 1503.95,379.602L1503.95,363.161C1503.95,362.877 1503.66,363.161 1503.95,363.161L1512.17,363.161C1512.33,363.161 1512.45,363.033 1512.45,362.877L1512.45,345.869C1512.45,345.711 1512.33,345.586 1512.17,345.586L1503.95,345.586C1503.66,345.586 1503.95,345.869 1503.95,345.586L1503.95,329.145C1503.95,328.861 1503.66,329.145 1503.95,329.145L1512.17,329.145C1512.33,329.145 1512.45,329.017 1512.45,328.861L1512.45,311.854C1512.45,311.695 1512.33,311.57 1512.17,311.57L1503.95,311.57C1503.66,311.57 1503.95,311.854 1503.95,311.57L1503.95,295.129C1503.95,294.846 1503.66,295.129 1503.95,295.129L1512.17,295.129C1512.33,295.129 1512.45,295.002 1512.45,294.846L1512.45,277.838C1512.45,277.679 1512.33,277.554 1512.17,277.554L1503.95,277.554C1503.66,277.554 1503.95,277.838 1503.95,277.554L1503.95,261.113C1503.95,260.83 1503.66,261.113 1503.95,261.113L1512.17,261.113C1512.33,261.113 1512.45,260.986 1512.45,260.83L1512.45,243.822C1512.45,243.663 1512.33,243.539 1512.17,243.539L1503.95,243.539C1503.66,243.539 1503.95,243.822 1503.95,243.539L1503.95,227.098C1503.95,226.814 1503.66,227.098 1503.95,227.098L1512.17,227.098C1512.33,227.098 1512.45,226.97 1512.45,226.814L1512.45,209.806C1512.45,209.648 1512.33,209.523 1512.17,209.523L1503.95,209.523C1503.66,209.523 1503.95,209.806 1503.95,209.523L1503.95,193.082C1503.95,192.798 1503.66,193.082 1503.95,193.082L1512.17,193.082C1512.33,193.082 1512.45,192.954 1512.45,192.798L1512.45,175.791C1512.45,175.632 1512.33,175.507 1512.17,175.507L1503.95,175.507C1503.66,175.507 1503.95,175.791 1503.95,175.507L1503.95,159.066C1503.95,158.783 1503.66,159.066 1503.95,159.066L1512.17,159.066C1512.33,159.066 1512.45,158.939 1512.45,158.783L1512.45,141.775C1512.45,141.616 1512.33,141.491 1512.17,141.491L1503.95,141.491C1503.66,141.491 1503.95,141.775 1503.95,141.491L1503.95,117.921C1503.95,117.765 1503.82,117.638 1503.66,117.638C1503.55,117.638 1503.45,117.703 1503.41,117.802L1496.34,132.959C1496.22,133.217 1496.6,133.078 1496.34,132.959L1488.89,129.484C1488.75,129.419 1488.58,129.481 1488.51,129.623L1481.32,145.037C1481.26,145.179 1481.32,145.346 1481.46,145.412L1488.91,148.887C1489.17,149.006 1489.03,148.629 1488.91,148.887L1481.96,163.789C1481.85,164.044 1482.22,163.908 1481.96,163.789L1474.52,160.313C1474.37,160.248 1474.2,160.308 1474.14,160.449L1466.95,175.864C1466.88,176.006 1466.94,176.176 1467.09,176.241L1474.54,179.717C1474.79,179.836 1474.66,179.459 1474.54,179.717L1467.59,194.615C1467.47,194.873 1467.85,194.737 1467.59,194.615L1460.14,191.143C1460,191.075 1459.83,191.137 1459.76,191.279L1452.57,206.694C1452.51,206.836 1452.57,207.006 1452.71,207.071L1460.16,210.543C1460.42,210.665 1460.28,210.288 1460.16,210.543L1453.21,225.445C1453.09,225.703 1453.47,225.564 1453.21,225.445L1445.76,221.97C1445.62,221.905 1445.45,221.967 1445.39,222.109L1438.2,237.523C1438.13,237.665 1438.19,237.832 1438.33,237.9L1445.79,241.373C1446.04,241.492 1445.9,241.118 1445.79,241.373L1438.84,256.275C1438.72,256.53 1439.09,256.394 1438.84,256.275L1431.39,252.799C1431.24,252.734 1431.08,252.794 1431.01,252.938L1423.82,268.35C1423.76,268.492 1423.82,268.662 1423.96,268.727L1431.41,272.203C1431.67,272.322 1431.53,271.945 1431.41,272.203L1424.46,287.101C1424.34,287.359 1424.72,287.223 1424.46,287.101L1417.01,283.629C1416.87,283.561 1416.7,283.623 1416.63,283.765L1409.44,299.18C1409.38,299.322 1409.44,299.492 1409.58,299.557L1417.03,303.032C1417.29,303.151 1417.15,302.774 1417.03,303.032L1410.09,317.931C1409.96,318.189 1410.34,318.05 1410.09,317.931L1402.63,314.459C1402.49,314.391 1402.33,314.453 1402.26,314.595L1395.07,330.009C1395,330.151 1395.07,330.318 1395.21,330.386L1402.66,333.859C1402.91,333.978 1402.78,333.604 1402.66,333.859L1395.71,348.761C1395.59,349.016 1395.97,348.88 1395.71,348.761L1388.26,345.285C1388.12,345.22 1387.95,345.283 1387.88,345.424L1380.69,360.836C1380.63,360.978 1380.69,361.148 1380.83,361.213L1388.28,364.689C1388.54,364.808 1388.4,364.431 1388.28,364.689L1381.33,379.59C1381.21,379.845 1381.59,379.709 1381.33,379.59L1373.88,376.115C1373.74,376.05 1373.57,376.109 1373.51,376.251L1366.32,391.666C1366.25,391.808 1366.31,391.978 1366.45,392.043L1373.91,395.518C1374.16,395.637 1374.03,395.26 1373.91,395.518L1366.96,410.417C1366.84,410.675 1367.21,410.536 1366.96,410.417L1359.51,406.945C1359.37,406.877 1359.2,406.939 1359.13,407.081L1351.94,422.495C1351.88,422.637 1351.94,422.804 1352.08,422.872L1359.53,426.345C1359.79,426.467 1359.65,426.09 1359.53,426.345L1352.58,441.247C1352.46,441.505 1352.84,441.366 1352.58,441.247L1345.13,437.771C1344.99,437.706 1344.82,437.769 1344.76,437.91L1337.57,453.325C1337.5,453.467 1337.56,453.634 1337.71,453.699L1345.16,457.174C1345.41,457.294 1345.28,456.917 1345.16,457.174L1338.21,472.076C1338.09,472.331 1338.46,472.195 1338.21,472.076L1330.76,468.601C1330.61,468.536 1330.45,468.595 1330.38,468.737L1323.19,484.152C1323.12,484.294 1323.19,484.464 1323.33,484.529L1330.78,488.004C1331.04,488.123 1330.9,487.746 1330.78,488.004L1323.83,502.903C1323.71,503.161 1324.09,503.025 1323.83,502.903L1316.38,499.431C1310.92,496.885 1304.89,495.822 1298.9,496.346C1292.9,496.871 1287.14,498.966 1282.21,502.418C1277.28,505.874 1273.35,510.562 1270.8,516.019L1179.75,711.269C1177.21,716.726 1176.15,722.755 1176.67,728.753C1177.19,734.751 1179.29,740.506 1182.74,745.438C1186.2,750.37 1190.89,754.305 1196.35,756.85L1203.8,760.323C1204.05,760.445 1203.91,760.068 1203.8,760.323L1190.86,788.068C1190.74,788.326 1191.11,788.19 1190.86,788.068L1183.4,784.596C1183.26,784.531 1183.1,784.59 1183.03,784.732L1175.84,800.147C1175.77,800.289 1175.84,800.459 1175.98,800.524L1183.43,803.999C1183.69,804.118 1183.55,803.741 1183.43,803.999L1176.48,818.898C1176.36,819.156 1176.74,819.017 1176.48,818.898L1169.03,815.426C1168.89,815.357 1168.72,815.42 1168.65,815.562L1161.46,830.976C1161.4,831.118 1161.46,831.285 1161.6,831.353L1169.05,834.826C1169.31,834.948 1169.17,834.571 1169.05,834.826L1155.99,862.829C1155.98,862.866 1155.97,862.909 1155.97,862.948C1155.97,863.104 1156.1,863.232 1156.25,863.232Z" style="fill:none;fill-rule:nonzero;stroke:black;stroke-width:0.57px;"/>
        <path d="M1299.49,535.654L1302.96,528.202C1303.08,527.947 1302.71,528.083 1302.96,528.202L1310.16,531.558C1310.41,531.677 1310.28,531.3 1310.16,531.558L1303.21,546.457C1303.09,546.715 1303.47,546.579 1303.21,546.457L1296.01,543.104C1295.76,542.985 1295.89,543.362 1296.01,543.104L1299.49,535.654Z" style="fill:none;fill-rule:nonzero;stroke:rgb(0,0,255);stroke-width:0.57px;"/>
        <path d="M1285.12,566.481L1288.59,559.032C1288.71,558.774 1288.33,558.913 1288.59,559.032L1295.78,562.385C1296.04,562.507 1295.9,562.13 1295.78,562.385L1288.83,577.287C1288.71,577.545 1289.09,577.406 1288.83,577.287L1281.64,573.934C1281.38,573.812 1281.52,574.189 1281.64,573.934L1285.12,566.481Z" style="fill:none;fill-rule:nonzero;stroke:rgb(0,0,255);stroke-width:0.57px;"/>
        <path d="M1270.74,597.311L1274.21,589.861C1274.33,589.603 1273.95,589.74 1274.21,589.861L1281.4,593.215C1281.66,593.334 1281.53,592.957 1281.4,593.215L1274.46,608.117C1274.34,608.372 1274.71,608.236 1274.46,608.117L1267.27,604.76C1267.01,604.641 1267.14,605.018 1267.27,604.76L1270.74,597.311Z" style="fill:none;fill-rule:nonzero;stroke:rgb(0,0,255);stroke-width:0.57px;"/>
        <path d="M1256.36,628.14L1259.84,620.688C1259.96,620.433 1259.58,620.569 1259.84,620.688L1267.03,624.044C1267.29,624.163 1267.15,623.786 1267.03,624.044L1260.08,638.943C1259.96,639.201 1260.34,639.065 1260.08,638.943L1252.89,635.59C1252.63,635.471 1252.77,635.848 1252.89,635.59L1256.36,628.14Z" style="fill:none;fill-rule:nonzero;stroke:rgb(0,0,255);stroke-width:0.57px;"/>
        <path d="M1241.99,658.967L1245.46,651.518C1245.58,651.26 1245.2,651.399 1245.46,651.518L1252.65,654.871C1252.91,654.993 1252.77,654.616 1252.65,654.871L1245.7,669.773C1245.59,670.031 1245.96,669.892 1245.7,669.773L1238.51,666.42C1238.26,666.298 1238.39,666.675 1238.51,666.42L1241.99,658.967Z" style="fill:none;fill-rule:nonzero;stroke:rgb(0,0,255);stroke-width:0.57px;"/>
        <path d="M1227.61,689.797L1231.08,682.347C1231.21,682.089 1230.83,682.228 1231.08,682.347L1238.28,685.701C1238.54,685.82 1238.4,685.443 1238.28,685.701L1231.33,700.603C1231.21,700.858 1231.59,700.722 1231.33,700.603L1224.14,697.246C1223.88,697.127 1224.02,697.504 1224.14,697.246L1227.61,689.797Z" style="fill:none;fill-rule:nonzero;stroke:rgb(0,0,255);stroke-width:0.57px;"/>
        <path d="M1213.23,720.626L1216.71,713.174C1216.83,712.919 1216.45,713.055 1216.71,713.174L1223.9,716.53C1224.16,716.649 1224.02,716.272 1223.9,716.53L1216.96,731.429C1216.83,731.687 1217.21,731.551 1216.96,731.429L1209.76,728.076C1209.5,727.957 1209.64,728.334 1209.76,728.076L1213.23,720.626Z" style="fill:none;fill-rule:nonzero;stroke:rgb(0,0,255);stroke-width:0.57px;"/>
        <path d="M1456.33,28.346L1108.91,28.346C1108.76,28.346 1108.63,28.474 1108.63,28.63L1108.63,52.2C1108.63,52.483 1108.91,52.2 1108.63,52.2L1100.41,52.2C1100.25,52.2 1100.13,52.325 1100.13,52.483L1100.13,69.491C1100.13,69.647 1100.25,69.775 1100.41,69.775L1108.63,69.775C1108.91,69.775 1108.63,69.491 1108.63,69.775L1108.63,86.216C1108.63,86.499 1108.91,86.216 1108.63,86.216L1100.41,86.216C1100.25,86.216 1100.13,86.34 1100.13,86.499L1100.13,103.507C1100.13,103.663 1100.25,103.791 1100.41,103.791L1108.63,103.791C1108.91,103.791 1108.63,103.507 1108.63,103.791L1108.63,120.231C1108.63,120.515 1108.91,120.231 1108.63,120.231L1100.41,120.231C1100.25,120.231 1100.13,120.356 1100.13,120.515L1100.13,137.523C1100.13,137.679 1100.25,137.806 1100.41,137.806L1108.63,137.806C1108.91,137.806 1108.63,137.523 1108.63,137.806L1108.63,154.247C1108.63,154.531 1108.91,154.247 1108.63,154.247L1100.41,154.247C1100.25,154.247 1100.13,154.372 1100.13,154.531L1100.13,171.539C1100.13,171.694 1100.25,171.822 1100.41,171.822L1108.63,171.822C1108.91,171.822 1108.63,171.539 1108.63,171.822L1108.63,188.263C1108.63,188.546 1108.91,188.263 1108.63,188.263L1100.41,188.263C1100.25,188.263 1100.13,188.388 1100.13,188.546L1100.13,205.554C1100.13,205.71 1100.25,205.838 1100.41,205.838L1108.63,205.838C1108.91,205.838 1108.63,205.554 1108.63,205.838L1108.63,222.279C1108.63,222.562 1108.91,222.279 1108.63,222.279L1100.41,222.279C1100.25,222.279 1100.13,222.403 1100.13,222.562L1100.13,239.57C1100.13,239.726 1100.25,239.854 1100.41,239.854L1108.63,239.854C1108.91,239.854 1108.63,239.57 1108.63,239.854L1108.63,256.294C1108.63,256.578 1108.91,256.294 1108.63,256.294L1100.41,256.294C1100.25,256.294 1100.13,256.419 1100.13,256.578L1100.13,273.586C1100.13,273.742 1100.25,273.869 1100.41,273.869L1108.63,273.869C1108.91,273.869 1108.63,273.586 1108.63,273.869L1108.63,290.31C1108.63,290.594 1108.91,290.31 1108.63,290.31L1100.41,290.31C1100.25,290.31 1100.13,290.435 1100.13,290.594L1100.13,307.602C1100.13,307.757 1100.25,307.885 1100.41,307.885L1108.63,307.885C1108.91,307.885 1108.63,307.602 1108.63,307.885L1108.63,324.326C1108.63,324.609 1108.91,324.326 1108.63,324.326L1100.41,324.326C1100.25,324.326 1100.13,324.451 1100.13,324.609L1100.13,341.617C1100.13,341.773 1100.25,341.901 1100.41,341.901L1108.63,341.901C1108.91,341.901 1108.63,341.617 1108.63,341.901L1108.63,358.342C1108.63,358.625 1108.91,358.342 1108.63,358.342L1100.41,358.342C1100.25,358.342 1100.13,358.466 1100.13,358.625L1100.13,375.633C1100.13,375.789 1100.25,375.917 1100.41,375.917L1108.63,375.917C1108.91,375.917 1108.63,375.633 1108.63,375.917L1108.63,392.357C1108.63,392.641 1108.91,392.357 1108.63,392.357L1100.41,392.357C1100.25,392.357 1100.13,392.482 1100.13,392.641L1100.13,409.649C1100.13,409.805 1100.25,409.932 1100.41,409.932L1108.63,409.932C1108.91,409.932 1108.63,409.649 1108.63,409.932L1108.63,426.373C1108.63,426.657 1108.91,426.373 1108.63,426.373L1100.41,426.373C1100.25,426.373 1100.13,426.498 1100.13,426.657L1100.13,443.665C1100.13,443.82 1100.25,443.948 1100.41,443.948L1108.63,443.948C1108.91,443.948 1108.63,443.665 1108.63,443.948L1108.63,460.389C1108.63,460.672 1108.91,460.389 1108.63,460.389L1100.41,460.389C1100.25,460.389 1100.13,460.514 1100.13,460.672L1100.13,477.68C1100.13,477.836 1100.25,477.964 1100.41,477.964L1108.63,477.964C1108.91,477.964 1108.63,477.68 1108.63,477.964L1108.63,494.405C1108.63,494.688 1108.91,494.405 1108.63,494.405L1100.41,494.405C1100.25,494.405 1100.13,494.529 1100.13,494.688L1100.13,511.696C1100.13,511.852 1100.25,511.98 1100.41,511.98L1108.63,511.98C1108.91,511.98 1108.63,511.696 1108.63,511.98L1108.63,528.42C1108.63,528.704 1108.91,528.42 1108.63,528.42L1100.41,528.42C1100.25,528.42 1100.13,528.545 1100.13,528.704L1100.13,545.712C1100.13,545.868 1100.25,545.995 1100.41,545.995L1108.63,545.995C1108.91,545.995 1108.63,545.712 1108.63,545.995L1108.63,562.436C1108.63,562.72 1108.91,562.436 1108.63,562.436L1100.41,562.436C1100.25,562.436 1100.13,562.561 1100.13,562.72L1100.13,579.728C1100.13,579.883 1100.25,580.011 1100.41,580.011L1108.63,580.011C1108.91,580.011 1108.63,579.728 1108.63,580.011L1108.63,596.452C1108.63,596.735 1108.91,596.452 1108.63,596.452L1100.41,596.452C1100.25,596.452 1100.13,596.577 1100.13,596.735L1100.13,613.743C1100.13,613.899 1100.25,614.027 1100.41,614.027L1108.63,614.027C1108.91,614.027 1108.63,613.743 1108.63,614.027L1108.63,630.468C1108.63,630.751 1108.91,630.468 1108.63,630.468L1100.41,630.468C1100.25,630.468 1100.13,630.592 1100.13,630.751L1100.13,647.759C1100.13,647.915 1100.25,648.043 1100.41,648.043L1108.63,648.043C1108.91,648.043 1108.63,647.759 1108.63,648.043L1108.63,664.483C1108.63,664.767 1108.91,664.483 1108.63,664.483L1100.41,664.483C1100.25,664.483 1100.13,664.608 1100.13,664.767L1100.13,681.775C1100.13,681.931 1100.25,682.058 1100.41,682.058L1108.63,682.058C1108.91,682.058 1108.63,681.775 1108.63,682.058L1108.63,698.499C1108.63,698.783 1108.91,698.499 1108.63,698.499L1100.41,698.499C1100.25,698.499 1100.13,698.624 1100.13,698.783L1100.13,715.791C1100.13,715.946 1100.25,716.074 1100.41,716.074L1108.63,716.074C1108.91,716.074 1108.63,715.791 1108.63,716.074L1108.63,732.515C1108.63,732.798 1108.91,732.515 1108.63,732.515L1100.41,732.515C1100.25,732.515 1100.13,732.64 1100.13,732.798L1100.13,749.806C1100.13,749.962 1100.25,750.09 1100.41,750.09L1108.63,750.09C1108.91,750.09 1108.63,749.806 1108.63,750.09L1108.63,773.657C1108.63,773.813 1108.76,773.94 1108.91,773.94C1109.02,773.94 1109.12,773.878 1109.17,773.779L1116.24,758.619C1116.36,758.364 1115.98,758.5 1116.24,758.619L1123.69,762.094C1123.83,762.16 1124,762.1 1124.07,761.958L1131.25,746.544C1131.32,746.402 1131.26,746.232 1131.12,746.167L1123.66,742.691C1123.41,742.572 1123.55,742.949 1123.66,742.691L1130.61,727.792C1130.73,727.534 1130.36,727.671 1130.61,727.792L1138.07,731.265C1138.21,731.333 1138.37,731.271 1138.44,731.129L1145.63,715.714C1145.7,715.572 1145.63,715.402 1145.49,715.337L1138.04,711.865C1137.78,711.743 1137.92,712.12 1138.04,711.865L1144.99,696.963C1145.11,696.705 1144.73,696.844 1144.99,696.963L1152.44,700.438C1152.58,700.503 1152.75,700.441 1152.82,700.299L1160.01,684.884C1160.07,684.743 1160.01,684.575 1159.87,684.507L1152.42,681.035C1152.16,680.916 1152.3,681.29 1152.42,681.035L1159.36,666.133C1159.49,665.878 1159.11,666.014 1159.36,666.133L1166.82,669.609C1166.96,669.674 1167.13,669.614 1167.19,669.47L1174.38,654.058C1174.45,653.916 1174.38,653.746 1174.24,653.681L1166.79,650.205C1166.54,650.086 1166.67,650.463 1166.79,650.205L1173.74,635.306C1173.86,635.049 1173.48,635.185 1173.74,635.306L1181.19,638.779C1181.33,638.844 1181.5,638.785 1181.57,638.643L1188.76,623.228C1188.82,623.086 1188.76,622.916 1188.62,622.851L1181.17,619.376C1180.91,619.257 1181.05,619.634 1181.17,619.376L1188.12,604.477C1188.24,604.219 1187.86,604.358 1188.12,604.477L1195.57,607.949C1195.71,608.017 1195.88,607.955 1195.94,607.813L1203.13,592.398C1203.2,592.257 1203.14,592.089 1203,592.021L1195.54,588.549C1195.29,588.427 1195.42,588.804 1195.54,588.549L1202.49,573.647C1202.61,573.392 1202.24,573.528 1202.49,573.647L1209.94,577.123C1210.09,577.188 1210.25,577.125 1210.32,576.984L1217.51,561.572C1217.57,561.427 1217.51,561.26 1217.37,561.195L1209.92,557.719C1209.66,557.6 1209.8,557.977 1209.92,557.719L1216.87,542.818C1216.99,542.563 1216.61,542.699 1216.87,542.818L1224.32,546.293C1224.46,546.358 1224.63,546.299 1224.69,546.157L1231.88,530.742C1231.95,530.6 1231.89,530.43 1231.75,530.365L1224.3,526.89C1224.04,526.771 1224.18,527.148 1224.3,526.89L1231.24,511.991C1231.36,511.733 1230.99,511.869 1231.24,511.991L1238.69,515.463C1238.84,515.531 1239,515.469 1239.07,515.327L1246.26,499.912C1246.33,499.771 1246.26,499.603 1246.12,499.535L1238.67,496.063C1238.41,495.941 1238.55,496.318 1238.67,496.063L1245.62,481.161C1245.74,480.903 1245.36,481.042 1245.62,481.161L1253.07,484.637C1253.21,484.702 1253.38,484.639 1253.45,484.498L1260.63,469.083C1260.7,468.941 1260.64,468.774 1260.5,468.709L1253.05,465.233C1252.79,465.114 1252.93,465.491 1253.05,465.233L1259.99,450.332C1260.12,450.077 1259.74,450.213 1259.99,450.332L1267.45,453.807C1267.59,453.872 1267.76,453.813 1267.82,453.671L1275.01,438.256C1275.08,438.114 1275.02,437.944 1274.87,437.879L1267.42,434.404C1267.17,434.285 1267.3,434.662 1267.42,434.404L1274.37,419.505C1274.49,419.247 1274.11,419.383 1274.37,419.505L1281.82,422.977C1281.96,423.045 1282.13,422.983 1282.2,422.841L1289.39,407.426C1289.45,407.285 1289.39,407.117 1289.25,407.049L1281.8,403.577C1281.54,403.455 1281.68,403.832 1281.8,403.577L1288.75,388.675C1288.87,388.417 1288.49,388.556 1288.75,388.675L1296.2,392.151C1301.65,394.693 1307.68,395.756 1313.68,395.232C1319.68,394.707 1325.43,392.613 1330.36,389.16C1335.3,385.707 1339.23,381.016 1341.78,375.559L1432.82,180.312C1435.37,174.855 1436.43,168.823 1435.91,162.825C1435.38,156.827 1433.29,151.072 1429.84,146.143C1426.38,141.211 1421.69,137.273 1416.23,134.731L1408.78,131.255C1408.53,131.136 1408.66,131.513 1408.78,131.255L1421.72,103.51C1421.84,103.252 1421.46,103.391 1421.72,103.51L1429.17,106.982C1429.31,107.05 1429.48,106.988 1429.55,106.846L1436.74,91.431C1436.8,91.29 1436.74,91.123 1436.6,91.054L1429.15,87.582C1428.89,87.46 1429.03,87.837 1429.15,87.582L1436.1,72.68C1436.22,72.422 1435.84,72.561 1436.1,72.68L1443.55,76.156C1443.69,76.221 1443.86,76.158 1443.92,76.017L1451.11,60.605C1451.18,60.46 1451.12,60.293 1450.98,60.228L1443.52,56.752C1443.27,56.633 1443.4,57.01 1443.52,56.752L1456.58,28.749C1456.6,28.712 1456.61,28.672 1456.61,28.63C1456.61,28.474 1456.48,28.346 1456.33,28.346Z" style="fill:none;fill-rule:nonzero;stroke:black;stroke-width:0.57px;"/>
        <path d="M1313.09,355.927L1309.62,363.376C1309.49,363.634 1309.87,363.495 1309.62,363.376L1302.42,360.023C1302.16,359.901 1302.3,360.278 1302.42,360.023L1309.37,345.121C1309.49,344.863 1309.11,345.002 1309.37,345.121L1316.56,348.474C1316.82,348.596 1316.68,348.219 1316.56,348.474L1313.09,355.927Z" style="fill:none;fill-rule:nonzero;stroke:rgb(0,0,255);stroke-width:0.57px;"/>
        <path d="M1327.46,325.097L1323.99,332.546C1323.87,332.804 1324.25,332.666 1323.99,332.546L1316.8,329.193C1316.54,329.074 1316.68,329.451 1316.8,329.193L1323.75,314.291C1323.87,314.036 1323.49,314.172 1323.75,314.291L1330.94,317.648C1331.19,317.767 1331.06,317.39 1330.94,317.648L1327.46,325.097Z" style="fill:none;fill-rule:nonzero;stroke:rgb(0,0,255);stroke-width:0.57px;"/>
        <path d="M1341.84,294.267L1338.37,301.72C1338.25,301.975 1338.62,301.839 1338.37,301.72L1331.17,298.363C1330.91,298.244 1331.05,298.621 1331.17,298.363L1338.12,283.465C1338.24,283.207 1337.86,283.343 1338.12,283.465L1345.31,286.818C1345.57,286.937 1345.43,286.56 1345.31,286.818L1341.84,294.267Z" style="fill:none;fill-rule:nonzero;stroke:rgb(0,0,255);stroke-width:0.57px;"/>
        <path d="M1356.22,263.441L1352.74,270.89C1352.62,271.145 1353,271.009 1352.74,270.89L1345.55,267.537C1345.29,267.415 1345.43,267.792 1345.55,267.537L1352.5,252.635C1352.62,252.377 1352.24,252.516 1352.5,252.635L1359.69,255.988C1359.95,256.11 1359.81,255.733 1359.69,255.988L1356.22,263.441Z" style="fill:none;fill-rule:nonzero;stroke:rgb(0,0,255);stroke-width:0.57px;"/>
        <path d="M1374.07,225.162L1367.12,240.06C1367,240.318 1367.37,240.18 1367.12,240.06L1359.92,236.707C1359.67,236.588 1359.8,236.962 1359.92,236.707L1366.87,221.805C1366.99,221.55 1366.61,221.686 1366.87,221.805L1374.07,225.162C1374.32,225.281 1374.18,224.904 1374.07,225.162Z" style="fill:none;fill-rule:nonzero;stroke:rgb(0,0,255);stroke-width:0.57px;"/>
        <path d="M1384.96,201.781L1381.49,209.231C1381.37,209.489 1381.75,209.353 1381.49,209.231L1374.3,205.877C1374.04,205.758 1374.18,206.135 1374.3,205.877L1381.25,190.979C1381.37,190.721 1380.99,190.857 1381.25,190.979L1388.44,194.332C1388.7,194.451 1388.56,194.074 1388.44,194.332L1384.96,201.781Z" style="fill:none;fill-rule:nonzero;stroke:rgb(0,0,255);stroke-width:0.57px;"/>
        <path d="M1399.34,170.952L1395.87,178.404C1395.75,178.659 1396.12,178.523 1395.87,178.404L1388.68,175.048C1388.42,174.929 1388.55,175.306 1388.68,175.048L1395.62,160.149C1395.74,159.891 1395.37,160.03 1395.62,160.149L1402.82,163.502C1403.07,163.621 1402.94,163.247 1402.82,163.502L1399.34,170.952Z" style="fill:none;fill-rule:nonzero;stroke:rgb(0,0,255);stroke-width:0.57px;"/>
    </g>
    <g id="p-4">
        <path d="M1738.65,863.232L1570.94,863.232C1570.89,863.232 1570.86,863.223 1570.82,863.206C1561.3,858.77 1553.12,851.905 1547.1,843.304C1541.08,834.704 1537.43,824.672 1536.51,814.212C1535.6,803.752 1537.45,793.236 1541.89,783.723L1570.64,722.064C1571.29,720.666 1572.3,719.464 1573.56,718.58C1574.83,717.695 1576.3,717.16 1577.84,717.024C1579.37,716.89 1580.92,717.163 1582.32,717.814C1583.71,718.466 1584.92,719.473 1585.8,720.737C1586.69,722.001 1587.22,723.475 1587.36,725.012C1587.49,726.548 1587.22,728.093 1586.57,729.49L1581.18,741.053C1581.09,741.231 1581.06,741.433 1581.08,741.631C1581.09,741.83 1581.16,742.02 1581.28,742.181C1581.39,742.346 1581.55,742.476 1581.72,742.558L1618.72,759.81C1618.98,759.929 1618.6,760.068 1618.72,759.81L1631.66,732.064C1631.78,731.806 1631.91,732.183 1631.66,732.064L1624.21,728.589C1624.07,728.524 1624,728.354 1624.07,728.212L1631.26,712.8C1631.32,712.658 1631.49,712.596 1631.63,712.661L1639.09,716.136C1639.34,716.255 1638.96,716.391 1639.09,716.136L1646.03,701.235C1646.15,700.98 1646.29,701.354 1646.03,701.235L1638.58,697.762C1638.44,697.694 1638.38,697.527 1638.44,697.385L1645.63,681.97C1645.7,681.829 1645.87,681.766 1646.01,681.834L1653.46,685.307C1653.72,685.426 1653.34,685.565 1653.46,685.307L1660.41,670.408C1660.53,670.15 1660.67,670.527 1660.41,670.408L1652.96,666.933C1652.82,666.867 1652.75,666.697 1652.82,666.556L1660.01,651.141C1660.08,650.999 1660.24,650.94 1660.38,651.005L1667.84,654.477C1668.09,654.599 1667.72,654.735 1667.84,654.477L1674.79,639.578C1674.9,639.32 1675.04,639.697 1674.79,639.578L1667.33,636.103C1667.19,636.038 1667.13,635.868 1667.2,635.726L1674.39,620.314C1674.45,620.169 1674.62,620.11 1674.76,620.175L1682.21,623.65C1682.47,623.769 1682.09,623.906 1682.21,623.65L1689.16,608.749C1689.28,608.494 1689.42,608.868 1689.16,608.749L1681.71,605.276C1681.57,605.208 1681.51,605.041 1681.57,604.899L1688.76,589.484C1688.83,589.343 1689,589.28 1689.14,589.346L1696.59,592.821C1696.84,592.94 1696.47,593.079 1696.59,592.821L1703.53,577.919C1703.66,577.664 1703.79,578.041 1703.53,577.919L1696.09,574.447C1695.94,574.381 1695.88,574.211 1695.95,574.07L1703.14,558.655C1703.2,558.513 1703.37,558.451 1703.51,558.519L1710.96,561.991C1711.22,562.113 1710.84,562.249 1710.96,561.991L1717.91,547.092C1718.03,546.834 1718.17,547.211 1717.91,547.092L1710.46,543.617C1710.32,543.552 1710.26,543.382 1710.32,543.24L1717.51,527.825C1717.58,527.683 1717.75,527.624 1717.89,527.689L1725.34,531.164C1725.6,531.283 1725.22,531.42 1725.34,531.164L1738.4,503.161C1738.42,503.113 1738.45,503.073 1738.49,503.045C1738.54,503.016 1738.59,502.999 1738.64,502.997C1738.69,502.994 1738.74,503.005 1738.79,503.031C1738.83,503.053 1738.87,503.09 1738.9,503.135C1738.92,503.178 1738.94,503.229 1738.94,503.28L1738.94,862.948C1738.94,863.104 1738.81,863.232 1738.65,863.232" style="fill:none;fill-rule:nonzero;stroke:black;stroke-width:0.57px;"/>
    </g>
    <g id="p-5">
        <path d="M1743.47,863.232L1911.19,863.232C1911.23,863.232 1911.27,863.223 1911.31,863.206C1920.82,858.77 1929.01,851.905 1935.03,843.304C1941.05,834.704 1944.7,824.672 1945.62,814.212C1946.53,803.752 1944.67,793.236 1940.24,783.723L1911.49,722.064C1910.84,720.666 1909.83,719.464 1908.56,718.58C1907.3,717.695 1905.83,717.16 1904.29,717.024C1902.75,716.89 1901.21,717.163 1899.81,717.814C1898.41,718.466 1897.21,719.473 1896.32,720.737C1895.44,722.001 1894.9,723.475 1894.77,725.012C1894.63,726.548 1894.91,728.093 1895.56,729.49L1900.95,741.053C1901.03,741.231 1901.07,741.433 1901.05,741.631C1901.04,741.83 1900.96,742.02 1900.85,742.181C1900.74,742.346 1900.58,742.476 1900.4,742.558L1863.41,759.81C1863.15,759.929 1863.53,760.068 1863.41,759.81L1850.47,732.064C1850.35,731.806 1850.21,732.183 1850.47,732.064L1857.92,728.589C1858.06,728.524 1858.12,728.354 1858.06,728.212L1850.87,712.8C1850.8,712.658 1850.63,712.596 1850.49,712.661L1843.04,716.136C1842.78,716.255 1843.16,716.391 1843.04,716.136L1836.09,701.235C1835.97,700.98 1835.84,701.354 1836.09,701.235L1843.54,697.762C1843.68,697.694 1843.75,697.527 1843.68,697.385L1836.49,681.97C1836.42,681.829 1836.26,681.766 1836.12,681.834L1828.67,685.307C1828.41,685.426 1828.79,685.565 1828.67,685.307L1821.72,670.408C1821.6,670.15 1821.46,670.527 1821.72,670.408L1829.17,666.933C1829.31,666.867 1829.37,666.697 1829.31,666.556L1822.12,651.141C1822.05,650.999 1821.88,650.94 1821.74,651.005L1814.29,654.477C1814.03,654.599 1814.41,654.735 1814.29,654.477L1807.34,639.578C1807.22,639.32 1807.08,639.697 1807.34,639.578L1814.79,636.103C1814.93,636.038 1815,635.868 1814.93,635.726L1807.74,620.314C1807.68,620.169 1807.51,620.11 1807.36,620.175L1799.91,623.65C1799.66,623.769 1800.03,623.906 1799.91,623.65L1792.97,608.749C1792.85,608.494 1792.71,608.868 1792.97,608.749L1800.42,605.276C1800.56,605.208 1800.62,605.041 1800.55,604.899L1793.37,589.484C1793.3,589.343 1793.13,589.28 1792.99,589.346L1785.54,592.821C1785.28,592.94 1785.66,593.079 1785.54,592.821L1778.59,577.919C1778.47,577.664 1778.34,578.041 1778.59,577.919L1786.04,574.447C1786.18,574.381 1786.24,574.211 1786.18,574.07L1778.99,558.655C1778.92,558.513 1778.75,558.451 1778.61,558.519L1771.16,561.991C1770.9,562.113 1771.28,562.249 1771.16,561.991L1764.22,547.092C1764.09,546.834 1763.96,547.211 1764.22,547.092L1771.66,543.617C1771.81,543.552 1771.87,543.382 1771.8,543.24L1764.62,527.825C1764.55,527.683 1764.38,527.624 1764.24,527.689L1756.79,531.164C1756.53,531.283 1756.91,531.42 1756.79,531.164L1743.73,503.161C1743.71,503.113 1743.67,503.073 1743.63,503.045C1743.59,503.016 1743.54,502.999 1743.49,502.997C1743.43,502.994 1743.38,503.005 1743.34,503.031C1743.29,503.053 1743.26,503.09 1743.23,503.135C1743.2,503.178 1743.19,503.229 1743.19,503.28L1743.19,862.948C1743.19,863.104 1743.32,863.232 1743.47,863.232" style="fill:none;fill-rule:nonzero;stroke:black;stroke-width:0.57px;"/>
    </g>
</svg>
