<?xml version="1.0" encoding="UTF-8"?>
<svg height="275.32mm" viewBox="0.0 0.0 552.08 275.32" width="552.08mm" xmlns="http://www.w3.org/2000/svg" xmlns:cc="http://creativecommons.org/ns#" xmlns:dc="http://purl.org/dc/elements/1.1/" xmlns:inkscape="http://www.inkscape.org/namespaces/inkscape" xmlns:rdf="http://www.w3.org/1999/02/22-rdf-syntax-ns#" xmlns:svg="http://www.w3.org/2000/svg" xmlns:xlink="http://www.w3.org/1999/xlink">
<!--
PhoneHolder - 
    Smartphone desk holder
    



    This phone stand holds your phone between two tabs, with access to its
    bottom, in order to connect a charger, headphones, and also not to obstruct
    the mic.

    Default values are currently based on Galaxy S7.



Created with Boxes.py (https://festi.info/boxes.py)
Creation date: 2021-07-26 17:27:58
Command line (remove spaces between dashes): boxes PhoneHolder - -FingerJoint_angle=90.0 - -FingerJoint_style=rectangular - -FingerJoint_surroundingspaces=2.0 - -FingerJoint_edge_width=1.0 - -FingerJoint_finger=2.0 - -FingerJoint_play=0.0 - -FingerJoint_space=2.0 - -FingerJoint_width=1.0 - -phone_height=195 - -phone_width=122 - -phone_depth=16 - -angle=25 - -bottom_margin=30 - -tab_size=76 - -bottom_support_spacing=40 - -thickness=3.0 - -format=svg - -tabs=0.0 - -debug=0 - -labels=0 - -labels=1 - -reference=100 - -burn=0.1
Url: http://festi.info/PhoneHolder?FingerJoint_angle=90.0&FingerJoint_style=rectangular&FingerJoint_surroundingspaces=2.0&FingerJoint_edge_width=1.0&FingerJoint_finger=2.0&FingerJoint_play=0.0&FingerJoint_space=2.0&FingerJoint_width=1.0&phone_height=195&phone_width=122&phone_depth=16&angle=25&bottom_margin=30&tab_size=76&bottom_support_spacing=40&thickness=3.0&format=svg&tabs=0.0&debug=0&labels=0&labels=1&reference=100&burn=0.1&render=1
SettingsUrl: http://festi.info/PhoneHolder?FingerJoint_angle=90.0&FingerJoint_style=rectangular&FingerJoint_surroundingspaces=2.0&FingerJoint_edge_width=1.0&FingerJoint_finger=2.0&FingerJoint_play=0.0&FingerJoint_space=2.0&FingerJoint_width=1.0&phone_height=195&phone_width=122&phone_depth=16&angle=25&bottom_margin=30&tab_size=76&bottom_support_spacing=40&thickness=3.0&format=svg&tabs=0.0&debug=0&labels=0&labels=1&reference=100&burn=0.1
-->
<title>PhoneHolder</title>
<metadata>
<rdf:RDF><cc:Work>
<dc:title>Misc - PhoneHolder</dc:title>
<dc:date>2021-07-26 17:27:58</dc:date>
<dc:source>http://festi.info/PhoneHolder?FingerJoint_angle=90.0&amp;FingerJoint_style=rectangular&amp;FingerJoint_surroundingspaces=2.0&amp;FingerJoint_edge_width=1.0&amp;FingerJoint_finger=2.0&amp;FingerJoint_play=0.0&amp;FingerJoint_space=2.0&amp;FingerJoint_width=1.0&amp;phone_height=195&amp;phone_width=122&amp;phone_depth=16&amp;angle=25&amp;bottom_margin=30&amp;tab_size=76&amp;bottom_support_spacing=40&amp;thickness=3.0&amp;format=svg&amp;tabs=0.0&amp;debug=0&amp;labels=0&amp;labels=1&amp;reference=100&amp;burn=0.1&amp;render=1</dc:source>
<dc:description>
    Smartphone desk holder
    


    This phone stand holds your phone between two tabs, with access to its
    bottom, in order to connect a charger, headphones, and also not to obstruct
    the mic.

    Default values are currently based on Galaxy S7.


Created with Boxes.py (https://festi.info/boxes.py)
Command line: boxes PhoneHolder --FingerJoint_angle=90.0 --FingerJoint_style=rectangular --FingerJoint_surroundingspaces=2.0 --FingerJoint_edge_width=1.0 --FingerJoint_finger=2.0 --FingerJoint_play=0.0 --FingerJoint_space=2.0 --FingerJoint_width=1.0 --phone_height=195 --phone_width=122 --phone_depth=16 --angle=25 --bottom_margin=30 --tab_size=76 --bottom_support_spacing=40 --thickness=3.0 --format=svg --tabs=0.0 --debug=0 --labels=0 --labels=1 --reference=100 --burn=0.1
Url: http://festi.info/PhoneHolder?FingerJoint_angle=90.0&amp;FingerJoint_style=rectangular&amp;FingerJoint_surroundingspaces=2.0&amp;FingerJoint_edge_width=1.0&amp;FingerJoint_finger=2.0&amp;FingerJoint_play=0.0&amp;FingerJoint_space=2.0&amp;FingerJoint_width=1.0&amp;phone_height=195&amp;phone_width=122&amp;phone_depth=16&amp;angle=25&amp;bottom_margin=30&amp;tab_size=76&amp;bottom_support_spacing=40&amp;thickness=3.0&amp;format=svg&amp;tabs=0.0&amp;debug=0&amp;labels=0&amp;labels=1&amp;reference=100&amp;burn=0.1&amp;render=1
SettingsUrl: http://festi.info/PhoneHolder?FingerJoint_angle=90.0&amp;FingerJoint_style=rectangular&amp;FingerJoint_surroundingspaces=2.0&amp;FingerJoint_edge_width=1.0&amp;FingerJoint_finger=2.0&amp;FingerJoint_play=0.0&amp;FingerJoint_space=2.0&amp;FingerJoint_width=1.0&amp;phone_height=195&amp;phone_width=122&amp;phone_depth=16&amp;angle=25&amp;bottom_margin=30&amp;tab_size=76&amp;bottom_support_spacing=40&amp;thickness=3.0&amp;format=svg&amp;tabs=0.0&amp;debug=0&amp;labels=0&amp;labels=1&amp;reference=100&amp;burn=0.1
</dc:description>
</cc:Work></rdf:RDF></metadata>
<g id="p-0" style="fill:none;stroke-linecap:round;stroke-linejoin:round;">
  <path d="M 10.100 265.319 H 110.100 V 255.319 H 10.100 V 265.319 Z" stroke="rgb(0,0,0)" stroke-width="0.20"/>
  <text alignment-baseline="hanging" font-size="10px" style="font-family: sans-serif ; font-weight: normal; font-style: normal; fill: rgb(0,0,0)" text-anchor="middle" transform="matrix( 1.000 0.000 0.000 1.000 60.100 255.319 )">100mm</text><text alignment-baseline="hanging" font-size="4px" style="font-family: sans-serif ; font-weight: normal; font-style: normal; fill: rgb(255,0,0)" text-anchor="middle" transform="matrix( 1.000 0.000 0.000 1.000 15.100 258.319 )"/>
</g>
<g id="p-1" style="fill:none;stroke-linecap:round;stroke-linejoin:round;">
  <path d="M 54.000 209.519 V 212.419 C 54.000 212.519 54.100 212.419 54.000 212.419 H 51.200 C 51.100 212.419 51.200 212.519 51.200 212.419 V 206.619 C 51.200 206.519 51.100 206.619 51.200 206.619 H 54.000 C 54.100 206.619 54.000 206.519 54.000 206.619 V 209.519 Z" stroke="rgb(0,0,255)" stroke-width="0.20"/>
  <path d="M 54.000 197.519 V 200.419 C 54.000 200.519 54.100 200.419 54.000 200.419 H 51.200 C 51.100 200.419 51.200 200.519 51.200 200.419 V 194.619 C 51.200 194.519 51.100 194.619 51.200 194.619 H 54.000 C 54.100 194.619 54.000 194.519 54.000 194.619 V 197.519 Z" stroke="rgb(0,0,255)" stroke-width="0.20"/>
  <path d="M 54.000 185.519 V 188.419 C 54.000 188.519 54.100 188.419 54.000 188.419 H 51.200 C 51.100 188.419 51.200 188.519 51.200 188.419 V 182.619 C 51.200 182.519 51.100 182.619 51.200 182.619 H 54.000 C 54.100 182.619 54.000 182.519 54.000 182.619 V 185.519 Z" stroke="rgb(0,0,255)" stroke-width="0.20"/>
  <path d="M 54.000 173.519 V 176.419 C 54.000 176.519 54.100 176.419 54.000 176.419 H 51.200 C 51.100 176.419 51.200 176.519 51.200 176.419 V 170.619 C 51.200 170.519 51.100 170.619 51.200 170.619 H 54.000 C 54.100 170.619 54.000 170.519 54.000 170.619 V 173.519 Z" stroke="rgb(0,0,255)" stroke-width="0.20"/>
  <path d="M 54.000 161.519 V 164.419 C 54.000 164.519 54.100 164.419 54.000 164.419 H 51.200 C 51.100 164.419 51.200 164.519 51.200 164.419 V 158.619 C 51.200 158.519 51.100 158.619 51.200 158.619 H 54.000 C 54.100 158.619 54.000 158.519 54.000 158.619 V 161.519 Z" stroke="rgb(0,0,255)" stroke-width="0.20"/>
  <path d="M 97.000 209.519 V 212.419 C 97.000 212.519 97.100 212.419 97.000 212.419 H 94.200 C 94.100 212.419 94.200 212.519 94.200 212.419 V 206.619 C 94.200 206.519 94.100 206.619 94.200 206.619 H 97.000 C 97.100 206.619 97.000 206.519 97.000 206.619 V 209.519 Z" stroke="rgb(0,0,255)" stroke-width="0.20"/>
  <path d="M 97.000 197.519 V 200.419 C 97.000 200.519 97.100 200.419 97.000 200.419 H 94.200 C 94.100 200.419 94.200 200.519 94.200 200.419 V 194.619 C 94.200 194.519 94.100 194.619 94.200 194.619 H 97.000 C 97.100 194.619 97.000 194.519 97.000 194.619 V 197.519 Z" stroke="rgb(0,0,255)" stroke-width="0.20"/>
  <path d="M 97.000 185.519 V 188.419 C 97.000 188.519 97.100 188.419 97.000 188.419 H 94.200 C 94.100 188.419 94.200 188.519 94.200 188.419 V 182.619 C 94.200 182.519 94.100 182.619 94.200 182.619 H 97.000 C 97.100 182.619 97.000 182.519 97.000 182.619 V 185.519 Z" stroke="rgb(0,0,255)" stroke-width="0.20"/>
  <path d="M 97.000 173.519 V 176.419 C 97.000 176.519 97.100 176.419 97.000 176.419 H 94.200 C 94.100 176.419 94.200 176.519 94.200 176.419 V 170.619 C 94.200 170.519 94.100 170.619 94.200 170.619 H 97.000 C 97.100 170.619 97.000 170.519 97.000 170.619 V 173.519 Z" stroke="rgb(0,0,255)" stroke-width="0.20"/>
  <path d="M 97.000 161.519 V 164.419 C 97.000 164.519 97.100 164.419 97.000 164.419 H 94.200 C 94.100 164.419 94.200 164.519 94.200 164.419 V 158.619 C 94.200 158.519 94.100 158.619 94.200 158.619 H 97.000 C 97.100 158.619 97.000 158.519 97.000 158.619 V 161.519 Z" stroke="rgb(0,0,255)" stroke-width="0.20"/>
  <text alignment-baseline="hanging" font-size="4px" style="font-family: sans-serif ; font-weight: normal; font-style: normal; fill: rgb(255,0,0)" text-anchor="middle" transform="matrix( 1.000 0.000 0.000 1.000 74.100 139.119 )"/><path d="M 13.100 253.619 H 51.100 C 51.155 253.619 51.200 253.574 51.200 253.519 V 223.619 C 51.200 223.519 51.100 223.619 51.200 223.619 H 54.000 C 54.100 223.619 54.000 223.519 54.000 223.619 V 253.519 C 54.000 253.574 54.045 253.619 54.100 253.619 H 71.600 C 71.655 253.619 71.700 253.574 71.700 253.519 V 248.519 C 71.700 248.098 71.811 247.684 72.022 247.319 C 72.232 246.954 72.535 246.651 72.900 246.441 C 73.265 246.230 73.679 246.119 74.100 246.119 C 74.521 246.119 74.935 246.230 75.300 246.441 C 75.665 246.651 75.968 246.954 76.178 247.319 C 76.389 247.684 76.500 248.098 76.500 248.519 V 253.519 C 76.500 253.574 76.545 253.619 76.600 253.619 H 94.100 C 94.155 253.619 94.200 253.574 94.200 253.519 V 223.619 C 94.200 223.519 94.100 223.619 94.200 223.619 H 97.000 C 97.100 223.619 97.000 223.519 97.000 223.619 V 253.519 C 97.000 253.574 97.045 253.619 97.100 253.619 H 135.100 H 138.100 C 138.155 253.619 138.200 253.574 138.200 253.519 V 247.519 C 138.200 247.464 138.155 247.419 138.100 247.419 H 135.200 C 135.100 247.419 135.200 247.519 135.200 247.419 V 241.619 C 135.200 241.519 135.100 241.619 135.200 241.619 H 138.100 C 138.155 241.619 138.200 241.574 138.200 241.519 V 235.519 C 138.200 235.464 138.155 235.419 138.100 235.419 H 135.200 C 135.100 235.419 135.200 235.519 135.200 235.419 V 229.619 C 135.200 229.519 135.100 229.619 135.200 229.619 H 138.100 C 138.155 229.619 138.200 229.574 138.200 229.519 V 223.519 C 138.200 223.464 138.155 223.419 138.100 223.419 H 135.200 C 135.100 223.419 135.200 223.519 135.200 223.419 V 212.619 C 135.200 212.519 135.100 212.619 135.200 212.619 H 138.100 C 138.155 212.619 138.200 212.574 138.200 212.519 V 206.519 C 138.200 206.464 138.155 206.419 138.100 206.419 H 135.200 C 135.100 206.419 135.200 206.519 135.200 206.419 V 200.619 C 135.200 200.519 135.100 200.619 135.200 200.619 H 138.100 C 138.155 200.619 138.200 200.574 138.200 200.519 V 194.519 C 138.200 194.464 138.155 194.419 138.100 194.419 H 135.200 C 135.100 194.419 135.200 194.519 135.200 194.419 V 188.619 C 135.200 188.519 135.100 188.619 135.200 188.619 H 138.100 C 138.155 188.619 138.200 188.574 138.200 188.519 V 182.519 C 138.200 182.464 138.155 182.419 138.100 182.419 H 135.200 C 135.100 182.419 135.200 182.519 135.200 182.419 V 176.619 C 135.200 176.519 135.100 176.619 135.200 176.619 H 138.100 C 138.155 176.619 138.200 176.574 138.200 176.519 V 170.519 C 138.200 170.464 138.155 170.419 138.100 170.419 H 135.200 C 135.100 170.419 135.200 170.519 135.200 170.419 V 164.619 C 135.200 164.519 135.100 164.619 135.200 164.619 H 138.100 C 138.155 164.619 138.200 164.574 138.200 164.519 V 158.519 C 138.200 158.464 138.155 158.419 138.100 158.419 H 135.200 C 135.100 158.419 135.200 158.519 135.200 158.419 V 147.619 C 135.200 147.519 135.100 147.619 135.200 147.619 H 138.100 C 138.155 147.619 138.200 147.574 138.200 147.519 V 139.019 C 138.200 138.964 138.155 138.919 138.100 138.919 H 135.200 C 135.100 138.919 135.200 139.019 135.200 138.919 V 133.119 C 135.200 133.019 135.100 133.119 135.200 133.119 H 138.100 C 138.155 133.119 138.200 133.074 138.200 133.019 V 127.019 C 138.200 126.964 138.155 126.919 138.100 126.919 H 135.200 C 135.100 126.919 135.200 127.019 135.200 126.919 V 121.119 C 135.200 121.019 135.100 121.119 135.200 121.119 H 138.100 C 138.155 121.119 138.200 121.074 138.200 121.019 V 115.019 C 138.200 114.964 138.155 114.919 138.100 114.919 H 135.200 C 135.100 114.919 135.200 115.019 135.200 114.919 V 109.119 C 135.200 109.019 135.100 109.119 135.200 109.119 H 138.100 C 138.155 109.119 138.200 109.074 138.200 109.019 V 103.019 C 138.200 102.964 138.155 102.919 138.100 102.919 H 135.200 C 135.100 102.919 135.200 103.019 135.200 102.919 V 97.119 C 135.200 97.019 135.100 97.119 135.200 97.119 H 138.100 C 138.155 97.119 138.200 97.074 138.200 97.019 V 91.019 C 138.200 90.964 138.155 90.919 138.100 90.919 H 135.200 C 135.100 90.919 135.200 91.019 135.200 90.919 V 85.119 C 135.200 85.019 135.100 85.119 135.200 85.119 H 138.100 C 138.155 85.119 138.200 85.074 138.200 85.019 V 79.019 C 138.200 78.964 138.155 78.919 138.100 78.919 H 135.200 C 135.100 78.919 135.200 79.019 135.200 78.919 V 73.119 C 135.200 73.019 135.100 73.119 135.200 73.119 H 138.100 C 138.155 73.119 138.200 73.074 138.200 73.019 V 67.019 C 138.200 66.964 138.155 66.919 138.100 66.919 H 135.200 C 135.100 66.919 135.200 67.019 135.200 66.919 V 61.119 C 135.200 61.019 135.100 61.119 135.200 61.119 H 138.100 C 138.155 61.119 138.200 61.074 138.200 61.019 V 55.019 C 138.200 54.964 138.155 54.919 138.100 54.919 H 135.200 C 135.100 54.919 135.200 55.019 135.200 54.919 V 49.119 C 135.200 49.019 135.100 49.119 135.200 49.119 H 138.100 C 138.155 49.119 138.200 49.074 138.200 49.019 V 43.019 C 138.200 42.964 138.155 42.919 138.100 42.919 H 135.200 C 135.100 42.919 135.200 43.019 135.200 42.919 V 37.119 C 135.200 37.019 135.100 37.119 135.200 37.119 H 138.100 C 138.155 37.119 138.200 37.074 138.200 37.019 V 28.519 C 138.200 28.464 138.155 28.419 138.100 28.419 H 135.100 H 13.100 H 10.100 C 10.045 28.419 10.000 28.464 10.000 28.519 V 37.019 C 10.000 37.074 10.045 37.119 10.100 37.119 H 13.000 C 13.100 37.119 13.000 37.019 13.000 37.119 V 42.919 C 13.000 43.019 13.100 42.919 13.000 42.919 H 10.100 C 10.045 42.919 10.000 42.964 10.000 43.019 V 49.019 C 10.000 49.074 10.045 49.119 10.100 49.119 H 13.000 C 13.100 49.119 13.000 49.019 13.000 49.119 V 54.919 C 13.000 55.019 13.100 54.919 13.000 54.919 H 10.100 C 10.045 54.919 10.000 54.964 10.000 55.019 V 61.019 C 10.000 61.074 10.045 61.119 10.100 61.119 H 13.000 C 13.100 61.119 13.000 61.019 13.000 61.119 V 66.919 C 13.000 67.019 13.100 66.919 13.000 66.919 H 10.100 C 10.045 66.919 10.000 66.964 10.000 67.019 V 73.019 C 10.000 73.074 10.045 73.119 10.100 73.119 H 13.000 C 13.100 73.119 13.000 73.019 13.000 73.119 V 78.919 C 13.000 79.019 13.100 78.919 13.000 78.919 H 10.100 C 10.045 78.919 10.000 78.964 10.000 79.019 V 85.019 C 10.000 85.074 10.045 85.119 10.100 85.119 H 13.000 C 13.100 85.119 13.000 85.019 13.000 85.119 V 90.919 C 13.000 91.019 13.100 90.919 13.000 90.919 H 10.100 C 10.045 90.919 10.000 90.964 10.000 91.019 V 97.019 C 10.000 97.074 10.045 97.119 10.100 97.119 H 13.000 C 13.100 97.119 13.000 97.019 13.000 97.119 V 102.919 C 13.000 103.019 13.100 102.919 13.000 102.919 H 10.100 C 10.045 102.919 10.000 102.964 10.000 103.019 V 109.019 C 10.000 109.074 10.045 109.119 10.100 109.119 H 13.000 C 13.100 109.119 13.000 109.019 13.000 109.119 V 114.919 C 13.000 115.019 13.100 114.919 13.000 114.919 H 10.100 C 10.045 114.919 10.000 114.964 10.000 115.019 V 121.019 C 10.000 121.074 10.045 121.119 10.100 121.119 H 13.000 C 13.100 121.119 13.000 121.019 13.000 121.119 V 126.919 C 13.000 127.019 13.100 126.919 13.000 126.919 H 10.100 C 10.045 126.919 10.000 126.964 10.000 127.019 V 133.019 C 10.000 133.074 10.045 133.119 10.100 133.119 H 13.000 C 13.100 133.119 13.000 133.019 13.000 133.119 V 138.919 C 13.000 139.019 13.100 138.919 13.000 138.919 H 10.100 C 10.045 138.919 10.000 138.964 10.000 139.019 V 147.519 C 10.000 147.574 10.045 147.619 10.100 147.619 H 13.000 C 13.100 147.619 13.000 147.519 13.000 147.619 V 158.419 C 13.000 158.519 13.100 158.419 13.000 158.419 H 10.100 C 10.045 158.419 10.000 158.464 10.000 158.519 V 164.519 C 10.000 164.574 10.045 164.619 10.100 164.619 H 13.000 C 13.100 164.619 13.000 164.519 13.000 164.619 V 170.419 C 13.000 170.519 13.100 170.419 13.000 170.419 H 10.100 C 10.045 170.419 10.000 170.464 10.000 170.519 V 176.519 C 10.000 176.574 10.045 176.619 10.100 176.619 H 13.000 C 13.100 176.619 13.000 176.519 13.000 176.619 V 182.419 C 13.000 182.519 13.100 182.419 13.000 182.419 H 10.100 C 10.045 182.419 10.000 182.464 10.000 182.519 V 188.519 C 10.000 188.574 10.045 188.619 10.100 188.619 H 13.000 C 13.100 188.619 13.000 188.519 13.000 188.619 V 194.419 C 13.000 194.519 13.100 194.419 13.000 194.419 H 10.100 C 10.045 194.419 10.000 194.464 10.000 194.519 V 200.519 C 10.000 200.574 10.045 200.619 10.100 200.619 H 13.000 C 13.100 200.619 13.000 200.519 13.000 200.619 V 206.419 C 13.000 206.519 13.100 206.419 13.000 206.419 H 10.100 C 10.045 206.419 10.000 206.464 10.000 206.519 V 212.519 C 10.000 212.574 10.045 212.619 10.100 212.619 H 13.000 C 13.100 212.619 13.000 212.519 13.000 212.619 V 223.419 C 13.000 223.519 13.100 223.419 13.000 223.419 H 10.100 C 10.045 223.419 10.000 223.464 10.000 223.519 V 229.519 C 10.000 229.574 10.045 229.619 10.100 229.619 H 13.000 C 13.100 229.619 13.000 229.519 13.000 229.619 V 235.419 C 13.000 235.519 13.100 235.419 13.000 235.419 H 10.100 C 10.045 235.419 10.000 235.464 10.000 235.519 V 241.519 C 10.000 241.574 10.045 241.619 10.100 241.619 H 13.000 C 13.100 241.619 13.000 241.519 13.000 241.619 V 247.419 C 13.000 247.519 13.100 247.419 13.000 247.419 H 10.100 C 10.045 247.419 10.000 247.464 10.000 247.519 V 253.519 C 10.000 253.574 10.045 253.619 10.100 253.619 H 13.100" stroke="rgb(0,0,0)" stroke-width="0.20"/>
</g>
<g id="p-2" style="fill:none;stroke-linecap:round;stroke-linejoin:round;">
  <text alignment-baseline="hanging" font-size="4px" style="font-family: sans-serif ; font-weight: normal; font-style: normal; fill: rgb(255,0,0)" text-anchor="middle" transform="matrix( 1.000 0.000 0.000 1.000 203.800 149.660 )"/><path d="M 142.800 253.619 H 198.300 C 198.355 253.619 198.400 253.574 198.400 253.519 C 198.400 253.574 198.355 253.619 198.300 253.619 H 201.300 C 201.245 253.619 201.200 253.574 201.200 253.519 C 201.200 253.574 201.245 253.619 201.300 253.619 C 201.355 253.619 201.400 253.574 201.400 253.519 V 248.519 C 201.400 248.098 201.511 247.684 201.722 247.319 C 201.932 246.954 202.235 246.651 202.600 246.441 C 202.965 246.230 203.379 246.119 203.800 246.119 C 204.221 246.119 204.635 246.230 205.000 246.441 C 205.365 246.651 205.668 246.954 205.878 247.319 C 206.089 247.684 206.200 248.098 206.200 248.519 V 253.519 C 206.200 253.574 206.245 253.619 206.300 253.619 C 206.355 253.619 206.400 253.574 206.400 253.519 C 206.400 253.574 206.355 253.619 206.300 253.619 H 209.300 C 209.245 253.619 209.200 253.574 209.200 253.519 C 209.200 253.574 209.245 253.619 209.300 253.619 H 264.800 H 267.800 C 267.855 253.619 267.900 253.574 267.900 253.519 V 244.560 C 267.900 244.504 267.855 244.460 267.800 244.460 H 264.900 C 264.800 244.460 264.900 244.560 264.900 244.460 V 238.660 C 264.900 238.560 264.800 238.660 264.900 238.660 H 267.800 C 267.855 238.660 267.900 238.615 267.900 238.560 V 232.560 C 267.900 232.504 267.855 232.460 267.800 232.460 H 264.900 C 264.800 232.460 264.900 232.560 264.900 232.460 V 226.660 C 264.900 226.560 264.800 226.660 264.900 226.660 H 267.800 C 267.855 226.660 267.900 226.615 267.900 226.560 V 220.560 C 267.900 220.504 267.855 220.460 267.800 220.460 H 264.900 C 264.800 220.460 264.900 220.560 264.900 220.460 V 214.660 C 264.900 214.560 264.800 214.660 264.900 214.660 H 267.800 C 267.855 214.660 267.900 214.615 267.900 214.560 V 208.560 C 267.900 208.504 267.855 208.460 267.800 208.460 H 264.900 C 264.800 208.460 264.900 208.560 264.900 208.460 V 202.660 C 264.900 202.560 264.800 202.660 264.900 202.660 H 267.800 C 267.855 202.660 267.900 202.615 267.900 202.560 V 196.560 C 267.900 196.504 267.855 196.460 267.800 196.460 H 264.900 C 264.800 196.460 264.900 196.560 264.900 196.460 V 190.660 C 264.900 190.560 264.800 190.660 264.900 190.660 H 267.800 C 267.855 190.660 267.900 190.615 267.900 190.560 V 184.560 C 267.900 184.504 267.855 184.460 267.800 184.460 H 264.900 C 264.800 184.460 264.900 184.560 264.900 184.460 V 178.660 C 264.900 178.560 264.800 178.660 264.900 178.660 H 267.800 C 267.855 178.660 267.900 178.615 267.900 178.560 V 172.560 C 267.900 172.504 267.855 172.460 267.800 172.460 H 264.900 C 264.800 172.460 264.900 172.560 264.900 172.460 V 166.660 C 264.900 166.560 264.800 166.660 264.900 166.660 H 267.800 C 267.855 166.660 267.900 166.615 267.900 166.560 V 160.560 C 267.900 160.504 267.855 160.460 267.800 160.460 H 264.900 C 264.800 160.460 264.900 160.560 264.900 160.460 V 154.660 C 264.900 154.560 264.800 154.660 264.900 154.660 H 267.800 C 267.855 154.660 267.900 154.615 267.900 154.560 V 148.560 C 267.900 148.504 267.855 148.460 267.800 148.460 H 264.900 C 264.800 148.460 264.900 148.560 264.900 148.460 V 142.660 C 264.900 142.560 264.800 142.660 264.900 142.660 H 267.800 C 267.855 142.660 267.900 142.615 267.900 142.560 V 136.560 C 267.900 136.504 267.855 136.460 267.800 136.460 H 264.900 C 264.800 136.460 264.900 136.560 264.900 136.460 V 130.660 C 264.900 130.560 264.800 130.660 264.900 130.660 H 267.800 C 267.855 130.660 267.900 130.615 267.900 130.560 V 124.560 C 267.900 124.504 267.855 124.460 267.800 124.460 H 264.900 C 264.800 124.460 264.900 124.560 264.900 124.460 V 118.660 C 264.900 118.560 264.800 118.660 264.900 118.660 H 267.800 C 267.855 118.660 267.900 118.615 267.900 118.560 V 112.560 C 267.900 112.504 267.855 112.460 267.800 112.460 H 264.900 C 264.800 112.460 264.900 112.560 264.900 112.460 V 106.660 C 264.900 106.560 264.800 106.660 264.900 106.660 H 267.800 C 267.855 106.660 267.900 106.615 267.900 106.560 V 100.560 C 267.900 100.504 267.855 100.460 267.800 100.460 H 264.900 C 264.800 100.460 264.900 100.560 264.900 100.460 V 94.660 C 264.900 94.560 264.800 94.660 264.900 94.660 H 267.800 C 267.855 94.660 267.900 94.615 267.900 94.560 V 88.560 C 267.900 88.504 267.855 88.460 267.800 88.460 H 264.900 C 264.800 88.460 264.900 88.560 264.900 88.460 V 82.660 C 264.900 82.560 264.800 82.660 264.900 82.660 H 267.800 C 267.855 82.660 267.900 82.615 267.900 82.560 V 76.560 C 267.900 76.504 267.855 76.460 267.800 76.460 H 264.900 C 264.800 76.460 264.900 76.560 264.900 76.460 V 70.660 C 264.900 70.560 264.800 70.660 264.900 70.660 H 267.800 C 267.855 70.660 267.900 70.615 267.900 70.560 V 64.560 C 267.900 64.504 267.855 64.460 267.800 64.460 H 264.900 C 264.800 64.460 264.900 64.560 264.900 64.460 V 58.660 C 264.900 58.560 264.800 58.660 264.900 58.660 H 267.800 C 267.855 58.660 267.900 58.615 267.900 58.560 V 49.600 C 267.900 49.545 267.855 49.500 267.800 49.500 H 264.800 H 142.800 H 139.800 C 139.745 49.500 139.700 49.545 139.700 49.600 V 58.560 C 139.700 58.615 139.745 58.660 139.800 58.660 H 142.700 C 142.800 58.660 142.700 58.560 142.700 58.660 V 64.460 C 142.700 64.560 142.800 64.460 142.700 64.460 H 139.800 C 139.745 64.460 139.700 64.504 139.700 64.560 V 70.560 C 139.700 70.615 139.745 70.660 139.800 70.660 H 142.700 C 142.800 70.660 142.700 70.560 142.700 70.660 V 76.460 C 142.700 76.560 142.800 76.460 142.700 76.460 H 139.800 C 139.745 76.460 139.700 76.504 139.700 76.560 V 82.560 C 139.700 82.615 139.745 82.660 139.800 82.660 H 142.700 C 142.800 82.660 142.700 82.560 142.700 82.660 V 88.460 C 142.700 88.560 142.800 88.460 142.700 88.460 H 139.800 C 139.745 88.460 139.700 88.504 139.700 88.560 V 94.560 C 139.700 94.615 139.745 94.660 139.800 94.660 H 142.700 C 142.800 94.660 142.700 94.560 142.700 94.660 V 100.460 C 142.700 100.560 142.800 100.460 142.700 100.460 H 139.800 C 139.745 100.460 139.700 100.504 139.700 100.560 V 106.560 C 139.700 106.615 139.745 106.660 139.800 106.660 H 142.700 C 142.800 106.660 142.700 106.560 142.700 106.660 V 112.460 C 142.700 112.560 142.800 112.460 142.700 112.460 H 139.800 C 139.745 112.460 139.700 112.504 139.700 112.560 V 118.560 C 139.700 118.615 139.745 118.660 139.800 118.660 H 142.700 C 142.800 118.660 142.700 118.560 142.700 118.660 V 124.460 C 142.700 124.560 142.800 124.460 142.700 124.460 H 139.800 C 139.745 124.460 139.700 124.504 139.700 124.560 V 130.560 C 139.700 130.615 139.745 130.660 139.800 130.660 H 142.700 C 142.800 130.660 142.700 130.560 142.700 130.660 V 136.460 C 142.700 136.560 142.800 136.460 142.700 136.460 H 139.800 C 139.745 136.460 139.700 136.504 139.700 136.560 V 142.560 C 139.700 142.615 139.745 142.660 139.800 142.660 H 142.700 C 142.800 142.660 142.700 142.560 142.700 142.660 V 148.460 C 142.700 148.560 142.800 148.460 142.700 148.460 H 139.800 C 139.745 148.460 139.700 148.504 139.700 148.560 V 154.560 C 139.700 154.615 139.745 154.660 139.800 154.660 H 142.700 C 142.800 154.660 142.700 154.560 142.700 154.660 V 160.460 C 142.700 160.560 142.800 160.460 142.700 160.460 H 139.800 C 139.745 160.460 139.700 160.504 139.700 160.560 V 166.560 C 139.700 166.615 139.745 166.660 139.800 166.660 H 142.700 C 142.800 166.660 142.700 166.560 142.700 166.660 V 172.460 C 142.700 172.560 142.800 172.460 142.700 172.460 H 139.800 C 139.745 172.460 139.700 172.504 139.700 172.560 V 178.560 C 139.700 178.615 139.745 178.660 139.800 178.660 H 142.700 C 142.800 178.660 142.700 178.560 142.700 178.660 V 184.460 C 142.700 184.560 142.800 184.460 142.700 184.460 H 139.800 C 139.745 184.460 139.700 184.504 139.700 184.560 V 190.560 C 139.700 190.615 139.745 190.660 139.800 190.660 H 142.700 C 142.800 190.660 142.700 190.560 142.700 190.660 V 196.460 C 142.700 196.560 142.800 196.460 142.700 196.460 H 139.800 C 139.745 196.460 139.700 196.504 139.700 196.560 V 202.560 C 139.700 202.615 139.745 202.660 139.800 202.660 H 142.700 C 142.800 202.660 142.700 202.560 142.700 202.660 V 208.460 C 142.700 208.560 142.800 208.460 142.700 208.460 H 139.800 C 139.745 208.460 139.700 208.504 139.700 208.560 V 214.560 C 139.700 214.615 139.745 214.660 139.800 214.660 H 142.700 C 142.800 214.660 142.700 214.560 142.700 214.660 V 220.460 C 142.700 220.560 142.800 220.460 142.700 220.460 H 139.800 C 139.745 220.460 139.700 220.504 139.700 220.560 V 226.560 C 139.700 226.615 139.745 226.660 139.800 226.660 H 142.700 C 142.800 226.660 142.700 226.560 142.700 226.660 V 232.460 C 142.700 232.560 142.800 232.460 142.700 232.460 H 139.800 C 139.745 232.460 139.700 232.504 139.700 232.560 V 238.560 C 139.700 238.615 139.745 238.660 139.800 238.660 H 142.700 C 142.800 238.660 142.700 238.560 142.700 238.660 V 244.460 C 142.700 244.560 142.800 244.460 142.700 244.460 H 139.800 C 139.745 244.460 139.700 244.504 139.700 244.560 V 253.519 C 139.700 253.574 139.745 253.619 139.800 253.619 H 142.800" stroke="rgb(0,0,0)" stroke-width="0.20"/>
</g>
<g id="p-3" style="fill:none;stroke-linecap:round;stroke-linejoin:round;">
  <path d="M 313.900 253.619 H 408.989 C 409.044 253.619 409.089 253.574 409.089 253.519 V 244.660 C 409.089 244.560 408.989 244.660 409.089 244.660 H 411.989 C 412.044 244.660 412.089 244.615 412.089 244.560 V 238.560 C 412.089 238.504 412.044 238.460 411.989 238.460 H 409.089 C 408.989 238.460 409.089 238.560 409.089 238.460 V 232.660 C 409.089 232.560 408.989 232.660 409.089 232.660 H 411.989 C 412.044 232.660 412.089 232.615 412.089 232.560 V 226.560 C 412.089 226.504 412.044 226.460 411.989 226.460 H 409.089 C 408.989 226.460 409.089 226.560 409.089 226.460 V 220.660 C 409.089 220.560 408.989 220.660 409.089 220.660 H 411.989 C 412.044 220.660 412.089 220.615 412.089 220.560 V 214.560 C 412.089 214.504 412.044 214.460 411.989 214.460 H 409.089 C 408.989 214.460 409.089 214.560 409.089 214.460 V 208.660 C 409.089 208.560 408.989 208.660 409.089 208.660 H 411.989 C 412.044 208.660 412.089 208.615 412.089 208.560 V 202.560 C 412.089 202.504 412.044 202.460 411.989 202.460 H 409.089 C 408.989 202.460 409.089 202.560 409.089 202.460 V 196.660 C 409.089 196.560 408.989 196.660 409.089 196.660 H 411.989 C 412.044 196.660 412.089 196.615 412.089 196.560 V 190.560 C 412.089 190.504 412.044 190.460 411.989 190.460 H 409.089 C 408.989 190.460 409.089 190.560 409.089 190.460 V 184.660 C 409.089 184.560 408.989 184.660 409.089 184.660 H 411.989 C 412.044 184.660 412.089 184.615 412.089 184.560 V 178.560 C 412.089 178.504 412.044 178.460 411.989 178.460 H 409.089 C 408.989 178.460 409.089 178.560 409.089 178.460 V 172.660 C 409.089 172.560 408.989 172.660 409.089 172.660 H 411.989 C 412.044 172.660 412.089 172.615 412.089 172.560 V 166.560 C 412.089 166.504 412.044 166.460 411.989 166.460 H 409.089 C 408.989 166.460 409.089 166.560 409.089 166.460 V 160.660 C 409.089 160.560 408.989 160.660 409.089 160.660 H 411.989 C 412.044 160.660 412.089 160.615 412.089 160.560 V 154.560 C 412.089 154.504 412.044 154.460 411.989 154.460 H 409.089 C 408.989 154.460 409.089 154.560 409.089 154.460 V 148.660 C 409.089 148.560 408.989 148.660 409.089 148.660 H 411.989 C 412.044 148.660 412.089 148.615 412.089 148.560 V 142.560 C 412.089 142.504 412.044 142.460 411.989 142.460 H 409.089 C 408.989 142.460 409.089 142.560 409.089 142.460 V 136.660 C 409.089 136.560 408.989 136.660 409.089 136.660 H 411.989 C 412.044 136.660 412.089 136.615 412.089 136.560 V 130.560 C 412.089 130.504 412.044 130.460 411.989 130.460 H 409.089 C 408.989 130.460 409.089 130.560 409.089 130.460 V 124.660 C 409.089 124.560 408.989 124.660 409.089 124.660 H 411.989 C 412.044 124.660 412.089 124.615 412.089 124.560 V 118.560 C 412.089 118.504 412.044 118.460 411.989 118.460 H 409.089 C 408.989 118.460 409.089 118.560 409.089 118.460 V 112.660 C 409.089 112.560 408.989 112.660 409.089 112.660 H 411.989 C 412.044 112.660 412.089 112.615 412.089 112.560 V 106.560 C 412.089 106.504 412.044 106.460 411.989 106.460 H 409.089 C 408.989 106.460 409.089 106.560 409.089 106.460 V 100.660 C 409.089 100.560 408.989 100.660 409.089 100.660 H 411.989 C 412.044 100.660 412.089 100.615 412.089 100.560 V 94.560 C 412.089 94.504 412.044 94.460 411.989 94.460 H 409.089 C 408.989 94.460 409.089 94.560 409.089 94.460 V 88.660 C 409.089 88.560 408.989 88.660 409.089 88.660 H 411.989 C 412.044 88.660 412.089 88.615 412.089 88.560 V 82.560 C 412.089 82.504 412.044 82.460 411.989 82.460 H 409.089 C 408.989 82.460 409.089 82.560 409.089 82.460 V 76.660 C 409.089 76.560 408.989 76.660 409.089 76.660 H 411.989 C 412.044 76.660 412.089 76.615 412.089 76.560 V 70.560 C 412.089 70.504 412.044 70.460 411.989 70.460 H 409.089 C 408.989 70.460 409.089 70.560 409.089 70.460 V 64.660 C 409.089 64.560 408.989 64.660 409.089 64.660 H 411.989 C 412.044 64.660 412.089 64.615 412.089 64.560 V 58.560 C 412.089 58.504 412.044 58.460 411.989 58.460 H 409.089 C 408.989 58.460 409.089 58.560 409.089 58.460 V 49.600 C 409.089 49.545 409.044 49.500 408.989 49.500 C 408.950 49.500 408.915 49.523 408.898 49.558 L 405.348 57.171 C 405.306 57.261 405.439 57.213 405.348 57.171 L 402.720 55.945 C 402.670 55.922 402.611 55.943 402.587 55.993 L 400.052 61.431 C 400.028 61.481 400.050 61.541 400.100 61.564 L 402.728 62.790 C 402.819 62.832 402.771 62.699 402.728 62.790 L 400.277 68.046 C 400.235 68.137 400.368 68.089 400.277 68.046 L 397.649 66.821 C 397.599 66.797 397.539 66.819 397.516 66.869 L 394.980 72.307 C 394.957 72.357 394.978 72.417 395.029 72.440 L 397.657 73.666 C 397.747 73.708 397.699 73.575 397.657 73.666 L 395.206 78.922 C 395.163 79.013 395.296 78.964 395.206 78.922 L 392.577 77.697 C 392.527 77.673 392.468 77.695 392.444 77.745 L 389.909 83.183 C 389.885 83.233 389.907 83.292 389.957 83.316 L 392.585 84.541 C 392.676 84.583 392.628 84.451 392.585 84.541 L 390.134 89.798 C 390.092 89.888 390.225 89.840 390.134 89.798 L 387.506 88.572 C 387.456 88.549 387.396 88.571 387.373 88.621 L 384.837 94.058 C 384.814 94.108 384.836 94.168 384.886 94.191 L 387.514 95.417 C 387.605 95.459 387.556 95.326 387.514 95.417 L 385.063 100.673 C 385.021 100.764 385.153 100.716 385.063 100.673 L 382.435 99.448 C 382.384 99.425 382.325 99.446 382.302 99.496 L 379.766 104.934 C 379.743 104.984 379.764 105.044 379.814 105.067 L 382.443 106.293 C 382.533 106.335 382.485 106.202 382.443 106.293 L 379.991 111.549 C 379.949 111.640 380.082 111.591 379.991 111.549 L 377.363 110.324 C 377.313 110.300 377.254 110.322 377.230 110.372 L 374.694 115.810 C 374.671 115.860 374.693 115.919 374.743 115.943 L 377.371 117.168 C 377.462 117.211 377.413 117.078 377.371 117.168 L 374.920 122.425 C 374.878 122.516 375.011 122.467 374.920 122.425 L 372.292 121.199 C 372.242 121.176 372.182 121.198 372.159 121.248 L 369.623 126.686 C 369.600 126.736 369.621 126.795 369.671 126.818 L 372.300 128.044 C 372.390 128.086 372.342 127.953 372.300 128.044 L 369.849 133.301 C 369.806 133.391 369.939 133.343 369.849 133.301 L 367.220 132.075 C 367.170 132.052 367.111 132.073 367.087 132.123 L 364.552 137.561 C 364.528 137.611 364.550 137.671 364.600 137.694 L 367.228 138.920 C 367.319 138.962 367.271 138.829 367.228 138.920 L 364.777 144.176 C 364.735 144.267 364.868 144.219 364.777 144.176 L 362.149 142.951 C 362.099 142.927 362.039 142.949 362.016 142.999 L 359.480 148.437 C 359.457 148.487 359.479 148.546 359.529 148.570 L 362.157 149.795 C 362.248 149.838 362.199 149.705 362.157 149.795 L 358.649 157.318 C 358.607 157.408 358.740 157.360 358.649 157.318 L 356.021 156.092 C 353.460 154.898 350.629 154.399 347.814 154.645 C 344.998 154.891 342.297 155.874 339.982 157.495 C 337.667 159.116 335.820 161.318 334.625 163.880 L 316.030 203.757 C 314.836 206.318 314.336 209.149 314.583 211.964 C 314.829 214.780 315.812 217.481 317.433 219.796 C 319.054 222.111 321.256 223.958 323.817 225.153 L 326.446 226.378 C 326.536 226.421 326.488 226.288 326.446 226.378 L 323.994 231.635 C 323.952 231.726 324.085 231.677 323.994 231.635 L 321.366 230.409 C 321.316 230.386 321.257 230.408 321.233 230.458 L 318.698 235.896 C 318.674 235.946 318.696 236.005 318.746 236.028 L 321.374 237.254 C 321.465 237.296 321.416 237.163 321.374 237.254 L 318.923 242.511 C 318.881 242.601 319.014 242.553 318.923 242.511 L 316.295 241.285 C 316.245 241.262 316.185 241.283 316.162 241.333 L 313.626 246.771 C 313.603 246.821 313.624 246.881 313.675 246.904 L 316.303 248.130 C 316.393 248.172 316.345 248.039 316.303 248.130 L 313.809 253.477 C 313.803 253.490 313.800 253.505 313.800 253.519 C 313.800 253.574 313.845 253.619 313.900 253.619 Z" stroke="rgb(0,0,0)" stroke-width="0.20"/>
  <path d="M 350.062 168.871 L 351.288 166.243 C 351.330 166.152 351.197 166.201 351.288 166.243 L 353.825 167.426 C 353.916 167.468 353.867 167.335 353.825 167.426 L 351.374 172.683 C 351.332 172.773 351.465 172.725 351.374 172.683 L 348.836 171.499 C 348.746 171.457 348.794 171.590 348.836 171.499 L 350.062 168.871 Z" stroke="rgb(0,0,255)" stroke-width="0.20"/>
  <path d="M 344.991 179.747 L 346.216 177.118 C 346.258 177.028 346.125 177.076 346.216 177.118 L 348.754 178.302 C 348.844 178.344 348.796 178.211 348.754 178.302 L 346.303 183.558 C 346.260 183.649 346.393 183.601 346.303 183.558 L 343.765 182.375 C 343.674 182.333 343.723 182.466 343.765 182.375 L 344.991 179.747 Z" stroke="rgb(0,0,255)" stroke-width="0.20"/>
  <path d="M 339.919 190.622 L 341.145 187.994 C 341.187 187.904 341.054 187.952 341.145 187.994 L 343.682 189.178 C 343.773 189.220 343.725 189.087 343.682 189.178 L 341.231 194.434 C 341.189 194.525 341.322 194.476 341.231 194.434 L 338.694 193.251 C 338.603 193.208 338.651 193.341 338.694 193.251 L 339.919 190.622 Z" stroke="rgb(0,0,255)" stroke-width="0.20"/>
  <path d="M 334.848 201.498 L 336.073 198.870 C 336.116 198.779 335.983 198.828 336.073 198.870 L 338.611 200.053 C 338.702 200.095 338.653 199.963 338.611 200.053 L 336.160 205.310 C 336.118 205.400 336.250 205.352 336.160 205.310 L 333.622 204.126 C 333.531 204.084 333.580 204.217 333.622 204.126 L 334.848 201.498 Z" stroke="rgb(0,0,255)" stroke-width="0.20"/>
  <path d="M 329.776 212.374 L 331.002 209.746 C 331.044 209.655 330.911 209.703 331.002 209.746 L 333.540 210.929 C 333.630 210.971 333.582 210.838 333.540 210.929 L 331.088 216.185 C 331.046 216.276 331.179 216.228 331.088 216.185 L 328.551 215.002 C 328.460 214.960 328.508 215.093 328.551 215.002 L 329.776 212.374 Z" stroke="rgb(0,0,255)" stroke-width="0.20"/>
  <path d="M 388.289 10.000 H 293.200 C 293.145 10.000 293.100 10.045 293.100 10.100 V 18.960 C 293.100 19.060 293.200 18.960 293.100 18.960 H 290.200 C 290.145 18.960 290.100 19.004 290.100 19.060 V 25.060 C 290.100 25.115 290.145 25.160 290.200 25.160 H 293.100 C 293.200 25.160 293.100 25.060 293.100 25.160 V 30.960 C 293.100 31.060 293.200 30.960 293.100 30.960 H 290.200 C 290.145 30.960 290.100 31.004 290.100 31.060 V 37.060 C 290.100 37.115 290.145 37.160 290.200 37.160 H 293.100 C 293.200 37.160 293.100 37.060 293.100 37.160 V 42.960 C 293.100 43.060 293.200 42.960 293.100 42.960 H 290.200 C 290.145 42.960 290.100 43.004 290.100 43.060 V 49.060 C 290.100 49.115 290.145 49.160 290.200 49.160 H 293.100 C 293.200 49.160 293.100 49.060 293.100 49.160 V 54.960 C 293.100 55.060 293.200 54.960 293.100 54.960 H 290.200 C 290.145 54.960 290.100 55.004 290.100 55.060 V 61.060 C 290.100 61.115 290.145 61.160 290.200 61.160 H 293.100 C 293.200 61.160 293.100 61.060 293.100 61.160 V 66.960 C 293.100 67.060 293.200 66.960 293.100 66.960 H 290.200 C 290.145 66.960 290.100 67.004 290.100 67.060 V 73.060 C 290.100 73.115 290.145 73.160 290.200 73.160 H 293.100 C 293.200 73.160 293.100 73.060 293.100 73.160 V 78.960 C 293.100 79.060 293.200 78.960 293.100 78.960 H 290.200 C 290.145 78.960 290.100 79.004 290.100 79.060 V 85.060 C 290.100 85.115 290.145 85.160 290.200 85.160 H 293.100 C 293.200 85.160 293.100 85.060 293.100 85.160 V 90.960 C 293.100 91.060 293.200 90.960 293.100 90.960 H 290.200 C 290.145 90.960 290.100 91.004 290.100 91.060 V 97.060 C 290.100 97.115 290.145 97.160 290.200 97.160 H 293.100 C 293.200 97.160 293.100 97.060 293.100 97.160 V 102.960 C 293.100 103.060 293.200 102.960 293.100 102.960 H 290.200 C 290.145 102.960 290.100 103.004 290.100 103.060 V 109.060 C 290.100 109.115 290.145 109.160 290.200 109.160 H 293.100 C 293.200 109.160 293.100 109.060 293.100 109.160 V 114.960 C 293.100 115.060 293.200 114.960 293.100 114.960 H 290.200 C 290.145 114.960 290.100 115.004 290.100 115.060 V 121.060 C 290.100 121.115 290.145 121.160 290.200 121.160 H 293.100 C 293.200 121.160 293.100 121.060 293.100 121.160 V 126.960 C 293.100 127.060 293.200 126.960 293.100 126.960 H 290.200 C 290.145 126.960 290.100 127.004 290.100 127.060 V 133.060 C 290.100 133.115 290.145 133.160 290.200 133.160 H 293.100 C 293.200 133.160 293.100 133.060 293.100 133.160 V 138.960 C 293.100 139.060 293.200 138.960 293.100 138.960 H 290.200 C 290.145 138.960 290.100 139.004 290.100 139.060 V 145.060 C 290.100 145.115 290.145 145.160 290.200 145.160 H 293.100 C 293.200 145.160 293.100 145.060 293.100 145.160 V 150.960 C 293.100 151.060 293.200 150.960 293.100 150.960 H 290.200 C 290.145 150.960 290.100 151.004 290.100 151.060 V 157.060 C 290.100 157.115 290.145 157.160 290.200 157.160 H 293.100 C 293.200 157.160 293.100 157.060 293.100 157.160 V 162.960 C 293.100 163.060 293.200 162.960 293.100 162.960 H 290.200 C 290.145 162.960 290.100 163.004 290.100 163.060 V 169.060 C 290.100 169.115 290.145 169.160 290.200 169.160 H 293.100 C 293.200 169.160 293.100 169.060 293.100 169.160 V 174.960 C 293.100 175.060 293.200 174.960 293.100 174.960 H 290.200 C 290.145 174.960 290.100 175.004 290.100 175.060 V 181.060 C 290.100 181.115 290.145 181.160 290.200 181.160 H 293.100 C 293.200 181.160 293.100 181.060 293.100 181.160 V 186.960 C 293.100 187.060 293.200 186.960 293.100 186.960 H 290.200 C 290.145 186.960 290.100 187.004 290.100 187.060 V 193.060 C 290.100 193.115 290.145 193.160 290.200 193.160 H 293.100 C 293.200 193.160 293.100 193.060 293.100 193.160 V 198.960 C 293.100 199.060 293.200 198.960 293.100 198.960 H 290.200 C 290.145 198.960 290.100 199.004 290.100 199.060 V 205.060 C 290.100 205.115 290.145 205.160 290.200 205.160 H 293.100 C 293.200 205.160 293.100 205.060 293.100 205.160 V 214.019 C 293.100 214.074 293.145 214.119 293.200 214.119 C 293.239 214.119 293.274 214.097 293.291 214.062 L 296.841 206.449 C 296.883 206.358 296.750 206.406 296.841 206.449 L 299.469 207.674 C 299.519 207.697 299.578 207.676 299.602 207.626 L 302.138 202.188 C 302.161 202.138 302.139 202.078 302.089 202.055 L 299.461 200.829 C 299.370 200.787 299.419 200.920 299.461 200.829 L 301.912 195.573 C 301.954 195.482 301.821 195.531 301.912 195.573 L 304.540 196.798 C 304.590 196.822 304.650 196.800 304.673 196.750 L 307.209 191.312 C 307.232 191.262 307.211 191.203 307.161 191.179 L 304.532 189.954 C 304.442 189.911 304.490 190.044 304.532 189.954 L 306.983 184.697 C 307.026 184.607 306.893 184.655 306.983 184.697 L 309.612 185.923 C 309.662 185.946 309.721 185.924 309.745 185.874 L 312.280 180.437 C 312.304 180.386 312.282 180.327 312.232 180.304 L 309.604 179.078 C 309.513 179.036 309.561 179.169 309.604 179.078 L 312.055 173.821 C 312.097 173.731 311.964 173.779 312.055 173.821 L 314.683 175.047 C 314.733 175.070 314.793 175.049 314.816 174.999 L 317.352 169.561 C 317.375 169.511 317.353 169.451 317.303 169.428 L 314.675 168.202 C 314.584 168.160 314.633 168.293 314.675 168.202 L 317.126 162.946 C 317.169 162.855 317.036 162.903 317.126 162.946 L 319.755 164.171 C 319.805 164.195 319.864 164.173 319.887 164.123 L 322.423 158.685 C 322.447 158.635 322.425 158.576 322.375 158.552 L 319.747 157.327 C 319.656 157.284 319.704 157.417 319.747 157.327 L 322.198 152.070 C 322.240 151.979 322.107 152.028 322.198 152.070 L 324.826 153.296 C 324.876 153.319 324.936 153.297 324.959 153.247 L 327.495 147.809 C 327.518 147.759 327.496 147.700 327.446 147.677 L 324.818 146.451 C 324.727 146.409 324.776 146.542 324.818 146.451 L 327.269 141.194 C 327.311 141.104 327.179 141.152 327.269 141.194 L 329.897 142.420 C 329.947 142.443 330.007 142.422 330.030 142.372 L 332.566 136.934 C 332.589 136.884 332.568 136.824 332.518 136.801 L 329.889 135.575 C 329.799 135.533 329.847 135.666 329.889 135.575 L 332.341 130.319 C 332.383 130.228 332.250 130.276 332.341 130.319 L 334.969 131.544 C 335.019 131.568 335.078 131.546 335.102 131.496 L 337.637 126.058 C 337.661 126.008 337.639 125.948 337.589 125.925 L 334.961 124.700 C 334.870 124.657 334.919 124.790 334.961 124.700 L 337.412 119.443 C 337.454 119.352 337.321 119.401 337.412 119.443 L 340.040 120.669 C 340.090 120.692 340.150 120.670 340.173 120.620 L 342.709 115.182 C 342.732 115.132 342.711 115.073 342.661 115.049 L 340.032 113.824 C 339.942 113.782 339.990 113.915 340.032 113.824 L 343.540 106.302 C 343.582 106.211 343.449 106.259 343.540 106.302 L 346.168 107.527 C 348.730 108.721 351.560 109.221 354.376 108.974 C 357.191 108.728 359.892 107.745 362.207 106.124 C 364.522 104.503 366.370 102.301 367.564 99.740 L 386.159 59.862 C 387.354 57.301 387.853 54.470 387.606 51.655 C 387.360 48.839 386.377 46.138 384.756 43.823 C 383.135 41.508 380.933 39.661 378.372 38.466 L 375.743 37.241 C 375.653 37.199 375.701 37.331 375.743 37.241 L 378.195 31.984 C 378.237 31.894 378.104 31.942 378.195 31.984 L 380.823 33.210 C 380.873 33.233 380.932 33.212 380.956 33.162 L 383.492 27.724 C 383.515 27.674 383.493 27.614 383.443 27.591 L 380.815 26.365 C 380.724 26.323 380.773 26.456 380.815 26.365 L 383.266 21.109 C 383.308 21.018 383.175 21.066 383.266 21.109 L 385.894 22.334 C 385.944 22.358 386.004 22.336 386.027 22.286 L 388.563 16.848 C 388.586 16.798 388.565 16.738 388.515 16.715 L 385.886 15.489 C 385.796 15.447 385.844 15.580 385.886 15.489 L 388.380 10.142 C 388.386 10.129 388.389 10.115 388.389 10.100 C 388.389 10.045 388.344 10.000 388.289 10.000 Z" stroke="rgb(0,0,0)" stroke-width="0.20"/>
  <path d="M 352.127 94.748 L 350.902 97.376 C 350.859 97.467 350.992 97.419 350.902 97.376 L 348.364 96.193 C 348.273 96.151 348.322 96.284 348.364 96.193 L 350.815 90.937 C 350.857 90.846 350.724 90.894 350.815 90.937 L 353.353 92.120 C 353.443 92.162 353.395 92.029 353.353 92.120 L 352.127 94.748 Z" stroke="rgb(0,0,255)" stroke-width="0.20"/>
  <path d="M 357.199 83.872 L 355.973 86.501 C 355.931 86.591 356.064 86.543 355.973 86.501 L 353.435 85.317 C 353.345 85.275 353.393 85.408 353.435 85.317 L 355.887 80.061 C 355.929 79.970 355.796 80.019 355.887 80.061 L 358.424 81.244 C 358.515 81.286 358.466 81.154 358.424 81.244 L 357.199 83.872 Z" stroke="rgb(0,0,255)" stroke-width="0.20"/>
  <path d="M 362.270 72.997 L 361.044 75.625 C 361.002 75.716 361.135 75.667 361.044 75.625 L 358.507 74.442 C 358.416 74.399 358.464 74.532 358.507 74.442 L 360.958 69.185 C 361.000 69.095 360.867 69.143 360.958 69.185 L 363.496 70.368 C 363.586 70.411 363.538 70.278 363.496 70.368 L 362.270 72.997 Z" stroke="rgb(0,0,255)" stroke-width="0.20"/>
  <path d="M 367.341 62.121 L 366.116 64.749 C 366.074 64.840 366.206 64.792 366.116 64.749 L 363.578 63.566 C 363.488 63.524 363.536 63.657 363.578 63.566 L 366.029 58.309 C 366.072 58.219 365.939 58.267 366.029 58.309 L 368.567 59.493 C 368.658 59.535 368.609 59.402 368.567 59.493 L 367.341 62.121 Z" stroke="rgb(0,0,255)" stroke-width="0.20"/>
  <path d="M 372.413 51.245 L 371.187 53.874 C 371.145 53.964 371.278 53.916 371.187 53.874 L 368.650 52.690 C 368.559 52.648 368.607 52.781 368.650 52.690 L 371.101 47.434 C 371.143 47.343 371.010 47.392 371.101 47.434 L 373.638 48.617 C 373.729 48.659 373.681 48.526 373.638 48.617 L 372.413 51.245 Z" stroke="rgb(0,0,255)" stroke-width="0.20"/>
  <text alignment-baseline="hanging" font-size="4px" style="font-family: sans-serif ; font-weight: normal; font-style: normal; fill: rgb(255,0,0)" text-anchor="middle" transform="matrix( 1.000 0.000 0.000 1.000 340.745 129.810 )"/>
</g>
<g id="p-4" style="fill:none;stroke-linecap:round;stroke-linejoin:round;">
  <text alignment-baseline="hanging" font-size="4px" style="font-family: sans-serif ; font-weight: normal; font-style: normal; fill: rgb(255,0,0)" text-anchor="middle" transform="matrix( 1.000 0.000 0.000 1.000 447.417 203.585 )"/><path d="M 481.144 253.619 H 436.347 C 436.332 253.619 436.318 253.616 436.305 253.610 C 432.311 251.748 428.879 248.867 426.352 245.258 C 423.824 241.649 422.292 237.438 421.908 233.049 C 421.524 228.660 422.302 224.247 424.164 220.254 L 428.390 211.191 C 428.620 210.698 428.976 210.274 429.422 209.962 C 429.867 209.649 430.387 209.460 430.929 209.413 C 431.472 209.365 432.017 209.461 432.510 209.691 C 433.003 209.921 433.427 210.277 433.739 210.723 C 434.051 211.169 434.240 211.689 434.288 212.231 C 434.335 212.773 434.239 213.318 434.009 213.811 L 432.107 217.889 C 432.078 217.953 432.065 218.023 432.071 218.093 C 432.078 218.163 432.102 218.230 432.142 218.288 C 432.183 218.345 432.237 218.391 432.301 218.421 L 448.977 226.197 C 449.068 226.239 448.935 226.288 448.977 226.197 L 453.541 216.409 C 453.584 216.318 453.632 216.451 453.541 216.409 L 450.913 215.183 C 450.863 215.160 450.841 215.101 450.865 215.051 L 453.400 209.613 C 453.424 209.563 453.483 209.541 453.533 209.564 L 456.161 210.790 C 456.252 210.832 456.119 210.881 456.161 210.790 L 458.613 205.533 C 458.655 205.443 458.703 205.576 458.613 205.533 L 455.984 204.308 C 455.934 204.284 455.913 204.225 455.936 204.175 L 458.472 198.737 C 458.495 198.687 458.555 198.665 458.605 198.689 L 461.233 199.914 C 461.324 199.956 461.191 200.005 461.233 199.914 L 463.684 194.658 C 463.726 194.567 463.775 194.700 463.684 194.658 L 461.056 193.432 C 461.006 193.409 460.984 193.349 461.007 193.299 L 463.543 187.861 C 463.566 187.811 463.626 187.790 463.676 187.813 L 466.304 189.039 C 466.395 189.081 466.262 189.129 466.304 189.039 L 468.756 183.782 C 468.798 183.691 468.846 183.824 468.756 183.782 L 466.127 182.556 C 466.077 182.533 466.056 182.473 466.079 182.423 L 468.615 176.986 C 468.638 176.936 468.697 176.914 468.747 176.937 L 471.376 178.163 C 471.466 178.205 471.333 178.253 471.376 178.163 L 473.827 172.906 C 473.869 172.816 473.918 172.948 473.827 172.906 L 471.199 171.681 C 471.149 171.657 471.127 171.598 471.150 171.548 L 473.686 166.110 C 473.709 166.060 473.769 166.038 473.819 166.062 L 476.447 167.287 C 476.538 167.329 476.405 167.378 476.447 167.287 L 481.054 157.408 C 481.061 157.392 481.073 157.378 481.088 157.368 C 481.103 157.358 481.121 157.352 481.139 157.351 C 481.157 157.350 481.175 157.354 481.191 157.362 C 481.207 157.371 481.221 157.384 481.230 157.399 C 481.239 157.415 481.244 157.432 481.244 157.451 V 253.519 C 481.244 253.574 481.200 253.619 481.144 253.619" stroke="rgb(0,0,0)" stroke-width="0.20"/>
</g>
<g id="p-5" style="fill:none;stroke-linecap:round;stroke-linejoin:round;">
  <text alignment-baseline="hanging" font-size="4px" style="font-family: sans-serif ; font-weight: normal; font-style: normal; fill: rgb(255,0,0)" text-anchor="middle" transform="matrix( 1.000 0.000 0.000 1.000 516.572 203.585 )"/><path d="M 482.844 253.619 H 527.642 C 527.656 253.619 527.671 253.616 527.684 253.610 C 531.677 251.748 535.110 248.867 537.637 245.258 C 540.164 241.649 541.697 237.438 542.081 233.049 C 542.465 228.660 541.687 224.247 539.825 220.254 L 535.599 211.191 C 535.369 210.698 535.013 210.274 534.567 209.962 C 534.121 209.649 533.601 209.460 533.059 209.413 C 532.517 209.365 531.972 209.461 531.479 209.691 C 530.986 209.921 530.562 210.277 530.250 210.723 C 529.938 211.169 529.748 211.689 529.701 212.231 C 529.653 212.773 529.749 213.318 529.979 213.811 L 531.881 217.889 C 531.911 217.953 531.923 218.023 531.917 218.093 C 531.911 218.163 531.887 218.230 531.846 218.288 C 531.806 218.345 531.751 218.391 531.688 218.421 L 515.012 226.197 C 514.921 226.239 515.054 226.288 515.012 226.197 L 510.447 216.409 C 510.405 216.318 510.357 216.451 510.447 216.409 L 513.076 215.183 C 513.126 215.160 513.147 215.101 513.124 215.051 L 510.588 209.613 C 510.565 209.563 510.506 209.541 510.455 209.564 L 507.827 210.790 C 507.737 210.832 507.869 210.881 507.827 210.790 L 505.376 205.533 C 505.334 205.443 505.285 205.576 505.376 205.533 L 508.004 204.308 C 508.054 204.284 508.076 204.225 508.053 204.175 L 505.517 198.737 C 505.494 198.687 505.434 198.665 505.384 198.689 L 502.756 199.914 C 502.665 199.956 502.798 200.005 502.756 199.914 L 500.305 194.658 C 500.262 194.567 500.214 194.700 500.305 194.658 L 502.933 193.432 C 502.983 193.409 503.005 193.349 502.981 193.299 L 500.446 187.861 C 500.422 187.811 500.363 187.790 500.313 187.813 L 497.684 189.039 C 497.594 189.081 497.727 189.129 497.684 189.039 L 495.233 183.782 C 495.191 183.691 495.143 183.824 495.233 183.782 L 497.861 182.556 C 497.912 182.533 497.933 182.473 497.910 182.423 L 495.374 176.986 C 495.351 176.936 495.291 176.914 495.241 176.937 L 492.613 178.163 C 492.522 178.205 492.655 178.253 492.613 178.163 L 490.162 172.906 C 490.119 172.816 490.071 172.948 490.162 172.906 L 492.790 171.681 C 492.840 171.657 492.862 171.598 492.838 171.548 L 490.303 166.110 C 490.279 166.060 490.220 166.038 490.170 166.062 L 487.542 167.287 C 487.451 167.329 487.584 167.378 487.542 167.287 L 482.935 157.408 C 482.927 157.392 482.915 157.378 482.900 157.368 C 482.885 157.358 482.868 157.352 482.850 157.351 C 482.831 157.350 482.813 157.354 482.797 157.362 C 482.781 157.371 482.768 157.384 482.759 157.399 C 482.749 157.415 482.744 157.432 482.744 157.451 V 253.519 C 482.744 253.574 482.789 253.619 482.844 253.619" stroke="rgb(0,0,0)" stroke-width="0.20"/>
</g>
</svg>