<?xml version="1.0" encoding="UTF-8"?>
<!DOCTYPE svg PUBLIC "-//W3C//DTD SVG 1.1//EN" "http://www.w3.org/Graphics/SVG/1.1/DTD/svg11.dtd">
<!-- Creator: CorelDRAW SE (OEM-Version) -->
<svg xmlns="http://www.w3.org/2000/svg" xml:space="preserve" width="609mm" height="304mm" version="1.1" style="shape-rendering:geometricPrecision; text-rendering:geometricPrecision; image-rendering:optimizeQuality; fill-rule:evenodd; clip-rule:evenodd"
viewBox="0 0 60900 30400"
 xmlns:xlink="http://www.w3.org/1999/xlink"
 xmlns:cc="http://creativecommons.org/ns#"
 xmlns:dc="http://purl.org/dc/elements/1.1/"
 xmlns:inkscape="http://www.inkscape.org/namespaces/inkscape"
 xmlns:rdf="http://www.w3.org/1999/02/22-rdf-syntax-ns#"
 xmlns:svg="http://www.w3.org/2000/svg">
 <defs>
  <style type="text/css">
   <![CDATA[
    .str0 {stroke:black;stroke-width:7.62;stroke-linecap:round;stroke-linejoin:round;stroke-miterlimit:22.9256}
    .fil0 {fill:none}
   ]]>
  </style>
 </defs>
 <g id="Ebene_x0020_1">
  <metadata id="CorelCorpID_0Corel-Layer"/>
  <path class="fil0 str0" d="M6713.01 20703.32l0 290c0,10 10,0 0,0l-280 0c-10,0 0,10 0,0l0 -580c0,-10 -10,0 0,0l280 0c10,0 0,-10 0,0l0 290z"/>
  <path class="fil0 str0" d="M6713.01 19503.32l0 290c0,10 10,0 0,0l-280 0c-10,0 0,10 0,0l0 -580c0,-10 -10,0 0,0l280 0c10,0 0,-10 0,0l0 290z"/>
  <path class="fil0 str0" d="M6713.01 18303.32l0 290c0,10 10,0 0,0l-280 0c-10,0 0,10 0,0l0 -580c0,-10 -10,0 0,0l280 0c10,0 0,-10 0,0l0 290z"/>
  <path class="fil0 str0" d="M6713.01 17103.32l0 290c0,10 10,0 0,0l-280 0c-10,0 0,10 0,0l0 -580c0,-10 -10,0 0,0l280 0c10,0 0,-10 0,0l0 290z"/>
  <path class="fil0 str0" d="M6713.01 15903.32l0 290c0,10 10,0 0,0l-280 0c-10,0 0,10 0,0l0 -580c0,-10 -10,0 0,0l280 0c10,0 0,-10 0,0l0 290z"/>
  <path class="fil0 str0" d="M6713.01 14703.32l0 290c0,10 10,0 0,0l-280 0c-10,0 0,10 0,0l0 -580c0,-10 -10,0 0,0l280 0c10,0 0,-10 0,0l0 290z"/>
  <path class="fil0 str0" d="M6713.01 13503.32l0 290c0,10 10,0 0,0l-280 0c-10,0 0,10 0,0l0 -580c0,-10 -10,0 0,0l280 0c10,0 0,-10 0,0l0 290z"/>
  <path class="fil0 str0" d="M6713.01 12303.32l0 290c0,10 10,0 0,0l-280 0c-10,0 0,10 0,0l0 -580c0,-10 -10,0 0,0l280 0c10,0 0,-10 0,0l0 290z"/>
  <path class="fil0 str0" d="M11613.01 20703.32l0 290c0,10 10,0 0,0l-280 0c-10,0 0,10 0,0l0 -580c0,-10 -10,0 0,0l280 0c10,0 0,-10 0,0l0 290z"/>
  <path class="fil0 str0" d="M11613.01 19503.32l0 290c0,10 10,0 0,0l-280 0c-10,0 0,10 0,0l0 -580c0,-10 -10,0 0,0l280 0c10,0 0,-10 0,0l0 290z"/>
  <path class="fil0 str0" d="M11613.01 18303.32l0 290c0,10 10,0 0,0l-280 0c-10,0 0,10 0,0l0 -580c0,-10 -10,0 0,0l280 0c10,0 0,-10 0,0l0 290z"/>
  <path class="fil0 str0" d="M11613.01 17103.32l0 290c0,10 10,0 0,0l-280 0c-10,0 0,10 0,0l0 -580c0,-10 -10,0 0,0l280 0c10,0 0,-10 0,0l0 290z"/>
  <path class="fil0 str0" d="M11613.01 15903.32l0 290c0,10 10,0 0,0l-280 0c-10,0 0,10 0,0l0 -580c0,-10 -10,0 0,0l280 0c10,0 0,-10 0,0l0 290z"/>
  <path class="fil0 str0" d="M11613.01 14703.32l0 290c0,10 10,0 0,0l-280 0c-10,0 0,10 0,0l0 -580c0,-10 -10,0 0,0l280 0c10,0 0,-10 0,0l0 290z"/>
  <path class="fil0 str0" d="M11613.01 13503.32l0 290c0,10 10,0 0,0l-280 0c-10,0 0,10 0,0l0 -580c0,-10 -10,0 0,0l280 0c10,0 0,-10 0,0l0 290z"/>
  <path class="fil0 str0" d="M11613.01 12303.32l0 290c0,10 10,0 0,0l-280 0c-10,0 0,10 0,0l0 -580c0,-10 -10,0 0,0l280 0c10,0 0,-10 0,0l0 290z"/>
  <path class="fil0 str0" d="M2423.01 21643.32l-290 0c-10,0 0,10 0,0l0 -280c0,-10 -10,0 0,0l580 0c10,0 0,-10 0,0l0 280c0,10 10,0 0,0l-290 0z"/>
  <path class="fil0 str0" d="M3623.01 21643.32l-290 0c-10,0 0,10 0,0l0 -280c0,-10 -10,0 0,0l580 0c10,0 0,-10 0,0l0 280c0,10 10,0 0,0l-290 0z"/>
  <path class="fil0 str0" d="M4823.01 21643.32l-290 0c-10,0 0,10 0,0l0 -280c0,-10 -10,0 0,0l580 0c10,0 0,-10 0,0l0 280c0,10 10,0 0,0l-290 0z"/>
  <path class="fil0 str0" d="M6023.01 21643.32l-290 0c-10,0 0,10 0,0l0 -280c0,-10 -10,0 0,0l580 0c10,0 0,-10 0,0l0 280c0,10 10,0 0,0l-290 0z"/>
  <path class="fil0 str0" d="M7223.01 21643.32l-290 0c-10,0 0,10 0,0l0 -280c0,-10 -10,0 0,0l580 0c10,0 0,-10 0,0l0 280c0,10 10,0 0,0l-290 0z"/>
  <path class="fil0 str0" d="M8423.01 21643.32l-290 0c-10,0 0,10 0,0l0 -280c0,-10 -10,0 0,0l580 0c10,0 0,-10 0,0l0 280c0,10 10,0 0,0l-290 0z"/>
  <path class="fil0 str0" d="M9623.01 21643.32l-290 0c-10,0 0,10 0,0l0 -280c0,-10 -10,0 0,0l580 0c10,0 0,-10 0,0l0 280c0,10 10,0 0,0l-290 0z"/>
  <path class="fil0 str0" d="M10823.01 21643.32l-290 0c-10,0 0,10 0,0l0 -280c0,-10 -10,0 0,0l580 0c10,0 0,-10 0,0l0 280c0,10 10,0 0,0l-290 0z"/>
  <path class="fil0 str0" d="M12023.01 21643.32l-290 0c-10,0 0,10 0,0l0 -280c0,-10 -10,0 0,0l580 0c10,0 0,-10 0,0l0 280c0,10 10,0 0,0l-290 0z"/>
  <path class="fil0 str0" d="M13223.01 21643.32l-290 0c-10,0 0,10 0,0l0 -280c0,-10 -10,0 0,0l580 0c10,0 0,-10 0,0l0 280c0,10 10,0 0,0l-290 0z"/>
  <path class="fil0 str0" d="M14423.01 21643.32l-290 0c-10,0 0,10 0,0l0 -280c0,-10 -10,0 0,0l580 0c10,0 0,-10 0,0l0 280c0,10 10,0 0,0l-290 0z"/>
  <path class="fil0 str0" d="M15623.01 21643.32l-290 0c-10,0 0,10 0,0l0 -280c0,-10 -10,0 0,0l580 0c10,0 0,-10 0,0l0 280c0,10 10,0 0,0l-290 0z"/>
  <path class="fil0 str0" d="M1823.01 21963.32l14400 0 300 0c5.5,0 10,-4.5 10,-10l0 -650c0,-5.5 -4.5,-10 -10,-10l-290 0c-10,0 0,10 0,0l0 -580c0,-10 -10,0 0,0l290 0c5.5,0 10,-4.5 10,-10l0 -600c0,-5.5 -4.5,-10 -10,-10l-290 0c-10,0 0,10 0,0l0 -580c0,-10 -10,0 0,0l290 0c5.5,0 10,-4.5 10,-10l0 -600c0,-5.5 -4.5,-10 -10,-10l-290 0c-10,0 0,10 0,0l0 -580c0,-10 -10,0 0,0l290 0c5.5,0 10,-4.5 10,-10l0 -600c0,-5.5 -4.5,-10 -10,-10l-290 0c-10,0 0,10 0,0l0 -580c0,-10 -10,0 0,0l290 0c5.5,0 10,-4.5 10,-10l0 -600c0,-5.5 -4.5,-10 -10,-10l-290 0c-10,0 0,10 0,0l0 -580c0,-10 -10,0 0,0l290 0c5.5,0 10,-4.5 10,-10l0 -600c0,-5.5 -4.5,-10 -10,-10l-290 0c-10,0 0,10 0,0l0 -580c0,-10 -10,0 0,0l290 0c5.5,0 10,-4.5 10,-10l0 -600c0,-5.5 -4.5,-10 -10,-10l-290 0c-10,0 0,10 0,0l0 -580c0,-10 -10,0 0,0l290 0c5.5,0 10,-4.5 10,-10l0 -600c0,-5.5 -4.5,-10 -10,-10l-290 0c-10,0 0,10 0,0l0 -580c0,-10 -10,0 0,0l290 0c5.5,0 10,-4.5 10,-10l0 -650c0,-5.5 -4.5,-10 -10,-10l-300 0 -14400 0 -300 0c-5.5,0 -10,4.5 -10,10l0 650c0,5.5 4.5,10 10,10l290 0c10,0 0,-10 0,0l0 580c0,10 10,0 0,0l-290 0c-5.5,0 -10,4.5 -10,10l0 600c0,5.5 4.5,10 10,10l290 0c10,0 0,-10 0,0l0 580c0,10 10,0 0,0l-290 0c-5.5,0 -10,4.5 -10,10l0 600c0,5.5 4.5,10 10,10l290 0c10,0 0,-10 0,0l0 580c0,10 10,0 0,0l-290 0c-5.5,0 -10,4.5 -10,10l0 600c0,5.5 4.5,10 10,10l290 0c10,0 0,-10 0,0l0 580c0,10 10,0 0,0l-290 0c-5.5,0 -10,4.5 -10,10l0 600c0,5.5 4.5,10 10,10l290 0c10,0 0,-10 0,0l0 580c0,10 10,0 0,0l-290 0c-5.5,0 -10,4.5 -10,10l0 600c0,5.5 4.5,10 10,10l290 0c10,0 0,-10 0,0l0 580c0,10 10,0 0,0l-290 0c-5.5,0 -10,4.5 -10,10l0 600c0,5.5 4.5,10 10,10l290 0c10,0 0,-10 0,0l0 580c0,10 10,0 0,0l-290 0c-5.5,0 -10,4.5 -10,10l0 600c0,5.5 4.5,10 10,10l290 0c10,0 0,-10 0,0l0 580c0,10 10,0 0,0l-290 0c-5.5,0 -10,4.5 -10,10l0 650c0,5.5 4.5,10 10,10l300 0" alignment-baseline="hanging" text-anchor="middle"/>
  <path class="fil0 str0" d="M11333.01 10233.32l0 290c0,10 -10,0 0,0l280 0c10,0 0,10 0,0l0 -580c0,-10 10,0 0,0l-280 0c-10,0 0,-10 0,0l0 290z"/>
  <path class="fil0 str0" d="M11333.01 9033.32l0 290c0,10 -10,0 0,0l280 0c10,0 0,10 0,0l0 -580c0,-10 10,0 0,0l-280 0c-10,0 0,-10 0,0l0 290z"/>
  <path class="fil0 str0" d="M11333.01 7833.32l0 290c0,10 -10,0 0,0l280 0c10,0 0,10 0,0l0 -580c0,-10 10,0 0,0l-280 0c-10,0 0,-10 0,0l0 290z"/>
  <path class="fil0 str0" d="M11333.01 6633.32l0 290c0,10 -10,0 0,0l280 0c10,0 0,10 0,0l0 -580c0,-10 10,0 0,0l-280 0c-10,0 0,-10 0,0l0 290z"/>
  <path class="fil0 str0" d="M11333.01 5433.32l0 290c0,10 -10,0 0,0l280 0c10,0 0,10 0,0l0 -580c0,-10 10,0 0,0l-280 0c-10,0 0,-10 0,0l0 290z"/>
  <path class="fil0 str0" d="M11333.01 4233.32l0 290c0,10 -10,0 0,0l280 0c10,0 0,10 0,0l0 -580c0,-10 10,0 0,0l-280 0c-10,0 0,-10 0,0l0 290z"/>
  <path class="fil0 str0" d="M11333.01 3033.32l0 290c0,10 -10,0 0,0l280 0c10,0 0,10 0,0l0 -580c0,-10 10,0 0,0l-280 0c-10,0 0,-10 0,0l0 290z"/>
  <path class="fil0 str0" d="M11333.01 1833.32l0 290c0,10 -10,0 0,0l280 0c10,0 0,10 0,0l0 -580c0,-10 10,0 0,0l-280 0c-10,0 0,-10 0,0l0 290z"/>
  <path class="fil0 str0" d="M6433.01 10233.32l0 290c0,10 -10,0 0,0l280 0c10,0 0,10 0,0l0 -580c0,-10 10,0 0,0l-280 0c-10,0 0,-10 0,0l0 290z"/>
  <path class="fil0 str0" d="M6433.01 9033.32l0 290c0,10 -10,0 0,0l280 0c10,0 0,10 0,0l0 -580c0,-10 10,0 0,0l-280 0c-10,0 0,-10 0,0l0 290z"/>
  <path class="fil0 str0" d="M6433.01 7833.32l0 290c0,10 -10,0 0,0l280 0c10,0 0,10 0,0l0 -580c0,-10 10,0 0,0l-280 0c-10,0 0,-10 0,0l0 290z"/>
  <path class="fil0 str0" d="M6433.01 6633.32l0 290c0,10 -10,0 0,0l280 0c10,0 0,10 0,0l0 -580c0,-10 10,0 0,0l-280 0c-10,0 0,-10 0,0l0 290z"/>
  <path class="fil0 str0" d="M6433.01 5433.32l0 290c0,10 -10,0 0,0l280 0c10,0 0,10 0,0l0 -580c0,-10 10,0 0,0l-280 0c-10,0 0,-10 0,0l0 290z"/>
  <path class="fil0 str0" d="M6433.01 4233.32l0 290c0,10 -10,0 0,0l280 0c10,0 0,10 0,0l0 -580c0,-10 10,0 0,0l-280 0c-10,0 0,-10 0,0l0 290z"/>
  <path class="fil0 str0" d="M6433.01 3033.32l0 290c0,10 -10,0 0,0l280 0c10,0 0,10 0,0l0 -580c0,-10 10,0 0,0l-280 0c-10,0 0,-10 0,0l0 290z"/>
  <path class="fil0 str0" d="M6433.01 1833.32l0 290c0,10 -10,0 0,0l280 0c10,0 0,10 0,0l0 -580c0,-10 10,0 0,0l-280 0c-10,0 0,-10 0,0l0 290z"/>
  <path class="fil0 str0" d="M2423.01 11173.32l-290 0c-10,0 0,10 0,0l0 -280c0,-10 -10,0 0,0l580 0c10,0 0,-10 0,0l0 280c0,10 10,0 0,0l-290 0z"/>
  <path class="fil0 str0" d="M3623.01 11173.32l-290 0c-10,0 0,10 0,0l0 -280c0,-10 -10,0 0,0l580 0c10,0 0,-10 0,0l0 280c0,10 10,0 0,0l-290 0z"/>
  <path class="fil0 str0" d="M4823.01 11173.32l-290 0c-10,0 0,10 0,0l0 -280c0,-10 -10,0 0,0l580 0c10,0 0,-10 0,0l0 280c0,10 10,0 0,0l-290 0z"/>
  <path class="fil0 str0" d="M6023.01 11173.32l-290 0c-10,0 0,10 0,0l0 -280c0,-10 -10,0 0,0l580 0c10,0 0,-10 0,0l0 280c0,10 10,0 0,0l-290 0z"/>
  <path class="fil0 str0" d="M7223.01 11173.32l-290 0c-10,0 0,10 0,0l0 -280c0,-10 -10,0 0,0l580 0c10,0 0,-10 0,0l0 280c0,10 10,0 0,0l-290 0z"/>
  <path class="fil0 str0" d="M8423.01 11173.32l-290 0c-10,0 0,10 0,0l0 -280c0,-10 -10,0 0,0l580 0c10,0 0,-10 0,0l0 280c0,10 10,0 0,0l-290 0z"/>
  <path class="fil0 str0" d="M9623.01 11173.32l-290 0c-10,0 0,10 0,0l0 -280c0,-10 -10,0 0,0l580 0c10,0 0,-10 0,0l0 280c0,10 10,0 0,0l-290 0z"/>
  <path class="fil0 str0" d="M10823.01 11173.32l-290 0c-10,0 0,10 0,0l0 -280c0,-10 -10,0 0,0l580 0c10,0 0,-10 0,0l0 280c0,10 10,0 0,0l-290 0z"/>
  <path class="fil0 str0" d="M12023.01 11173.32l-290 0c-10,0 0,10 0,0l0 -280c0,-10 -10,0 0,0l580 0c10,0 0,-10 0,0l0 280c0,10 10,0 0,0l-290 0z"/>
  <path class="fil0 str0" d="M13223.01 11173.32l-290 0c-10,0 0,10 0,0l0 -280c0,-10 -10,0 0,0l580 0c10,0 0,-10 0,0l0 280c0,10 10,0 0,0l-290 0z"/>
  <path class="fil0 str0" d="M14423.01 11173.32l-290 0c-10,0 0,10 0,0l0 -280c0,-10 -10,0 0,0l580 0c10,0 0,-10 0,0l0 280c0,10 10,0 0,0l-290 0z"/>
  <path class="fil0 str0" d="M15623.01 11173.32l-290 0c-10,0 0,10 0,0l0 -280c0,-10 -10,0 0,0l580 0c10,0 0,-10 0,0l0 280c0,10 10,0 0,0l-290 0z"/>
  <path class="fil0 str0" d="M1823.01 11493.32l14400 0 300 0c5.5,0 10,-4.5 10,-10l0 -650c0,-5.5 -4.5,-10 -10,-10l-290 0c-10,0 0,10 0,0l0 -580c0,-10 -10,0 0,0l290 0c5.5,0 10,-4.5 10,-10l0 -600c0,-5.5 -4.5,-10 -10,-10l-290 0c-10,0 0,10 0,0l0 -580c0,-10 -10,0 0,0l290 0c5.5,0 10,-4.5 10,-10l0 -600c0,-5.5 -4.5,-10 -10,-10l-290 0c-10,0 0,10 0,0l0 -580c0,-10 -10,0 0,0l290 0c5.5,0 10,-4.5 10,-10l0 -600c0,-5.5 -4.5,-10 -10,-10l-290 0c-10,0 0,10 0,0l0 -580c0,-10 -10,0 0,0l290 0c5.5,0 10,-4.5 10,-10l0 -600c0,-5.5 -4.5,-10 -10,-10l-290 0c-10,0 0,10 0,0l0 -580c0,-10 -10,0 0,0l290 0c5.5,0 10,-4.5 10,-10l0 -600c0,-5.5 -4.5,-10 -10,-10l-290 0c-10,0 0,10 0,0l0 -580c0,-10 -10,0 0,0l290 0c5.5,0 10,-4.5 10,-10l0 -600c0,-5.5 -4.5,-10 -10,-10l-290 0c-10,0 0,10 0,0l0 -580c0,-10 -10,0 0,0l290 0c5.5,0 10,-4.5 10,-10l0 -600c0,-5.5 -4.5,-10 -10,-10l-290 0c-10,0 0,10 0,0l0 -580c0,-10 -10,0 0,0l290 0c5.5,0 10,-4.5 10,-10l0 -650c0,-5.5 -4.5,-10 -10,-10l-300 0 -14400 0 -300 0c-5.5,0 -10,4.5 -10,10l0 650c0,5.5 4.5,10 10,10l290 0c10,0 0,-10 0,0l0 580c0,10 10,0 0,0l-290 0c-5.5,0 -10,4.5 -10,10l0 600c0,5.5 4.5,10 10,10l290 0c10,0 0,-10 0,0l0 580c0,10 10,0 0,0l-290 0c-5.5,0 -10,4.5 -10,10l0 600c0,5.5 4.5,10 10,10l290 0c10,0 0,-10 0,0l0 580c0,10 10,0 0,0l-290 0c-5.5,0 -10,4.5 -10,10l0 600c0,5.5 4.5,10 10,10l290 0c10,0 0,-10 0,0l0 580c0,10 10,0 0,0l-290 0c-5.5,0 -10,4.5 -10,10l0 600c0,5.5 4.5,10 10,10l290 0c10,0 0,-10 0,0l0 580c0,10 10,0 0,0l-290 0c-5.5,0 -10,4.5 -10,10l0 600c0,5.5 4.5,10 10,10l290 0c10,0 0,-10 0,0l0 580c0,10 10,0 0,0l-290 0c-5.5,0 -10,4.5 -10,10l0 600c0,5.5 4.5,10 10,10l290 0c10,0 0,-10 0,0l0 580c0,10 10,0 0,0l-290 0c-5.5,0 -10,4.5 -10,10l0 600c0,5.5 4.5,10 10,10l290 0c10,0 0,-10 0,0l0 580c0,10 10,0 0,0l-290 0c-5.5,0 -10,4.5 -10,10l0 650c0,5.5 4.5,10 10,10l300 0" alignment-baseline="hanging" text-anchor="middle"/>
  <path class="fil0 str0" d="M21883.01 20703.32l0 290c0,10 10,0 0,0l-280 0c-10,0 0,10 0,0l0 -580c0,-10 -10,0 0,0l280 0c10,0 0,-10 0,0l0 290z"/>
  <path class="fil0 str0" d="M21883.01 19503.32l0 290c0,10 10,0 0,0l-280 0c-10,0 0,10 0,0l0 -580c0,-10 -10,0 0,0l280 0c10,0 0,-10 0,0l0 290z"/>
  <path class="fil0 str0" d="M21883.01 18303.32l0 290c0,10 10,0 0,0l-280 0c-10,0 0,10 0,0l0 -580c0,-10 -10,0 0,0l280 0c10,0 0,-10 0,0l0 290z"/>
  <path class="fil0 str0" d="M21883.01 17103.32l0 290c0,10 10,0 0,0l-280 0c-10,0 0,10 0,0l0 -580c0,-10 -10,0 0,0l280 0c10,0 0,-10 0,0l0 290z"/>
  <path class="fil0 str0" d="M21883.01 15903.32l0 290c0,10 10,0 0,0l-280 0c-10,0 0,10 0,0l0 -580c0,-10 -10,0 0,0l280 0c10,0 0,-10 0,0l0 290z"/>
  <path class="fil0 str0" d="M21883.01 14703.32l0 290c0,10 10,0 0,0l-280 0c-10,0 0,10 0,0l0 -580c0,-10 -10,0 0,0l280 0c10,0 0,-10 0,0l0 290z"/>
  <path class="fil0 str0" d="M21883.01 13503.32l0 290c0,10 10,0 0,0l-280 0c-10,0 0,10 0,0l0 -580c0,-10 -10,0 0,0l280 0c10,0 0,-10 0,0l0 290z"/>
  <path class="fil0 str0" d="M21883.01 12303.32l0 290c0,10 10,0 0,0l-280 0c-10,0 0,10 0,0l0 -580c0,-10 -10,0 0,0l280 0c10,0 0,-10 0,0l0 290z"/>
  <path class="fil0 str0" d="M26783.01 20703.32l0 290c0,10 10,0 0,0l-280 0c-10,0 0,10 0,0l0 -580c0,-10 -10,0 0,0l280 0c10,0 0,-10 0,0l0 290z"/>
  <path class="fil0 str0" d="M26783.01 19503.32l0 290c0,10 10,0 0,0l-280 0c-10,0 0,10 0,0l0 -580c0,-10 -10,0 0,0l280 0c10,0 0,-10 0,0l0 290z"/>
  <path class="fil0 str0" d="M26783.01 18303.32l0 290c0,10 10,0 0,0l-280 0c-10,0 0,10 0,0l0 -580c0,-10 -10,0 0,0l280 0c10,0 0,-10 0,0l0 290z"/>
  <path class="fil0 str0" d="M26783.01 17103.32l0 290c0,10 10,0 0,0l-280 0c-10,0 0,10 0,0l0 -580c0,-10 -10,0 0,0l280 0c10,0 0,-10 0,0l0 290z"/>
  <path class="fil0 str0" d="M26783.01 15903.32l0 290c0,10 10,0 0,0l-280 0c-10,0 0,10 0,0l0 -580c0,-10 -10,0 0,0l280 0c10,0 0,-10 0,0l0 290z"/>
  <path class="fil0 str0" d="M26783.01 14703.32l0 290c0,10 10,0 0,0l-280 0c-10,0 0,10 0,0l0 -580c0,-10 -10,0 0,0l280 0c10,0 0,-10 0,0l0 290z"/>
  <path class="fil0 str0" d="M26783.01 13503.32l0 290c0,10 10,0 0,0l-280 0c-10,0 0,10 0,0l0 -580c0,-10 -10,0 0,0l280 0c10,0 0,-10 0,0l0 290z"/>
  <path class="fil0 str0" d="M26783.01 12303.32l0 290c0,10 10,0 0,0l-280 0c-10,0 0,10 0,0l0 -580c0,-10 -10,0 0,0l280 0c10,0 0,-10 0,0l0 290z"/>
  <path class="fil0 str0" d="M17593.01 21643.32l-290 0c-10,0 0,10 0,0l0 -280c0,-10 -10,0 0,0l580 0c10,0 0,-10 0,0l0 280c0,10 10,0 0,0l-290 0z"/>
  <path class="fil0 str0" d="M18793.01 21643.32l-290 0c-10,0 0,10 0,0l0 -280c0,-10 -10,0 0,0l580 0c10,0 0,-10 0,0l0 280c0,10 10,0 0,0l-290 0z"/>
  <path class="fil0 str0" d="M19993.01 21643.32l-290 0c-10,0 0,10 0,0l0 -280c0,-10 -10,0 0,0l580 0c10,0 0,-10 0,0l0 280c0,10 10,0 0,0l-290 0z"/>
  <path class="fil0 str0" d="M21193.01 21643.32l-290 0c-10,0 0,10 0,0l0 -280c0,-10 -10,0 0,0l580 0c10,0 0,-10 0,0l0 280c0,10 10,0 0,0l-290 0z"/>
  <path class="fil0 str0" d="M22393.01 21643.32l-290 0c-10,0 0,10 0,0l0 -280c0,-10 -10,0 0,0l580 0c10,0 0,-10 0,0l0 280c0,10 10,0 0,0l-290 0z"/>
  <path class="fil0 str0" d="M23593.01 21643.32l-290 0c-10,0 0,10 0,0l0 -280c0,-10 -10,0 0,0l580 0c10,0 0,-10 0,0l0 280c0,10 10,0 0,0l-290 0z"/>
  <path class="fil0 str0" d="M24793.01 21643.32l-290 0c-10,0 0,10 0,0l0 -280c0,-10 -10,0 0,0l580 0c10,0 0,-10 0,0l0 280c0,10 10,0 0,0l-290 0z"/>
  <path class="fil0 str0" d="M25993.01 21643.32l-290 0c-10,0 0,10 0,0l0 -280c0,-10 -10,0 0,0l580 0c10,0 0,-10 0,0l0 280c0,10 10,0 0,0l-290 0z"/>
  <path class="fil0 str0" d="M27193.01 21643.32l-290 0c-10,0 0,10 0,0l0 -280c0,-10 -10,0 0,0l580 0c10,0 0,-10 0,0l0 280c0,10 10,0 0,0l-290 0z"/>
  <path class="fil0 str0" d="M28393.01 21643.32l-290 0c-10,0 0,10 0,0l0 -280c0,-10 -10,0 0,0l580 0c10,0 0,-10 0,0l0 280c0,10 10,0 0,0l-290 0z"/>
  <path class="fil0 str0" d="M29593.01 21643.32l-290 0c-10,0 0,10 0,0l0 -280c0,-10 -10,0 0,0l580 0c10,0 0,-10 0,0l0 280c0,10 10,0 0,0l-290 0z"/>
  <path class="fil0 str0" d="M30793.01 21643.32l-290 0c-10,0 0,10 0,0l0 -280c0,-10 -10,0 0,0l580 0c10,0 0,-10 0,0l0 280c0,10 10,0 0,0l-290 0z"/>
  <path class="fil0 str0" d="M16993.01 21963.32l14400 0c5.5,0 10,-4.5 10,-10l0 -640c0,-10 -10,0 0,0l290 0c5.5,0 10,-4.5 10,-10l0 -600c0,-5.5 -4.5,-10 -10,-10l-290 0c-10,0 0,10 0,0l0 -580c0,-10 -10,0 0,0l290 0c5.5,0 10,-4.5 10,-10l0 -600c0,-5.5 -4.5,-10 -10,-10l-290 0c-10,0 0,10 0,0l0 -580c0,-10 -10,0 0,0l290 0c5.5,0 10,-4.5 10,-10l0 -600c0,-5.5 -4.5,-10 -10,-10l-290 0c-10,0 0,10 0,0l0 -580c0,-10 -10,0 0,0l290 0c5.5,0 10,-4.5 10,-10l0 -600c0,-5.5 -4.5,-10 -10,-10l-290 0c-10,0 0,10 0,0l0 -580c0,-10 -10,0 0,0l290 0c5.5,0 10,-4.5 10,-10l0 -600c0,-5.5 -4.5,-10 -10,-10l-290 0c-10,0 0,10 0,0l0 -580c0,-10 -10,0 0,0l290 0c5.5,0 10,-4.5 10,-10l0 -600c0,-5.5 -4.5,-10 -10,-10l-290 0c-10,0 0,10 0,0l0 -580c0,-10 -10,0 0,0l290 0c5.5,0 10,-4.5 10,-10l0 -600c0,-5.5 -4.5,-10 -10,-10l-290 0c-10,0 0,10 0,0l0 -580c0,-10 -10,0 0,0l290 0c5.5,0 10,-4.5 10,-10l0 -600c0,-5.5 -4.5,-10 -10,-10l-290 0c-10,0 0,10 0,0l0 -640c0,-5.5 -4.5,-10 -10,-10l-14400 0c-5.5,0 -10,4.5 -10,10l0 640c0,10 10,0 0,0l-290 0c-5.5,0 -10,4.5 -10,10l0 600c0,5.5 4.5,10 10,10l290 0c10,0 0,-10 0,0l0 580c0,10 10,0 0,0l-290 0c-5.5,0 -10,4.5 -10,10l0 600c0,5.5 4.5,10 10,10l290 0c10,0 0,-10 0,0l0 580c0,10 10,0 0,0l-290 0c-5.5,0 -10,4.5 -10,10l0 600c0,5.5 4.5,10 10,10l290 0c10,0 0,-10 0,0l0 580c0,10 10,0 0,0l-290 0c-5.5,0 -10,4.5 -10,10l0 600c0,5.5 4.5,10 10,10l290 0c10,0 0,-10 0,0l0 580c0,10 10,0 0,0l-290 0c-5.5,0 -10,4.5 -10,10l0 600c0,5.5 4.5,10 10,10l290 0c10,0 0,-10 0,0l0 580c0,10 10,0 0,0l-290 0c-5.5,0 -10,4.5 -10,10l0 600c0,5.5 4.5,10 10,10l290 0c10,0 0,-10 0,0l0 580c0,10 10,0 0,0l-290 0c-5.5,0 -10,4.5 -10,10l0 600c0,5.5 4.5,10 10,10l290 0c10,0 0,-10 0,0l0 580c0,10 10,0 0,0l-290 0c-5.5,0 -10,4.5 -10,10l0 600c0,5.5 4.5,10 10,10l290 0c10,0 0,-10 0,0l0 640c0,5.5 4.5,10 10,10" alignment-baseline="hanging" text-anchor="middle"/>
  <path class="fil0 str0" d="M26503.01 10233.32l0 290c0,10 -10,0 0,0l280 0c10,0 0,10 0,0l0 -580c0,-10 10,0 0,0l-280 0c-10,0 0,-10 0,0l0 290z"/>
  <path class="fil0 str0" d="M26503.01 9033.32l0 290c0,10 -10,0 0,0l280 0c10,0 0,10 0,0l0 -580c0,-10 10,0 0,0l-280 0c-10,0 0,-10 0,0l0 290z"/>
  <path class="fil0 str0" d="M26503.01 7833.32l0 290c0,10 -10,0 0,0l280 0c10,0 0,10 0,0l0 -580c0,-10 10,0 0,0l-280 0c-10,0 0,-10 0,0l0 290z"/>
  <path class="fil0 str0" d="M26503.01 6633.32l0 290c0,10 -10,0 0,0l280 0c10,0 0,10 0,0l0 -580c0,-10 10,0 0,0l-280 0c-10,0 0,-10 0,0l0 290z"/>
  <path class="fil0 str0" d="M26503.01 5433.32l0 290c0,10 -10,0 0,0l280 0c10,0 0,10 0,0l0 -580c0,-10 10,0 0,0l-280 0c-10,0 0,-10 0,0l0 290z"/>
  <path class="fil0 str0" d="M26503.01 4233.32l0 290c0,10 -10,0 0,0l280 0c10,0 0,10 0,0l0 -580c0,-10 10,0 0,0l-280 0c-10,0 0,-10 0,0l0 290z"/>
  <path class="fil0 str0" d="M26503.01 3033.32l0 290c0,10 -10,0 0,0l280 0c10,0 0,10 0,0l0 -580c0,-10 10,0 0,0l-280 0c-10,0 0,-10 0,0l0 290z"/>
  <path class="fil0 str0" d="M26503.01 1833.32l0 290c0,10 -10,0 0,0l280 0c10,0 0,10 0,0l0 -580c0,-10 10,0 0,0l-280 0c-10,0 0,-10 0,0l0 290z"/>
  <path class="fil0 str0" d="M21603.01 10233.32l0 290c0,10 -10,0 0,0l280 0c10,0 0,10 0,0l0 -580c0,-10 10,0 0,0l-280 0c-10,0 0,-10 0,0l0 290z"/>
  <path class="fil0 str0" d="M21603.01 9033.32l0 290c0,10 -10,0 0,0l280 0c10,0 0,10 0,0l0 -580c0,-10 10,0 0,0l-280 0c-10,0 0,-10 0,0l0 290z"/>
  <path class="fil0 str0" d="M21603.01 7833.32l0 290c0,10 -10,0 0,0l280 0c10,0 0,10 0,0l0 -580c0,-10 10,0 0,0l-280 0c-10,0 0,-10 0,0l0 290z"/>
  <path class="fil0 str0" d="M21603.01 6633.32l0 290c0,10 -10,0 0,0l280 0c10,0 0,10 0,0l0 -580c0,-10 10,0 0,0l-280 0c-10,0 0,-10 0,0l0 290z"/>
  <path class="fil0 str0" d="M21603.01 5433.32l0 290c0,10 -10,0 0,0l280 0c10,0 0,10 0,0l0 -580c0,-10 10,0 0,0l-280 0c-10,0 0,-10 0,0l0 290z"/>
  <path class="fil0 str0" d="M21603.01 4233.32l0 290c0,10 -10,0 0,0l280 0c10,0 0,10 0,0l0 -580c0,-10 10,0 0,0l-280 0c-10,0 0,-10 0,0l0 290z"/>
  <path class="fil0 str0" d="M21603.01 3033.32l0 290c0,10 -10,0 0,0l280 0c10,0 0,10 0,0l0 -580c0,-10 10,0 0,0l-280 0c-10,0 0,-10 0,0l0 290z"/>
  <path class="fil0 str0" d="M21603.01 1833.32l0 290c0,10 -10,0 0,0l280 0c10,0 0,10 0,0l0 -580c0,-10 10,0 0,0l-280 0c-10,0 0,-10 0,0l0 290z"/>
  <path class="fil0 str0" d="M17593.01 11173.32l-290 0c-10,0 0,10 0,0l0 -280c0,-10 -10,0 0,0l580 0c10,0 0,-10 0,0l0 280c0,10 10,0 0,0l-290 0z"/>
  <path class="fil0 str0" d="M18793.01 11173.32l-290 0c-10,0 0,10 0,0l0 -280c0,-10 -10,0 0,0l580 0c10,0 0,-10 0,0l0 280c0,10 10,0 0,0l-290 0z"/>
  <path class="fil0 str0" d="M19993.01 11173.32l-290 0c-10,0 0,10 0,0l0 -280c0,-10 -10,0 0,0l580 0c10,0 0,-10 0,0l0 280c0,10 10,0 0,0l-290 0z"/>
  <path class="fil0 str0" d="M21193.01 11173.32l-290 0c-10,0 0,10 0,0l0 -280c0,-10 -10,0 0,0l580 0c10,0 0,-10 0,0l0 280c0,10 10,0 0,0l-290 0z"/>
  <path class="fil0 str0" d="M22393.01 11173.32l-290 0c-10,0 0,10 0,0l0 -280c0,-10 -10,0 0,0l580 0c10,0 0,-10 0,0l0 280c0,10 10,0 0,0l-290 0z"/>
  <path class="fil0 str0" d="M23593.01 11173.32l-290 0c-10,0 0,10 0,0l0 -280c0,-10 -10,0 0,0l580 0c10,0 0,-10 0,0l0 280c0,10 10,0 0,0l-290 0z"/>
  <path class="fil0 str0" d="M24793.01 11173.32l-290 0c-10,0 0,10 0,0l0 -280c0,-10 -10,0 0,0l580 0c10,0 0,-10 0,0l0 280c0,10 10,0 0,0l-290 0z"/>
  <path class="fil0 str0" d="M25993.01 11173.32l-290 0c-10,0 0,10 0,0l0 -280c0,-10 -10,0 0,0l580 0c10,0 0,-10 0,0l0 280c0,10 10,0 0,0l-290 0z"/>
  <path class="fil0 str0" d="M27193.01 11173.32l-290 0c-10,0 0,10 0,0l0 -280c0,-10 -10,0 0,0l580 0c10,0 0,-10 0,0l0 280c0,10 10,0 0,0l-290 0z"/>
  <path class="fil0 str0" d="M28393.01 11173.32l-290 0c-10,0 0,10 0,0l0 -280c0,-10 -10,0 0,0l580 0c10,0 0,-10 0,0l0 280c0,10 10,0 0,0l-290 0z"/>
  <path class="fil0 str0" d="M29593.01 11173.32l-290 0c-10,0 0,10 0,0l0 -280c0,-10 -10,0 0,0l580 0c10,0 0,-10 0,0l0 280c0,10 10,0 0,0l-290 0z"/>
  <path class="fil0 str0" d="M30793.01 11173.32l-290 0c-10,0 0,10 0,0l0 -280c0,-10 -10,0 0,0l580 0c10,0 0,-10 0,0l0 280c0,10 10,0 0,0l-290 0z"/>
  <path class="fil0 str0" d="M16993.01 11493.32l14400 0c5.5,0 10,-4.5 10,-10l0 -640c0,-10 -10,0 0,0l290 0c5.5,0 10,-4.5 10,-10l0 -600c0,-5.5 -4.5,-10 -10,-10l-290 0c-10,0 0,10 0,0l0 -580c0,-10 -10,0 0,0l290 0c5.5,0 10,-4.5 10,-10l0 -600c0,-5.5 -4.5,-10 -10,-10l-290 0c-10,0 0,10 0,0l0 -580c0,-10 -10,0 0,0l290 0c5.5,0 10,-4.5 10,-10l0 -600c0,-5.5 -4.5,-10 -10,-10l-290 0c-10,0 0,10 0,0l0 -580c0,-10 -10,0 0,0l290 0c5.5,0 10,-4.5 10,-10l0 -600c0,-5.5 -4.5,-10 -10,-10l-290 0c-10,0 0,10 0,0l0 -580c0,-10 -10,0 0,0l290 0c5.5,0 10,-4.5 10,-10l0 -600c0,-5.5 -4.5,-10 -10,-10l-290 0c-10,0 0,10 0,0l0 -580c0,-10 -10,0 0,0l290 0c5.5,0 10,-4.5 10,-10l0 -600c0,-5.5 -4.5,-10 -10,-10l-290 0c-10,0 0,10 0,0l0 -580c0,-10 -10,0 0,0l290 0c5.5,0 10,-4.5 10,-10l0 -600c0,-5.5 -4.5,-10 -10,-10l-290 0c-10,0 0,10 0,0l0 -580c0,-10 -10,0 0,0l290 0c5.5,0 10,-4.5 10,-10l0 -600c0,-5.5 -4.5,-10 -10,-10l-290 0c-10,0 0,10 0,0l0 -640c0,-5.5 -4.5,-10 -10,-10l-14400 0c-5.5,0 -10,4.5 -10,10l0 640c0,10 10,0 0,0l-290 0c-5.5,0 -10,4.5 -10,10l0 600c0,5.5 4.5,10 10,10l290 0c10,0 0,-10 0,0l0 580c0,10 10,0 0,0l-290 0c-5.5,0 -10,4.5 -10,10l0 600c0,5.5 4.5,10 10,10l290 0c10,0 0,-10 0,0l0 580c0,10 10,0 0,0l-290 0c-5.5,0 -10,4.5 -10,10l0 600c0,5.5 4.5,10 10,10l290 0c10,0 0,-10 0,0l0 580c0,10 10,0 0,0l-290 0c-5.5,0 -10,4.5 -10,10l0 600c0,5.5 4.5,10 10,10l290 0c10,0 0,-10 0,0l0 580c0,10 10,0 0,0l-290 0c-5.5,0 -10,4.5 -10,10l0 600c0,5.5 4.5,10 10,10l290 0c10,0 0,-10 0,0l0 580c0,10 10,0 0,0l-290 0c-5.5,0 -10,4.5 -10,10l0 600c0,5.5 4.5,10 10,10l290 0c10,0 0,-10 0,0l0 580c0,10 10,0 0,0l-290 0c-5.5,0 -10,4.5 -10,10l0 600c0,5.5 4.5,10 10,10l290 0c10,0 0,-10 0,0l0 580c0,10 10,0 0,0l-290 0c-5.5,0 -10,4.5 -10,10l0 600c0,5.5 4.5,10 10,10l290 0c10,0 0,-10 0,0l0 640c0,5.5 4.5,10 10,10" alignment-baseline="hanging" text-anchor="middle"/>
 </g>
</svg>
