<?xml version="1.0" encoding="UTF-8"?>
<!DOCTYPE svg PUBLIC "-//W3C//DTD SVG 1.1//EN" "http://www.w3.org/Graphics/SVG/1.1/DTD/svg11.dtd">
<!-- Creator: CorelDRAW SE (OEM-Version) -->
<svg xmlns="http://www.w3.org/2000/svg" xml:space="preserve" width="609mm" height="304mm" version="1.1" style="shape-rendering:geometricPrecision; text-rendering:geometricPrecision; image-rendering:optimizeQuality; fill-rule:evenodd; clip-rule:evenodd"
viewBox="0 0 60900 30400"
 xmlns:xlink="http://www.w3.org/1999/xlink">
 <defs>
  <style type="text/css">
   <![CDATA[
    .str0 {stroke:black;stroke-width:7.62;stroke-linecap:round;stroke-linejoin:round;stroke-miterlimit:22.9256}
    .fil0 {fill:none}
   ]]>
  </style>
 </defs>
 <g id="Ebene_x0020_1">
  <metadata id="CorelCorpID_0Corel-Layer"/>
  <path class="fil0 str0" d="M1636.07 20938.88l190 0c10,0 0,-10 0,0l0 290c0,5.5 4.5,10 10,10l600 0c5.5,0 10,-4.5 10,-10l0 -290c0,-10 -10,0 0,0l580 0c10,0 0,-10 0,0l0 290c0,5.5 4.5,10 10,10l600 0c5.5,0 10,-4.5 10,-10l0 -290c0,-10 -10,0 0,0l580 0c10,0 0,-10 0,0l0 290c0,5.5 4.5,10 10,10l600 0c5.5,0 10,-4.5 10,-10l0 -290c0,-10 -10,0 0,0l580 0c10,0 0,-10 0,0l0 290c0,5.5 4.5,10 10,10l600 0c5.5,0 10,-4.5 10,-10l0 -290c0,-10 -10,0 0,0l190 0 150 0 150 0 190 0c10,0 0,-10 0,0l0 290c0,5.5 4.5,10 10,10l600 0c5.5,0 10,-4.5 10,-10l0 -290c0,-10 -10,0 0,0l580 0c10,0 0,-10 0,0l0 290c0,5.5 4.5,10 10,10l600 0c5.5,0 10,-4.5 10,-10l0 -290c0,-10 -10,0 0,0l580 0c10,0 0,-10 0,0l0 290c0,5.5 4.5,10 10,10l600 0c5.5,0 10,-4.5 10,-10l0 -290c0,-10 -10,0 0,0l580 0c10,0 0,-10 0,0l0 290c0,5.5 4.5,10 10,10l600 0c5.5,0 10,-4.5 10,-10l0 -290c0,-10 -10,0 0,0l190 0 150 0 150 0 190 0c10,0 0,-10 0,0l0 290c0,5.5 4.5,10 10,10l600 0c5.5,0 10,-4.5 10,-10l0 -290c0,-10 -10,0 0,0l580 0c10,0 0,-10 0,0l0 290c0,5.5 4.5,10 10,10l600 0c5.5,0 10,-4.5 10,-10l0 -290c0,-10 -10,0 0,0l580 0c10,0 0,-10 0,0l0 290c0,5.5 4.5,10 10,10l600 0c5.5,0 10,-4.5 10,-10l0 -290c0,-10 -10,0 0,0l580 0c10,0 0,-10 0,0l0 290c0,5.5 4.5,10 10,10l600 0c5.5,0 10,-4.5 10,-10l0 -290c0,-10 -10,0 0,0l190 0c5.5,0 10,-4.5 10,-10l0 -340c0,-10 -10,0 0,0l290 0c5.5,0 10,-4.5 10,-10l0 -600c0,-5.5 -4.5,-10 -10,-10l-290 0c-10,0 0,10 0,0l0 -580c0,-10 -10,0 0,0l290 0c5.5,0 10,-4.5 10,-10l0 -600c0,-5.5 -4.5,-10 -10,-10l-290 0c-10,0 0,10 0,0l0 -580c0,-10 -10,0 0,0l290 0c5.5,0 10,-4.5 10,-10l0 -600c0,-5.5 -4.5,-10 -10,-10l-290 0c-10,0 0,10 0,0l0 -580c0,-10 -10,0 0,0l290 0c5.5,0 10,-4.5 10,-10l0 -600c0,-5.5 -4.5,-10 -10,-10l-290 0c-10,0 0,10 0,0l0 -580c0,-10 -10,0 0,0l290 0c5.5,0 10,-4.5 10,-10l0 -600c0,-5.5 -4.5,-10 -10,-10l-290 0c-10,0 0,10 0,0l0 -580c0,-10 -10,0 0,0l290 0c5.5,0 10,-4.5 10,-10l0 -600c0,-5.5 -4.5,-10 -10,-10l-290 0c-10,0 0,10 0,0l0 -580c0,-10 -10,0 0,0l290 0c5.5,0 10,-4.5 10,-10l0 -600c0,-5.5 -4.5,-10 -10,-10l-290 0c-10,0 0,10 0,0l0 -580c0,-10 -10,0 0,0l290 0c5.5,0 10,-4.5 10,-10l0 -600c0,-5.5 -4.5,-10 -10,-10l-290 0c-10,0 0,10 0,0l0 -340c0,-5.5 -4.5,-10 -10,-10l-4600 0c-5.5,0 -10,4.5 -10,10l0 4840c0,10 10,0 0,0l-280 0c-10,0 0,10 0,0l0 -4840c0,-5.5 -4.5,-10 -10,-10l-4600 0c-5.5,0 -10,4.5 -10,10l0 4840c0,10 10,0 0,0l-280 0c-10,0 0,10 0,0l0 -4840c0,-5.5 -4.5,-10 -10,-10l-4600 0c-5.5,0 -10,4.5 -10,10l0 340c0,10 10,0 0,0l-290 0c-5.5,0 -10,4.5 -10,10l0 600c0,5.5 4.5,10 10,10l290 0c10,0 0,-10 0,0l0 580c0,10 10,0 0,0l-290 0c-5.5,0 -10,4.5 -10,10l0 600c0,5.5 4.5,10 10,10l290 0c10,0 0,-10 0,0l0 580c0,10 10,0 0,0l-290 0c-5.5,0 -10,4.5 -10,10l0 600c0,5.5 4.5,10 10,10l290 0c10,0 0,-10 0,0l0 580c0,10 10,0 0,0l-290 0c-5.5,0 -10,4.5 -10,10l0 600c0,5.5 4.5,10 10,10l290 0c10,0 0,-10 0,0l0 580c0,10 10,0 0,0l-290 0c-5.5,0 -10,4.5 -10,10l0 600c0,5.5 4.5,10 10,10l290 0c10,0 0,-10 0,0l0 580c0,10 10,0 0,0l-290 0c-5.5,0 -10,4.5 -10,10l0 600c0,5.5 4.5,10 10,10l290 0c10,0 0,-10 0,0l0 580c0,10 10,0 0,0l-290 0c-5.5,0 -10,4.5 -10,10l0 600c0,5.5 4.5,10 10,10l290 0c10,0 0,-10 0,0l0 580c0,10 10,0 0,0l-290 0c-5.5,0 -10,4.5 -10,10l0 600c0,5.5 4.5,10 10,10l290 0c10,0 0,-10 0,0l0 340c0,5.5 4.5,10 10,10" alignment-baseline="hanging" text-anchor="middle"/>
  <path class="fil0 str0" d="M1636.07 10768.88l190 0c10,0 0,-10 0,0l0 290c0,5.5 4.5,10 10,10l600 0c5.5,0 10,-4.5 10,-10l0 -290c0,-10 -10,0 0,0l580 0c10,0 0,-10 0,0l0 290c0,5.5 4.5,10 10,10l600 0c5.5,0 10,-4.5 10,-10l0 -290c0,-10 -10,0 0,0l580 0c10,0 0,-10 0,0l0 290c0,5.5 4.5,10 10,10l600 0c5.5,0 10,-4.5 10,-10l0 -290c0,-10 -10,0 0,0l580 0c10,0 0,-10 0,0l0 290c0,5.5 4.5,10 10,10l600 0c5.5,0 10,-4.5 10,-10l0 -290c0,-10 -10,0 0,0l190 0 150 0 150 0 190 0c10,0 0,-10 0,0l0 290c0,5.5 4.5,10 10,10l600 0c5.5,0 10,-4.5 10,-10l0 -290c0,-10 -10,0 0,0l580 0c10,0 0,-10 0,0l0 290c0,5.5 4.5,10 10,10l600 0c5.5,0 10,-4.5 10,-10l0 -290c0,-10 -10,0 0,0l580 0c10,0 0,-10 0,0l0 290c0,5.5 4.5,10 10,10l600 0c5.5,0 10,-4.5 10,-10l0 -290c0,-10 -10,0 0,0l580 0c10,0 0,-10 0,0l0 290c0,5.5 4.5,10 10,10l600 0c5.5,0 10,-4.5 10,-10l0 -290c0,-10 -10,0 0,0l190 0 150 0 150 0 190 0c10,0 0,-10 0,0l0 290c0,5.5 4.5,10 10,10l600 0c5.5,0 10,-4.5 10,-10l0 -290c0,-10 -10,0 0,0l580 0c10,0 0,-10 0,0l0 290c0,5.5 4.5,10 10,10l600 0c5.5,0 10,-4.5 10,-10l0 -290c0,-10 -10,0 0,0l580 0c10,0 0,-10 0,0l0 290c0,5.5 4.5,10 10,10l600 0c5.5,0 10,-4.5 10,-10l0 -290c0,-10 -10,0 0,0l580 0c10,0 0,-10 0,0l0 290c0,5.5 4.5,10 10,10l600 0c5.5,0 10,-4.5 10,-10l0 -290c0,-10 -10,0 0,0l190 0c5.5,0 10,-4.5 10,-10l0 -340c0,-10 -10,0 0,0l290 0c5.5,0 10,-4.5 10,-10l0 -600c0,-5.5 -4.5,-10 -10,-10l-290 0c-10,0 0,10 0,0l0 -580c0,-10 -10,0 0,0l290 0c5.5,0 10,-4.5 10,-10l0 -600c0,-5.5 -4.5,-10 -10,-10l-290 0c-10,0 0,10 0,0l0 -580c0,-10 -10,0 0,0l290 0c5.5,0 10,-4.5 10,-10l0 -600c0,-5.5 -4.5,-10 -10,-10l-290 0c-10,0 0,10 0,0l0 -580c0,-10 -10,0 0,0l290 0c5.5,0 10,-4.5 10,-10l0 -600c0,-5.5 -4.5,-10 -10,-10l-290 0c-10,0 0,10 0,0l0 -580c0,-10 -10,0 0,0l290 0c5.5,0 10,-4.5 10,-10l0 -600c0,-5.5 -4.5,-10 -10,-10l-290 0c-10,0 0,10 0,0l0 -580c0,-10 -10,0 0,0l290 0c5.5,0 10,-4.5 10,-10l0 -600c0,-5.5 -4.5,-10 -10,-10l-290 0c-10,0 0,10 0,0l0 -580c0,-10 -10,0 0,0l290 0c5.5,0 10,-4.5 10,-10l0 -600c0,-5.5 -4.5,-10 -10,-10l-290 0c-10,0 0,10 0,0l0 -580c0,-10 -10,0 0,0l290 0c5.5,0 10,-4.5 10,-10l0 -600c0,-5.5 -4.5,-10 -10,-10l-290 0c-10,0 0,10 0,0l0 -340c0,-5.5 -4.5,-10 -10,-10l-4600 0c-5.5,0 -10,4.5 -10,10l0 4840c0,10 10,0 0,0l-280 0c-10,0 0,10 0,0l0 -4840c0,-5.5 -4.5,-10 -10,-10l-4600 0c-5.5,0 -10,4.5 -10,10l0 4840c0,10 10,0 0,0l-280 0c-10,0 0,10 0,0l0 -4840c0,-5.5 -4.5,-10 -10,-10l-4600 0c-5.5,0 -10,4.5 -10,10l0 340c0,10 10,0 0,0l-290 0c-5.5,0 -10,4.5 -10,10l0 600c0,5.5 4.5,10 10,10l290 0c10,0 0,-10 0,0l0 580c0,10 10,0 0,0l-290 0c-5.5,0 -10,4.5 -10,10l0 600c0,5.5 4.5,10 10,10l290 0c10,0 0,-10 0,0l0 580c0,10 10,0 0,0l-290 0c-5.5,0 -10,4.5 -10,10l0 600c0,5.5 4.5,10 10,10l290 0c10,0 0,-10 0,0l0 580c0,10 10,0 0,0l-290 0c-5.5,0 -10,4.5 -10,10l0 600c0,5.5 4.5,10 10,10l290 0c10,0 0,-10 0,0l0 580c0,10 10,0 0,0l-290 0c-5.5,0 -10,4.5 -10,10l0 600c0,5.5 4.5,10 10,10l290 0c10,0 0,-10 0,0l0 580c0,10 10,0 0,0l-290 0c-5.5,0 -10,4.5 -10,10l0 600c0,5.5 4.5,10 10,10l290 0c10,0 0,-10 0,0l0 580c0,10 10,0 0,0l-290 0c-5.5,0 -10,4.5 -10,10l0 600c0,5.5 4.5,10 10,10l290 0c10,0 0,-10 0,0l0 580c0,10 10,0 0,0l-290 0c-5.5,0 -10,4.5 -10,10l0 600c0,5.5 4.5,10 10,10l290 0c10,0 0,-10 0,0l0 340c0,5.5 4.5,10 10,10" alignment-baseline="hanging" text-anchor="middle"/>
  <path class="fil0 str0" d="M16879.9 21031.26l190 0c10,0 0,-10 0,0l0 290c0,5.5 4.5,10 10,10l600 0c5.5,0 10,-4.5 10,-10l0 -290c0,-10 -10,0 0,0l580 0c10,0 0,-10 0,0l0 290c0,5.5 4.5,10 10,10l600 0c5.5,0 10,-4.5 10,-10l0 -290c0,-10 -10,0 0,0l580 0c10,0 0,-10 0,0l0 290c0,5.5 4.5,10 10,10l600 0c5.5,0 10,-4.5 10,-10l0 -290c0,-10 -10,0 0,0l580 0c10,0 0,-10 0,0l0 290c0,5.5 4.5,10 10,10l600 0c5.5,0 10,-4.5 10,-10l0 -290c0,-10 -10,0 0,0l190 0c5.5,0 10,-4.5 10,-10l0 -4840c0,-10 -10,0 0,0l280 0c10,0 0,-10 0,0l0 4840c0,5.5 4.5,10 10,10l190 0c10,0 0,-10 0,0l0 290c0,5.5 4.5,10 10,10l600 0c5.5,0 10,-4.5 10,-10l0 -290c0,-10 -10,0 0,0l580 0c10,0 0,-10 0,0l0 290c0,5.5 4.5,10 10,10l600 0c5.5,0 10,-4.5 10,-10l0 -290c0,-10 -10,0 0,0l580 0c10,0 0,-10 0,0l0 290c0,5.5 4.5,10 10,10l600 0c5.5,0 10,-4.5 10,-10l0 -290c0,-10 -10,0 0,0l580 0c10,0 0,-10 0,0l0 290c0,5.5 4.5,10 10,10l600 0c5.5,0 10,-4.5 10,-10l0 -290c0,-10 -10,0 0,0l190 0c5.5,0 10,-4.5 10,-10l0 -4840c0,-10 -10,0 0,0l280 0c10,0 0,-10 0,0l0 4840c0,5.5 4.5,10 10,10l190 0c10,0 0,-10 0,0l0 290c0,5.5 4.5,10 10,10l600 0c5.5,0 10,-4.5 10,-10l0 -290c0,-10 -10,0 0,0l580 0c10,0 0,-10 0,0l0 290c0,5.5 4.5,10 10,10l600 0c5.5,0 10,-4.5 10,-10l0 -290c0,-10 -10,0 0,0l580 0c10,0 0,-10 0,0l0 290c0,5.5 4.5,10 10,10l600 0c5.5,0 10,-4.5 10,-10l0 -290c0,-10 -10,0 0,0l580 0c10,0 0,-10 0,0l0 290c0,5.5 4.5,10 10,10l600 0c5.5,0 10,-4.5 10,-10l0 -290c0,-10 -10,0 0,0l190 0c5.5,0 10,-4.5 10,-10l0 -340c0,-10 -10,0 0,0l290 0c5.5,0 10,-4.5 10,-10l0 -600c0,-5.5 -4.5,-10 -10,-10l-290 0c-10,0 0,10 0,0l0 -580c0,-10 -10,0 0,0l290 0c5.5,0 10,-4.5 10,-10l0 -600c0,-5.5 -4.5,-10 -10,-10l-290 0c-10,0 0,10 0,0l0 -580c0,-10 -10,0 0,0l290 0c5.5,0 10,-4.5 10,-10l0 -600c0,-5.5 -4.5,-10 -10,-10l-290 0c-10,0 0,10 0,0l0 -580c0,-10 -10,0 0,0l290 0c5.5,0 10,-4.5 10,-10l0 -600c0,-5.5 -4.5,-10 -10,-10l-290 0c-10,0 0,10 0,0l0 -580c0,-10 -10,0 0,0l290 0c5.5,0 10,-4.5 10,-10l0 -600c0,-5.5 -4.5,-10 -10,-10l-290 0c-10,0 0,10 0,0l0 -580c0,-10 -10,0 0,0l290 0c5.5,0 10,-4.5 10,-10l0 -600c0,-5.5 -4.5,-10 -10,-10l-290 0c-10,0 0,10 0,0l0 -580c0,-10 -10,0 0,0l290 0c5.5,0 10,-4.5 10,-10l0 -600c0,-5.5 -4.5,-10 -10,-10l-290 0c-10,0 0,10 0,0l0 -580c0,-10 -10,0 0,0l290 0c5.5,0 10,-4.5 10,-10l0 -600c0,-5.5 -4.5,-10 -10,-10l-290 0c-10,0 0,10 0,0l0 -340c0,-5.5 -4.5,-10 -10,-10l-14400 0c-5.5,0 -10,4.5 -10,10l0 340c0,10 10,0 0,0l-290 0c-5.5,0 -10,4.5 -10,10l0 600c0,5.5 4.5,10 10,10l290 0c10,0 0,-10 0,0l0 580c0,10 10,0 0,0l-290 0c-5.5,0 -10,4.5 -10,10l0 600c0,5.5 4.5,10 10,10l290 0c10,0 0,-10 0,0l0 580c0,10 10,0 0,0l-290 0c-5.5,0 -10,4.5 -10,10l0 600c0,5.5 4.5,10 10,10l290 0c10,0 0,-10 0,0l0 580c0,10 10,0 0,0l-290 0c-5.5,0 -10,4.5 -10,10l0 600c0,5.5 4.5,10 10,10l290 0c10,0 0,-10 0,0l0 580c0,10 10,0 0,0l-290 0c-5.5,0 -10,4.5 -10,10l0 600c0,5.5 4.5,10 10,10l290 0c10,0 0,-10 0,0l0 580c0,10 10,0 0,0l-290 0c-5.5,0 -10,4.5 -10,10l0 600c0,5.5 4.5,10 10,10l290 0c10,0 0,-10 0,0l0 580c0,10 10,0 0,0l-290 0c-5.5,0 -10,4.5 -10,10l0 600c0,5.5 4.5,10 10,10l290 0c10,0 0,-10 0,0l0 580c0,10 10,0 0,0l-290 0c-5.5,0 -10,4.5 -10,10l0 600c0,5.5 4.5,10 10,10l290 0c10,0 0,-10 0,0l0 340c0,5.5 4.5,10 10,10" alignment-baseline="hanging" text-anchor="middle"/>
  <path class="fil0 str0" d="M16879.9 10861.26l190 0c10,0 0,-10 0,0l0 290c0,5.5 4.5,10 10,10l600 0c5.5,0 10,-4.5 10,-10l0 -290c0,-10 -10,0 0,0l580 0c10,0 0,-10 0,0l0 290c0,5.5 4.5,10 10,10l600 0c5.5,0 10,-4.5 10,-10l0 -290c0,-10 -10,0 0,0l580 0c10,0 0,-10 0,0l0 290c0,5.5 4.5,10 10,10l600 0c5.5,0 10,-4.5 10,-10l0 -290c0,-10 -10,0 0,0l580 0c10,0 0,-10 0,0l0 290c0,5.5 4.5,10 10,10l600 0c5.5,0 10,-4.5 10,-10l0 -290c0,-10 -10,0 0,0l190 0c5.5,0 10,-4.5 10,-10l0 -4840c0,-10 -10,0 0,0l280 0c10,0 0,-10 0,0l0 4840c0,5.5 4.5,10 10,10l190 0c10,0 0,-10 0,0l0 290c0,5.5 4.5,10 10,10l600 0c5.5,0 10,-4.5 10,-10l0 -290c0,-10 -10,0 0,0l580 0c10,0 0,-10 0,0l0 290c0,5.5 4.5,10 10,10l600 0c5.5,0 10,-4.5 10,-10l0 -290c0,-10 -10,0 0,0l580 0c10,0 0,-10 0,0l0 290c0,5.5 4.5,10 10,10l600 0c5.5,0 10,-4.5 10,-10l0 -290c0,-10 -10,0 0,0l580 0c10,0 0,-10 0,0l0 290c0,5.5 4.5,10 10,10l600 0c5.5,0 10,-4.5 10,-10l0 -290c0,-10 -10,0 0,0l190 0c5.5,0 10,-4.5 10,-10l0 -4840c0,-10 -10,0 0,0l280 0c10,0 0,-10 0,0l0 4840c0,5.5 4.5,10 10,10l190 0c10,0 0,-10 0,0l0 290c0,5.5 4.5,10 10,10l600 0c5.5,0 10,-4.5 10,-10l0 -290c0,-10 -10,0 0,0l580 0c10,0 0,-10 0,0l0 290c0,5.5 4.5,10 10,10l600 0c5.5,0 10,-4.5 10,-10l0 -290c0,-10 -10,0 0,0l580 0c10,0 0,-10 0,0l0 290c0,5.5 4.5,10 10,10l600 0c5.5,0 10,-4.5 10,-10l0 -290c0,-10 -10,0 0,0l580 0c10,0 0,-10 0,0l0 290c0,5.5 4.5,10 10,10l600 0c5.5,0 10,-4.5 10,-10l0 -290c0,-10 -10,0 0,0l190 0c5.5,0 10,-4.5 10,-10l0 -340c0,-10 -10,0 0,0l290 0c5.5,0 10,-4.5 10,-10l0 -600c0,-5.5 -4.5,-10 -10,-10l-290 0c-10,0 0,10 0,0l0 -580c0,-10 -10,0 0,0l290 0c5.5,0 10,-4.5 10,-10l0 -600c0,-5.5 -4.5,-10 -10,-10l-290 0c-10,0 0,10 0,0l0 -580c0,-10 -10,0 0,0l290 0c5.5,0 10,-4.5 10,-10l0 -600c0,-5.5 -4.5,-10 -10,-10l-290 0c-10,0 0,10 0,0l0 -580c0,-10 -10,0 0,0l290 0c5.5,0 10,-4.5 10,-10l0 -600c0,-5.5 -4.5,-10 -10,-10l-290 0c-10,0 0,10 0,0l0 -580c0,-10 -10,0 0,0l290 0c5.5,0 10,-4.5 10,-10l0 -600c0,-5.5 -4.5,-10 -10,-10l-290 0c-10,0 0,10 0,0l0 -580c0,-10 -10,0 0,0l290 0c5.5,0 10,-4.5 10,-10l0 -600c0,-5.5 -4.5,-10 -10,-10l-290 0c-10,0 0,10 0,0l0 -580c0,-10 -10,0 0,0l290 0c5.5,0 10,-4.5 10,-10l0 -600c0,-5.5 -4.5,-10 -10,-10l-290 0c-10,0 0,10 0,0l0 -580c0,-10 -10,0 0,0l290 0c5.5,0 10,-4.5 10,-10l0 -600c0,-5.5 -4.5,-10 -10,-10l-290 0c-10,0 0,10 0,0l0 -340c0,-5.5 -4.5,-10 -10,-10l-14400 0c-5.5,0 -10,4.5 -10,10l0 340c0,10 10,0 0,0l-290 0c-5.5,0 -10,4.5 -10,10l0 600c0,5.5 4.5,10 10,10l290 0c10,0 0,-10 0,0l0 580c0,10 10,0 0,0l-290 0c-5.5,0 -10,4.5 -10,10l0 600c0,5.5 4.5,10 10,10l290 0c10,0 0,-10 0,0l0 580c0,10 10,0 0,0l-290 0c-5.5,0 -10,4.5 -10,10l0 600c0,5.5 4.5,10 10,10l290 0c10,0 0,-10 0,0l0 580c0,10 10,0 0,0l-290 0c-5.5,0 -10,4.5 -10,10l0 600c0,5.5 4.5,10 10,10l290 0c10,0 0,-10 0,0l0 580c0,10 10,0 0,0l-290 0c-5.5,0 -10,4.5 -10,10l0 600c0,5.5 4.5,10 10,10l290 0c10,0 0,-10 0,0l0 580c0,10 10,0 0,0l-290 0c-5.5,0 -10,4.5 -10,10l0 600c0,5.5 4.5,10 10,10l290 0c10,0 0,-10 0,0l0 580c0,10 10,0 0,0l-290 0c-5.5,0 -10,4.5 -10,10l0 600c0,5.5 4.5,10 10,10l290 0c10,0 0,-10 0,0l0 580c0,10 10,0 0,0l-290 0c-5.5,0 -10,4.5 -10,10l0 600c0,5.5 4.5,10 10,10l290 0c10,0 0,-10 0,0l0 340c0,5.5 4.5,10 10,10" alignment-baseline="hanging" text-anchor="middle"/>
  <path class="fil0 str0" d="M37052.85 17252.67l0 290c0,10 10,0 0,0l-280 0c-10,0 0,10 0,0l0 -580c0,-10 -10,0 0,0l280 0c10,0 0,-10 0,0l0 290z"/>
  <path class="fil0 str0" d="M37052.85 16052.67l0 290c0,10 10,0 0,0l-280 0c-10,0 0,10 0,0l0 -580c0,-10 -10,0 0,0l280 0c10,0 0,-10 0,0l0 290z"/>
  <path class="fil0 str0" d="M37052.85 14852.67l0 290c0,10 10,0 0,0l-280 0c-10,0 0,10 0,0l0 -580c0,-10 -10,0 0,0l280 0c10,0 0,-10 0,0l0 290z"/>
  <path class="fil0 str0" d="M37052.85 13652.67l0 290c0,10 10,0 0,0l-280 0c-10,0 0,10 0,0l0 -580c0,-10 -10,0 0,0l280 0c10,0 0,-10 0,0l0 290z"/>
  <path class="fil0 str0" d="M37052.85 12352.67l0 290c0,10 10,0 0,0l-280 0c-10,0 0,10 0,0l0 -580c0,-10 -10,0 0,0l280 0c10,0 0,-10 0,0l0 290z"/>
  <path class="fil0 str0" d="M37052.85 11152.67l0 290c0,10 10,0 0,0l-280 0c-10,0 0,10 0,0l0 -580c0,-10 -10,0 0,0l280 0c10,0 0,-10 0,0l0 290z"/>
  <path class="fil0 str0" d="M37052.85 9952.67l0 290c0,10 10,0 0,0l-280 0c-10,0 0,10 0,0l0 -580c0,-10 -10,0 0,0l280 0c10,0 0,-10 0,0l0 290z"/>
  <path class="fil0 str0" d="M37052.85 8752.67l0 290c0,10 10,0 0,0l-280 0c-10,0 0,10 0,0l0 -580c0,-10 -10,0 0,0l280 0c10,0 0,-10 0,0l0 290z"/>
  <path class="fil0 str0" d="M37052.85 7452.67l0 290c0,10 10,0 0,0l-280 0c-10,0 0,10 0,0l0 -580c0,-10 -10,0 0,0l280 0c10,0 0,-10 0,0l0 290z"/>
  <path class="fil0 str0" d="M37052.85 6252.67l0 290c0,10 10,0 0,0l-280 0c-10,0 0,10 0,0l0 -580c0,-10 -10,0 0,0l280 0c10,0 0,-10 0,0l0 290z"/>
  <path class="fil0 str0" d="M37052.85 5052.67l0 290c0,10 10,0 0,0l-280 0c-10,0 0,10 0,0l0 -580c0,-10 -10,0 0,0l280 0c10,0 0,-10 0,0l0 290z"/>
  <path class="fil0 str0" d="M37052.85 3852.67l0 290c0,10 10,0 0,0l-280 0c-10,0 0,10 0,0l0 -580c0,-10 -10,0 0,0l280 0c10,0 0,-10 0,0l0 290z"/>
  <path class="fil0 str0" d="M41952.85 17252.67l0 290c0,10 10,0 0,0l-280 0c-10,0 0,10 0,0l0 -580c0,-10 -10,0 0,0l280 0c10,0 0,-10 0,0l0 290z"/>
  <path class="fil0 str0" d="M41952.85 16052.67l0 290c0,10 10,0 0,0l-280 0c-10,0 0,10 0,0l0 -580c0,-10 -10,0 0,0l280 0c10,0 0,-10 0,0l0 290z"/>
  <path class="fil0 str0" d="M41952.85 14852.67l0 290c0,10 10,0 0,0l-280 0c-10,0 0,10 0,0l0 -580c0,-10 -10,0 0,0l280 0c10,0 0,-10 0,0l0 290z"/>
  <path class="fil0 str0" d="M41952.85 13652.67l0 290c0,10 10,0 0,0l-280 0c-10,0 0,10 0,0l0 -580c0,-10 -10,0 0,0l280 0c10,0 0,-10 0,0l0 290z"/>
  <path class="fil0 str0" d="M41952.85 12352.67l0 290c0,10 10,0 0,0l-280 0c-10,0 0,10 0,0l0 -580c0,-10 -10,0 0,0l280 0c10,0 0,-10 0,0l0 290z"/>
  <path class="fil0 str0" d="M41952.85 11152.67l0 290c0,10 10,0 0,0l-280 0c-10,0 0,10 0,0l0 -580c0,-10 -10,0 0,0l280 0c10,0 0,-10 0,0l0 290z"/>
  <path class="fil0 str0" d="M41952.85 9952.67l0 290c0,10 10,0 0,0l-280 0c-10,0 0,10 0,0l0 -580c0,-10 -10,0 0,0l280 0c10,0 0,-10 0,0l0 290z"/>
  <path class="fil0 str0" d="M41952.85 8752.67l0 290c0,10 10,0 0,0l-280 0c-10,0 0,10 0,0l0 -580c0,-10 -10,0 0,0l280 0c10,0 0,-10 0,0l0 290z"/>
  <path class="fil0 str0" d="M41952.85 7452.67l0 290c0,10 10,0 0,0l-280 0c-10,0 0,10 0,0l0 -580c0,-10 -10,0 0,0l280 0c10,0 0,-10 0,0l0 290z"/>
  <path class="fil0 str0" d="M41952.85 6252.67l0 290c0,10 10,0 0,0l-280 0c-10,0 0,10 0,0l0 -580c0,-10 -10,0 0,0l280 0c10,0 0,-10 0,0l0 290z"/>
  <path class="fil0 str0" d="M41952.85 5052.67l0 290c0,10 10,0 0,0l-280 0c-10,0 0,10 0,0l0 -580c0,-10 -10,0 0,0l280 0c10,0 0,-10 0,0l0 290z"/>
  <path class="fil0 str0" d="M41952.85 3852.67l0 290c0,10 10,0 0,0l-280 0c-10,0 0,10 0,0l0 -580c0,-10 -10,0 0,0l280 0c10,0 0,-10 0,0l0 290z"/>
  <path class="fil0 str0" d="M32162.85 17762.67l290 0c10,0 0,-10 0,0l0 290c0,5.5 4.5,10 10,10l600 0c5.5,0 10,-4.5 10,-10l0 -290c0,-10 -10,0 0,0l580 0c10,0 0,-10 0,0l0 290c0,5.5 4.5,10 10,10l600 0c5.5,0 10,-4.5 10,-10l0 -290c0,-10 -10,0 0,0l580 0c10,0 0,-10 0,0l0 290c0,5.5 4.5,10 10,10l600 0c5.5,0 10,-4.5 10,-10l0 -290c0,-10 -10,0 0,0l580 0c10,0 0,-10 0,0l0 290c0,5.5 4.5,10 10,10l600 0c5.5,0 10,-4.5 10,-10l0 -290c0,-10 -10,0 0,0l580 0c10,0 0,-10 0,0l0 290c0,5.5 4.5,10 10,10l600 0c5.5,0 10,-4.5 10,-10l0 -290c0,-10 -10,0 0,0l580 0c10,0 0,-10 0,0l0 290c0,5.5 4.5,10 10,10l600 0c5.5,0 10,-4.5 10,-10l0 -290c0,-10 -10,0 0,0l580 0c10,0 0,-10 0,0l0 290c0,5.5 4.5,10 10,10l600 0c5.5,0 10,-4.5 10,-10l0 -290c0,-10 -10,0 0,0l580 0c10,0 0,-10 0,0l0 290c0,5.5 4.5,10 10,10l600 0c5.5,0 10,-4.5 10,-10l0 -290c0,-10 -10,0 0,0l580 0c10,0 0,-10 0,0l0 290c0,5.5 4.5,10 10,10l600 0c5.5,0 10,-4.5 10,-10l0 -290c0,-10 -10,0 0,0l580 0c10,0 0,-10 0,0l0 290c0,5.5 4.5,10 10,10l600 0c5.5,0 10,-4.5 10,-10l0 -290c0,-10 -10,0 0,0l580 0c10,0 0,-10 0,0l0 290c0,5.5 4.5,10 10,10l600 0c5.5,0 10,-4.5 10,-10l0 -290c0,-10 -10,0 0,0l580 0c10,0 0,-10 0,0l0 290c0,5.5 4.5,10 10,10l600 0c5.5,0 10,-4.5 10,-10l0 -290c0,-10 -10,0 0,0l290 0c5.5,0 10,-4.5 10,-10l0 -290c0,-10 -10,0 0,0l290 0c5.5,0 10,-4.5 10,-10l0 -600c0,-5.5 -4.5,-10 -10,-10l-290 0c-10,0 0,10 0,0l0 -580c0,-10 -10,0 0,0l290 0c5.5,0 10,-4.5 10,-10l0 -600c0,-5.5 -4.5,-10 -10,-10l-290 0c-10,0 0,10 0,0l0 -580c0,-10 -10,0 0,0l290 0c5.5,0 10,-4.5 10,-10l0 -600c0,-5.5 -4.5,-10 -10,-10l-290 0c-10,0 0,10 0,0l0 -580c0,-10 -10,0 0,0l290 0c5.5,0 10,-4.5 10,-10l0 -600c0,-5.5 -4.5,-10 -10,-10l-290 0c-10,0 0,10 0,0l0 -580c0,-10 -10,0 0,0l290 0c5.5,0 10,-4.5 10,-10l0 -600c0,-5.5 -4.5,-10 -10,-10l-290 0c-10,0 0,10 0,0l0 -580c0,-10 -10,0 0,0l290 0c5.5,0 10,-4.5 10,-10l0 -600c0,-5.5 -4.5,-10 -10,-10l-290 0c-10,0 0,10 0,0l0 -580c0,-10 -10,0 0,0l290 0c5.5,0 10,-4.5 10,-10l0 -600c0,-5.5 -4.5,-10 -10,-10l-290 0c-10,0 0,10 0,0l0 -580c0,-10 -10,0 0,0l290 0c5.5,0 10,-4.5 10,-10l0 -600c0,-5.5 -4.5,-10 -10,-10l-290 0c-10,0 0,10 0,0l0 -580c0,-10 -10,0 0,0l290 0c5.5,0 10,-4.5 10,-10l0 -600c0,-5.5 -4.5,-10 -10,-10l-290 0c-10,0 0,10 0,0l0 -580c0,-10 -10,0 0,0l290 0c5.5,0 10,-4.5 10,-10l0 -600c0,-5.5 -4.5,-10 -10,-10l-290 0c-10,0 0,10 0,0l0 -580c0,-10 -10,0 0,0l290 0c5.5,0 10,-4.5 10,-10l0 -600c0,-5.5 -4.5,-10 -10,-10l-290 0c-10,0 0,10 0,0l0 -580c0,-10 -10,0 0,0l290 0c5.5,0 10,-4.5 10,-10l0 -600c0,-5.5 -4.5,-10 -10,-10l-290 0c-10,0 0,10 0,0l0 -290c0,-5.5 -4.5,-10 -10,-10l-290 0c-10,0 0,10 0,0l0 -290c0,-5.5 -4.5,-10 -10,-10l-600 0c-5.5,0 -10,4.5 -10,10l0 290c0,10 10,0 0,0l-580 0c-10,0 0,10 0,0l0 -290c0,-5.5 -4.5,-10 -10,-10l-600 0c-5.5,0 -10,4.5 -10,10l0 290c0,10 10,0 0,0l-580 0c-10,0 0,10 0,0l0 -290c0,-5.5 -4.5,-10 -10,-10l-600 0c-5.5,0 -10,4.5 -10,10l0 290c0,10 10,0 0,0l-580 0c-10,0 0,10 0,0l0 -290c0,-5.5 -4.5,-10 -10,-10l-600 0c-5.5,0 -10,4.5 -10,10l0 290c0,10 10,0 0,0l-580 0c-10,0 0,10 0,0l0 -290c0,-5.5 -4.5,-10 -10,-10l-600 0c-5.5,0 -10,4.5 -10,10l0 290c0,10 10,0 0,0l-580 0c-10,0 0,10 0,0l0 -290c0,-5.5 -4.5,-10 -10,-10l-600 0c-5.5,0 -10,4.5 -10,10l0 290c0,10 10,0 0,0l-580 0c-10,0 0,10 0,0l0 -290c0,-5.5 -4.5,-10 -10,-10l-600 0c-5.5,0 -10,4.5 -10,10l0 290c0,10 10,0 0,0l-580 0c-10,0 0,10 0,0l0 -290c0,-5.5 -4.5,-10 -10,-10l-600 0c-5.5,0 -10,4.5 -10,10l0 290c0,10 10,0 0,0l-580 0c-10,0 0,10 0,0l0 -290c0,-5.5 -4.5,-10 -10,-10l-600 0c-5.5,0 -10,4.5 -10,10l0 290c0,10 10,0 0,0l-580 0c-10,0 0,10 0,0l0 -290c0,-5.5 -4.5,-10 -10,-10l-600 0c-5.5,0 -10,4.5 -10,10l0 290c0,10 10,0 0,0l-580 0c-10,0 0,10 0,0l0 -290c0,-5.5 -4.5,-10 -10,-10l-600 0c-5.5,0 -10,4.5 -10,10l0 290c0,10 10,0 0,0l-580 0c-10,0 0,10 0,0l0 -290c0,-5.5 -4.5,-10 -10,-10l-600 0c-5.5,0 -10,4.5 -10,10l0 290c0,10 10,0 0,0l-290 0c-5.5,0 -10,4.5 -10,10l0 290c0,10 10,0 0,0l-290 0c-5.5,0 -10,4.5 -10,10l0 600c0,5.5 4.5,10 10,10l290 0c10,0 0,-10 0,0l0 580c0,10 10,0 0,0l-290 0c-5.5,0 -10,4.5 -10,10l0 600c0,5.5 4.5,10 10,10l290 0c10,0 0,-10 0,0l0 580c0,10 10,0 0,0l-290 0c-5.5,0 -10,4.5 -10,10l0 600c0,5.5 4.5,10 10,10l290 0c10,0 0,-10 0,0l0 580c0,10 10,0 0,0l-290 0c-5.5,0 -10,4.5 -10,10l0 600c0,5.5 4.5,10 10,10l290 0c10,0 0,-10 0,0l0 580c0,10 10,0 0,0l-290 0c-5.5,0 -10,4.5 -10,10l0 600c0,5.5 4.5,10 10,10l290 0c10,0 0,-10 0,0l0 580c0,10 10,0 0,0l-290 0c-5.5,0 -10,4.5 -10,10l0 600c0,5.5 4.5,10 10,10l290 0c10,0 0,-10 0,0l0 580c0,10 10,0 0,0l-290 0c-5.5,0 -10,4.5 -10,10l0 600c0,5.5 4.5,10 10,10l290 0c10,0 0,-10 0,0l0 580c0,10 10,0 0,0l-290 0c-5.5,0 -10,4.5 -10,10l0 600c0,5.5 4.5,10 10,10l290 0c10,0 0,-10 0,0l0 580c0,10 10,0 0,0l-290 0c-5.5,0 -10,4.5 -10,10l0 600c0,5.5 4.5,10 10,10l290 0c10,0 0,-10 0,0l0 580c0,10 10,0 0,0l-290 0c-5.5,0 -10,4.5 -10,10l0 600c0,5.5 4.5,10 10,10l290 0c10,0 0,-10 0,0l0 580c0,10 10,0 0,0l-290 0c-5.5,0 -10,4.5 -10,10l0 600c0,5.5 4.5,10 10,10l290 0c10,0 0,-10 0,0l0 580c0,10 10,0 0,0l-290 0c-5.5,0 -10,4.5 -10,10l0 600c0,5.5 4.5,10 10,10l290 0c10,0 0,-10 0,0l0 290c0,5.5 4.5,10 10,10" alignment-baseline="hanging" text-anchor="middle"/>
  <path class="fil0 str0" d="M46062.85 12862.67l290 0c10,0 0,-10 0,0l0 280c0,10 10,0 0,0l-580 0c-10,0 0,10 0,0l0 -280c0,-10 -10,0 0,0l290 0z"/>
  <path class="fil0 str0" d="M44862.85 12862.67l290 0c10,0 0,-10 0,0l0 280c0,10 10,0 0,0l-580 0c-10,0 0,10 0,0l0 -280c0,-10 -10,0 0,0l290 0z"/>
  <path class="fil0 str0" d="M43662.85 12862.67l290 0c10,0 0,-10 0,0l0 280c0,10 10,0 0,0l-580 0c-10,0 0,10 0,0l0 -280c0,-10 -10,0 0,0l290 0z"/>
  <path class="fil0 str0" d="M42462.85 12862.67l290 0c10,0 0,-10 0,0l0 280c0,10 10,0 0,0l-580 0c-10,0 0,10 0,0l0 -280c0,-10 -10,0 0,0l290 0z"/>
  <path class="fil0 str0" d="M41162.85 12862.67l290 0c10,0 0,-10 0,0l0 280c0,10 10,0 0,0l-580 0c-10,0 0,10 0,0l0 -280c0,-10 -10,0 0,0l290 0z"/>
  <path class="fil0 str0" d="M39962.85 12862.67l290 0c10,0 0,-10 0,0l0 280c0,10 10,0 0,0l-580 0c-10,0 0,10 0,0l0 -280c0,-10 -10,0 0,0l290 0z"/>
  <path class="fil0 str0" d="M38762.85 12862.67l290 0c10,0 0,-10 0,0l0 280c0,10 10,0 0,0l-580 0c-10,0 0,10 0,0l0 -280c0,-10 -10,0 0,0l290 0z"/>
  <path class="fil0 str0" d="M37562.85 12862.67l290 0c10,0 0,-10 0,0l0 280c0,10 10,0 0,0l-580 0c-10,0 0,10 0,0l0 -280c0,-10 -10,0 0,0l290 0z"/>
  <path class="fil0 str0" d="M36262.85 12862.67l290 0c10,0 0,-10 0,0l0 280c0,10 10,0 0,0l-580 0c-10,0 0,10 0,0l0 -280c0,-10 -10,0 0,0l290 0z"/>
  <path class="fil0 str0" d="M35062.85 12862.67l290 0c10,0 0,-10 0,0l0 280c0,10 10,0 0,0l-580 0c-10,0 0,10 0,0l0 -280c0,-10 -10,0 0,0l290 0z"/>
  <path class="fil0 str0" d="M33862.85 12862.67l290 0c10,0 0,-10 0,0l0 280c0,10 10,0 0,0l-580 0c-10,0 0,10 0,0l0 -280c0,-10 -10,0 0,0l290 0z"/>
  <path class="fil0 str0" d="M32662.85 12862.67l290 0c10,0 0,-10 0,0l0 280c0,10 10,0 0,0l-580 0c-10,0 0,10 0,0l0 -280c0,-10 -10,0 0,0l290 0z"/>
  <path class="fil0 str0" d="M46062.85 7962.67l290 0c10,0 0,-10 0,0l0 280c0,10 10,0 0,0l-580 0c-10,0 0,10 0,0l0 -280c0,-10 -10,0 0,0l290 0z"/>
  <path class="fil0 str0" d="M44862.85 7962.67l290 0c10,0 0,-10 0,0l0 280c0,10 10,0 0,0l-580 0c-10,0 0,10 0,0l0 -280c0,-10 -10,0 0,0l290 0z"/>
  <path class="fil0 str0" d="M43662.85 7962.67l290 0c10,0 0,-10 0,0l0 280c0,10 10,0 0,0l-580 0c-10,0 0,10 0,0l0 -280c0,-10 -10,0 0,0l290 0z"/>
  <path class="fil0 str0" d="M42462.85 7962.67l290 0c10,0 0,-10 0,0l0 280c0,10 10,0 0,0l-580 0c-10,0 0,10 0,0l0 -280c0,-10 -10,0 0,0l290 0z"/>
  <path class="fil0 str0" d="M41162.85 7962.67l290 0c10,0 0,-10 0,0l0 280c0,10 10,0 0,0l-580 0c-10,0 0,10 0,0l0 -280c0,-10 -10,0 0,0l290 0z"/>
  <path class="fil0 str0" d="M39962.85 7962.67l290 0c10,0 0,-10 0,0l0 280c0,10 10,0 0,0l-580 0c-10,0 0,10 0,0l0 -280c0,-10 -10,0 0,0l290 0z"/>
  <path class="fil0 str0" d="M38762.85 7962.67l290 0c10,0 0,-10 0,0l0 280c0,10 10,0 0,0l-580 0c-10,0 0,10 0,0l0 -280c0,-10 -10,0 0,0l290 0z"/>
  <path class="fil0 str0" d="M37562.85 7962.67l290 0c10,0 0,-10 0,0l0 280c0,10 10,0 0,0l-580 0c-10,0 0,10 0,0l0 -280c0,-10 -10,0 0,0l290 0z"/>
  <path class="fil0 str0" d="M36262.85 7962.67l290 0c10,0 0,-10 0,0l0 280c0,10 10,0 0,0l-580 0c-10,0 0,10 0,0l0 -280c0,-10 -10,0 0,0l290 0z"/>
  <path class="fil0 str0" d="M35062.85 7962.67l290 0c10,0 0,-10 0,0l0 280c0,10 10,0 0,0l-580 0c-10,0 0,10 0,0l0 -280c0,-10 -10,0 0,0l290 0z"/>
  <path class="fil0 str0" d="M33862.85 7962.67l290 0c10,0 0,-10 0,0l0 280c0,10 10,0 0,0l-580 0c-10,0 0,10 0,0l0 -280c0,-10 -10,0 0,0l290 0z"/>
  <path class="fil0 str0" d="M32662.85 7962.67l290 0c10,0 0,-10 0,0l0 280c0,10 10,0 0,0l-580 0c-10,0 0,10 0,0l0 -280c0,-10 -10,0 0,0l290 0z"/>
 </g>
</svg>
