0
SECTION
2
HEADER
9
$INSUNITS
70
1
0
ENDSEC
0
SECTION
2
TABLES
0
TABLE
2
LAYER
0
ENDTAB
0
ENDSEC
0
SECTION
2
ENTITIES
0
LINE
8
side1_outsideCutPath
10
6.9282032
20
67
11
6.9282032
21
55
0
LINE
8
side1_outsideCutPath
10
6.9282032
20
55
11
0
21
55
0
LINE
8
side1_outsideCutPath
10
0
20
55
11
0
21
47
0
LINE
8
side1_outsideCutPath
10
0
20
47
11
6.9282032
21
47
0
LINE
8
side1_outsideCutPath
10
6.9282032
20
47
11
6.9282032
21
39
0
LINE
8
side1_outsideCutPath
10
6.9282032
20
39
11
0
21
39
0
LINE
8
side1_outsideCutPath
10
0
20
39
11
0
21
31
0
LINE
8
side1_outsideCutPath
10
0
20
31
11
6.9282032
21
31
0
LINE
8
side1_outsideCutPath
10
6.9282032
20
31
11
6.9282032
21
23
0
LINE
8
side1_outsideCutPath
10
6.9282032
20
23
11
0
21
23
0
LINE
8
side1_outsideCutPath
10
0
20
23
11
0
21
15
0
LINE
8
side1_outsideCutPath
10
0
20
15
11
6.9282032
21
15
0
LINE
8
side1_outsideCutPath
10
6.9282032
20
15
11
6.9282032
21
7
0
LINE
8
side1_outsideCutPath
10
6.9282032
20
7
11
6.9282032
21
7
0
LINE
8
side1_outsideCutPath
10
6.9282032
20
7
11
9.1561886
21
7
0
LINE
8
side1_outsideCutPath
10
9.1561886
20
7
11
9.1561886
21
3
0
LINE
8
side1_outsideCutPath
10
9.1561886
20
3
11
17.1561886
21
3
0
LINE
8
side1_outsideCutPath
10
17.1561886
20
3
11
17.1561886
21
7
0
LINE
8
side1_outsideCutPath
10
17.1561886
20
7
11
25.1561886
21
7
0
LINE
8
side1_outsideCutPath
10
25.1561886
20
7
11
25.1561886
21
3
0
LINE
8
side1_outsideCutPath
10
25.1561886
20
3
11
33.1561886
21
3
0
LINE
8
side1_outsideCutPath
10
33.1561886
20
3
11
33.1561886
21
7
0
LINE
8
side1_outsideCutPath
10
33.1561886
20
7
11
41.1561886
21
7
0
LINE
8
side1_outsideCutPath
10
41.1561886
20
7
11
41.1561886
21
3
0
LINE
8
side1_outsideCutPath
10
41.1561886
20
3
11
49.1561886
21
3
0
LINE
8
side1_outsideCutPath
10
49.1561886
20
3
11
49.1561886
21
7
0
LINE
8
side1_outsideCutPath
10
49.1561886
20
7
11
58.3123772
21
7
0
LINE
8
side1_outsideCutPath
10
58.3123772
20
7
11
58.3123772
21
15
0
LINE
8
side1_outsideCutPath
10
58.3123772
20
15
11
51.384174
21
15
0
LINE
8
side1_outsideCutPath
10
51.384174
20
15
11
51.384174
21
23
0
LINE
8
side1_outsideCutPath
10
51.384174
20
23
11
58.3123772
21
23
0
LINE
8
side1_outsideCutPath
10
58.3123772
20
23
11
58.3123772
21
31
0
LINE
8
side1_outsideCutPath
10
58.3123772
20
31
11
51.384174
21
31
0
LINE
8
side1_outsideCutPath
10
51.384174
20
31
11
51.384174
21
39
0
LINE
8
side1_outsideCutPath
10
51.384174
20
39
11
58.3123772
21
39
0
LINE
8
side1_outsideCutPath
10
58.3123772
20
39
11
58.3123772
21
47
0
LINE
8
side1_outsideCutPath
10
58.3123772
20
47
11
51.384174
21
47
0
LINE
8
side1_outsideCutPath
10
51.384174
20
47
11
51.384174
21
55
0
LINE
8
side1_outsideCutPath
10
51.384174
20
55
11
58.3123772
21
55
0
LINE
8
side1_outsideCutPath
10
58.3123772
20
55
11
58.3123772
21
63
0
LINE
8
side1_outsideCutPath
10
58.3123772
20
63
11
58.3123772
21
67
0
LINE
8
side1_outsideCutPath
10
58.3123772
20
67
11
6.9282032
21
67
0
LINE
8
side3_outsideCutPath
10
68.2405804
20
67
11
68.2405804
21
55
0
LINE
8
side3_outsideCutPath
10
68.2405804
20
55
11
61.3123772
21
55
0
LINE
8
side3_outsideCutPath
10
61.3123772
20
55
11
61.3123772
21
47
0
LINE
8
side3_outsideCutPath
10
61.3123772
20
47
11
68.2405804
21
47
0
LINE
8
side3_outsideCutPath
10
68.2405804
20
47
11
68.2405804
21
39
0
LINE
8
side3_outsideCutPath
10
68.2405804
20
39
11
61.3123772
21
39
0
LINE
8
side3_outsideCutPath
10
61.3123772
20
39
11
61.3123772
21
31
0
LINE
8
side3_outsideCutPath
10
61.3123772
20
31
11
68.2405804
21
31
0
LINE
8
side3_outsideCutPath
10
68.2405804
20
31
11
68.2405804
21
23
0
LINE
8
side3_outsideCutPath
10
68.2405804
20
23
11
61.3123772
21
23
0
LINE
8
side3_outsideCutPath
10
61.3123772
20
23
11
61.3123772
21
15
0
LINE
8
side3_outsideCutPath
10
61.3123772
20
15
11
68.2405804
21
15
0
LINE
8
side3_outsideCutPath
10
68.2405804
20
15
11
68.2405804
21
7
0
LINE
8
side3_outsideCutPath
10
68.2405804
20
7
11
68.2405804
21
7
0
LINE
8
side3_outsideCutPath
10
68.2405804
20
7
11
70.4685658
21
7
0
LINE
8
side3_outsideCutPath
10
70.4685658
20
7
11
70.4685658
21
3
0
LINE
8
side3_outsideCutPath
10
70.4685658
20
3
11
78.4685658
21
3
0
LINE
8
side3_outsideCutPath
10
78.4685658
20
3
11
78.4685658
21
7
0
LINE
8
side3_outsideCutPath
10
78.4685658
20
7
11
86.4685658
21
7
0
LINE
8
side3_outsideCutPath
10
86.4685658
20
7
11
86.4685658
21
3
0
LINE
8
side3_outsideCutPath
10
86.4685658
20
3
11
94.4685658
21
3
0
LINE
8
side3_outsideCutPath
10
94.4685658
20
3
11
94.4685658
21
7
0
LINE
8
side3_outsideCutPath
10
94.4685658
20
7
11
102.4685658
21
7
0
LINE
8
side3_outsideCutPath
10
102.4685658
20
7
11
102.4685658
21
3
0
LINE
8
side3_outsideCutPath
10
102.4685658
20
3
11
110.4685658
21
3
0
LINE
8
side3_outsideCutPath
10
110.4685658
20
3
11
110.4685658
21
7
0
LINE
8
side3_outsideCutPath
10
110.4685658
20
7
11
119.6247544
21
7
0
LINE
8
side3_outsideCutPath
10
119.6247544
20
7
11
119.6247544
21
15
0
LINE
8
side3_outsideCutPath
10
119.6247544
20
15
11
112.6965511
21
15
0
LINE
8
side3_outsideCutPath
10
112.6965511
20
15
11
112.6965511
21
23
0
LINE
8
side3_outsideCutPath
10
112.6965511
20
23
11
119.6247544
21
23
0
LINE
8
side3_outsideCutPath
10
119.6247544
20
23
11
119.6247544
21
31
0
LINE
8
side3_outsideCutPath
10
119.6247544
20
31
11
112.6965511
21
31
0
LINE
8
side3_outsideCutPath
10
112.6965511
20
31
11
112.6965511
21
39
0
LINE
8
side3_outsideCutPath
10
112.6965511
20
39
11
119.6247544
21
39
0
LINE
8
side3_outsideCutPath
10
119.6247544
20
39
11
119.6247544
21
47
0
LINE
8
side3_outsideCutPath
10
119.6247544
20
47
11
112.6965511
21
47
0
LINE
8
side3_outsideCutPath
10
112.6965511
20
47
11
112.6965511
21
55
0
LINE
8
side3_outsideCutPath
10
112.6965511
20
55
11
119.6247544
21
55
0
LINE
8
side3_outsideCutPath
10
119.6247544
20
55
11
119.6247544
21
63
0
LINE
8
side3_outsideCutPath
10
119.6247544
20
63
11
119.6247544
21
67
0
LINE
8
side3_outsideCutPath
10
119.6247544
20
67
11
68.2405804
21
67
0
LINE
8
side5_outsideCutPath
10
129.5529576
20
67
11
129.5529576
21
55
0
LINE
8
side5_outsideCutPath
10
129.5529576
20
55
11
122.6247544
21
55
0
LINE
8
side5_outsideCutPath
10
122.6247544
20
55
11
122.6247544
21
47
0
LINE
8
side5_outsideCutPath
10
122.6247544
20
47
11
129.5529576
21
47
0
LINE
8
side5_outsideCutPath
10
129.5529576
20
47
11
129.5529576
21
39
0
LINE
8
side5_outsideCutPath
10
129.5529576
20
39
11
122.6247544
21
39
0
LINE
8
side5_outsideCutPath
10
122.6247544
20
39
11
122.6247544
21
31
0
LINE
8
side5_outsideCutPath
10
122.6247544
20
31
11
129.5529576
21
31
0
LINE
8
side5_outsideCutPath
10
129.5529576
20
31
11
129.5529576
21
23
0
LINE
8
side5_outsideCutPath
10
129.5529576
20
23
11
122.6247544
21
23
0
LINE
8
side5_outsideCutPath
10
122.6247544
20
23
11
122.6247544
21
15
0
LINE
8
side5_outsideCutPath
10
122.6247544
20
15
11
129.5529576
21
15
0
LINE
8
side5_outsideCutPath
10
129.5529576
20
15
11
129.5529576
21
7
0
LINE
8
side5_outsideCutPath
10
129.5529576
20
7
11
129.5529576
21
7
0
LINE
8
side5_outsideCutPath
10
129.5529576
20
7
11
131.780943
21
7
0
LINE
8
side5_outsideCutPath
10
131.780943
20
7
11
131.780943
21
3
0
LINE
8
side5_outsideCutPath
10
131.780943
20
3
11
139.780943
21
3
0
LINE
8
side5_outsideCutPath
10
139.780943
20
3
11
139.780943
21
7
0
LINE
8
side5_outsideCutPath
10
139.780943
20
7
11
147.780943
21
7
0
LINE
8
side5_outsideCutPath
10
147.780943
20
7
11
147.780943
21
3
0
LINE
8
side5_outsideCutPath
10
147.780943
20
3
11
155.780943
21
3
0
LINE
8
side5_outsideCutPath
10
155.780943
20
3
11
155.780943
21
7
0
LINE
8
side5_outsideCutPath
10
155.780943
20
7
11
163.780943
21
7
0
LINE
8
side5_outsideCutPath
10
163.780943
20
7
11
163.780943
21
3
0
LINE
8
side5_outsideCutPath
10
163.780943
20
3
11
171.780943
21
3
0
LINE
8
side5_outsideCutPath
10
171.780943
20
3
11
171.780943
21
7
0
LINE
8
side5_outsideCutPath
10
171.780943
20
7
11
180.9371316
21
7
0
LINE
8
side5_outsideCutPath
10
180.9371316
20
7
11
180.9371316
21
15
0
LINE
8
side5_outsideCutPath
10
180.9371316
20
15
11
174.0089283
21
15
0
LINE
8
side5_outsideCutPath
10
174.0089283
20
15
11
174.0089283
21
23
0
LINE
8
side5_outsideCutPath
10
174.0089283
20
23
11
180.9371316
21
23
0
LINE
8
side5_outsideCutPath
10
180.9371316
20
23
11
180.9371316
21
31
0
LINE
8
side5_outsideCutPath
10
180.9371316
20
31
11
174.0089283
21
31
0
LINE
8
side5_outsideCutPath
10
174.0089283
20
31
11
174.0089283
21
39
0
LINE
8
side5_outsideCutPath
10
174.0089283
20
39
11
180.9371316
21
39
0
LINE
8
side5_outsideCutPath
10
180.9371316
20
39
11
180.9371316
21
47
0
LINE
8
side5_outsideCutPath
10
180.9371316
20
47
11
174.0089283
21
47
0
LINE
8
side5_outsideCutPath
10
174.0089283
20
47
11
174.0089283
21
55
0
LINE
8
side5_outsideCutPath
10
174.0089283
20
55
11
180.9371316
21
55
0
LINE
8
side5_outsideCutPath
10
180.9371316
20
55
11
180.9371316
21
63
0
LINE
8
side5_outsideCutPath
10
180.9371316
20
63
11
180.9371316
21
67
0
LINE
8
side5_outsideCutPath
10
180.9371316
20
67
11
129.5529576
21
67
0
LINE
8
side0_outsideCutPath
10
6.9282032
20
134
11
6.9282032
21
122
0
LINE
8
side0_outsideCutPath
10
6.9282032
20
122
11
0
21
122
0
LINE
8
side0_outsideCutPath
10
0
20
122
11
0
21
114
0
LINE
8
side0_outsideCutPath
10
0
20
114
11
6.9282032
21
114
0
LINE
8
side0_outsideCutPath
10
6.9282032
20
114
11
6.9282032
21
106
0
LINE
8
side0_outsideCutPath
10
6.9282032
20
106
11
0
21
106
0
LINE
8
side0_outsideCutPath
10
0
20
106
11
0
21
98
0
LINE
8
side0_outsideCutPath
10
0
20
98
11
6.9282032
21
98
0
LINE
8
side0_outsideCutPath
10
6.9282032
20
98
11
6.9282032
21
90
0
LINE
8
side0_outsideCutPath
10
6.9282032
20
90
11
0
21
90
0
LINE
8
side0_outsideCutPath
10
0
20
90
11
0
21
82
0
LINE
8
side0_outsideCutPath
10
0
20
82
11
6.9282032
21
82
0
LINE
8
side0_outsideCutPath
10
6.9282032
20
82
11
6.9282032
21
74
0
LINE
8
side0_outsideCutPath
10
6.9282032
20
74
11
6.9282032
21
74
0
LINE
8
side0_outsideCutPath
10
6.9282032
20
74
11
9.1561886
21
74
0
LINE
8
side0_outsideCutPath
10
9.1561886
20
74
11
9.1561886
21
70
0
LINE
8
side0_outsideCutPath
10
9.1561886
20
70
11
17.1561886
21
70
0
LINE
8
side0_outsideCutPath
10
17.1561886
20
70
11
17.1561886
21
74
0
LINE
8
side0_outsideCutPath
10
17.1561886
20
74
11
25.1561886
21
74
0
LINE
8
side0_outsideCutPath
10
25.1561886
20
74
11
25.1561886
21
70
0
LINE
8
side0_outsideCutPath
10
25.1561886
20
70
11
33.1561886
21
70
0
LINE
8
side0_outsideCutPath
10
33.1561886
20
70
11
33.1561886
21
74
0
LINE
8
side0_outsideCutPath
10
33.1561886
20
74
11
41.1561886
21
74
0
LINE
8
side0_outsideCutPath
10
41.1561886
20
74
11
41.1561886
21
70
0
LINE
8
side0_outsideCutPath
10
41.1561886
20
70
11
49.1561886
21
70
0
LINE
8
side0_outsideCutPath
10
49.1561886
20
70
11
49.1561886
21
74
0
LINE
8
side0_outsideCutPath
10
49.1561886
20
74
11
58.3123772
21
74
0
LINE
8
side0_outsideCutPath
10
58.3123772
20
74
11
58.3123772
21
82
0
LINE
8
side0_outsideCutPath
10
58.3123772
20
82
11
51.384174
21
82
0
LINE
8
side0_outsideCutPath
10
51.384174
20
82
11
51.384174
21
90
0
LINE
8
side0_outsideCutPath
10
51.384174
20
90
11
58.3123772
21
90
0
LINE
8
side0_outsideCutPath
10
58.3123772
20
90
11
58.3123772
21
98
0
LINE
8
side0_outsideCutPath
10
58.3123772
20
98
11
51.384174
21
98
0
LINE
8
side0_outsideCutPath
10
51.384174
20
98
11
51.384174
21
106
0
LINE
8
side0_outsideCutPath
10
51.384174
20
106
11
58.3123772
21
106
0
LINE
8
side0_outsideCutPath
10
58.3123772
20
106
11
58.3123772
21
114
0
LINE
8
side0_outsideCutPath
10
58.3123772
20
114
11
51.384174
21
114
0
LINE
8
side0_outsideCutPath
10
51.384174
20
114
11
51.384174
21
122
0
LINE
8
side0_outsideCutPath
10
51.384174
20
122
11
58.3123772
21
122
0
LINE
8
side0_outsideCutPath
10
58.3123772
20
122
11
58.3123772
21
130
0
LINE
8
side0_outsideCutPath
10
58.3123772
20
130
11
58.3123772
21
134
0
LINE
8
side0_outsideCutPath
10
58.3123772
20
134
11
6.9282032
21
134
0
LINE
8
side2_outsideCutPath
10
68.2405804
20
134
11
68.2405804
21
122
0
LINE
8
side2_outsideCutPath
10
68.2405804
20
122
11
61.3123772
21
122
0
LINE
8
side2_outsideCutPath
10
61.3123772
20
122
11
61.3123772
21
114
0
LINE
8
side2_outsideCutPath
10
61.3123772
20
114
11
68.2405804
21
114
0
LINE
8
side2_outsideCutPath
10
68.2405804
20
114
11
68.2405804
21
106
0
LINE
8
side2_outsideCutPath
10
68.2405804
20
106
11
61.3123772
21
106
0
LINE
8
side2_outsideCutPath
10
61.3123772
20
106
11
61.3123772
21
98
0
LINE
8
side2_outsideCutPath
10
61.3123772
20
98
11
68.2405804
21
98
0
LINE
8
side2_outsideCutPath
10
68.2405804
20
98
11
68.2405804
21
90
0
LINE
8
side2_outsideCutPath
10
68.2405804
20
90
11
61.3123772
21
90
0
LINE
8
side2_outsideCutPath
10
61.3123772
20
90
11
61.3123772
21
82
0
LINE
8
side2_outsideCutPath
10
61.3123772
20
82
11
68.2405804
21
82
0
LINE
8
side2_outsideCutPath
10
68.2405804
20
82
11
68.2405804
21
74
0
LINE
8
side2_outsideCutPath
10
68.2405804
20
74
11
68.2405804
21
74
0
LINE
8
side2_outsideCutPath
10
68.2405804
20
74
11
70.4685658
21
74
0
LINE
8
side2_outsideCutPath
10
70.4685658
20
74
11
70.4685658
21
70
0
LINE
8
side2_outsideCutPath
10
70.4685658
20
70
11
78.4685658
21
70
0
LINE
8
side2_outsideCutPath
10
78.4685658
20
70
11
78.4685658
21
74
0
LINE
8
side2_outsideCutPath
10
78.4685658
20
74
11
86.4685658
21
74
0
LINE
8
side2_outsideCutPath
10
86.4685658
20
74
11
86.4685658
21
70
0
LINE
8
side2_outsideCutPath
10
86.4685658
20
70
11
94.4685658
21
70
0
LINE
8
side2_outsideCutPath
10
94.4685658
20
70
11
94.4685658
21
74
0
LINE
8
side2_outsideCutPath
10
94.4685658
20
74
11
102.4685658
21
74
0
LINE
8
side2_outsideCutPath
10
102.4685658
20
74
11
102.4685658
21
70
0
LINE
8
side2_outsideCutPath
10
102.4685658
20
70
11
110.4685658
21
70
0
LINE
8
side2_outsideCutPath
10
110.4685658
20
70
11
110.4685658
21
74
0
LINE
8
side2_outsideCutPath
10
110.4685658
20
74
11
119.6247544
21
74
0
LINE
8
side2_outsideCutPath
10
119.6247544
20
74
11
119.6247544
21
82
0
LINE
8
side2_outsideCutPath
10
119.6247544
20
82
11
112.6965511
21
82
0
LINE
8
side2_outsideCutPath
10
112.6965511
20
82
11
112.6965511
21
90
0
LINE
8
side2_outsideCutPath
10
112.6965511
20
90
11
119.6247544
21
90
0
LINE
8
side2_outsideCutPath
10
119.6247544
20
90
11
119.6247544
21
98
0
LINE
8
side2_outsideCutPath
10
119.6247544
20
98
11
112.6965511
21
98
0
LINE
8
side2_outsideCutPath
10
112.6965511
20
98
11
112.6965511
21
106
0
LINE
8
side2_outsideCutPath
10
112.6965511
20
106
11
119.6247544
21
106
0
LINE
8
side2_outsideCutPath
10
119.6247544
20
106
11
119.6247544
21
114
0
LINE
8
side2_outsideCutPath
10
119.6247544
20
114
11
112.6965511
21
114
0
LINE
8
side2_outsideCutPath
10
112.6965511
20
114
11
112.6965511
21
122
0
LINE
8
side2_outsideCutPath
10
112.6965511
20
122
11
119.6247544
21
122
0
LINE
8
side2_outsideCutPath
10
119.6247544
20
122
11
119.6247544
21
130
0
LINE
8
side2_outsideCutPath
10
119.6247544
20
130
11
119.6247544
21
134
0
LINE
8
side2_outsideCutPath
10
119.6247544
20
134
11
68.2405804
21
134
0
LINE
8
side4_outsideCutPath
10
129.5529576
20
134
11
129.5529576
21
122
0
LINE
8
side4_outsideCutPath
10
129.5529576
20
122
11
122.6247544
21
122
0
LINE
8
side4_outsideCutPath
10
122.6247544
20
122
11
122.6247544
21
114
0
LINE
8
side4_outsideCutPath
10
122.6247544
20
114
11
129.5529576
21
114
0
LINE
8
side4_outsideCutPath
10
129.5529576
20
114
11
129.5529576
21
106
0
LINE
8
side4_outsideCutPath
10
129.5529576
20
106
11
122.6247544
21
106
0
LINE
8
side4_outsideCutPath
10
122.6247544
20
106
11
122.6247544
21
98
0
LINE
8
side4_outsideCutPath
10
122.6247544
20
98
11
129.5529576
21
98
0
LINE
8
side4_outsideCutPath
10
129.5529576
20
98
11
129.5529576
21
90
0
LINE
8
side4_outsideCutPath
10
129.5529576
20
90
11
122.6247544
21
90
0
LINE
8
side4_outsideCutPath
10
122.6247544
20
90
11
122.6247544
21
82
0
LINE
8
side4_outsideCutPath
10
122.6247544
20
82
11
129.5529576
21
82
0
LINE
8
side4_outsideCutPath
10
129.5529576
20
82
11
129.5529576
21
74
0
LINE
8
side4_outsideCutPath
10
129.5529576
20
74
11
129.5529576
21
74
0
LINE
8
side4_outsideCutPath
10
129.5529576
20
74
11
131.780943
21
74
0
LINE
8
side4_outsideCutPath
10
131.780943
20
74
11
131.780943
21
70
0
LINE
8
side4_outsideCutPath
10
131.780943
20
70
11
139.780943
21
70
0
LINE
8
side4_outsideCutPath
10
139.780943
20
70
11
139.780943
21
74
0
LINE
8
side4_outsideCutPath
10
139.780943
20
74
11
147.780943
21
74
0
LINE
8
side4_outsideCutPath
10
147.780943
20
74
11
147.780943
21
70
0
LINE
8
side4_outsideCutPath
10
147.780943
20
70
11
155.780943
21
70
0
LINE
8
side4_outsideCutPath
10
155.780943
20
70
11
155.780943
21
74
0
LINE
8
side4_outsideCutPath
10
155.780943
20
74
11
163.780943
21
74
0
LINE
8
side4_outsideCutPath
10
163.780943
20
74
11
163.780943
21
70
0
LINE
8
side4_outsideCutPath
10
163.780943
20
70
11
171.780943
21
70
0
LINE
8
side4_outsideCutPath
10
171.780943
20
70
11
171.780943
21
74
0
LINE
8
side4_outsideCutPath
10
171.780943
20
74
11
180.9371316
21
74
0
LINE
8
side4_outsideCutPath
10
180.9371316
20
74
11
180.9371316
21
82
0
LINE
8
side4_outsideCutPath
10
180.9371316
20
82
11
174.0089283
21
82
0
LINE
8
side4_outsideCutPath
10
174.0089283
20
82
11
174.0089283
21
90
0
LINE
8
side4_outsideCutPath
10
174.0089283
20
90
11
180.9371316
21
90
0
LINE
8
side4_outsideCutPath
10
180.9371316
20
90
11
180.9371316
21
98
0
LINE
8
side4_outsideCutPath
10
180.9371316
20
98
11
174.0089283
21
98
0
LINE
8
side4_outsideCutPath
10
174.0089283
20
98
11
174.0089283
21
106
0
LINE
8
side4_outsideCutPath
10
174.0089283
20
106
11
180.9371316
21
106
0
LINE
8
side4_outsideCutPath
10
180.9371316
20
106
11
180.9371316
21
114
0
LINE
8
side4_outsideCutPath
10
180.9371316
20
114
11
174.0089283
21
114
0
LINE
8
side4_outsideCutPath
10
174.0089283
20
114
11
174.0089283
21
122
0
LINE
8
side4_outsideCutPath
10
174.0089283
20
122
11
180.9371316
21
122
0
LINE
8
side4_outsideCutPath
10
180.9371316
20
122
11
180.9371316
21
130
0
LINE
8
side4_outsideCutPath
10
180.9371316
20
130
11
180.9371316
21
134
0
LINE
8
side4_outsideCutPath
10
180.9371316
20
134
11
129.5529576
21
134
0
LINE
8
bottom_outsideCutPath
10
80.5403626
20
230
11
83.9637563
21
224.0705081
0
LINE
8
bottom_outsideCutPath
10
83.9637563
20
224.0705081
11
80.4996547
21
222.0705081
0
LINE
8
bottom_outsideCutPath
10
80.4996547
20
222.0705081
11
84.4996547
21
215.1423048
0
LINE
8
bottom_outsideCutPath
10
84.4996547
20
215.1423048
11
87.9637563
21
217.1423048
0
LINE
8
bottom_outsideCutPath
10
87.9637563
20
217.1423048
11
91.9637563
21
210.2141016
0
LINE
8
bottom_outsideCutPath
10
91.9637563
20
210.2141016
11
88.4996547
21
208.2141016
0
LINE
8
bottom_outsideCutPath
10
88.4996547
20
208.2141016
11
92.4996547
21
201.2858984
0
LINE
8
bottom_outsideCutPath
10
92.4996547
20
201.2858984
11
95.9637563
21
203.2858984
0
LINE
8
bottom_outsideCutPath
10
95.9637563
20
203.2858984
11
99.9637563
21
196.3576952
0
LINE
8
bottom_outsideCutPath
10
99.9637563
20
196.3576952
11
96.4996547
21
194.3576952
0
LINE
8
bottom_outsideCutPath
10
96.4996547
20
194.3576952
11
100.4996547
21
187.4294919
0
LINE
8
bottom_outsideCutPath
10
100.4996547
20
187.4294919
11
103.9637563
21
189.4294919
0
LINE
8
bottom_outsideCutPath
10
103.9637563
20
189.4294919
11
107.3871501
21
183.5
0
LINE
8
bottom_outsideCutPath
10
107.3871501
20
183.5
11
103.9637563
21
177.5705081
0
LINE
8
bottom_outsideCutPath
10
103.9637563
20
177.5705081
11
100.4996547
21
179.5705081
0
LINE
8
bottom_outsideCutPath
10
100.4996547
20
179.5705081
11
96.4996547
21
172.6423048
0
LINE
8
bottom_outsideCutPath
10
96.4996547
20
172.6423048
11
99.9637563
21
170.6423048
0
LINE
8
bottom_outsideCutPath
10
99.9637563
20
170.6423048
11
95.9637563
21
163.7141016
0
LINE
8
bottom_outsideCutPath
10
95.9637563
20
163.7141016
11
92.4996547
21
165.7141016
0
LINE
8
bottom_outsideCutPath
10
92.4996547
20
165.7141016
11
88.4996547
21
158.7858984
0
LINE
8
bottom_outsideCutPath
10
88.4996547
20
158.7858984
11
91.9637563
21
156.7858984
0
LINE
8
bottom_outsideCutPath
10
91.9637563
20
156.7858984
11
87.9637563
21
149.8576952
0
LINE
8
bottom_outsideCutPath
10
87.9637563
20
149.8576952
11
84.4996547
21
151.8576952
0
LINE
8
bottom_outsideCutPath
10
84.4996547
20
151.8576952
11
80.4996547
21
144.9294919
0
LINE
8
bottom_outsideCutPath
10
80.4996547
20
144.9294919
11
83.9637563
21
142.9294919
0
LINE
8
bottom_outsideCutPath
10
83.9637563
20
142.9294919
11
80.5403626
21
137
0
LINE
8
bottom_outsideCutPath
10
80.5403626
20
137
11
73.693575
21
137
0
LINE
8
bottom_outsideCutPath
10
73.693575
20
137
11
73.693575
21
141
0
LINE
8
bottom_outsideCutPath
10
73.693575
20
141
11
65.693575
21
141
0
LINE
8
bottom_outsideCutPath
10
65.693575
20
141
11
65.693575
21
137
0
LINE
8
bottom_outsideCutPath
10
65.693575
20
137
11
57.693575
21
137
0
LINE
8
bottom_outsideCutPath
10
57.693575
20
137
11
57.693575
21
141
0
LINE
8
bottom_outsideCutPath
10
57.693575
20
141
11
49.693575
21
141
0
LINE
8
bottom_outsideCutPath
10
49.693575
20
141
11
49.693575
21
137
0
LINE
8
bottom_outsideCutPath
10
49.693575
20
137
11
41.693575
21
137
0
LINE
8
bottom_outsideCutPath
10
41.693575
20
137
11
41.693575
21
141
0
LINE
8
bottom_outsideCutPath
10
41.693575
20
141
11
33.693575
21
141
0
LINE
8
bottom_outsideCutPath
10
33.693575
20
141
11
33.693575
21
137
0
LINE
8
bottom_outsideCutPath
10
33.693575
20
137
11
26.8467875
21
137
0
LINE
8
bottom_outsideCutPath
10
26.8467875
20
137
11
23.4233938
21
142.9294919
0
LINE
8
bottom_outsideCutPath
10
23.4233938
20
142.9294919
11
26.8874954
21
144.9294919
0
LINE
8
bottom_outsideCutPath
10
26.8874954
20
144.9294919
11
22.8874954
21
151.8576952
0
LINE
8
bottom_outsideCutPath
10
22.8874954
20
151.8576952
11
19.4233938
21
149.8576952
0
LINE
8
bottom_outsideCutPath
10
19.4233938
20
149.8576952
11
15.4233938
21
156.7858984
0
LINE
8
bottom_outsideCutPath
10
15.4233938
20
156.7858984
11
18.8874954
21
158.7858984
0
LINE
8
bottom_outsideCutPath
10
18.8874954
20
158.7858984
11
14.8874954
21
165.7141016
0
LINE
8
bottom_outsideCutPath
10
14.8874954
20
165.7141016
11
11.4233938
21
163.7141016
0
LINE
8
bottom_outsideCutPath
10
11.4233938
20
163.7141016
11
7.4233938
21
170.6423048
0
LINE
8
bottom_outsideCutPath
10
7.4233938
20
170.6423048
11
10.8874954
21
172.6423048
0
LINE
8
bottom_outsideCutPath
10
10.8874954
20
172.6423048
11
6.8874954
21
179.5705081
0
LINE
8
bottom_outsideCutPath
10
6.8874954
20
179.5705081
11
3.4233938
21
177.5705081
0
LINE
8
bottom_outsideCutPath
10
3.4233938
20
177.5705081
11
0
21
183.5
0
LINE
8
bottom_outsideCutPath
10
0
20
183.5
11
3.4233938
21
189.4294919
0
LINE
8
bottom_outsideCutPath
10
3.4233938
20
189.4294919
11
6.8874954
21
187.4294919
0
LINE
8
bottom_outsideCutPath
10
6.8874954
20
187.4294919
11
10.8874954
21
194.3576952
0
LINE
8
bottom_outsideCutPath
10
10.8874954
20
194.3576952
11
7.4233938
21
196.3576952
0
LINE
8
bottom_outsideCutPath
10
7.4233938
20
196.3576952
11
11.4233938
21
203.2858984
0
LINE
8
bottom_outsideCutPath
10
11.4233938
20
203.2858984
11
14.8874954
21
201.2858984
0
LINE
8
bottom_outsideCutPath
10
14.8874954
20
201.2858984
11
18.8874954
21
208.2141016
0
LINE
8
bottom_outsideCutPath
10
18.8874954
20
208.2141016
11
15.4233938
21
210.2141016
0
LINE
8
bottom_outsideCutPath
10
15.4233938
20
210.2141016
11
19.4233938
21
217.1423048
0
LINE
8
bottom_outsideCutPath
10
19.4233938
20
217.1423048
11
22.8874954
21
215.1423048
0
LINE
8
bottom_outsideCutPath
10
22.8874954
20
215.1423048
11
26.8874954
21
222.0705081
0
LINE
8
bottom_outsideCutPath
10
26.8874954
20
222.0705081
11
23.4233938
21
224.0705081
0
LINE
8
bottom_outsideCutPath
10
23.4233938
20
224.0705081
11
26.8467875
21
230
0
LINE
8
bottom_outsideCutPath
10
26.8467875
20
230
11
33.693575
21
230
0
LINE
8
bottom_outsideCutPath
10
33.693575
20
230
11
33.693575
21
226
0
LINE
8
bottom_outsideCutPath
10
33.693575
20
226
11
41.693575
21
226
0
LINE
8
bottom_outsideCutPath
10
41.693575
20
226
11
41.693575
21
230
0
LINE
8
bottom_outsideCutPath
10
41.693575
20
230
11
49.693575
21
230
0
LINE
8
bottom_outsideCutPath
10
49.693575
20
230
11
49.693575
21
226
0
LINE
8
bottom_outsideCutPath
10
49.693575
20
226
11
57.693575
21
226
0
LINE
8
bottom_outsideCutPath
10
57.693575
20
226
11
57.693575
21
230
0
LINE
8
bottom_outsideCutPath
10
57.693575
20
230
11
65.693575
21
230
0
LINE
8
bottom_outsideCutPath
10
65.693575
20
230
11
65.693575
21
226
0
LINE
8
bottom_outsideCutPath
10
65.693575
20
226
11
73.693575
21
226
0
LINE
8
bottom_outsideCutPath
10
73.693575
20
226
11
73.693575
21
230
0
LINE
8
bottom_outsideCutPath
10
73.693575
20
230
11
80.5403626
21
230
0
ENDSEC
0
EOF