<svg width="180.937mm" height="227mm" viewBox="0 0 180.937 227" xmlns="http://www.w3.org/2000/svg" version="1.1" preserveAspectRatio="xMidYMid meet"><g id="svgGroup" stroke-linecap="round" fill-rule="evenodd" font-size="9pt" stroke="#000" stroke-width="0.25mm" fill="none" style="stroke:#000;stroke-width:0.25mm;fill:none"><path d="M 6.928 163 L 6.928 175 L 0 175 L 0 183 L 6.928 183 L 6.928 191 L 0 191 L 0 199 L 6.928 199 L 6.928 207 L 0 207 L 0 215 L 6.928 215 L 6.928 223 L 9.156 223 L 9.156 227 L 17.156 227 L 17.156 223 L 25.156 223 L 25.156 227 L 33.156 227 L 33.156 223 L 41.156 223 L 41.156 227 L 49.156 227 L 49.156 223 L 58.312 223 L 58.312 215 L 51.384 215 L 51.384 207 L 58.312 207 L 58.312 199 L 51.384 199 L 51.384 191 L 58.312 191 L 58.312 183 L 51.384 183 L 51.384 175 L 58.312 175 L 58.312 167 L 58.312 163 L 6.928 163 Z" id="side1_outsideCutPath" stroke="#FF0000" stroke-width="0.1" style="stroke:#FF0000;stroke-width:0.1" vector-effect="non-scaling-stroke"/><path d="M 68.241 163 L 68.241 175 L 61.312 175 L 61.312 183 L 68.241 183 L 68.241 191 L 61.312 191 L 61.312 199 L 68.241 199 L 68.241 207 L 61.312 207 L 61.312 215 L 68.241 215 L 68.241 223 L 70.469 223 L 70.469 227 L 78.469 227 L 78.469 223 L 86.469 223 L 86.469 227 L 94.469 227 L 94.469 223 L 102.469 223 L 102.469 227 L 110.469 227 L 110.469 223 L 119.625 223 L 119.625 215 L 112.697 215 L 112.697 207 L 119.625 207 L 119.625 199 L 112.697 199 L 112.697 191 L 119.625 191 L 119.625 183 L 112.697 183 L 112.697 175 L 119.625 175 L 119.625 167 L 119.625 163 L 68.241 163 Z" id="side3_outsideCutPath" stroke="#FF0000" stroke-width="0.1" style="stroke:#FF0000;stroke-width:0.1" vector-effect="non-scaling-stroke"/><path d="M 129.553 163 L 129.553 175 L 122.625 175 L 122.625 183 L 129.553 183 L 129.553 191 L 122.625 191 L 122.625 199 L 129.553 199 L 129.553 207 L 122.625 207 L 122.625 215 L 129.553 215 L 129.553 223 L 131.781 223 L 131.781 227 L 139.781 227 L 139.781 223 L 147.781 223 L 147.781 227 L 155.781 227 L 155.781 223 L 163.781 223 L 163.781 227 L 171.781 227 L 171.781 223 L 180.937 223 L 180.937 215 L 174.009 215 L 174.009 207 L 180.937 207 L 180.937 199 L 174.009 199 L 174.009 191 L 180.937 191 L 180.937 183 L 174.009 183 L 174.009 175 L 180.937 175 L 180.937 167 L 180.937 163 L 129.553 163 Z" id="side5_outsideCutPath" stroke="#FF0000" stroke-width="0.1" style="stroke:#FF0000;stroke-width:0.1" vector-effect="non-scaling-stroke"/><path d="M 6.928 96 L 6.928 108 L 0 108 L 0 116 L 6.928 116 L 6.928 124 L 0 124 L 0 132 L 6.928 132 L 6.928 140 L 0 140 L 0 148 L 6.928 148 L 6.928 156 L 9.156 156 L 9.156 160 L 17.156 160 L 17.156 156 L 25.156 156 L 25.156 160 L 33.156 160 L 33.156 156 L 41.156 156 L 41.156 160 L 49.156 160 L 49.156 156 L 58.312 156 L 58.312 148 L 51.384 148 L 51.384 140 L 58.312 140 L 58.312 132 L 51.384 132 L 51.384 124 L 58.312 124 L 58.312 116 L 51.384 116 L 51.384 108 L 58.312 108 L 58.312 100 L 58.312 96 L 6.928 96 Z" id="side0_outsideCutPath" stroke="#FF0000" stroke-width="0.1" style="stroke:#FF0000;stroke-width:0.1" vector-effect="non-scaling-stroke"/><path d="M 68.241 96 L 68.241 108 L 61.312 108 L 61.312 116 L 68.241 116 L 68.241 124 L 61.312 124 L 61.312 132 L 68.241 132 L 68.241 140 L 61.312 140 L 61.312 148 L 68.241 148 L 68.241 156 L 70.469 156 L 70.469 160 L 78.469 160 L 78.469 156 L 86.469 156 L 86.469 160 L 94.469 160 L 94.469 156 L 102.469 156 L 102.469 160 L 110.469 160 L 110.469 156 L 119.625 156 L 119.625 148 L 112.697 148 L 112.697 140 L 119.625 140 L 119.625 132 L 112.697 132 L 112.697 124 L 119.625 124 L 119.625 116 L 112.697 116 L 112.697 108 L 119.625 108 L 119.625 100 L 119.625 96 L 68.241 96 Z" id="side2_outsideCutPath" stroke="#FF0000" stroke-width="0.1" style="stroke:#FF0000;stroke-width:0.1" vector-effect="non-scaling-stroke"/><path d="M 129.553 96 L 129.553 108 L 122.625 108 L 122.625 116 L 129.553 116 L 129.553 124 L 122.625 124 L 122.625 132 L 129.553 132 L 129.553 140 L 122.625 140 L 122.625 148 L 129.553 148 L 129.553 156 L 131.781 156 L 131.781 160 L 139.781 160 L 139.781 156 L 147.781 156 L 147.781 160 L 155.781 160 L 155.781 156 L 163.781 156 L 163.781 160 L 171.781 160 L 171.781 156 L 180.937 156 L 180.937 148 L 174.009 148 L 174.009 140 L 180.937 140 L 180.937 132 L 174.009 132 L 174.009 124 L 180.937 124 L 180.937 116 L 174.009 116 L 174.009 108 L 180.937 108 L 180.937 100 L 180.937 96 L 129.553 96 Z" id="side4_outsideCutPath" stroke="#FF0000" stroke-width="0.1" style="stroke:#FF0000;stroke-width:0.1" vector-effect="non-scaling-stroke"/><path d="M 80.54 0 L 83.964 5.929 L 80.5 7.929 L 84.5 14.858 L 87.964 12.858 L 91.964 19.786 L 88.5 21.786 L 92.5 28.714 L 95.964 26.714 L 99.964 33.642 L 96.5 35.642 L 100.5 42.571 L 103.964 40.571 L 107.387 46.5 L 103.964 52.429 L 100.5 50.429 L 96.5 57.358 L 99.964 59.358 L 95.964 66.286 L 92.5 64.286 L 88.5 71.214 L 91.964 73.214 L 87.964 80.142 L 84.5 78.142 L 80.5 85.071 L 83.964 87.071 L 80.54 93 L 73.694 93 L 73.694 89 L 65.694 89 L 65.694 93 L 57.694 93 L 57.694 89 L 49.694 89 L 49.694 93 L 41.694 93 L 41.694 89 L 33.694 89 L 33.694 93 L 26.847 93 L 23.423 87.071 L 26.887 85.071 L 22.887 78.142 L 19.423 80.142 L 15.423 73.214 L 18.887 71.214 L 14.887 64.286 L 11.423 66.286 L 7.423 59.358 L 10.887 57.358 L 6.887 50.429 L 3.423 52.429 L 0 46.5 L 3.423 40.571 L 6.887 42.571 L 10.887 35.642 L 7.423 33.642 L 11.423 26.714 L 14.887 28.714 L 18.887 21.786 L 15.423 19.786 L 19.423 12.858 L 22.887 14.858 L 26.887 7.929 L 23.423 5.929 L 26.847 0 L 33.694 0 L 33.694 4 L 41.694 4 L 41.694 0 L 49.694 0 L 49.694 4 L 57.694 4 L 57.694 0 L 65.694 0 L 65.694 4 L 73.694 4 L 73.694 0 L 80.54 0 Z" id="bottom_outsideCutPath" stroke="#FF0000" stroke-width="0.1" style="stroke:#FF0000;stroke-width:0.1" vector-effect="non-scaling-stroke"/></g></svg>