<?xml version='1.0' encoding='us-ascii'?>
<svg height="396.00mm" viewBox="0.0 0.0 597.90 396.00" width="597.90mm" xmlns="http://www.w3.org/2000/svg" xmlns:cc="http://creativecommons.org/ns#" xmlns:dc="http://purl.org/dc/elements/1.1/" xmlns:inkscape="http://www.inkscape.org/namespaces/inkscape" xmlns:rdf="http://www.w3.org/1999/02/22-rdf-syntax-ns#" xmlns:svg="http://www.w3.org/2000/svg" xmlns:xlink="http://www.w3.org/1999/xlink">
<!--
CardBox - Box for storage of playing cards



#### Building instructions

Place inner walls on floor first (if any). Then add the outer walls. Glue the two walls without finger joins to the inside of the side walls. Make sure there is no squeeze out on top, as this is going to form the rail for the lid.

Add the top of the rails to the sides and the grip rail to the lid (still missing in the picture above):

![Details](static/samples/CardBox-detail.jpg)



Created with Boxes.py (https://festi.info/boxes.py)
Creation date: 2021-07-01 15:50:20
Command line (remove spaces between dashes): boxes CardBox - -FingerJoint_angle=90.0 - -FingerJoint_style=rectangular - -FingerJoint_surroundingspaces=2.0 - -FingerJoint_edge_width=1.0 - -FingerJoint_finger=2.0 - -FingerJoint_play=0.0 - -FingerJoint_space=2.0 - -FingerJoint_width=1.0 - -h=85 - -cardwidth=90 - -cardheight=125 - -num=3 - -thickness=3.0 - -format=svg - -tabs=0.0 - -debug=0 - -labels=0 - -labels=1 - -reference=100 - -burn=0.1
Url: http://www.festi.info/CardBox?FingerJoint_angle=90.0&FingerJoint_style=rectangular&FingerJoint_surroundingspaces=2.0&FingerJoint_edge_width=1.0&FingerJoint_finger=2.0&FingerJoint_play=0.0&FingerJoint_space=2.0&FingerJoint_width=1.0&h=85&cardwidth=90&cardheight=125&num=3&thickness=3.0&format=svg&tabs=0.0&debug=0&labels=0&labels=1&reference=100&burn=0.1&render=1
SettingsUrl: http://www.festi.info/CardBox?FingerJoint_angle=90.0&FingerJoint_style=rectangular&FingerJoint_surroundingspaces=2.0&FingerJoint_edge_width=1.0&FingerJoint_finger=2.0&FingerJoint_play=0.0&FingerJoint_space=2.0&FingerJoint_width=1.0&h=85&cardwidth=90&cardheight=125&num=3&thickness=3.0&format=svg&tabs=0.0&debug=0&labels=0&labels=1&reference=100&burn=0.1
-->
<title>CardBox</title>
<metadata>
<rdf:RDF><cc:Work>
<dc:title>Box - CardBox</dc:title>
<dc:date>2021-07-01 15:50:20</dc:date>
<dc:source>http://www.festi.info/CardBox?FingerJoint_angle=90.0&amp;FingerJoint_style=rectangular&amp;FingerJoint_surroundingspaces=2.0&amp;FingerJoint_edge_width=1.0&amp;FingerJoint_finger=2.0&amp;FingerJoint_play=0.0&amp;FingerJoint_space=2.0&amp;FingerJoint_width=1.0&amp;h=85&amp;cardwidth=90&amp;cardheight=125&amp;num=3&amp;thickness=3.0&amp;format=svg&amp;tabs=0.0&amp;debug=0&amp;labels=0&amp;labels=1&amp;reference=100&amp;burn=0.1&amp;render=1</dc:source>
<dc:description>Box for storage of playing cards


#### Building instructions

Place inner walls on floor first (if any). Then add the outer walls. Glue the two walls without finger joins to the inside of the side walls. Make sure there is no squeeze out on top, as this is going to form the rail for the lid.

Add the top of the rails to the sides and the grip rail to the lid (still missing in the picture above):

![Details](static/samples/CardBox-detail.jpg)


Created with Boxes.py (https://festi.info/boxes.py)
Command line: boxes CardBox --FingerJoint_angle=90.0 --FingerJoint_style=rectangular --FingerJoint_surroundingspaces=2.0 --FingerJoint_edge_width=1.0 --FingerJoint_finger=2.0 --FingerJoint_play=0.0 --FingerJoint_space=2.0 --FingerJoint_width=1.0 --h=85 --cardwidth=90 --cardheight=125 --num=3 --thickness=3.0 --format=svg --tabs=0.0 --debug=0 --labels=0 --labels=1 --reference=100 --burn=0.1
Url: http://www.festi.info/CardBox?FingerJoint_angle=90.0&amp;FingerJoint_style=rectangular&amp;FingerJoint_surroundingspaces=2.0&amp;FingerJoint_edge_width=1.0&amp;FingerJoint_finger=2.0&amp;FingerJoint_play=0.0&amp;FingerJoint_space=2.0&amp;FingerJoint_width=1.0&amp;h=85&amp;cardwidth=90&amp;cardheight=125&amp;num=3&amp;thickness=3.0&amp;format=svg&amp;tabs=0.0&amp;debug=0&amp;labels=0&amp;labels=1&amp;reference=100&amp;burn=0.1&amp;render=1
SettingsUrl: http://www.festi.info/CardBox?FingerJoint_angle=90.0&amp;FingerJoint_style=rectangular&amp;FingerJoint_surroundingspaces=2.0&amp;FingerJoint_edge_width=1.0&amp;FingerJoint_finger=2.0&amp;FingerJoint_play=0.0&amp;FingerJoint_space=2.0&amp;FingerJoint_width=1.0&amp;h=85&amp;cardwidth=90&amp;cardheight=125&amp;num=3&amp;thickness=3.0&amp;format=svg&amp;tabs=0.0&amp;debug=0&amp;labels=0&amp;labels=1&amp;reference=100&amp;burn=0.1
</dc:description>
</cc:Work></rdf:RDF></metadata>
<g id="p-0" style="fill:none;stroke-linecap:round;stroke-linejoin:round;">
  <path d="M 10.100 386.000 H 110.100 V 376.000 H 10.100 V 386.000 Z" stroke="rgb(0,0,0)" stroke-width="0.20" />
  <text alignment-baseline="hanging" font-size="10px" style="font-family: sans-serif ; font-weight: normal; font-style: normal; fill: rgb(0,0,0)" text-anchor="middle" transform="matrix( 1.000 0.000 0.000 1.000 60.100 376.000 )">100mm</text><text alignment-baseline="hanging" font-size="4px" style="font-family: sans-serif ; font-weight: normal; font-style: normal; fill: rgb(255,0,0)" text-anchor="middle" transform="matrix( 1.000 0.000 0.000 1.000 15.100 379.000 )" />
</g>
<g id="p-1" style="fill:none;stroke-linecap:round;stroke-linejoin:round;">
  <text alignment-baseline="hanging" font-size="4px" style="font-family: sans-serif ; font-weight: normal; font-style: normal; fill: rgb(255,0,0)" text-anchor="middle" transform="matrix( 1.000 0.000 0.000 1.000 150.800 308.300 )" /><path d="M 10.100 374.300 H 21.800 C 21.855 374.300 21.900 374.255 21.900 374.200 V 371.300 C 21.900 371.200 21.800 371.300 21.900 371.300 H 27.700 C 27.800 371.300 27.700 371.200 27.700 371.300 V 374.200 C 27.700 374.255 27.745 374.300 27.800 374.300 H 33.800 C 33.855 374.300 33.900 374.255 33.900 374.200 V 371.300 C 33.900 371.200 33.800 371.300 33.900 371.300 H 39.700 C 39.800 371.300 39.700 371.200 39.700 371.300 V 374.200 C 39.700 374.255 39.745 374.300 39.800 374.300 H 45.800 C 45.855 374.300 45.900 374.255 45.900 374.200 V 371.300 C 45.900 371.200 45.800 371.300 45.900 371.300 H 51.700 C 51.800 371.300 51.700 371.200 51.700 371.300 V 374.200 C 51.700 374.255 51.745 374.300 51.800 374.300 H 57.800 C 57.855 374.300 57.900 374.255 57.900 374.200 V 371.300 C 57.900 371.200 57.800 371.300 57.900 371.300 H 63.700 C 63.800 371.300 63.700 371.200 63.700 371.300 V 374.200 C 63.700 374.255 63.745 374.300 63.800 374.300 H 69.800 C 69.855 374.300 69.900 374.255 69.900 374.200 V 371.300 C 69.900 371.200 69.800 371.300 69.900 371.300 H 75.700 C 75.800 371.300 75.700 371.200 75.700 371.300 V 374.200 C 75.700 374.255 75.745 374.300 75.800 374.300 H 81.800 C 81.855 374.300 81.900 374.255 81.900 374.200 V 371.300 C 81.900 371.200 81.800 371.300 81.900 371.300 H 87.700 C 87.800 371.300 87.700 371.200 87.700 371.300 V 374.200 C 87.700 374.255 87.745 374.300 87.800 374.300 H 93.800 C 93.855 374.300 93.900 374.255 93.900 374.200 V 371.300 C 93.900 371.200 93.800 371.300 93.900 371.300 H 99.700 C 99.800 371.300 99.700 371.200 99.700 371.300 V 374.200 C 99.700 374.255 99.745 374.300 99.800 374.300 H 105.800 C 105.855 374.300 105.900 374.255 105.900 374.200 V 371.300 C 105.900 371.200 105.800 371.300 105.900 371.300 H 111.700 C 111.800 371.300 111.700 371.200 111.700 371.300 V 374.200 C 111.700 374.255 111.745 374.300 111.800 374.300 H 117.800 C 117.855 374.300 117.900 374.255 117.900 374.200 V 371.300 C 117.900 371.200 117.800 371.300 117.900 371.300 H 123.700 C 123.800 371.300 123.700 371.200 123.700 371.300 V 374.200 C 123.700 374.255 123.745 374.300 123.800 374.300 H 129.800 C 129.855 374.300 129.900 374.255 129.900 374.200 V 371.300 C 129.900 371.200 129.800 371.300 129.900 371.300 H 135.700 C 135.800 371.300 135.700 371.200 135.700 371.300 V 374.200 C 135.700 374.255 135.745 374.300 135.800 374.300 H 141.800 C 141.855 374.300 141.900 374.255 141.900 374.200 V 371.300 C 141.900 371.200 141.800 371.300 141.900 371.300 H 147.700 C 147.800 371.300 147.700 371.200 147.700 371.300 V 374.200 C 147.700 374.255 147.745 374.300 147.800 374.300 H 153.800 C 153.855 374.300 153.900 374.255 153.900 374.200 V 371.300 C 153.900 371.200 153.800 371.300 153.900 371.300 H 159.700 C 159.800 371.300 159.700 371.200 159.700 371.300 V 374.200 C 159.700 374.255 159.745 374.300 159.800 374.300 H 165.800 C 165.855 374.300 165.900 374.255 165.900 374.200 V 371.300 C 165.900 371.200 165.800 371.300 165.900 371.300 H 171.700 C 171.800 371.300 171.700 371.200 171.700 371.300 V 374.200 C 171.700 374.255 171.745 374.300 171.800 374.300 H 177.800 C 177.855 374.300 177.900 374.255 177.900 374.200 V 371.300 C 177.900 371.200 177.800 371.300 177.900 371.300 H 183.700 C 183.800 371.300 183.700 371.200 183.700 371.300 V 374.200 C 183.700 374.255 183.745 374.300 183.800 374.300 H 189.800 C 189.855 374.300 189.900 374.255 189.900 374.200 V 371.300 C 189.900 371.200 189.800 371.300 189.900 371.300 H 195.700 C 195.800 371.300 195.700 371.200 195.700 371.300 V 374.200 C 195.700 374.255 195.745 374.300 195.800 374.300 H 201.800 C 201.855 374.300 201.900 374.255 201.900 374.200 V 371.300 C 201.900 371.200 201.800 371.300 201.900 371.300 H 207.700 C 207.800 371.300 207.700 371.200 207.700 371.300 V 374.200 C 207.700 374.255 207.745 374.300 207.800 374.300 H 213.800 C 213.855 374.300 213.900 374.255 213.900 374.200 V 371.300 C 213.900 371.200 213.800 371.300 213.900 371.300 H 219.700 C 219.800 371.300 219.700 371.200 219.700 371.300 V 374.200 C 219.700 374.255 219.745 374.300 219.800 374.300 H 225.800 C 225.855 374.300 225.900 374.255 225.900 374.200 V 371.300 C 225.900 371.200 225.800 371.300 225.900 371.300 H 231.700 C 231.800 371.300 231.700 371.200 231.700 371.300 V 374.200 C 231.700 374.255 231.745 374.300 231.800 374.300 H 237.800 C 237.855 374.300 237.900 374.255 237.900 374.200 V 371.300 C 237.900 371.200 237.800 371.300 237.900 371.300 H 243.700 C 243.800 371.300 243.700 371.200 243.700 371.300 V 374.200 C 243.700 374.255 243.745 374.300 243.800 374.300 H 249.800 C 249.855 374.300 249.900 374.255 249.900 374.200 V 371.300 C 249.900 371.200 249.800 371.300 249.900 371.300 H 255.700 C 255.800 371.300 255.700 371.200 255.700 371.300 V 374.200 C 255.700 374.255 255.745 374.300 255.800 374.300 H 261.800 C 261.855 374.300 261.900 374.255 261.900 374.200 V 371.300 C 261.900 371.200 261.800 371.300 261.900 371.300 H 267.700 C 267.800 371.300 267.700 371.200 267.700 371.300 V 374.200 C 267.700 374.255 267.745 374.300 267.800 374.300 H 273.800 C 273.855 374.300 273.900 374.255 273.900 374.200 V 371.300 C 273.900 371.200 273.800 371.300 273.900 371.300 H 279.700 C 279.800 371.300 279.700 371.200 279.700 371.300 V 374.200 C 279.700 374.255 279.745 374.300 279.800 374.300 H 291.500 C 291.555 374.300 291.600 374.255 291.600 374.200 V 371.200 V 246.200 C 291.600 246.145 291.555 246.100 291.500 246.100 H 10.100 C 10.045 246.100 10.000 246.145 10.000 246.200 V 371.200 V 374.200 C 10.000 374.255 10.045 374.300 10.100 374.300" stroke="rgb(0,0,0)" stroke-width="0.20" />
</g>
<g id="p-2" style="fill:none;stroke-linecap:round;stroke-linejoin:round;">
  <path d="M 392.100 356.700 V 359.600 C 392.100 359.700 392.200 359.600 392.100 359.600 H 389.300 C 389.200 359.600 389.300 359.700 389.300 359.600 V 353.800 C 389.300 353.700 389.200 353.800 389.300 353.800 H 392.100 C 392.200 353.800 392.100 353.700 392.100 353.800 V 356.700 Z" stroke="rgb(0,0,255)" stroke-width="0.20" />
  <path d="M 392.100 344.700 V 347.600 C 392.100 347.700 392.200 347.600 392.100 347.600 H 389.300 C 389.200 347.600 389.300 347.700 389.300 347.600 V 341.800 C 389.300 341.700 389.200 341.800 389.300 341.800 H 392.100 C 392.200 341.800 392.100 341.700 392.100 341.800 V 344.700 Z" stroke="rgb(0,0,255)" stroke-width="0.20" />
  <path d="M 392.100 332.700 V 335.600 C 392.100 335.700 392.200 335.600 392.100 335.600 H 389.300 C 389.200 335.600 389.300 335.700 389.300 335.600 V 329.800 C 389.300 329.700 389.200 329.800 389.300 329.800 H 392.100 C 392.200 329.800 392.100 329.700 392.100 329.800 V 332.700 Z" stroke="rgb(0,0,255)" stroke-width="0.20" />
  <path d="M 392.100 320.700 V 323.600 C 392.100 323.700 392.200 323.600 392.100 323.600 H 389.300 C 389.200 323.600 389.300 323.700 389.300 323.600 V 317.800 C 389.300 317.700 389.200 317.800 389.300 317.800 H 392.100 C 392.200 317.800 392.100 317.700 392.100 317.800 V 320.700 Z" stroke="rgb(0,0,255)" stroke-width="0.20" />
  <path d="M 392.100 308.700 V 311.600 C 392.100 311.700 392.200 311.600 392.100 311.600 H 389.300 C 389.200 311.600 389.300 311.700 389.300 311.600 V 305.800 C 389.300 305.700 389.200 305.800 389.300 305.800 H 392.100 C 392.200 305.800 392.100 305.700 392.100 305.800 V 308.700 Z" stroke="rgb(0,0,255)" stroke-width="0.20" />
  <path d="M 392.100 296.700 V 299.600 C 392.100 299.700 392.200 299.600 392.100 299.600 H 389.300 C 389.200 299.600 389.300 299.700 389.300 299.600 V 293.800 C 389.300 293.700 389.200 293.800 389.300 293.800 H 392.100 C 392.200 293.800 392.100 293.700 392.100 293.800 V 296.700 Z" stroke="rgb(0,0,255)" stroke-width="0.20" />
  <path d="M 392.100 284.700 V 287.600 C 392.100 287.700 392.200 287.600 392.100 287.600 H 389.300 C 389.200 287.600 389.300 287.700 389.300 287.600 V 281.800 C 389.300 281.700 389.200 281.800 389.300 281.800 H 392.100 C 392.200 281.800 392.100 281.700 392.100 281.800 V 284.700 Z" stroke="rgb(0,0,255)" stroke-width="0.20" />
  <path d="M 392.100 272.700 V 275.600 C 392.100 275.700 392.200 275.600 392.100 275.600 H 389.300 C 389.200 275.600 389.300 275.700 389.300 275.600 V 269.800 C 389.300 269.700 389.200 269.800 389.300 269.800 H 392.100 C 392.200 269.800 392.100 269.700 392.100 269.800 V 272.700 Z" stroke="rgb(0,0,255)" stroke-width="0.20" />
  <path d="M 392.100 260.700 V 263.600 C 392.100 263.700 392.200 263.600 392.100 263.600 H 389.300 C 389.200 263.600 389.300 263.700 389.300 263.600 V 257.800 C 389.300 257.700 389.200 257.800 389.300 257.800 H 392.100 C 392.200 257.800 392.100 257.700 392.100 257.800 V 260.700 Z" stroke="rgb(0,0,255)" stroke-width="0.20" />
  <path d="M 485.100 356.700 V 359.600 C 485.100 359.700 485.200 359.600 485.100 359.600 H 482.300 C 482.200 359.600 482.300 359.700 482.300 359.600 V 353.800 C 482.300 353.700 482.200 353.800 482.300 353.800 H 485.100 C 485.200 353.800 485.100 353.700 485.100 353.800 V 356.700 Z" stroke="rgb(0,0,255)" stroke-width="0.20" />
  <path d="M 485.100 344.700 V 347.600 C 485.100 347.700 485.200 347.600 485.100 347.600 H 482.300 C 482.200 347.600 482.300 347.700 482.300 347.600 V 341.800 C 482.300 341.700 482.200 341.800 482.300 341.800 H 485.100 C 485.200 341.800 485.100 341.700 485.100 341.800 V 344.700 Z" stroke="rgb(0,0,255)" stroke-width="0.20" />
  <path d="M 485.100 332.700 V 335.600 C 485.100 335.700 485.200 335.600 485.100 335.600 H 482.300 C 482.200 335.600 482.300 335.700 482.300 335.600 V 329.800 C 482.300 329.700 482.200 329.800 482.300 329.800 H 485.100 C 485.200 329.800 485.100 329.700 485.100 329.800 V 332.700 Z" stroke="rgb(0,0,255)" stroke-width="0.20" />
  <path d="M 485.100 320.700 V 323.600 C 485.100 323.700 485.200 323.600 485.100 323.600 H 482.300 C 482.200 323.600 482.300 323.700 482.300 323.600 V 317.800 C 482.300 317.700 482.200 317.800 482.300 317.800 H 485.100 C 485.200 317.800 485.100 317.700 485.100 317.800 V 320.700 Z" stroke="rgb(0,0,255)" stroke-width="0.20" />
  <path d="M 485.100 308.700 V 311.600 C 485.100 311.700 485.200 311.600 485.100 311.600 H 482.300 C 482.200 311.600 482.300 311.700 482.300 311.600 V 305.800 C 482.300 305.700 482.200 305.800 482.300 305.800 H 485.100 C 485.200 305.800 485.100 305.700 485.100 305.800 V 308.700 Z" stroke="rgb(0,0,255)" stroke-width="0.20" />
  <path d="M 485.100 296.700 V 299.600 C 485.100 299.700 485.200 299.600 485.100 299.600 H 482.300 C 482.200 299.600 482.300 299.700 482.300 299.600 V 293.800 C 482.300 293.700 482.200 293.800 482.300 293.800 H 485.100 C 485.200 293.800 485.100 293.700 485.100 293.800 V 296.700 Z" stroke="rgb(0,0,255)" stroke-width="0.20" />
  <path d="M 485.100 284.700 V 287.600 C 485.100 287.700 485.200 287.600 485.100 287.600 H 482.300 C 482.200 287.600 482.300 287.700 482.300 287.600 V 281.800 C 482.300 281.700 482.200 281.800 482.300 281.800 H 485.100 C 485.200 281.800 485.100 281.700 485.100 281.800 V 284.700 Z" stroke="rgb(0,0,255)" stroke-width="0.20" />
  <path d="M 485.100 272.700 V 275.600 C 485.100 275.700 485.200 275.600 485.100 275.600 H 482.300 C 482.200 275.600 482.300 275.700 482.300 275.600 V 269.800 C 482.300 269.700 482.200 269.800 482.300 269.800 H 485.100 C 485.200 269.800 485.100 269.700 485.100 269.800 V 272.700 Z" stroke="rgb(0,0,255)" stroke-width="0.20" />
  <path d="M 485.100 260.700 V 263.600 C 485.100 263.700 485.200 263.600 485.100 263.600 H 482.300 C 482.200 263.600 482.300 263.700 482.300 263.600 V 257.800 C 482.300 257.700 482.200 257.800 482.300 257.800 H 485.100 C 485.200 257.800 485.100 257.700 485.100 257.800 V 260.700 Z" stroke="rgb(0,0,255)" stroke-width="0.20" />
  <text alignment-baseline="hanging" font-size="4px" style="font-family: sans-serif ; font-weight: normal; font-style: normal; fill: rgb(255,0,0)" text-anchor="middle" transform="matrix( 1.000 0.000 0.000 1.000 437.200 306.800 )" /><path d="M 296.200 371.300 H 302.100 C 302.200 371.300 302.100 371.200 302.100 371.300 V 374.200 C 302.100 374.255 302.145 374.300 302.200 374.300 H 308.200 C 308.255 374.300 308.300 374.255 308.300 374.200 V 371.300 C 308.300 371.200 308.200 371.300 308.300 371.300 H 314.100 C 314.200 371.300 314.100 371.200 314.100 371.300 V 374.200 C 314.100 374.255 314.145 374.300 314.200 374.300 H 320.200 C 320.255 374.300 320.300 374.255 320.300 374.200 V 371.300 C 320.300 371.200 320.200 371.300 320.300 371.300 H 326.100 C 326.200 371.300 326.100 371.200 326.100 371.300 V 374.200 C 326.100 374.255 326.145 374.300 326.200 374.300 H 332.200 C 332.255 374.300 332.300 374.255 332.300 374.200 V 371.300 C 332.300 371.200 332.200 371.300 332.300 371.300 H 338.100 C 338.200 371.300 338.100 371.200 338.100 371.300 V 374.200 C 338.100 374.255 338.145 374.300 338.200 374.300 H 344.200 C 344.255 374.300 344.300 374.255 344.300 374.200 V 371.300 C 344.300 371.200 344.200 371.300 344.300 371.300 H 350.100 C 350.200 371.300 350.100 371.200 350.100 371.300 V 374.200 C 350.100 374.255 350.145 374.300 350.200 374.300 H 356.200 C 356.255 374.300 356.300 374.255 356.300 374.200 V 371.300 C 356.300 371.200 356.200 371.300 356.300 371.300 H 362.100 C 362.200 371.300 362.100 371.200 362.100 371.300 V 374.200 C 362.100 374.255 362.145 374.300 362.200 374.300 H 368.200 C 368.255 374.300 368.300 374.255 368.300 374.200 V 371.300 C 368.300 371.200 368.200 371.300 368.300 371.300 H 374.100 C 374.200 371.300 374.100 371.200 374.100 371.300 V 374.200 C 374.100 374.255 374.145 374.300 374.200 374.300 H 380.200 C 380.255 374.300 380.300 374.255 380.300 374.200 V 371.300 C 380.300 371.200 380.200 371.300 380.300 371.300 H 386.100 C 386.200 371.300 386.100 371.200 386.100 371.300 V 374.200 C 386.100 374.255 386.145 374.300 386.200 374.300 H 392.200 C 392.255 374.300 392.300 374.255 392.300 374.200 V 371.300 C 392.300 371.200 392.200 371.300 392.300 371.300 H 398.100 C 398.200 371.300 398.100 371.200 398.100 371.300 V 374.200 C 398.100 374.255 398.145 374.300 398.200 374.300 H 404.200 C 404.255 374.300 404.300 374.255 404.300 374.200 V 371.300 C 404.300 371.200 404.200 371.300 404.300 371.300 H 410.100 C 410.200 371.300 410.100 371.200 410.100 371.300 V 374.200 C 410.100 374.255 410.145 374.300 410.200 374.300 H 416.200 C 416.255 374.300 416.300 374.255 416.300 374.200 V 371.300 C 416.300 371.200 416.200 371.300 416.300 371.300 H 422.100 C 422.200 371.300 422.100 371.200 422.100 371.300 V 374.200 C 422.100 374.255 422.145 374.300 422.200 374.300 H 428.200 C 428.255 374.300 428.300 374.255 428.300 374.200 V 371.300 C 428.300 371.200 428.200 371.300 428.300 371.300 H 434.100 C 434.200 371.300 434.100 371.200 434.100 371.300 V 374.200 C 434.100 374.255 434.145 374.300 434.200 374.300 H 440.200 C 440.255 374.300 440.300 374.255 440.300 374.200 V 371.300 C 440.300 371.200 440.200 371.300 440.300 371.300 H 446.100 C 446.200 371.300 446.100 371.200 446.100 371.300 V 374.200 C 446.100 374.255 446.145 374.300 446.200 374.300 H 452.200 C 452.255 374.300 452.300 374.255 452.300 374.200 V 371.300 C 452.300 371.200 452.200 371.300 452.300 371.300 H 458.100 C 458.200 371.300 458.100 371.200 458.100 371.300 V 374.200 C 458.100 374.255 458.145 374.300 458.200 374.300 H 464.200 C 464.255 374.300 464.300 374.255 464.300 374.200 V 371.300 C 464.300 371.200 464.200 371.300 464.300 371.300 H 470.100 C 470.200 371.300 470.100 371.200 470.100 371.300 V 374.200 C 470.100 374.255 470.145 374.300 470.200 374.300 H 476.200 C 476.255 374.300 476.300 374.255 476.300 374.200 V 371.300 C 476.300 371.200 476.200 371.300 476.300 371.300 H 482.100 C 482.200 371.300 482.100 371.200 482.100 371.300 V 374.200 C 482.100 374.255 482.145 374.300 482.200 374.300 H 488.200 C 488.255 374.300 488.300 374.255 488.300 374.200 V 371.300 C 488.300 371.200 488.200 371.300 488.300 371.300 H 494.100 C 494.200 371.300 494.100 371.200 494.100 371.300 V 374.200 C 494.100 374.255 494.145 374.300 494.200 374.300 H 500.200 C 500.255 374.300 500.300 374.255 500.300 374.200 V 371.300 C 500.300 371.200 500.200 371.300 500.300 371.300 H 506.100 C 506.200 371.300 506.100 371.200 506.100 371.300 V 374.200 C 506.100 374.255 506.145 374.300 506.200 374.300 H 512.200 C 512.255 374.300 512.300 374.255 512.300 374.200 V 371.300 C 512.300 371.200 512.200 371.300 512.300 371.300 H 518.100 C 518.200 371.300 518.100 371.200 518.100 371.300 V 374.200 C 518.100 374.255 518.145 374.300 518.200 374.300 H 524.200 C 524.255 374.300 524.300 374.255 524.300 374.200 V 371.300 C 524.300 371.200 524.200 371.300 524.300 371.300 H 530.100 C 530.200 371.300 530.100 371.200 530.100 371.300 V 374.200 C 530.100 374.255 530.145 374.300 530.200 374.300 H 536.200 C 536.255 374.300 536.300 374.255 536.300 374.200 V 371.300 C 536.300 371.200 536.200 371.300 536.300 371.300 H 542.100 C 542.200 371.300 542.100 371.200 542.100 371.300 V 374.200 C 542.100 374.255 542.145 374.300 542.200 374.300 H 548.200 C 548.255 374.300 548.300 374.255 548.300 374.200 V 371.300 C 548.300 371.200 548.200 371.300 548.300 371.300 H 554.100 C 554.200 371.300 554.100 371.200 554.100 371.300 V 374.200 C 554.100 374.255 554.145 374.300 554.200 374.300 H 560.200 C 560.255 374.300 560.300 374.255 560.300 374.200 V 371.300 C 560.300 371.200 560.200 371.300 560.300 371.300 H 566.100 C 566.200 371.300 566.100 371.200 566.100 371.300 V 374.200 C 566.100 374.255 566.145 374.300 566.200 374.300 H 572.200 C 572.255 374.300 572.300 374.255 572.300 374.200 V 371.300 C 572.300 371.200 572.200 371.300 572.300 371.300 H 578.200 C 578.255 371.300 578.300 371.255 578.300 371.200 V 359.800 C 578.300 359.700 578.200 359.800 578.300 359.800 H 581.200 C 581.255 359.800 581.300 359.755 581.300 359.700 V 353.700 C 581.300 353.645 581.255 353.600 581.200 353.600 H 578.300 C 578.200 353.600 578.300 353.700 578.300 353.600 V 347.800 C 578.300 347.700 578.200 347.800 578.300 347.800 H 581.200 C 581.255 347.800 581.300 347.755 581.300 347.700 V 341.700 C 581.300 341.645 581.255 341.600 581.200 341.600 H 578.300 C 578.200 341.600 578.300 341.700 578.300 341.600 V 335.800 C 578.300 335.700 578.200 335.800 578.300 335.800 H 581.200 C 581.255 335.800 581.300 335.755 581.300 335.700 V 329.700 C 581.300 329.645 581.255 329.600 581.200 329.600 H 578.300 C 578.200 329.600 578.300 329.700 578.300 329.600 V 323.800 C 578.300 323.700 578.200 323.800 578.300 323.800 H 581.200 C 581.255 323.800 581.300 323.755 581.300 323.700 V 317.700 C 581.300 317.645 581.255 317.600 581.200 317.600 H 578.300 C 578.200 317.600 578.300 317.700 578.300 317.600 V 311.800 C 578.300 311.700 578.200 311.800 578.300 311.800 H 581.200 C 581.255 311.800 581.300 311.755 581.300 311.700 V 305.700 C 581.300 305.645 581.255 305.600 581.200 305.600 H 578.300 C 578.200 305.600 578.300 305.700 578.300 305.600 V 299.800 C 578.300 299.700 578.200 299.800 578.300 299.800 H 581.200 C 581.255 299.800 581.300 299.755 581.300 299.700 V 293.700 C 581.300 293.645 581.255 293.600 581.200 293.600 H 578.300 C 578.200 293.600 578.300 293.700 578.300 293.600 V 287.800 C 578.300 287.700 578.200 287.800 578.300 287.800 H 581.200 C 581.255 287.800 581.300 287.755 581.300 287.700 V 281.700 C 581.300 281.645 581.255 281.600 581.200 281.600 H 578.300 C 578.200 281.600 578.300 281.700 578.300 281.600 V 275.800 C 578.300 275.700 578.200 275.800 578.300 275.800 H 581.200 C 581.255 275.800 581.300 275.755 581.300 275.700 V 269.700 C 581.300 269.645 581.255 269.600 581.200 269.600 H 578.300 C 578.200 269.600 578.300 269.700 578.300 269.600 V 263.800 C 578.300 263.700 578.200 263.800 578.300 263.800 H 581.200 C 581.255 263.800 581.300 263.755 581.300 263.700 V 257.700 C 581.300 257.645 581.255 257.600 581.200 257.600 H 578.300 C 578.200 257.600 578.300 257.700 578.300 257.600 V 246.200 C 578.300 246.145 578.255 246.100 578.200 246.100 H 572.300 C 572.200 246.100 572.300 246.200 572.300 246.100 V 243.200 C 572.300 243.145 572.255 243.100 572.200 243.100 H 566.200 C 566.145 243.100 566.100 243.145 566.100 243.200 V 246.100 C 566.100 246.200 566.200 246.100 566.100 246.100 H 560.300 C 560.200 246.100 560.300 246.200 560.300 246.100 V 243.200 C 560.300 243.145 560.255 243.100 560.200 243.100 H 554.200 C 554.145 243.100 554.100 243.145 554.100 243.200 V 246.100 C 554.100 246.200 554.200 246.100 554.100 246.100 H 548.300 C 548.200 246.100 548.300 246.200 548.300 246.100 V 243.200 C 548.300 243.145 548.255 243.100 548.200 243.100 H 542.200 C 542.145 243.100 542.100 243.145 542.100 243.200 V 246.100 C 542.100 246.200 542.200 246.100 542.100 246.100 H 536.300 C 536.200 246.100 536.300 246.200 536.300 246.100 V 243.200 C 536.300 243.145 536.255 243.100 536.200 243.100 H 530.200 C 530.145 243.100 530.100 243.145 530.100 243.200 V 246.100 C 530.100 246.200 530.200 246.100 530.100 246.100 H 524.300 C 524.200 246.100 524.300 246.200 524.300 246.100 V 243.200 C 524.300 243.145 524.255 243.100 524.200 243.100 H 518.200 C 518.145 243.100 518.100 243.145 518.100 243.200 V 246.100 C 518.100 246.200 518.200 246.100 518.100 246.100 H 512.300 C 512.200 246.100 512.300 246.200 512.300 246.100 V 243.200 C 512.300 243.145 512.255 243.100 512.200 243.100 H 506.200 C 506.145 243.100 506.100 243.145 506.100 243.200 V 246.100 C 506.100 246.200 506.200 246.100 506.100 246.100 H 500.300 C 500.200 246.100 500.300 246.200 500.300 246.100 V 243.200 C 500.300 243.145 500.255 243.100 500.200 243.100 H 494.200 C 494.145 243.100 494.100 243.145 494.100 243.200 V 246.100 C 494.100 246.200 494.200 246.100 494.100 246.100 H 488.300 C 488.200 246.100 488.300 246.200 488.300 246.100 V 243.200 C 488.300 243.145 488.255 243.100 488.200 243.100 H 482.200 C 482.145 243.100 482.100 243.145 482.100 243.200 V 246.100 C 482.100 246.200 482.200 246.100 482.100 246.100 H 476.300 C 476.200 246.100 476.300 246.200 476.300 246.100 V 243.200 C 476.300 243.145 476.255 243.100 476.200 243.100 H 470.200 C 470.145 243.100 470.100 243.145 470.100 243.200 V 246.100 C 470.100 246.200 470.200 246.100 470.100 246.100 H 464.300 C 464.200 246.100 464.300 246.200 464.300 246.100 V 243.200 C 464.300 243.145 464.255 243.100 464.200 243.100 H 458.200 C 458.145 243.100 458.100 243.145 458.100 243.200 V 246.100 C 458.100 246.200 458.200 246.100 458.100 246.100 H 452.300 C 452.200 246.100 452.300 246.200 452.300 246.100 V 243.200 C 452.300 243.145 452.255 243.100 452.200 243.100 H 446.200 C 446.145 243.100 446.100 243.145 446.100 243.200 V 246.100 C 446.100 246.200 446.200 246.100 446.100 246.100 H 440.300 C 440.200 246.100 440.300 246.200 440.300 246.100 V 243.200 C 440.300 243.145 440.255 243.100 440.200 243.100 H 434.200 C 434.145 243.100 434.100 243.145 434.100 243.200 V 246.100 C 434.100 246.200 434.200 246.100 434.100 246.100 H 428.300 C 428.200 246.100 428.300 246.200 428.300 246.100 V 243.200 C 428.300 243.145 428.255 243.100 428.200 243.100 H 422.200 C 422.145 243.100 422.100 243.145 422.100 243.200 V 246.100 C 422.100 246.200 422.200 246.100 422.100 246.100 H 416.300 C 416.200 246.100 416.300 246.200 416.300 246.100 V 243.200 C 416.300 243.145 416.255 243.100 416.200 243.100 H 410.200 C 410.145 243.100 410.100 243.145 410.100 243.200 V 246.100 C 410.100 246.200 410.200 246.100 410.100 246.100 H 404.300 C 404.200 246.100 404.300 246.200 404.300 246.100 V 243.200 C 404.300 243.145 404.255 243.100 404.200 243.100 H 398.200 C 398.145 243.100 398.100 243.145 398.100 243.200 V 246.100 C 398.100 246.200 398.200 246.100 398.100 246.100 H 392.300 C 392.200 246.100 392.300 246.200 392.300 246.100 V 243.200 C 392.300 243.145 392.255 243.100 392.200 243.100 H 386.200 C 386.145 243.100 386.100 243.145 386.100 243.200 V 246.100 C 386.100 246.200 386.200 246.100 386.100 246.100 H 380.300 C 380.200 246.100 380.300 246.200 380.300 246.100 V 243.200 C 380.300 243.145 380.255 243.100 380.200 243.100 H 374.200 C 374.145 243.100 374.100 243.145 374.100 243.200 V 246.100 C 374.100 246.200 374.200 246.100 374.100 246.100 H 368.300 C 368.200 246.100 368.300 246.200 368.300 246.100 V 243.200 C 368.300 243.145 368.255 243.100 368.200 243.100 H 362.200 C 362.145 243.100 362.100 243.145 362.100 243.200 V 246.100 C 362.100 246.200 362.200 246.100 362.100 246.100 H 356.300 C 356.200 246.100 356.300 246.200 356.300 246.100 V 243.200 C 356.300 243.145 356.255 243.100 356.200 243.100 H 350.200 C 350.145 243.100 350.100 243.145 350.100 243.200 V 246.100 C 350.100 246.200 350.200 246.100 350.100 246.100 H 344.300 C 344.200 246.100 344.300 246.200 344.300 246.100 V 243.200 C 344.300 243.145 344.255 243.100 344.200 243.100 H 338.200 C 338.145 243.100 338.100 243.145 338.100 243.200 V 246.100 C 338.100 246.200 338.200 246.100 338.100 246.100 H 332.300 C 332.200 246.100 332.300 246.200 332.300 246.100 V 243.200 C 332.300 243.145 332.255 243.100 332.200 243.100 H 326.200 C 326.145 243.100 326.100 243.145 326.100 243.200 V 246.100 C 326.100 246.200 326.200 246.100 326.100 246.100 H 320.300 C 320.200 246.100 320.300 246.200 320.300 246.100 V 243.200 C 320.300 243.145 320.255 243.100 320.200 243.100 H 314.200 C 314.145 243.100 314.100 243.145 314.100 243.200 V 246.100 C 314.100 246.200 314.200 246.100 314.100 246.100 H 308.300 C 308.200 246.100 308.300 246.200 308.300 246.100 V 243.200 C 308.300 243.145 308.255 243.100 308.200 243.100 H 302.200 C 302.145 243.100 302.100 243.145 302.100 243.200 V 246.100 C 302.100 246.200 302.200 246.100 302.100 246.100 H 296.200 C 296.145 246.100 296.100 246.145 296.100 246.200 V 257.600 C 296.100 257.700 296.200 257.600 296.100 257.600 H 293.200 C 293.145 257.600 293.100 257.645 293.100 257.700 V 263.700 C 293.100 263.755 293.145 263.800 293.200 263.800 H 296.100 C 296.200 263.800 296.100 263.700 296.100 263.800 V 269.600 C 296.100 269.700 296.200 269.600 296.100 269.600 H 293.200 C 293.145 269.600 293.100 269.645 293.100 269.700 V 275.700 C 293.100 275.755 293.145 275.800 293.200 275.800 H 296.100 C 296.200 275.800 296.100 275.700 296.100 275.800 V 281.600 C 296.100 281.700 296.200 281.600 296.100 281.600 H 293.200 C 293.145 281.600 293.100 281.645 293.100 281.700 V 287.700 C 293.100 287.755 293.145 287.800 293.200 287.800 H 296.100 C 296.200 287.800 296.100 287.700 296.100 287.800 V 293.600 C 296.100 293.700 296.200 293.600 296.100 293.600 H 293.200 C 293.145 293.600 293.100 293.645 293.100 293.700 V 299.700 C 293.100 299.755 293.145 299.800 293.200 299.800 H 296.100 C 296.200 299.800 296.100 299.700 296.100 299.800 V 305.600 C 296.100 305.700 296.200 305.600 296.100 305.600 H 293.200 C 293.145 305.600 293.100 305.645 293.100 305.700 V 311.700 C 293.100 311.755 293.145 311.800 293.200 311.800 H 296.100 C 296.200 311.800 296.100 311.700 296.100 311.800 V 317.600 C 296.100 317.700 296.200 317.600 296.100 317.600 H 293.200 C 293.145 317.600 293.100 317.645 293.100 317.700 V 323.700 C 293.100 323.755 293.145 323.800 293.200 323.800 H 296.100 C 296.200 323.800 296.100 323.700 296.100 323.800 V 329.600 C 296.100 329.700 296.200 329.600 296.100 329.600 H 293.200 C 293.145 329.600 293.100 329.645 293.100 329.700 V 335.700 C 293.100 335.755 293.145 335.800 293.200 335.800 H 296.100 C 296.200 335.800 296.100 335.700 296.100 335.800 V 341.600 C 296.100 341.700 296.200 341.600 296.100 341.600 H 293.200 C 293.145 341.600 293.100 341.645 293.100 341.700 V 347.700 C 293.100 347.755 293.145 347.800 293.200 347.800 H 296.100 C 296.200 347.800 296.100 347.700 296.100 347.800 V 353.600 C 296.100 353.700 296.200 353.600 296.100 353.600 H 293.200 C 293.145 353.600 293.100 353.645 293.100 353.700 V 359.700 C 293.100 359.755 293.145 359.800 293.200 359.800 H 296.100 C 296.200 359.800 296.100 359.700 296.100 359.800 V 371.200 C 296.100 371.255 296.145 371.300 296.200 371.300" stroke="rgb(0,0,0)" stroke-width="0.20" />
</g>
<g id="p-3" style="fill:none;stroke-linecap:round;stroke-linejoin:round;">
  <path d="M 109.000 227.500 V 230.400 C 109.000 230.500 109.100 230.400 109.000 230.400 H 106.200 C 106.100 230.400 106.200 230.500 106.200 230.400 V 224.600 C 106.200 224.500 106.100 224.600 106.200 224.600 H 109.000 C 109.100 224.600 109.000 224.500 109.000 224.600 V 227.500 Z" stroke="rgb(0,0,255)" stroke-width="0.20" />
  <path d="M 109.000 215.500 V 218.400 C 109.000 218.500 109.100 218.400 109.000 218.400 H 106.200 C 106.100 218.400 106.200 218.500 106.200 218.400 V 212.600 C 106.200 212.500 106.100 212.600 106.200 212.600 H 109.000 C 109.100 212.600 109.000 212.500 109.000 212.600 V 215.500 Z" stroke="rgb(0,0,255)" stroke-width="0.20" />
  <path d="M 109.000 203.500 V 206.400 C 109.000 206.500 109.100 206.400 109.000 206.400 H 106.200 C 106.100 206.400 106.200 206.500 106.200 206.400 V 200.600 C 106.200 200.500 106.100 200.600 106.200 200.600 H 109.000 C 109.100 200.600 109.000 200.500 109.000 200.600 V 203.500 Z" stroke="rgb(0,0,255)" stroke-width="0.20" />
  <path d="M 109.000 191.500 V 194.400 C 109.000 194.500 109.100 194.400 109.000 194.400 H 106.200 C 106.100 194.400 106.200 194.500 106.200 194.400 V 188.600 C 106.200 188.500 106.100 188.600 106.200 188.600 H 109.000 C 109.100 188.600 109.000 188.500 109.000 188.600 V 191.500 Z" stroke="rgb(0,0,255)" stroke-width="0.20" />
  <path d="M 109.000 179.500 V 182.400 C 109.000 182.500 109.100 182.400 109.000 182.400 H 106.200 C 106.100 182.400 106.200 182.500 106.200 182.400 V 176.600 C 106.200 176.500 106.100 176.600 106.200 176.600 H 109.000 C 109.100 176.600 109.000 176.500 109.000 176.600 V 179.500 Z" stroke="rgb(0,0,255)" stroke-width="0.20" />
  <path d="M 109.000 167.500 V 170.400 C 109.000 170.500 109.100 170.400 109.000 170.400 H 106.200 C 106.100 170.400 106.200 170.500 106.200 170.400 V 164.600 C 106.200 164.500 106.100 164.600 106.200 164.600 H 109.000 C 109.100 164.600 109.000 164.500 109.000 164.600 V 167.500 Z" stroke="rgb(0,0,255)" stroke-width="0.20" />
  <path d="M 202.000 227.500 V 230.400 C 202.000 230.500 202.100 230.400 202.000 230.400 H 199.200 C 199.100 230.400 199.200 230.500 199.200 230.400 V 224.600 C 199.200 224.500 199.100 224.600 199.200 224.600 H 202.000 C 202.100 224.600 202.000 224.500 202.000 224.600 V 227.500 Z" stroke="rgb(0,0,255)" stroke-width="0.20" />
  <path d="M 202.000 215.500 V 218.400 C 202.000 218.500 202.100 218.400 202.000 218.400 H 199.200 C 199.100 218.400 199.200 218.500 199.200 218.400 V 212.600 C 199.200 212.500 199.100 212.600 199.200 212.600 H 202.000 C 202.100 212.600 202.000 212.500 202.000 212.600 V 215.500 Z" stroke="rgb(0,0,255)" stroke-width="0.20" />
  <path d="M 202.000 203.500 V 206.400 C 202.000 206.500 202.100 206.400 202.000 206.400 H 199.200 C 199.100 206.400 199.200 206.500 199.200 206.400 V 200.600 C 199.200 200.500 199.100 200.600 199.200 200.600 H 202.000 C 202.100 200.600 202.000 200.500 202.000 200.600 V 203.500 Z" stroke="rgb(0,0,255)" stroke-width="0.20" />
  <path d="M 202.000 191.500 V 194.400 C 202.000 194.500 202.100 194.400 202.000 194.400 H 199.200 C 199.100 194.400 199.200 194.500 199.200 194.400 V 188.600 C 199.200 188.500 199.100 188.600 199.200 188.600 H 202.000 C 202.100 188.600 202.000 188.500 202.000 188.600 V 191.500 Z" stroke="rgb(0,0,255)" stroke-width="0.20" />
  <path d="M 202.000 179.500 V 182.400 C 202.000 182.500 202.100 182.400 202.000 182.400 H 199.200 C 199.100 182.400 199.200 182.500 199.200 182.400 V 176.600 C 199.200 176.500 199.100 176.600 199.200 176.600 H 202.000 C 202.100 176.600 202.000 176.500 202.000 176.600 V 179.500 Z" stroke="rgb(0,0,255)" stroke-width="0.20" />
  <path d="M 202.000 167.500 V 170.400 C 202.000 170.500 202.100 170.400 202.000 170.400 H 199.200 C 199.100 170.400 199.200 170.500 199.200 170.400 V 164.600 C 199.200 164.500 199.100 164.600 199.200 164.600 H 202.000 C 202.100 164.600 202.000 164.500 202.000 164.600 V 167.500 Z" stroke="rgb(0,0,255)" stroke-width="0.20" />
  <text alignment-baseline="hanging" font-size="4px" style="font-family: sans-serif ; font-weight: normal; font-style: normal; fill: rgb(255,0,0)" text-anchor="middle" transform="matrix( 1.000 0.000 0.000 1.000 154.100 194.100 )" /><path d="M 13.100 241.600 H 19.100 C 19.155 241.600 19.200 241.555 19.200 241.500 V 238.600 C 19.200 238.500 19.100 238.600 19.200 238.600 H 25.000 C 25.100 238.600 25.000 238.500 25.000 238.600 V 241.500 C 25.000 241.555 25.045 241.600 25.100 241.600 H 31.100 C 31.155 241.600 31.200 241.555 31.200 241.500 V 238.600 C 31.200 238.500 31.100 238.600 31.200 238.600 H 37.000 C 37.100 238.600 37.000 238.500 37.000 238.600 V 241.500 C 37.000 241.555 37.045 241.600 37.100 241.600 H 43.100 C 43.155 241.600 43.200 241.555 43.200 241.500 V 238.600 C 43.200 238.500 43.100 238.600 43.200 238.600 H 49.000 C 49.100 238.600 49.000 238.500 49.000 238.600 V 241.500 C 49.000 241.555 49.045 241.600 49.100 241.600 H 55.100 C 55.155 241.600 55.200 241.555 55.200 241.500 V 238.600 C 55.200 238.500 55.100 238.600 55.200 238.600 H 61.000 C 61.100 238.600 61.000 238.500 61.000 238.600 V 241.500 C 61.000 241.555 61.045 241.600 61.100 241.600 H 67.100 C 67.155 241.600 67.200 241.555 67.200 241.500 V 238.600 C 67.200 238.500 67.100 238.600 67.200 238.600 H 73.000 C 73.100 238.600 73.000 238.500 73.000 238.600 V 241.500 C 73.000 241.555 73.045 241.600 73.100 241.600 H 79.100 C 79.155 241.600 79.200 241.555 79.200 241.500 V 238.600 C 79.200 238.500 79.100 238.600 79.200 238.600 H 85.000 C 85.100 238.600 85.000 238.500 85.000 238.600 V 241.500 C 85.000 241.555 85.045 241.600 85.100 241.600 H 91.100 C 91.155 241.600 91.200 241.555 91.200 241.500 V 238.600 C 91.200 238.500 91.100 238.600 91.200 238.600 H 97.000 C 97.100 238.600 97.000 238.500 97.000 238.600 V 241.500 C 97.000 241.555 97.045 241.600 97.100 241.600 H 103.100 C 103.155 241.600 103.200 241.555 103.200 241.500 V 238.600 C 103.200 238.500 103.100 238.600 103.200 238.600 H 109.000 C 109.100 238.600 109.000 238.500 109.000 238.600 V 241.500 C 109.000 241.555 109.045 241.600 109.100 241.600 H 115.100 C 115.155 241.600 115.200 241.555 115.200 241.500 V 238.600 C 115.200 238.500 115.100 238.600 115.200 238.600 H 121.000 C 121.100 238.600 121.000 238.500 121.000 238.600 V 241.500 C 121.000 241.555 121.045 241.600 121.100 241.600 H 127.100 C 127.155 241.600 127.200 241.555 127.200 241.500 V 238.600 C 127.200 238.500 127.100 238.600 127.200 238.600 H 133.000 C 133.100 238.600 133.000 238.500 133.000 238.600 V 241.500 C 133.000 241.555 133.045 241.600 133.100 241.600 H 139.100 C 139.155 241.600 139.200 241.555 139.200 241.500 V 238.600 C 139.200 238.500 139.100 238.600 139.200 238.600 H 145.000 C 145.100 238.600 145.000 238.500 145.000 238.600 V 241.500 C 145.000 241.555 145.045 241.600 145.100 241.600 H 151.100 C 151.155 241.600 151.200 241.555 151.200 241.500 V 238.600 C 151.200 238.500 151.100 238.600 151.200 238.600 H 157.000 C 157.100 238.600 157.000 238.500 157.000 238.600 V 241.500 C 157.000 241.555 157.045 241.600 157.100 241.600 H 163.100 C 163.155 241.600 163.200 241.555 163.200 241.500 V 238.600 C 163.200 238.500 163.100 238.600 163.200 238.600 H 169.000 C 169.100 238.600 169.000 238.500 169.000 238.600 V 241.500 C 169.000 241.555 169.045 241.600 169.100 241.600 H 175.100 C 175.155 241.600 175.200 241.555 175.200 241.500 V 238.600 C 175.200 238.500 175.100 238.600 175.200 238.600 H 181.000 C 181.100 238.600 181.000 238.500 181.000 238.600 V 241.500 C 181.000 241.555 181.045 241.600 181.100 241.600 H 187.100 C 187.155 241.600 187.200 241.555 187.200 241.500 V 238.600 C 187.200 238.500 187.100 238.600 187.200 238.600 H 193.000 C 193.100 238.600 193.000 238.500 193.000 238.600 V 241.500 C 193.000 241.555 193.045 241.600 193.100 241.600 H 199.100 C 199.155 241.600 199.200 241.555 199.200 241.500 V 238.600 C 199.200 238.500 199.100 238.600 199.200 238.600 H 205.000 C 205.100 238.600 205.000 238.500 205.000 238.600 V 241.500 C 205.000 241.555 205.045 241.600 205.100 241.600 H 211.100 C 211.155 241.600 211.200 241.555 211.200 241.500 V 238.600 C 211.200 238.500 211.100 238.600 211.200 238.600 H 217.000 C 217.100 238.600 217.000 238.500 217.000 238.600 V 241.500 C 217.000 241.555 217.045 241.600 217.100 241.600 H 223.100 C 223.155 241.600 223.200 241.555 223.200 241.500 V 238.600 C 223.200 238.500 223.100 238.600 223.200 238.600 H 229.000 C 229.100 238.600 229.000 238.500 229.000 238.600 V 241.500 C 229.000 241.555 229.045 241.600 229.100 241.600 H 235.100 C 235.155 241.600 235.200 241.555 235.200 241.500 V 238.600 C 235.200 238.500 235.100 238.600 235.200 238.600 H 241.000 C 241.100 238.600 241.000 238.500 241.000 238.600 V 241.500 C 241.000 241.555 241.045 241.600 241.100 241.600 H 247.100 C 247.155 241.600 247.200 241.555 247.200 241.500 V 238.600 C 247.200 238.500 247.100 238.600 247.200 238.600 H 253.000 C 253.100 238.600 253.000 238.500 253.000 238.600 V 241.500 C 253.000 241.555 253.045 241.600 253.100 241.600 H 259.100 C 259.155 241.600 259.200 241.555 259.200 241.500 V 238.600 C 259.200 238.500 259.100 238.600 259.200 238.600 H 265.000 C 265.100 238.600 265.000 238.500 265.000 238.600 V 241.500 C 265.000 241.555 265.045 241.600 265.100 241.600 H 271.100 C 271.155 241.600 271.200 241.555 271.200 241.500 V 238.600 C 271.200 238.500 271.100 238.600 271.200 238.600 H 277.000 C 277.100 238.600 277.000 238.500 277.000 238.600 V 241.500 C 277.000 241.555 277.045 241.600 277.100 241.600 H 283.100 C 283.155 241.600 283.200 241.555 283.200 241.500 V 238.600 C 283.200 238.500 283.100 238.600 283.200 238.600 H 289.000 C 289.100 238.600 289.000 238.500 289.000 238.600 V 241.500 C 289.000 241.555 289.045 241.600 289.100 241.600 H 295.100 H 298.100 C 298.155 241.600 298.200 241.555 298.200 241.500 V 238.500 V 229.000 C 298.200 228.945 298.155 228.900 298.100 228.900 H 295.200 C 295.100 228.900 295.200 229.000 295.200 228.900 V 223.100 C 295.200 223.000 295.100 223.100 295.200 223.100 H 298.100 C 298.155 223.100 298.200 223.055 298.200 223.000 V 217.000 C 298.200 216.945 298.155 216.900 298.100 216.900 H 295.200 C 295.100 216.900 295.200 217.000 295.200 216.900 V 211.100 C 295.200 211.000 295.100 211.100 295.200 211.100 H 298.100 C 298.155 211.100 298.200 211.055 298.200 211.000 V 205.000 C 298.200 204.945 298.155 204.900 298.100 204.900 H 295.200 C 295.100 204.900 295.200 205.000 295.200 204.900 V 199.100 C 295.200 199.000 295.100 199.100 295.200 199.100 H 298.100 C 298.155 199.100 298.200 199.055 298.200 199.000 V 193.000 C 298.200 192.945 298.155 192.900 298.100 192.900 H 295.200 C 295.100 192.900 295.200 193.000 295.200 192.900 V 187.100 C 295.200 187.000 295.100 187.100 295.200 187.100 H 298.100 C 298.155 187.100 298.200 187.055 298.200 187.000 V 181.000 C 298.200 180.945 298.155 180.900 298.100 180.900 H 295.200 C 295.100 180.900 295.200 181.000 295.200 180.900 V 175.100 C 295.200 175.000 295.100 175.100 295.200 175.100 H 298.100 C 298.155 175.100 298.200 175.055 298.200 175.000 V 169.000 C 298.200 168.945 298.155 168.900 298.100 168.900 H 295.200 C 295.100 168.900 295.200 169.000 295.200 168.900 V 163.100 C 295.200 163.000 295.100 163.100 295.200 163.100 H 298.100 C 298.155 163.100 298.200 163.055 298.200 163.000 V 153.500 V 150.500 C 298.200 150.445 298.155 150.400 298.100 150.400 H 295.100 H 13.100 H 10.100 C 10.045 150.400 10.000 150.445 10.000 150.500 V 153.500 V 163.000 C 10.000 163.055 10.045 163.100 10.100 163.100 H 13.000 C 13.100 163.100 13.000 163.000 13.000 163.100 V 168.900 C 13.000 169.000 13.100 168.900 13.000 168.900 H 10.100 C 10.045 168.900 10.000 168.945 10.000 169.000 V 175.000 C 10.000 175.055 10.045 175.100 10.100 175.100 H 13.000 C 13.100 175.100 13.000 175.000 13.000 175.100 V 180.900 C 13.000 181.000 13.100 180.900 13.000 180.900 H 10.100 C 10.045 180.900 10.000 180.945 10.000 181.000 V 187.000 C 10.000 187.055 10.045 187.100 10.100 187.100 H 13.000 C 13.100 187.100 13.000 187.000 13.000 187.100 V 192.900 C 13.000 193.000 13.100 192.900 13.000 192.900 H 10.100 C 10.045 192.900 10.000 192.945 10.000 193.000 V 199.000 C 10.000 199.055 10.045 199.100 10.100 199.100 H 13.000 C 13.100 199.100 13.000 199.000 13.000 199.100 V 204.900 C 13.000 205.000 13.100 204.900 13.000 204.900 H 10.100 C 10.045 204.900 10.000 204.945 10.000 205.000 V 211.000 C 10.000 211.055 10.045 211.100 10.100 211.100 H 13.000 C 13.100 211.100 13.000 211.000 13.000 211.100 V 216.900 C 13.000 217.000 13.100 216.900 13.000 216.900 H 10.100 C 10.045 216.900 10.000 216.945 10.000 217.000 V 223.000 C 10.000 223.055 10.045 223.100 10.100 223.100 H 13.000 C 13.100 223.100 13.000 223.000 13.000 223.100 V 228.900 C 13.000 229.000 13.100 228.900 13.000 228.900 H 10.100 C 10.045 228.900 10.000 228.945 10.000 229.000 V 238.500 V 241.500 C 10.000 241.555 10.045 241.600 10.100 241.600 H 13.100" stroke="rgb(0,0,0)" stroke-width="0.20" />
</g>
<g id="p-4" style="fill:none;stroke-linecap:round;stroke-linejoin:round;">
  <path d="M 398.700 227.500 V 230.400 C 398.700 230.500 398.800 230.400 398.700 230.400 H 395.900 C 395.800 230.400 395.900 230.500 395.900 230.400 V 224.600 C 395.900 224.500 395.800 224.600 395.900 224.600 H 398.700 C 398.800 224.600 398.700 224.500 398.700 224.600 V 227.500 Z" stroke="rgb(0,0,255)" stroke-width="0.20" />
  <path d="M 398.700 215.500 V 218.400 C 398.700 218.500 398.800 218.400 398.700 218.400 H 395.900 C 395.800 218.400 395.900 218.500 395.900 218.400 V 212.600 C 395.900 212.500 395.800 212.600 395.900 212.600 H 398.700 C 398.800 212.600 398.700 212.500 398.700 212.600 V 215.500 Z" stroke="rgb(0,0,255)" stroke-width="0.20" />
  <path d="M 398.700 203.500 V 206.400 C 398.700 206.500 398.800 206.400 398.700 206.400 H 395.900 C 395.800 206.400 395.900 206.500 395.900 206.400 V 200.600 C 395.900 200.500 395.800 200.600 395.900 200.600 H 398.700 C 398.800 200.600 398.700 200.500 398.700 200.600 V 203.500 Z" stroke="rgb(0,0,255)" stroke-width="0.20" />
  <path d="M 398.700 191.500 V 194.400 C 398.700 194.500 398.800 194.400 398.700 194.400 H 395.900 C 395.800 194.400 395.900 194.500 395.900 194.400 V 188.600 C 395.900 188.500 395.800 188.600 395.900 188.600 H 398.700 C 398.800 188.600 398.700 188.500 398.700 188.600 V 191.500 Z" stroke="rgb(0,0,255)" stroke-width="0.20" />
  <path d="M 398.700 179.500 V 182.400 C 398.700 182.500 398.800 182.400 398.700 182.400 H 395.900 C 395.800 182.400 395.900 182.500 395.900 182.400 V 176.600 C 395.900 176.500 395.800 176.600 395.900 176.600 H 398.700 C 398.800 176.600 398.700 176.500 398.700 176.600 V 179.500 Z" stroke="rgb(0,0,255)" stroke-width="0.20" />
  <path d="M 398.700 167.500 V 170.400 C 398.700 170.500 398.800 170.400 398.700 170.400 H 395.900 C 395.800 170.400 395.900 170.500 395.900 170.400 V 164.600 C 395.900 164.500 395.800 164.600 395.900 164.600 H 398.700 C 398.800 164.600 398.700 164.500 398.700 164.600 V 167.500 Z" stroke="rgb(0,0,255)" stroke-width="0.20" />
  <path d="M 491.700 227.500 V 230.400 C 491.700 230.500 491.800 230.400 491.700 230.400 H 488.900 C 488.800 230.400 488.900 230.500 488.900 230.400 V 224.600 C 488.900 224.500 488.800 224.600 488.900 224.600 H 491.700 C 491.800 224.600 491.700 224.500 491.700 224.600 V 227.500 Z" stroke="rgb(0,0,255)" stroke-width="0.20" />
  <path d="M 491.700 215.500 V 218.400 C 491.700 218.500 491.800 218.400 491.700 218.400 H 488.900 C 488.800 218.400 488.900 218.500 488.900 218.400 V 212.600 C 488.900 212.500 488.800 212.600 488.900 212.600 H 491.700 C 491.800 212.600 491.700 212.500 491.700 212.600 V 215.500 Z" stroke="rgb(0,0,255)" stroke-width="0.20" />
  <path d="M 491.700 203.500 V 206.400 C 491.700 206.500 491.800 206.400 491.700 206.400 H 488.900 C 488.800 206.400 488.900 206.500 488.900 206.400 V 200.600 C 488.900 200.500 488.800 200.600 488.900 200.600 H 491.700 C 491.800 200.600 491.700 200.500 491.700 200.600 V 203.500 Z" stroke="rgb(0,0,255)" stroke-width="0.20" />
  <path d="M 491.700 191.500 V 194.400 C 491.700 194.500 491.800 194.400 491.700 194.400 H 488.900 C 488.800 194.400 488.900 194.500 488.900 194.400 V 188.600 C 488.900 188.500 488.800 188.600 488.900 188.600 H 491.700 C 491.800 188.600 491.700 188.500 491.700 188.600 V 191.500 Z" stroke="rgb(0,0,255)" stroke-width="0.20" />
  <path d="M 491.700 179.500 V 182.400 C 491.700 182.500 491.800 182.400 491.700 182.400 H 488.900 C 488.800 182.400 488.900 182.500 488.900 182.400 V 176.600 C 488.900 176.500 488.800 176.600 488.900 176.600 H 491.700 C 491.800 176.600 491.700 176.500 491.700 176.600 V 179.500 Z" stroke="rgb(0,0,255)" stroke-width="0.20" />
  <path d="M 491.700 167.500 V 170.400 C 491.700 170.500 491.800 170.400 491.700 170.400 H 488.900 C 488.800 170.400 488.900 170.500 488.900 170.400 V 164.600 C 488.900 164.500 488.800 164.600 488.900 164.600 H 491.700 C 491.800 164.600 491.700 164.500 491.700 164.600 V 167.500 Z" stroke="rgb(0,0,255)" stroke-width="0.20" />
  <text alignment-baseline="hanging" font-size="4px" style="font-family: sans-serif ; font-weight: normal; font-style: normal; fill: rgb(255,0,0)" text-anchor="middle" transform="matrix( 1.000 0.000 0.000 1.000 443.800 195.600 )" /><path d="M 302.800 241.600 H 308.800 C 308.855 241.600 308.900 241.555 308.900 241.500 V 238.600 C 308.900 238.500 308.800 238.600 308.900 238.600 H 314.700 C 314.800 238.600 314.700 238.500 314.700 238.600 V 241.500 C 314.700 241.555 314.745 241.600 314.800 241.600 H 320.800 C 320.855 241.600 320.900 241.555 320.900 241.500 V 238.600 C 320.900 238.500 320.800 238.600 320.900 238.600 H 326.700 C 326.800 238.600 326.700 238.500 326.700 238.600 V 241.500 C 326.700 241.555 326.745 241.600 326.800 241.600 H 332.800 C 332.855 241.600 332.900 241.555 332.900 241.500 V 238.600 C 332.900 238.500 332.800 238.600 332.900 238.600 H 338.700 C 338.800 238.600 338.700 238.500 338.700 238.600 V 241.500 C 338.700 241.555 338.745 241.600 338.800 241.600 H 344.800 C 344.855 241.600 344.900 241.555 344.900 241.500 V 238.600 C 344.900 238.500 344.800 238.600 344.900 238.600 H 350.700 C 350.800 238.600 350.700 238.500 350.700 238.600 V 241.500 C 350.700 241.555 350.745 241.600 350.800 241.600 H 356.800 C 356.855 241.600 356.900 241.555 356.900 241.500 V 238.600 C 356.900 238.500 356.800 238.600 356.900 238.600 H 362.700 C 362.800 238.600 362.700 238.500 362.700 238.600 V 241.500 C 362.700 241.555 362.745 241.600 362.800 241.600 H 368.800 C 368.855 241.600 368.900 241.555 368.900 241.500 V 238.600 C 368.900 238.500 368.800 238.600 368.900 238.600 H 374.700 C 374.800 238.600 374.700 238.500 374.700 238.600 V 241.500 C 374.700 241.555 374.745 241.600 374.800 241.600 H 380.800 C 380.855 241.600 380.900 241.555 380.900 241.500 V 238.600 C 380.900 238.500 380.800 238.600 380.900 238.600 H 386.700 C 386.800 238.600 386.700 238.500 386.700 238.600 V 241.500 C 386.700 241.555 386.745 241.600 386.800 241.600 H 392.800 C 392.855 241.600 392.900 241.555 392.900 241.500 V 238.600 C 392.900 238.500 392.800 238.600 392.900 238.600 H 398.700 C 398.800 238.600 398.700 238.500 398.700 238.600 V 241.500 C 398.700 241.555 398.745 241.600 398.800 241.600 H 404.800 C 404.855 241.600 404.900 241.555 404.900 241.500 V 238.600 C 404.900 238.500 404.800 238.600 404.900 238.600 H 410.700 C 410.800 238.600 410.700 238.500 410.700 238.600 V 241.500 C 410.700 241.555 410.745 241.600 410.800 241.600 H 416.800 C 416.855 241.600 416.900 241.555 416.900 241.500 V 238.600 C 416.900 238.500 416.800 238.600 416.900 238.600 H 422.700 C 422.800 238.600 422.700 238.500 422.700 238.600 V 241.500 C 422.700 241.555 422.745 241.600 422.800 241.600 H 428.800 C 428.855 241.600 428.900 241.555 428.900 241.500 V 238.600 C 428.900 238.500 428.800 238.600 428.900 238.600 H 434.700 C 434.800 238.600 434.700 238.500 434.700 238.600 V 241.500 C 434.700 241.555 434.745 241.600 434.800 241.600 H 440.800 C 440.855 241.600 440.900 241.555 440.900 241.500 V 238.600 C 440.900 238.500 440.800 238.600 440.900 238.600 H 446.700 C 446.800 238.600 446.700 238.500 446.700 238.600 V 241.500 C 446.700 241.555 446.745 241.600 446.800 241.600 H 452.800 C 452.855 241.600 452.900 241.555 452.900 241.500 V 238.600 C 452.900 238.500 452.800 238.600 452.900 238.600 H 458.700 C 458.800 238.600 458.700 238.500 458.700 238.600 V 241.500 C 458.700 241.555 458.745 241.600 458.800 241.600 H 464.800 C 464.855 241.600 464.900 241.555 464.900 241.500 V 238.600 C 464.900 238.500 464.800 238.600 464.900 238.600 H 470.700 C 470.800 238.600 470.700 238.500 470.700 238.600 V 241.500 C 470.700 241.555 470.745 241.600 470.800 241.600 H 476.800 C 476.855 241.600 476.900 241.555 476.900 241.500 V 238.600 C 476.900 238.500 476.800 238.600 476.900 238.600 H 482.700 C 482.800 238.600 482.700 238.500 482.700 238.600 V 241.500 C 482.700 241.555 482.745 241.600 482.800 241.600 H 488.800 C 488.855 241.600 488.900 241.555 488.900 241.500 V 238.600 C 488.900 238.500 488.800 238.600 488.900 238.600 H 494.700 C 494.800 238.600 494.700 238.500 494.700 238.600 V 241.500 C 494.700 241.555 494.745 241.600 494.800 241.600 H 500.800 C 500.855 241.600 500.900 241.555 500.900 241.500 V 238.600 C 500.900 238.500 500.800 238.600 500.900 238.600 H 506.700 C 506.800 238.600 506.700 238.500 506.700 238.600 V 241.500 C 506.700 241.555 506.745 241.600 506.800 241.600 H 512.800 C 512.855 241.600 512.900 241.555 512.900 241.500 V 238.600 C 512.900 238.500 512.800 238.600 512.900 238.600 H 518.700 C 518.800 238.600 518.700 238.500 518.700 238.600 V 241.500 C 518.700 241.555 518.745 241.600 518.800 241.600 H 524.800 C 524.855 241.600 524.900 241.555 524.900 241.500 V 238.600 C 524.900 238.500 524.800 238.600 524.900 238.600 H 530.700 C 530.800 238.600 530.700 238.500 530.700 238.600 V 241.500 C 530.700 241.555 530.745 241.600 530.800 241.600 H 536.800 C 536.855 241.600 536.900 241.555 536.900 241.500 V 238.600 C 536.900 238.500 536.800 238.600 536.900 238.600 H 542.700 C 542.800 238.600 542.700 238.500 542.700 238.600 V 241.500 C 542.700 241.555 542.745 241.600 542.800 241.600 H 548.800 C 548.855 241.600 548.900 241.555 548.900 241.500 V 238.600 C 548.900 238.500 548.800 238.600 548.900 238.600 H 554.700 C 554.800 238.600 554.700 238.500 554.700 238.600 V 241.500 C 554.700 241.555 554.745 241.600 554.800 241.600 H 560.800 C 560.855 241.600 560.900 241.555 560.900 241.500 V 238.600 C 560.900 238.500 560.800 238.600 560.900 238.600 H 566.700 C 566.800 238.600 566.700 238.500 566.700 238.600 V 241.500 C 566.700 241.555 566.745 241.600 566.800 241.600 H 572.800 C 572.855 241.600 572.900 241.555 572.900 241.500 V 238.600 C 572.900 238.500 572.800 238.600 572.900 238.600 H 578.700 C 578.800 238.600 578.700 238.500 578.700 238.600 V 241.500 C 578.700 241.555 578.745 241.600 578.800 241.600 H 584.800 H 587.800 C 587.855 241.600 587.900 241.555 587.900 241.500 V 238.500 V 229.000 C 587.900 228.945 587.855 228.900 587.800 228.900 H 584.900 C 584.800 228.900 584.900 229.000 584.900 228.900 V 223.100 C 584.900 223.000 584.800 223.100 584.900 223.100 H 587.800 C 587.855 223.100 587.900 223.055 587.900 223.000 V 217.000 C 587.900 216.945 587.855 216.900 587.800 216.900 H 584.900 C 584.800 216.900 584.900 217.000 584.900 216.900 V 211.100 C 584.900 211.000 584.800 211.100 584.900 211.100 H 587.800 C 587.855 211.100 587.900 211.055 587.900 211.000 V 205.000 C 587.900 204.945 587.855 204.900 587.800 204.900 H 584.900 C 584.800 204.900 584.900 205.000 584.900 204.900 V 199.100 C 584.900 199.000 584.800 199.100 584.900 199.100 H 587.800 C 587.855 199.100 587.900 199.055 587.900 199.000 V 193.000 C 587.900 192.945 587.855 192.900 587.800 192.900 H 584.900 C 584.800 192.900 584.900 193.000 584.900 192.900 V 187.100 C 584.900 187.000 584.800 187.100 584.900 187.100 H 587.800 C 587.855 187.100 587.900 187.055 587.900 187.000 V 181.000 C 587.900 180.945 587.855 180.900 587.800 180.900 H 584.900 C 584.800 180.900 584.900 181.000 584.900 180.900 V 175.100 C 584.900 175.000 584.800 175.100 584.900 175.100 H 587.800 C 587.855 175.100 587.900 175.055 587.900 175.000 V 169.000 C 587.900 168.945 587.855 168.900 587.800 168.900 H 584.900 C 584.800 168.900 584.900 169.000 584.900 168.900 V 163.100 C 584.900 163.000 584.800 163.100 584.900 163.100 H 587.800 C 587.855 163.100 587.900 163.055 587.900 163.000 V 153.500 C 587.900 153.445 587.855 153.400 587.800 153.400 H 584.800 C 584.745 153.400 584.700 153.445 584.700 153.500 V 156.400 C 584.700 156.500 584.800 156.400 584.700 156.400 H 302.900 C 302.800 156.400 302.900 156.500 302.900 156.400 V 153.500 C 302.900 153.445 302.855 153.400 302.800 153.400 H 299.800 C 299.745 153.400 299.700 153.445 299.700 153.500 V 163.000 C 299.700 163.055 299.745 163.100 299.800 163.100 H 302.700 C 302.800 163.100 302.700 163.000 302.700 163.100 V 168.900 C 302.700 169.000 302.800 168.900 302.700 168.900 H 299.800 C 299.745 168.900 299.700 168.945 299.700 169.000 V 175.000 C 299.700 175.055 299.745 175.100 299.800 175.100 H 302.700 C 302.800 175.100 302.700 175.000 302.700 175.100 V 180.900 C 302.700 181.000 302.800 180.900 302.700 180.900 H 299.800 C 299.745 180.900 299.700 180.945 299.700 181.000 V 187.000 C 299.700 187.055 299.745 187.100 299.800 187.100 H 302.700 C 302.800 187.100 302.700 187.000 302.700 187.100 V 192.900 C 302.700 193.000 302.800 192.900 302.700 192.900 H 299.800 C 299.745 192.900 299.700 192.945 299.700 193.000 V 199.000 C 299.700 199.055 299.745 199.100 299.800 199.100 H 302.700 C 302.800 199.100 302.700 199.000 302.700 199.100 V 204.900 C 302.700 205.000 302.800 204.900 302.700 204.900 H 299.800 C 299.745 204.900 299.700 204.945 299.700 205.000 V 211.000 C 299.700 211.055 299.745 211.100 299.800 211.100 H 302.700 C 302.800 211.100 302.700 211.000 302.700 211.100 V 216.900 C 302.700 217.000 302.800 216.900 302.700 216.900 H 299.800 C 299.745 216.900 299.700 216.945 299.700 217.000 V 223.000 C 299.700 223.055 299.745 223.100 299.800 223.100 H 302.700 C 302.800 223.100 302.700 223.000 302.700 223.100 V 228.900 C 302.700 229.000 302.800 228.900 302.700 228.900 H 299.800 C 299.745 228.900 299.700 228.945 299.700 229.000 V 238.500 V 241.500 C 299.700 241.555 299.745 241.600 299.800 241.600 H 302.800" stroke="rgb(0,0,0)" stroke-width="0.20" />
</g>
<g id="p-5" style="fill:none;stroke-linecap:round;stroke-linejoin:round;">
  <text alignment-baseline="hanging" font-size="4px" style="font-family: sans-serif ; font-weight: normal; font-style: normal; fill: rgb(255,0,0)" text-anchor="middle" transform="matrix( 1.000 0.000 0.000 1.000 153.800 143.900 )" /><path d="M 13.100 145.900 H 24.700 C 24.800 145.900 24.700 145.800 24.700 145.900 V 148.800 C 24.700 148.855 24.745 148.900 24.800 148.900 H 30.800 C 30.855 148.900 30.900 148.855 30.900 148.800 V 145.900 C 30.900 145.800 30.800 145.900 30.900 145.900 H 36.700 C 36.800 145.900 36.700 145.800 36.700 145.900 V 148.800 C 36.700 148.855 36.745 148.900 36.800 148.900 H 42.800 C 42.855 148.900 42.900 148.855 42.900 148.800 V 145.900 C 42.900 145.800 42.800 145.900 42.900 145.900 H 48.700 C 48.800 145.900 48.700 145.800 48.700 145.900 V 148.800 C 48.700 148.855 48.745 148.900 48.800 148.900 H 54.800 C 54.855 148.900 54.900 148.855 54.900 148.800 V 145.900 C 54.900 145.800 54.800 145.900 54.900 145.900 H 60.700 C 60.800 145.900 60.700 145.800 60.700 145.900 V 148.800 C 60.700 148.855 60.745 148.900 60.800 148.900 H 66.800 C 66.855 148.900 66.900 148.855 66.900 148.800 V 145.900 C 66.900 145.800 66.800 145.900 66.900 145.900 H 72.700 C 72.800 145.900 72.700 145.800 72.700 145.900 V 148.800 C 72.700 148.855 72.745 148.900 72.800 148.900 H 78.800 C 78.855 148.900 78.900 148.855 78.900 148.800 V 145.900 C 78.900 145.800 78.800 145.900 78.900 145.900 H 84.700 C 84.800 145.900 84.700 145.800 84.700 145.900 V 148.800 C 84.700 148.855 84.745 148.900 84.800 148.900 H 90.800 C 90.855 148.900 90.900 148.855 90.900 148.800 V 145.900 C 90.900 145.800 90.800 145.900 90.900 145.900 H 96.700 C 96.800 145.900 96.700 145.800 96.700 145.900 V 148.800 C 96.700 148.855 96.745 148.900 96.800 148.900 H 102.800 C 102.855 148.900 102.900 148.855 102.900 148.800 V 145.900 C 102.900 145.800 102.800 145.900 102.900 145.900 H 108.700 C 108.800 145.900 108.700 145.800 108.700 145.900 V 148.800 C 108.700 148.855 108.745 148.900 108.800 148.900 H 114.800 C 114.855 148.900 114.900 148.855 114.900 148.800 V 145.900 C 114.900 145.800 114.800 145.900 114.900 145.900 H 120.700 C 120.800 145.900 120.700 145.800 120.700 145.900 V 148.800 C 120.700 148.855 120.745 148.900 120.800 148.900 H 126.800 C 126.855 148.900 126.900 148.855 126.900 148.800 V 145.900 C 126.900 145.800 126.800 145.900 126.900 145.900 H 132.700 C 132.800 145.900 132.700 145.800 132.700 145.900 V 148.800 C 132.700 148.855 132.745 148.900 132.800 148.900 H 138.800 C 138.855 148.900 138.900 148.855 138.900 148.800 V 145.900 C 138.900 145.800 138.800 145.900 138.900 145.900 H 144.700 C 144.800 145.900 144.700 145.800 144.700 145.900 V 148.800 C 144.700 148.855 144.745 148.900 144.800 148.900 H 150.800 C 150.855 148.900 150.900 148.855 150.900 148.800 V 145.900 C 150.900 145.800 150.800 145.900 150.900 145.900 H 156.700 C 156.800 145.900 156.700 145.800 156.700 145.900 V 148.800 C 156.700 148.855 156.745 148.900 156.800 148.900 H 162.800 C 162.855 148.900 162.900 148.855 162.900 148.800 V 145.900 C 162.900 145.800 162.800 145.900 162.900 145.900 H 168.700 C 168.800 145.900 168.700 145.800 168.700 145.900 V 148.800 C 168.700 148.855 168.745 148.900 168.800 148.900 H 174.800 C 174.855 148.900 174.900 148.855 174.900 148.800 V 145.900 C 174.900 145.800 174.800 145.900 174.900 145.900 H 180.700 C 180.800 145.900 180.700 145.800 180.700 145.900 V 148.800 C 180.700 148.855 180.745 148.900 180.800 148.900 H 186.800 C 186.855 148.900 186.900 148.855 186.900 148.800 V 145.900 C 186.900 145.800 186.800 145.900 186.900 145.900 H 192.700 C 192.800 145.900 192.700 145.800 192.700 145.900 V 148.800 C 192.700 148.855 192.745 148.900 192.800 148.900 H 198.800 C 198.855 148.900 198.900 148.855 198.900 148.800 V 145.900 C 198.900 145.800 198.800 145.900 198.900 145.900 H 204.700 C 204.800 145.900 204.700 145.800 204.700 145.900 V 148.800 C 204.700 148.855 204.745 148.900 204.800 148.900 H 210.800 C 210.855 148.900 210.900 148.855 210.900 148.800 V 145.900 C 210.900 145.800 210.800 145.900 210.900 145.900 H 216.700 C 216.800 145.900 216.700 145.800 216.700 145.900 V 148.800 C 216.700 148.855 216.745 148.900 216.800 148.900 H 222.800 C 222.855 148.900 222.900 148.855 222.900 148.800 V 145.900 C 222.900 145.800 222.800 145.900 222.900 145.900 H 228.700 C 228.800 145.900 228.700 145.800 228.700 145.900 V 148.800 C 228.700 148.855 228.745 148.900 228.800 148.900 H 234.800 C 234.855 148.900 234.900 148.855 234.900 148.800 V 145.900 C 234.900 145.800 234.800 145.900 234.900 145.900 H 240.700 C 240.800 145.900 240.700 145.800 240.700 145.900 V 148.800 C 240.700 148.855 240.745 148.900 240.800 148.900 H 246.800 C 246.855 148.900 246.900 148.855 246.900 148.800 V 145.900 C 246.900 145.800 246.800 145.900 246.900 145.900 H 252.700 C 252.800 145.900 252.700 145.800 252.700 145.900 V 148.800 C 252.700 148.855 252.745 148.900 252.800 148.900 H 258.800 C 258.855 148.900 258.900 148.855 258.900 148.800 V 145.900 C 258.900 145.800 258.800 145.900 258.900 145.900 H 264.700 C 264.800 145.900 264.700 145.800 264.700 145.900 V 148.800 C 264.700 148.855 264.745 148.900 264.800 148.900 H 270.800 C 270.855 148.900 270.900 148.855 270.900 148.800 V 145.900 C 270.900 145.800 270.800 145.900 270.900 145.900 H 276.700 C 276.800 145.900 276.700 145.800 276.700 145.900 V 148.800 C 276.700 148.855 276.745 148.900 276.800 148.900 H 282.800 C 282.855 148.900 282.900 148.855 282.900 148.800 V 145.900 C 282.900 145.800 282.800 145.900 282.900 145.900 H 294.500 H 297.500 C 297.555 145.900 297.600 145.855 297.600 145.800 V 142.800 C 297.600 142.745 297.555 142.700 297.500 142.700 H 294.500 H 13.100 H 10.100 C 10.045 142.700 10.000 142.745 10.000 142.800 V 145.800 C 10.000 145.855 10.045 145.900 10.100 145.900 H 13.100" stroke="rgb(0,0,0)" stroke-width="0.20" />
</g>
<g id="p-6" style="fill:none;stroke-linecap:round;stroke-linejoin:round;">
  <text alignment-baseline="hanging" font-size="4px" style="font-family: sans-serif ; font-weight: normal; font-style: normal; fill: rgb(255,0,0)" text-anchor="middle" transform="matrix( 1.000 0.000 0.000 1.000 55.600 73.700 )" /><path d="M 13.100 138.200 H 22.500 C 22.600 138.200 22.500 138.100 22.500 138.200 V 141.100 C 22.500 141.155 22.545 141.200 22.600 141.200 H 28.600 C 28.655 141.200 28.700 141.155 28.700 141.100 V 138.200 C 28.700 138.100 28.600 138.200 28.700 138.200 H 34.500 C 34.600 138.200 34.500 138.100 34.500 138.200 V 141.100 C 34.500 141.155 34.545 141.200 34.600 141.200 H 40.600 C 40.655 141.200 40.700 141.155 40.700 141.100 V 138.200 C 40.700 138.100 40.600 138.200 40.700 138.200 H 46.500 C 46.600 138.200 46.500 138.100 46.500 138.200 V 141.100 C 46.500 141.155 46.545 141.200 46.600 141.200 H 52.600 C 52.655 141.200 52.700 141.155 52.700 141.100 V 138.200 C 52.700 138.100 52.600 138.200 52.700 138.200 H 58.500 C 58.600 138.200 58.500 138.100 58.500 138.200 V 141.100 C 58.500 141.155 58.545 141.200 58.600 141.200 H 64.600 C 64.655 141.200 64.700 141.155 64.700 141.100 V 138.200 C 64.700 138.100 64.600 138.200 64.700 138.200 H 70.500 C 70.600 138.200 70.500 138.100 70.500 138.200 V 141.100 C 70.500 141.155 70.545 141.200 70.600 141.200 H 76.600 C 76.655 141.200 76.700 141.155 76.700 141.100 V 138.200 C 76.700 138.100 76.600 138.200 76.700 138.200 H 82.500 C 82.600 138.200 82.500 138.100 82.500 138.200 V 141.100 C 82.500 141.155 82.545 141.200 82.600 141.200 H 88.600 C 88.655 141.200 88.700 141.155 88.700 141.100 V 138.200 C 88.700 138.100 88.600 138.200 88.700 138.200 H 98.100 H 101.100 C 101.155 138.200 101.200 138.155 101.200 138.100 V 126.600 C 101.200 126.545 101.155 126.500 101.100 126.500 H 98.200 C 98.100 126.500 98.200 126.600 98.200 126.500 V 120.700 C 98.200 120.600 98.100 120.700 98.200 120.700 H 101.100 C 101.155 120.700 101.200 120.655 101.200 120.600 V 114.600 C 101.200 114.545 101.155 114.500 101.100 114.500 H 98.200 C 98.100 114.500 98.200 114.600 98.200 114.500 V 108.700 C 98.200 108.600 98.100 108.700 98.200 108.700 H 101.100 C 101.155 108.700 101.200 108.655 101.200 108.600 V 102.600 C 101.200 102.545 101.155 102.500 101.100 102.500 H 98.200 C 98.100 102.500 98.200 102.600 98.200 102.500 V 96.700 C 98.200 96.600 98.100 96.700 98.200 96.700 H 101.100 C 101.155 96.700 101.200 96.655 101.200 96.600 V 90.600 C 101.200 90.545 101.155 90.500 101.100 90.500 H 98.200 C 98.100 90.500 98.200 90.600 98.200 90.500 V 84.700 C 98.200 84.600 98.100 84.700 98.200 84.700 H 101.100 C 101.155 84.700 101.200 84.655 101.200 84.600 V 78.600 C 101.200 78.545 101.155 78.500 101.100 78.500 H 98.200 C 98.100 78.500 98.200 78.600 98.200 78.500 V 72.700 C 98.200 72.600 98.100 72.700 98.200 72.700 H 101.100 C 101.155 72.700 101.200 72.655 101.200 72.600 V 66.600 C 101.200 66.545 101.155 66.500 101.100 66.500 H 98.200 C 98.100 66.500 98.200 66.600 98.200 66.500 V 60.700 C 98.200 60.600 98.100 60.700 98.200 60.700 H 101.100 C 101.155 60.700 101.200 60.655 101.200 60.600 V 54.600 C 101.200 54.545 101.155 54.500 101.100 54.500 H 98.200 C 98.100 54.500 98.200 54.600 98.200 54.500 V 48.700 C 98.200 48.600 98.100 48.700 98.200 48.700 H 101.100 C 101.155 48.700 101.200 48.655 101.200 48.600 V 42.600 C 101.200 42.545 101.155 42.500 101.100 42.500 H 98.200 C 98.100 42.500 98.200 42.600 98.200 42.500 V 36.700 C 98.200 36.600 98.100 36.700 98.200 36.700 H 101.100 C 101.155 36.700 101.200 36.655 101.200 36.600 V 30.600 C 101.200 30.545 101.155 30.500 101.100 30.500 H 98.200 C 98.100 30.500 98.200 30.600 98.200 30.500 V 24.700 C 98.200 24.600 98.100 24.700 98.200 24.700 H 101.100 C 101.155 24.700 101.200 24.655 101.200 24.600 V 13.100 C 101.200 13.045 101.155 13.000 101.100 13.000 H 98.100 H 88.700 C 88.600 13.000 88.700 13.100 88.700 13.000 V 10.100 C 88.700 10.045 88.655 10.000 88.600 10.000 H 82.600 C 82.545 10.000 82.500 10.045 82.500 10.100 V 13.000 C 82.500 13.100 82.600 13.000 82.500 13.000 H 76.700 C 76.600 13.000 76.700 13.100 76.700 13.000 V 10.100 C 76.700 10.045 76.655 10.000 76.600 10.000 H 70.600 C 70.545 10.000 70.500 10.045 70.500 10.100 V 13.000 C 70.500 13.100 70.600 13.000 70.500 13.000 H 64.700 C 64.600 13.000 64.700 13.100 64.700 13.000 V 10.100 C 64.700 10.045 64.655 10.000 64.600 10.000 H 58.600 C 58.545 10.000 58.500 10.045 58.500 10.100 V 13.000 C 58.500 13.100 58.600 13.000 58.500 13.000 H 52.700 C 52.600 13.000 52.700 13.100 52.700 13.000 V 10.100 C 52.700 10.045 52.655 10.000 52.600 10.000 H 46.600 C 46.545 10.000 46.500 10.045 46.500 10.100 V 13.000 C 46.500 13.100 46.600 13.000 46.500 13.000 H 40.700 C 40.600 13.000 40.700 13.100 40.700 13.000 V 10.100 C 40.700 10.045 40.655 10.000 40.600 10.000 H 34.600 C 34.545 10.000 34.500 10.045 34.500 10.100 V 13.000 C 34.500 13.100 34.600 13.000 34.500 13.000 H 28.700 C 28.600 13.000 28.700 13.100 28.700 13.000 V 10.100 C 28.700 10.045 28.655 10.000 28.600 10.000 H 22.600 C 22.545 10.000 22.500 10.045 22.500 10.100 V 13.000 C 22.500 13.100 22.600 13.000 22.500 13.000 H 13.100 H 10.100 C 10.045 13.000 10.000 13.045 10.000 13.100 V 24.600 C 10.000 24.655 10.045 24.700 10.100 24.700 H 13.000 C 13.100 24.700 13.000 24.600 13.000 24.700 V 30.500 C 13.000 30.600 13.100 30.500 13.000 30.500 H 10.100 C 10.045 30.500 10.000 30.545 10.000 30.600 V 36.600 C 10.000 36.655 10.045 36.700 10.100 36.700 H 13.000 C 13.100 36.700 13.000 36.600 13.000 36.700 V 42.500 C 13.000 42.600 13.100 42.500 13.000 42.500 H 10.100 C 10.045 42.500 10.000 42.545 10.000 42.600 V 48.600 C 10.000 48.655 10.045 48.700 10.100 48.700 H 13.000 C 13.100 48.700 13.000 48.600 13.000 48.700 V 54.500 C 13.000 54.600 13.100 54.500 13.000 54.500 H 10.100 C 10.045 54.500 10.000 54.545 10.000 54.600 V 60.600 C 10.000 60.655 10.045 60.700 10.100 60.700 H 13.000 C 13.100 60.700 13.000 60.600 13.000 60.700 V 66.500 C 13.000 66.600 13.100 66.500 13.000 66.500 H 10.100 C 10.045 66.500 10.000 66.545 10.000 66.600 V 72.600 C 10.000 72.655 10.045 72.700 10.100 72.700 H 13.000 C 13.100 72.700 13.000 72.600 13.000 72.700 V 78.500 C 13.000 78.600 13.100 78.500 13.000 78.500 H 10.100 C 10.045 78.500 10.000 78.545 10.000 78.600 V 84.600 C 10.000 84.655 10.045 84.700 10.100 84.700 H 13.000 C 13.100 84.700 13.000 84.600 13.000 84.700 V 90.500 C 13.000 90.600 13.100 90.500 13.000 90.500 H 10.100 C 10.045 90.500 10.000 90.545 10.000 90.600 V 96.600 C 10.000 96.655 10.045 96.700 10.100 96.700 H 13.000 C 13.100 96.700 13.000 96.600 13.000 96.700 V 102.500 C 13.000 102.600 13.100 102.500 13.000 102.500 H 10.100 C 10.045 102.500 10.000 102.545 10.000 102.600 V 108.600 C 10.000 108.655 10.045 108.700 10.100 108.700 H 13.000 C 13.100 108.700 13.000 108.600 13.000 108.700 V 114.500 C 13.000 114.600 13.100 114.500 13.000 114.500 H 10.100 C 10.045 114.500 10.000 114.545 10.000 114.600 V 120.600 C 10.000 120.655 10.045 120.700 10.100 120.700 H 13.000 C 13.100 120.700 13.000 120.600 13.000 120.700 V 126.500 C 13.000 126.600 13.100 126.500 13.000 126.500 H 10.100 C 10.045 126.500 10.000 126.545 10.000 126.600 V 138.100 C 10.000 138.155 10.045 138.200 10.100 138.200 H 13.100" stroke="rgb(0,0,0)" stroke-width="0.20" />
</g>
<g id="p-7" style="fill:none;stroke-linecap:round;stroke-linejoin:round;">
  <text alignment-baseline="hanging" font-size="4px" style="font-family: sans-serif ; font-weight: normal; font-style: normal; fill: rgb(255,0,0)" text-anchor="middle" transform="matrix( 1.000 0.000 0.000 1.000 148.300 73.700 )" /><path d="M 105.800 138.200 H 115.200 C 115.300 138.200 115.200 138.100 115.200 138.200 V 141.100 C 115.200 141.155 115.245 141.200 115.300 141.200 H 121.300 C 121.355 141.200 121.400 141.155 121.400 141.100 V 138.200 C 121.400 138.100 121.300 138.200 121.400 138.200 H 127.200 C 127.300 138.200 127.200 138.100 127.200 138.200 V 141.100 C 127.200 141.155 127.245 141.200 127.300 141.200 H 133.300 C 133.355 141.200 133.400 141.155 133.400 141.100 V 138.200 C 133.400 138.100 133.300 138.200 133.400 138.200 H 139.200 C 139.300 138.200 139.200 138.100 139.200 138.200 V 141.100 C 139.200 141.155 139.245 141.200 139.300 141.200 H 145.300 C 145.355 141.200 145.400 141.155 145.400 141.100 V 138.200 C 145.400 138.100 145.300 138.200 145.400 138.200 H 151.200 C 151.300 138.200 151.200 138.100 151.200 138.200 V 141.100 C 151.200 141.155 151.245 141.200 151.300 141.200 H 157.300 C 157.355 141.200 157.400 141.155 157.400 141.100 V 138.200 C 157.400 138.100 157.300 138.200 157.400 138.200 H 163.200 C 163.300 138.200 163.200 138.100 163.200 138.200 V 141.100 C 163.200 141.155 163.245 141.200 163.300 141.200 H 169.300 C 169.355 141.200 169.400 141.155 169.400 141.100 V 138.200 C 169.400 138.100 169.300 138.200 169.400 138.200 H 175.200 C 175.300 138.200 175.200 138.100 175.200 138.200 V 141.100 C 175.200 141.155 175.245 141.200 175.300 141.200 H 181.300 C 181.355 141.200 181.400 141.155 181.400 141.100 V 138.200 C 181.400 138.100 181.300 138.200 181.400 138.200 H 190.800 H 193.800 C 193.855 138.200 193.900 138.155 193.900 138.100 V 126.600 C 193.900 126.545 193.855 126.500 193.800 126.500 H 190.900 C 190.800 126.500 190.900 126.600 190.900 126.500 V 120.700 C 190.900 120.600 190.800 120.700 190.900 120.700 H 193.800 C 193.855 120.700 193.900 120.655 193.900 120.600 V 114.600 C 193.900 114.545 193.855 114.500 193.800 114.500 H 190.900 C 190.800 114.500 190.900 114.600 190.900 114.500 V 108.700 C 190.900 108.600 190.800 108.700 190.900 108.700 H 193.800 C 193.855 108.700 193.900 108.655 193.900 108.600 V 102.600 C 193.900 102.545 193.855 102.500 193.800 102.500 H 190.900 C 190.800 102.500 190.900 102.600 190.900 102.500 V 96.700 C 190.900 96.600 190.800 96.700 190.900 96.700 H 193.800 C 193.855 96.700 193.900 96.655 193.900 96.600 V 90.600 C 193.900 90.545 193.855 90.500 193.800 90.500 H 190.900 C 190.800 90.500 190.900 90.600 190.900 90.500 V 84.700 C 190.900 84.600 190.800 84.700 190.900 84.700 H 193.800 C 193.855 84.700 193.900 84.655 193.900 84.600 V 78.600 C 193.900 78.545 193.855 78.500 193.800 78.500 H 190.900 C 190.800 78.500 190.900 78.600 190.900 78.500 V 72.700 C 190.900 72.600 190.800 72.700 190.900 72.700 H 193.800 C 193.855 72.700 193.900 72.655 193.900 72.600 V 66.600 C 193.900 66.545 193.855 66.500 193.800 66.500 H 190.900 C 190.800 66.500 190.900 66.600 190.900 66.500 V 60.700 C 190.900 60.600 190.800 60.700 190.900 60.700 H 193.800 C 193.855 60.700 193.900 60.655 193.900 60.600 V 54.600 C 193.900 54.545 193.855 54.500 193.800 54.500 H 190.900 C 190.800 54.500 190.900 54.600 190.900 54.500 V 48.700 C 190.900 48.600 190.800 48.700 190.900 48.700 H 193.800 C 193.855 48.700 193.900 48.655 193.900 48.600 V 42.600 C 193.900 42.545 193.855 42.500 193.800 42.500 H 190.900 C 190.800 42.500 190.900 42.600 190.900 42.500 V 36.700 C 190.900 36.600 190.800 36.700 190.900 36.700 H 193.800 C 193.855 36.700 193.900 36.655 193.900 36.600 V 30.600 C 193.900 30.545 193.855 30.500 193.800 30.500 H 190.900 C 190.800 30.500 190.900 30.600 190.900 30.500 V 24.700 C 190.900 24.600 190.800 24.700 190.900 24.700 H 193.800 C 193.855 24.700 193.900 24.655 193.900 24.600 V 13.100 C 193.900 13.045 193.855 13.000 193.800 13.000 H 190.800 H 181.400 C 181.300 13.000 181.400 13.100 181.400 13.000 V 10.100 C 181.400 10.045 181.355 10.000 181.300 10.000 H 175.300 C 175.245 10.000 175.200 10.045 175.200 10.100 V 13.000 C 175.200 13.100 175.300 13.000 175.200 13.000 H 169.400 C 169.300 13.000 169.400 13.100 169.400 13.000 V 10.100 C 169.400 10.045 169.355 10.000 169.300 10.000 H 163.300 C 163.245 10.000 163.200 10.045 163.200 10.100 V 13.000 C 163.200 13.100 163.300 13.000 163.200 13.000 H 157.400 C 157.300 13.000 157.400 13.100 157.400 13.000 V 10.100 C 157.400 10.045 157.355 10.000 157.300 10.000 H 151.300 C 151.245 10.000 151.200 10.045 151.200 10.100 V 13.000 C 151.200 13.100 151.300 13.000 151.200 13.000 H 145.400 C 145.300 13.000 145.400 13.100 145.400 13.000 V 10.100 C 145.400 10.045 145.355 10.000 145.300 10.000 H 139.300 C 139.245 10.000 139.200 10.045 139.200 10.100 V 13.000 C 139.200 13.100 139.300 13.000 139.200 13.000 H 133.400 C 133.300 13.000 133.400 13.100 133.400 13.000 V 10.100 C 133.400 10.045 133.355 10.000 133.300 10.000 H 127.300 C 127.245 10.000 127.200 10.045 127.200 10.100 V 13.000 C 127.200 13.100 127.300 13.000 127.200 13.000 H 121.400 C 121.300 13.000 121.400 13.100 121.400 13.000 V 10.100 C 121.400 10.045 121.355 10.000 121.300 10.000 H 115.300 C 115.245 10.000 115.200 10.045 115.200 10.100 V 13.000 C 115.200 13.100 115.300 13.000 115.200 13.000 H 105.800 H 102.800 C 102.745 13.000 102.700 13.045 102.700 13.100 V 24.600 C 102.700 24.655 102.745 24.700 102.800 24.700 H 105.700 C 105.800 24.700 105.700 24.600 105.700 24.700 V 30.500 C 105.700 30.600 105.800 30.500 105.700 30.500 H 102.800 C 102.745 30.500 102.700 30.545 102.700 30.600 V 36.600 C 102.700 36.655 102.745 36.700 102.800 36.700 H 105.700 C 105.800 36.700 105.700 36.600 105.700 36.700 V 42.500 C 105.700 42.600 105.800 42.500 105.700 42.500 H 102.800 C 102.745 42.500 102.700 42.545 102.700 42.600 V 48.600 C 102.700 48.655 102.745 48.700 102.800 48.700 H 105.700 C 105.800 48.700 105.700 48.600 105.700 48.700 V 54.500 C 105.700 54.600 105.800 54.500 105.700 54.500 H 102.800 C 102.745 54.500 102.700 54.545 102.700 54.600 V 60.600 C 102.700 60.655 102.745 60.700 102.800 60.700 H 105.700 C 105.800 60.700 105.700 60.600 105.700 60.700 V 66.500 C 105.700 66.600 105.800 66.500 105.700 66.500 H 102.800 C 102.745 66.500 102.700 66.545 102.700 66.600 V 72.600 C 102.700 72.655 102.745 72.700 102.800 72.700 H 105.700 C 105.800 72.700 105.700 72.600 105.700 72.700 V 78.500 C 105.700 78.600 105.800 78.500 105.700 78.500 H 102.800 C 102.745 78.500 102.700 78.545 102.700 78.600 V 84.600 C 102.700 84.655 102.745 84.700 102.800 84.700 H 105.700 C 105.800 84.700 105.700 84.600 105.700 84.700 V 90.500 C 105.700 90.600 105.800 90.500 105.700 90.500 H 102.800 C 102.745 90.500 102.700 90.545 102.700 90.600 V 96.600 C 102.700 96.655 102.745 96.700 102.800 96.700 H 105.700 C 105.800 96.700 105.700 96.600 105.700 96.700 V 102.500 C 105.700 102.600 105.800 102.500 105.700 102.500 H 102.800 C 102.745 102.500 102.700 102.545 102.700 102.600 V 108.600 C 102.700 108.655 102.745 108.700 102.800 108.700 H 105.700 C 105.800 108.700 105.700 108.600 105.700 108.700 V 114.500 C 105.700 114.600 105.800 114.500 105.700 114.500 H 102.800 C 102.745 114.500 102.700 114.545 102.700 114.600 V 120.600 C 102.700 120.655 102.745 120.700 102.800 120.700 H 105.700 C 105.800 120.700 105.700 120.600 105.700 120.700 V 126.500 C 105.700 126.600 105.800 126.500 105.700 126.500 H 102.800 C 102.745 126.500 102.700 126.545 102.700 126.600 V 138.100 C 102.700 138.155 102.745 138.200 102.800 138.200 H 105.800" stroke="rgb(0,0,0)" stroke-width="0.20" />
</g>
<g id="p-8" style="fill:none;stroke-linecap:round;stroke-linejoin:round;">
  <text alignment-baseline="hanging" font-size="4px" style="font-family: sans-serif ; font-weight: normal; font-style: normal; fill: rgb(255,0,0)" text-anchor="middle" transform="matrix( 1.000 0.000 0.000 1.000 236.500 76.700 )" /><path d="M 195.500 141.200 H 277.500 C 277.555 141.200 277.600 141.155 277.600 141.100 V 88.600 C 277.600 88.545 277.555 88.500 277.500 88.500 H 208.500 C 206.762 88.500 205.055 88.043 203.550 87.174 C 202.045 86.305 200.795 85.055 199.926 83.550 C 199.057 82.045 198.600 80.338 198.600 78.600 C 198.600 76.862 199.057 75.155 199.926 73.650 C 200.795 72.145 202.045 70.895 203.550 70.026 C 205.055 69.157 206.762 68.700 208.500 68.700 H 277.500 C 277.555 68.700 277.600 68.655 277.600 68.600 V 16.100 C 277.600 16.045 277.555 16.000 277.500 16.000 H 195.500 C 195.445 16.000 195.400 16.045 195.400 16.100 V 141.100 C 195.400 141.155 195.445 141.200 195.500 141.200" stroke="rgb(0,0,0)" stroke-width="0.20" />
</g>
<g id="p-9" style="fill:none;stroke-linecap:round;stroke-linejoin:round;">
  <text alignment-baseline="hanging" font-size="4px" style="font-family: sans-serif ; font-weight: normal; font-style: normal; fill: rgb(255,0,0)" text-anchor="middle" transform="matrix( 1.000 0.000 0.000 1.000 320.200 76.700 )" /><path d="M 279.200 141.200 H 361.200 C 361.255 141.200 361.300 141.155 361.300 141.100 V 88.600 C 361.300 88.545 361.255 88.500 361.200 88.500 H 292.200 C 290.462 88.500 288.755 88.043 287.250 87.174 C 285.745 86.305 284.495 85.055 283.626 83.550 C 282.757 82.045 282.300 80.338 282.300 78.600 C 282.300 76.862 282.757 75.155 283.626 73.650 C 284.495 72.145 285.745 70.895 287.250 70.026 C 288.755 69.157 290.462 68.700 292.200 68.700 H 361.200 C 361.255 68.700 361.300 68.655 361.300 68.600 V 16.100 C 361.300 16.045 361.255 16.000 361.200 16.000 H 279.200 C 279.145 16.000 279.100 16.045 279.100 16.100 V 141.100 C 279.100 141.155 279.145 141.200 279.200 141.200" stroke="rgb(0,0,0)" stroke-width="0.20" />
</g>
<g id="p-10" style="fill:none;stroke-linecap:round;stroke-linejoin:round;">
  <text alignment-baseline="hanging" font-size="4px" style="font-family: sans-serif ; font-weight: normal; font-style: normal; fill: rgb(255,0,0)" text-anchor="middle" transform="matrix( 1.000 0.000 0.000 1.000 365.900 76.700 )" /><path d="M 365.900 141.200 H 368.900 C 368.955 141.200 369.000 141.155 369.000 141.100 V 16.100 C 369.000 16.045 368.955 16.000 368.900 16.000 H 365.900 C 365.845 16.000 365.800 16.045 365.800 16.100 V 27.500 C 365.800 27.600 365.900 27.500 365.800 27.500 H 362.900 C 362.845 27.500 362.800 27.545 362.800 27.600 V 33.600 C 362.800 33.655 362.845 33.700 362.900 33.700 H 365.800 C 365.900 33.700 365.800 33.600 365.800 33.700 V 39.500 C 365.800 39.600 365.900 39.500 365.800 39.500 H 362.900 C 362.845 39.500 362.800 39.545 362.800 39.600 V 45.600 C 362.800 45.655 362.845 45.700 362.900 45.700 H 365.800 C 365.900 45.700 365.800 45.600 365.800 45.700 V 51.500 C 365.800 51.600 365.900 51.500 365.800 51.500 H 362.900 C 362.845 51.500 362.800 51.545 362.800 51.600 V 57.600 C 362.800 57.655 362.845 57.700 362.900 57.700 H 365.800 C 365.900 57.700 365.800 57.600 365.800 57.700 V 63.500 C 365.800 63.600 365.900 63.500 365.800 63.500 H 362.900 C 362.845 63.500 362.800 63.545 362.800 63.600 V 69.600 C 362.800 69.655 362.845 69.700 362.900 69.700 H 365.800 C 365.900 69.700 365.800 69.600 365.800 69.700 V 75.500 C 365.800 75.600 365.900 75.500 365.800 75.500 H 362.900 C 362.845 75.500 362.800 75.545 362.800 75.600 V 81.600 C 362.800 81.655 362.845 81.700 362.900 81.700 H 365.800 C 365.900 81.700 365.800 81.600 365.800 81.700 V 87.500 C 365.800 87.600 365.900 87.500 365.800 87.500 H 362.900 C 362.845 87.500 362.800 87.545 362.800 87.600 V 93.600 C 362.800 93.655 362.845 93.700 362.900 93.700 H 365.800 C 365.900 93.700 365.800 93.600 365.800 93.700 V 99.500 C 365.800 99.600 365.900 99.500 365.800 99.500 H 362.900 C 362.845 99.500 362.800 99.545 362.800 99.600 V 105.600 C 362.800 105.655 362.845 105.700 362.900 105.700 H 365.800 C 365.900 105.700 365.800 105.600 365.800 105.700 V 111.500 C 365.800 111.600 365.900 111.500 365.800 111.500 H 362.900 C 362.845 111.500 362.800 111.545 362.800 111.600 V 117.600 C 362.800 117.655 362.845 117.700 362.900 117.700 H 365.800 C 365.900 117.700 365.800 117.600 365.800 117.700 V 123.500 C 365.800 123.600 365.900 123.500 365.800 123.500 H 362.900 C 362.845 123.500 362.800 123.545 362.800 123.600 V 129.600 C 362.800 129.655 362.845 129.700 362.900 129.700 H 365.800 C 365.900 129.700 365.800 129.600 365.800 129.700 V 141.100 C 365.800 141.155 365.845 141.200 365.900 141.200" stroke="rgb(0,0,0)" stroke-width="0.20" />
</g>
<g id="p-11" style="fill:none;stroke-linecap:round;stroke-linejoin:round;">
  <text alignment-baseline="hanging" font-size="4px" style="font-family: sans-serif ; font-weight: normal; font-style: normal; fill: rgb(255,0,0)" text-anchor="middle" transform="matrix( 1.000 0.000 0.000 1.000 373.600 76.700 )" /><path d="M 370.600 141.200 H 373.600 C 373.655 141.200 373.700 141.155 373.700 141.100 V 129.700 C 373.700 129.600 373.600 129.700 373.700 129.700 H 376.600 C 376.655 129.700 376.700 129.655 376.700 129.600 V 123.600 C 376.700 123.545 376.655 123.500 376.600 123.500 H 373.700 C 373.600 123.500 373.700 123.600 373.700 123.500 V 117.700 C 373.700 117.600 373.600 117.700 373.700 117.700 H 376.600 C 376.655 117.700 376.700 117.655 376.700 117.600 V 111.600 C 376.700 111.545 376.655 111.500 376.600 111.500 H 373.700 C 373.600 111.500 373.700 111.600 373.700 111.500 V 105.700 C 373.700 105.600 373.600 105.700 373.700 105.700 H 376.600 C 376.655 105.700 376.700 105.655 376.700 105.600 V 99.600 C 376.700 99.545 376.655 99.500 376.600 99.500 H 373.700 C 373.600 99.500 373.700 99.600 373.700 99.500 V 93.700 C 373.700 93.600 373.600 93.700 373.700 93.700 H 376.600 C 376.655 93.700 376.700 93.655 376.700 93.600 V 87.600 C 376.700 87.545 376.655 87.500 376.600 87.500 H 373.700 C 373.600 87.500 373.700 87.600 373.700 87.500 V 81.700 C 373.700 81.600 373.600 81.700 373.700 81.700 H 376.600 C 376.655 81.700 376.700 81.655 376.700 81.600 V 75.600 C 376.700 75.545 376.655 75.500 376.600 75.500 H 373.700 C 373.600 75.500 373.700 75.600 373.700 75.500 V 69.700 C 373.700 69.600 373.600 69.700 373.700 69.700 H 376.600 C 376.655 69.700 376.700 69.655 376.700 69.600 V 63.600 C 376.700 63.545 376.655 63.500 376.600 63.500 H 373.700 C 373.600 63.500 373.700 63.600 373.700 63.500 V 57.700 C 373.700 57.600 373.600 57.700 373.700 57.700 H 376.600 C 376.655 57.700 376.700 57.655 376.700 57.600 V 51.600 C 376.700 51.545 376.655 51.500 376.600 51.500 H 373.700 C 373.600 51.500 373.700 51.600 373.700 51.500 V 45.700 C 373.700 45.600 373.600 45.700 373.700 45.700 H 376.600 C 376.655 45.700 376.700 45.655 376.700 45.600 V 39.600 C 376.700 39.545 376.655 39.500 376.600 39.500 H 373.700 C 373.600 39.500 373.700 39.600 373.700 39.500 V 33.700 C 373.700 33.600 373.600 33.700 373.700 33.700 H 376.600 C 376.655 33.700 376.700 33.655 376.700 33.600 V 27.600 C 376.700 27.545 376.655 27.500 376.600 27.500 H 373.700 C 373.600 27.500 373.700 27.600 373.700 27.500 V 16.100 C 373.700 16.045 373.655 16.000 373.600 16.000 H 370.600 C 370.545 16.000 370.500 16.045 370.500 16.100 V 141.100 C 370.500 141.155 370.545 141.200 370.600 141.200" stroke="rgb(0,0,0)" stroke-width="0.20" />
</g>
<g id="p-12" style="fill:none;stroke-linecap:round;stroke-linejoin:round;">
  <text alignment-baseline="hanging" font-size="4px" style="font-family: sans-serif ; font-weight: normal; font-style: normal; fill: rgb(255,0,0)" text-anchor="middle" transform="matrix( 1.000 0.000 0.000 1.000 420.800 73.700 )" /><path d="M 381.300 138.200 H 389.200 C 389.300 138.200 389.200 138.100 389.200 138.200 V 141.100 C 389.200 141.155 389.245 141.200 389.300 141.200 H 395.300 C 395.355 141.200 395.400 141.155 395.400 141.100 V 138.200 C 395.400 138.100 395.300 138.200 395.400 138.200 H 401.200 C 401.300 138.200 401.200 138.100 401.200 138.200 V 141.100 C 401.200 141.155 401.245 141.200 401.300 141.200 H 407.300 C 407.355 141.200 407.400 141.155 407.400 141.100 V 138.200 C 407.400 138.100 407.300 138.200 407.400 138.200 H 413.200 C 413.300 138.200 413.200 138.100 413.200 138.200 V 141.100 C 413.200 141.155 413.245 141.200 413.300 141.200 H 419.300 C 419.355 141.200 419.400 141.155 419.400 141.100 V 138.200 C 419.400 138.100 419.300 138.200 419.400 138.200 H 425.200 C 425.300 138.200 425.200 138.100 425.200 138.200 V 141.100 C 425.200 141.155 425.245 141.200 425.300 141.200 H 431.300 C 431.355 141.200 431.400 141.155 431.400 141.100 V 138.200 C 431.400 138.100 431.300 138.200 431.400 138.200 H 437.200 C 437.300 138.200 437.200 138.100 437.200 138.200 V 141.100 C 437.200 141.155 437.245 141.200 437.300 141.200 H 443.300 C 443.355 141.200 443.400 141.155 443.400 141.100 V 138.200 C 443.400 138.100 443.300 138.200 443.400 138.200 H 449.200 C 449.300 138.200 449.200 138.100 449.200 138.200 V 141.100 C 449.200 141.155 449.245 141.200 449.300 141.200 H 455.300 C 455.355 141.200 455.400 141.155 455.400 141.100 V 138.200 C 455.400 138.100 455.300 138.200 455.400 138.200 H 463.300 C 463.355 138.200 463.400 138.155 463.400 138.100 V 85.600 C 463.400 85.545 463.355 85.500 463.300 85.500 H 394.300 C 392.562 85.500 390.855 85.043 389.350 84.174 C 387.845 83.305 386.595 82.055 385.726 80.550 C 384.857 79.045 384.400 77.338 384.400 75.600 C 384.400 73.862 384.857 72.155 385.726 70.650 C 386.595 69.145 387.845 67.895 389.350 67.026 C 390.855 66.157 392.562 65.700 394.300 65.700 H 463.300 C 463.355 65.700 463.400 65.655 463.400 65.600 V 13.100 C 463.400 13.045 463.355 13.000 463.300 13.000 H 455.400 C 455.300 13.000 455.400 13.100 455.400 13.000 V 10.100 C 455.400 10.045 455.355 10.000 455.300 10.000 H 449.300 C 449.245 10.000 449.200 10.045 449.200 10.100 V 13.000 C 449.200 13.100 449.300 13.000 449.200 13.000 H 443.400 C 443.300 13.000 443.400 13.100 443.400 13.000 V 10.100 C 443.400 10.045 443.355 10.000 443.300 10.000 H 437.300 C 437.245 10.000 437.200 10.045 437.200 10.100 V 13.000 C 437.200 13.100 437.300 13.000 437.200 13.000 H 431.400 C 431.300 13.000 431.400 13.100 431.400 13.000 V 10.100 C 431.400 10.045 431.355 10.000 431.300 10.000 H 425.300 C 425.245 10.000 425.200 10.045 425.200 10.100 V 13.000 C 425.200 13.100 425.300 13.000 425.200 13.000 H 419.400 C 419.300 13.000 419.400 13.100 419.400 13.000 V 10.100 C 419.400 10.045 419.355 10.000 419.300 10.000 H 413.300 C 413.245 10.000 413.200 10.045 413.200 10.100 V 13.000 C 413.200 13.100 413.300 13.000 413.200 13.000 H 407.400 C 407.300 13.000 407.400 13.100 407.400 13.000 V 10.100 C 407.400 10.045 407.355 10.000 407.300 10.000 H 401.300 C 401.245 10.000 401.200 10.045 401.200 10.100 V 13.000 C 401.200 13.100 401.300 13.000 401.200 13.000 H 395.400 C 395.300 13.000 395.400 13.100 395.400 13.000 V 10.100 C 395.400 10.045 395.355 10.000 395.300 10.000 H 389.300 C 389.245 10.000 389.200 10.045 389.200 10.100 V 13.000 C 389.200 13.100 389.300 13.000 389.200 13.000 H 381.300 C 381.245 13.000 381.200 13.045 381.200 13.100 V 24.500 C 381.200 24.600 381.300 24.500 381.200 24.500 H 378.300 C 378.245 24.500 378.200 24.545 378.200 24.600 V 30.600 C 378.200 30.655 378.245 30.700 378.300 30.700 H 381.200 C 381.300 30.700 381.200 30.600 381.200 30.700 V 36.500 C 381.200 36.600 381.300 36.500 381.200 36.500 H 378.300 C 378.245 36.500 378.200 36.545 378.200 36.600 V 42.600 C 378.200 42.655 378.245 42.700 378.300 42.700 H 381.200 C 381.300 42.700 381.200 42.600 381.200 42.700 V 48.500 C 381.200 48.600 381.300 48.500 381.200 48.500 H 378.300 C 378.245 48.500 378.200 48.545 378.200 48.600 V 54.600 C 378.200 54.655 378.245 54.700 378.300 54.700 H 381.200 C 381.300 54.700 381.200 54.600 381.200 54.700 V 60.500 C 381.200 60.600 381.300 60.500 381.200 60.500 H 378.300 C 378.245 60.500 378.200 60.545 378.200 60.600 V 66.600 C 378.200 66.655 378.245 66.700 378.300 66.700 H 381.200 C 381.300 66.700 381.200 66.600 381.200 66.700 V 72.500 C 381.200 72.600 381.300 72.500 381.200 72.500 H 378.300 C 378.245 72.500 378.200 72.545 378.200 72.600 V 78.600 C 378.200 78.655 378.245 78.700 378.300 78.700 H 381.200 C 381.300 78.700 381.200 78.600 381.200 78.700 V 84.500 C 381.200 84.600 381.300 84.500 381.200 84.500 H 378.300 C 378.245 84.500 378.200 84.545 378.200 84.600 V 90.600 C 378.200 90.655 378.245 90.700 378.300 90.700 H 381.200 C 381.300 90.700 381.200 90.600 381.200 90.700 V 96.500 C 381.200 96.600 381.300 96.500 381.200 96.500 H 378.300 C 378.245 96.500 378.200 96.545 378.200 96.600 V 102.600 C 378.200 102.655 378.245 102.700 378.300 102.700 H 381.200 C 381.300 102.700 381.200 102.600 381.200 102.700 V 108.500 C 381.200 108.600 381.300 108.500 381.200 108.500 H 378.300 C 378.245 108.500 378.200 108.545 378.200 108.600 V 114.600 C 378.200 114.655 378.245 114.700 378.300 114.700 H 381.200 C 381.300 114.700 381.200 114.600 381.200 114.700 V 120.500 C 381.200 120.600 381.300 120.500 381.200 120.500 H 378.300 C 378.245 120.500 378.200 120.545 378.200 120.600 V 126.600 C 378.200 126.655 378.245 126.700 378.300 126.700 H 381.200 C 381.300 126.700 381.200 126.600 381.200 126.700 V 138.100 C 381.200 138.155 381.245 138.200 381.300 138.200" stroke="rgb(0,0,0)" stroke-width="0.20" />
</g>
<g id="p-13" style="fill:none;stroke-linecap:round;stroke-linejoin:round;">
  <text alignment-baseline="hanging" font-size="4px" style="font-family: sans-serif ; font-weight: normal; font-style: normal; fill: rgb(255,0,0)" text-anchor="middle" transform="matrix( 1.000 0.000 0.000 1.000 507.500 73.700 )" /><path d="M 468.000 138.200 H 475.900 C 476.000 138.200 475.900 138.100 475.900 138.200 V 141.100 C 475.900 141.155 475.945 141.200 476.000 141.200 H 482.000 C 482.055 141.200 482.100 141.155 482.100 141.100 V 138.200 C 482.100 138.100 482.000 138.200 482.100 138.200 H 487.900 C 488.000 138.200 487.900 138.100 487.900 138.200 V 141.100 C 487.900 141.155 487.945 141.200 488.000 141.200 H 494.000 C 494.055 141.200 494.100 141.155 494.100 141.100 V 138.200 C 494.100 138.100 494.000 138.200 494.100 138.200 H 499.900 C 500.000 138.200 499.900 138.100 499.900 138.200 V 141.100 C 499.900 141.155 499.945 141.200 500.000 141.200 H 506.000 C 506.055 141.200 506.100 141.155 506.100 141.100 V 138.200 C 506.100 138.100 506.000 138.200 506.100 138.200 H 511.900 C 512.000 138.200 511.900 138.100 511.900 138.200 V 141.100 C 511.900 141.155 511.945 141.200 512.000 141.200 H 518.000 C 518.055 141.200 518.100 141.155 518.100 141.100 V 138.200 C 518.100 138.100 518.000 138.200 518.100 138.200 H 523.900 C 524.000 138.200 523.900 138.100 523.900 138.200 V 141.100 C 523.900 141.155 523.945 141.200 524.000 141.200 H 530.000 C 530.055 141.200 530.100 141.155 530.100 141.100 V 138.200 C 530.100 138.100 530.000 138.200 530.100 138.200 H 535.900 C 536.000 138.200 535.900 138.100 535.900 138.200 V 141.100 C 535.900 141.155 535.945 141.200 536.000 141.200 H 542.000 C 542.055 141.200 542.100 141.155 542.100 141.100 V 138.200 C 542.100 138.100 542.000 138.200 542.100 138.200 H 550.000 C 550.055 138.200 550.100 138.155 550.100 138.100 V 85.600 C 550.100 85.545 550.055 85.500 550.000 85.500 H 481.000 C 479.262 85.500 477.555 85.043 476.050 84.174 C 474.545 83.305 473.295 82.055 472.426 80.550 C 471.557 79.045 471.100 77.338 471.100 75.600 C 471.100 73.862 471.557 72.155 472.426 70.650 C 473.295 69.145 474.545 67.895 476.050 67.026 C 477.555 66.157 479.262 65.700 481.000 65.700 H 550.000 C 550.055 65.700 550.100 65.655 550.100 65.600 V 13.100 C 550.100 13.045 550.055 13.000 550.000 13.000 H 542.100 C 542.000 13.000 542.100 13.100 542.100 13.000 V 10.100 C 542.100 10.045 542.055 10.000 542.000 10.000 H 536.000 C 535.945 10.000 535.900 10.045 535.900 10.100 V 13.000 C 535.900 13.100 536.000 13.000 535.900 13.000 H 530.100 C 530.000 13.000 530.100 13.100 530.100 13.000 V 10.100 C 530.100 10.045 530.055 10.000 530.000 10.000 H 524.000 C 523.945 10.000 523.900 10.045 523.900 10.100 V 13.000 C 523.900 13.100 524.000 13.000 523.900 13.000 H 518.100 C 518.000 13.000 518.100 13.100 518.100 13.000 V 10.100 C 518.100 10.045 518.055 10.000 518.000 10.000 H 512.000 C 511.945 10.000 511.900 10.045 511.900 10.100 V 13.000 C 511.900 13.100 512.000 13.000 511.900 13.000 H 506.100 C 506.000 13.000 506.100 13.100 506.100 13.000 V 10.100 C 506.100 10.045 506.055 10.000 506.000 10.000 H 500.000 C 499.945 10.000 499.900 10.045 499.900 10.100 V 13.000 C 499.900 13.100 500.000 13.000 499.900 13.000 H 494.100 C 494.000 13.000 494.100 13.100 494.100 13.000 V 10.100 C 494.100 10.045 494.055 10.000 494.000 10.000 H 488.000 C 487.945 10.000 487.900 10.045 487.900 10.100 V 13.000 C 487.900 13.100 488.000 13.000 487.900 13.000 H 482.100 C 482.000 13.000 482.100 13.100 482.100 13.000 V 10.100 C 482.100 10.045 482.055 10.000 482.000 10.000 H 476.000 C 475.945 10.000 475.900 10.045 475.900 10.100 V 13.000 C 475.900 13.100 476.000 13.000 475.900 13.000 H 468.000 C 467.945 13.000 467.900 13.045 467.900 13.100 V 24.500 C 467.900 24.600 468.000 24.500 467.900 24.500 H 465.000 C 464.945 24.500 464.900 24.545 464.900 24.600 V 30.600 C 464.900 30.655 464.945 30.700 465.000 30.700 H 467.900 C 468.000 30.700 467.900 30.600 467.900 30.700 V 36.500 C 467.900 36.600 468.000 36.500 467.900 36.500 H 465.000 C 464.945 36.500 464.900 36.545 464.900 36.600 V 42.600 C 464.900 42.655 464.945 42.700 465.000 42.700 H 467.900 C 468.000 42.700 467.900 42.600 467.900 42.700 V 48.500 C 467.900 48.600 468.000 48.500 467.900 48.500 H 465.000 C 464.945 48.500 464.900 48.545 464.900 48.600 V 54.600 C 464.900 54.655 464.945 54.700 465.000 54.700 H 467.900 C 468.000 54.700 467.900 54.600 467.900 54.700 V 60.500 C 467.900 60.600 468.000 60.500 467.900 60.500 H 465.000 C 464.945 60.500 464.900 60.545 464.900 60.600 V 66.600 C 464.900 66.655 464.945 66.700 465.000 66.700 H 467.900 C 468.000 66.700 467.900 66.600 467.900 66.700 V 72.500 C 467.900 72.600 468.000 72.500 467.900 72.500 H 465.000 C 464.945 72.500 464.900 72.545 464.900 72.600 V 78.600 C 464.900 78.655 464.945 78.700 465.000 78.700 H 467.900 C 468.000 78.700 467.900 78.600 467.900 78.700 V 84.500 C 467.900 84.600 468.000 84.500 467.900 84.500 H 465.000 C 464.945 84.500 464.900 84.545 464.900 84.600 V 90.600 C 464.900 90.655 464.945 90.700 465.000 90.700 H 467.900 C 468.000 90.700 467.900 90.600 467.900 90.700 V 96.500 C 467.900 96.600 468.000 96.500 467.900 96.500 H 465.000 C 464.945 96.500 464.900 96.545 464.900 96.600 V 102.600 C 464.900 102.655 464.945 102.700 465.000 102.700 H 467.900 C 468.000 102.700 467.900 102.600 467.900 102.700 V 108.500 C 467.900 108.600 468.000 108.500 467.900 108.500 H 465.000 C 464.945 108.500 464.900 108.545 464.900 108.600 V 114.600 C 464.900 114.655 464.945 114.700 465.000 114.700 H 467.900 C 468.000 114.700 467.900 114.600 467.900 114.700 V 120.500 C 467.900 120.600 468.000 120.500 467.900 120.500 H 465.000 C 464.945 120.500 464.900 120.545 464.900 120.600 V 126.600 C 464.900 126.655 464.945 126.700 465.000 126.700 H 467.900 C 468.000 126.700 467.900 126.600 467.900 126.700 V 138.100 C 467.900 138.155 467.945 138.200 468.000 138.200" stroke="rgb(0,0,0)" stroke-width="0.20" />
</g>
</svg>