<?xml version='1.0' encoding='utf-8'?>
<svg width="489.20mm" height="223.20mm" viewBox="0.0 0.0 489.20 223.20" xmlns="http://www.w3.org/2000/svg" xmlns:dc="http://purl.org/dc/elements/1.1/" xmlns:cc="http://creativecommons.org/ns#" xmlns:rdf="http://www.w3.org/1999/02/22-rdf-syntax-ns#" xmlns:svg="http://www.w3.org/2000/svg" xmlns:xlink="http://www.w3.org/1999/xlink" xmlns:inkscape="http://www.inkscape.org/namespaces/inkscape">
<!--
TwoPiece - A two piece box where top slips over the bottom half to form 
       the enclosure.
    



Set *hi* larger than *h* to leave gap between the inner and outer shell. This can be used to make opening the box easier. Set *hi* smaller to only have a small inner ridge that will allow the content to be more visible after opening.

![Bottom view](static/samples/TwoPiece2.jpg)



Created with Boxes.py (https://festi.info/boxes.py)
Creation date: 2023-02-01 21:09:52
Command line (remove spaces between dashes): boxes TwoPiece - -FingerJoint_angle=90.0 - -FingerJoint_style=rectangular - -FingerJoint_surroundingspaces=2.0 - -FingerJoint_bottom_lip=0.0 - -FingerJoint_edge_width=1.0 - -FingerJoint_extra_length=0.0 - -FingerJoint_finger=2.0 - -FingerJoint_play=0.0 - -FingerJoint_space=2.0 - -FingerJoint_width=1.0 - -x=83.0 - -y=123.0 - -h=23.0 - -hi=0.0 - -outside=0 - -play=0.15 - -thickness=3.0 - -format=svg - -tabs=0.0 - -debug=0 - -labels=0 - -labels=1 - -reference=100 - -inner_corners=loop - -burn=0.1
Url: http://localhost:8000/TwoPiece?FingerJoint_angle=90.0&FingerJoint_style=rectangular&FingerJoint_surroundingspaces=2.0&FingerJoint_bottom_lip=0.0&FingerJoint_edge_width=1.0&FingerJoint_extra_length=0.0&FingerJoint_finger=2.0&FingerJoint_play=0.0&FingerJoint_space=2.0&FingerJoint_width=1.0&x=83.0&y=123.0&h=23.0&hi=0.0&outside=0&play=0.15&thickness=3.0&format=svg&tabs=0.0&debug=0&labels=0&labels=1&reference=100&inner_corners=loop&burn=0.1&render=2
SettingsUrl: http://localhost:8000/TwoPiece?FingerJoint_angle=90.0&FingerJoint_style=rectangular&FingerJoint_surroundingspaces=2.0&FingerJoint_bottom_lip=0.0&FingerJoint_edge_width=1.0&FingerJoint_extra_length=0.0&FingerJoint_finger=2.0&FingerJoint_play=0.0&FingerJoint_space=2.0&FingerJoint_width=1.0&x=83.0&y=123.0&h=23.0&hi=0.0&outside=0&play=0.15&thickness=3.0&format=svg&tabs=0.0&debug=0&labels=0&labels=1&reference=100&inner_corners=loop&burn=0.1&render=2
-->
<title>TwoPiece</title>
<metadata>
<rdf:RDF><cc:Work>
<dc:title>Box - TwoPiece</dc:title>
<dc:date>2023-02-01 21:09:52</dc:date>
<dc:source>http://localhost:8000/TwoPiece?FingerJoint_angle=90.0&amp;FingerJoint_style=rectangular&amp;FingerJoint_surroundingspaces=2.0&amp;FingerJoint_bottom_lip=0.0&amp;FingerJoint_edge_width=1.0&amp;FingerJoint_extra_length=0.0&amp;FingerJoint_finger=2.0&amp;FingerJoint_play=0.0&amp;FingerJoint_space=2.0&amp;FingerJoint_width=1.0&amp;x=83.0&amp;y=123.0&amp;h=23.0&amp;hi=0.0&amp;outside=0&amp;play=0.15&amp;thickness=3.0&amp;format=svg&amp;tabs=0.0&amp;debug=0&amp;labels=0&amp;labels=1&amp;reference=100&amp;inner_corners=loop&amp;burn=0.1&amp;render=2</dc:source>
<dc:description>A two piece box where top slips over the bottom half to form 
       the enclosure.
    


Set *hi* larger than *h* to leave gap between the inner and outer shell. This can be used to make opening the box easier. Set *hi* smaller to only have a small inner ridge that will allow the content to be more visible after opening.

![Bottom view](static/samples/TwoPiece2.jpg)


Created with Boxes.py (https://festi.info/boxes.py)
Command line: boxes TwoPiece --FingerJoint_angle=90.0 --FingerJoint_style=rectangular --FingerJoint_surroundingspaces=2.0 --FingerJoint_bottom_lip=0.0 --FingerJoint_edge_width=1.0 --FingerJoint_extra_length=0.0 --FingerJoint_finger=2.0 --FingerJoint_play=0.0 --FingerJoint_space=2.0 --FingerJoint_width=1.0 --x=83.0 --y=123.0 --h=23.0 --hi=0.0 --outside=0 --play=0.15 --thickness=3.0 --format=svg --tabs=0.0 --debug=0 --labels=0 --labels=1 --reference=100 --inner_corners=loop --burn=0.1
Url: http://localhost:8000/TwoPiece?FingerJoint_angle=90.0&amp;FingerJoint_style=rectangular&amp;FingerJoint_surroundingspaces=2.0&amp;FingerJoint_bottom_lip=0.0&amp;FingerJoint_edge_width=1.0&amp;FingerJoint_extra_length=0.0&amp;FingerJoint_finger=2.0&amp;FingerJoint_play=0.0&amp;FingerJoint_space=2.0&amp;FingerJoint_width=1.0&amp;x=83.0&amp;y=123.0&amp;h=23.0&amp;hi=0.0&amp;outside=0&amp;play=0.15&amp;thickness=3.0&amp;format=svg&amp;tabs=0.0&amp;debug=0&amp;labels=0&amp;labels=1&amp;reference=100&amp;inner_corners=loop&amp;burn=0.1&amp;render=2
SettingsUrl: http://localhost:8000/TwoPiece?FingerJoint_angle=90.0&amp;FingerJoint_style=rectangular&amp;FingerJoint_surroundingspaces=2.0&amp;FingerJoint_bottom_lip=0.0&amp;FingerJoint_edge_width=1.0&amp;FingerJoint_extra_length=0.0&amp;FingerJoint_finger=2.0&amp;FingerJoint_play=0.0&amp;FingerJoint_space=2.0&amp;FingerJoint_width=1.0&amp;x=83.0&amp;y=123.0&amp;h=23.0&amp;hi=0.0&amp;outside=0&amp;play=0.15&amp;thickness=3.0&amp;format=svg&amp;tabs=0.0&amp;debug=0&amp;labels=0&amp;labels=1&amp;reference=100&amp;inner_corners=loop&amp;burn=0.1&amp;render=2
</dc:description>
</cc:Work></rdf:RDF></metadata>
<g id="p-0" style="fill:none;stroke-linecap:round;stroke-linejoin:round;">
  <path d="M 10.400 213.200 H 110.400 V 203.200 H 10.400 V 213.200 Z" stroke="rgb(0,0,0)" stroke-width="0.20" />
  <text transform="matrix( 1.000 0.000 0.000 1.000 60.400 204.200 )" style="font-family: sans-serif ; font-weight: normal; font-style: normal; fill: rgb(255,0,0)" font-size="8px" text-anchor="middle" dominant-baseline="hanging">100mm, burn:0.10mm</text>
</g>
<g id="p-1" style="fill:none;stroke-linecap:round;stroke-linejoin:round;">
  <path d="M 13.400 198.500 H 21.800 C 21.900 198.500 21.800 198.400 21.800 198.500 V 201.400 C 21.800 201.455 21.845 201.500 21.900 201.500 H 27.900 C 27.955 201.500 28.000 201.455 28.000 201.400 V 198.500 C 28.000 198.400 27.900 198.500 28.000 198.500 H 33.800 C 33.900 198.500 33.800 198.400 33.800 198.500 V 201.400 C 33.800 201.455 33.845 201.500 33.900 201.500 H 39.900 C 39.955 201.500 40.000 201.455 40.000 201.400 V 198.500 C 40.000 198.400 39.900 198.500 40.000 198.500 H 45.800 C 45.900 198.500 45.800 198.400 45.800 198.500 V 201.400 C 45.800 201.455 45.845 201.500 45.900 201.500 H 51.900 C 51.955 201.500 52.000 201.455 52.000 201.400 V 198.500 C 52.000 198.400 51.900 198.500 52.000 198.500 H 57.800 C 57.900 198.500 57.800 198.400 57.800 198.500 V 201.400 C 57.800 201.455 57.845 201.500 57.900 201.500 H 63.900 C 63.955 201.500 64.000 201.455 64.000 201.400 V 198.500 C 64.000 198.400 63.900 198.500 64.000 198.500 H 69.800 C 69.900 198.500 69.800 198.400 69.800 198.500 V 201.400 C 69.800 201.455 69.845 201.500 69.900 201.500 H 75.900 C 75.955 201.500 76.000 201.455 76.000 201.400 V 198.500 C 76.000 198.400 75.900 198.500 76.000 198.500 H 81.800 C 81.900 198.500 81.800 198.400 81.800 198.500 V 201.400 C 81.800 201.455 81.845 201.500 81.900 201.500 H 87.900 C 87.955 201.500 88.000 201.455 88.000 201.400 V 198.500 C 88.000 198.400 87.900 198.500 88.000 198.500 H 96.400 H 99.400 C 99.455 198.500 99.500 198.455 99.500 198.400 V 189.900 C 99.500 189.845 99.455 189.800 99.400 189.800 H 96.500 C 96.400 189.800 96.500 189.900 96.500 189.800 V 184.000 C 96.500 183.900 96.400 184.000 96.500 184.000 H 99.400 C 99.455 184.000 99.500 183.955 99.500 183.900 V 175.400 C 99.500 175.345 99.455 175.300 99.400 175.300 H 96.400 H 13.400 H 10.400 C 10.345 175.300 10.300 175.345 10.300 175.400 V 183.900 C 10.300 183.955 10.345 184.000 10.400 184.000 H 13.300 C 13.400 184.000 13.300 183.900 13.300 184.000 V 189.800 C 13.300 189.900 13.400 189.800 13.300 189.800 H 10.400 C 10.345 189.800 10.300 189.845 10.300 189.900 V 198.400 C 10.300 198.455 10.345 198.500 10.400 198.500 H 13.400 Z" stroke="rgb(0,0,0)" stroke-width="0.20" />
</g>
<g id="p-2" style="fill:none;stroke-linecap:round;stroke-linejoin:round;">
  <path d="M 104.100 198.500 H 114.500 C 114.600 198.500 114.500 198.400 114.500 198.500 V 201.400 C 114.500 201.455 114.545 201.500 114.600 201.500 H 120.600 C 120.655 201.500 120.700 201.455 120.700 201.400 V 198.500 C 120.700 198.400 120.600 198.500 120.700 198.500 H 126.500 C 126.600 198.500 126.500 198.400 126.500 198.500 V 201.400 C 126.500 201.455 126.545 201.500 126.600 201.500 H 132.600 C 132.655 201.500 132.700 201.455 132.700 201.400 V 198.500 C 132.700 198.400 132.600 198.500 132.700 198.500 H 138.500 C 138.600 198.500 138.500 198.400 138.500 198.500 V 201.400 C 138.500 201.455 138.545 201.500 138.600 201.500 H 144.600 C 144.655 201.500 144.700 201.455 144.700 201.400 V 198.500 C 144.700 198.400 144.600 198.500 144.700 198.500 H 150.500 C 150.600 198.500 150.500 198.400 150.500 198.500 V 201.400 C 150.500 201.455 150.545 201.500 150.600 201.500 H 156.600 C 156.655 201.500 156.700 201.455 156.700 201.400 V 198.500 C 156.700 198.400 156.600 198.500 156.700 198.500 H 162.500 C 162.600 198.500 162.500 198.400 162.500 198.500 V 201.400 C 162.500 201.455 162.545 201.500 162.600 201.500 H 168.600 C 168.655 201.500 168.700 201.455 168.700 201.400 V 198.500 C 168.700 198.400 168.600 198.500 168.700 198.500 H 174.500 C 174.600 198.500 174.500 198.400 174.500 198.500 V 201.400 C 174.500 201.455 174.545 201.500 174.600 201.500 H 180.600 C 180.655 201.500 180.700 201.455 180.700 201.400 V 198.500 C 180.700 198.400 180.600 198.500 180.700 198.500 H 186.500 C 186.600 198.500 186.500 198.400 186.500 198.500 V 201.400 C 186.500 201.455 186.545 201.500 186.600 201.500 H 192.600 C 192.655 201.500 192.700 201.455 192.700 201.400 V 198.500 C 192.700 198.400 192.600 198.500 192.700 198.500 H 198.500 C 198.600 198.500 198.500 198.400 198.500 198.500 V 201.400 C 198.500 201.455 198.545 201.500 198.600 201.500 H 204.600 C 204.655 201.500 204.700 201.455 204.700 201.400 V 198.500 C 204.700 198.400 204.600 198.500 204.700 198.500 H 210.500 C 210.600 198.500 210.500 198.400 210.500 198.500 V 201.400 C 210.500 201.455 210.545 201.500 210.600 201.500 H 216.600 C 216.655 201.500 216.700 201.455 216.700 201.400 V 198.500 C 216.700 198.400 216.600 198.500 216.700 198.500 H 227.100 C 227.155 198.500 227.200 198.455 227.200 198.400 V 190.000 C 227.200 189.900 227.100 190.000 227.200 190.000 H 230.100 C 230.155 190.000 230.200 189.955 230.200 189.900 V 183.900 C 230.200 183.845 230.155 183.800 230.100 183.800 H 227.200 C 227.100 183.800 227.200 183.900 227.200 183.800 V 175.400 C 227.200 175.345 227.155 175.300 227.100 175.300 H 104.100 C 104.045 175.300 104.000 175.345 104.000 175.400 V 183.800 C 104.000 183.900 104.100 183.800 104.000 183.800 H 101.100 C 101.045 183.800 101.000 183.845 101.000 183.900 V 189.900 C 101.000 189.955 101.045 190.000 101.100 190.000 H 104.000 C 104.100 190.000 104.000 189.900 104.000 190.000 V 198.400 C 104.000 198.455 104.045 198.500 104.100 198.500 Z" stroke="rgb(0,0,0)" stroke-width="0.20" />
</g>
<g id="p-3" style="fill:none;stroke-linecap:round;stroke-linejoin:round;">
  <path d="M 234.800 198.500 H 243.200 C 243.300 198.500 243.200 198.400 243.200 198.500 V 201.400 C 243.200 201.455 243.245 201.500 243.300 201.500 H 249.300 C 249.355 201.500 249.400 201.455 249.400 201.400 V 198.500 C 249.400 198.400 249.300 198.500 249.400 198.500 H 255.200 C 255.300 198.500 255.200 198.400 255.200 198.500 V 201.400 C 255.200 201.455 255.245 201.500 255.300 201.500 H 261.300 C 261.355 201.500 261.400 201.455 261.400 201.400 V 198.500 C 261.400 198.400 261.300 198.500 261.400 198.500 H 267.200 C 267.300 198.500 267.200 198.400 267.200 198.500 V 201.400 C 267.200 201.455 267.245 201.500 267.300 201.500 H 273.300 C 273.355 201.500 273.400 201.455 273.400 201.400 V 198.500 C 273.400 198.400 273.300 198.500 273.400 198.500 H 279.200 C 279.300 198.500 279.200 198.400 279.200 198.500 V 201.400 C 279.200 201.455 279.245 201.500 279.300 201.500 H 285.300 C 285.355 201.500 285.400 201.455 285.400 201.400 V 198.500 C 285.400 198.400 285.300 198.500 285.400 198.500 H 291.200 C 291.300 198.500 291.200 198.400 291.200 198.500 V 201.400 C 291.200 201.455 291.245 201.500 291.300 201.500 H 297.300 C 297.355 201.500 297.400 201.455 297.400 201.400 V 198.500 C 297.400 198.400 297.300 198.500 297.400 198.500 H 303.200 C 303.300 198.500 303.200 198.400 303.200 198.500 V 201.400 C 303.200 201.455 303.245 201.500 303.300 201.500 H 309.300 C 309.355 201.500 309.400 201.455 309.400 201.400 V 198.500 C 309.400 198.400 309.300 198.500 309.400 198.500 H 317.800 H 320.800 C 320.855 198.500 320.900 198.455 320.900 198.400 V 189.900 C 320.900 189.845 320.855 189.800 320.800 189.800 H 317.900 C 317.800 189.800 317.900 189.900 317.900 189.800 V 184.000 C 317.900 183.900 317.800 184.000 317.900 184.000 H 320.800 C 320.855 184.000 320.900 183.955 320.900 183.900 V 175.400 C 320.900 175.345 320.855 175.300 320.800 175.300 H 317.800 H 234.800 H 231.800 C 231.745 175.300 231.700 175.345 231.700 175.400 V 183.900 C 231.700 183.955 231.745 184.000 231.800 184.000 H 234.700 C 234.800 184.000 234.700 183.900 234.700 184.000 V 189.800 C 234.700 189.900 234.800 189.800 234.700 189.800 H 231.800 C 231.745 189.800 231.700 189.845 231.700 189.900 V 198.400 C 231.700 198.455 231.745 198.500 231.800 198.500 H 234.800 Z" stroke="rgb(0,0,0)" stroke-width="0.20" />
</g>
<g id="p-4" style="fill:none;stroke-linecap:round;stroke-linejoin:round;">
  <path d="M 325.500 198.500 H 335.900 C 336.000 198.500 335.900 198.400 335.900 198.500 V 201.400 C 335.900 201.455 335.945 201.500 336.000 201.500 H 342.000 C 342.055 201.500 342.100 201.455 342.100 201.400 V 198.500 C 342.100 198.400 342.000 198.500 342.100 198.500 H 347.900 C 348.000 198.500 347.900 198.400 347.900 198.500 V 201.400 C 347.900 201.455 347.945 201.500 348.000 201.500 H 354.000 C 354.055 201.500 354.100 201.455 354.100 201.400 V 198.500 C 354.100 198.400 354.000 198.500 354.100 198.500 H 359.900 C 360.000 198.500 359.900 198.400 359.900 198.500 V 201.400 C 359.900 201.455 359.945 201.500 360.000 201.500 H 366.000 C 366.055 201.500 366.100 201.455 366.100 201.400 V 198.500 C 366.100 198.400 366.000 198.500 366.100 198.500 H 371.900 C 372.000 198.500 371.900 198.400 371.900 198.500 V 201.400 C 371.900 201.455 371.945 201.500 372.000 201.500 H 378.000 C 378.055 201.500 378.100 201.455 378.100 201.400 V 198.500 C 378.100 198.400 378.000 198.500 378.100 198.500 H 383.900 C 384.000 198.500 383.900 198.400 383.900 198.500 V 201.400 C 383.900 201.455 383.945 201.500 384.000 201.500 H 390.000 C 390.055 201.500 390.100 201.455 390.100 201.400 V 198.500 C 390.100 198.400 390.000 198.500 390.100 198.500 H 395.900 C 396.000 198.500 395.900 198.400 395.900 198.500 V 201.400 C 395.900 201.455 395.945 201.500 396.000 201.500 H 402.000 C 402.055 201.500 402.100 201.455 402.100 201.400 V 198.500 C 402.100 198.400 402.000 198.500 402.100 198.500 H 407.900 C 408.000 198.500 407.900 198.400 407.900 198.500 V 201.400 C 407.900 201.455 407.945 201.500 408.000 201.500 H 414.000 C 414.055 201.500 414.100 201.455 414.100 201.400 V 198.500 C 414.100 198.400 414.000 198.500 414.100 198.500 H 419.900 C 420.000 198.500 419.900 198.400 419.900 198.500 V 201.400 C 419.900 201.455 419.945 201.500 420.000 201.500 H 426.000 C 426.055 201.500 426.100 201.455 426.100 201.400 V 198.500 C 426.100 198.400 426.000 198.500 426.100 198.500 H 431.900 C 432.000 198.500 431.900 198.400 431.900 198.500 V 201.400 C 431.900 201.455 431.945 201.500 432.000 201.500 H 438.000 C 438.055 201.500 438.100 201.455 438.100 201.400 V 198.500 C 438.100 198.400 438.000 198.500 438.100 198.500 H 448.500 C 448.555 198.500 448.600 198.455 448.600 198.400 V 190.000 C 448.600 189.900 448.500 190.000 448.600 190.000 H 451.500 C 451.555 190.000 451.600 189.955 451.600 189.900 V 183.900 C 451.600 183.845 451.555 183.800 451.500 183.800 H 448.600 C 448.500 183.800 448.600 183.900 448.600 183.800 V 175.400 C 448.600 175.345 448.555 175.300 448.500 175.300 H 325.500 C 325.445 175.300 325.400 175.345 325.400 175.400 V 183.800 C 325.400 183.900 325.500 183.800 325.400 183.800 H 322.500 C 322.445 183.800 322.400 183.845 322.400 183.900 V 189.900 C 322.400 189.955 322.445 190.000 322.500 190.000 H 325.400 C 325.500 190.000 325.400 189.900 325.400 190.000 V 198.400 C 325.400 198.455 325.445 198.500 325.500 198.500 Z" stroke="rgb(0,0,0)" stroke-width="0.20" />
</g>
<g id="p-5" style="fill:none;stroke-linecap:round;stroke-linejoin:round;">
  <path d="M 13.400 170.800 H 25.250 C 25.350 170.800 25.250 170.700 25.250 170.800 V 173.700 C 25.250 173.755 25.295 173.800 25.350 173.800 H 31.350 C 31.405 173.800 31.450 173.755 31.450 173.700 V 170.800 C 31.450 170.700 31.350 170.800 31.450 170.800 H 37.250 C 37.350 170.800 37.250 170.700 37.250 170.800 V 173.700 C 37.250 173.755 37.295 173.800 37.350 173.800 H 43.350 C 43.405 173.800 43.450 173.755 43.450 173.700 V 170.800 C 43.450 170.700 43.350 170.800 43.450 170.800 H 49.250 C 49.350 170.800 49.250 170.700 49.250 170.800 V 173.700 C 49.250 173.755 49.295 173.800 49.350 173.800 H 55.350 C 55.405 173.800 55.450 173.755 55.450 173.700 V 170.800 C 55.450 170.700 55.350 170.800 55.450 170.800 H 61.250 C 61.350 170.800 61.250 170.700 61.250 170.800 V 173.700 C 61.250 173.755 61.295 173.800 61.350 173.800 H 67.350 C 67.405 173.800 67.450 173.755 67.450 173.700 V 170.800 C 67.450 170.700 67.350 170.800 67.450 170.800 H 73.250 C 73.350 170.800 73.250 170.700 73.250 170.800 V 173.700 C 73.250 173.755 73.295 173.800 73.350 173.800 H 79.350 C 79.405 173.800 79.450 173.755 79.450 173.700 V 170.800 C 79.450 170.700 79.350 170.800 79.450 170.800 H 85.250 C 85.350 170.800 85.250 170.700 85.250 170.800 V 173.700 C 85.250 173.755 85.295 173.800 85.350 173.800 H 91.350 C 91.405 173.800 91.450 173.755 91.450 173.700 V 170.800 C 91.450 170.700 91.350 170.800 91.450 170.800 H 103.300 H 106.300 C 106.355 170.800 106.400 170.755 106.400 170.700 V 162.200 C 106.400 162.145 106.355 162.100 106.300 162.100 H 103.400 C 103.300 162.100 103.400 162.200 103.400 162.100 V 156.300 C 103.400 156.200 103.300 156.300 103.400 156.300 H 106.300 C 106.355 156.300 106.400 156.255 106.400 156.200 V 147.700 C 106.400 147.645 106.355 147.600 106.300 147.600 H 103.300 H 13.400 H 10.400 C 10.345 147.600 10.300 147.645 10.300 147.700 V 156.200 C 10.300 156.255 10.345 156.300 10.400 156.300 H 13.300 C 13.400 156.300 13.300 156.200 13.300 156.300 V 162.100 C 13.300 162.200 13.400 162.100 13.300 162.100 H 10.400 C 10.345 162.100 10.300 162.145 10.300 162.200 V 170.700 C 10.300 170.755 10.345 170.800 10.400 170.800 H 13.400 Z" stroke="rgb(0,0,0)" stroke-width="0.20" />
</g>
<g id="p-6" style="fill:none;stroke-linecap:round;stroke-linejoin:round;">
  <path d="M 111.000 170.800 H 118.850 C 118.950 170.800 118.850 170.700 118.850 170.800 V 173.700 C 118.850 173.755 118.895 173.800 118.950 173.800 H 124.950 C 125.005 173.800 125.050 173.755 125.050 173.700 V 170.800 C 125.050 170.700 124.950 170.800 125.050 170.800 H 130.850 C 130.950 170.800 130.850 170.700 130.850 170.800 V 173.700 C 130.850 173.755 130.895 173.800 130.950 173.800 H 136.950 C 137.005 173.800 137.050 173.755 137.050 173.700 V 170.800 C 137.050 170.700 136.950 170.800 137.050 170.800 H 142.850 C 142.950 170.800 142.850 170.700 142.850 170.800 V 173.700 C 142.850 173.755 142.895 173.800 142.950 173.800 H 148.950 C 149.005 173.800 149.050 173.755 149.050 173.700 V 170.800 C 149.050 170.700 148.950 170.800 149.050 170.800 H 154.850 C 154.950 170.800 154.850 170.700 154.850 170.800 V 173.700 C 154.850 173.755 154.895 173.800 154.950 173.800 H 160.950 C 161.005 173.800 161.050 173.755 161.050 173.700 V 170.800 C 161.050 170.700 160.950 170.800 161.050 170.800 H 166.850 C 166.950 170.800 166.850 170.700 166.850 170.800 V 173.700 C 166.850 173.755 166.895 173.800 166.950 173.800 H 172.950 C 173.005 173.800 173.050 173.755 173.050 173.700 V 170.800 C 173.050 170.700 172.950 170.800 173.050 170.800 H 178.850 C 178.950 170.800 178.850 170.700 178.850 170.800 V 173.700 C 178.850 173.755 178.895 173.800 178.950 173.800 H 184.950 C 185.005 173.800 185.050 173.755 185.050 173.700 V 170.800 C 185.050 170.700 184.950 170.800 185.050 170.800 H 190.850 C 190.950 170.800 190.850 170.700 190.850 170.800 V 173.700 C 190.850 173.755 190.895 173.800 190.950 173.800 H 196.950 C 197.005 173.800 197.050 173.755 197.050 173.700 V 170.800 C 197.050 170.700 196.950 170.800 197.050 170.800 H 202.850 C 202.950 170.800 202.850 170.700 202.850 170.800 V 173.700 C 202.850 173.755 202.895 173.800 202.950 173.800 H 208.950 C 209.005 173.800 209.050 173.755 209.050 173.700 V 170.800 C 209.050 170.700 208.950 170.800 209.050 170.800 H 214.850 C 214.950 170.800 214.850 170.700 214.850 170.800 V 173.700 C 214.850 173.755 214.895 173.800 214.950 173.800 H 220.950 C 221.005 173.800 221.050 173.755 221.050 173.700 V 170.800 C 221.050 170.700 220.950 170.800 221.050 170.800 H 226.850 C 226.950 170.800 226.850 170.700 226.850 170.800 V 173.700 C 226.850 173.755 226.895 173.800 226.950 173.800 H 232.950 C 233.005 173.800 233.050 173.755 233.050 173.700 V 170.800 C 233.050 170.700 232.950 170.800 233.050 170.800 H 240.900 C 240.955 170.800 241.000 170.755 241.000 170.700 V 162.300 C 241.000 162.200 240.900 162.300 241.000 162.300 H 243.900 C 243.955 162.300 244.000 162.255 244.000 162.200 V 156.200 C 244.000 156.145 243.955 156.100 243.900 156.100 H 241.000 C 240.900 156.100 241.000 156.200 241.000 156.100 V 147.700 C 241.000 147.645 240.955 147.600 240.900 147.600 H 111.000 C 110.945 147.600 110.900 147.645 110.900 147.700 V 156.100 C 110.900 156.200 111.000 156.100 110.900 156.100 H 108.000 C 107.945 156.100 107.900 156.145 107.900 156.200 V 162.200 C 107.900 162.255 107.945 162.300 108.000 162.300 H 110.900 C 111.000 162.300 110.900 162.200 110.900 162.300 V 170.700 C 110.900 170.755 110.945 170.800 111.000 170.800 Z" stroke="rgb(0,0,0)" stroke-width="0.20" />
</g>
<g id="p-7" style="fill:none;stroke-linecap:round;stroke-linejoin:round;">
  <path d="M 248.600 170.800 H 260.450 C 260.550 170.800 260.450 170.700 260.450 170.800 V 173.700 C 260.450 173.755 260.495 173.800 260.550 173.800 H 266.550 C 266.605 173.800 266.650 173.755 266.650 173.700 V 170.800 C 266.650 170.700 266.550 170.800 266.650 170.800 H 272.450 C 272.550 170.800 272.450 170.700 272.450 170.800 V 173.700 C 272.450 173.755 272.495 173.800 272.550 173.800 H 278.550 C 278.605 173.800 278.650 173.755 278.650 173.700 V 170.800 C 278.650 170.700 278.550 170.800 278.650 170.800 H 284.450 C 284.550 170.800 284.450 170.700 284.450 170.800 V 173.700 C 284.450 173.755 284.495 173.800 284.550 173.800 H 290.550 C 290.605 173.800 290.650 173.755 290.650 173.700 V 170.800 C 290.650 170.700 290.550 170.800 290.650 170.800 H 296.450 C 296.550 170.800 296.450 170.700 296.450 170.800 V 173.700 C 296.450 173.755 296.495 173.800 296.550 173.800 H 302.550 C 302.605 173.800 302.650 173.755 302.650 173.700 V 170.800 C 302.650 170.700 302.550 170.800 302.650 170.800 H 308.450 C 308.550 170.800 308.450 170.700 308.450 170.800 V 173.700 C 308.450 173.755 308.495 173.800 308.550 173.800 H 314.550 C 314.605 173.800 314.650 173.755 314.650 173.700 V 170.800 C 314.650 170.700 314.550 170.800 314.650 170.800 H 320.450 C 320.550 170.800 320.450 170.700 320.450 170.800 V 173.700 C 320.450 173.755 320.495 173.800 320.550 173.800 H 326.550 C 326.605 173.800 326.650 173.755 326.650 173.700 V 170.800 C 326.650 170.700 326.550 170.800 326.650 170.800 H 338.500 H 341.500 C 341.555 170.800 341.600 170.755 341.600 170.700 V 162.200 C 341.600 162.145 341.555 162.100 341.500 162.100 H 338.600 C 338.500 162.100 338.600 162.200 338.600 162.100 V 156.300 C 338.600 156.200 338.500 156.300 338.600 156.300 H 341.500 C 341.555 156.300 341.600 156.255 341.600 156.200 V 147.700 C 341.600 147.645 341.555 147.600 341.500 147.600 H 338.500 H 248.600 H 245.600 C 245.545 147.600 245.500 147.645 245.500 147.700 V 156.200 C 245.500 156.255 245.545 156.300 245.600 156.300 H 248.500 C 248.600 156.300 248.500 156.200 248.500 156.300 V 162.100 C 248.500 162.200 248.600 162.100 248.500 162.100 H 245.600 C 245.545 162.100 245.500 162.145 245.500 162.200 V 170.700 C 245.500 170.755 245.545 170.800 245.600 170.800 H 248.600 Z" stroke="rgb(0,0,0)" stroke-width="0.20" />
</g>
<g id="p-8" style="fill:none;stroke-linecap:round;stroke-linejoin:round;">
  <path d="M 346.200 170.800 H 354.050 C 354.150 170.800 354.050 170.700 354.050 170.800 V 173.700 C 354.050 173.755 354.095 173.800 354.150 173.800 H 360.150 C 360.205 173.800 360.250 173.755 360.250 173.700 V 170.800 C 360.250 170.700 360.150 170.800 360.250 170.800 H 366.050 C 366.150 170.800 366.050 170.700 366.050 170.800 V 173.700 C 366.050 173.755 366.095 173.800 366.150 173.800 H 372.150 C 372.205 173.800 372.250 173.755 372.250 173.700 V 170.800 C 372.250 170.700 372.150 170.800 372.250 170.800 H 378.050 C 378.150 170.800 378.050 170.700 378.050 170.800 V 173.700 C 378.050 173.755 378.095 173.800 378.150 173.800 H 384.150 C 384.205 173.800 384.250 173.755 384.250 173.700 V 170.800 C 384.250 170.700 384.150 170.800 384.250 170.800 H 390.050 C 390.150 170.800 390.050 170.700 390.050 170.800 V 173.700 C 390.050 173.755 390.095 173.800 390.150 173.800 H 396.150 C 396.205 173.800 396.250 173.755 396.250 173.700 V 170.800 C 396.250 170.700 396.150 170.800 396.250 170.800 H 402.050 C 402.150 170.800 402.050 170.700 402.050 170.800 V 173.700 C 402.050 173.755 402.095 173.800 402.150 173.800 H 408.150 C 408.205 173.800 408.250 173.755 408.250 173.700 V 170.800 C 408.250 170.700 408.150 170.800 408.250 170.800 H 414.050 C 414.150 170.800 414.050 170.700 414.050 170.800 V 173.700 C 414.050 173.755 414.095 173.800 414.150 173.800 H 420.150 C 420.205 173.800 420.250 173.755 420.250 173.700 V 170.800 C 420.250 170.700 420.150 170.800 420.250 170.800 H 426.050 C 426.150 170.800 426.050 170.700 426.050 170.800 V 173.700 C 426.050 173.755 426.095 173.800 426.150 173.800 H 432.150 C 432.205 173.800 432.250 173.755 432.250 173.700 V 170.800 C 432.250 170.700 432.150 170.800 432.250 170.800 H 438.050 C 438.150 170.800 438.050 170.700 438.050 170.800 V 173.700 C 438.050 173.755 438.095 173.800 438.150 173.800 H 444.150 C 444.205 173.800 444.250 173.755 444.250 173.700 V 170.800 C 444.250 170.700 444.150 170.800 444.250 170.800 H 450.050 C 450.150 170.800 450.050 170.700 450.050 170.800 V 173.700 C 450.050 173.755 450.095 173.800 450.150 173.800 H 456.150 C 456.205 173.800 456.250 173.755 456.250 173.700 V 170.800 C 456.250 170.700 456.150 170.800 456.250 170.800 H 462.050 C 462.150 170.800 462.050 170.700 462.050 170.800 V 173.700 C 462.050 173.755 462.095 173.800 462.150 173.800 H 468.150 C 468.205 173.800 468.250 173.755 468.250 173.700 V 170.800 C 468.250 170.700 468.150 170.800 468.250 170.800 H 476.100 C 476.155 170.800 476.200 170.755 476.200 170.700 V 162.300 C 476.200 162.200 476.100 162.300 476.200 162.300 H 479.100 C 479.155 162.300 479.200 162.255 479.200 162.200 V 156.200 C 479.200 156.145 479.155 156.100 479.100 156.100 H 476.200 C 476.100 156.100 476.200 156.200 476.200 156.100 V 147.700 C 476.200 147.645 476.155 147.600 476.100 147.600 H 346.200 C 346.145 147.600 346.100 147.645 346.100 147.700 V 156.100 C 346.100 156.200 346.200 156.100 346.100 156.100 H 343.200 C 343.145 156.100 343.100 156.145 343.100 156.200 V 162.200 C 343.100 162.255 343.145 162.300 343.200 162.300 H 346.100 C 346.200 162.300 346.100 162.200 346.100 162.300 V 170.700 C 346.100 170.755 346.145 170.800 346.200 170.800 Z" stroke="rgb(0,0,0)" stroke-width="0.20" />
</g>
<g id="p-9" style="fill:none;stroke-linecap:round;stroke-linejoin:round;">
  <path d="M 28.350 142.450 H 25.450 C 25.350 142.450 25.450 142.550 25.450 142.450 V 139.650 C 25.450 139.550 25.350 139.650 25.450 139.650 H 31.250 C 31.350 139.650 31.250 139.550 31.250 139.650 V 142.450 C 31.250 142.550 31.350 142.450 31.250 142.450 H 28.350 Z" stroke="rgb(0,0,255)" stroke-width="0.20" />
  <path d="M 40.350 142.450 H 37.450 C 37.350 142.450 37.450 142.550 37.450 142.450 V 139.650 C 37.450 139.550 37.350 139.650 37.450 139.650 H 43.250 C 43.350 139.650 43.250 139.550 43.250 139.650 V 142.450 C 43.250 142.550 43.350 142.450 43.250 142.450 H 40.350 Z" stroke="rgb(0,0,255)" stroke-width="0.20" />
  <path d="M 52.350 142.450 H 49.450 C 49.350 142.450 49.450 142.550 49.450 142.450 V 139.650 C 49.450 139.550 49.350 139.650 49.450 139.650 H 55.250 C 55.350 139.650 55.250 139.550 55.250 139.650 V 142.450 C 55.250 142.550 55.350 142.450 55.250 142.450 H 52.350 Z" stroke="rgb(0,0,255)" stroke-width="0.20" />
  <path d="M 64.350 142.450 H 61.450 C 61.350 142.450 61.450 142.550 61.450 142.450 V 139.650 C 61.450 139.550 61.350 139.650 61.450 139.650 H 67.250 C 67.350 139.650 67.250 139.550 67.250 139.650 V 142.450 C 67.250 142.550 67.350 142.450 67.250 142.450 H 64.350 Z" stroke="rgb(0,0,255)" stroke-width="0.20" />
  <path d="M 76.350 142.450 H 73.450 C 73.350 142.450 73.450 142.550 73.450 142.450 V 139.650 C 73.450 139.550 73.350 139.650 73.450 139.650 H 79.250 C 79.350 139.650 79.250 139.550 79.250 139.650 V 142.450 C 79.250 142.550 79.350 142.450 79.250 142.450 H 76.350 Z" stroke="rgb(0,0,255)" stroke-width="0.20" />
  <path d="M 88.350 142.450 H 85.450 C 85.350 142.450 85.450 142.550 85.450 142.450 V 139.650 C 85.450 139.550 85.350 139.650 85.450 139.650 H 91.250 C 91.350 139.650 91.250 139.550 91.250 139.650 V 142.450 C 91.250 142.550 91.350 142.450 91.250 142.450 H 88.350 Z" stroke="rgb(0,0,255)" stroke-width="0.20" />
  <path d="M 16.850 146.100 H 99.850 H 106.300 C 106.355 146.100 106.400 146.055 106.400 146.000 V 139.550 V 16.550 V 10.100 C 106.400 10.045 106.355 10.000 106.300 10.000 H 99.850 H 16.850 H 10.400 C 10.345 10.000 10.300 10.045 10.300 10.100 V 16.550 V 139.550 V 146.000 C 10.300 146.055 10.345 146.100 10.400 146.100 H 16.850 Z" stroke="rgb(0,0,0)" stroke-width="0.20" />
  <path d="M 102.750 126.050 V 128.950 C 102.750 129.050 102.850 128.950 102.750 128.950 H 99.950 C 99.850 128.950 99.950 129.050 99.950 128.950 V 123.150 C 99.950 123.050 99.850 123.150 99.950 123.150 H 102.750 C 102.850 123.150 102.750 123.050 102.750 123.150 V 126.050 Z" stroke="rgb(0,0,255)" stroke-width="0.20" />
  <path d="M 102.750 114.050 V 116.950 C 102.750 117.050 102.850 116.950 102.750 116.950 H 99.950 C 99.850 116.950 99.950 117.050 99.950 116.950 V 111.150 C 99.950 111.050 99.850 111.150 99.950 111.150 H 102.750 C 102.850 111.150 102.750 111.050 102.750 111.150 V 114.050 Z" stroke="rgb(0,0,255)" stroke-width="0.20" />
  <path d="M 102.750 102.050 V 104.950 C 102.750 105.050 102.850 104.950 102.750 104.950 H 99.950 C 99.850 104.950 99.950 105.050 99.950 104.950 V 99.150 C 99.950 99.050 99.850 99.150 99.950 99.150 H 102.750 C 102.850 99.150 102.750 99.050 102.750 99.150 V 102.050 Z" stroke="rgb(0,0,255)" stroke-width="0.20" />
  <path d="M 102.750 90.050 V 92.950 C 102.750 93.050 102.850 92.950 102.750 92.950 H 99.950 C 99.850 92.950 99.950 93.050 99.950 92.950 V 87.150 C 99.950 87.050 99.850 87.150 99.950 87.150 H 102.750 C 102.850 87.150 102.750 87.050 102.750 87.150 V 90.050 Z" stroke="rgb(0,0,255)" stroke-width="0.20" />
  <path d="M 102.750 78.050 V 80.950 C 102.750 81.050 102.850 80.950 102.750 80.950 H 99.950 C 99.850 80.950 99.950 81.050 99.950 80.950 V 75.150 C 99.950 75.050 99.850 75.150 99.950 75.150 H 102.750 C 102.850 75.150 102.750 75.050 102.750 75.150 V 78.050 Z" stroke="rgb(0,0,255)" stroke-width="0.20" />
  <path d="M 102.750 66.050 V 68.950 C 102.750 69.050 102.850 68.950 102.750 68.950 H 99.950 C 99.850 68.950 99.950 69.050 99.950 68.950 V 63.150 C 99.950 63.050 99.850 63.150 99.950 63.150 H 102.750 C 102.850 63.150 102.750 63.050 102.750 63.150 V 66.050 Z" stroke="rgb(0,0,255)" stroke-width="0.20" />
  <path d="M 102.750 54.050 V 56.950 C 102.750 57.050 102.850 56.950 102.750 56.950 H 99.950 C 99.850 56.950 99.950 57.050 99.950 56.950 V 51.150 C 99.950 51.050 99.850 51.150 99.950 51.150 H 102.750 C 102.850 51.150 102.750 51.050 102.750 51.150 V 54.050 Z" stroke="rgb(0,0,255)" stroke-width="0.20" />
  <path d="M 102.750 42.050 V 44.950 C 102.750 45.050 102.850 44.950 102.750 44.950 H 99.950 C 99.850 44.950 99.950 45.050 99.950 44.950 V 39.150 C 99.950 39.050 99.850 39.150 99.950 39.150 H 102.750 C 102.850 39.150 102.750 39.050 102.750 39.150 V 42.050 Z" stroke="rgb(0,0,255)" stroke-width="0.20" />
  <path d="M 102.750 30.050 V 32.950 C 102.750 33.050 102.850 32.950 102.750 32.950 H 99.950 C 99.850 32.950 99.950 33.050 99.950 32.950 V 27.150 C 99.950 27.050 99.850 27.150 99.950 27.150 H 102.750 C 102.850 27.150 102.750 27.050 102.750 27.150 V 30.050 Z" stroke="rgb(0,0,255)" stroke-width="0.20" />
  <path d="M 88.350 13.650 H 91.250 C 91.350 13.650 91.250 13.550 91.250 13.650 V 16.450 C 91.250 16.550 91.350 16.450 91.250 16.450 H 85.450 C 85.350 16.450 85.450 16.550 85.450 16.450 V 13.650 C 85.450 13.550 85.350 13.650 85.450 13.650 H 88.350 Z" stroke="rgb(0,0,255)" stroke-width="0.20" />
  <path d="M 76.350 13.650 H 79.250 C 79.350 13.650 79.250 13.550 79.250 13.650 V 16.450 C 79.250 16.550 79.350 16.450 79.250 16.450 H 73.450 C 73.350 16.450 73.450 16.550 73.450 16.450 V 13.650 C 73.450 13.550 73.350 13.650 73.450 13.650 H 76.350 Z" stroke="rgb(0,0,255)" stroke-width="0.20" />
  <path d="M 64.350 13.650 H 67.250 C 67.350 13.650 67.250 13.550 67.250 13.650 V 16.450 C 67.250 16.550 67.350 16.450 67.250 16.450 H 61.450 C 61.350 16.450 61.450 16.550 61.450 16.450 V 13.650 C 61.450 13.550 61.350 13.650 61.450 13.650 H 64.350 Z" stroke="rgb(0,0,255)" stroke-width="0.20" />
  <path d="M 52.350 13.650 H 55.250 C 55.350 13.650 55.250 13.550 55.250 13.650 V 16.450 C 55.250 16.550 55.350 16.450 55.250 16.450 H 49.450 C 49.350 16.450 49.450 16.550 49.450 16.450 V 13.650 C 49.450 13.550 49.350 13.650 49.450 13.650 H 52.350 Z" stroke="rgb(0,0,255)" stroke-width="0.20" />
  <path d="M 40.350 13.650 H 43.250 C 43.350 13.650 43.250 13.550 43.250 13.650 V 16.450 C 43.250 16.550 43.350 16.450 43.250 16.450 H 37.450 C 37.350 16.450 37.450 16.550 37.450 16.450 V 13.650 C 37.450 13.550 37.350 13.650 37.450 13.650 H 40.350 Z" stroke="rgb(0,0,255)" stroke-width="0.20" />
  <path d="M 28.350 13.650 H 31.250 C 31.350 13.650 31.250 13.550 31.250 13.650 V 16.450 C 31.250 16.550 31.350 16.450 31.250 16.450 H 25.450 C 25.350 16.450 25.450 16.550 25.450 16.450 V 13.650 C 25.450 13.550 25.350 13.650 25.450 13.650 H 28.350 Z" stroke="rgb(0,0,255)" stroke-width="0.20" />
  <path d="M 13.950 30.050 V 27.150 C 13.950 27.050 13.850 27.150 13.950 27.150 H 16.750 C 16.850 27.150 16.750 27.050 16.750 27.150 V 32.950 C 16.750 33.050 16.850 32.950 16.750 32.950 H 13.950 C 13.850 32.950 13.950 33.050 13.950 32.950 V 30.050 Z" stroke="rgb(0,0,255)" stroke-width="0.20" />
  <path d="M 13.950 42.050 V 39.150 C 13.950 39.050 13.850 39.150 13.950 39.150 H 16.750 C 16.850 39.150 16.750 39.050 16.750 39.150 V 44.950 C 16.750 45.050 16.850 44.950 16.750 44.950 H 13.950 C 13.850 44.950 13.950 45.050 13.950 44.950 V 42.050 Z" stroke="rgb(0,0,255)" stroke-width="0.20" />
  <path d="M 13.950 54.050 V 51.150 C 13.950 51.050 13.850 51.150 13.950 51.150 H 16.750 C 16.850 51.150 16.750 51.050 16.750 51.150 V 56.950 C 16.750 57.050 16.850 56.950 16.750 56.950 H 13.950 C 13.850 56.950 13.950 57.050 13.950 56.950 V 54.050 Z" stroke="rgb(0,0,255)" stroke-width="0.20" />
  <path d="M 13.950 66.050 V 63.150 C 13.950 63.050 13.850 63.150 13.950 63.150 H 16.750 C 16.850 63.150 16.750 63.050 16.750 63.150 V 68.950 C 16.750 69.050 16.850 68.950 16.750 68.950 H 13.950 C 13.850 68.950 13.950 69.050 13.950 68.950 V 66.050 Z" stroke="rgb(0,0,255)" stroke-width="0.20" />
  <path d="M 13.950 78.050 V 75.150 C 13.950 75.050 13.850 75.150 13.950 75.150 H 16.750 C 16.850 75.150 16.750 75.050 16.750 75.150 V 80.950 C 16.750 81.050 16.850 80.950 16.750 80.950 H 13.950 C 13.850 80.950 13.950 81.050 13.950 80.950 V 78.050 Z" stroke="rgb(0,0,255)" stroke-width="0.20" />
  <path d="M 13.950 90.050 V 87.150 C 13.950 87.050 13.850 87.150 13.950 87.150 H 16.750 C 16.850 87.150 16.750 87.050 16.750 87.150 V 92.950 C 16.750 93.050 16.850 92.950 16.750 92.950 H 13.950 C 13.850 92.950 13.950 93.050 13.950 92.950 V 90.050 Z" stroke="rgb(0,0,255)" stroke-width="0.20" />
  <path d="M 13.950 102.050 V 99.150 C 13.950 99.050 13.850 99.150 13.950 99.150 H 16.750 C 16.850 99.150 16.750 99.050 16.750 99.150 V 104.950 C 16.750 105.050 16.850 104.950 16.750 104.950 H 13.950 C 13.850 104.950 13.950 105.050 13.950 104.950 V 102.050 Z" stroke="rgb(0,0,255)" stroke-width="0.20" />
  <path d="M 13.950 114.050 V 111.150 C 13.950 111.050 13.850 111.150 13.950 111.150 H 16.750 C 16.850 111.150 16.750 111.050 16.750 111.150 V 116.950 C 16.750 117.050 16.850 116.950 16.750 116.950 H 13.950 C 13.850 116.950 13.950 117.050 13.950 116.950 V 114.050 Z" stroke="rgb(0,0,255)" stroke-width="0.20" />
  <path d="M 13.950 126.050 V 123.150 C 13.950 123.050 13.850 123.150 13.950 123.150 H 16.750 C 16.850 123.150 16.750 123.050 16.750 123.150 V 128.950 C 16.750 129.050 16.850 128.950 16.750 128.950 H 13.950 C 13.850 128.950 13.950 129.050 13.950 128.950 V 126.050 Z" stroke="rgb(0,0,255)" stroke-width="0.20" />
</g>
<g id="p-10" style="fill:none;stroke-linecap:round;stroke-linejoin:round;">
  <path d="M 111.000 146.100 H 122.950 C 123.005 146.100 123.050 146.055 123.050 146.000 V 143.100 C 123.050 143.000 122.950 143.100 123.050 143.100 H 128.850 C 128.950 143.100 128.850 143.000 128.850 143.100 V 146.000 C 128.850 146.055 128.895 146.100 128.950 146.100 H 134.950 C 135.005 146.100 135.050 146.055 135.050 146.000 V 143.100 C 135.050 143.000 134.950 143.100 135.050 143.100 H 140.850 C 140.950 143.100 140.850 143.000 140.850 143.100 V 146.000 C 140.850 146.055 140.895 146.100 140.950 146.100 H 146.950 C 147.005 146.100 147.050 146.055 147.050 146.000 V 143.100 C 147.050 143.000 146.950 143.100 147.050 143.100 H 152.850 C 152.950 143.100 152.850 143.000 152.850 143.100 V 146.000 C 152.850 146.055 152.895 146.100 152.950 146.100 H 158.950 C 159.005 146.100 159.050 146.055 159.050 146.000 V 143.100 C 159.050 143.000 158.950 143.100 159.050 143.100 H 164.850 C 164.950 143.100 164.850 143.000 164.850 143.100 V 146.000 C 164.850 146.055 164.895 146.100 164.950 146.100 H 170.950 C 171.005 146.100 171.050 146.055 171.050 146.000 V 143.100 C 171.050 143.000 170.950 143.100 171.050 143.100 H 176.850 C 176.950 143.100 176.850 143.000 176.850 143.100 V 146.000 C 176.850 146.055 176.895 146.100 176.950 146.100 H 182.950 C 183.005 146.100 183.050 146.055 183.050 146.000 V 143.100 C 183.050 143.000 182.950 143.100 183.050 143.100 H 188.850 C 188.950 143.100 188.850 143.000 188.850 143.100 V 146.000 C 188.850 146.055 188.895 146.100 188.950 146.100 H 200.900 H 203.900 C 203.955 146.100 204.000 146.055 204.000 146.000 V 143.000 V 135.050 C 204.000 134.995 203.955 134.950 203.900 134.950 H 201.000 C 200.900 134.950 201.000 135.050 201.000 134.950 V 129.150 C 201.000 129.050 200.900 129.150 201.000 129.150 H 203.900 C 203.955 129.150 204.000 129.105 204.000 129.050 V 123.050 C 204.000 122.995 203.955 122.950 203.900 122.950 H 201.000 C 200.900 122.950 201.000 123.050 201.000 122.950 V 117.150 C 201.000 117.050 200.900 117.150 201.000 117.150 H 203.900 C 203.955 117.150 204.000 117.105 204.000 117.050 V 111.050 C 204.000 110.995 203.955 110.950 203.900 110.950 H 201.000 C 200.900 110.950 201.000 111.050 201.000 110.950 V 105.150 C 201.000 105.050 200.900 105.150 201.000 105.150 H 203.900 C 203.955 105.150 204.000 105.105 204.000 105.050 V 99.050 C 204.000 98.995 203.955 98.950 203.900 98.950 H 201.000 C 200.900 98.950 201.000 99.050 201.000 98.950 V 93.150 C 201.000 93.050 200.900 93.150 201.000 93.150 H 203.900 C 203.955 93.150 204.000 93.105 204.000 93.050 V 87.050 C 204.000 86.995 203.955 86.950 203.900 86.950 H 201.000 C 200.900 86.950 201.000 87.050 201.000 86.950 V 81.150 C 201.000 81.050 200.900 81.150 201.000 81.150 H 203.900 C 203.955 81.150 204.000 81.105 204.000 81.050 V 75.050 C 204.000 74.995 203.955 74.950 203.900 74.950 H 201.000 C 200.900 74.950 201.000 75.050 201.000 74.950 V 69.150 C 201.000 69.050 200.900 69.150 201.000 69.150 H 203.900 C 203.955 69.150 204.000 69.105 204.000 69.050 V 63.050 C 204.000 62.995 203.955 62.950 203.900 62.950 H 201.000 C 200.900 62.950 201.000 63.050 201.000 62.950 V 57.150 C 201.000 57.050 200.900 57.150 201.000 57.150 H 203.900 C 203.955 57.150 204.000 57.105 204.000 57.050 V 51.050 C 204.000 50.995 203.955 50.950 203.900 50.950 H 201.000 C 200.900 50.950 201.000 51.050 201.000 50.950 V 45.150 C 201.000 45.050 200.900 45.150 201.000 45.150 H 203.900 C 203.955 45.150 204.000 45.105 204.000 45.050 V 39.050 C 204.000 38.995 203.955 38.950 203.900 38.950 H 201.000 C 200.900 38.950 201.000 39.050 201.000 38.950 V 33.150 C 201.000 33.050 200.900 33.150 201.000 33.150 H 203.900 C 203.955 33.150 204.000 33.105 204.000 33.050 V 27.050 C 204.000 26.995 203.955 26.950 203.900 26.950 H 201.000 C 200.900 26.950 201.000 27.050 201.000 26.950 V 21.150 C 201.000 21.050 200.900 21.150 201.000 21.150 H 203.900 C 203.955 21.150 204.000 21.105 204.000 21.050 V 13.100 V 10.100 C 204.000 10.045 203.955 10.000 203.900 10.000 H 200.900 H 188.950 C 188.895 10.000 188.850 10.045 188.850 10.100 V 13.000 C 188.850 13.100 188.950 13.000 188.850 13.000 H 183.050 C 182.950 13.000 183.050 13.100 183.050 13.000 V 10.100 C 183.050 10.045 183.005 10.000 182.950 10.000 H 176.950 C 176.895 10.000 176.850 10.045 176.850 10.100 V 13.000 C 176.850 13.100 176.950 13.000 176.850 13.000 H 171.050 C 170.950 13.000 171.050 13.100 171.050 13.000 V 10.100 C 171.050 10.045 171.005 10.000 170.950 10.000 H 164.950 C 164.895 10.000 164.850 10.045 164.850 10.100 V 13.000 C 164.850 13.100 164.950 13.000 164.850 13.000 H 159.050 C 158.950 13.000 159.050 13.100 159.050 13.000 V 10.100 C 159.050 10.045 159.005 10.000 158.950 10.000 H 152.950 C 152.895 10.000 152.850 10.045 152.850 10.100 V 13.000 C 152.850 13.100 152.950 13.000 152.850 13.000 H 147.050 C 146.950 13.000 147.050 13.100 147.050 13.000 V 10.100 C 147.050 10.045 147.005 10.000 146.950 10.000 H 140.950 C 140.895 10.000 140.850 10.045 140.850 10.100 V 13.000 C 140.850 13.100 140.950 13.000 140.850 13.000 H 135.050 C 134.950 13.000 135.050 13.100 135.050 13.000 V 10.100 C 135.050 10.045 135.005 10.000 134.950 10.000 H 128.950 C 128.895 10.000 128.850 10.045 128.850 10.100 V 13.000 C 128.850 13.100 128.950 13.000 128.850 13.000 H 123.050 C 122.950 13.000 123.050 13.100 123.050 13.000 V 10.100 C 123.050 10.045 123.005 10.000 122.950 10.000 H 111.000 H 108.000 C 107.945 10.000 107.900 10.045 107.900 10.100 V 13.100 V 21.050 C 107.900 21.105 107.945 21.150 108.000 21.150 H 110.900 C 111.000 21.150 110.900 21.050 110.900 21.150 V 26.950 C 110.900 27.050 111.000 26.950 110.900 26.950 H 108.000 C 107.945 26.950 107.900 26.995 107.900 27.050 V 33.050 C 107.900 33.105 107.945 33.150 108.000 33.150 H 110.900 C 111.000 33.150 110.900 33.050 110.900 33.150 V 38.950 C 110.900 39.050 111.000 38.950 110.900 38.950 H 108.000 C 107.945 38.950 107.900 38.995 107.900 39.050 V 45.050 C 107.900 45.105 107.945 45.150 108.000 45.150 H 110.900 C 111.000 45.150 110.900 45.050 110.900 45.150 V 50.950 C 110.900 51.050 111.000 50.950 110.900 50.950 H 108.000 C 107.945 50.950 107.900 50.995 107.900 51.050 V 57.050 C 107.900 57.105 107.945 57.150 108.000 57.150 H 110.900 C 111.000 57.150 110.900 57.050 110.900 57.150 V 62.950 C 110.900 63.050 111.000 62.950 110.900 62.950 H 108.000 C 107.945 62.950 107.900 62.995 107.900 63.050 V 69.050 C 107.900 69.105 107.945 69.150 108.000 69.150 H 110.900 C 111.000 69.150 110.900 69.050 110.900 69.150 V 74.950 C 110.900 75.050 111.000 74.950 110.900 74.950 H 108.000 C 107.945 74.950 107.900 74.995 107.900 75.050 V 81.050 C 107.900 81.105 107.945 81.150 108.000 81.150 H 110.900 C 111.000 81.150 110.900 81.050 110.900 81.150 V 86.950 C 110.900 87.050 111.000 86.950 110.900 86.950 H 108.000 C 107.945 86.950 107.900 86.995 107.900 87.050 V 93.050 C 107.900 93.105 107.945 93.150 108.000 93.150 H 110.900 C 111.000 93.150 110.900 93.050 110.900 93.150 V 98.950 C 110.900 99.050 111.000 98.950 110.900 98.950 H 108.000 C 107.945 98.950 107.900 98.995 107.900 99.050 V 105.050 C 107.900 105.105 107.945 105.150 108.000 105.150 H 110.900 C 111.000 105.150 110.900 105.050 110.900 105.150 V 110.950 C 110.900 111.050 111.000 110.950 110.900 110.950 H 108.000 C 107.945 110.950 107.900 110.995 107.900 111.050 V 117.050 C 107.900 117.105 107.945 117.150 108.000 117.150 H 110.900 C 111.000 117.150 110.900 117.050 110.900 117.150 V 122.950 C 110.900 123.050 111.000 122.950 110.900 122.950 H 108.000 C 107.945 122.950 107.900 122.995 107.900 123.050 V 129.050 C 107.900 129.105 107.945 129.150 108.000 129.150 H 110.900 C 111.000 129.150 110.900 129.050 110.900 129.150 V 134.950 C 110.900 135.050 111.000 134.950 110.900 134.950 H 108.000 C 107.945 134.950 107.900 134.995 107.900 135.050 V 143.000 V 146.000 C 107.900 146.055 107.945 146.100 108.000 146.100 H 111.000 Z" stroke="rgb(0,0,0)" stroke-width="0.20" />
</g>
</svg>