<?xml version='1.0' encoding='utf-8'?>
<svg width="277.20mm" height="348.20mm" viewBox="0.0 0.0 277.20 348.20" xmlns="http://www.w3.org/2000/svg" xmlns:dc="http://purl.org/dc/elements/1.1/" xmlns:cc="http://creativecommons.org/ns#" xmlns:rdf="http://www.w3.org/1999/02/22-rdf-syntax-ns#" xmlns:svg="http://www.w3.org/2000/svg" xmlns:xlink="http://www.w3.org/1999/xlink" xmlns:inkscape="http://www.inkscape.org/namespaces/inkscape">
<!--
TwoPiece - A two piece box where top slips over the bottom half to form 
       the enclosure.
    



Set *hi* larger than *h* to leave gap between the inner and outer shell. This can be used to make opening the box easier. Set *hi* smaller to only have a small inner ridge that will allow the content to be more visible after opening.

![Bottom view](static/samples/TwoPiece2.jpg)



Created with Boxes.py (https://festi.info/boxes.py)
Creation date: 2023-02-01 21:10:07
Command line (remove spaces between dashes): boxes TwoPiece - -FingerJoint_angle=90.0 - -FingerJoint_style=rectangular - -FingerJoint_surroundingspaces=2.0 - -FingerJoint_bottom_lip=0.0 - -FingerJoint_edge_width=1.0 - -FingerJoint_extra_length=0.0 - -FingerJoint_finger=2.0 - -FingerJoint_play=0.0 - -FingerJoint_space=2.0 - -FingerJoint_width=1.0 - -x=50.0 - -y=50.0 - -h=122.0 - -hi=0.0 - -outside=0 - -play=0.15 - -thickness=3.0 - -format=svg - -tabs=0.0 - -debug=0 - -labels=0 - -labels=1 - -reference=100 - -inner_corners=loop - -burn=0.1
Url: http://localhost:8000/TwoPiece?FingerJoint_angle=90.0&FingerJoint_style=rectangular&FingerJoint_surroundingspaces=2.0&FingerJoint_bottom_lip=0.0&FingerJoint_edge_width=1.0&FingerJoint_extra_length=0.0&FingerJoint_finger=2.0&FingerJoint_play=0.0&FingerJoint_space=2.0&FingerJoint_width=1.0&x=50.0&y=50.0&h=122.0&hi=0.0&outside=0&play=0.15&thickness=3.0&format=svg&tabs=0.0&debug=0&labels=0&labels=1&reference=100&inner_corners=loop&burn=0.1&render=2
SettingsUrl: http://localhost:8000/TwoPiece?FingerJoint_angle=90.0&FingerJoint_style=rectangular&FingerJoint_surroundingspaces=2.0&FingerJoint_bottom_lip=0.0&FingerJoint_edge_width=1.0&FingerJoint_extra_length=0.0&FingerJoint_finger=2.0&FingerJoint_play=0.0&FingerJoint_space=2.0&FingerJoint_width=1.0&x=50.0&y=50.0&h=122.0&hi=0.0&outside=0&play=0.15&thickness=3.0&format=svg&tabs=0.0&debug=0&labels=0&labels=1&reference=100&inner_corners=loop&burn=0.1&render=2
-->
<title>TwoPiece</title>
<metadata>
<rdf:RDF><cc:Work>
<dc:title>Box - TwoPiece</dc:title>
<dc:date>2023-02-01 21:10:07</dc:date>
<dc:source>http://localhost:8000/TwoPiece?FingerJoint_angle=90.0&amp;FingerJoint_style=rectangular&amp;FingerJoint_surroundingspaces=2.0&amp;FingerJoint_bottom_lip=0.0&amp;FingerJoint_edge_width=1.0&amp;FingerJoint_extra_length=0.0&amp;FingerJoint_finger=2.0&amp;FingerJoint_play=0.0&amp;FingerJoint_space=2.0&amp;FingerJoint_width=1.0&amp;x=50.0&amp;y=50.0&amp;h=122.0&amp;hi=0.0&amp;outside=0&amp;play=0.15&amp;thickness=3.0&amp;format=svg&amp;tabs=0.0&amp;debug=0&amp;labels=0&amp;labels=1&amp;reference=100&amp;inner_corners=loop&amp;burn=0.1&amp;render=2</dc:source>
<dc:description>A two piece box where top slips over the bottom half to form 
       the enclosure.
    


Set *hi* larger than *h* to leave gap between the inner and outer shell. This can be used to make opening the box easier. Set *hi* smaller to only have a small inner ridge that will allow the content to be more visible after opening.

![Bottom view](static/samples/TwoPiece2.jpg)


Created with Boxes.py (https://festi.info/boxes.py)
Command line: boxes TwoPiece --FingerJoint_angle=90.0 --FingerJoint_style=rectangular --FingerJoint_surroundingspaces=2.0 --FingerJoint_bottom_lip=0.0 --FingerJoint_edge_width=1.0 --FingerJoint_extra_length=0.0 --FingerJoint_finger=2.0 --FingerJoint_play=0.0 --FingerJoint_space=2.0 --FingerJoint_width=1.0 --x=50.0 --y=50.0 --h=122.0 --hi=0.0 --outside=0 --play=0.15 --thickness=3.0 --format=svg --tabs=0.0 --debug=0 --labels=0 --labels=1 --reference=100 --inner_corners=loop --burn=0.1
Url: http://localhost:8000/TwoPiece?FingerJoint_angle=90.0&amp;FingerJoint_style=rectangular&amp;FingerJoint_surroundingspaces=2.0&amp;FingerJoint_bottom_lip=0.0&amp;FingerJoint_edge_width=1.0&amp;FingerJoint_extra_length=0.0&amp;FingerJoint_finger=2.0&amp;FingerJoint_play=0.0&amp;FingerJoint_space=2.0&amp;FingerJoint_width=1.0&amp;x=50.0&amp;y=50.0&amp;h=122.0&amp;hi=0.0&amp;outside=0&amp;play=0.15&amp;thickness=3.0&amp;format=svg&amp;tabs=0.0&amp;debug=0&amp;labels=0&amp;labels=1&amp;reference=100&amp;inner_corners=loop&amp;burn=0.1&amp;render=2
SettingsUrl: http://localhost:8000/TwoPiece?FingerJoint_angle=90.0&amp;FingerJoint_style=rectangular&amp;FingerJoint_surroundingspaces=2.0&amp;FingerJoint_bottom_lip=0.0&amp;FingerJoint_edge_width=1.0&amp;FingerJoint_extra_length=0.0&amp;FingerJoint_finger=2.0&amp;FingerJoint_play=0.0&amp;FingerJoint_space=2.0&amp;FingerJoint_width=1.0&amp;x=50.0&amp;y=50.0&amp;h=122.0&amp;hi=0.0&amp;outside=0&amp;play=0.15&amp;thickness=3.0&amp;format=svg&amp;tabs=0.0&amp;debug=0&amp;labels=0&amp;labels=1&amp;reference=100&amp;inner_corners=loop&amp;burn=0.1&amp;render=2
</dc:description>
</cc:Work></rdf:RDF></metadata>
<g id="p-0" style="fill:none;stroke-linecap:round;stroke-linejoin:round;">
  <path d="M 10.400 338.200 H 110.400 V 328.200 H 10.400 V 338.200 Z" stroke="rgb(0,0,0)" stroke-width="0.20" />
  <text transform="matrix( 1.000 0.000 0.000 1.000 60.400 329.200 )" style="font-family: sans-serif ; font-weight: normal; font-style: normal; fill: rgb(255,0,0)" font-size="8px" text-anchor="middle" dominant-baseline="hanging">100mm, burn:0.10mm</text>
</g>
<g id="p-1" style="fill:none;stroke-linecap:round;stroke-linejoin:round;">
  <path d="M 13.400 323.500 H 23.300 C 23.400 323.500 23.300 323.400 23.300 323.500 V 326.400 C 23.300 326.455 23.345 326.500 23.400 326.500 H 29.400 C 29.455 326.500 29.500 326.455 29.500 326.400 V 323.500 C 29.500 323.400 29.400 323.500 29.500 323.500 H 35.300 C 35.400 323.500 35.300 323.400 35.300 323.500 V 326.400 C 35.300 326.455 35.345 326.500 35.400 326.500 H 41.400 C 41.455 326.500 41.500 326.455 41.500 326.400 V 323.500 C 41.500 323.400 41.400 323.500 41.500 323.500 H 47.300 C 47.400 323.500 47.300 323.400 47.300 323.500 V 326.400 C 47.300 326.455 47.345 326.500 47.400 326.500 H 53.400 C 53.455 326.500 53.500 326.455 53.500 326.400 V 323.500 C 53.500 323.400 53.400 323.500 53.500 323.500 H 63.400 H 66.400 C 66.455 323.500 66.500 323.455 66.500 323.400 V 313.400 C 66.500 313.345 66.455 313.300 66.400 313.300 H 63.500 C 63.400 313.300 63.500 313.400 63.500 313.300 V 307.500 C 63.500 307.400 63.400 307.500 63.500 307.500 H 66.400 C 66.455 307.500 66.500 307.455 66.500 307.400 V 301.400 C 66.500 301.345 66.455 301.300 66.400 301.300 H 63.500 C 63.400 301.300 63.500 301.400 63.500 301.300 V 295.500 C 63.500 295.400 63.400 295.500 63.500 295.500 H 66.400 C 66.455 295.500 66.500 295.455 66.500 295.400 V 289.400 C 66.500 289.345 66.455 289.300 66.400 289.300 H 63.500 C 63.400 289.300 63.500 289.400 63.500 289.300 V 283.500 C 63.500 283.400 63.400 283.500 63.500 283.500 H 66.400 C 66.455 283.500 66.500 283.455 66.500 283.400 V 277.400 C 66.500 277.345 66.455 277.300 66.400 277.300 H 63.500 C 63.400 277.300 63.500 277.400 63.500 277.300 V 271.500 C 63.500 271.400 63.400 271.500 63.500 271.500 H 66.400 C 66.455 271.500 66.500 271.455 66.500 271.400 V 265.400 C 66.500 265.345 66.455 265.300 66.400 265.300 H 63.500 C 63.400 265.300 63.500 265.400 63.500 265.300 V 259.500 C 63.500 259.400 63.400 259.500 63.500 259.500 H 66.400 C 66.455 259.500 66.500 259.455 66.500 259.400 V 253.400 C 66.500 253.345 66.455 253.300 66.400 253.300 H 63.500 C 63.400 253.300 63.500 253.400 63.500 253.300 V 247.500 C 63.500 247.400 63.400 247.500 63.500 247.500 H 66.400 C 66.455 247.500 66.500 247.455 66.500 247.400 V 241.400 C 66.500 241.345 66.455 241.300 66.400 241.300 H 63.500 C 63.400 241.300 63.500 241.400 63.500 241.300 V 235.500 C 63.500 235.400 63.400 235.500 63.500 235.500 H 66.400 C 66.455 235.500 66.500 235.455 66.500 235.400 V 229.400 C 66.500 229.345 66.455 229.300 66.400 229.300 H 63.500 C 63.400 229.300 63.500 229.400 63.500 229.300 V 223.500 C 63.500 223.400 63.400 223.500 63.500 223.500 H 66.400 C 66.455 223.500 66.500 223.455 66.500 223.400 V 217.400 C 66.500 217.345 66.455 217.300 66.400 217.300 H 63.500 C 63.400 217.300 63.500 217.400 63.500 217.300 V 211.500 C 63.500 211.400 63.400 211.500 63.500 211.500 H 66.400 C 66.455 211.500 66.500 211.455 66.500 211.400 V 201.400 C 66.500 201.345 66.455 201.300 66.400 201.300 H 63.400 H 13.400 H 10.400 C 10.345 201.300 10.300 201.345 10.300 201.400 V 211.400 C 10.300 211.455 10.345 211.500 10.400 211.500 H 13.300 C 13.400 211.500 13.300 211.400 13.300 211.500 V 217.300 C 13.300 217.400 13.400 217.300 13.300 217.300 H 10.400 C 10.345 217.300 10.300 217.345 10.300 217.400 V 223.400 C 10.300 223.455 10.345 223.500 10.400 223.500 H 13.300 C 13.400 223.500 13.300 223.400 13.300 223.500 V 229.300 C 13.300 229.400 13.400 229.300 13.300 229.300 H 10.400 C 10.345 229.300 10.300 229.345 10.300 229.400 V 235.400 C 10.300 235.455 10.345 235.500 10.400 235.500 H 13.300 C 13.400 235.500 13.300 235.400 13.300 235.500 V 241.300 C 13.300 241.400 13.400 241.300 13.300 241.300 H 10.400 C 10.345 241.300 10.300 241.345 10.300 241.400 V 247.400 C 10.300 247.455 10.345 247.500 10.400 247.500 H 13.300 C 13.400 247.500 13.300 247.400 13.300 247.500 V 253.300 C 13.300 253.400 13.400 253.300 13.300 253.300 H 10.400 C 10.345 253.300 10.300 253.345 10.300 253.400 V 259.400 C 10.300 259.455 10.345 259.500 10.400 259.500 H 13.300 C 13.400 259.500 13.300 259.400 13.300 259.500 V 265.300 C 13.300 265.400 13.400 265.300 13.300 265.300 H 10.400 C 10.345 265.300 10.300 265.345 10.300 265.400 V 271.400 C 10.300 271.455 10.345 271.500 10.400 271.500 H 13.300 C 13.400 271.500 13.300 271.400 13.300 271.500 V 277.300 C 13.300 277.400 13.400 277.300 13.300 277.300 H 10.400 C 10.345 277.300 10.300 277.345 10.300 277.400 V 283.400 C 10.300 283.455 10.345 283.500 10.400 283.500 H 13.300 C 13.400 283.500 13.300 283.400 13.300 283.500 V 289.300 C 13.300 289.400 13.400 289.300 13.300 289.300 H 10.400 C 10.345 289.300 10.300 289.345 10.300 289.400 V 295.400 C 10.300 295.455 10.345 295.500 10.400 295.500 H 13.300 C 13.400 295.500 13.300 295.400 13.300 295.500 V 301.300 C 13.300 301.400 13.400 301.300 13.300 301.300 H 10.400 C 10.345 301.300 10.300 301.345 10.300 301.400 V 307.400 C 10.300 307.455 10.345 307.500 10.400 307.500 H 13.300 C 13.400 307.500 13.300 307.400 13.300 307.500 V 313.300 C 13.300 313.400 13.400 313.300 13.300 313.300 H 10.400 C 10.345 313.300 10.300 313.345 10.300 313.400 V 323.400 C 10.300 323.455 10.345 323.500 10.400 323.500 H 13.400 Z" stroke="rgb(0,0,0)" stroke-width="0.20" />
</g>
<g id="p-2" style="fill:none;stroke-linecap:round;stroke-linejoin:round;">
  <path d="M 71.100 323.500 H 81.000 C 81.100 323.500 81.000 323.400 81.000 323.500 V 326.400 C 81.000 326.455 81.045 326.500 81.100 326.500 H 87.100 C 87.155 326.500 87.200 326.455 87.200 326.400 V 323.500 C 87.200 323.400 87.100 323.500 87.200 323.500 H 93.000 C 93.100 323.500 93.000 323.400 93.000 323.500 V 326.400 C 93.000 326.455 93.045 326.500 93.100 326.500 H 99.100 C 99.155 326.500 99.200 326.455 99.200 326.400 V 323.500 C 99.200 323.400 99.100 323.500 99.200 323.500 H 105.000 C 105.100 323.500 105.000 323.400 105.000 323.500 V 326.400 C 105.000 326.455 105.045 326.500 105.100 326.500 H 111.100 C 111.155 326.500 111.200 326.455 111.200 326.400 V 323.500 C 111.200 323.400 111.100 323.500 111.200 323.500 H 121.100 C 121.155 323.500 121.200 323.455 121.200 323.400 V 313.500 C 121.200 313.400 121.100 313.500 121.200 313.500 H 124.100 C 124.155 313.500 124.200 313.455 124.200 313.400 V 307.400 C 124.200 307.345 124.155 307.300 124.100 307.300 H 121.200 C 121.100 307.300 121.200 307.400 121.200 307.300 V 301.500 C 121.200 301.400 121.100 301.500 121.200 301.500 H 124.100 C 124.155 301.500 124.200 301.455 124.200 301.400 V 295.400 C 124.200 295.345 124.155 295.300 124.100 295.300 H 121.200 C 121.100 295.300 121.200 295.400 121.200 295.300 V 289.500 C 121.200 289.400 121.100 289.500 121.200 289.500 H 124.100 C 124.155 289.500 124.200 289.455 124.200 289.400 V 283.400 C 124.200 283.345 124.155 283.300 124.100 283.300 H 121.200 C 121.100 283.300 121.200 283.400 121.200 283.300 V 277.500 C 121.200 277.400 121.100 277.500 121.200 277.500 H 124.100 C 124.155 277.500 124.200 277.455 124.200 277.400 V 271.400 C 124.200 271.345 124.155 271.300 124.100 271.300 H 121.200 C 121.100 271.300 121.200 271.400 121.200 271.300 V 265.500 C 121.200 265.400 121.100 265.500 121.200 265.500 H 124.100 C 124.155 265.500 124.200 265.455 124.200 265.400 V 259.400 C 124.200 259.345 124.155 259.300 124.100 259.300 H 121.200 C 121.100 259.300 121.200 259.400 121.200 259.300 V 253.500 C 121.200 253.400 121.100 253.500 121.200 253.500 H 124.100 C 124.155 253.500 124.200 253.455 124.200 253.400 V 247.400 C 124.200 247.345 124.155 247.300 124.100 247.300 H 121.200 C 121.100 247.300 121.200 247.400 121.200 247.300 V 241.500 C 121.200 241.400 121.100 241.500 121.200 241.500 H 124.100 C 124.155 241.500 124.200 241.455 124.200 241.400 V 235.400 C 124.200 235.345 124.155 235.300 124.100 235.300 H 121.200 C 121.100 235.300 121.200 235.400 121.200 235.300 V 229.500 C 121.200 229.400 121.100 229.500 121.200 229.500 H 124.100 C 124.155 229.500 124.200 229.455 124.200 229.400 V 223.400 C 124.200 223.345 124.155 223.300 124.100 223.300 H 121.200 C 121.100 223.300 121.200 223.400 121.200 223.300 V 217.500 C 121.200 217.400 121.100 217.500 121.200 217.500 H 124.100 C 124.155 217.500 124.200 217.455 124.200 217.400 V 211.400 C 124.200 211.345 124.155 211.300 124.100 211.300 H 121.200 C 121.100 211.300 121.200 211.400 121.200 211.300 V 201.400 C 121.200 201.345 121.155 201.300 121.100 201.300 H 71.100 C 71.045 201.300 71.000 201.345 71.000 201.400 V 211.300 C 71.000 211.400 71.100 211.300 71.000 211.300 H 68.100 C 68.045 211.300 68.000 211.345 68.000 211.400 V 217.400 C 68.000 217.455 68.045 217.500 68.100 217.500 H 71.000 C 71.100 217.500 71.000 217.400 71.000 217.500 V 223.300 C 71.000 223.400 71.100 223.300 71.000 223.300 H 68.100 C 68.045 223.300 68.000 223.345 68.000 223.400 V 229.400 C 68.000 229.455 68.045 229.500 68.100 229.500 H 71.000 C 71.100 229.500 71.000 229.400 71.000 229.500 V 235.300 C 71.000 235.400 71.100 235.300 71.000 235.300 H 68.100 C 68.045 235.300 68.000 235.345 68.000 235.400 V 241.400 C 68.000 241.455 68.045 241.500 68.100 241.500 H 71.000 C 71.100 241.500 71.000 241.400 71.000 241.500 V 247.300 C 71.000 247.400 71.100 247.300 71.000 247.300 H 68.100 C 68.045 247.300 68.000 247.345 68.000 247.400 V 253.400 C 68.000 253.455 68.045 253.500 68.100 253.500 H 71.000 C 71.100 253.500 71.000 253.400 71.000 253.500 V 259.300 C 71.000 259.400 71.100 259.300 71.000 259.300 H 68.100 C 68.045 259.300 68.000 259.345 68.000 259.400 V 265.400 C 68.000 265.455 68.045 265.500 68.100 265.500 H 71.000 C 71.100 265.500 71.000 265.400 71.000 265.500 V 271.300 C 71.000 271.400 71.100 271.300 71.000 271.300 H 68.100 C 68.045 271.300 68.000 271.345 68.000 271.400 V 277.400 C 68.000 277.455 68.045 277.500 68.100 277.500 H 71.000 C 71.100 277.500 71.000 277.400 71.000 277.500 V 283.300 C 71.000 283.400 71.100 283.300 71.000 283.300 H 68.100 C 68.045 283.300 68.000 283.345 68.000 283.400 V 289.400 C 68.000 289.455 68.045 289.500 68.100 289.500 H 71.000 C 71.100 289.500 71.000 289.400 71.000 289.500 V 295.300 C 71.000 295.400 71.100 295.300 71.000 295.300 H 68.100 C 68.045 295.300 68.000 295.345 68.000 295.400 V 301.400 C 68.000 301.455 68.045 301.500 68.100 301.500 H 71.000 C 71.100 301.500 71.000 301.400 71.000 301.500 V 307.300 C 71.000 307.400 71.100 307.300 71.000 307.300 H 68.100 C 68.045 307.300 68.000 307.345 68.000 307.400 V 313.400 C 68.000 313.455 68.045 313.500 68.100 313.500 H 71.000 C 71.100 313.500 71.000 313.400 71.000 313.500 V 323.400 C 71.000 323.455 71.045 323.500 71.100 323.500 Z" stroke="rgb(0,0,0)" stroke-width="0.20" />
</g>
<g id="p-3" style="fill:none;stroke-linecap:round;stroke-linejoin:round;">
  <path d="M 128.800 323.500 H 138.700 C 138.800 323.500 138.700 323.400 138.700 323.500 V 326.400 C 138.700 326.455 138.745 326.500 138.800 326.500 H 144.800 C 144.855 326.500 144.900 326.455 144.900 326.400 V 323.500 C 144.900 323.400 144.800 323.500 144.900 323.500 H 150.700 C 150.800 323.500 150.700 323.400 150.700 323.500 V 326.400 C 150.700 326.455 150.745 326.500 150.800 326.500 H 156.800 C 156.855 326.500 156.900 326.455 156.900 326.400 V 323.500 C 156.900 323.400 156.800 323.500 156.900 323.500 H 162.700 C 162.800 323.500 162.700 323.400 162.700 323.500 V 326.400 C 162.700 326.455 162.745 326.500 162.800 326.500 H 168.800 C 168.855 326.500 168.900 326.455 168.900 326.400 V 323.500 C 168.900 323.400 168.800 323.500 168.900 323.500 H 178.800 H 181.800 C 181.855 323.500 181.900 323.455 181.900 323.400 V 313.400 C 181.900 313.345 181.855 313.300 181.800 313.300 H 178.900 C 178.800 313.300 178.900 313.400 178.900 313.300 V 307.500 C 178.900 307.400 178.800 307.500 178.900 307.500 H 181.800 C 181.855 307.500 181.900 307.455 181.900 307.400 V 301.400 C 181.900 301.345 181.855 301.300 181.800 301.300 H 178.900 C 178.800 301.300 178.900 301.400 178.900 301.300 V 295.500 C 178.900 295.400 178.800 295.500 178.900 295.500 H 181.800 C 181.855 295.500 181.900 295.455 181.900 295.400 V 289.400 C 181.900 289.345 181.855 289.300 181.800 289.300 H 178.900 C 178.800 289.300 178.900 289.400 178.900 289.300 V 283.500 C 178.900 283.400 178.800 283.500 178.900 283.500 H 181.800 C 181.855 283.500 181.900 283.455 181.900 283.400 V 277.400 C 181.900 277.345 181.855 277.300 181.800 277.300 H 178.900 C 178.800 277.300 178.900 277.400 178.900 277.300 V 271.500 C 178.900 271.400 178.800 271.500 178.900 271.500 H 181.800 C 181.855 271.500 181.900 271.455 181.900 271.400 V 265.400 C 181.900 265.345 181.855 265.300 181.800 265.300 H 178.900 C 178.800 265.300 178.900 265.400 178.900 265.300 V 259.500 C 178.900 259.400 178.800 259.500 178.900 259.500 H 181.800 C 181.855 259.500 181.900 259.455 181.900 259.400 V 253.400 C 181.900 253.345 181.855 253.300 181.800 253.300 H 178.900 C 178.800 253.300 178.900 253.400 178.900 253.300 V 247.500 C 178.900 247.400 178.800 247.500 178.900 247.500 H 181.800 C 181.855 247.500 181.900 247.455 181.900 247.400 V 241.400 C 181.900 241.345 181.855 241.300 181.800 241.300 H 178.900 C 178.800 241.300 178.900 241.400 178.900 241.300 V 235.500 C 178.900 235.400 178.800 235.500 178.900 235.500 H 181.800 C 181.855 235.500 181.900 235.455 181.900 235.400 V 229.400 C 181.900 229.345 181.855 229.300 181.800 229.300 H 178.900 C 178.800 229.300 178.900 229.400 178.900 229.300 V 223.500 C 178.900 223.400 178.800 223.500 178.900 223.500 H 181.800 C 181.855 223.500 181.900 223.455 181.900 223.400 V 217.400 C 181.900 217.345 181.855 217.300 181.800 217.300 H 178.900 C 178.800 217.300 178.900 217.400 178.900 217.300 V 211.500 C 178.900 211.400 178.800 211.500 178.900 211.500 H 181.800 C 181.855 211.500 181.900 211.455 181.900 211.400 V 201.400 C 181.900 201.345 181.855 201.300 181.800 201.300 H 178.800 H 128.800 H 125.800 C 125.745 201.300 125.700 201.345 125.700 201.400 V 211.400 C 125.700 211.455 125.745 211.500 125.800 211.500 H 128.700 C 128.800 211.500 128.700 211.400 128.700 211.500 V 217.300 C 128.700 217.400 128.800 217.300 128.700 217.300 H 125.800 C 125.745 217.300 125.700 217.345 125.700 217.400 V 223.400 C 125.700 223.455 125.745 223.500 125.800 223.500 H 128.700 C 128.800 223.500 128.700 223.400 128.700 223.500 V 229.300 C 128.700 229.400 128.800 229.300 128.700 229.300 H 125.800 C 125.745 229.300 125.700 229.345 125.700 229.400 V 235.400 C 125.700 235.455 125.745 235.500 125.800 235.500 H 128.700 C 128.800 235.500 128.700 235.400 128.700 235.500 V 241.300 C 128.700 241.400 128.800 241.300 128.700 241.300 H 125.800 C 125.745 241.300 125.700 241.345 125.700 241.400 V 247.400 C 125.700 247.455 125.745 247.500 125.800 247.500 H 128.700 C 128.800 247.500 128.700 247.400 128.700 247.500 V 253.300 C 128.700 253.400 128.800 253.300 128.700 253.300 H 125.800 C 125.745 253.300 125.700 253.345 125.700 253.400 V 259.400 C 125.700 259.455 125.745 259.500 125.800 259.500 H 128.700 C 128.800 259.500 128.700 259.400 128.700 259.500 V 265.300 C 128.700 265.400 128.800 265.300 128.700 265.300 H 125.800 C 125.745 265.300 125.700 265.345 125.700 265.400 V 271.400 C 125.700 271.455 125.745 271.500 125.800 271.500 H 128.700 C 128.800 271.500 128.700 271.400 128.700 271.500 V 277.300 C 128.700 277.400 128.800 277.300 128.700 277.300 H 125.800 C 125.745 277.300 125.700 277.345 125.700 277.400 V 283.400 C 125.700 283.455 125.745 283.500 125.800 283.500 H 128.700 C 128.800 283.500 128.700 283.400 128.700 283.500 V 289.300 C 128.700 289.400 128.800 289.300 128.700 289.300 H 125.800 C 125.745 289.300 125.700 289.345 125.700 289.400 V 295.400 C 125.700 295.455 125.745 295.500 125.800 295.500 H 128.700 C 128.800 295.500 128.700 295.400 128.700 295.500 V 301.300 C 128.700 301.400 128.800 301.300 128.700 301.300 H 125.800 C 125.745 301.300 125.700 301.345 125.700 301.400 V 307.400 C 125.700 307.455 125.745 307.500 125.800 307.500 H 128.700 C 128.800 307.500 128.700 307.400 128.700 307.500 V 313.300 C 128.700 313.400 128.800 313.300 128.700 313.300 H 125.800 C 125.745 313.300 125.700 313.345 125.700 313.400 V 323.400 C 125.700 323.455 125.745 323.500 125.800 323.500 H 128.800 Z" stroke="rgb(0,0,0)" stroke-width="0.20" />
</g>
<g id="p-4" style="fill:none;stroke-linecap:round;stroke-linejoin:round;">
  <path d="M 186.500 323.500 H 196.400 C 196.500 323.500 196.400 323.400 196.400 323.500 V 326.400 C 196.400 326.455 196.445 326.500 196.500 326.500 H 202.500 C 202.555 326.500 202.600 326.455 202.600 326.400 V 323.500 C 202.600 323.400 202.500 323.500 202.600 323.500 H 208.400 C 208.500 323.500 208.400 323.400 208.400 323.500 V 326.400 C 208.400 326.455 208.445 326.500 208.500 326.500 H 214.500 C 214.555 326.500 214.600 326.455 214.600 326.400 V 323.500 C 214.600 323.400 214.500 323.500 214.600 323.500 H 220.400 C 220.500 323.500 220.400 323.400 220.400 323.500 V 326.400 C 220.400 326.455 220.445 326.500 220.500 326.500 H 226.500 C 226.555 326.500 226.600 326.455 226.600 326.400 V 323.500 C 226.600 323.400 226.500 323.500 226.600 323.500 H 236.500 C 236.555 323.500 236.600 323.455 236.600 323.400 V 313.500 C 236.600 313.400 236.500 313.500 236.600 313.500 H 239.500 C 239.555 313.500 239.600 313.455 239.600 313.400 V 307.400 C 239.600 307.345 239.555 307.300 239.500 307.300 H 236.600 C 236.500 307.300 236.600 307.400 236.600 307.300 V 301.500 C 236.600 301.400 236.500 301.500 236.600 301.500 H 239.500 C 239.555 301.500 239.600 301.455 239.600 301.400 V 295.400 C 239.600 295.345 239.555 295.300 239.500 295.300 H 236.600 C 236.500 295.300 236.600 295.400 236.600 295.300 V 289.500 C 236.600 289.400 236.500 289.500 236.600 289.500 H 239.500 C 239.555 289.500 239.600 289.455 239.600 289.400 V 283.400 C 239.600 283.345 239.555 283.300 239.500 283.300 H 236.600 C 236.500 283.300 236.600 283.400 236.600 283.300 V 277.500 C 236.600 277.400 236.500 277.500 236.600 277.500 H 239.500 C 239.555 277.500 239.600 277.455 239.600 277.400 V 271.400 C 239.600 271.345 239.555 271.300 239.500 271.300 H 236.600 C 236.500 271.300 236.600 271.400 236.600 271.300 V 265.500 C 236.600 265.400 236.500 265.500 236.600 265.500 H 239.500 C 239.555 265.500 239.600 265.455 239.600 265.400 V 259.400 C 239.600 259.345 239.555 259.300 239.500 259.300 H 236.600 C 236.500 259.300 236.600 259.400 236.600 259.300 V 253.500 C 236.600 253.400 236.500 253.500 236.600 253.500 H 239.500 C 239.555 253.500 239.600 253.455 239.600 253.400 V 247.400 C 239.600 247.345 239.555 247.300 239.500 247.300 H 236.600 C 236.500 247.300 236.600 247.400 236.600 247.300 V 241.500 C 236.600 241.400 236.500 241.500 236.600 241.500 H 239.500 C 239.555 241.500 239.600 241.455 239.600 241.400 V 235.400 C 239.600 235.345 239.555 235.300 239.500 235.300 H 236.600 C 236.500 235.300 236.600 235.400 236.600 235.300 V 229.500 C 236.600 229.400 236.500 229.500 236.600 229.500 H 239.500 C 239.555 229.500 239.600 229.455 239.600 229.400 V 223.400 C 239.600 223.345 239.555 223.300 239.500 223.300 H 236.600 C 236.500 223.300 236.600 223.400 236.600 223.300 V 217.500 C 236.600 217.400 236.500 217.500 236.600 217.500 H 239.500 C 239.555 217.500 239.600 217.455 239.600 217.400 V 211.400 C 239.600 211.345 239.555 211.300 239.500 211.300 H 236.600 C 236.500 211.300 236.600 211.400 236.600 211.300 V 201.400 C 236.600 201.345 236.555 201.300 236.500 201.300 H 186.500 C 186.445 201.300 186.400 201.345 186.400 201.400 V 211.300 C 186.400 211.400 186.500 211.300 186.400 211.300 H 183.500 C 183.445 211.300 183.400 211.345 183.400 211.400 V 217.400 C 183.400 217.455 183.445 217.500 183.500 217.500 H 186.400 C 186.500 217.500 186.400 217.400 186.400 217.500 V 223.300 C 186.400 223.400 186.500 223.300 186.400 223.300 H 183.500 C 183.445 223.300 183.400 223.345 183.400 223.400 V 229.400 C 183.400 229.455 183.445 229.500 183.500 229.500 H 186.400 C 186.500 229.500 186.400 229.400 186.400 229.500 V 235.300 C 186.400 235.400 186.500 235.300 186.400 235.300 H 183.500 C 183.445 235.300 183.400 235.345 183.400 235.400 V 241.400 C 183.400 241.455 183.445 241.500 183.500 241.500 H 186.400 C 186.500 241.500 186.400 241.400 186.400 241.500 V 247.300 C 186.400 247.400 186.500 247.300 186.400 247.300 H 183.500 C 183.445 247.300 183.400 247.345 183.400 247.400 V 253.400 C 183.400 253.455 183.445 253.500 183.500 253.500 H 186.400 C 186.500 253.500 186.400 253.400 186.400 253.500 V 259.300 C 186.400 259.400 186.500 259.300 186.400 259.300 H 183.500 C 183.445 259.300 183.400 259.345 183.400 259.400 V 265.400 C 183.400 265.455 183.445 265.500 183.500 265.500 H 186.400 C 186.500 265.500 186.400 265.400 186.400 265.500 V 271.300 C 186.400 271.400 186.500 271.300 186.400 271.300 H 183.500 C 183.445 271.300 183.400 271.345 183.400 271.400 V 277.400 C 183.400 277.455 183.445 277.500 183.500 277.500 H 186.400 C 186.500 277.500 186.400 277.400 186.400 277.500 V 283.300 C 186.400 283.400 186.500 283.300 186.400 283.300 H 183.500 C 183.445 283.300 183.400 283.345 183.400 283.400 V 289.400 C 183.400 289.455 183.445 289.500 183.500 289.500 H 186.400 C 186.500 289.500 186.400 289.400 186.400 289.500 V 295.300 C 186.400 295.400 186.500 295.300 186.400 295.300 H 183.500 C 183.445 295.300 183.400 295.345 183.400 295.400 V 301.400 C 183.400 301.455 183.445 301.500 183.500 301.500 H 186.400 C 186.500 301.500 186.400 301.400 186.400 301.500 V 307.300 C 186.400 307.400 186.500 307.300 186.400 307.300 H 183.500 C 183.445 307.300 183.400 307.345 183.400 307.400 V 313.400 C 183.400 313.455 183.445 313.500 183.500 313.500 H 186.400 C 186.500 313.500 186.400 313.400 186.400 313.500 V 323.400 C 186.400 323.455 186.445 323.500 186.500 323.500 Z" stroke="rgb(0,0,0)" stroke-width="0.20" />
</g>
<g id="p-5" style="fill:none;stroke-linecap:round;stroke-linejoin:round;">
  <path d="M 13.400 196.800 H 20.750 C 20.850 196.800 20.750 196.700 20.750 196.800 V 199.700 C 20.750 199.755 20.795 199.800 20.850 199.800 H 26.850 C 26.905 199.800 26.950 199.755 26.950 199.700 V 196.800 C 26.950 196.700 26.850 196.800 26.950 196.800 H 32.750 C 32.850 196.800 32.750 196.700 32.750 196.800 V 199.700 C 32.750 199.755 32.795 199.800 32.850 199.800 H 38.850 C 38.905 199.800 38.950 199.755 38.950 199.700 V 196.800 C 38.950 196.700 38.850 196.800 38.950 196.800 H 44.750 C 44.850 196.800 44.750 196.700 44.750 196.800 V 199.700 C 44.750 199.755 44.795 199.800 44.850 199.800 H 50.850 C 50.905 199.800 50.950 199.755 50.950 199.700 V 196.800 C 50.950 196.700 50.850 196.800 50.950 196.800 H 56.750 C 56.850 196.800 56.750 196.700 56.750 196.800 V 199.700 C 56.750 199.755 56.795 199.800 56.850 199.800 H 62.850 C 62.905 199.800 62.950 199.755 62.950 199.700 V 196.800 C 62.950 196.700 62.850 196.800 62.950 196.800 H 70.300 H 73.300 C 73.355 196.800 73.400 196.755 73.400 196.700 V 186.700 C 73.400 186.645 73.355 186.600 73.300 186.600 H 70.400 C 70.300 186.600 70.400 186.700 70.400 186.600 V 180.800 C 70.400 180.700 70.300 180.800 70.400 180.800 H 73.300 C 73.355 180.800 73.400 180.755 73.400 180.700 V 174.700 C 73.400 174.645 73.355 174.600 73.300 174.600 H 70.400 C 70.300 174.600 70.400 174.700 70.400 174.600 V 168.800 C 70.400 168.700 70.300 168.800 70.400 168.800 H 73.300 C 73.355 168.800 73.400 168.755 73.400 168.700 V 162.700 C 73.400 162.645 73.355 162.600 73.300 162.600 H 70.400 C 70.300 162.600 70.400 162.700 70.400 162.600 V 156.800 C 70.400 156.700 70.300 156.800 70.400 156.800 H 73.300 C 73.355 156.800 73.400 156.755 73.400 156.700 V 150.700 C 73.400 150.645 73.355 150.600 73.300 150.600 H 70.400 C 70.300 150.600 70.400 150.700 70.400 150.600 V 144.800 C 70.400 144.700 70.300 144.800 70.400 144.800 H 73.300 C 73.355 144.800 73.400 144.755 73.400 144.700 V 138.700 C 73.400 138.645 73.355 138.600 73.300 138.600 H 70.400 C 70.300 138.600 70.400 138.700 70.400 138.600 V 132.800 C 70.400 132.700 70.300 132.800 70.400 132.800 H 73.300 C 73.355 132.800 73.400 132.755 73.400 132.700 V 126.700 C 73.400 126.645 73.355 126.600 73.300 126.600 H 70.400 C 70.300 126.600 70.400 126.700 70.400 126.600 V 120.800 C 70.400 120.700 70.300 120.800 70.400 120.800 H 73.300 C 73.355 120.800 73.400 120.755 73.400 120.700 V 114.700 C 73.400 114.645 73.355 114.600 73.300 114.600 H 70.400 C 70.300 114.600 70.400 114.700 70.400 114.600 V 108.800 C 70.400 108.700 70.300 108.800 70.400 108.800 H 73.300 C 73.355 108.800 73.400 108.755 73.400 108.700 V 102.700 C 73.400 102.645 73.355 102.600 73.300 102.600 H 70.400 C 70.300 102.600 70.400 102.700 70.400 102.600 V 96.800 C 70.400 96.700 70.300 96.800 70.400 96.800 H 73.300 C 73.355 96.800 73.400 96.755 73.400 96.700 V 90.700 C 73.400 90.645 73.355 90.600 73.300 90.600 H 70.400 C 70.300 90.600 70.400 90.700 70.400 90.600 V 84.800 C 70.400 84.700 70.300 84.800 70.400 84.800 H 73.300 C 73.355 84.800 73.400 84.755 73.400 84.700 V 74.700 C 73.400 74.645 73.355 74.600 73.300 74.600 H 70.300 H 13.400 H 10.400 C 10.345 74.600 10.300 74.645 10.300 74.700 V 84.700 C 10.300 84.755 10.345 84.800 10.400 84.800 H 13.300 C 13.400 84.800 13.300 84.700 13.300 84.800 V 90.600 C 13.300 90.700 13.400 90.600 13.300 90.600 H 10.400 C 10.345 90.600 10.300 90.645 10.300 90.700 V 96.700 C 10.300 96.755 10.345 96.800 10.400 96.800 H 13.300 C 13.400 96.800 13.300 96.700 13.300 96.800 V 102.600 C 13.300 102.700 13.400 102.600 13.300 102.600 H 10.400 C 10.345 102.600 10.300 102.645 10.300 102.700 V 108.700 C 10.300 108.755 10.345 108.800 10.400 108.800 H 13.300 C 13.400 108.800 13.300 108.700 13.300 108.800 V 114.600 C 13.300 114.700 13.400 114.600 13.300 114.600 H 10.400 C 10.345 114.600 10.300 114.645 10.300 114.700 V 120.700 C 10.300 120.755 10.345 120.800 10.400 120.800 H 13.300 C 13.400 120.800 13.300 120.700 13.300 120.800 V 126.600 C 13.300 126.700 13.400 126.600 13.300 126.600 H 10.400 C 10.345 126.600 10.300 126.645 10.300 126.700 V 132.700 C 10.300 132.755 10.345 132.800 10.400 132.800 H 13.300 C 13.400 132.800 13.300 132.700 13.300 132.800 V 138.600 C 13.300 138.700 13.400 138.600 13.300 138.600 H 10.400 C 10.345 138.600 10.300 138.645 10.300 138.700 V 144.700 C 10.300 144.755 10.345 144.800 10.400 144.800 H 13.300 C 13.400 144.800 13.300 144.700 13.300 144.800 V 150.600 C 13.300 150.700 13.400 150.600 13.300 150.600 H 10.400 C 10.345 150.600 10.300 150.645 10.300 150.700 V 156.700 C 10.300 156.755 10.345 156.800 10.400 156.800 H 13.300 C 13.400 156.800 13.300 156.700 13.300 156.800 V 162.600 C 13.300 162.700 13.400 162.600 13.300 162.600 H 10.400 C 10.345 162.600 10.300 162.645 10.300 162.700 V 168.700 C 10.300 168.755 10.345 168.800 10.400 168.800 H 13.300 C 13.400 168.800 13.300 168.700 13.300 168.800 V 174.600 C 13.300 174.700 13.400 174.600 13.300 174.600 H 10.400 C 10.345 174.600 10.300 174.645 10.300 174.700 V 180.700 C 10.300 180.755 10.345 180.800 10.400 180.800 H 13.300 C 13.400 180.800 13.300 180.700 13.300 180.800 V 186.600 C 13.300 186.700 13.400 186.600 13.300 186.600 H 10.400 C 10.345 186.600 10.300 186.645 10.300 186.700 V 196.700 C 10.300 196.755 10.345 196.800 10.400 196.800 H 13.400 Z" stroke="rgb(0,0,0)" stroke-width="0.20" />
</g>
<g id="p-6" style="fill:none;stroke-linecap:round;stroke-linejoin:round;">
  <path d="M 78.000 196.800 H 85.350 C 85.450 196.800 85.350 196.700 85.350 196.800 V 199.700 C 85.350 199.755 85.395 199.800 85.450 199.800 H 91.450 C 91.505 199.800 91.550 199.755 91.550 199.700 V 196.800 C 91.550 196.700 91.450 196.800 91.550 196.800 H 97.350 C 97.450 196.800 97.350 196.700 97.350 196.800 V 199.700 C 97.350 199.755 97.395 199.800 97.450 199.800 H 103.450 C 103.505 199.800 103.550 199.755 103.550 199.700 V 196.800 C 103.550 196.700 103.450 196.800 103.550 196.800 H 109.350 C 109.450 196.800 109.350 196.700 109.350 196.800 V 199.700 C 109.350 199.755 109.395 199.800 109.450 199.800 H 115.450 C 115.505 199.800 115.550 199.755 115.550 199.700 V 196.800 C 115.550 196.700 115.450 196.800 115.550 196.800 H 121.350 C 121.450 196.800 121.350 196.700 121.350 196.800 V 199.700 C 121.350 199.755 121.395 199.800 121.450 199.800 H 127.450 C 127.505 199.800 127.550 199.755 127.550 199.700 V 196.800 C 127.550 196.700 127.450 196.800 127.550 196.800 H 134.900 C 134.955 196.800 135.000 196.755 135.000 196.700 V 186.800 C 135.000 186.700 134.900 186.800 135.000 186.800 H 137.900 C 137.955 186.800 138.000 186.755 138.000 186.700 V 180.700 C 138.000 180.645 137.955 180.600 137.900 180.600 H 135.000 C 134.900 180.600 135.000 180.700 135.000 180.600 V 174.800 C 135.000 174.700 134.900 174.800 135.000 174.800 H 137.900 C 137.955 174.800 138.000 174.755 138.000 174.700 V 168.700 C 138.000 168.645 137.955 168.600 137.900 168.600 H 135.000 C 134.900 168.600 135.000 168.700 135.000 168.600 V 162.800 C 135.000 162.700 134.900 162.800 135.000 162.800 H 137.900 C 137.955 162.800 138.000 162.755 138.000 162.700 V 156.700 C 138.000 156.645 137.955 156.600 137.900 156.600 H 135.000 C 134.900 156.600 135.000 156.700 135.000 156.600 V 150.800 C 135.000 150.700 134.900 150.800 135.000 150.800 H 137.900 C 137.955 150.800 138.000 150.755 138.000 150.700 V 144.700 C 138.000 144.645 137.955 144.600 137.900 144.600 H 135.000 C 134.900 144.600 135.000 144.700 135.000 144.600 V 138.800 C 135.000 138.700 134.900 138.800 135.000 138.800 H 137.900 C 137.955 138.800 138.000 138.755 138.000 138.700 V 132.700 C 138.000 132.645 137.955 132.600 137.900 132.600 H 135.000 C 134.900 132.600 135.000 132.700 135.000 132.600 V 126.800 C 135.000 126.700 134.900 126.800 135.000 126.800 H 137.900 C 137.955 126.800 138.000 126.755 138.000 126.700 V 120.700 C 138.000 120.645 137.955 120.600 137.900 120.600 H 135.000 C 134.900 120.600 135.000 120.700 135.000 120.600 V 114.800 C 135.000 114.700 134.900 114.800 135.000 114.800 H 137.900 C 137.955 114.800 138.000 114.755 138.000 114.700 V 108.700 C 138.000 108.645 137.955 108.600 137.900 108.600 H 135.000 C 134.900 108.600 135.000 108.700 135.000 108.600 V 102.800 C 135.000 102.700 134.900 102.800 135.000 102.800 H 137.900 C 137.955 102.800 138.000 102.755 138.000 102.700 V 96.700 C 138.000 96.645 137.955 96.600 137.900 96.600 H 135.000 C 134.900 96.600 135.000 96.700 135.000 96.600 V 90.800 C 135.000 90.700 134.900 90.800 135.000 90.800 H 137.900 C 137.955 90.800 138.000 90.755 138.000 90.700 V 84.700 C 138.000 84.645 137.955 84.600 137.900 84.600 H 135.000 C 134.900 84.600 135.000 84.700 135.000 84.600 V 74.700 C 135.000 74.645 134.955 74.600 134.900 74.600 H 78.000 C 77.945 74.600 77.900 74.645 77.900 74.700 V 84.600 C 77.900 84.700 78.000 84.600 77.900 84.600 H 75.000 C 74.945 84.600 74.900 84.645 74.900 84.700 V 90.700 C 74.900 90.755 74.945 90.800 75.000 90.800 H 77.900 C 78.000 90.800 77.900 90.700 77.900 90.800 V 96.600 C 77.900 96.700 78.000 96.600 77.900 96.600 H 75.000 C 74.945 96.600 74.900 96.645 74.900 96.700 V 102.700 C 74.900 102.755 74.945 102.800 75.000 102.800 H 77.900 C 78.000 102.800 77.900 102.700 77.900 102.800 V 108.600 C 77.900 108.700 78.000 108.600 77.900 108.600 H 75.000 C 74.945 108.600 74.900 108.645 74.900 108.700 V 114.700 C 74.900 114.755 74.945 114.800 75.000 114.800 H 77.900 C 78.000 114.800 77.900 114.700 77.900 114.800 V 120.600 C 77.900 120.700 78.000 120.600 77.900 120.600 H 75.000 C 74.945 120.600 74.900 120.645 74.900 120.700 V 126.700 C 74.900 126.755 74.945 126.800 75.000 126.800 H 77.900 C 78.000 126.800 77.900 126.700 77.900 126.800 V 132.600 C 77.900 132.700 78.000 132.600 77.900 132.600 H 75.000 C 74.945 132.600 74.900 132.645 74.900 132.700 V 138.700 C 74.900 138.755 74.945 138.800 75.000 138.800 H 77.900 C 78.000 138.800 77.900 138.700 77.900 138.800 V 144.600 C 77.900 144.700 78.000 144.600 77.900 144.600 H 75.000 C 74.945 144.600 74.900 144.645 74.900 144.700 V 150.700 C 74.900 150.755 74.945 150.800 75.000 150.800 H 77.900 C 78.000 150.800 77.900 150.700 77.900 150.800 V 156.600 C 77.900 156.700 78.000 156.600 77.900 156.600 H 75.000 C 74.945 156.600 74.900 156.645 74.900 156.700 V 162.700 C 74.900 162.755 74.945 162.800 75.000 162.800 H 77.900 C 78.000 162.800 77.900 162.700 77.900 162.800 V 168.600 C 77.900 168.700 78.000 168.600 77.900 168.600 H 75.000 C 74.945 168.600 74.900 168.645 74.900 168.700 V 174.700 C 74.900 174.755 74.945 174.800 75.000 174.800 H 77.900 C 78.000 174.800 77.900 174.700 77.900 174.800 V 180.600 C 77.900 180.700 78.000 180.600 77.900 180.600 H 75.000 C 74.945 180.600 74.900 180.645 74.900 180.700 V 186.700 C 74.900 186.755 74.945 186.800 75.000 186.800 H 77.900 C 78.000 186.800 77.900 186.700 77.900 186.800 V 196.700 C 77.900 196.755 77.945 196.800 78.000 196.800 Z" stroke="rgb(0,0,0)" stroke-width="0.20" />
</g>
<g id="p-7" style="fill:none;stroke-linecap:round;stroke-linejoin:round;">
  <path d="M 142.600 196.800 H 149.950 C 150.050 196.800 149.950 196.700 149.950 196.800 V 199.700 C 149.950 199.755 149.995 199.800 150.050 199.800 H 156.050 C 156.105 199.800 156.150 199.755 156.150 199.700 V 196.800 C 156.150 196.700 156.050 196.800 156.150 196.800 H 161.950 C 162.050 196.800 161.950 196.700 161.950 196.800 V 199.700 C 161.950 199.755 161.995 199.800 162.050 199.800 H 168.050 C 168.105 199.800 168.150 199.755 168.150 199.700 V 196.800 C 168.150 196.700 168.050 196.800 168.150 196.800 H 173.950 C 174.050 196.800 173.950 196.700 173.950 196.800 V 199.700 C 173.950 199.755 173.995 199.800 174.050 199.800 H 180.050 C 180.105 199.800 180.150 199.755 180.150 199.700 V 196.800 C 180.150 196.700 180.050 196.800 180.150 196.800 H 185.950 C 186.050 196.800 185.950 196.700 185.950 196.800 V 199.700 C 185.950 199.755 185.995 199.800 186.050 199.800 H 192.050 C 192.105 199.800 192.150 199.755 192.150 199.700 V 196.800 C 192.150 196.700 192.050 196.800 192.150 196.800 H 199.500 H 202.500 C 202.555 196.800 202.600 196.755 202.600 196.700 V 186.700 C 202.600 186.645 202.555 186.600 202.500 186.600 H 199.600 C 199.500 186.600 199.600 186.700 199.600 186.600 V 180.800 C 199.600 180.700 199.500 180.800 199.600 180.800 H 202.500 C 202.555 180.800 202.600 180.755 202.600 180.700 V 174.700 C 202.600 174.645 202.555 174.600 202.500 174.600 H 199.600 C 199.500 174.600 199.600 174.700 199.600 174.600 V 168.800 C 199.600 168.700 199.500 168.800 199.600 168.800 H 202.500 C 202.555 168.800 202.600 168.755 202.600 168.700 V 162.700 C 202.600 162.645 202.555 162.600 202.500 162.600 H 199.600 C 199.500 162.600 199.600 162.700 199.600 162.600 V 156.800 C 199.600 156.700 199.500 156.800 199.600 156.800 H 202.500 C 202.555 156.800 202.600 156.755 202.600 156.700 V 150.700 C 202.600 150.645 202.555 150.600 202.500 150.600 H 199.600 C 199.500 150.600 199.600 150.700 199.600 150.600 V 144.800 C 199.600 144.700 199.500 144.800 199.600 144.800 H 202.500 C 202.555 144.800 202.600 144.755 202.600 144.700 V 138.700 C 202.600 138.645 202.555 138.600 202.500 138.600 H 199.600 C 199.500 138.600 199.600 138.700 199.600 138.600 V 132.800 C 199.600 132.700 199.500 132.800 199.600 132.800 H 202.500 C 202.555 132.800 202.600 132.755 202.600 132.700 V 126.700 C 202.600 126.645 202.555 126.600 202.500 126.600 H 199.600 C 199.500 126.600 199.600 126.700 199.600 126.600 V 120.800 C 199.600 120.700 199.500 120.800 199.600 120.800 H 202.500 C 202.555 120.800 202.600 120.755 202.600 120.700 V 114.700 C 202.600 114.645 202.555 114.600 202.500 114.600 H 199.600 C 199.500 114.600 199.600 114.700 199.600 114.600 V 108.800 C 199.600 108.700 199.500 108.800 199.600 108.800 H 202.500 C 202.555 108.800 202.600 108.755 202.600 108.700 V 102.700 C 202.600 102.645 202.555 102.600 202.500 102.600 H 199.600 C 199.500 102.600 199.600 102.700 199.600 102.600 V 96.800 C 199.600 96.700 199.500 96.800 199.600 96.800 H 202.500 C 202.555 96.800 202.600 96.755 202.600 96.700 V 90.700 C 202.600 90.645 202.555 90.600 202.500 90.600 H 199.600 C 199.500 90.600 199.600 90.700 199.600 90.600 V 84.800 C 199.600 84.700 199.500 84.800 199.600 84.800 H 202.500 C 202.555 84.800 202.600 84.755 202.600 84.700 V 74.700 C 202.600 74.645 202.555 74.600 202.500 74.600 H 199.500 H 142.600 H 139.600 C 139.545 74.600 139.500 74.645 139.500 74.700 V 84.700 C 139.500 84.755 139.545 84.800 139.600 84.800 H 142.500 C 142.600 84.800 142.500 84.700 142.500 84.800 V 90.600 C 142.500 90.700 142.600 90.600 142.500 90.600 H 139.600 C 139.545 90.600 139.500 90.645 139.500 90.700 V 96.700 C 139.500 96.755 139.545 96.800 139.600 96.800 H 142.500 C 142.600 96.800 142.500 96.700 142.500 96.800 V 102.600 C 142.500 102.700 142.600 102.600 142.500 102.600 H 139.600 C 139.545 102.600 139.500 102.645 139.500 102.700 V 108.700 C 139.500 108.755 139.545 108.800 139.600 108.800 H 142.500 C 142.600 108.800 142.500 108.700 142.500 108.800 V 114.600 C 142.500 114.700 142.600 114.600 142.500 114.600 H 139.600 C 139.545 114.600 139.500 114.645 139.500 114.700 V 120.700 C 139.500 120.755 139.545 120.800 139.600 120.800 H 142.500 C 142.600 120.800 142.500 120.700 142.500 120.800 V 126.600 C 142.500 126.700 142.600 126.600 142.500 126.600 H 139.600 C 139.545 126.600 139.500 126.645 139.500 126.700 V 132.700 C 139.500 132.755 139.545 132.800 139.600 132.800 H 142.500 C 142.600 132.800 142.500 132.700 142.500 132.800 V 138.600 C 142.500 138.700 142.600 138.600 142.500 138.600 H 139.600 C 139.545 138.600 139.500 138.645 139.500 138.700 V 144.700 C 139.500 144.755 139.545 144.800 139.600 144.800 H 142.500 C 142.600 144.800 142.500 144.700 142.500 144.800 V 150.600 C 142.500 150.700 142.600 150.600 142.500 150.600 H 139.600 C 139.545 150.600 139.500 150.645 139.500 150.700 V 156.700 C 139.500 156.755 139.545 156.800 139.600 156.800 H 142.500 C 142.600 156.800 142.500 156.700 142.500 156.800 V 162.600 C 142.500 162.700 142.600 162.600 142.500 162.600 H 139.600 C 139.545 162.600 139.500 162.645 139.500 162.700 V 168.700 C 139.500 168.755 139.545 168.800 139.600 168.800 H 142.500 C 142.600 168.800 142.500 168.700 142.500 168.800 V 174.600 C 142.500 174.700 142.600 174.600 142.500 174.600 H 139.600 C 139.545 174.600 139.500 174.645 139.500 174.700 V 180.700 C 139.500 180.755 139.545 180.800 139.600 180.800 H 142.500 C 142.600 180.800 142.500 180.700 142.500 180.800 V 186.600 C 142.500 186.700 142.600 186.600 142.500 186.600 H 139.600 C 139.545 186.600 139.500 186.645 139.500 186.700 V 196.700 C 139.500 196.755 139.545 196.800 139.600 196.800 H 142.600 Z" stroke="rgb(0,0,0)" stroke-width="0.20" />
</g>
<g id="p-8" style="fill:none;stroke-linecap:round;stroke-linejoin:round;">
  <path d="M 207.200 196.800 H 214.550 C 214.650 196.800 214.550 196.700 214.550 196.800 V 199.700 C 214.550 199.755 214.595 199.800 214.650 199.800 H 220.650 C 220.705 199.800 220.750 199.755 220.750 199.700 V 196.800 C 220.750 196.700 220.650 196.800 220.750 196.800 H 226.550 C 226.650 196.800 226.550 196.700 226.550 196.800 V 199.700 C 226.550 199.755 226.595 199.800 226.650 199.800 H 232.650 C 232.705 199.800 232.750 199.755 232.750 199.700 V 196.800 C 232.750 196.700 232.650 196.800 232.750 196.800 H 238.550 C 238.650 196.800 238.550 196.700 238.550 196.800 V 199.700 C 238.550 199.755 238.595 199.800 238.650 199.800 H 244.650 C 244.705 199.800 244.750 199.755 244.750 199.700 V 196.800 C 244.750 196.700 244.650 196.800 244.750 196.800 H 250.550 C 250.650 196.800 250.550 196.700 250.550 196.800 V 199.700 C 250.550 199.755 250.595 199.800 250.650 199.800 H 256.650 C 256.705 199.800 256.750 199.755 256.750 199.700 V 196.800 C 256.750 196.700 256.650 196.800 256.750 196.800 H 264.100 C 264.155 196.800 264.200 196.755 264.200 196.700 V 186.800 C 264.200 186.700 264.100 186.800 264.200 186.800 H 267.100 C 267.155 186.800 267.200 186.755 267.200 186.700 V 180.700 C 267.200 180.645 267.155 180.600 267.100 180.600 H 264.200 C 264.100 180.600 264.200 180.700 264.200 180.600 V 174.800 C 264.200 174.700 264.100 174.800 264.200 174.800 H 267.100 C 267.155 174.800 267.200 174.755 267.200 174.700 V 168.700 C 267.200 168.645 267.155 168.600 267.100 168.600 H 264.200 C 264.100 168.600 264.200 168.700 264.200 168.600 V 162.800 C 264.200 162.700 264.100 162.800 264.200 162.800 H 267.100 C 267.155 162.800 267.200 162.755 267.200 162.700 V 156.700 C 267.200 156.645 267.155 156.600 267.100 156.600 H 264.200 C 264.100 156.600 264.200 156.700 264.200 156.600 V 150.800 C 264.200 150.700 264.100 150.800 264.200 150.800 H 267.100 C 267.155 150.800 267.200 150.755 267.200 150.700 V 144.700 C 267.200 144.645 267.155 144.600 267.100 144.600 H 264.200 C 264.100 144.600 264.200 144.700 264.200 144.600 V 138.800 C 264.200 138.700 264.100 138.800 264.200 138.800 H 267.100 C 267.155 138.800 267.200 138.755 267.200 138.700 V 132.700 C 267.200 132.645 267.155 132.600 267.100 132.600 H 264.200 C 264.100 132.600 264.200 132.700 264.200 132.600 V 126.800 C 264.200 126.700 264.100 126.800 264.200 126.800 H 267.100 C 267.155 126.800 267.200 126.755 267.200 126.700 V 120.700 C 267.200 120.645 267.155 120.600 267.100 120.600 H 264.200 C 264.100 120.600 264.200 120.700 264.200 120.600 V 114.800 C 264.200 114.700 264.100 114.800 264.200 114.800 H 267.100 C 267.155 114.800 267.200 114.755 267.200 114.700 V 108.700 C 267.200 108.645 267.155 108.600 267.100 108.600 H 264.200 C 264.100 108.600 264.200 108.700 264.200 108.600 V 102.800 C 264.200 102.700 264.100 102.800 264.200 102.800 H 267.100 C 267.155 102.800 267.200 102.755 267.200 102.700 V 96.700 C 267.200 96.645 267.155 96.600 267.100 96.600 H 264.200 C 264.100 96.600 264.200 96.700 264.200 96.600 V 90.800 C 264.200 90.700 264.100 90.800 264.200 90.800 H 267.100 C 267.155 90.800 267.200 90.755 267.200 90.700 V 84.700 C 267.200 84.645 267.155 84.600 267.100 84.600 H 264.200 C 264.100 84.600 264.200 84.700 264.200 84.600 V 74.700 C 264.200 74.645 264.155 74.600 264.100 74.600 H 207.200 C 207.145 74.600 207.100 74.645 207.100 74.700 V 84.600 C 207.100 84.700 207.200 84.600 207.100 84.600 H 204.200 C 204.145 84.600 204.100 84.645 204.100 84.700 V 90.700 C 204.100 90.755 204.145 90.800 204.200 90.800 H 207.100 C 207.200 90.800 207.100 90.700 207.100 90.800 V 96.600 C 207.100 96.700 207.200 96.600 207.100 96.600 H 204.200 C 204.145 96.600 204.100 96.645 204.100 96.700 V 102.700 C 204.100 102.755 204.145 102.800 204.200 102.800 H 207.100 C 207.200 102.800 207.100 102.700 207.100 102.800 V 108.600 C 207.100 108.700 207.200 108.600 207.100 108.600 H 204.200 C 204.145 108.600 204.100 108.645 204.100 108.700 V 114.700 C 204.100 114.755 204.145 114.800 204.200 114.800 H 207.100 C 207.200 114.800 207.100 114.700 207.100 114.800 V 120.600 C 207.100 120.700 207.200 120.600 207.100 120.600 H 204.200 C 204.145 120.600 204.100 120.645 204.100 120.700 V 126.700 C 204.100 126.755 204.145 126.800 204.200 126.800 H 207.100 C 207.200 126.800 207.100 126.700 207.100 126.800 V 132.600 C 207.100 132.700 207.200 132.600 207.100 132.600 H 204.200 C 204.145 132.600 204.100 132.645 204.100 132.700 V 138.700 C 204.100 138.755 204.145 138.800 204.200 138.800 H 207.100 C 207.200 138.800 207.100 138.700 207.100 138.800 V 144.600 C 207.100 144.700 207.200 144.600 207.100 144.600 H 204.200 C 204.145 144.600 204.100 144.645 204.100 144.700 V 150.700 C 204.100 150.755 204.145 150.800 204.200 150.800 H 207.100 C 207.200 150.800 207.100 150.700 207.100 150.800 V 156.600 C 207.100 156.700 207.200 156.600 207.100 156.600 H 204.200 C 204.145 156.600 204.100 156.645 204.100 156.700 V 162.700 C 204.100 162.755 204.145 162.800 204.200 162.800 H 207.100 C 207.200 162.800 207.100 162.700 207.100 162.800 V 168.600 C 207.100 168.700 207.200 168.600 207.100 168.600 H 204.200 C 204.145 168.600 204.100 168.645 204.100 168.700 V 174.700 C 204.100 174.755 204.145 174.800 204.200 174.800 H 207.100 C 207.200 174.800 207.100 174.700 207.100 174.800 V 180.600 C 207.100 180.700 207.200 180.600 207.100 180.600 H 204.200 C 204.145 180.600 204.100 180.645 204.100 180.700 V 186.700 C 204.100 186.755 204.145 186.800 204.200 186.800 H 207.100 C 207.200 186.800 207.100 186.700 207.100 186.800 V 196.700 C 207.100 196.755 207.145 196.800 207.200 196.800 Z" stroke="rgb(0,0,0)" stroke-width="0.20" />
</g>
<g id="p-9" style="fill:none;stroke-linecap:round;stroke-linejoin:round;">
  <path d="M 29.850 69.450 H 26.950 C 26.850 69.450 26.950 69.550 26.950 69.450 V 66.650 C 26.950 66.550 26.850 66.650 26.950 66.650 H 32.750 C 32.850 66.650 32.750 66.550 32.750 66.650 V 69.450 C 32.750 69.550 32.850 69.450 32.750 69.450 H 29.850 Z" stroke="rgb(0,0,255)" stroke-width="0.20" />
  <path d="M 41.850 69.450 H 38.950 C 38.850 69.450 38.950 69.550 38.950 69.450 V 66.650 C 38.950 66.550 38.850 66.650 38.950 66.650 H 44.750 C 44.850 66.650 44.750 66.550 44.750 66.650 V 69.450 C 44.750 69.550 44.850 69.450 44.750 69.450 H 41.850 Z" stroke="rgb(0,0,255)" stroke-width="0.20" />
  <path d="M 53.850 69.450 H 50.950 C 50.850 69.450 50.950 69.550 50.950 69.450 V 66.650 C 50.950 66.550 50.850 66.650 50.950 66.650 H 56.750 C 56.850 66.650 56.750 66.550 56.750 66.650 V 69.450 C 56.750 69.550 56.850 69.450 56.750 69.450 H 53.850 Z" stroke="rgb(0,0,255)" stroke-width="0.20" />
  <path d="M 16.850 73.100 H 66.850 H 73.300 C 73.355 73.100 73.400 73.055 73.400 73.000 V 66.550 V 16.550 V 10.100 C 73.400 10.045 73.355 10.000 73.300 10.000 H 66.850 H 16.850 H 10.400 C 10.345 10.000 10.300 10.045 10.300 10.100 V 16.550 V 66.550 V 73.000 C 10.300 73.055 10.345 73.100 10.400 73.100 H 16.850 Z" stroke="rgb(0,0,0)" stroke-width="0.20" />
  <path d="M 69.750 53.550 V 56.450 C 69.750 56.550 69.850 56.450 69.750 56.450 H 66.950 C 66.850 56.450 66.950 56.550 66.950 56.450 V 50.650 C 66.950 50.550 66.850 50.650 66.950 50.650 H 69.750 C 69.850 50.650 69.750 50.550 69.750 50.650 V 53.550 Z" stroke="rgb(0,0,255)" stroke-width="0.20" />
  <path d="M 69.750 41.550 V 44.450 C 69.750 44.550 69.850 44.450 69.750 44.450 H 66.950 C 66.850 44.450 66.950 44.550 66.950 44.450 V 38.650 C 66.950 38.550 66.850 38.650 66.950 38.650 H 69.750 C 69.850 38.650 69.750 38.550 69.750 38.650 V 41.550 Z" stroke="rgb(0,0,255)" stroke-width="0.20" />
  <path d="M 69.750 29.550 V 32.450 C 69.750 32.550 69.850 32.450 69.750 32.450 H 66.950 C 66.850 32.450 66.950 32.550 66.950 32.450 V 26.650 C 66.950 26.550 66.850 26.650 66.950 26.650 H 69.750 C 69.850 26.650 69.750 26.550 69.750 26.650 V 29.550 Z" stroke="rgb(0,0,255)" stroke-width="0.20" />
  <path d="M 53.850 13.650 H 56.750 C 56.850 13.650 56.750 13.550 56.750 13.650 V 16.450 C 56.750 16.550 56.850 16.450 56.750 16.450 H 50.950 C 50.850 16.450 50.950 16.550 50.950 16.450 V 13.650 C 50.950 13.550 50.850 13.650 50.950 13.650 H 53.850 Z" stroke="rgb(0,0,255)" stroke-width="0.20" />
  <path d="M 41.850 13.650 H 44.750 C 44.850 13.650 44.750 13.550 44.750 13.650 V 16.450 C 44.750 16.550 44.850 16.450 44.750 16.450 H 38.950 C 38.850 16.450 38.950 16.550 38.950 16.450 V 13.650 C 38.950 13.550 38.850 13.650 38.950 13.650 H 41.850 Z" stroke="rgb(0,0,255)" stroke-width="0.20" />
  <path d="M 29.850 13.650 H 32.750 C 32.850 13.650 32.750 13.550 32.750 13.650 V 16.450 C 32.750 16.550 32.850 16.450 32.750 16.450 H 26.950 C 26.850 16.450 26.950 16.550 26.950 16.450 V 13.650 C 26.950 13.550 26.850 13.650 26.950 13.650 H 29.850 Z" stroke="rgb(0,0,255)" stroke-width="0.20" />
  <path d="M 13.950 29.550 V 26.650 C 13.950 26.550 13.850 26.650 13.950 26.650 H 16.750 C 16.850 26.650 16.750 26.550 16.750 26.650 V 32.450 C 16.750 32.550 16.850 32.450 16.750 32.450 H 13.950 C 13.850 32.450 13.950 32.550 13.950 32.450 V 29.550 Z" stroke="rgb(0,0,255)" stroke-width="0.20" />
  <path d="M 13.950 41.550 V 38.650 C 13.950 38.550 13.850 38.650 13.950 38.650 H 16.750 C 16.850 38.650 16.750 38.550 16.750 38.650 V 44.450 C 16.750 44.550 16.850 44.450 16.750 44.450 H 13.950 C 13.850 44.450 13.950 44.550 13.950 44.450 V 41.550 Z" stroke="rgb(0,0,255)" stroke-width="0.20" />
  <path d="M 13.950 53.550 V 50.650 C 13.950 50.550 13.850 50.650 13.950 50.650 H 16.750 C 16.850 50.650 16.750 50.550 16.750 50.650 V 56.450 C 16.750 56.550 16.850 56.450 16.750 56.450 H 13.950 C 13.850 56.450 13.950 56.550 13.950 56.450 V 53.550 Z" stroke="rgb(0,0,255)" stroke-width="0.20" />
</g>
<g id="p-10" style="fill:none;stroke-linecap:round;stroke-linejoin:round;">
  <path d="M 78.000 73.100 H 85.450 C 85.505 73.100 85.550 73.055 85.550 73.000 V 70.100 C 85.550 70.000 85.450 70.100 85.550 70.100 H 91.350 C 91.450 70.100 91.350 70.000 91.350 70.100 V 73.000 C 91.350 73.055 91.395 73.100 91.450 73.100 H 97.450 C 97.505 73.100 97.550 73.055 97.550 73.000 V 70.100 C 97.550 70.000 97.450 70.100 97.550 70.100 H 103.350 C 103.450 70.100 103.350 70.000 103.350 70.100 V 73.000 C 103.350 73.055 103.395 73.100 103.450 73.100 H 109.450 C 109.505 73.100 109.550 73.055 109.550 73.000 V 70.100 C 109.550 70.000 109.450 70.100 109.550 70.100 H 115.350 C 115.450 70.100 115.350 70.000 115.350 70.100 V 73.000 C 115.350 73.055 115.395 73.100 115.450 73.100 H 121.450 C 121.505 73.100 121.550 73.055 121.550 73.000 V 70.100 C 121.550 70.000 121.450 70.100 121.550 70.100 H 127.350 C 127.450 70.100 127.350 70.000 127.350 70.100 V 73.000 C 127.350 73.055 127.395 73.100 127.450 73.100 H 134.900 H 137.900 C 137.955 73.100 138.000 73.055 138.000 73.000 V 70.000 V 62.550 C 138.000 62.495 137.955 62.450 137.900 62.450 H 135.000 C 134.900 62.450 135.000 62.550 135.000 62.450 V 56.650 C 135.000 56.550 134.900 56.650 135.000 56.650 H 137.900 C 137.955 56.650 138.000 56.605 138.000 56.550 V 50.550 C 138.000 50.495 137.955 50.450 137.900 50.450 H 135.000 C 134.900 50.450 135.000 50.550 135.000 50.450 V 44.650 C 135.000 44.550 134.900 44.650 135.000 44.650 H 137.900 C 137.955 44.650 138.000 44.605 138.000 44.550 V 38.550 C 138.000 38.495 137.955 38.450 137.900 38.450 H 135.000 C 134.900 38.450 135.000 38.550 135.000 38.450 V 32.650 C 135.000 32.550 134.900 32.650 135.000 32.650 H 137.900 C 137.955 32.650 138.000 32.605 138.000 32.550 V 26.550 C 138.000 26.495 137.955 26.450 137.900 26.450 H 135.000 C 134.900 26.450 135.000 26.550 135.000 26.450 V 20.650 C 135.000 20.550 134.900 20.650 135.000 20.650 H 137.900 C 137.955 20.650 138.000 20.605 138.000 20.550 V 13.100 V 10.100 C 138.000 10.045 137.955 10.000 137.900 10.000 H 134.900 H 127.450 C 127.395 10.000 127.350 10.045 127.350 10.100 V 13.000 C 127.350 13.100 127.450 13.000 127.350 13.000 H 121.550 C 121.450 13.000 121.550 13.100 121.550 13.000 V 10.100 C 121.550 10.045 121.505 10.000 121.450 10.000 H 115.450 C 115.395 10.000 115.350 10.045 115.350 10.100 V 13.000 C 115.350 13.100 115.450 13.000 115.350 13.000 H 109.550 C 109.450 13.000 109.550 13.100 109.550 13.000 V 10.100 C 109.550 10.045 109.505 10.000 109.450 10.000 H 103.450 C 103.395 10.000 103.350 10.045 103.350 10.100 V 13.000 C 103.350 13.100 103.450 13.000 103.350 13.000 H 97.550 C 97.450 13.000 97.550 13.100 97.550 13.000 V 10.100 C 97.550 10.045 97.505 10.000 97.450 10.000 H 91.450 C 91.395 10.000 91.350 10.045 91.350 10.100 V 13.000 C 91.350 13.100 91.450 13.000 91.350 13.000 H 85.550 C 85.450 13.000 85.550 13.100 85.550 13.000 V 10.100 C 85.550 10.045 85.505 10.000 85.450 10.000 H 78.000 H 75.000 C 74.945 10.000 74.900 10.045 74.900 10.100 V 13.100 V 20.550 C 74.900 20.605 74.945 20.650 75.000 20.650 H 77.900 C 78.000 20.650 77.900 20.550 77.900 20.650 V 26.450 C 77.900 26.550 78.000 26.450 77.900 26.450 H 75.000 C 74.945 26.450 74.900 26.495 74.900 26.550 V 32.550 C 74.900 32.605 74.945 32.650 75.000 32.650 H 77.900 C 78.000 32.650 77.900 32.550 77.900 32.650 V 38.450 C 77.900 38.550 78.000 38.450 77.900 38.450 H 75.000 C 74.945 38.450 74.900 38.495 74.900 38.550 V 44.550 C 74.900 44.605 74.945 44.650 75.000 44.650 H 77.900 C 78.000 44.650 77.900 44.550 77.900 44.650 V 50.450 C 77.900 50.550 78.000 50.450 77.900 50.450 H 75.000 C 74.945 50.450 74.900 50.495 74.900 50.550 V 56.550 C 74.900 56.605 74.945 56.650 75.000 56.650 H 77.900 C 78.000 56.650 77.900 56.550 77.900 56.650 V 62.450 C 77.900 62.550 78.000 62.450 77.900 62.450 H 75.000 C 74.945 62.450 74.900 62.495 74.900 62.550 V 70.000 V 73.000 C 74.900 73.055 74.945 73.100 75.000 73.100 H 78.000 Z" stroke="rgb(0,0,0)" stroke-width="0.20" />
</g>
</svg>