<?xml version='1.0' encoding='utf-8'?>
<svg width="765.20mm" height="280.20mm" viewBox="0.0 0.0 765.20 280.20" xmlns="http://www.w3.org/2000/svg" xmlns:dc="http://purl.org/dc/elements/1.1/" xmlns:cc="http://creativecommons.org/ns#" xmlns:rdf="http://www.w3.org/1999/02/22-rdf-syntax-ns#" xmlns:svg="http://www.w3.org/2000/svg" xmlns:xlink="http://www.w3.org/1999/xlink" xmlns:inkscape="http://www.inkscape.org/namespaces/inkscape">
<!--
TwoPiece - A two piece box where top slips over the bottom half to form 
       the enclosure.
    



Set *hi* larger than *h* to leave gap between the inner and outer shell. This can be used to make opening the box easier. Set *hi* smaller to only have a small inner ridge that will allow the content to be more visible after opening.

![Bottom view](static/samples/TwoPiece2.jpg)



Created with Boxes.py (https://festi.info/boxes.py)
Creation date: 2023-02-01 21:09:05
Command line (remove spaces between dashes): boxes TwoPiece - -FingerJoint_angle=90.0 - -FingerJoint_style=rectangular - -FingerJoint_surroundingspaces=2.0 - -FingerJoint_bottom_lip=0.0 - -FingerJoint_edge_width=1.0 - -FingerJoint_extra_length=0.0 - -FingerJoint_finger=2.0 - -FingerJoint_play=0.0 - -FingerJoint_space=2.0 - -FingerJoint_width=1.0 - -x=152.0 - -y=192.0 - -h=17.0 - -hi=0.0 - -outside=0 - -play=0.15 - -thickness=3.0 - -format=svg - -tabs=0.0 - -debug=0 - -labels=0 - -labels=1 - -reference=100 - -inner_corners=loop - -burn=0.1
Url: http://localhost:8000/TwoPiece?FingerJoint_angle=90.0&FingerJoint_style=rectangular&FingerJoint_surroundingspaces=2.0&FingerJoint_bottom_lip=0.0&FingerJoint_edge_width=1.0&FingerJoint_extra_length=0.0&FingerJoint_finger=2.0&FingerJoint_play=0.0&FingerJoint_space=2.0&FingerJoint_width=1.0&x=152.0&y=192.0&h=17.0&hi=0.0&outside=0&play=0.15&thickness=3.0&format=svg&tabs=0.0&debug=0&labels=0&labels=1&reference=100&inner_corners=loop&burn=0.1&render=2
SettingsUrl: http://localhost:8000/TwoPiece?FingerJoint_angle=90.0&FingerJoint_style=rectangular&FingerJoint_surroundingspaces=2.0&FingerJoint_bottom_lip=0.0&FingerJoint_edge_width=1.0&FingerJoint_extra_length=0.0&FingerJoint_finger=2.0&FingerJoint_play=0.0&FingerJoint_space=2.0&FingerJoint_width=1.0&x=152.0&y=192.0&h=17.0&hi=0.0&outside=0&play=0.15&thickness=3.0&format=svg&tabs=0.0&debug=0&labels=0&labels=1&reference=100&inner_corners=loop&burn=0.1&render=2
-->
<title>TwoPiece</title>
<metadata>
<rdf:RDF><cc:Work>
<dc:title>Box - TwoPiece</dc:title>
<dc:date>2023-02-01 21:09:05</dc:date>
<dc:source>http://localhost:8000/TwoPiece?FingerJoint_angle=90.0&amp;FingerJoint_style=rectangular&amp;FingerJoint_surroundingspaces=2.0&amp;FingerJoint_bottom_lip=0.0&amp;FingerJoint_edge_width=1.0&amp;FingerJoint_extra_length=0.0&amp;FingerJoint_finger=2.0&amp;FingerJoint_play=0.0&amp;FingerJoint_space=2.0&amp;FingerJoint_width=1.0&amp;x=152.0&amp;y=192.0&amp;h=17.0&amp;hi=0.0&amp;outside=0&amp;play=0.15&amp;thickness=3.0&amp;format=svg&amp;tabs=0.0&amp;debug=0&amp;labels=0&amp;labels=1&amp;reference=100&amp;inner_corners=loop&amp;burn=0.1&amp;render=2</dc:source>
<dc:description>A two piece box where top slips over the bottom half to form 
       the enclosure.
    


Set *hi* larger than *h* to leave gap between the inner and outer shell. This can be used to make opening the box easier. Set *hi* smaller to only have a small inner ridge that will allow the content to be more visible after opening.

![Bottom view](static/samples/TwoPiece2.jpg)


Created with Boxes.py (https://festi.info/boxes.py)
Command line: boxes TwoPiece --FingerJoint_angle=90.0 --FingerJoint_style=rectangular --FingerJoint_surroundingspaces=2.0 --FingerJoint_bottom_lip=0.0 --FingerJoint_edge_width=1.0 --FingerJoint_extra_length=0.0 --FingerJoint_finger=2.0 --FingerJoint_play=0.0 --FingerJoint_space=2.0 --FingerJoint_width=1.0 --x=152.0 --y=192.0 --h=17.0 --hi=0.0 --outside=0 --play=0.15 --thickness=3.0 --format=svg --tabs=0.0 --debug=0 --labels=0 --labels=1 --reference=100 --inner_corners=loop --burn=0.1
Url: http://localhost:8000/TwoPiece?FingerJoint_angle=90.0&amp;FingerJoint_style=rectangular&amp;FingerJoint_surroundingspaces=2.0&amp;FingerJoint_bottom_lip=0.0&amp;FingerJoint_edge_width=1.0&amp;FingerJoint_extra_length=0.0&amp;FingerJoint_finger=2.0&amp;FingerJoint_play=0.0&amp;FingerJoint_space=2.0&amp;FingerJoint_width=1.0&amp;x=152.0&amp;y=192.0&amp;h=17.0&amp;hi=0.0&amp;outside=0&amp;play=0.15&amp;thickness=3.0&amp;format=svg&amp;tabs=0.0&amp;debug=0&amp;labels=0&amp;labels=1&amp;reference=100&amp;inner_corners=loop&amp;burn=0.1&amp;render=2
SettingsUrl: http://localhost:8000/TwoPiece?FingerJoint_angle=90.0&amp;FingerJoint_style=rectangular&amp;FingerJoint_surroundingspaces=2.0&amp;FingerJoint_bottom_lip=0.0&amp;FingerJoint_edge_width=1.0&amp;FingerJoint_extra_length=0.0&amp;FingerJoint_finger=2.0&amp;FingerJoint_play=0.0&amp;FingerJoint_space=2.0&amp;FingerJoint_width=1.0&amp;x=152.0&amp;y=192.0&amp;h=17.0&amp;hi=0.0&amp;outside=0&amp;play=0.15&amp;thickness=3.0&amp;format=svg&amp;tabs=0.0&amp;debug=0&amp;labels=0&amp;labels=1&amp;reference=100&amp;inner_corners=loop&amp;burn=0.1&amp;render=2
</dc:description>
</cc:Work></rdf:RDF></metadata>
<g id="p-0" style="fill:none;stroke-linecap:round;stroke-linejoin:round;">
  <path d="M 10.400 270.200 H 110.400 V 260.200 H 10.400 V 270.200 Z" stroke="rgb(0,0,0)" stroke-width="0.20" />
  <text transform="matrix( 1.000 0.000 0.000 1.000 60.400 261.200 )" style="font-family: sans-serif ; font-weight: normal; font-style: normal; fill: rgb(255,0,0)" font-size="8px" text-anchor="middle" dominant-baseline="hanging">100mm, burn:0.10mm</text>
</g>
<g id="p-1" style="fill:none;stroke-linecap:round;stroke-linejoin:round;">
  <path d="M 13.400 255.500 H 20.300 C 20.400 255.500 20.300 255.400 20.300 255.500 V 258.400 C 20.300 258.455 20.345 258.500 20.400 258.500 H 26.400 C 26.455 258.500 26.500 258.455 26.500 258.400 V 255.500 C 26.500 255.400 26.400 255.500 26.500 255.500 H 32.300 C 32.400 255.500 32.300 255.400 32.300 255.500 V 258.400 C 32.300 258.455 32.345 258.500 32.400 258.500 H 38.400 C 38.455 258.500 38.500 258.455 38.500 258.400 V 255.500 C 38.500 255.400 38.400 255.500 38.500 255.500 H 44.300 C 44.400 255.500 44.300 255.400 44.300 255.500 V 258.400 C 44.300 258.455 44.345 258.500 44.400 258.500 H 50.400 C 50.455 258.500 50.500 258.455 50.500 258.400 V 255.500 C 50.500 255.400 50.400 255.500 50.500 255.500 H 56.300 C 56.400 255.500 56.300 255.400 56.300 255.500 V 258.400 C 56.300 258.455 56.345 258.500 56.400 258.500 H 62.400 C 62.455 258.500 62.500 258.455 62.500 258.400 V 255.500 C 62.500 255.400 62.400 255.500 62.500 255.500 H 68.300 C 68.400 255.500 68.300 255.400 68.300 255.500 V 258.400 C 68.300 258.455 68.345 258.500 68.400 258.500 H 74.400 C 74.455 258.500 74.500 258.455 74.500 258.400 V 255.500 C 74.500 255.400 74.400 255.500 74.500 255.500 H 80.300 C 80.400 255.500 80.300 255.400 80.300 255.500 V 258.400 C 80.300 258.455 80.345 258.500 80.400 258.500 H 86.400 C 86.455 258.500 86.500 258.455 86.500 258.400 V 255.500 C 86.500 255.400 86.400 255.500 86.500 255.500 H 92.300 C 92.400 255.500 92.300 255.400 92.300 255.500 V 258.400 C 92.300 258.455 92.345 258.500 92.400 258.500 H 98.400 C 98.455 258.500 98.500 258.455 98.500 258.400 V 255.500 C 98.500 255.400 98.400 255.500 98.500 255.500 H 104.300 C 104.400 255.500 104.300 255.400 104.300 255.500 V 258.400 C 104.300 258.455 104.345 258.500 104.400 258.500 H 110.400 C 110.455 258.500 110.500 258.455 110.500 258.400 V 255.500 C 110.500 255.400 110.400 255.500 110.500 255.500 H 116.300 C 116.400 255.500 116.300 255.400 116.300 255.500 V 258.400 C 116.300 258.455 116.345 258.500 116.400 258.500 H 122.400 C 122.455 258.500 122.500 258.455 122.500 258.400 V 255.500 C 122.500 255.400 122.400 255.500 122.500 255.500 H 128.300 C 128.400 255.500 128.300 255.400 128.300 255.500 V 258.400 C 128.300 258.455 128.345 258.500 128.400 258.500 H 134.400 C 134.455 258.500 134.500 258.455 134.500 258.400 V 255.500 C 134.500 255.400 134.400 255.500 134.500 255.500 H 140.300 C 140.400 255.500 140.300 255.400 140.300 255.500 V 258.400 C 140.300 258.455 140.345 258.500 140.400 258.500 H 146.400 C 146.455 258.500 146.500 258.455 146.500 258.400 V 255.500 C 146.500 255.400 146.400 255.500 146.500 255.500 H 152.300 C 152.400 255.500 152.300 255.400 152.300 255.500 V 258.400 C 152.300 258.455 152.345 258.500 152.400 258.500 H 158.400 C 158.455 258.500 158.500 258.455 158.500 258.400 V 255.500 C 158.500 255.400 158.400 255.500 158.500 255.500 H 165.400 H 168.400 C 168.455 255.500 168.500 255.455 168.500 255.400 V 249.900 C 168.500 249.845 168.455 249.800 168.400 249.800 H 165.500 C 165.400 249.800 165.500 249.900 165.500 249.800 V 244.000 C 165.500 243.900 165.400 244.000 165.500 244.000 H 168.400 C 168.455 244.000 168.500 243.955 168.500 243.900 V 238.400 C 168.500 238.345 168.455 238.300 168.400 238.300 H 165.400 H 13.400 H 10.400 C 10.345 238.300 10.300 238.345 10.300 238.400 V 243.900 C 10.300 243.955 10.345 244.000 10.400 244.000 H 13.300 C 13.400 244.000 13.300 243.900 13.300 244.000 V 249.800 C 13.300 249.900 13.400 249.800 13.300 249.800 H 10.400 C 10.345 249.800 10.300 249.845 10.300 249.900 V 255.400 C 10.300 255.455 10.345 255.500 10.400 255.500 H 13.400 Z" stroke="rgb(0,0,0)" stroke-width="0.20" />
</g>
<g id="p-2" style="fill:none;stroke-linecap:round;stroke-linejoin:round;">
  <path d="M 173.100 255.500 H 182.000 C 182.100 255.500 182.000 255.400 182.000 255.500 V 258.400 C 182.000 258.455 182.045 258.500 182.100 258.500 H 188.100 C 188.155 258.500 188.200 258.455 188.200 258.400 V 255.500 C 188.200 255.400 188.100 255.500 188.200 255.500 H 194.000 C 194.100 255.500 194.000 255.400 194.000 255.500 V 258.400 C 194.000 258.455 194.045 258.500 194.100 258.500 H 200.100 C 200.155 258.500 200.200 258.455 200.200 258.400 V 255.500 C 200.200 255.400 200.100 255.500 200.200 255.500 H 206.000 C 206.100 255.500 206.000 255.400 206.000 255.500 V 258.400 C 206.000 258.455 206.045 258.500 206.100 258.500 H 212.100 C 212.155 258.500 212.200 258.455 212.200 258.400 V 255.500 C 212.200 255.400 212.100 255.500 212.200 255.500 H 218.000 C 218.100 255.500 218.000 255.400 218.000 255.500 V 258.400 C 218.000 258.455 218.045 258.500 218.100 258.500 H 224.100 C 224.155 258.500 224.200 258.455 224.200 258.400 V 255.500 C 224.200 255.400 224.100 255.500 224.200 255.500 H 230.000 C 230.100 255.500 230.000 255.400 230.000 255.500 V 258.400 C 230.000 258.455 230.045 258.500 230.100 258.500 H 236.100 C 236.155 258.500 236.200 258.455 236.200 258.400 V 255.500 C 236.200 255.400 236.100 255.500 236.200 255.500 H 242.000 C 242.100 255.500 242.000 255.400 242.000 255.500 V 258.400 C 242.000 258.455 242.045 258.500 242.100 258.500 H 248.100 C 248.155 258.500 248.200 258.455 248.200 258.400 V 255.500 C 248.200 255.400 248.100 255.500 248.200 255.500 H 254.000 C 254.100 255.500 254.000 255.400 254.000 255.500 V 258.400 C 254.000 258.455 254.045 258.500 254.100 258.500 H 260.100 C 260.155 258.500 260.200 258.455 260.200 258.400 V 255.500 C 260.200 255.400 260.100 255.500 260.200 255.500 H 266.000 C 266.100 255.500 266.000 255.400 266.000 255.500 V 258.400 C 266.000 258.455 266.045 258.500 266.100 258.500 H 272.100 C 272.155 258.500 272.200 258.455 272.200 258.400 V 255.500 C 272.200 255.400 272.100 255.500 272.200 255.500 H 278.000 C 278.100 255.500 278.000 255.400 278.000 255.500 V 258.400 C 278.000 258.455 278.045 258.500 278.100 258.500 H 284.100 C 284.155 258.500 284.200 258.455 284.200 258.400 V 255.500 C 284.200 255.400 284.100 255.500 284.200 255.500 H 290.000 C 290.100 255.500 290.000 255.400 290.000 255.500 V 258.400 C 290.000 258.455 290.045 258.500 290.100 258.500 H 296.100 C 296.155 258.500 296.200 258.455 296.200 258.400 V 255.500 C 296.200 255.400 296.100 255.500 296.200 255.500 H 302.000 C 302.100 255.500 302.000 255.400 302.000 255.500 V 258.400 C 302.000 258.455 302.045 258.500 302.100 258.500 H 308.100 C 308.155 258.500 308.200 258.455 308.200 258.400 V 255.500 C 308.200 255.400 308.100 255.500 308.200 255.500 H 314.000 C 314.100 255.500 314.000 255.400 314.000 255.500 V 258.400 C 314.000 258.455 314.045 258.500 314.100 258.500 H 320.100 C 320.155 258.500 320.200 258.455 320.200 258.400 V 255.500 C 320.200 255.400 320.100 255.500 320.200 255.500 H 326.000 C 326.100 255.500 326.000 255.400 326.000 255.500 V 258.400 C 326.000 258.455 326.045 258.500 326.100 258.500 H 332.100 C 332.155 258.500 332.200 258.455 332.200 258.400 V 255.500 C 332.200 255.400 332.100 255.500 332.200 255.500 H 338.000 C 338.100 255.500 338.000 255.400 338.000 255.500 V 258.400 C 338.000 258.455 338.045 258.500 338.100 258.500 H 344.100 C 344.155 258.500 344.200 258.455 344.200 258.400 V 255.500 C 344.200 255.400 344.100 255.500 344.200 255.500 H 350.000 C 350.100 255.500 350.000 255.400 350.000 255.500 V 258.400 C 350.000 258.455 350.045 258.500 350.100 258.500 H 356.100 C 356.155 258.500 356.200 258.455 356.200 258.400 V 255.500 C 356.200 255.400 356.100 255.500 356.200 255.500 H 365.100 C 365.155 255.500 365.200 255.455 365.200 255.400 V 250.000 C 365.200 249.900 365.100 250.000 365.200 250.000 H 368.100 C 368.155 250.000 368.200 249.955 368.200 249.900 V 243.900 C 368.200 243.845 368.155 243.800 368.100 243.800 H 365.200 C 365.100 243.800 365.200 243.900 365.200 243.800 V 238.400 C 365.200 238.345 365.155 238.300 365.100 238.300 H 173.100 C 173.045 238.300 173.000 238.345 173.000 238.400 V 243.800 C 173.000 243.900 173.100 243.800 173.000 243.800 H 170.100 C 170.045 243.800 170.000 243.845 170.000 243.900 V 249.900 C 170.000 249.955 170.045 250.000 170.100 250.000 H 173.000 C 173.100 250.000 173.000 249.900 173.000 250.000 V 255.400 C 173.000 255.455 173.045 255.500 173.100 255.500 Z" stroke="rgb(0,0,0)" stroke-width="0.20" />
</g>
<g id="p-3" style="fill:none;stroke-linecap:round;stroke-linejoin:round;">
  <path d="M 372.800 255.500 H 379.700 C 379.800 255.500 379.700 255.400 379.700 255.500 V 258.400 C 379.700 258.455 379.745 258.500 379.800 258.500 H 385.800 C 385.855 258.500 385.900 258.455 385.900 258.400 V 255.500 C 385.900 255.400 385.800 255.500 385.900 255.500 H 391.700 C 391.800 255.500 391.700 255.400 391.700 255.500 V 258.400 C 391.700 258.455 391.745 258.500 391.800 258.500 H 397.800 C 397.855 258.500 397.900 258.455 397.900 258.400 V 255.500 C 397.900 255.400 397.800 255.500 397.900 255.500 H 403.700 C 403.800 255.500 403.700 255.400 403.700 255.500 V 258.400 C 403.700 258.455 403.745 258.500 403.800 258.500 H 409.800 C 409.855 258.500 409.900 258.455 409.900 258.400 V 255.500 C 409.900 255.400 409.800 255.500 409.900 255.500 H 415.700 C 415.800 255.500 415.700 255.400 415.700 255.500 V 258.400 C 415.700 258.455 415.745 258.500 415.800 258.500 H 421.800 C 421.855 258.500 421.900 258.455 421.900 258.400 V 255.500 C 421.900 255.400 421.800 255.500 421.900 255.500 H 427.700 C 427.800 255.500 427.700 255.400 427.700 255.500 V 258.400 C 427.700 258.455 427.745 258.500 427.800 258.500 H 433.800 C 433.855 258.500 433.900 258.455 433.900 258.400 V 255.500 C 433.900 255.400 433.800 255.500 433.900 255.500 H 439.700 C 439.800 255.500 439.700 255.400 439.700 255.500 V 258.400 C 439.700 258.455 439.745 258.500 439.800 258.500 H 445.800 C 445.855 258.500 445.900 258.455 445.900 258.400 V 255.500 C 445.900 255.400 445.800 255.500 445.900 255.500 H 451.700 C 451.800 255.500 451.700 255.400 451.700 255.500 V 258.400 C 451.700 258.455 451.745 258.500 451.800 258.500 H 457.800 C 457.855 258.500 457.900 258.455 457.900 258.400 V 255.500 C 457.900 255.400 457.800 255.500 457.900 255.500 H 463.700 C 463.800 255.500 463.700 255.400 463.700 255.500 V 258.400 C 463.700 258.455 463.745 258.500 463.800 258.500 H 469.800 C 469.855 258.500 469.900 258.455 469.900 258.400 V 255.500 C 469.900 255.400 469.800 255.500 469.900 255.500 H 475.700 C 475.800 255.500 475.700 255.400 475.700 255.500 V 258.400 C 475.700 258.455 475.745 258.500 475.800 258.500 H 481.800 C 481.855 258.500 481.900 258.455 481.900 258.400 V 255.500 C 481.900 255.400 481.800 255.500 481.900 255.500 H 487.700 C 487.800 255.500 487.700 255.400 487.700 255.500 V 258.400 C 487.700 258.455 487.745 258.500 487.800 258.500 H 493.800 C 493.855 258.500 493.900 258.455 493.900 258.400 V 255.500 C 493.900 255.400 493.800 255.500 493.900 255.500 H 499.700 C 499.800 255.500 499.700 255.400 499.700 255.500 V 258.400 C 499.700 258.455 499.745 258.500 499.800 258.500 H 505.800 C 505.855 258.500 505.900 258.455 505.900 258.400 V 255.500 C 505.900 255.400 505.800 255.500 505.900 255.500 H 511.700 C 511.800 255.500 511.700 255.400 511.700 255.500 V 258.400 C 511.700 258.455 511.745 258.500 511.800 258.500 H 517.800 C 517.855 258.500 517.900 258.455 517.900 258.400 V 255.500 C 517.900 255.400 517.800 255.500 517.900 255.500 H 524.800 H 527.800 C 527.855 255.500 527.900 255.455 527.900 255.400 V 249.900 C 527.900 249.845 527.855 249.800 527.800 249.800 H 524.900 C 524.800 249.800 524.900 249.900 524.900 249.800 V 244.000 C 524.900 243.900 524.800 244.000 524.900 244.000 H 527.800 C 527.855 244.000 527.900 243.955 527.900 243.900 V 238.400 C 527.900 238.345 527.855 238.300 527.800 238.300 H 524.800 H 372.800 H 369.800 C 369.745 238.300 369.700 238.345 369.700 238.400 V 243.900 C 369.700 243.955 369.745 244.000 369.800 244.000 H 372.700 C 372.800 244.000 372.700 243.900 372.700 244.000 V 249.800 C 372.700 249.900 372.800 249.800 372.700 249.800 H 369.800 C 369.745 249.800 369.700 249.845 369.700 249.900 V 255.400 C 369.700 255.455 369.745 255.500 369.800 255.500 H 372.800 Z" stroke="rgb(0,0,0)" stroke-width="0.20" />
</g>
<g id="p-4" style="fill:none;stroke-linecap:round;stroke-linejoin:round;">
  <path d="M 532.500 255.500 H 541.400 C 541.500 255.500 541.400 255.400 541.400 255.500 V 258.400 C 541.400 258.455 541.445 258.500 541.500 258.500 H 547.500 C 547.555 258.500 547.600 258.455 547.600 258.400 V 255.500 C 547.600 255.400 547.500 255.500 547.600 255.500 H 553.400 C 553.500 255.500 553.400 255.400 553.400 255.500 V 258.400 C 553.400 258.455 553.445 258.500 553.500 258.500 H 559.500 C 559.555 258.500 559.600 258.455 559.600 258.400 V 255.500 C 559.600 255.400 559.500 255.500 559.600 255.500 H 565.400 C 565.500 255.500 565.400 255.400 565.400 255.500 V 258.400 C 565.400 258.455 565.445 258.500 565.500 258.500 H 571.500 C 571.555 258.500 571.600 258.455 571.600 258.400 V 255.500 C 571.600 255.400 571.500 255.500 571.600 255.500 H 577.400 C 577.500 255.500 577.400 255.400 577.400 255.500 V 258.400 C 577.400 258.455 577.445 258.500 577.500 258.500 H 583.500 C 583.555 258.500 583.600 258.455 583.600 258.400 V 255.500 C 583.600 255.400 583.500 255.500 583.600 255.500 H 589.400 C 589.500 255.500 589.400 255.400 589.400 255.500 V 258.400 C 589.400 258.455 589.445 258.500 589.500 258.500 H 595.500 C 595.555 258.500 595.600 258.455 595.600 258.400 V 255.500 C 595.600 255.400 595.500 255.500 595.600 255.500 H 601.400 C 601.500 255.500 601.400 255.400 601.400 255.500 V 258.400 C 601.400 258.455 601.445 258.500 601.500 258.500 H 607.500 C 607.555 258.500 607.600 258.455 607.600 258.400 V 255.500 C 607.600 255.400 607.500 255.500 607.600 255.500 H 613.400 C 613.500 255.500 613.400 255.400 613.400 255.500 V 258.400 C 613.400 258.455 613.445 258.500 613.500 258.500 H 619.500 C 619.555 258.500 619.600 258.455 619.600 258.400 V 255.500 C 619.600 255.400 619.500 255.500 619.600 255.500 H 625.400 C 625.500 255.500 625.400 255.400 625.400 255.500 V 258.400 C 625.400 258.455 625.445 258.500 625.500 258.500 H 631.500 C 631.555 258.500 631.600 258.455 631.600 258.400 V 255.500 C 631.600 255.400 631.500 255.500 631.600 255.500 H 637.400 C 637.500 255.500 637.400 255.400 637.400 255.500 V 258.400 C 637.400 258.455 637.445 258.500 637.500 258.500 H 643.500 C 643.555 258.500 643.600 258.455 643.600 258.400 V 255.500 C 643.600 255.400 643.500 255.500 643.600 255.500 H 649.400 C 649.500 255.500 649.400 255.400 649.400 255.500 V 258.400 C 649.400 258.455 649.445 258.500 649.500 258.500 H 655.500 C 655.555 258.500 655.600 258.455 655.600 258.400 V 255.500 C 655.600 255.400 655.500 255.500 655.600 255.500 H 661.400 C 661.500 255.500 661.400 255.400 661.400 255.500 V 258.400 C 661.400 258.455 661.445 258.500 661.500 258.500 H 667.500 C 667.555 258.500 667.600 258.455 667.600 258.400 V 255.500 C 667.600 255.400 667.500 255.500 667.600 255.500 H 673.400 C 673.500 255.500 673.400 255.400 673.400 255.500 V 258.400 C 673.400 258.455 673.445 258.500 673.500 258.500 H 679.500 C 679.555 258.500 679.600 258.455 679.600 258.400 V 255.500 C 679.600 255.400 679.500 255.500 679.600 255.500 H 685.400 C 685.500 255.500 685.400 255.400 685.400 255.500 V 258.400 C 685.400 258.455 685.445 258.500 685.500 258.500 H 691.500 C 691.555 258.500 691.600 258.455 691.600 258.400 V 255.500 C 691.600 255.400 691.500 255.500 691.600 255.500 H 697.400 C 697.500 255.500 697.400 255.400 697.400 255.500 V 258.400 C 697.400 258.455 697.445 258.500 697.500 258.500 H 703.500 C 703.555 258.500 703.600 258.455 703.600 258.400 V 255.500 C 703.600 255.400 703.500 255.500 703.600 255.500 H 709.400 C 709.500 255.500 709.400 255.400 709.400 255.500 V 258.400 C 709.400 258.455 709.445 258.500 709.500 258.500 H 715.500 C 715.555 258.500 715.600 258.455 715.600 258.400 V 255.500 C 715.600 255.400 715.500 255.500 715.600 255.500 H 724.500 C 724.555 255.500 724.600 255.455 724.600 255.400 V 250.000 C 724.600 249.900 724.500 250.000 724.600 250.000 H 727.500 C 727.555 250.000 727.600 249.955 727.600 249.900 V 243.900 C 727.600 243.845 727.555 243.800 727.500 243.800 H 724.600 C 724.500 243.800 724.600 243.900 724.600 243.800 V 238.400 C 724.600 238.345 724.555 238.300 724.500 238.300 H 532.500 C 532.445 238.300 532.400 238.345 532.400 238.400 V 243.800 C 532.400 243.900 532.500 243.800 532.400 243.800 H 529.500 C 529.445 243.800 529.400 243.845 529.400 243.900 V 249.900 C 529.400 249.955 529.445 250.000 529.500 250.000 H 532.400 C 532.500 250.000 532.400 249.900 532.400 250.000 V 255.400 C 532.400 255.455 532.445 255.500 532.500 255.500 Z" stroke="rgb(0,0,0)" stroke-width="0.20" />
</g>
<g id="p-5" style="fill:none;stroke-linecap:round;stroke-linejoin:round;">
  <path d="M 13.400 233.800 H 23.750 C 23.850 233.800 23.750 233.700 23.750 233.800 V 236.700 C 23.750 236.755 23.795 236.800 23.850 236.800 H 29.850 C 29.905 236.800 29.950 236.755 29.950 236.700 V 233.800 C 29.950 233.700 29.850 233.800 29.950 233.800 H 35.750 C 35.850 233.800 35.750 233.700 35.750 233.800 V 236.700 C 35.750 236.755 35.795 236.800 35.850 236.800 H 41.850 C 41.905 236.800 41.950 236.755 41.950 236.700 V 233.800 C 41.950 233.700 41.850 233.800 41.950 233.800 H 47.750 C 47.850 233.800 47.750 233.700 47.750 233.800 V 236.700 C 47.750 236.755 47.795 236.800 47.850 236.800 H 53.850 C 53.905 236.800 53.950 236.755 53.950 236.700 V 233.800 C 53.950 233.700 53.850 233.800 53.950 233.800 H 59.750 C 59.850 233.800 59.750 233.700 59.750 233.800 V 236.700 C 59.750 236.755 59.795 236.800 59.850 236.800 H 65.850 C 65.905 236.800 65.950 236.755 65.950 236.700 V 233.800 C 65.950 233.700 65.850 233.800 65.950 233.800 H 71.750 C 71.850 233.800 71.750 233.700 71.750 233.800 V 236.700 C 71.750 236.755 71.795 236.800 71.850 236.800 H 77.850 C 77.905 236.800 77.950 236.755 77.950 236.700 V 233.800 C 77.950 233.700 77.850 233.800 77.950 233.800 H 83.750 C 83.850 233.800 83.750 233.700 83.750 233.800 V 236.700 C 83.750 236.755 83.795 236.800 83.850 236.800 H 89.850 C 89.905 236.800 89.950 236.755 89.950 236.700 V 233.800 C 89.950 233.700 89.850 233.800 89.950 233.800 H 95.750 C 95.850 233.800 95.750 233.700 95.750 233.800 V 236.700 C 95.750 236.755 95.795 236.800 95.850 236.800 H 101.850 C 101.905 236.800 101.950 236.755 101.950 236.700 V 233.800 C 101.950 233.700 101.850 233.800 101.950 233.800 H 107.750 C 107.850 233.800 107.750 233.700 107.750 233.800 V 236.700 C 107.750 236.755 107.795 236.800 107.850 236.800 H 113.850 C 113.905 236.800 113.950 236.755 113.950 236.700 V 233.800 C 113.950 233.700 113.850 233.800 113.950 233.800 H 119.750 C 119.850 233.800 119.750 233.700 119.750 233.800 V 236.700 C 119.750 236.755 119.795 236.800 119.850 236.800 H 125.850 C 125.905 236.800 125.950 236.755 125.950 236.700 V 233.800 C 125.950 233.700 125.850 233.800 125.950 233.800 H 131.750 C 131.850 233.800 131.750 233.700 131.750 233.800 V 236.700 C 131.750 236.755 131.795 236.800 131.850 236.800 H 137.850 C 137.905 236.800 137.950 236.755 137.950 236.700 V 233.800 C 137.950 233.700 137.850 233.800 137.950 233.800 H 143.750 C 143.850 233.800 143.750 233.700 143.750 233.800 V 236.700 C 143.750 236.755 143.795 236.800 143.850 236.800 H 149.850 C 149.905 236.800 149.950 236.755 149.950 236.700 V 233.800 C 149.950 233.700 149.850 233.800 149.950 233.800 H 155.750 C 155.850 233.800 155.750 233.700 155.750 233.800 V 236.700 C 155.750 236.755 155.795 236.800 155.850 236.800 H 161.850 C 161.905 236.800 161.950 236.755 161.950 236.700 V 233.800 C 161.950 233.700 161.850 233.800 161.950 233.800 H 172.300 H 175.300 C 175.355 233.800 175.400 233.755 175.400 233.700 V 228.200 C 175.400 228.145 175.355 228.100 175.300 228.100 H 172.400 C 172.300 228.100 172.400 228.200 172.400 228.100 V 222.300 C 172.400 222.200 172.300 222.300 172.400 222.300 H 175.300 C 175.355 222.300 175.400 222.255 175.400 222.200 V 216.700 C 175.400 216.645 175.355 216.600 175.300 216.600 H 172.300 H 13.400 H 10.400 C 10.345 216.600 10.300 216.645 10.300 216.700 V 222.200 C 10.300 222.255 10.345 222.300 10.400 222.300 H 13.300 C 13.400 222.300 13.300 222.200 13.300 222.300 V 228.100 C 13.300 228.200 13.400 228.100 13.300 228.100 H 10.400 C 10.345 228.100 10.300 228.145 10.300 228.200 V 233.700 C 10.300 233.755 10.345 233.800 10.400 233.800 H 13.400 Z" stroke="rgb(0,0,0)" stroke-width="0.20" />
</g>
<g id="p-6" style="fill:none;stroke-linecap:round;stroke-linejoin:round;">
  <path d="M 180.000 233.800 H 186.350 C 186.450 233.800 186.350 233.700 186.350 233.800 V 236.700 C 186.350 236.755 186.395 236.800 186.450 236.800 H 192.450 C 192.505 236.800 192.550 236.755 192.550 236.700 V 233.800 C 192.550 233.700 192.450 233.800 192.550 233.800 H 198.350 C 198.450 233.800 198.350 233.700 198.350 233.800 V 236.700 C 198.350 236.755 198.395 236.800 198.450 236.800 H 204.450 C 204.505 236.800 204.550 236.755 204.550 236.700 V 233.800 C 204.550 233.700 204.450 233.800 204.550 233.800 H 210.350 C 210.450 233.800 210.350 233.700 210.350 233.800 V 236.700 C 210.350 236.755 210.395 236.800 210.450 236.800 H 216.450 C 216.505 236.800 216.550 236.755 216.550 236.700 V 233.800 C 216.550 233.700 216.450 233.800 216.550 233.800 H 222.350 C 222.450 233.800 222.350 233.700 222.350 233.800 V 236.700 C 222.350 236.755 222.395 236.800 222.450 236.800 H 228.450 C 228.505 236.800 228.550 236.755 228.550 236.700 V 233.800 C 228.550 233.700 228.450 233.800 228.550 233.800 H 234.350 C 234.450 233.800 234.350 233.700 234.350 233.800 V 236.700 C 234.350 236.755 234.395 236.800 234.450 236.800 H 240.450 C 240.505 236.800 240.550 236.755 240.550 236.700 V 233.800 C 240.550 233.700 240.450 233.800 240.550 233.800 H 246.350 C 246.450 233.800 246.350 233.700 246.350 233.800 V 236.700 C 246.350 236.755 246.395 236.800 246.450 236.800 H 252.450 C 252.505 236.800 252.550 236.755 252.550 236.700 V 233.800 C 252.550 233.700 252.450 233.800 252.550 233.800 H 258.350 C 258.450 233.800 258.350 233.700 258.350 233.800 V 236.700 C 258.350 236.755 258.395 236.800 258.450 236.800 H 264.450 C 264.505 236.800 264.550 236.755 264.550 236.700 V 233.800 C 264.550 233.700 264.450 233.800 264.550 233.800 H 270.350 C 270.450 233.800 270.350 233.700 270.350 233.800 V 236.700 C 270.350 236.755 270.395 236.800 270.450 236.800 H 276.450 C 276.505 236.800 276.550 236.755 276.550 236.700 V 233.800 C 276.550 233.700 276.450 233.800 276.550 233.800 H 282.350 C 282.450 233.800 282.350 233.700 282.350 233.800 V 236.700 C 282.350 236.755 282.395 236.800 282.450 236.800 H 288.450 C 288.505 236.800 288.550 236.755 288.550 236.700 V 233.800 C 288.550 233.700 288.450 233.800 288.550 233.800 H 294.350 C 294.450 233.800 294.350 233.700 294.350 233.800 V 236.700 C 294.350 236.755 294.395 236.800 294.450 236.800 H 300.450 C 300.505 236.800 300.550 236.755 300.550 236.700 V 233.800 C 300.550 233.700 300.450 233.800 300.550 233.800 H 306.350 C 306.450 233.800 306.350 233.700 306.350 233.800 V 236.700 C 306.350 236.755 306.395 236.800 306.450 236.800 H 312.450 C 312.505 236.800 312.550 236.755 312.550 236.700 V 233.800 C 312.550 233.700 312.450 233.800 312.550 233.800 H 318.350 C 318.450 233.800 318.350 233.700 318.350 233.800 V 236.700 C 318.350 236.755 318.395 236.800 318.450 236.800 H 324.450 C 324.505 236.800 324.550 236.755 324.550 236.700 V 233.800 C 324.550 233.700 324.450 233.800 324.550 233.800 H 330.350 C 330.450 233.800 330.350 233.700 330.350 233.800 V 236.700 C 330.350 236.755 330.395 236.800 330.450 236.800 H 336.450 C 336.505 236.800 336.550 236.755 336.550 236.700 V 233.800 C 336.550 233.700 336.450 233.800 336.550 233.800 H 342.350 C 342.450 233.800 342.350 233.700 342.350 233.800 V 236.700 C 342.350 236.755 342.395 236.800 342.450 236.800 H 348.450 C 348.505 236.800 348.550 236.755 348.550 236.700 V 233.800 C 348.550 233.700 348.450 233.800 348.550 233.800 H 354.350 C 354.450 233.800 354.350 233.700 354.350 233.800 V 236.700 C 354.350 236.755 354.395 236.800 354.450 236.800 H 360.450 C 360.505 236.800 360.550 236.755 360.550 236.700 V 233.800 C 360.550 233.700 360.450 233.800 360.550 233.800 H 366.350 C 366.450 233.800 366.350 233.700 366.350 233.800 V 236.700 C 366.350 236.755 366.395 236.800 366.450 236.800 H 372.450 C 372.505 236.800 372.550 236.755 372.550 236.700 V 233.800 C 372.550 233.700 372.450 233.800 372.550 233.800 H 378.900 C 378.955 233.800 379.000 233.755 379.000 233.700 V 228.300 C 379.000 228.200 378.900 228.300 379.000 228.300 H 381.900 C 381.955 228.300 382.000 228.255 382.000 228.200 V 222.200 C 382.000 222.145 381.955 222.100 381.900 222.100 H 379.000 C 378.900 222.100 379.000 222.200 379.000 222.100 V 216.700 C 379.000 216.645 378.955 216.600 378.900 216.600 H 180.000 C 179.945 216.600 179.900 216.645 179.900 216.700 V 222.100 C 179.900 222.200 180.000 222.100 179.900 222.100 H 177.000 C 176.945 222.100 176.900 222.145 176.900 222.200 V 228.200 C 176.900 228.255 176.945 228.300 177.000 228.300 H 179.900 C 180.000 228.300 179.900 228.200 179.900 228.300 V 233.700 C 179.900 233.755 179.945 233.800 180.000 233.800 Z" stroke="rgb(0,0,0)" stroke-width="0.20" />
</g>
<g id="p-7" style="fill:none;stroke-linecap:round;stroke-linejoin:round;">
  <path d="M 386.600 233.800 H 396.950 C 397.050 233.800 396.950 233.700 396.950 233.800 V 236.700 C 396.950 236.755 396.995 236.800 397.050 236.800 H 403.050 C 403.105 236.800 403.150 236.755 403.150 236.700 V 233.800 C 403.150 233.700 403.050 233.800 403.150 233.800 H 408.950 C 409.050 233.800 408.950 233.700 408.950 233.800 V 236.700 C 408.950 236.755 408.995 236.800 409.050 236.800 H 415.050 C 415.105 236.800 415.150 236.755 415.150 236.700 V 233.800 C 415.150 233.700 415.050 233.800 415.150 233.800 H 420.950 C 421.050 233.800 420.950 233.700 420.950 233.800 V 236.700 C 420.950 236.755 420.995 236.800 421.050 236.800 H 427.050 C 427.105 236.800 427.150 236.755 427.150 236.700 V 233.800 C 427.150 233.700 427.050 233.800 427.150 233.800 H 432.950 C 433.050 233.800 432.950 233.700 432.950 233.800 V 236.700 C 432.950 236.755 432.995 236.800 433.050 236.800 H 439.050 C 439.105 236.800 439.150 236.755 439.150 236.700 V 233.800 C 439.150 233.700 439.050 233.800 439.150 233.800 H 444.950 C 445.050 233.800 444.950 233.700 444.950 233.800 V 236.700 C 444.950 236.755 444.995 236.800 445.050 236.800 H 451.050 C 451.105 236.800 451.150 236.755 451.150 236.700 V 233.800 C 451.150 233.700 451.050 233.800 451.150 233.800 H 456.950 C 457.050 233.800 456.950 233.700 456.950 233.800 V 236.700 C 456.950 236.755 456.995 236.800 457.050 236.800 H 463.050 C 463.105 236.800 463.150 236.755 463.150 236.700 V 233.800 C 463.150 233.700 463.050 233.800 463.150 233.800 H 468.950 C 469.050 233.800 468.950 233.700 468.950 233.800 V 236.700 C 468.950 236.755 468.995 236.800 469.050 236.800 H 475.050 C 475.105 236.800 475.150 236.755 475.150 236.700 V 233.800 C 475.150 233.700 475.050 233.800 475.150 233.800 H 480.950 C 481.050 233.800 480.950 233.700 480.950 233.800 V 236.700 C 480.950 236.755 480.995 236.800 481.050 236.800 H 487.050 C 487.105 236.800 487.150 236.755 487.150 236.700 V 233.800 C 487.150 233.700 487.050 233.800 487.150 233.800 H 492.950 C 493.050 233.800 492.950 233.700 492.950 233.800 V 236.700 C 492.950 236.755 492.995 236.800 493.050 236.800 H 499.050 C 499.105 236.800 499.150 236.755 499.150 236.700 V 233.800 C 499.150 233.700 499.050 233.800 499.150 233.800 H 504.950 C 505.050 233.800 504.950 233.700 504.950 233.800 V 236.700 C 504.950 236.755 504.995 236.800 505.050 236.800 H 511.050 C 511.105 236.800 511.150 236.755 511.150 236.700 V 233.800 C 511.150 233.700 511.050 233.800 511.150 233.800 H 516.950 C 517.050 233.800 516.950 233.700 516.950 233.800 V 236.700 C 516.950 236.755 516.995 236.800 517.050 236.800 H 523.050 C 523.105 236.800 523.150 236.755 523.150 236.700 V 233.800 C 523.150 233.700 523.050 233.800 523.150 233.800 H 528.950 C 529.050 233.800 528.950 233.700 528.950 233.800 V 236.700 C 528.950 236.755 528.995 236.800 529.050 236.800 H 535.050 C 535.105 236.800 535.150 236.755 535.150 236.700 V 233.800 C 535.150 233.700 535.050 233.800 535.150 233.800 H 545.500 H 548.500 C 548.555 233.800 548.600 233.755 548.600 233.700 V 228.200 C 548.600 228.145 548.555 228.100 548.500 228.100 H 545.600 C 545.500 228.100 545.600 228.200 545.600 228.100 V 222.300 C 545.600 222.200 545.500 222.300 545.600 222.300 H 548.500 C 548.555 222.300 548.600 222.255 548.600 222.200 V 216.700 C 548.600 216.645 548.555 216.600 548.500 216.600 H 545.500 H 386.600 H 383.600 C 383.545 216.600 383.500 216.645 383.500 216.700 V 222.200 C 383.500 222.255 383.545 222.300 383.600 222.300 H 386.500 C 386.600 222.300 386.500 222.200 386.500 222.300 V 228.100 C 386.500 228.200 386.600 228.100 386.500 228.100 H 383.600 C 383.545 228.100 383.500 228.145 383.500 228.200 V 233.700 C 383.500 233.755 383.545 233.800 383.600 233.800 H 386.600 Z" stroke="rgb(0,0,0)" stroke-width="0.20" />
</g>
<g id="p-8" style="fill:none;stroke-linecap:round;stroke-linejoin:round;">
  <path d="M 553.200 233.800 H 559.550 C 559.650 233.800 559.550 233.700 559.550 233.800 V 236.700 C 559.550 236.755 559.595 236.800 559.650 236.800 H 565.650 C 565.705 236.800 565.750 236.755 565.750 236.700 V 233.800 C 565.750 233.700 565.650 233.800 565.750 233.800 H 571.550 C 571.650 233.800 571.550 233.700 571.550 233.800 V 236.700 C 571.550 236.755 571.595 236.800 571.650 236.800 H 577.650 C 577.705 236.800 577.750 236.755 577.750 236.700 V 233.800 C 577.750 233.700 577.650 233.800 577.750 233.800 H 583.550 C 583.650 233.800 583.550 233.700 583.550 233.800 V 236.700 C 583.550 236.755 583.595 236.800 583.650 236.800 H 589.650 C 589.705 236.800 589.750 236.755 589.750 236.700 V 233.800 C 589.750 233.700 589.650 233.800 589.750 233.800 H 595.550 C 595.650 233.800 595.550 233.700 595.550 233.800 V 236.700 C 595.550 236.755 595.595 236.800 595.650 236.800 H 601.650 C 601.705 236.800 601.750 236.755 601.750 236.700 V 233.800 C 601.750 233.700 601.650 233.800 601.750 233.800 H 607.550 C 607.650 233.800 607.550 233.700 607.550 233.800 V 236.700 C 607.550 236.755 607.595 236.800 607.650 236.800 H 613.650 C 613.705 236.800 613.750 236.755 613.750 236.700 V 233.800 C 613.750 233.700 613.650 233.800 613.750 233.800 H 619.550 C 619.650 233.800 619.550 233.700 619.550 233.800 V 236.700 C 619.550 236.755 619.595 236.800 619.650 236.800 H 625.650 C 625.705 236.800 625.750 236.755 625.750 236.700 V 233.800 C 625.750 233.700 625.650 233.800 625.750 233.800 H 631.550 C 631.650 233.800 631.550 233.700 631.550 233.800 V 236.700 C 631.550 236.755 631.595 236.800 631.650 236.800 H 637.650 C 637.705 236.800 637.750 236.755 637.750 236.700 V 233.800 C 637.750 233.700 637.650 233.800 637.750 233.800 H 643.550 C 643.650 233.800 643.550 233.700 643.550 233.800 V 236.700 C 643.550 236.755 643.595 236.800 643.650 236.800 H 649.650 C 649.705 236.800 649.750 236.755 649.750 236.700 V 233.800 C 649.750 233.700 649.650 233.800 649.750 233.800 H 655.550 C 655.650 233.800 655.550 233.700 655.550 233.800 V 236.700 C 655.550 236.755 655.595 236.800 655.650 236.800 H 661.650 C 661.705 236.800 661.750 236.755 661.750 236.700 V 233.800 C 661.750 233.700 661.650 233.800 661.750 233.800 H 667.550 C 667.650 233.800 667.550 233.700 667.550 233.800 V 236.700 C 667.550 236.755 667.595 236.800 667.650 236.800 H 673.650 C 673.705 236.800 673.750 236.755 673.750 236.700 V 233.800 C 673.750 233.700 673.650 233.800 673.750 233.800 H 679.550 C 679.650 233.800 679.550 233.700 679.550 233.800 V 236.700 C 679.550 236.755 679.595 236.800 679.650 236.800 H 685.650 C 685.705 236.800 685.750 236.755 685.750 236.700 V 233.800 C 685.750 233.700 685.650 233.800 685.750 233.800 H 691.550 C 691.650 233.800 691.550 233.700 691.550 233.800 V 236.700 C 691.550 236.755 691.595 236.800 691.650 236.800 H 697.650 C 697.705 236.800 697.750 236.755 697.750 236.700 V 233.800 C 697.750 233.700 697.650 233.800 697.750 233.800 H 703.550 C 703.650 233.800 703.550 233.700 703.550 233.800 V 236.700 C 703.550 236.755 703.595 236.800 703.650 236.800 H 709.650 C 709.705 236.800 709.750 236.755 709.750 236.700 V 233.800 C 709.750 233.700 709.650 233.800 709.750 233.800 H 715.550 C 715.650 233.800 715.550 233.700 715.550 233.800 V 236.700 C 715.550 236.755 715.595 236.800 715.650 236.800 H 721.650 C 721.705 236.800 721.750 236.755 721.750 236.700 V 233.800 C 721.750 233.700 721.650 233.800 721.750 233.800 H 727.550 C 727.650 233.800 727.550 233.700 727.550 233.800 V 236.700 C 727.550 236.755 727.595 236.800 727.650 236.800 H 733.650 C 733.705 236.800 733.750 236.755 733.750 236.700 V 233.800 C 733.750 233.700 733.650 233.800 733.750 233.800 H 739.550 C 739.650 233.800 739.550 233.700 739.550 233.800 V 236.700 C 739.550 236.755 739.595 236.800 739.650 236.800 H 745.650 C 745.705 236.800 745.750 236.755 745.750 236.700 V 233.800 C 745.750 233.700 745.650 233.800 745.750 233.800 H 752.100 C 752.155 233.800 752.200 233.755 752.200 233.700 V 228.300 C 752.200 228.200 752.100 228.300 752.200 228.300 H 755.100 C 755.155 228.300 755.200 228.255 755.200 228.200 V 222.200 C 755.200 222.145 755.155 222.100 755.100 222.100 H 752.200 C 752.100 222.100 752.200 222.200 752.200 222.100 V 216.700 C 752.200 216.645 752.155 216.600 752.100 216.600 H 553.200 C 553.145 216.600 553.100 216.645 553.100 216.700 V 222.100 C 553.100 222.200 553.200 222.100 553.100 222.100 H 550.200 C 550.145 222.100 550.100 222.145 550.100 222.200 V 228.200 C 550.100 228.255 550.145 228.300 550.200 228.300 H 553.100 C 553.200 228.300 553.100 228.200 553.100 228.300 V 233.700 C 553.100 233.755 553.145 233.800 553.200 233.800 Z" stroke="rgb(0,0,0)" stroke-width="0.20" />
</g>
<g id="p-9" style="fill:none;stroke-linecap:round;stroke-linejoin:round;">
  <path d="M 26.850 211.450 H 23.950 C 23.850 211.450 23.950 211.550 23.950 211.450 V 208.650 C 23.950 208.550 23.850 208.650 23.950 208.650 H 29.750 C 29.850 208.650 29.750 208.550 29.750 208.650 V 211.450 C 29.750 211.550 29.850 211.450 29.750 211.450 H 26.850 Z" stroke="rgb(0,0,255)" stroke-width="0.20" />
  <path d="M 38.850 211.450 H 35.950 C 35.850 211.450 35.950 211.550 35.950 211.450 V 208.650 C 35.950 208.550 35.850 208.650 35.950 208.650 H 41.750 C 41.850 208.650 41.750 208.550 41.750 208.650 V 211.450 C 41.750 211.550 41.850 211.450 41.750 211.450 H 38.850 Z" stroke="rgb(0,0,255)" stroke-width="0.20" />
  <path d="M 50.850 211.450 H 47.950 C 47.850 211.450 47.950 211.550 47.950 211.450 V 208.650 C 47.950 208.550 47.850 208.650 47.950 208.650 H 53.750 C 53.850 208.650 53.750 208.550 53.750 208.650 V 211.450 C 53.750 211.550 53.850 211.450 53.750 211.450 H 50.850 Z" stroke="rgb(0,0,255)" stroke-width="0.20" />
  <path d="M 62.850 211.450 H 59.950 C 59.850 211.450 59.950 211.550 59.950 211.450 V 208.650 C 59.950 208.550 59.850 208.650 59.950 208.650 H 65.750 C 65.850 208.650 65.750 208.550 65.750 208.650 V 211.450 C 65.750 211.550 65.850 211.450 65.750 211.450 H 62.850 Z" stroke="rgb(0,0,255)" stroke-width="0.20" />
  <path d="M 74.850 211.450 H 71.950 C 71.850 211.450 71.950 211.550 71.950 211.450 V 208.650 C 71.950 208.550 71.850 208.650 71.950 208.650 H 77.750 C 77.850 208.650 77.750 208.550 77.750 208.650 V 211.450 C 77.750 211.550 77.850 211.450 77.750 211.450 H 74.850 Z" stroke="rgb(0,0,255)" stroke-width="0.20" />
  <path d="M 86.850 211.450 H 83.950 C 83.850 211.450 83.950 211.550 83.950 211.450 V 208.650 C 83.950 208.550 83.850 208.650 83.950 208.650 H 89.750 C 89.850 208.650 89.750 208.550 89.750 208.650 V 211.450 C 89.750 211.550 89.850 211.450 89.750 211.450 H 86.850 Z" stroke="rgb(0,0,255)" stroke-width="0.20" />
  <path d="M 98.850 211.450 H 95.950 C 95.850 211.450 95.950 211.550 95.950 211.450 V 208.650 C 95.950 208.550 95.850 208.650 95.950 208.650 H 101.750 C 101.850 208.650 101.750 208.550 101.750 208.650 V 211.450 C 101.750 211.550 101.850 211.450 101.750 211.450 H 98.850 Z" stroke="rgb(0,0,255)" stroke-width="0.20" />
  <path d="M 110.850 211.450 H 107.950 C 107.850 211.450 107.950 211.550 107.950 211.450 V 208.650 C 107.950 208.550 107.850 208.650 107.950 208.650 H 113.750 C 113.850 208.650 113.750 208.550 113.750 208.650 V 211.450 C 113.750 211.550 113.850 211.450 113.750 211.450 H 110.850 Z" stroke="rgb(0,0,255)" stroke-width="0.20" />
  <path d="M 122.850 211.450 H 119.950 C 119.850 211.450 119.950 211.550 119.950 211.450 V 208.650 C 119.950 208.550 119.850 208.650 119.950 208.650 H 125.750 C 125.850 208.650 125.750 208.550 125.750 208.650 V 211.450 C 125.750 211.550 125.850 211.450 125.750 211.450 H 122.850 Z" stroke="rgb(0,0,255)" stroke-width="0.20" />
  <path d="M 134.850 211.450 H 131.950 C 131.850 211.450 131.950 211.550 131.950 211.450 V 208.650 C 131.950 208.550 131.850 208.650 131.950 208.650 H 137.750 C 137.850 208.650 137.750 208.550 137.750 208.650 V 211.450 C 137.750 211.550 137.850 211.450 137.750 211.450 H 134.850 Z" stroke="rgb(0,0,255)" stroke-width="0.20" />
  <path d="M 146.850 211.450 H 143.950 C 143.850 211.450 143.950 211.550 143.950 211.450 V 208.650 C 143.950 208.550 143.850 208.650 143.950 208.650 H 149.750 C 149.850 208.650 149.750 208.550 149.750 208.650 V 211.450 C 149.750 211.550 149.850 211.450 149.750 211.450 H 146.850 Z" stroke="rgb(0,0,255)" stroke-width="0.20" />
  <path d="M 158.850 211.450 H 155.950 C 155.850 211.450 155.950 211.550 155.950 211.450 V 208.650 C 155.950 208.550 155.850 208.650 155.950 208.650 H 161.750 C 161.850 208.650 161.750 208.550 161.750 208.650 V 211.450 C 161.750 211.550 161.850 211.450 161.750 211.450 H 158.850 Z" stroke="rgb(0,0,255)" stroke-width="0.20" />
  <path d="M 16.850 215.100 H 168.850 H 175.300 C 175.355 215.100 175.400 215.055 175.400 215.000 V 208.550 V 16.550 V 10.100 C 175.400 10.045 175.355 10.000 175.300 10.000 H 168.850 H 16.850 H 10.400 C 10.345 10.000 10.300 10.045 10.300 10.100 V 16.550 V 208.550 V 215.000 C 10.300 215.055 10.345 215.100 10.400 215.100 H 16.850 Z" stroke="rgb(0,0,0)" stroke-width="0.20" />
  <path d="M 171.750 196.550 V 199.450 C 171.750 199.550 171.850 199.450 171.750 199.450 H 168.950 C 168.850 199.450 168.950 199.550 168.950 199.450 V 193.650 C 168.950 193.550 168.850 193.650 168.950 193.650 H 171.750 C 171.850 193.650 171.750 193.550 171.750 193.650 V 196.550 Z" stroke="rgb(0,0,255)" stroke-width="0.20" />
  <path d="M 171.750 184.550 V 187.450 C 171.750 187.550 171.850 187.450 171.750 187.450 H 168.950 C 168.850 187.450 168.950 187.550 168.950 187.450 V 181.650 C 168.950 181.550 168.850 181.650 168.950 181.650 H 171.750 C 171.850 181.650 171.750 181.550 171.750 181.650 V 184.550 Z" stroke="rgb(0,0,255)" stroke-width="0.20" />
  <path d="M 171.750 172.550 V 175.450 C 171.750 175.550 171.850 175.450 171.750 175.450 H 168.950 C 168.850 175.450 168.950 175.550 168.950 175.450 V 169.650 C 168.950 169.550 168.850 169.650 168.950 169.650 H 171.750 C 171.850 169.650 171.750 169.550 171.750 169.650 V 172.550 Z" stroke="rgb(0,0,255)" stroke-width="0.20" />
  <path d="M 171.750 160.550 V 163.450 C 171.750 163.550 171.850 163.450 171.750 163.450 H 168.950 C 168.850 163.450 168.950 163.550 168.950 163.450 V 157.650 C 168.950 157.550 168.850 157.650 168.950 157.650 H 171.750 C 171.850 157.650 171.750 157.550 171.750 157.650 V 160.550 Z" stroke="rgb(0,0,255)" stroke-width="0.20" />
  <path d="M 171.750 148.550 V 151.450 C 171.750 151.550 171.850 151.450 171.750 151.450 H 168.950 C 168.850 151.450 168.950 151.550 168.950 151.450 V 145.650 C 168.950 145.550 168.850 145.650 168.950 145.650 H 171.750 C 171.850 145.650 171.750 145.550 171.750 145.650 V 148.550 Z" stroke="rgb(0,0,255)" stroke-width="0.20" />
  <path d="M 171.750 136.550 V 139.450 C 171.750 139.550 171.850 139.450 171.750 139.450 H 168.950 C 168.850 139.450 168.950 139.550 168.950 139.450 V 133.650 C 168.950 133.550 168.850 133.650 168.950 133.650 H 171.750 C 171.850 133.650 171.750 133.550 171.750 133.650 V 136.550 Z" stroke="rgb(0,0,255)" stroke-width="0.20" />
  <path d="M 171.750 124.550 V 127.450 C 171.750 127.550 171.850 127.450 171.750 127.450 H 168.950 C 168.850 127.450 168.950 127.550 168.950 127.450 V 121.650 C 168.950 121.550 168.850 121.650 168.950 121.650 H 171.750 C 171.850 121.650 171.750 121.550 171.750 121.650 V 124.550 Z" stroke="rgb(0,0,255)" stroke-width="0.20" />
  <path d="M 171.750 112.550 V 115.450 C 171.750 115.550 171.850 115.450 171.750 115.450 H 168.950 C 168.850 115.450 168.950 115.550 168.950 115.450 V 109.650 C 168.950 109.550 168.850 109.650 168.950 109.650 H 171.750 C 171.850 109.650 171.750 109.550 171.750 109.650 V 112.550 Z" stroke="rgb(0,0,255)" stroke-width="0.20" />
  <path d="M 171.750 100.550 V 103.450 C 171.750 103.550 171.850 103.450 171.750 103.450 H 168.950 C 168.850 103.450 168.950 103.550 168.950 103.450 V 97.650 C 168.950 97.550 168.850 97.650 168.950 97.650 H 171.750 C 171.850 97.650 171.750 97.550 171.750 97.650 V 100.550 Z" stroke="rgb(0,0,255)" stroke-width="0.20" />
  <path d="M 171.750 88.550 V 91.450 C 171.750 91.550 171.850 91.450 171.750 91.450 H 168.950 C 168.850 91.450 168.950 91.550 168.950 91.450 V 85.650 C 168.950 85.550 168.850 85.650 168.950 85.650 H 171.750 C 171.850 85.650 171.750 85.550 171.750 85.650 V 88.550 Z" stroke="rgb(0,0,255)" stroke-width="0.20" />
  <path d="M 171.750 76.550 V 79.450 C 171.750 79.550 171.850 79.450 171.750 79.450 H 168.950 C 168.850 79.450 168.950 79.550 168.950 79.450 V 73.650 C 168.950 73.550 168.850 73.650 168.950 73.650 H 171.750 C 171.850 73.650 171.750 73.550 171.750 73.650 V 76.550 Z" stroke="rgb(0,0,255)" stroke-width="0.20" />
  <path d="M 171.750 64.550 V 67.450 C 171.750 67.550 171.850 67.450 171.750 67.450 H 168.950 C 168.850 67.450 168.950 67.550 168.950 67.450 V 61.650 C 168.950 61.550 168.850 61.650 168.950 61.650 H 171.750 C 171.850 61.650 171.750 61.550 171.750 61.650 V 64.550 Z" stroke="rgb(0,0,255)" stroke-width="0.20" />
  <path d="M 171.750 52.550 V 55.450 C 171.750 55.550 171.850 55.450 171.750 55.450 H 168.950 C 168.850 55.450 168.950 55.550 168.950 55.450 V 49.650 C 168.950 49.550 168.850 49.650 168.950 49.650 H 171.750 C 171.850 49.650 171.750 49.550 171.750 49.650 V 52.550 Z" stroke="rgb(0,0,255)" stroke-width="0.20" />
  <path d="M 171.750 40.550 V 43.450 C 171.750 43.550 171.850 43.450 171.750 43.450 H 168.950 C 168.850 43.450 168.950 43.550 168.950 43.450 V 37.650 C 168.950 37.550 168.850 37.650 168.950 37.650 H 171.750 C 171.850 37.650 171.750 37.550 171.750 37.650 V 40.550 Z" stroke="rgb(0,0,255)" stroke-width="0.20" />
  <path d="M 171.750 28.550 V 31.450 C 171.750 31.550 171.850 31.450 171.750 31.450 H 168.950 C 168.850 31.450 168.950 31.550 168.950 31.450 V 25.650 C 168.950 25.550 168.850 25.650 168.950 25.650 H 171.750 C 171.850 25.650 171.750 25.550 171.750 25.650 V 28.550 Z" stroke="rgb(0,0,255)" stroke-width="0.20" />
  <path d="M 158.850 13.650 H 161.750 C 161.850 13.650 161.750 13.550 161.750 13.650 V 16.450 C 161.750 16.550 161.850 16.450 161.750 16.450 H 155.950 C 155.850 16.450 155.950 16.550 155.950 16.450 V 13.650 C 155.950 13.550 155.850 13.650 155.950 13.650 H 158.850 Z" stroke="rgb(0,0,255)" stroke-width="0.20" />
  <path d="M 146.850 13.650 H 149.750 C 149.850 13.650 149.750 13.550 149.750 13.650 V 16.450 C 149.750 16.550 149.850 16.450 149.750 16.450 H 143.950 C 143.850 16.450 143.950 16.550 143.950 16.450 V 13.650 C 143.950 13.550 143.850 13.650 143.950 13.650 H 146.850 Z" stroke="rgb(0,0,255)" stroke-width="0.20" />
  <path d="M 134.850 13.650 H 137.750 C 137.850 13.650 137.750 13.550 137.750 13.650 V 16.450 C 137.750 16.550 137.850 16.450 137.750 16.450 H 131.950 C 131.850 16.450 131.950 16.550 131.950 16.450 V 13.650 C 131.950 13.550 131.850 13.650 131.950 13.650 H 134.850 Z" stroke="rgb(0,0,255)" stroke-width="0.20" />
  <path d="M 122.850 13.650 H 125.750 C 125.850 13.650 125.750 13.550 125.750 13.650 V 16.450 C 125.750 16.550 125.850 16.450 125.750 16.450 H 119.950 C 119.850 16.450 119.950 16.550 119.950 16.450 V 13.650 C 119.950 13.550 119.850 13.650 119.950 13.650 H 122.850 Z" stroke="rgb(0,0,255)" stroke-width="0.20" />
  <path d="M 110.850 13.650 H 113.750 C 113.850 13.650 113.750 13.550 113.750 13.650 V 16.450 C 113.750 16.550 113.850 16.450 113.750 16.450 H 107.950 C 107.850 16.450 107.950 16.550 107.950 16.450 V 13.650 C 107.950 13.550 107.850 13.650 107.950 13.650 H 110.850 Z" stroke="rgb(0,0,255)" stroke-width="0.20" />
  <path d="M 98.850 13.650 H 101.750 C 101.850 13.650 101.750 13.550 101.750 13.650 V 16.450 C 101.750 16.550 101.850 16.450 101.750 16.450 H 95.950 C 95.850 16.450 95.950 16.550 95.950 16.450 V 13.650 C 95.950 13.550 95.850 13.650 95.950 13.650 H 98.850 Z" stroke="rgb(0,0,255)" stroke-width="0.20" />
  <path d="M 86.850 13.650 H 89.750 C 89.850 13.650 89.750 13.550 89.750 13.650 V 16.450 C 89.750 16.550 89.850 16.450 89.750 16.450 H 83.950 C 83.850 16.450 83.950 16.550 83.950 16.450 V 13.650 C 83.950 13.550 83.850 13.650 83.950 13.650 H 86.850 Z" stroke="rgb(0,0,255)" stroke-width="0.20" />
  <path d="M 74.850 13.650 H 77.750 C 77.850 13.650 77.750 13.550 77.750 13.650 V 16.450 C 77.750 16.550 77.850 16.450 77.750 16.450 H 71.950 C 71.850 16.450 71.950 16.550 71.950 16.450 V 13.650 C 71.950 13.550 71.850 13.650 71.950 13.650 H 74.850 Z" stroke="rgb(0,0,255)" stroke-width="0.20" />
  <path d="M 62.850 13.650 H 65.750 C 65.850 13.650 65.750 13.550 65.750 13.650 V 16.450 C 65.750 16.550 65.850 16.450 65.750 16.450 H 59.950 C 59.850 16.450 59.950 16.550 59.950 16.450 V 13.650 C 59.950 13.550 59.850 13.650 59.950 13.650 H 62.850 Z" stroke="rgb(0,0,255)" stroke-width="0.20" />
  <path d="M 50.850 13.650 H 53.750 C 53.850 13.650 53.750 13.550 53.750 13.650 V 16.450 C 53.750 16.550 53.850 16.450 53.750 16.450 H 47.950 C 47.850 16.450 47.950 16.550 47.950 16.450 V 13.650 C 47.950 13.550 47.850 13.650 47.950 13.650 H 50.850 Z" stroke="rgb(0,0,255)" stroke-width="0.20" />
  <path d="M 38.850 13.650 H 41.750 C 41.850 13.650 41.750 13.550 41.750 13.650 V 16.450 C 41.750 16.550 41.850 16.450 41.750 16.450 H 35.950 C 35.850 16.450 35.950 16.550 35.950 16.450 V 13.650 C 35.950 13.550 35.850 13.650 35.950 13.650 H 38.850 Z" stroke="rgb(0,0,255)" stroke-width="0.20" />
  <path d="M 26.850 13.650 H 29.750 C 29.850 13.650 29.750 13.550 29.750 13.650 V 16.450 C 29.750 16.550 29.850 16.450 29.750 16.450 H 23.950 C 23.850 16.450 23.950 16.550 23.950 16.450 V 13.650 C 23.950 13.550 23.850 13.650 23.950 13.650 H 26.850 Z" stroke="rgb(0,0,255)" stroke-width="0.20" />
  <path d="M 13.950 28.550 V 25.650 C 13.950 25.550 13.850 25.650 13.950 25.650 H 16.750 C 16.850 25.650 16.750 25.550 16.750 25.650 V 31.450 C 16.750 31.550 16.850 31.450 16.750 31.450 H 13.950 C 13.850 31.450 13.950 31.550 13.950 31.450 V 28.550 Z" stroke="rgb(0,0,255)" stroke-width="0.20" />
  <path d="M 13.950 40.550 V 37.650 C 13.950 37.550 13.850 37.650 13.950 37.650 H 16.750 C 16.850 37.650 16.750 37.550 16.750 37.650 V 43.450 C 16.750 43.550 16.850 43.450 16.750 43.450 H 13.950 C 13.850 43.450 13.950 43.550 13.950 43.450 V 40.550 Z" stroke="rgb(0,0,255)" stroke-width="0.20" />
  <path d="M 13.950 52.550 V 49.650 C 13.950 49.550 13.850 49.650 13.950 49.650 H 16.750 C 16.850 49.650 16.750 49.550 16.750 49.650 V 55.450 C 16.750 55.550 16.850 55.450 16.750 55.450 H 13.950 C 13.850 55.450 13.950 55.550 13.950 55.450 V 52.550 Z" stroke="rgb(0,0,255)" stroke-width="0.20" />
  <path d="M 13.950 64.550 V 61.650 C 13.950 61.550 13.850 61.650 13.950 61.650 H 16.750 C 16.850 61.650 16.750 61.550 16.750 61.650 V 67.450 C 16.750 67.550 16.850 67.450 16.750 67.450 H 13.950 C 13.850 67.450 13.950 67.550 13.950 67.450 V 64.550 Z" stroke="rgb(0,0,255)" stroke-width="0.20" />
  <path d="M 13.950 76.550 V 73.650 C 13.950 73.550 13.850 73.650 13.950 73.650 H 16.750 C 16.850 73.650 16.750 73.550 16.750 73.650 V 79.450 C 16.750 79.550 16.850 79.450 16.750 79.450 H 13.950 C 13.850 79.450 13.950 79.550 13.950 79.450 V 76.550 Z" stroke="rgb(0,0,255)" stroke-width="0.20" />
  <path d="M 13.950 88.550 V 85.650 C 13.950 85.550 13.850 85.650 13.950 85.650 H 16.750 C 16.850 85.650 16.750 85.550 16.750 85.650 V 91.450 C 16.750 91.550 16.850 91.450 16.750 91.450 H 13.950 C 13.850 91.450 13.950 91.550 13.950 91.450 V 88.550 Z" stroke="rgb(0,0,255)" stroke-width="0.20" />
  <path d="M 13.950 100.550 V 97.650 C 13.950 97.550 13.850 97.650 13.950 97.650 H 16.750 C 16.850 97.650 16.750 97.550 16.750 97.650 V 103.450 C 16.750 103.550 16.850 103.450 16.750 103.450 H 13.950 C 13.850 103.450 13.950 103.550 13.950 103.450 V 100.550 Z" stroke="rgb(0,0,255)" stroke-width="0.20" />
  <path d="M 13.950 112.550 V 109.650 C 13.950 109.550 13.850 109.650 13.950 109.650 H 16.750 C 16.850 109.650 16.750 109.550 16.750 109.650 V 115.450 C 16.750 115.550 16.850 115.450 16.750 115.450 H 13.950 C 13.850 115.450 13.950 115.550 13.950 115.450 V 112.550 Z" stroke="rgb(0,0,255)" stroke-width="0.20" />
  <path d="M 13.950 124.550 V 121.650 C 13.950 121.550 13.850 121.650 13.950 121.650 H 16.750 C 16.850 121.650 16.750 121.550 16.750 121.650 V 127.450 C 16.750 127.550 16.850 127.450 16.750 127.450 H 13.950 C 13.850 127.450 13.950 127.550 13.950 127.450 V 124.550 Z" stroke="rgb(0,0,255)" stroke-width="0.20" />
  <path d="M 13.950 136.550 V 133.650 C 13.950 133.550 13.850 133.650 13.950 133.650 H 16.750 C 16.850 133.650 16.750 133.550 16.750 133.650 V 139.450 C 16.750 139.550 16.850 139.450 16.750 139.450 H 13.950 C 13.850 139.450 13.950 139.550 13.950 139.450 V 136.550 Z" stroke="rgb(0,0,255)" stroke-width="0.20" />
  <path d="M 13.950 148.550 V 145.650 C 13.950 145.550 13.850 145.650 13.950 145.650 H 16.750 C 16.850 145.650 16.750 145.550 16.750 145.650 V 151.450 C 16.750 151.550 16.850 151.450 16.750 151.450 H 13.950 C 13.850 151.450 13.950 151.550 13.950 151.450 V 148.550 Z" stroke="rgb(0,0,255)" stroke-width="0.20" />
  <path d="M 13.950 160.550 V 157.650 C 13.950 157.550 13.850 157.650 13.950 157.650 H 16.750 C 16.850 157.650 16.750 157.550 16.750 157.650 V 163.450 C 16.750 163.550 16.850 163.450 16.750 163.450 H 13.950 C 13.850 163.450 13.950 163.550 13.950 163.450 V 160.550 Z" stroke="rgb(0,0,255)" stroke-width="0.20" />
  <path d="M 13.950 172.550 V 169.650 C 13.950 169.550 13.850 169.650 13.950 169.650 H 16.750 C 16.850 169.650 16.750 169.550 16.750 169.650 V 175.450 C 16.750 175.550 16.850 175.450 16.750 175.450 H 13.950 C 13.850 175.450 13.950 175.550 13.950 175.450 V 172.550 Z" stroke="rgb(0,0,255)" stroke-width="0.20" />
  <path d="M 13.950 184.550 V 181.650 C 13.950 181.550 13.850 181.650 13.950 181.650 H 16.750 C 16.850 181.650 16.750 181.550 16.750 181.650 V 187.450 C 16.750 187.550 16.850 187.450 16.750 187.450 H 13.950 C 13.850 187.450 13.950 187.550 13.950 187.450 V 184.550 Z" stroke="rgb(0,0,255)" stroke-width="0.20" />
  <path d="M 13.950 196.550 V 193.650 C 13.950 193.550 13.850 193.650 13.950 193.650 H 16.750 C 16.850 193.650 16.750 193.550 16.750 193.650 V 199.450 C 16.750 199.550 16.850 199.450 16.750 199.450 H 13.950 C 13.850 199.450 13.950 199.550 13.950 199.450 V 196.550 Z" stroke="rgb(0,0,255)" stroke-width="0.20" />
</g>
<g id="p-10" style="fill:none;stroke-linecap:round;stroke-linejoin:round;">
  <path d="M 180.000 215.100 H 190.450 C 190.505 215.100 190.550 215.055 190.550 215.000 V 212.100 C 190.550 212.000 190.450 212.100 190.550 212.100 H 196.350 C 196.450 212.100 196.350 212.000 196.350 212.100 V 215.000 C 196.350 215.055 196.395 215.100 196.450 215.100 H 202.450 C 202.505 215.100 202.550 215.055 202.550 215.000 V 212.100 C 202.550 212.000 202.450 212.100 202.550 212.100 H 208.350 C 208.450 212.100 208.350 212.000 208.350 212.100 V 215.000 C 208.350 215.055 208.395 215.100 208.450 215.100 H 214.450 C 214.505 215.100 214.550 215.055 214.550 215.000 V 212.100 C 214.550 212.000 214.450 212.100 214.550 212.100 H 220.350 C 220.450 212.100 220.350 212.000 220.350 212.100 V 215.000 C 220.350 215.055 220.395 215.100 220.450 215.100 H 226.450 C 226.505 215.100 226.550 215.055 226.550 215.000 V 212.100 C 226.550 212.000 226.450 212.100 226.550 212.100 H 232.350 C 232.450 212.100 232.350 212.000 232.350 212.100 V 215.000 C 232.350 215.055 232.395 215.100 232.450 215.100 H 238.450 C 238.505 215.100 238.550 215.055 238.550 215.000 V 212.100 C 238.550 212.000 238.450 212.100 238.550 212.100 H 244.350 C 244.450 212.100 244.350 212.000 244.350 212.100 V 215.000 C 244.350 215.055 244.395 215.100 244.450 215.100 H 250.450 C 250.505 215.100 250.550 215.055 250.550 215.000 V 212.100 C 250.550 212.000 250.450 212.100 250.550 212.100 H 256.350 C 256.450 212.100 256.350 212.000 256.350 212.100 V 215.000 C 256.350 215.055 256.395 215.100 256.450 215.100 H 262.450 C 262.505 215.100 262.550 215.055 262.550 215.000 V 212.100 C 262.550 212.000 262.450 212.100 262.550 212.100 H 268.350 C 268.450 212.100 268.350 212.000 268.350 212.100 V 215.000 C 268.350 215.055 268.395 215.100 268.450 215.100 H 274.450 C 274.505 215.100 274.550 215.055 274.550 215.000 V 212.100 C 274.550 212.000 274.450 212.100 274.550 212.100 H 280.350 C 280.450 212.100 280.350 212.000 280.350 212.100 V 215.000 C 280.350 215.055 280.395 215.100 280.450 215.100 H 286.450 C 286.505 215.100 286.550 215.055 286.550 215.000 V 212.100 C 286.550 212.000 286.450 212.100 286.550 212.100 H 292.350 C 292.450 212.100 292.350 212.000 292.350 212.100 V 215.000 C 292.350 215.055 292.395 215.100 292.450 215.100 H 298.450 C 298.505 215.100 298.550 215.055 298.550 215.000 V 212.100 C 298.550 212.000 298.450 212.100 298.550 212.100 H 304.350 C 304.450 212.100 304.350 212.000 304.350 212.100 V 215.000 C 304.350 215.055 304.395 215.100 304.450 215.100 H 310.450 C 310.505 215.100 310.550 215.055 310.550 215.000 V 212.100 C 310.550 212.000 310.450 212.100 310.550 212.100 H 316.350 C 316.450 212.100 316.350 212.000 316.350 212.100 V 215.000 C 316.350 215.055 316.395 215.100 316.450 215.100 H 322.450 C 322.505 215.100 322.550 215.055 322.550 215.000 V 212.100 C 322.550 212.000 322.450 212.100 322.550 212.100 H 328.350 C 328.450 212.100 328.350 212.000 328.350 212.100 V 215.000 C 328.350 215.055 328.395 215.100 328.450 215.100 H 338.900 H 341.900 C 341.955 215.100 342.000 215.055 342.000 215.000 V 212.000 V 205.550 C 342.000 205.495 341.955 205.450 341.900 205.450 H 339.000 C 338.900 205.450 339.000 205.550 339.000 205.450 V 199.650 C 339.000 199.550 338.900 199.650 339.000 199.650 H 341.900 C 341.955 199.650 342.000 199.605 342.000 199.550 V 193.550 C 342.000 193.495 341.955 193.450 341.900 193.450 H 339.000 C 338.900 193.450 339.000 193.550 339.000 193.450 V 187.650 C 339.000 187.550 338.900 187.650 339.000 187.650 H 341.900 C 341.955 187.650 342.000 187.605 342.000 187.550 V 181.550 C 342.000 181.495 341.955 181.450 341.900 181.450 H 339.000 C 338.900 181.450 339.000 181.550 339.000 181.450 V 175.650 C 339.000 175.550 338.900 175.650 339.000 175.650 H 341.900 C 341.955 175.650 342.000 175.605 342.000 175.550 V 169.550 C 342.000 169.495 341.955 169.450 341.900 169.450 H 339.000 C 338.900 169.450 339.000 169.550 339.000 169.450 V 163.650 C 339.000 163.550 338.900 163.650 339.000 163.650 H 341.900 C 341.955 163.650 342.000 163.605 342.000 163.550 V 157.550 C 342.000 157.495 341.955 157.450 341.900 157.450 H 339.000 C 338.900 157.450 339.000 157.550 339.000 157.450 V 151.650 C 339.000 151.550 338.900 151.650 339.000 151.650 H 341.900 C 341.955 151.650 342.000 151.605 342.000 151.550 V 145.550 C 342.000 145.495 341.955 145.450 341.900 145.450 H 339.000 C 338.900 145.450 339.000 145.550 339.000 145.450 V 139.650 C 339.000 139.550 338.900 139.650 339.000 139.650 H 341.900 C 341.955 139.650 342.000 139.605 342.000 139.550 V 133.550 C 342.000 133.495 341.955 133.450 341.900 133.450 H 339.000 C 338.900 133.450 339.000 133.550 339.000 133.450 V 127.650 C 339.000 127.550 338.900 127.650 339.000 127.650 H 341.900 C 341.955 127.650 342.000 127.605 342.000 127.550 V 121.550 C 342.000 121.495 341.955 121.450 341.900 121.450 H 339.000 C 338.900 121.450 339.000 121.550 339.000 121.450 V 115.650 C 339.000 115.550 338.900 115.650 339.000 115.650 H 341.900 C 341.955 115.650 342.000 115.605 342.000 115.550 V 109.550 C 342.000 109.495 341.955 109.450 341.900 109.450 H 339.000 C 338.900 109.450 339.000 109.550 339.000 109.450 V 103.650 C 339.000 103.550 338.900 103.650 339.000 103.650 H 341.900 C 341.955 103.650 342.000 103.605 342.000 103.550 V 97.550 C 342.000 97.495 341.955 97.450 341.900 97.450 H 339.000 C 338.900 97.450 339.000 97.550 339.000 97.450 V 91.650 C 339.000 91.550 338.900 91.650 339.000 91.650 H 341.900 C 341.955 91.650 342.000 91.605 342.000 91.550 V 85.550 C 342.000 85.495 341.955 85.450 341.900 85.450 H 339.000 C 338.900 85.450 339.000 85.550 339.000 85.450 V 79.650 C 339.000 79.550 338.900 79.650 339.000 79.650 H 341.900 C 341.955 79.650 342.000 79.605 342.000 79.550 V 73.550 C 342.000 73.495 341.955 73.450 341.900 73.450 H 339.000 C 338.900 73.450 339.000 73.550 339.000 73.450 V 67.650 C 339.000 67.550 338.900 67.650 339.000 67.650 H 341.900 C 341.955 67.650 342.000 67.605 342.000 67.550 V 61.550 C 342.000 61.495 341.955 61.450 341.900 61.450 H 339.000 C 338.900 61.450 339.000 61.550 339.000 61.450 V 55.650 C 339.000 55.550 338.900 55.650 339.000 55.650 H 341.900 C 341.955 55.650 342.000 55.605 342.000 55.550 V 49.550 C 342.000 49.495 341.955 49.450 341.900 49.450 H 339.000 C 338.900 49.450 339.000 49.550 339.000 49.450 V 43.650 C 339.000 43.550 338.900 43.650 339.000 43.650 H 341.900 C 341.955 43.650 342.000 43.605 342.000 43.550 V 37.550 C 342.000 37.495 341.955 37.450 341.900 37.450 H 339.000 C 338.900 37.450 339.000 37.550 339.000 37.450 V 31.650 C 339.000 31.550 338.900 31.650 339.000 31.650 H 341.900 C 341.955 31.650 342.000 31.605 342.000 31.550 V 25.550 C 342.000 25.495 341.955 25.450 341.900 25.450 H 339.000 C 338.900 25.450 339.000 25.550 339.000 25.450 V 19.650 C 339.000 19.550 338.900 19.650 339.000 19.650 H 341.900 C 341.955 19.650 342.000 19.605 342.000 19.550 V 13.100 V 10.100 C 342.000 10.045 341.955 10.000 341.900 10.000 H 338.900 H 328.450 C 328.395 10.000 328.350 10.045 328.350 10.100 V 13.000 C 328.350 13.100 328.450 13.000 328.350 13.000 H 322.550 C 322.450 13.000 322.550 13.100 322.550 13.000 V 10.100 C 322.550 10.045 322.505 10.000 322.450 10.000 H 316.450 C 316.395 10.000 316.350 10.045 316.350 10.100 V 13.000 C 316.350 13.100 316.450 13.000 316.350 13.000 H 310.550 C 310.450 13.000 310.550 13.100 310.550 13.000 V 10.100 C 310.550 10.045 310.505 10.000 310.450 10.000 H 304.450 C 304.395 10.000 304.350 10.045 304.350 10.100 V 13.000 C 304.350 13.100 304.450 13.000 304.350 13.000 H 298.550 C 298.450 13.000 298.550 13.100 298.550 13.000 V 10.100 C 298.550 10.045 298.505 10.000 298.450 10.000 H 292.450 C 292.395 10.000 292.350 10.045 292.350 10.100 V 13.000 C 292.350 13.100 292.450 13.000 292.350 13.000 H 286.550 C 286.450 13.000 286.550 13.100 286.550 13.000 V 10.100 C 286.550 10.045 286.505 10.000 286.450 10.000 H 280.450 C 280.395 10.000 280.350 10.045 280.350 10.100 V 13.000 C 280.350 13.100 280.450 13.000 280.350 13.000 H 274.550 C 274.450 13.000 274.550 13.100 274.550 13.000 V 10.100 C 274.550 10.045 274.505 10.000 274.450 10.000 H 268.450 C 268.395 10.000 268.350 10.045 268.350 10.100 V 13.000 C 268.350 13.100 268.450 13.000 268.350 13.000 H 262.550 C 262.450 13.000 262.550 13.100 262.550 13.000 V 10.100 C 262.550 10.045 262.505 10.000 262.450 10.000 H 256.450 C 256.395 10.000 256.350 10.045 256.350 10.100 V 13.000 C 256.350 13.100 256.450 13.000 256.350 13.000 H 250.550 C 250.450 13.000 250.550 13.100 250.550 13.000 V 10.100 C 250.550 10.045 250.505 10.000 250.450 10.000 H 244.450 C 244.395 10.000 244.350 10.045 244.350 10.100 V 13.000 C 244.350 13.100 244.450 13.000 244.350 13.000 H 238.550 C 238.450 13.000 238.550 13.100 238.550 13.000 V 10.100 C 238.550 10.045 238.505 10.000 238.450 10.000 H 232.450 C 232.395 10.000 232.350 10.045 232.350 10.100 V 13.000 C 232.350 13.100 232.450 13.000 232.350 13.000 H 226.550 C 226.450 13.000 226.550 13.100 226.550 13.000 V 10.100 C 226.550 10.045 226.505 10.000 226.450 10.000 H 220.450 C 220.395 10.000 220.350 10.045 220.350 10.100 V 13.000 C 220.350 13.100 220.450 13.000 220.350 13.000 H 214.550 C 214.450 13.000 214.550 13.100 214.550 13.000 V 10.100 C 214.550 10.045 214.505 10.000 214.450 10.000 H 208.450 C 208.395 10.000 208.350 10.045 208.350 10.100 V 13.000 C 208.350 13.100 208.450 13.000 208.350 13.000 H 202.550 C 202.450 13.000 202.550 13.100 202.550 13.000 V 10.100 C 202.550 10.045 202.505 10.000 202.450 10.000 H 196.450 C 196.395 10.000 196.350 10.045 196.350 10.100 V 13.000 C 196.350 13.100 196.450 13.000 196.350 13.000 H 190.550 C 190.450 13.000 190.550 13.100 190.550 13.000 V 10.100 C 190.550 10.045 190.505 10.000 190.450 10.000 H 180.000 H 177.000 C 176.945 10.000 176.900 10.045 176.900 10.100 V 13.100 V 19.550 C 176.900 19.605 176.945 19.650 177.000 19.650 H 179.900 C 180.000 19.650 179.900 19.550 179.900 19.650 V 25.450 C 179.900 25.550 180.000 25.450 179.900 25.450 H 177.000 C 176.945 25.450 176.900 25.495 176.900 25.550 V 31.550 C 176.900 31.605 176.945 31.650 177.000 31.650 H 179.900 C 180.000 31.650 179.900 31.550 179.900 31.650 V 37.450 C 179.900 37.550 180.000 37.450 179.900 37.450 H 177.000 C 176.945 37.450 176.900 37.495 176.900 37.550 V 43.550 C 176.900 43.605 176.945 43.650 177.000 43.650 H 179.900 C 180.000 43.650 179.900 43.550 179.900 43.650 V 49.450 C 179.900 49.550 180.000 49.450 179.900 49.450 H 177.000 C 176.945 49.450 176.900 49.495 176.900 49.550 V 55.550 C 176.900 55.605 176.945 55.650 177.000 55.650 H 179.900 C 180.000 55.650 179.900 55.550 179.900 55.650 V 61.450 C 179.900 61.550 180.000 61.450 179.900 61.450 H 177.000 C 176.945 61.450 176.900 61.495 176.900 61.550 V 67.550 C 176.900 67.605 176.945 67.650 177.000 67.650 H 179.900 C 180.000 67.650 179.900 67.550 179.900 67.650 V 73.450 C 179.900 73.550 180.000 73.450 179.900 73.450 H 177.000 C 176.945 73.450 176.900 73.495 176.900 73.550 V 79.550 C 176.900 79.605 176.945 79.650 177.000 79.650 H 179.900 C 180.000 79.650 179.900 79.550 179.900 79.650 V 85.450 C 179.900 85.550 180.000 85.450 179.900 85.450 H 177.000 C 176.945 85.450 176.900 85.495 176.900 85.550 V 91.550 C 176.900 91.605 176.945 91.650 177.000 91.650 H 179.900 C 180.000 91.650 179.900 91.550 179.900 91.650 V 97.450 C 179.900 97.550 180.000 97.450 179.900 97.450 H 177.000 C 176.945 97.450 176.900 97.495 176.900 97.550 V 103.550 C 176.900 103.605 176.945 103.650 177.000 103.650 H 179.900 C 180.000 103.650 179.900 103.550 179.900 103.650 V 109.450 C 179.900 109.550 180.000 109.450 179.900 109.450 H 177.000 C 176.945 109.450 176.900 109.495 176.900 109.550 V 115.550 C 176.900 115.605 176.945 115.650 177.000 115.650 H 179.900 C 180.000 115.650 179.900 115.550 179.900 115.650 V 121.450 C 179.900 121.550 180.000 121.450 179.900 121.450 H 177.000 C 176.945 121.450 176.900 121.495 176.900 121.550 V 127.550 C 176.900 127.605 176.945 127.650 177.000 127.650 H 179.900 C 180.000 127.650 179.900 127.550 179.900 127.650 V 133.450 C 179.900 133.550 180.000 133.450 179.900 133.450 H 177.000 C 176.945 133.450 176.900 133.495 176.900 133.550 V 139.550 C 176.900 139.605 176.945 139.650 177.000 139.650 H 179.900 C 180.000 139.650 179.900 139.550 179.900 139.650 V 145.450 C 179.900 145.550 180.000 145.450 179.900 145.450 H 177.000 C 176.945 145.450 176.900 145.495 176.900 145.550 V 151.550 C 176.900 151.605 176.945 151.650 177.000 151.650 H 179.900 C 180.000 151.650 179.900 151.550 179.900 151.650 V 157.450 C 179.900 157.550 180.000 157.450 179.900 157.450 H 177.000 C 176.945 157.450 176.900 157.495 176.900 157.550 V 163.550 C 176.900 163.605 176.945 163.650 177.000 163.650 H 179.900 C 180.000 163.650 179.900 163.550 179.900 163.650 V 169.450 C 179.900 169.550 180.000 169.450 179.900 169.450 H 177.000 C 176.945 169.450 176.900 169.495 176.900 169.550 V 175.550 C 176.900 175.605 176.945 175.650 177.000 175.650 H 179.900 C 180.000 175.650 179.900 175.550 179.900 175.650 V 181.450 C 179.900 181.550 180.000 181.450 179.900 181.450 H 177.000 C 176.945 181.450 176.900 181.495 176.900 181.550 V 187.550 C 176.900 187.605 176.945 187.650 177.000 187.650 H 179.900 C 180.000 187.650 179.900 187.550 179.900 187.650 V 193.450 C 179.900 193.550 180.000 193.450 179.900 193.450 H 177.000 C 176.945 193.450 176.900 193.495 176.900 193.550 V 199.550 C 176.900 199.605 176.945 199.650 177.000 199.650 H 179.900 C 180.000 199.650 179.900 199.550 179.900 199.650 V 205.450 C 179.900 205.550 180.000 205.450 179.900 205.450 H 177.000 C 176.945 205.450 176.900 205.495 176.900 205.550 V 212.000 V 215.000 C 176.900 215.055 176.945 215.100 177.000 215.100 H 180.000 Z" stroke="rgb(0,0,0)" stroke-width="0.20" />
</g>
</svg>