<?xml version='1.0' encoding='utf-8'?>
<svg width="343.20mm" height="258.20mm" viewBox="0.0 0.0 343.20 258.20" xmlns="http://www.w3.org/2000/svg" xmlns:dc="http://purl.org/dc/elements/1.1/" xmlns:cc="http://creativecommons.org/ns#" xmlns:rdf="http://www.w3.org/1999/02/22-rdf-syntax-ns#" xmlns:svg="http://www.w3.org/2000/svg" xmlns:xlink="http://www.w3.org/1999/xlink" xmlns:inkscape="http://www.inkscape.org/namespaces/inkscape">
<!--
TwoPiece - A two piece box where top slips over the bottom half to form 
       the enclosure.
    



Set *hi* larger than *h* to leave gap between the inner and outer shell. This can be used to make opening the box easier. Set *hi* smaller to only have a small inner ridge that will allow the content to be more visible after opening.

![Bottom view](static/samples/TwoPiece2.jpg)



Created with Boxes.py (https://festi.info/boxes.py)
Creation date: 2023-02-01 21:10:26
Command line (remove spaces between dashes): boxes TwoPiece - -FingerJoint_angle=90.0 - -FingerJoint_style=rectangular - -FingerJoint_surroundingspaces=2.0 - -FingerJoint_bottom_lip=0.0 - -FingerJoint_edge_width=1.0 - -FingerJoint_extra_length=0.0 - -FingerJoint_finger=2.0 - -FingerJoint_play=0.0 - -FingerJoint_space=2.0 - -FingerJoint_width=1.0 - -x=93.0 - -y=40.0 - -h=82.0 - -hi=0.0 - -outside=0 - -play=0.15 - -thickness=3.0 - -format=svg - -tabs=0.0 - -debug=0 - -labels=0 - -labels=1 - -reference=100 - -inner_corners=loop - -burn=0.1
Url: http://localhost:8000/TwoPiece?FingerJoint_angle=90.0&FingerJoint_style=rectangular&FingerJoint_surroundingspaces=2.0&FingerJoint_bottom_lip=0.0&FingerJoint_edge_width=1.0&FingerJoint_extra_length=0.0&FingerJoint_finger=2.0&FingerJoint_play=0.0&FingerJoint_space=2.0&FingerJoint_width=1.0&x=93.0&y=40.0&h=82.0&hi=0.0&outside=0&play=0.15&thickness=3.0&format=svg&tabs=0.0&debug=0&labels=0&labels=1&reference=100&inner_corners=loop&burn=0.1&render=2
SettingsUrl: http://localhost:8000/TwoPiece?FingerJoint_angle=90.0&FingerJoint_style=rectangular&FingerJoint_surroundingspaces=2.0&FingerJoint_bottom_lip=0.0&FingerJoint_edge_width=1.0&FingerJoint_extra_length=0.0&FingerJoint_finger=2.0&FingerJoint_play=0.0&FingerJoint_space=2.0&FingerJoint_width=1.0&x=93.0&y=40.0&h=82.0&hi=0.0&outside=0&play=0.15&thickness=3.0&format=svg&tabs=0.0&debug=0&labels=0&labels=1&reference=100&inner_corners=loop&burn=0.1&render=2
-->
<title>TwoPiece</title>
<metadata>
<rdf:RDF><cc:Work>
<dc:title>Box - TwoPiece</dc:title>
<dc:date>2023-02-01 21:10:26</dc:date>
<dc:source>http://localhost:8000/TwoPiece?FingerJoint_angle=90.0&amp;FingerJoint_style=rectangular&amp;FingerJoint_surroundingspaces=2.0&amp;FingerJoint_bottom_lip=0.0&amp;FingerJoint_edge_width=1.0&amp;FingerJoint_extra_length=0.0&amp;FingerJoint_finger=2.0&amp;FingerJoint_play=0.0&amp;FingerJoint_space=2.0&amp;FingerJoint_width=1.0&amp;x=93.0&amp;y=40.0&amp;h=82.0&amp;hi=0.0&amp;outside=0&amp;play=0.15&amp;thickness=3.0&amp;format=svg&amp;tabs=0.0&amp;debug=0&amp;labels=0&amp;labels=1&amp;reference=100&amp;inner_corners=loop&amp;burn=0.1&amp;render=2</dc:source>
<dc:description>A two piece box where top slips over the bottom half to form 
       the enclosure.
    


Set *hi* larger than *h* to leave gap between the inner and outer shell. This can be used to make opening the box easier. Set *hi* smaller to only have a small inner ridge that will allow the content to be more visible after opening.

![Bottom view](static/samples/TwoPiece2.jpg)


Created with Boxes.py (https://festi.info/boxes.py)
Command line: boxes TwoPiece --FingerJoint_angle=90.0 --FingerJoint_style=rectangular --FingerJoint_surroundingspaces=2.0 --FingerJoint_bottom_lip=0.0 --FingerJoint_edge_width=1.0 --FingerJoint_extra_length=0.0 --FingerJoint_finger=2.0 --FingerJoint_play=0.0 --FingerJoint_space=2.0 --FingerJoint_width=1.0 --x=93.0 --y=40.0 --h=82.0 --hi=0.0 --outside=0 --play=0.15 --thickness=3.0 --format=svg --tabs=0.0 --debug=0 --labels=0 --labels=1 --reference=100 --inner_corners=loop --burn=0.1
Url: http://localhost:8000/TwoPiece?FingerJoint_angle=90.0&amp;FingerJoint_style=rectangular&amp;FingerJoint_surroundingspaces=2.0&amp;FingerJoint_bottom_lip=0.0&amp;FingerJoint_edge_width=1.0&amp;FingerJoint_extra_length=0.0&amp;FingerJoint_finger=2.0&amp;FingerJoint_play=0.0&amp;FingerJoint_space=2.0&amp;FingerJoint_width=1.0&amp;x=93.0&amp;y=40.0&amp;h=82.0&amp;hi=0.0&amp;outside=0&amp;play=0.15&amp;thickness=3.0&amp;format=svg&amp;tabs=0.0&amp;debug=0&amp;labels=0&amp;labels=1&amp;reference=100&amp;inner_corners=loop&amp;burn=0.1&amp;render=2
SettingsUrl: http://localhost:8000/TwoPiece?FingerJoint_angle=90.0&amp;FingerJoint_style=rectangular&amp;FingerJoint_surroundingspaces=2.0&amp;FingerJoint_bottom_lip=0.0&amp;FingerJoint_edge_width=1.0&amp;FingerJoint_extra_length=0.0&amp;FingerJoint_finger=2.0&amp;FingerJoint_play=0.0&amp;FingerJoint_space=2.0&amp;FingerJoint_width=1.0&amp;x=93.0&amp;y=40.0&amp;h=82.0&amp;hi=0.0&amp;outside=0&amp;play=0.15&amp;thickness=3.0&amp;format=svg&amp;tabs=0.0&amp;debug=0&amp;labels=0&amp;labels=1&amp;reference=100&amp;inner_corners=loop&amp;burn=0.1&amp;render=2
</dc:description>
</cc:Work></rdf:RDF></metadata>
<g id="p-0" style="fill:none;stroke-linecap:round;stroke-linejoin:round;">
  <path d="M 10.400 248.200 H 110.400 V 238.200 H 10.400 V 248.200 Z" stroke="rgb(0,0,0)" stroke-width="0.20" />
  <text transform="matrix( 1.000 0.000 0.000 1.000 60.400 239.200 )" style="font-family: sans-serif ; font-weight: normal; font-style: normal; fill: rgb(255,0,0)" font-size="8px" text-anchor="middle" dominant-baseline="hanging">100mm, burn:0.10mm</text>
</g>
<g id="p-1" style="fill:none;stroke-linecap:round;stroke-linejoin:round;">
  <path d="M 13.400 233.500 H 20.800 C 20.900 233.500 20.800 233.400 20.800 233.500 V 236.400 C 20.800 236.455 20.845 236.500 20.900 236.500 H 26.900 C 26.955 236.500 27.000 236.455 27.000 236.400 V 233.500 C 27.000 233.400 26.900 233.500 27.000 233.500 H 32.800 C 32.900 233.500 32.800 233.400 32.800 233.500 V 236.400 C 32.800 236.455 32.845 236.500 32.900 236.500 H 38.900 C 38.955 236.500 39.000 236.455 39.000 236.400 V 233.500 C 39.000 233.400 38.900 233.500 39.000 233.500 H 44.800 C 44.900 233.500 44.800 233.400 44.800 233.500 V 236.400 C 44.800 236.455 44.845 236.500 44.900 236.500 H 50.900 C 50.955 236.500 51.000 236.455 51.000 236.400 V 233.500 C 51.000 233.400 50.900 233.500 51.000 233.500 H 56.800 C 56.900 233.500 56.800 233.400 56.800 233.500 V 236.400 C 56.800 236.455 56.845 236.500 56.900 236.500 H 62.900 C 62.955 236.500 63.000 236.455 63.000 236.400 V 233.500 C 63.000 233.400 62.900 233.500 63.000 233.500 H 68.800 C 68.900 233.500 68.800 233.400 68.800 233.500 V 236.400 C 68.800 236.455 68.845 236.500 68.900 236.500 H 74.900 C 74.955 236.500 75.000 236.455 75.000 236.400 V 233.500 C 75.000 233.400 74.900 233.500 75.000 233.500 H 80.800 C 80.900 233.500 80.800 233.400 80.800 233.500 V 236.400 C 80.800 236.455 80.845 236.500 80.900 236.500 H 86.900 C 86.955 236.500 87.000 236.455 87.000 236.400 V 233.500 C 87.000 233.400 86.900 233.500 87.000 233.500 H 92.800 C 92.900 233.500 92.800 233.400 92.800 233.500 V 236.400 C 92.800 236.455 92.845 236.500 92.900 236.500 H 98.900 C 98.955 236.500 99.000 236.455 99.000 236.400 V 233.500 C 99.000 233.400 98.900 233.500 99.000 233.500 H 106.400 H 109.400 C 109.455 233.500 109.500 233.455 109.500 233.400 V 225.400 C 109.500 225.345 109.455 225.300 109.400 225.300 H 106.500 C 106.400 225.300 106.500 225.400 106.500 225.300 V 219.500 C 106.500 219.400 106.400 219.500 106.500 219.500 H 109.400 C 109.455 219.500 109.500 219.455 109.500 219.400 V 213.400 C 109.500 213.345 109.455 213.300 109.400 213.300 H 106.500 C 106.400 213.300 106.500 213.400 106.500 213.300 V 207.500 C 106.500 207.400 106.400 207.500 106.500 207.500 H 109.400 C 109.455 207.500 109.500 207.455 109.500 207.400 V 201.400 C 109.500 201.345 109.455 201.300 109.400 201.300 H 106.500 C 106.400 201.300 106.500 201.400 106.500 201.300 V 195.500 C 106.500 195.400 106.400 195.500 106.500 195.500 H 109.400 C 109.455 195.500 109.500 195.455 109.500 195.400 V 189.400 C 109.500 189.345 109.455 189.300 109.400 189.300 H 106.500 C 106.400 189.300 106.500 189.400 106.500 189.300 V 183.500 C 106.500 183.400 106.400 183.500 106.500 183.500 H 109.400 C 109.455 183.500 109.500 183.455 109.500 183.400 V 177.400 C 109.500 177.345 109.455 177.300 109.400 177.300 H 106.500 C 106.400 177.300 106.500 177.400 106.500 177.300 V 171.500 C 106.500 171.400 106.400 171.500 106.500 171.500 H 109.400 C 109.455 171.500 109.500 171.455 109.500 171.400 V 165.400 C 109.500 165.345 109.455 165.300 109.400 165.300 H 106.500 C 106.400 165.300 106.500 165.400 106.500 165.300 V 159.500 C 106.500 159.400 106.400 159.500 106.500 159.500 H 109.400 C 109.455 159.500 109.500 159.455 109.500 159.400 V 151.400 C 109.500 151.345 109.455 151.300 109.400 151.300 H 106.400 H 13.400 H 10.400 C 10.345 151.300 10.300 151.345 10.300 151.400 V 159.400 C 10.300 159.455 10.345 159.500 10.400 159.500 H 13.300 C 13.400 159.500 13.300 159.400 13.300 159.500 V 165.300 C 13.300 165.400 13.400 165.300 13.300 165.300 H 10.400 C 10.345 165.300 10.300 165.345 10.300 165.400 V 171.400 C 10.300 171.455 10.345 171.500 10.400 171.500 H 13.300 C 13.400 171.500 13.300 171.400 13.300 171.500 V 177.300 C 13.300 177.400 13.400 177.300 13.300 177.300 H 10.400 C 10.345 177.300 10.300 177.345 10.300 177.400 V 183.400 C 10.300 183.455 10.345 183.500 10.400 183.500 H 13.300 C 13.400 183.500 13.300 183.400 13.300 183.500 V 189.300 C 13.300 189.400 13.400 189.300 13.300 189.300 H 10.400 C 10.345 189.300 10.300 189.345 10.300 189.400 V 195.400 C 10.300 195.455 10.345 195.500 10.400 195.500 H 13.300 C 13.400 195.500 13.300 195.400 13.300 195.500 V 201.300 C 13.300 201.400 13.400 201.300 13.300 201.300 H 10.400 C 10.345 201.300 10.300 201.345 10.300 201.400 V 207.400 C 10.300 207.455 10.345 207.500 10.400 207.500 H 13.300 C 13.400 207.500 13.300 207.400 13.300 207.500 V 213.300 C 13.300 213.400 13.400 213.300 13.300 213.300 H 10.400 C 10.345 213.300 10.300 213.345 10.300 213.400 V 219.400 C 10.300 219.455 10.345 219.500 10.400 219.500 H 13.300 C 13.400 219.500 13.300 219.400 13.300 219.500 V 225.300 C 13.300 225.400 13.400 225.300 13.300 225.300 H 10.400 C 10.345 225.300 10.300 225.345 10.300 225.400 V 233.400 C 10.300 233.455 10.345 233.500 10.400 233.500 H 13.400 Z" stroke="rgb(0,0,0)" stroke-width="0.20" />
</g>
<g id="p-2" style="fill:none;stroke-linecap:round;stroke-linejoin:round;">
  <path d="M 114.100 233.500 H 125.000 C 125.100 233.500 125.000 233.400 125.000 233.500 V 236.400 C 125.000 236.455 125.045 236.500 125.100 236.500 H 131.100 C 131.155 236.500 131.200 236.455 131.200 236.400 V 233.500 C 131.200 233.400 131.100 233.500 131.200 233.500 H 137.000 C 137.100 233.500 137.000 233.400 137.000 233.500 V 236.400 C 137.000 236.455 137.045 236.500 137.100 236.500 H 143.100 C 143.155 236.500 143.200 236.455 143.200 236.400 V 233.500 C 143.200 233.400 143.100 233.500 143.200 233.500 H 154.100 C 154.155 233.500 154.200 233.455 154.200 233.400 V 225.500 C 154.200 225.400 154.100 225.500 154.200 225.500 H 157.100 C 157.155 225.500 157.200 225.455 157.200 225.400 V 219.400 C 157.200 219.345 157.155 219.300 157.100 219.300 H 154.200 C 154.100 219.300 154.200 219.400 154.200 219.300 V 213.500 C 154.200 213.400 154.100 213.500 154.200 213.500 H 157.100 C 157.155 213.500 157.200 213.455 157.200 213.400 V 207.400 C 157.200 207.345 157.155 207.300 157.100 207.300 H 154.200 C 154.100 207.300 154.200 207.400 154.200 207.300 V 201.500 C 154.200 201.400 154.100 201.500 154.200 201.500 H 157.100 C 157.155 201.500 157.200 201.455 157.200 201.400 V 195.400 C 157.200 195.345 157.155 195.300 157.100 195.300 H 154.200 C 154.100 195.300 154.200 195.400 154.200 195.300 V 189.500 C 154.200 189.400 154.100 189.500 154.200 189.500 H 157.100 C 157.155 189.500 157.200 189.455 157.200 189.400 V 183.400 C 157.200 183.345 157.155 183.300 157.100 183.300 H 154.200 C 154.100 183.300 154.200 183.400 154.200 183.300 V 177.500 C 154.200 177.400 154.100 177.500 154.200 177.500 H 157.100 C 157.155 177.500 157.200 177.455 157.200 177.400 V 171.400 C 157.200 171.345 157.155 171.300 157.100 171.300 H 154.200 C 154.100 171.300 154.200 171.400 154.200 171.300 V 165.500 C 154.200 165.400 154.100 165.500 154.200 165.500 H 157.100 C 157.155 165.500 157.200 165.455 157.200 165.400 V 159.400 C 157.200 159.345 157.155 159.300 157.100 159.300 H 154.200 C 154.100 159.300 154.200 159.400 154.200 159.300 V 151.400 C 154.200 151.345 154.155 151.300 154.100 151.300 H 114.100 C 114.045 151.300 114.000 151.345 114.000 151.400 V 159.300 C 114.000 159.400 114.100 159.300 114.000 159.300 H 111.100 C 111.045 159.300 111.000 159.345 111.000 159.400 V 165.400 C 111.000 165.455 111.045 165.500 111.100 165.500 H 114.000 C 114.100 165.500 114.000 165.400 114.000 165.500 V 171.300 C 114.000 171.400 114.100 171.300 114.000 171.300 H 111.100 C 111.045 171.300 111.000 171.345 111.000 171.400 V 177.400 C 111.000 177.455 111.045 177.500 111.100 177.500 H 114.000 C 114.100 177.500 114.000 177.400 114.000 177.500 V 183.300 C 114.000 183.400 114.100 183.300 114.000 183.300 H 111.100 C 111.045 183.300 111.000 183.345 111.000 183.400 V 189.400 C 111.000 189.455 111.045 189.500 111.100 189.500 H 114.000 C 114.100 189.500 114.000 189.400 114.000 189.500 V 195.300 C 114.000 195.400 114.100 195.300 114.000 195.300 H 111.100 C 111.045 195.300 111.000 195.345 111.000 195.400 V 201.400 C 111.000 201.455 111.045 201.500 111.100 201.500 H 114.000 C 114.100 201.500 114.000 201.400 114.000 201.500 V 207.300 C 114.000 207.400 114.100 207.300 114.000 207.300 H 111.100 C 111.045 207.300 111.000 207.345 111.000 207.400 V 213.400 C 111.000 213.455 111.045 213.500 111.100 213.500 H 114.000 C 114.100 213.500 114.000 213.400 114.000 213.500 V 219.300 C 114.000 219.400 114.100 219.300 114.000 219.300 H 111.100 C 111.045 219.300 111.000 219.345 111.000 219.400 V 225.400 C 111.000 225.455 111.045 225.500 111.100 225.500 H 114.000 C 114.100 225.500 114.000 225.400 114.000 225.500 V 233.400 C 114.000 233.455 114.045 233.500 114.100 233.500 Z" stroke="rgb(0,0,0)" stroke-width="0.20" />
</g>
<g id="p-3" style="fill:none;stroke-linecap:round;stroke-linejoin:round;">
  <path d="M 161.800 233.500 H 169.200 C 169.300 233.500 169.200 233.400 169.200 233.500 V 236.400 C 169.200 236.455 169.245 236.500 169.300 236.500 H 175.300 C 175.355 236.500 175.400 236.455 175.400 236.400 V 233.500 C 175.400 233.400 175.300 233.500 175.400 233.500 H 181.200 C 181.300 233.500 181.200 233.400 181.200 233.500 V 236.400 C 181.200 236.455 181.245 236.500 181.300 236.500 H 187.300 C 187.355 236.500 187.400 236.455 187.400 236.400 V 233.500 C 187.400 233.400 187.300 233.500 187.400 233.500 H 193.200 C 193.300 233.500 193.200 233.400 193.200 233.500 V 236.400 C 193.200 236.455 193.245 236.500 193.300 236.500 H 199.300 C 199.355 236.500 199.400 236.455 199.400 236.400 V 233.500 C 199.400 233.400 199.300 233.500 199.400 233.500 H 205.200 C 205.300 233.500 205.200 233.400 205.200 233.500 V 236.400 C 205.200 236.455 205.245 236.500 205.300 236.500 H 211.300 C 211.355 236.500 211.400 236.455 211.400 236.400 V 233.500 C 211.400 233.400 211.300 233.500 211.400 233.500 H 217.200 C 217.300 233.500 217.200 233.400 217.200 233.500 V 236.400 C 217.200 236.455 217.245 236.500 217.300 236.500 H 223.300 C 223.355 236.500 223.400 236.455 223.400 236.400 V 233.500 C 223.400 233.400 223.300 233.500 223.400 233.500 H 229.200 C 229.300 233.500 229.200 233.400 229.200 233.500 V 236.400 C 229.200 236.455 229.245 236.500 229.300 236.500 H 235.300 C 235.355 236.500 235.400 236.455 235.400 236.400 V 233.500 C 235.400 233.400 235.300 233.500 235.400 233.500 H 241.200 C 241.300 233.500 241.200 233.400 241.200 233.500 V 236.400 C 241.200 236.455 241.245 236.500 241.300 236.500 H 247.300 C 247.355 236.500 247.400 236.455 247.400 236.400 V 233.500 C 247.400 233.400 247.300 233.500 247.400 233.500 H 254.800 H 257.800 C 257.855 233.500 257.900 233.455 257.900 233.400 V 225.400 C 257.900 225.345 257.855 225.300 257.800 225.300 H 254.900 C 254.800 225.300 254.900 225.400 254.900 225.300 V 219.500 C 254.900 219.400 254.800 219.500 254.900 219.500 H 257.800 C 257.855 219.500 257.900 219.455 257.900 219.400 V 213.400 C 257.900 213.345 257.855 213.300 257.800 213.300 H 254.900 C 254.800 213.300 254.900 213.400 254.900 213.300 V 207.500 C 254.900 207.400 254.800 207.500 254.900 207.500 H 257.800 C 257.855 207.500 257.900 207.455 257.900 207.400 V 201.400 C 257.900 201.345 257.855 201.300 257.800 201.300 H 254.900 C 254.800 201.300 254.900 201.400 254.900 201.300 V 195.500 C 254.900 195.400 254.800 195.500 254.900 195.500 H 257.800 C 257.855 195.500 257.900 195.455 257.900 195.400 V 189.400 C 257.900 189.345 257.855 189.300 257.800 189.300 H 254.900 C 254.800 189.300 254.900 189.400 254.900 189.300 V 183.500 C 254.900 183.400 254.800 183.500 254.900 183.500 H 257.800 C 257.855 183.500 257.900 183.455 257.900 183.400 V 177.400 C 257.900 177.345 257.855 177.300 257.800 177.300 H 254.900 C 254.800 177.300 254.900 177.400 254.900 177.300 V 171.500 C 254.900 171.400 254.800 171.500 254.900 171.500 H 257.800 C 257.855 171.500 257.900 171.455 257.900 171.400 V 165.400 C 257.900 165.345 257.855 165.300 257.800 165.300 H 254.900 C 254.800 165.300 254.900 165.400 254.900 165.300 V 159.500 C 254.900 159.400 254.800 159.500 254.900 159.500 H 257.800 C 257.855 159.500 257.900 159.455 257.900 159.400 V 151.400 C 257.900 151.345 257.855 151.300 257.800 151.300 H 254.800 H 161.800 H 158.800 C 158.745 151.300 158.700 151.345 158.700 151.400 V 159.400 C 158.700 159.455 158.745 159.500 158.800 159.500 H 161.700 C 161.800 159.500 161.700 159.400 161.700 159.500 V 165.300 C 161.700 165.400 161.800 165.300 161.700 165.300 H 158.800 C 158.745 165.300 158.700 165.345 158.700 165.400 V 171.400 C 158.700 171.455 158.745 171.500 158.800 171.500 H 161.700 C 161.800 171.500 161.700 171.400 161.700 171.500 V 177.300 C 161.700 177.400 161.800 177.300 161.700 177.300 H 158.800 C 158.745 177.300 158.700 177.345 158.700 177.400 V 183.400 C 158.700 183.455 158.745 183.500 158.800 183.500 H 161.700 C 161.800 183.500 161.700 183.400 161.700 183.500 V 189.300 C 161.700 189.400 161.800 189.300 161.700 189.300 H 158.800 C 158.745 189.300 158.700 189.345 158.700 189.400 V 195.400 C 158.700 195.455 158.745 195.500 158.800 195.500 H 161.700 C 161.800 195.500 161.700 195.400 161.700 195.500 V 201.300 C 161.700 201.400 161.800 201.300 161.700 201.300 H 158.800 C 158.745 201.300 158.700 201.345 158.700 201.400 V 207.400 C 158.700 207.455 158.745 207.500 158.800 207.500 H 161.700 C 161.800 207.500 161.700 207.400 161.700 207.500 V 213.300 C 161.700 213.400 161.800 213.300 161.700 213.300 H 158.800 C 158.745 213.300 158.700 213.345 158.700 213.400 V 219.400 C 158.700 219.455 158.745 219.500 158.800 219.500 H 161.700 C 161.800 219.500 161.700 219.400 161.700 219.500 V 225.300 C 161.700 225.400 161.800 225.300 161.700 225.300 H 158.800 C 158.745 225.300 158.700 225.345 158.700 225.400 V 233.400 C 158.700 233.455 158.745 233.500 158.800 233.500 H 161.800 Z" stroke="rgb(0,0,0)" stroke-width="0.20" />
</g>
<g id="p-4" style="fill:none;stroke-linecap:round;stroke-linejoin:round;">
  <path d="M 262.500 233.500 H 273.400 C 273.500 233.500 273.400 233.400 273.400 233.500 V 236.400 C 273.400 236.455 273.445 236.500 273.500 236.500 H 279.500 C 279.555 236.500 279.600 236.455 279.600 236.400 V 233.500 C 279.600 233.400 279.500 233.500 279.600 233.500 H 285.400 C 285.500 233.500 285.400 233.400 285.400 233.500 V 236.400 C 285.400 236.455 285.445 236.500 285.500 236.500 H 291.500 C 291.555 236.500 291.600 236.455 291.600 236.400 V 233.500 C 291.600 233.400 291.500 233.500 291.600 233.500 H 302.500 C 302.555 233.500 302.600 233.455 302.600 233.400 V 225.500 C 302.600 225.400 302.500 225.500 302.600 225.500 H 305.500 C 305.555 225.500 305.600 225.455 305.600 225.400 V 219.400 C 305.600 219.345 305.555 219.300 305.500 219.300 H 302.600 C 302.500 219.300 302.600 219.400 302.600 219.300 V 213.500 C 302.600 213.400 302.500 213.500 302.600 213.500 H 305.500 C 305.555 213.500 305.600 213.455 305.600 213.400 V 207.400 C 305.600 207.345 305.555 207.300 305.500 207.300 H 302.600 C 302.500 207.300 302.600 207.400 302.600 207.300 V 201.500 C 302.600 201.400 302.500 201.500 302.600 201.500 H 305.500 C 305.555 201.500 305.600 201.455 305.600 201.400 V 195.400 C 305.600 195.345 305.555 195.300 305.500 195.300 H 302.600 C 302.500 195.300 302.600 195.400 302.600 195.300 V 189.500 C 302.600 189.400 302.500 189.500 302.600 189.500 H 305.500 C 305.555 189.500 305.600 189.455 305.600 189.400 V 183.400 C 305.600 183.345 305.555 183.300 305.500 183.300 H 302.600 C 302.500 183.300 302.600 183.400 302.600 183.300 V 177.500 C 302.600 177.400 302.500 177.500 302.600 177.500 H 305.500 C 305.555 177.500 305.600 177.455 305.600 177.400 V 171.400 C 305.600 171.345 305.555 171.300 305.500 171.300 H 302.600 C 302.500 171.300 302.600 171.400 302.600 171.300 V 165.500 C 302.600 165.400 302.500 165.500 302.600 165.500 H 305.500 C 305.555 165.500 305.600 165.455 305.600 165.400 V 159.400 C 305.600 159.345 305.555 159.300 305.500 159.300 H 302.600 C 302.500 159.300 302.600 159.400 302.600 159.300 V 151.400 C 302.600 151.345 302.555 151.300 302.500 151.300 H 262.500 C 262.445 151.300 262.400 151.345 262.400 151.400 V 159.300 C 262.400 159.400 262.500 159.300 262.400 159.300 H 259.500 C 259.445 159.300 259.400 159.345 259.400 159.400 V 165.400 C 259.400 165.455 259.445 165.500 259.500 165.500 H 262.400 C 262.500 165.500 262.400 165.400 262.400 165.500 V 171.300 C 262.400 171.400 262.500 171.300 262.400 171.300 H 259.500 C 259.445 171.300 259.400 171.345 259.400 171.400 V 177.400 C 259.400 177.455 259.445 177.500 259.500 177.500 H 262.400 C 262.500 177.500 262.400 177.400 262.400 177.500 V 183.300 C 262.400 183.400 262.500 183.300 262.400 183.300 H 259.500 C 259.445 183.300 259.400 183.345 259.400 183.400 V 189.400 C 259.400 189.455 259.445 189.500 259.500 189.500 H 262.400 C 262.500 189.500 262.400 189.400 262.400 189.500 V 195.300 C 262.400 195.400 262.500 195.300 262.400 195.300 H 259.500 C 259.445 195.300 259.400 195.345 259.400 195.400 V 201.400 C 259.400 201.455 259.445 201.500 259.500 201.500 H 262.400 C 262.500 201.500 262.400 201.400 262.400 201.500 V 207.300 C 262.400 207.400 262.500 207.300 262.400 207.300 H 259.500 C 259.445 207.300 259.400 207.345 259.400 207.400 V 213.400 C 259.400 213.455 259.445 213.500 259.500 213.500 H 262.400 C 262.500 213.500 262.400 213.400 262.400 213.500 V 219.300 C 262.400 219.400 262.500 219.300 262.400 219.300 H 259.500 C 259.445 219.300 259.400 219.345 259.400 219.400 V 225.400 C 259.400 225.455 259.445 225.500 259.500 225.500 H 262.400 C 262.500 225.500 262.400 225.400 262.400 225.500 V 233.400 C 262.400 233.455 262.445 233.500 262.500 233.500 Z" stroke="rgb(0,0,0)" stroke-width="0.20" />
</g>
<g id="p-5" style="fill:none;stroke-linecap:round;stroke-linejoin:round;">
  <path d="M 13.400 146.800 H 24.250 C 24.350 146.800 24.250 146.700 24.250 146.800 V 149.700 C 24.250 149.755 24.295 149.800 24.350 149.800 H 30.350 C 30.405 149.800 30.450 149.755 30.450 149.700 V 146.800 C 30.450 146.700 30.350 146.800 30.450 146.800 H 36.250 C 36.350 146.800 36.250 146.700 36.250 146.800 V 149.700 C 36.250 149.755 36.295 149.800 36.350 149.800 H 42.350 C 42.405 149.800 42.450 149.755 42.450 149.700 V 146.800 C 42.450 146.700 42.350 146.800 42.450 146.800 H 48.250 C 48.350 146.800 48.250 146.700 48.250 146.800 V 149.700 C 48.250 149.755 48.295 149.800 48.350 149.800 H 54.350 C 54.405 149.800 54.450 149.755 54.450 149.700 V 146.800 C 54.450 146.700 54.350 146.800 54.450 146.800 H 60.250 C 60.350 146.800 60.250 146.700 60.250 146.800 V 149.700 C 60.250 149.755 60.295 149.800 60.350 149.800 H 66.350 C 66.405 149.800 66.450 149.755 66.450 149.700 V 146.800 C 66.450 146.700 66.350 146.800 66.450 146.800 H 72.250 C 72.350 146.800 72.250 146.700 72.250 146.800 V 149.700 C 72.250 149.755 72.295 149.800 72.350 149.800 H 78.350 C 78.405 149.800 78.450 149.755 78.450 149.700 V 146.800 C 78.450 146.700 78.350 146.800 78.450 146.800 H 84.250 C 84.350 146.800 84.250 146.700 84.250 146.800 V 149.700 C 84.250 149.755 84.295 149.800 84.350 149.800 H 90.350 C 90.405 149.800 90.450 149.755 90.450 149.700 V 146.800 C 90.450 146.700 90.350 146.800 90.450 146.800 H 96.250 C 96.350 146.800 96.250 146.700 96.250 146.800 V 149.700 C 96.250 149.755 96.295 149.800 96.350 149.800 H 102.350 C 102.405 149.800 102.450 149.755 102.450 149.700 V 146.800 C 102.450 146.700 102.350 146.800 102.450 146.800 H 113.300 H 116.300 C 116.355 146.800 116.400 146.755 116.400 146.700 V 138.700 C 116.400 138.645 116.355 138.600 116.300 138.600 H 113.400 C 113.300 138.600 113.400 138.700 113.400 138.600 V 132.800 C 113.400 132.700 113.300 132.800 113.400 132.800 H 116.300 C 116.355 132.800 116.400 132.755 116.400 132.700 V 126.700 C 116.400 126.645 116.355 126.600 116.300 126.600 H 113.400 C 113.300 126.600 113.400 126.700 113.400 126.600 V 120.800 C 113.400 120.700 113.300 120.800 113.400 120.800 H 116.300 C 116.355 120.800 116.400 120.755 116.400 120.700 V 114.700 C 116.400 114.645 116.355 114.600 116.300 114.600 H 113.400 C 113.300 114.600 113.400 114.700 113.400 114.600 V 108.800 C 113.400 108.700 113.300 108.800 113.400 108.800 H 116.300 C 116.355 108.800 116.400 108.755 116.400 108.700 V 102.700 C 116.400 102.645 116.355 102.600 116.300 102.600 H 113.400 C 113.300 102.600 113.400 102.700 113.400 102.600 V 96.800 C 113.400 96.700 113.300 96.800 113.400 96.800 H 116.300 C 116.355 96.800 116.400 96.755 116.400 96.700 V 90.700 C 116.400 90.645 116.355 90.600 116.300 90.600 H 113.400 C 113.300 90.600 113.400 90.700 113.400 90.600 V 84.800 C 113.400 84.700 113.300 84.800 113.400 84.800 H 116.300 C 116.355 84.800 116.400 84.755 116.400 84.700 V 78.700 C 116.400 78.645 116.355 78.600 116.300 78.600 H 113.400 C 113.300 78.600 113.400 78.700 113.400 78.600 V 72.800 C 113.400 72.700 113.300 72.800 113.400 72.800 H 116.300 C 116.355 72.800 116.400 72.755 116.400 72.700 V 64.700 C 116.400 64.645 116.355 64.600 116.300 64.600 H 113.300 H 13.400 H 10.400 C 10.345 64.600 10.300 64.645 10.300 64.700 V 72.700 C 10.300 72.755 10.345 72.800 10.400 72.800 H 13.300 C 13.400 72.800 13.300 72.700 13.300 72.800 V 78.600 C 13.300 78.700 13.400 78.600 13.300 78.600 H 10.400 C 10.345 78.600 10.300 78.645 10.300 78.700 V 84.700 C 10.300 84.755 10.345 84.800 10.400 84.800 H 13.300 C 13.400 84.800 13.300 84.700 13.300 84.800 V 90.600 C 13.300 90.700 13.400 90.600 13.300 90.600 H 10.400 C 10.345 90.600 10.300 90.645 10.300 90.700 V 96.700 C 10.300 96.755 10.345 96.800 10.400 96.800 H 13.300 C 13.400 96.800 13.300 96.700 13.300 96.800 V 102.600 C 13.300 102.700 13.400 102.600 13.300 102.600 H 10.400 C 10.345 102.600 10.300 102.645 10.300 102.700 V 108.700 C 10.300 108.755 10.345 108.800 10.400 108.800 H 13.300 C 13.400 108.800 13.300 108.700 13.300 108.800 V 114.600 C 13.300 114.700 13.400 114.600 13.300 114.600 H 10.400 C 10.345 114.600 10.300 114.645 10.300 114.700 V 120.700 C 10.300 120.755 10.345 120.800 10.400 120.800 H 13.300 C 13.400 120.800 13.300 120.700 13.300 120.800 V 126.600 C 13.300 126.700 13.400 126.600 13.300 126.600 H 10.400 C 10.345 126.600 10.300 126.645 10.300 126.700 V 132.700 C 10.300 132.755 10.345 132.800 10.400 132.800 H 13.300 C 13.400 132.800 13.300 132.700 13.300 132.800 V 138.600 C 13.300 138.700 13.400 138.600 13.300 138.600 H 10.400 C 10.345 138.600 10.300 138.645 10.300 138.700 V 146.700 C 10.300 146.755 10.345 146.800 10.400 146.800 H 13.400 Z" stroke="rgb(0,0,0)" stroke-width="0.20" />
</g>
<g id="p-6" style="fill:none;stroke-linecap:round;stroke-linejoin:round;">
  <path d="M 121.000 146.800 H 129.350 C 129.450 146.800 129.350 146.700 129.350 146.800 V 149.700 C 129.350 149.755 129.395 149.800 129.450 149.800 H 135.450 C 135.505 149.800 135.550 149.755 135.550 149.700 V 146.800 C 135.550 146.700 135.450 146.800 135.550 146.800 H 141.350 C 141.450 146.800 141.350 146.700 141.350 146.800 V 149.700 C 141.350 149.755 141.395 149.800 141.450 149.800 H 147.450 C 147.505 149.800 147.550 149.755 147.550 149.700 V 146.800 C 147.550 146.700 147.450 146.800 147.550 146.800 H 153.350 C 153.450 146.800 153.350 146.700 153.350 146.800 V 149.700 C 153.350 149.755 153.395 149.800 153.450 149.800 H 159.450 C 159.505 149.800 159.550 149.755 159.550 149.700 V 146.800 C 159.550 146.700 159.450 146.800 159.550 146.800 H 167.900 C 167.955 146.800 168.000 146.755 168.000 146.700 V 138.800 C 168.000 138.700 167.900 138.800 168.000 138.800 H 170.900 C 170.955 138.800 171.000 138.755 171.000 138.700 V 132.700 C 171.000 132.645 170.955 132.600 170.900 132.600 H 168.000 C 167.900 132.600 168.000 132.700 168.000 132.600 V 126.800 C 168.000 126.700 167.900 126.800 168.000 126.800 H 170.900 C 170.955 126.800 171.000 126.755 171.000 126.700 V 120.700 C 171.000 120.645 170.955 120.600 170.900 120.600 H 168.000 C 167.900 120.600 168.000 120.700 168.000 120.600 V 114.800 C 168.000 114.700 167.900 114.800 168.000 114.800 H 170.900 C 170.955 114.800 171.000 114.755 171.000 114.700 V 108.700 C 171.000 108.645 170.955 108.600 170.900 108.600 H 168.000 C 167.900 108.600 168.000 108.700 168.000 108.600 V 102.800 C 168.000 102.700 167.900 102.800 168.000 102.800 H 170.900 C 170.955 102.800 171.000 102.755 171.000 102.700 V 96.700 C 171.000 96.645 170.955 96.600 170.900 96.600 H 168.000 C 167.900 96.600 168.000 96.700 168.000 96.600 V 90.800 C 168.000 90.700 167.900 90.800 168.000 90.800 H 170.900 C 170.955 90.800 171.000 90.755 171.000 90.700 V 84.700 C 171.000 84.645 170.955 84.600 170.900 84.600 H 168.000 C 167.900 84.600 168.000 84.700 168.000 84.600 V 78.800 C 168.000 78.700 167.900 78.800 168.000 78.800 H 170.900 C 170.955 78.800 171.000 78.755 171.000 78.700 V 72.700 C 171.000 72.645 170.955 72.600 170.900 72.600 H 168.000 C 167.900 72.600 168.000 72.700 168.000 72.600 V 64.700 C 168.000 64.645 167.955 64.600 167.900 64.600 H 121.000 C 120.945 64.600 120.900 64.645 120.900 64.700 V 72.600 C 120.900 72.700 121.000 72.600 120.900 72.600 H 118.000 C 117.945 72.600 117.900 72.645 117.900 72.700 V 78.700 C 117.900 78.755 117.945 78.800 118.000 78.800 H 120.900 C 121.000 78.800 120.900 78.700 120.900 78.800 V 84.600 C 120.900 84.700 121.000 84.600 120.900 84.600 H 118.000 C 117.945 84.600 117.900 84.645 117.900 84.700 V 90.700 C 117.900 90.755 117.945 90.800 118.000 90.800 H 120.900 C 121.000 90.800 120.900 90.700 120.900 90.800 V 96.600 C 120.900 96.700 121.000 96.600 120.900 96.600 H 118.000 C 117.945 96.600 117.900 96.645 117.900 96.700 V 102.700 C 117.900 102.755 117.945 102.800 118.000 102.800 H 120.900 C 121.000 102.800 120.900 102.700 120.900 102.800 V 108.600 C 120.900 108.700 121.000 108.600 120.900 108.600 H 118.000 C 117.945 108.600 117.900 108.645 117.900 108.700 V 114.700 C 117.900 114.755 117.945 114.800 118.000 114.800 H 120.900 C 121.000 114.800 120.900 114.700 120.900 114.800 V 120.600 C 120.900 120.700 121.000 120.600 120.900 120.600 H 118.000 C 117.945 120.600 117.900 120.645 117.900 120.700 V 126.700 C 117.900 126.755 117.945 126.800 118.000 126.800 H 120.900 C 121.000 126.800 120.900 126.700 120.900 126.800 V 132.600 C 120.900 132.700 121.000 132.600 120.900 132.600 H 118.000 C 117.945 132.600 117.900 132.645 117.900 132.700 V 138.700 C 117.900 138.755 117.945 138.800 118.000 138.800 H 120.900 C 121.000 138.800 120.900 138.700 120.900 138.800 V 146.700 C 120.900 146.755 120.945 146.800 121.000 146.800 Z" stroke="rgb(0,0,0)" stroke-width="0.20" />
</g>
<g id="p-7" style="fill:none;stroke-linecap:round;stroke-linejoin:round;">
  <path d="M 175.600 146.800 H 186.450 C 186.550 146.800 186.450 146.700 186.450 146.800 V 149.700 C 186.450 149.755 186.495 149.800 186.550 149.800 H 192.550 C 192.605 149.800 192.650 149.755 192.650 149.700 V 146.800 C 192.650 146.700 192.550 146.800 192.650 146.800 H 198.450 C 198.550 146.800 198.450 146.700 198.450 146.800 V 149.700 C 198.450 149.755 198.495 149.800 198.550 149.800 H 204.550 C 204.605 149.800 204.650 149.755 204.650 149.700 V 146.800 C 204.650 146.700 204.550 146.800 204.650 146.800 H 210.450 C 210.550 146.800 210.450 146.700 210.450 146.800 V 149.700 C 210.450 149.755 210.495 149.800 210.550 149.800 H 216.550 C 216.605 149.800 216.650 149.755 216.650 149.700 V 146.800 C 216.650 146.700 216.550 146.800 216.650 146.800 H 222.450 C 222.550 146.800 222.450 146.700 222.450 146.800 V 149.700 C 222.450 149.755 222.495 149.800 222.550 149.800 H 228.550 C 228.605 149.800 228.650 149.755 228.650 149.700 V 146.800 C 228.650 146.700 228.550 146.800 228.650 146.800 H 234.450 C 234.550 146.800 234.450 146.700 234.450 146.800 V 149.700 C 234.450 149.755 234.495 149.800 234.550 149.800 H 240.550 C 240.605 149.800 240.650 149.755 240.650 149.700 V 146.800 C 240.650 146.700 240.550 146.800 240.650 146.800 H 246.450 C 246.550 146.800 246.450 146.700 246.450 146.800 V 149.700 C 246.450 149.755 246.495 149.800 246.550 149.800 H 252.550 C 252.605 149.800 252.650 149.755 252.650 149.700 V 146.800 C 252.650 146.700 252.550 146.800 252.650 146.800 H 258.450 C 258.550 146.800 258.450 146.700 258.450 146.800 V 149.700 C 258.450 149.755 258.495 149.800 258.550 149.800 H 264.550 C 264.605 149.800 264.650 149.755 264.650 149.700 V 146.800 C 264.650 146.700 264.550 146.800 264.650 146.800 H 275.500 H 278.500 C 278.555 146.800 278.600 146.755 278.600 146.700 V 138.700 C 278.600 138.645 278.555 138.600 278.500 138.600 H 275.600 C 275.500 138.600 275.600 138.700 275.600 138.600 V 132.800 C 275.600 132.700 275.500 132.800 275.600 132.800 H 278.500 C 278.555 132.800 278.600 132.755 278.600 132.700 V 126.700 C 278.600 126.645 278.555 126.600 278.500 126.600 H 275.600 C 275.500 126.600 275.600 126.700 275.600 126.600 V 120.800 C 275.600 120.700 275.500 120.800 275.600 120.800 H 278.500 C 278.555 120.800 278.600 120.755 278.600 120.700 V 114.700 C 278.600 114.645 278.555 114.600 278.500 114.600 H 275.600 C 275.500 114.600 275.600 114.700 275.600 114.600 V 108.800 C 275.600 108.700 275.500 108.800 275.600 108.800 H 278.500 C 278.555 108.800 278.600 108.755 278.600 108.700 V 102.700 C 278.600 102.645 278.555 102.600 278.500 102.600 H 275.600 C 275.500 102.600 275.600 102.700 275.600 102.600 V 96.800 C 275.600 96.700 275.500 96.800 275.600 96.800 H 278.500 C 278.555 96.800 278.600 96.755 278.600 96.700 V 90.700 C 278.600 90.645 278.555 90.600 278.500 90.600 H 275.600 C 275.500 90.600 275.600 90.700 275.600 90.600 V 84.800 C 275.600 84.700 275.500 84.800 275.600 84.800 H 278.500 C 278.555 84.800 278.600 84.755 278.600 84.700 V 78.700 C 278.600 78.645 278.555 78.600 278.500 78.600 H 275.600 C 275.500 78.600 275.600 78.700 275.600 78.600 V 72.800 C 275.600 72.700 275.500 72.800 275.600 72.800 H 278.500 C 278.555 72.800 278.600 72.755 278.600 72.700 V 64.700 C 278.600 64.645 278.555 64.600 278.500 64.600 H 275.500 H 175.600 H 172.600 C 172.545 64.600 172.500 64.645 172.500 64.700 V 72.700 C 172.500 72.755 172.545 72.800 172.600 72.800 H 175.500 C 175.600 72.800 175.500 72.700 175.500 72.800 V 78.600 C 175.500 78.700 175.600 78.600 175.500 78.600 H 172.600 C 172.545 78.600 172.500 78.645 172.500 78.700 V 84.700 C 172.500 84.755 172.545 84.800 172.600 84.800 H 175.500 C 175.600 84.800 175.500 84.700 175.500 84.800 V 90.600 C 175.500 90.700 175.600 90.600 175.500 90.600 H 172.600 C 172.545 90.600 172.500 90.645 172.500 90.700 V 96.700 C 172.500 96.755 172.545 96.800 172.600 96.800 H 175.500 C 175.600 96.800 175.500 96.700 175.500 96.800 V 102.600 C 175.500 102.700 175.600 102.600 175.500 102.600 H 172.600 C 172.545 102.600 172.500 102.645 172.500 102.700 V 108.700 C 172.500 108.755 172.545 108.800 172.600 108.800 H 175.500 C 175.600 108.800 175.500 108.700 175.500 108.800 V 114.600 C 175.500 114.700 175.600 114.600 175.500 114.600 H 172.600 C 172.545 114.600 172.500 114.645 172.500 114.700 V 120.700 C 172.500 120.755 172.545 120.800 172.600 120.800 H 175.500 C 175.600 120.800 175.500 120.700 175.500 120.800 V 126.600 C 175.500 126.700 175.600 126.600 175.500 126.600 H 172.600 C 172.545 126.600 172.500 126.645 172.500 126.700 V 132.700 C 172.500 132.755 172.545 132.800 172.600 132.800 H 175.500 C 175.600 132.800 175.500 132.700 175.500 132.800 V 138.600 C 175.500 138.700 175.600 138.600 175.500 138.600 H 172.600 C 172.545 138.600 172.500 138.645 172.500 138.700 V 146.700 C 172.500 146.755 172.545 146.800 172.600 146.800 H 175.600 Z" stroke="rgb(0,0,0)" stroke-width="0.20" />
</g>
<g id="p-8" style="fill:none;stroke-linecap:round;stroke-linejoin:round;">
  <path d="M 283.200 146.800 H 291.550 C 291.650 146.800 291.550 146.700 291.550 146.800 V 149.700 C 291.550 149.755 291.595 149.800 291.650 149.800 H 297.650 C 297.705 149.800 297.750 149.755 297.750 149.700 V 146.800 C 297.750 146.700 297.650 146.800 297.750 146.800 H 303.550 C 303.650 146.800 303.550 146.700 303.550 146.800 V 149.700 C 303.550 149.755 303.595 149.800 303.650 149.800 H 309.650 C 309.705 149.800 309.750 149.755 309.750 149.700 V 146.800 C 309.750 146.700 309.650 146.800 309.750 146.800 H 315.550 C 315.650 146.800 315.550 146.700 315.550 146.800 V 149.700 C 315.550 149.755 315.595 149.800 315.650 149.800 H 321.650 C 321.705 149.800 321.750 149.755 321.750 149.700 V 146.800 C 321.750 146.700 321.650 146.800 321.750 146.800 H 330.100 C 330.155 146.800 330.200 146.755 330.200 146.700 V 138.800 C 330.200 138.700 330.100 138.800 330.200 138.800 H 333.100 C 333.155 138.800 333.200 138.755 333.200 138.700 V 132.700 C 333.200 132.645 333.155 132.600 333.100 132.600 H 330.200 C 330.100 132.600 330.200 132.700 330.200 132.600 V 126.800 C 330.200 126.700 330.100 126.800 330.200 126.800 H 333.100 C 333.155 126.800 333.200 126.755 333.200 126.700 V 120.700 C 333.200 120.645 333.155 120.600 333.100 120.600 H 330.200 C 330.100 120.600 330.200 120.700 330.200 120.600 V 114.800 C 330.200 114.700 330.100 114.800 330.200 114.800 H 333.100 C 333.155 114.800 333.200 114.755 333.200 114.700 V 108.700 C 333.200 108.645 333.155 108.600 333.100 108.600 H 330.200 C 330.100 108.600 330.200 108.700 330.200 108.600 V 102.800 C 330.200 102.700 330.100 102.800 330.200 102.800 H 333.100 C 333.155 102.800 333.200 102.755 333.200 102.700 V 96.700 C 333.200 96.645 333.155 96.600 333.100 96.600 H 330.200 C 330.100 96.600 330.200 96.700 330.200 96.600 V 90.800 C 330.200 90.700 330.100 90.800 330.200 90.800 H 333.100 C 333.155 90.800 333.200 90.755 333.200 90.700 V 84.700 C 333.200 84.645 333.155 84.600 333.100 84.600 H 330.200 C 330.100 84.600 330.200 84.700 330.200 84.600 V 78.800 C 330.200 78.700 330.100 78.800 330.200 78.800 H 333.100 C 333.155 78.800 333.200 78.755 333.200 78.700 V 72.700 C 333.200 72.645 333.155 72.600 333.100 72.600 H 330.200 C 330.100 72.600 330.200 72.700 330.200 72.600 V 64.700 C 330.200 64.645 330.155 64.600 330.100 64.600 H 283.200 C 283.145 64.600 283.100 64.645 283.100 64.700 V 72.600 C 283.100 72.700 283.200 72.600 283.100 72.600 H 280.200 C 280.145 72.600 280.100 72.645 280.100 72.700 V 78.700 C 280.100 78.755 280.145 78.800 280.200 78.800 H 283.100 C 283.200 78.800 283.100 78.700 283.100 78.800 V 84.600 C 283.100 84.700 283.200 84.600 283.100 84.600 H 280.200 C 280.145 84.600 280.100 84.645 280.100 84.700 V 90.700 C 280.100 90.755 280.145 90.800 280.200 90.800 H 283.100 C 283.200 90.800 283.100 90.700 283.100 90.800 V 96.600 C 283.100 96.700 283.200 96.600 283.100 96.600 H 280.200 C 280.145 96.600 280.100 96.645 280.100 96.700 V 102.700 C 280.100 102.755 280.145 102.800 280.200 102.800 H 283.100 C 283.200 102.800 283.100 102.700 283.100 102.800 V 108.600 C 283.100 108.700 283.200 108.600 283.100 108.600 H 280.200 C 280.145 108.600 280.100 108.645 280.100 108.700 V 114.700 C 280.100 114.755 280.145 114.800 280.200 114.800 H 283.100 C 283.200 114.800 283.100 114.700 283.100 114.800 V 120.600 C 283.100 120.700 283.200 120.600 283.100 120.600 H 280.200 C 280.145 120.600 280.100 120.645 280.100 120.700 V 126.700 C 280.100 126.755 280.145 126.800 280.200 126.800 H 283.100 C 283.200 126.800 283.100 126.700 283.100 126.800 V 132.600 C 283.100 132.700 283.200 132.600 283.100 132.600 H 280.200 C 280.145 132.600 280.100 132.645 280.100 132.700 V 138.700 C 280.100 138.755 280.145 138.800 280.200 138.800 H 283.100 C 283.200 138.800 283.100 138.700 283.100 138.800 V 146.700 C 283.100 146.755 283.145 146.800 283.200 146.800 Z" stroke="rgb(0,0,0)" stroke-width="0.20" />
</g>
<g id="p-9" style="fill:none;stroke-linecap:round;stroke-linejoin:round;">
  <path d="M 27.350 59.450 H 24.450 C 24.350 59.450 24.450 59.550 24.450 59.450 V 56.650 C 24.450 56.550 24.350 56.650 24.450 56.650 H 30.250 C 30.350 56.650 30.250 56.550 30.250 56.650 V 59.450 C 30.250 59.550 30.350 59.450 30.250 59.450 H 27.350 Z" stroke="rgb(0,0,255)" stroke-width="0.20" />
  <path d="M 39.350 59.450 H 36.450 C 36.350 59.450 36.450 59.550 36.450 59.450 V 56.650 C 36.450 56.550 36.350 56.650 36.450 56.650 H 42.250 C 42.350 56.650 42.250 56.550 42.250 56.650 V 59.450 C 42.250 59.550 42.350 59.450 42.250 59.450 H 39.350 Z" stroke="rgb(0,0,255)" stroke-width="0.20" />
  <path d="M 51.350 59.450 H 48.450 C 48.350 59.450 48.450 59.550 48.450 59.450 V 56.650 C 48.450 56.550 48.350 56.650 48.450 56.650 H 54.250 C 54.350 56.650 54.250 56.550 54.250 56.650 V 59.450 C 54.250 59.550 54.350 59.450 54.250 59.450 H 51.350 Z" stroke="rgb(0,0,255)" stroke-width="0.20" />
  <path d="M 63.350 59.450 H 60.450 C 60.350 59.450 60.450 59.550 60.450 59.450 V 56.650 C 60.450 56.550 60.350 56.650 60.450 56.650 H 66.250 C 66.350 56.650 66.250 56.550 66.250 56.650 V 59.450 C 66.250 59.550 66.350 59.450 66.250 59.450 H 63.350 Z" stroke="rgb(0,0,255)" stroke-width="0.20" />
  <path d="M 75.350 59.450 H 72.450 C 72.350 59.450 72.450 59.550 72.450 59.450 V 56.650 C 72.450 56.550 72.350 56.650 72.450 56.650 H 78.250 C 78.350 56.650 78.250 56.550 78.250 56.650 V 59.450 C 78.250 59.550 78.350 59.450 78.250 59.450 H 75.350 Z" stroke="rgb(0,0,255)" stroke-width="0.20" />
  <path d="M 87.350 59.450 H 84.450 C 84.350 59.450 84.450 59.550 84.450 59.450 V 56.650 C 84.450 56.550 84.350 56.650 84.450 56.650 H 90.250 C 90.350 56.650 90.250 56.550 90.250 56.650 V 59.450 C 90.250 59.550 90.350 59.450 90.250 59.450 H 87.350 Z" stroke="rgb(0,0,255)" stroke-width="0.20" />
  <path d="M 99.350 59.450 H 96.450 C 96.350 59.450 96.450 59.550 96.450 59.450 V 56.650 C 96.450 56.550 96.350 56.650 96.450 56.650 H 102.250 C 102.350 56.650 102.250 56.550 102.250 56.650 V 59.450 C 102.250 59.550 102.350 59.450 102.250 59.450 H 99.350 Z" stroke="rgb(0,0,255)" stroke-width="0.20" />
  <path d="M 16.850 63.100 H 109.850 H 116.300 C 116.355 63.100 116.400 63.055 116.400 63.000 V 56.550 V 16.550 V 10.100 C 116.400 10.045 116.355 10.000 116.300 10.000 H 109.850 H 16.850 H 10.400 C 10.345 10.000 10.300 10.045 10.300 10.100 V 16.550 V 56.550 V 63.000 C 10.300 63.055 10.345 63.100 10.400 63.100 H 16.850 Z" stroke="rgb(0,0,0)" stroke-width="0.20" />
  <path d="M 112.750 42.550 V 45.450 C 112.750 45.550 112.850 45.450 112.750 45.450 H 109.950 C 109.850 45.450 109.950 45.550 109.950 45.450 V 39.650 C 109.950 39.550 109.850 39.650 109.950 39.650 H 112.750 C 112.850 39.650 112.750 39.550 112.750 39.650 V 42.550 Z" stroke="rgb(0,0,255)" stroke-width="0.20" />
  <path d="M 112.750 30.550 V 33.450 C 112.750 33.550 112.850 33.450 112.750 33.450 H 109.950 C 109.850 33.450 109.950 33.550 109.950 33.450 V 27.650 C 109.950 27.550 109.850 27.650 109.950 27.650 H 112.750 C 112.850 27.650 112.750 27.550 112.750 27.650 V 30.550 Z" stroke="rgb(0,0,255)" stroke-width="0.20" />
  <path d="M 99.350 13.650 H 102.250 C 102.350 13.650 102.250 13.550 102.250 13.650 V 16.450 C 102.250 16.550 102.350 16.450 102.250 16.450 H 96.450 C 96.350 16.450 96.450 16.550 96.450 16.450 V 13.650 C 96.450 13.550 96.350 13.650 96.450 13.650 H 99.350 Z" stroke="rgb(0,0,255)" stroke-width="0.20" />
  <path d="M 87.350 13.650 H 90.250 C 90.350 13.650 90.250 13.550 90.250 13.650 V 16.450 C 90.250 16.550 90.350 16.450 90.250 16.450 H 84.450 C 84.350 16.450 84.450 16.550 84.450 16.450 V 13.650 C 84.450 13.550 84.350 13.650 84.450 13.650 H 87.350 Z" stroke="rgb(0,0,255)" stroke-width="0.20" />
  <path d="M 75.350 13.650 H 78.250 C 78.350 13.650 78.250 13.550 78.250 13.650 V 16.450 C 78.250 16.550 78.350 16.450 78.250 16.450 H 72.450 C 72.350 16.450 72.450 16.550 72.450 16.450 V 13.650 C 72.450 13.550 72.350 13.650 72.450 13.650 H 75.350 Z" stroke="rgb(0,0,255)" stroke-width="0.20" />
  <path d="M 63.350 13.650 H 66.250 C 66.350 13.650 66.250 13.550 66.250 13.650 V 16.450 C 66.250 16.550 66.350 16.450 66.250 16.450 H 60.450 C 60.350 16.450 60.450 16.550 60.450 16.450 V 13.650 C 60.450 13.550 60.350 13.650 60.450 13.650 H 63.350 Z" stroke="rgb(0,0,255)" stroke-width="0.20" />
  <path d="M 51.350 13.650 H 54.250 C 54.350 13.650 54.250 13.550 54.250 13.650 V 16.450 C 54.250 16.550 54.350 16.450 54.250 16.450 H 48.450 C 48.350 16.450 48.450 16.550 48.450 16.450 V 13.650 C 48.450 13.550 48.350 13.650 48.450 13.650 H 51.350 Z" stroke="rgb(0,0,255)" stroke-width="0.20" />
  <path d="M 39.350 13.650 H 42.250 C 42.350 13.650 42.250 13.550 42.250 13.650 V 16.450 C 42.250 16.550 42.350 16.450 42.250 16.450 H 36.450 C 36.350 16.450 36.450 16.550 36.450 16.450 V 13.650 C 36.450 13.550 36.350 13.650 36.450 13.650 H 39.350 Z" stroke="rgb(0,0,255)" stroke-width="0.20" />
  <path d="M 27.350 13.650 H 30.250 C 30.350 13.650 30.250 13.550 30.250 13.650 V 16.450 C 30.250 16.550 30.350 16.450 30.250 16.450 H 24.450 C 24.350 16.450 24.450 16.550 24.450 16.450 V 13.650 C 24.450 13.550 24.350 13.650 24.450 13.650 H 27.350 Z" stroke="rgb(0,0,255)" stroke-width="0.20" />
  <path d="M 13.950 30.550 V 27.650 C 13.950 27.550 13.850 27.650 13.950 27.650 H 16.750 C 16.850 27.650 16.750 27.550 16.750 27.650 V 33.450 C 16.750 33.550 16.850 33.450 16.750 33.450 H 13.950 C 13.850 33.450 13.950 33.550 13.950 33.450 V 30.550 Z" stroke="rgb(0,0,255)" stroke-width="0.20" />
  <path d="M 13.950 42.550 V 39.650 C 13.950 39.550 13.850 39.650 13.950 39.650 H 16.750 C 16.850 39.650 16.750 39.550 16.750 39.650 V 45.450 C 16.750 45.550 16.850 45.450 16.750 45.450 H 13.950 C 13.850 45.450 13.950 45.550 13.950 45.450 V 42.550 Z" stroke="rgb(0,0,255)" stroke-width="0.20" />
</g>
<g id="p-10" style="fill:none;stroke-linecap:round;stroke-linejoin:round;">
  <path d="M 121.000 63.100 H 131.950 C 132.005 63.100 132.050 63.055 132.050 63.000 V 60.100 C 132.050 60.000 131.950 60.100 132.050 60.100 H 137.850 C 137.950 60.100 137.850 60.000 137.850 60.100 V 63.000 C 137.850 63.055 137.895 63.100 137.950 63.100 H 143.950 C 144.005 63.100 144.050 63.055 144.050 63.000 V 60.100 C 144.050 60.000 143.950 60.100 144.050 60.100 H 149.850 C 149.950 60.100 149.850 60.000 149.850 60.100 V 63.000 C 149.850 63.055 149.895 63.100 149.950 63.100 H 155.950 C 156.005 63.100 156.050 63.055 156.050 63.000 V 60.100 C 156.050 60.000 155.950 60.100 156.050 60.100 H 161.850 C 161.950 60.100 161.850 60.000 161.850 60.100 V 63.000 C 161.850 63.055 161.895 63.100 161.950 63.100 H 167.950 C 168.005 63.100 168.050 63.055 168.050 63.000 V 60.100 C 168.050 60.000 167.950 60.100 168.050 60.100 H 173.850 C 173.950 60.100 173.850 60.000 173.850 60.100 V 63.000 C 173.850 63.055 173.895 63.100 173.950 63.100 H 179.950 C 180.005 63.100 180.050 63.055 180.050 63.000 V 60.100 C 180.050 60.000 179.950 60.100 180.050 60.100 H 185.850 C 185.950 60.100 185.850 60.000 185.850 60.100 V 63.000 C 185.850 63.055 185.895 63.100 185.950 63.100 H 191.950 C 192.005 63.100 192.050 63.055 192.050 63.000 V 60.100 C 192.050 60.000 191.950 60.100 192.050 60.100 H 197.850 C 197.950 60.100 197.850 60.000 197.850 60.100 V 63.000 C 197.850 63.055 197.895 63.100 197.950 63.100 H 203.950 C 204.005 63.100 204.050 63.055 204.050 63.000 V 60.100 C 204.050 60.000 203.950 60.100 204.050 60.100 H 209.850 C 209.950 60.100 209.850 60.000 209.850 60.100 V 63.000 C 209.850 63.055 209.895 63.100 209.950 63.100 H 220.900 H 223.900 C 223.955 63.100 224.000 63.055 224.000 63.000 V 60.000 V 51.550 C 224.000 51.495 223.955 51.450 223.900 51.450 H 221.000 C 220.900 51.450 221.000 51.550 221.000 51.450 V 45.650 C 221.000 45.550 220.900 45.650 221.000 45.650 H 223.900 C 223.955 45.650 224.000 45.605 224.000 45.550 V 39.550 C 224.000 39.495 223.955 39.450 223.900 39.450 H 221.000 C 220.900 39.450 221.000 39.550 221.000 39.450 V 33.650 C 221.000 33.550 220.900 33.650 221.000 33.650 H 223.900 C 223.955 33.650 224.000 33.605 224.000 33.550 V 27.550 C 224.000 27.495 223.955 27.450 223.900 27.450 H 221.000 C 220.900 27.450 221.000 27.550 221.000 27.450 V 21.650 C 221.000 21.550 220.900 21.650 221.000 21.650 H 223.900 C 223.955 21.650 224.000 21.605 224.000 21.550 V 13.100 V 10.100 C 224.000 10.045 223.955 10.000 223.900 10.000 H 220.900 H 209.950 C 209.895 10.000 209.850 10.045 209.850 10.100 V 13.000 C 209.850 13.100 209.950 13.000 209.850 13.000 H 204.050 C 203.950 13.000 204.050 13.100 204.050 13.000 V 10.100 C 204.050 10.045 204.005 10.000 203.950 10.000 H 197.950 C 197.895 10.000 197.850 10.045 197.850 10.100 V 13.000 C 197.850 13.100 197.950 13.000 197.850 13.000 H 192.050 C 191.950 13.000 192.050 13.100 192.050 13.000 V 10.100 C 192.050 10.045 192.005 10.000 191.950 10.000 H 185.950 C 185.895 10.000 185.850 10.045 185.850 10.100 V 13.000 C 185.850 13.100 185.950 13.000 185.850 13.000 H 180.050 C 179.950 13.000 180.050 13.100 180.050 13.000 V 10.100 C 180.050 10.045 180.005 10.000 179.950 10.000 H 173.950 C 173.895 10.000 173.850 10.045 173.850 10.100 V 13.000 C 173.850 13.100 173.950 13.000 173.850 13.000 H 168.050 C 167.950 13.000 168.050 13.100 168.050 13.000 V 10.100 C 168.050 10.045 168.005 10.000 167.950 10.000 H 161.950 C 161.895 10.000 161.850 10.045 161.850 10.100 V 13.000 C 161.850 13.100 161.950 13.000 161.850 13.000 H 156.050 C 155.950 13.000 156.050 13.100 156.050 13.000 V 10.100 C 156.050 10.045 156.005 10.000 155.950 10.000 H 149.950 C 149.895 10.000 149.850 10.045 149.850 10.100 V 13.000 C 149.850 13.100 149.950 13.000 149.850 13.000 H 144.050 C 143.950 13.000 144.050 13.100 144.050 13.000 V 10.100 C 144.050 10.045 144.005 10.000 143.950 10.000 H 137.950 C 137.895 10.000 137.850 10.045 137.850 10.100 V 13.000 C 137.850 13.100 137.950 13.000 137.850 13.000 H 132.050 C 131.950 13.000 132.050 13.100 132.050 13.000 V 10.100 C 132.050 10.045 132.005 10.000 131.950 10.000 H 121.000 H 118.000 C 117.945 10.000 117.900 10.045 117.900 10.100 V 13.100 V 21.550 C 117.900 21.605 117.945 21.650 118.000 21.650 H 120.900 C 121.000 21.650 120.900 21.550 120.900 21.650 V 27.450 C 120.900 27.550 121.000 27.450 120.900 27.450 H 118.000 C 117.945 27.450 117.900 27.495 117.900 27.550 V 33.550 C 117.900 33.605 117.945 33.650 118.000 33.650 H 120.900 C 121.000 33.650 120.900 33.550 120.900 33.650 V 39.450 C 120.900 39.550 121.000 39.450 120.900 39.450 H 118.000 C 117.945 39.450 117.900 39.495 117.900 39.550 V 45.550 C 117.900 45.605 117.945 45.650 118.000 45.650 H 120.900 C 121.000 45.650 120.900 45.550 120.900 45.650 V 51.450 C 120.900 51.550 121.000 51.450 120.900 51.450 H 118.000 C 117.945 51.450 117.900 51.495 117.900 51.550 V 60.000 V 63.000 C 117.900 63.055 117.945 63.100 118.000 63.100 H 121.000 Z" stroke="rgb(0,0,0)" stroke-width="0.20" />
</g>
</svg>