<?xml version='1.0' encoding='utf-8'?>
<svg width="917.20mm" height="326.20mm" viewBox="0.0 0.0 917.20 326.20" xmlns="http://www.w3.org/2000/svg" xmlns:dc="http://purl.org/dc/elements/1.1/" xmlns:cc="http://creativecommons.org/ns#" xmlns:rdf="http://www.w3.org/1999/02/22-rdf-syntax-ns#" xmlns:svg="http://www.w3.org/2000/svg" xmlns:xlink="http://www.w3.org/1999/xlink" xmlns:inkscape="http://www.inkscape.org/namespaces/inkscape">
<!--
TwoPiece - A two piece box where top slips over the bottom half to form 
       the enclosure.
    



Set *hi* larger than *h* to leave gap between the inner and outer shell. This can be used to make opening the box easier. Set *hi* smaller to only have a small inner ridge that will allow the content to be more visible after opening.

![Bottom view](static/samples/TwoPiece2.jpg)



Created with Boxes.py (https://festi.info/boxes.py)
Creation date: 2023-02-01 21:08:22
Command line (remove spaces between dashes): boxes TwoPiece - -FingerJoint_angle=90.0 - -FingerJoint_style=rectangular - -FingerJoint_surroundingspaces=2.0 - -FingerJoint_bottom_lip=0.0 - -FingerJoint_edge_width=1.0 - -FingerJoint_extra_length=0.0 - -FingerJoint_finger=2.0 - -FingerJoint_play=0.0 - -FingerJoint_space=2.0 - -FingerJoint_width=1.0 - -x=210.0 - -y=210.0 - -h=31.0 - -hi=0.0 - -outside=0 - -play=0.15 - -thickness=3.0 - -format=svg - -tabs=0.0 - -debug=0 - -labels=0 - -labels=1 - -reference=100 - -inner_corners=loop - -burn=0.1
Url: http://localhost:8000/TwoPiece?FingerJoint_angle=90.0&FingerJoint_style=rectangular&FingerJoint_surroundingspaces=2.0&FingerJoint_bottom_lip=0.0&FingerJoint_edge_width=1.0&FingerJoint_extra_length=0.0&FingerJoint_finger=2.0&FingerJoint_play=0.0&FingerJoint_space=2.0&FingerJoint_width=1.0&x=210.0&y=210.0&h=31.0&hi=0.0&outside=0&play=0.15&thickness=3.0&format=svg&tabs=0.0&debug=0&labels=0&labels=1&reference=100&inner_corners=loop&burn=0.1&render=2
SettingsUrl: http://localhost:8000/TwoPiece?FingerJoint_angle=90.0&FingerJoint_style=rectangular&FingerJoint_surroundingspaces=2.0&FingerJoint_bottom_lip=0.0&FingerJoint_edge_width=1.0&FingerJoint_extra_length=0.0&FingerJoint_finger=2.0&FingerJoint_play=0.0&FingerJoint_space=2.0&FingerJoint_width=1.0&x=210.0&y=210.0&h=31.0&hi=0.0&outside=0&play=0.15&thickness=3.0&format=svg&tabs=0.0&debug=0&labels=0&labels=1&reference=100&inner_corners=loop&burn=0.1&render=2
-->
<title>TwoPiece</title>
<metadata>
<rdf:RDF><cc:Work>
<dc:title>Box - TwoPiece</dc:title>
<dc:date>2023-02-01 21:08:22</dc:date>
<dc:source>http://localhost:8000/TwoPiece?FingerJoint_angle=90.0&amp;FingerJoint_style=rectangular&amp;FingerJoint_surroundingspaces=2.0&amp;FingerJoint_bottom_lip=0.0&amp;FingerJoint_edge_width=1.0&amp;FingerJoint_extra_length=0.0&amp;FingerJoint_finger=2.0&amp;FingerJoint_play=0.0&amp;FingerJoint_space=2.0&amp;FingerJoint_width=1.0&amp;x=210.0&amp;y=210.0&amp;h=31.0&amp;hi=0.0&amp;outside=0&amp;play=0.15&amp;thickness=3.0&amp;format=svg&amp;tabs=0.0&amp;debug=0&amp;labels=0&amp;labels=1&amp;reference=100&amp;inner_corners=loop&amp;burn=0.1&amp;render=2</dc:source>
<dc:description>A two piece box where top slips over the bottom half to form 
       the enclosure.
    


Set *hi* larger than *h* to leave gap between the inner and outer shell. This can be used to make opening the box easier. Set *hi* smaller to only have a small inner ridge that will allow the content to be more visible after opening.

![Bottom view](static/samples/TwoPiece2.jpg)


Created with Boxes.py (https://festi.info/boxes.py)
Command line: boxes TwoPiece --FingerJoint_angle=90.0 --FingerJoint_style=rectangular --FingerJoint_surroundingspaces=2.0 --FingerJoint_bottom_lip=0.0 --FingerJoint_edge_width=1.0 --FingerJoint_extra_length=0.0 --FingerJoint_finger=2.0 --FingerJoint_play=0.0 --FingerJoint_space=2.0 --FingerJoint_width=1.0 --x=210.0 --y=210.0 --h=31.0 --hi=0.0 --outside=0 --play=0.15 --thickness=3.0 --format=svg --tabs=0.0 --debug=0 --labels=0 --labels=1 --reference=100 --inner_corners=loop --burn=0.1
Url: http://localhost:8000/TwoPiece?FingerJoint_angle=90.0&amp;FingerJoint_style=rectangular&amp;FingerJoint_surroundingspaces=2.0&amp;FingerJoint_bottom_lip=0.0&amp;FingerJoint_edge_width=1.0&amp;FingerJoint_extra_length=0.0&amp;FingerJoint_finger=2.0&amp;FingerJoint_play=0.0&amp;FingerJoint_space=2.0&amp;FingerJoint_width=1.0&amp;x=210.0&amp;y=210.0&amp;h=31.0&amp;hi=0.0&amp;outside=0&amp;play=0.15&amp;thickness=3.0&amp;format=svg&amp;tabs=0.0&amp;debug=0&amp;labels=0&amp;labels=1&amp;reference=100&amp;inner_corners=loop&amp;burn=0.1&amp;render=2
SettingsUrl: http://localhost:8000/TwoPiece?FingerJoint_angle=90.0&amp;FingerJoint_style=rectangular&amp;FingerJoint_surroundingspaces=2.0&amp;FingerJoint_bottom_lip=0.0&amp;FingerJoint_edge_width=1.0&amp;FingerJoint_extra_length=0.0&amp;FingerJoint_finger=2.0&amp;FingerJoint_play=0.0&amp;FingerJoint_space=2.0&amp;FingerJoint_width=1.0&amp;x=210.0&amp;y=210.0&amp;h=31.0&amp;hi=0.0&amp;outside=0&amp;play=0.15&amp;thickness=3.0&amp;format=svg&amp;tabs=0.0&amp;debug=0&amp;labels=0&amp;labels=1&amp;reference=100&amp;inner_corners=loop&amp;burn=0.1&amp;render=2
</dc:description>
</cc:Work></rdf:RDF></metadata>
<g id="p-0" style="fill:none;stroke-linecap:round;stroke-linejoin:round;">
  <path d="M 10.400 316.200 H 110.400 V 306.200 H 10.400 V 316.200 Z" stroke="rgb(0,0,0)" stroke-width="0.20" />
  <text transform="matrix( 1.000 0.000 0.000 1.000 60.400 307.200 )" style="font-family: sans-serif ; font-weight: normal; font-style: normal; fill: rgb(255,0,0)" font-size="8px" text-anchor="middle" dominant-baseline="hanging">100mm, burn:0.10mm</text>
</g>
<g id="p-1" style="fill:none;stroke-linecap:round;stroke-linejoin:round;">
  <path d="M 13.400 301.500 H 19.300 C 19.400 301.500 19.300 301.400 19.300 301.500 V 304.400 C 19.300 304.455 19.345 304.500 19.400 304.500 H 25.400 C 25.455 304.500 25.500 304.455 25.500 304.400 V 301.500 C 25.500 301.400 25.400 301.500 25.500 301.500 H 31.300 C 31.400 301.500 31.300 301.400 31.300 301.500 V 304.400 C 31.300 304.455 31.345 304.500 31.400 304.500 H 37.400 C 37.455 304.500 37.500 304.455 37.500 304.400 V 301.500 C 37.500 301.400 37.400 301.500 37.500 301.500 H 43.300 C 43.400 301.500 43.300 301.400 43.300 301.500 V 304.400 C 43.300 304.455 43.345 304.500 43.400 304.500 H 49.400 C 49.455 304.500 49.500 304.455 49.500 304.400 V 301.500 C 49.500 301.400 49.400 301.500 49.500 301.500 H 55.300 C 55.400 301.500 55.300 301.400 55.300 301.500 V 304.400 C 55.300 304.455 55.345 304.500 55.400 304.500 H 61.400 C 61.455 304.500 61.500 304.455 61.500 304.400 V 301.500 C 61.500 301.400 61.400 301.500 61.500 301.500 H 67.300 C 67.400 301.500 67.300 301.400 67.300 301.500 V 304.400 C 67.300 304.455 67.345 304.500 67.400 304.500 H 73.400 C 73.455 304.500 73.500 304.455 73.500 304.400 V 301.500 C 73.500 301.400 73.400 301.500 73.500 301.500 H 79.300 C 79.400 301.500 79.300 301.400 79.300 301.500 V 304.400 C 79.300 304.455 79.345 304.500 79.400 304.500 H 85.400 C 85.455 304.500 85.500 304.455 85.500 304.400 V 301.500 C 85.500 301.400 85.400 301.500 85.500 301.500 H 91.300 C 91.400 301.500 91.300 301.400 91.300 301.500 V 304.400 C 91.300 304.455 91.345 304.500 91.400 304.500 H 97.400 C 97.455 304.500 97.500 304.455 97.500 304.400 V 301.500 C 97.500 301.400 97.400 301.500 97.500 301.500 H 103.300 C 103.400 301.500 103.300 301.400 103.300 301.500 V 304.400 C 103.300 304.455 103.345 304.500 103.400 304.500 H 109.400 C 109.455 304.500 109.500 304.455 109.500 304.400 V 301.500 C 109.500 301.400 109.400 301.500 109.500 301.500 H 115.300 C 115.400 301.500 115.300 301.400 115.300 301.500 V 304.400 C 115.300 304.455 115.345 304.500 115.400 304.500 H 121.400 C 121.455 304.500 121.500 304.455 121.500 304.400 V 301.500 C 121.500 301.400 121.400 301.500 121.500 301.500 H 127.300 C 127.400 301.500 127.300 301.400 127.300 301.500 V 304.400 C 127.300 304.455 127.345 304.500 127.400 304.500 H 133.400 C 133.455 304.500 133.500 304.455 133.500 304.400 V 301.500 C 133.500 301.400 133.400 301.500 133.500 301.500 H 139.300 C 139.400 301.500 139.300 301.400 139.300 301.500 V 304.400 C 139.300 304.455 139.345 304.500 139.400 304.500 H 145.400 C 145.455 304.500 145.500 304.455 145.500 304.400 V 301.500 C 145.500 301.400 145.400 301.500 145.500 301.500 H 151.300 C 151.400 301.500 151.300 301.400 151.300 301.500 V 304.400 C 151.300 304.455 151.345 304.500 151.400 304.500 H 157.400 C 157.455 304.500 157.500 304.455 157.500 304.400 V 301.500 C 157.500 301.400 157.400 301.500 157.500 301.500 H 163.300 C 163.400 301.500 163.300 301.400 163.300 301.500 V 304.400 C 163.300 304.455 163.345 304.500 163.400 304.500 H 169.400 C 169.455 304.500 169.500 304.455 169.500 304.400 V 301.500 C 169.500 301.400 169.400 301.500 169.500 301.500 H 175.300 C 175.400 301.500 175.300 301.400 175.300 301.500 V 304.400 C 175.300 304.455 175.345 304.500 175.400 304.500 H 181.400 C 181.455 304.500 181.500 304.455 181.500 304.400 V 301.500 C 181.500 301.400 181.400 301.500 181.500 301.500 H 187.300 C 187.400 301.500 187.300 301.400 187.300 301.500 V 304.400 C 187.300 304.455 187.345 304.500 187.400 304.500 H 193.400 C 193.455 304.500 193.500 304.455 193.500 304.400 V 301.500 C 193.500 301.400 193.400 301.500 193.500 301.500 H 199.300 C 199.400 301.500 199.300 301.400 199.300 301.500 V 304.400 C 199.300 304.455 199.345 304.500 199.400 304.500 H 205.400 C 205.455 304.500 205.500 304.455 205.500 304.400 V 301.500 C 205.500 301.400 205.400 301.500 205.500 301.500 H 211.300 C 211.400 301.500 211.300 301.400 211.300 301.500 V 304.400 C 211.300 304.455 211.345 304.500 211.400 304.500 H 217.400 C 217.455 304.500 217.500 304.455 217.500 304.400 V 301.500 C 217.500 301.400 217.400 301.500 217.500 301.500 H 223.400 H 226.400 C 226.455 301.500 226.500 301.455 226.500 301.400 V 294.900 C 226.500 294.845 226.455 294.800 226.400 294.800 H 223.500 C 223.400 294.800 223.500 294.900 223.500 294.800 V 289.000 C 223.500 288.900 223.400 289.000 223.500 289.000 H 226.400 C 226.455 289.000 226.500 288.955 226.500 288.900 V 282.900 C 226.500 282.845 226.455 282.800 226.400 282.800 H 223.500 C 223.400 282.800 223.500 282.900 223.500 282.800 V 277.000 C 223.500 276.900 223.400 277.000 223.500 277.000 H 226.400 C 226.455 277.000 226.500 276.955 226.500 276.900 V 270.400 C 226.500 270.345 226.455 270.300 226.400 270.300 H 223.400 H 13.400 H 10.400 C 10.345 270.300 10.300 270.345 10.300 270.400 V 276.900 C 10.300 276.955 10.345 277.000 10.400 277.000 H 13.300 C 13.400 277.000 13.300 276.900 13.300 277.000 V 282.800 C 13.300 282.900 13.400 282.800 13.300 282.800 H 10.400 C 10.345 282.800 10.300 282.845 10.300 282.900 V 288.900 C 10.300 288.955 10.345 289.000 10.400 289.000 H 13.300 C 13.400 289.000 13.300 288.900 13.300 289.000 V 294.800 C 13.300 294.900 13.400 294.800 13.300 294.800 H 10.400 C 10.345 294.800 10.300 294.845 10.300 294.900 V 301.400 C 10.300 301.455 10.345 301.500 10.400 301.500 H 13.400 Z" stroke="rgb(0,0,0)" stroke-width="0.20" />
</g>
<g id="p-2" style="fill:none;stroke-linecap:round;stroke-linejoin:round;">
  <path d="M 231.100 301.500 H 237.000 C 237.100 301.500 237.000 301.400 237.000 301.500 V 304.400 C 237.000 304.455 237.045 304.500 237.100 304.500 H 243.100 C 243.155 304.500 243.200 304.455 243.200 304.400 V 301.500 C 243.200 301.400 243.100 301.500 243.200 301.500 H 249.000 C 249.100 301.500 249.000 301.400 249.000 301.500 V 304.400 C 249.000 304.455 249.045 304.500 249.100 304.500 H 255.100 C 255.155 304.500 255.200 304.455 255.200 304.400 V 301.500 C 255.200 301.400 255.100 301.500 255.200 301.500 H 261.000 C 261.100 301.500 261.000 301.400 261.000 301.500 V 304.400 C 261.000 304.455 261.045 304.500 261.100 304.500 H 267.100 C 267.155 304.500 267.200 304.455 267.200 304.400 V 301.500 C 267.200 301.400 267.100 301.500 267.200 301.500 H 273.000 C 273.100 301.500 273.000 301.400 273.000 301.500 V 304.400 C 273.000 304.455 273.045 304.500 273.100 304.500 H 279.100 C 279.155 304.500 279.200 304.455 279.200 304.400 V 301.500 C 279.200 301.400 279.100 301.500 279.200 301.500 H 285.000 C 285.100 301.500 285.000 301.400 285.000 301.500 V 304.400 C 285.000 304.455 285.045 304.500 285.100 304.500 H 291.100 C 291.155 304.500 291.200 304.455 291.200 304.400 V 301.500 C 291.200 301.400 291.100 301.500 291.200 301.500 H 297.000 C 297.100 301.500 297.000 301.400 297.000 301.500 V 304.400 C 297.000 304.455 297.045 304.500 297.100 304.500 H 303.100 C 303.155 304.500 303.200 304.455 303.200 304.400 V 301.500 C 303.200 301.400 303.100 301.500 303.200 301.500 H 309.000 C 309.100 301.500 309.000 301.400 309.000 301.500 V 304.400 C 309.000 304.455 309.045 304.500 309.100 304.500 H 315.100 C 315.155 304.500 315.200 304.455 315.200 304.400 V 301.500 C 315.200 301.400 315.100 301.500 315.200 301.500 H 321.000 C 321.100 301.500 321.000 301.400 321.000 301.500 V 304.400 C 321.000 304.455 321.045 304.500 321.100 304.500 H 327.100 C 327.155 304.500 327.200 304.455 327.200 304.400 V 301.500 C 327.200 301.400 327.100 301.500 327.200 301.500 H 333.000 C 333.100 301.500 333.000 301.400 333.000 301.500 V 304.400 C 333.000 304.455 333.045 304.500 333.100 304.500 H 339.100 C 339.155 304.500 339.200 304.455 339.200 304.400 V 301.500 C 339.200 301.400 339.100 301.500 339.200 301.500 H 345.000 C 345.100 301.500 345.000 301.400 345.000 301.500 V 304.400 C 345.000 304.455 345.045 304.500 345.100 304.500 H 351.100 C 351.155 304.500 351.200 304.455 351.200 304.400 V 301.500 C 351.200 301.400 351.100 301.500 351.200 301.500 H 357.000 C 357.100 301.500 357.000 301.400 357.000 301.500 V 304.400 C 357.000 304.455 357.045 304.500 357.100 304.500 H 363.100 C 363.155 304.500 363.200 304.455 363.200 304.400 V 301.500 C 363.200 301.400 363.100 301.500 363.200 301.500 H 369.000 C 369.100 301.500 369.000 301.400 369.000 301.500 V 304.400 C 369.000 304.455 369.045 304.500 369.100 304.500 H 375.100 C 375.155 304.500 375.200 304.455 375.200 304.400 V 301.500 C 375.200 301.400 375.100 301.500 375.200 301.500 H 381.000 C 381.100 301.500 381.000 301.400 381.000 301.500 V 304.400 C 381.000 304.455 381.045 304.500 381.100 304.500 H 387.100 C 387.155 304.500 387.200 304.455 387.200 304.400 V 301.500 C 387.200 301.400 387.100 301.500 387.200 301.500 H 393.000 C 393.100 301.500 393.000 301.400 393.000 301.500 V 304.400 C 393.000 304.455 393.045 304.500 393.100 304.500 H 399.100 C 399.155 304.500 399.200 304.455 399.200 304.400 V 301.500 C 399.200 301.400 399.100 301.500 399.200 301.500 H 405.000 C 405.100 301.500 405.000 301.400 405.000 301.500 V 304.400 C 405.000 304.455 405.045 304.500 405.100 304.500 H 411.100 C 411.155 304.500 411.200 304.455 411.200 304.400 V 301.500 C 411.200 301.400 411.100 301.500 411.200 301.500 H 417.000 C 417.100 301.500 417.000 301.400 417.000 301.500 V 304.400 C 417.000 304.455 417.045 304.500 417.100 304.500 H 423.100 C 423.155 304.500 423.200 304.455 423.200 304.400 V 301.500 C 423.200 301.400 423.100 301.500 423.200 301.500 H 429.000 C 429.100 301.500 429.000 301.400 429.000 301.500 V 304.400 C 429.000 304.455 429.045 304.500 429.100 304.500 H 435.100 C 435.155 304.500 435.200 304.455 435.200 304.400 V 301.500 C 435.200 301.400 435.100 301.500 435.200 301.500 H 441.100 C 441.155 301.500 441.200 301.455 441.200 301.400 V 295.000 C 441.200 294.900 441.100 295.000 441.200 295.000 H 444.100 C 444.155 295.000 444.200 294.955 444.200 294.900 V 288.900 C 444.200 288.845 444.155 288.800 444.100 288.800 H 441.200 C 441.100 288.800 441.200 288.900 441.200 288.800 V 283.000 C 441.200 282.900 441.100 283.000 441.200 283.000 H 444.100 C 444.155 283.000 444.200 282.955 444.200 282.900 V 276.900 C 444.200 276.845 444.155 276.800 444.100 276.800 H 441.200 C 441.100 276.800 441.200 276.900 441.200 276.800 V 270.400 C 441.200 270.345 441.155 270.300 441.100 270.300 H 231.100 C 231.045 270.300 231.000 270.345 231.000 270.400 V 276.800 C 231.000 276.900 231.100 276.800 231.000 276.800 H 228.100 C 228.045 276.800 228.000 276.845 228.000 276.900 V 282.900 C 228.000 282.955 228.045 283.000 228.100 283.000 H 231.000 C 231.100 283.000 231.000 282.900 231.000 283.000 V 288.800 C 231.000 288.900 231.100 288.800 231.000 288.800 H 228.100 C 228.045 288.800 228.000 288.845 228.000 288.900 V 294.900 C 228.000 294.955 228.045 295.000 228.100 295.000 H 231.000 C 231.100 295.000 231.000 294.900 231.000 295.000 V 301.400 C 231.000 301.455 231.045 301.500 231.100 301.500 Z" stroke="rgb(0,0,0)" stroke-width="0.20" />
</g>
<g id="p-3" style="fill:none;stroke-linecap:round;stroke-linejoin:round;">
  <path d="M 448.800 301.500 H 454.700 C 454.800 301.500 454.700 301.400 454.700 301.500 V 304.400 C 454.700 304.455 454.745 304.500 454.800 304.500 H 460.800 C 460.855 304.500 460.900 304.455 460.900 304.400 V 301.500 C 460.900 301.400 460.800 301.500 460.900 301.500 H 466.700 C 466.800 301.500 466.700 301.400 466.700 301.500 V 304.400 C 466.700 304.455 466.745 304.500 466.800 304.500 H 472.800 C 472.855 304.500 472.900 304.455 472.900 304.400 V 301.500 C 472.900 301.400 472.800 301.500 472.900 301.500 H 478.700 C 478.800 301.500 478.700 301.400 478.700 301.500 V 304.400 C 478.700 304.455 478.745 304.500 478.800 304.500 H 484.800 C 484.855 304.500 484.900 304.455 484.900 304.400 V 301.500 C 484.900 301.400 484.800 301.500 484.900 301.500 H 490.700 C 490.800 301.500 490.700 301.400 490.700 301.500 V 304.400 C 490.700 304.455 490.745 304.500 490.800 304.500 H 496.800 C 496.855 304.500 496.900 304.455 496.900 304.400 V 301.500 C 496.900 301.400 496.800 301.500 496.900 301.500 H 502.700 C 502.800 301.500 502.700 301.400 502.700 301.500 V 304.400 C 502.700 304.455 502.745 304.500 502.800 304.500 H 508.800 C 508.855 304.500 508.900 304.455 508.900 304.400 V 301.500 C 508.900 301.400 508.800 301.500 508.900 301.500 H 514.700 C 514.800 301.500 514.700 301.400 514.700 301.500 V 304.400 C 514.700 304.455 514.745 304.500 514.800 304.500 H 520.800 C 520.855 304.500 520.900 304.455 520.900 304.400 V 301.500 C 520.900 301.400 520.800 301.500 520.900 301.500 H 526.700 C 526.800 301.500 526.700 301.400 526.700 301.500 V 304.400 C 526.700 304.455 526.745 304.500 526.800 304.500 H 532.800 C 532.855 304.500 532.900 304.455 532.900 304.400 V 301.500 C 532.900 301.400 532.800 301.500 532.900 301.500 H 538.700 C 538.800 301.500 538.700 301.400 538.700 301.500 V 304.400 C 538.700 304.455 538.745 304.500 538.800 304.500 H 544.800 C 544.855 304.500 544.900 304.455 544.900 304.400 V 301.500 C 544.900 301.400 544.800 301.500 544.900 301.500 H 550.700 C 550.800 301.500 550.700 301.400 550.700 301.500 V 304.400 C 550.700 304.455 550.745 304.500 550.800 304.500 H 556.800 C 556.855 304.500 556.900 304.455 556.900 304.400 V 301.500 C 556.900 301.400 556.800 301.500 556.900 301.500 H 562.700 C 562.800 301.500 562.700 301.400 562.700 301.500 V 304.400 C 562.700 304.455 562.745 304.500 562.800 304.500 H 568.800 C 568.855 304.500 568.900 304.455 568.900 304.400 V 301.500 C 568.900 301.400 568.800 301.500 568.900 301.500 H 574.700 C 574.800 301.500 574.700 301.400 574.700 301.500 V 304.400 C 574.700 304.455 574.745 304.500 574.800 304.500 H 580.800 C 580.855 304.500 580.900 304.455 580.900 304.400 V 301.500 C 580.900 301.400 580.800 301.500 580.900 301.500 H 586.700 C 586.800 301.500 586.700 301.400 586.700 301.500 V 304.400 C 586.700 304.455 586.745 304.500 586.800 304.500 H 592.800 C 592.855 304.500 592.900 304.455 592.900 304.400 V 301.500 C 592.900 301.400 592.800 301.500 592.900 301.500 H 598.700 C 598.800 301.500 598.700 301.400 598.700 301.500 V 304.400 C 598.700 304.455 598.745 304.500 598.800 304.500 H 604.800 C 604.855 304.500 604.900 304.455 604.900 304.400 V 301.500 C 604.900 301.400 604.800 301.500 604.900 301.500 H 610.700 C 610.800 301.500 610.700 301.400 610.700 301.500 V 304.400 C 610.700 304.455 610.745 304.500 610.800 304.500 H 616.800 C 616.855 304.500 616.900 304.455 616.900 304.400 V 301.500 C 616.900 301.400 616.800 301.500 616.900 301.500 H 622.700 C 622.800 301.500 622.700 301.400 622.700 301.500 V 304.400 C 622.700 304.455 622.745 304.500 622.800 304.500 H 628.800 C 628.855 304.500 628.900 304.455 628.900 304.400 V 301.500 C 628.900 301.400 628.800 301.500 628.900 301.500 H 634.700 C 634.800 301.500 634.700 301.400 634.700 301.500 V 304.400 C 634.700 304.455 634.745 304.500 634.800 304.500 H 640.800 C 640.855 304.500 640.900 304.455 640.900 304.400 V 301.500 C 640.900 301.400 640.800 301.500 640.900 301.500 H 646.700 C 646.800 301.500 646.700 301.400 646.700 301.500 V 304.400 C 646.700 304.455 646.745 304.500 646.800 304.500 H 652.800 C 652.855 304.500 652.900 304.455 652.900 304.400 V 301.500 C 652.900 301.400 652.800 301.500 652.900 301.500 H 658.800 H 661.800 C 661.855 301.500 661.900 301.455 661.900 301.400 V 294.900 C 661.900 294.845 661.855 294.800 661.800 294.800 H 658.900 C 658.800 294.800 658.900 294.900 658.900 294.800 V 289.000 C 658.900 288.900 658.800 289.000 658.900 289.000 H 661.800 C 661.855 289.000 661.900 288.955 661.900 288.900 V 282.900 C 661.900 282.845 661.855 282.800 661.800 282.800 H 658.900 C 658.800 282.800 658.900 282.900 658.900 282.800 V 277.000 C 658.900 276.900 658.800 277.000 658.900 277.000 H 661.800 C 661.855 277.000 661.900 276.955 661.900 276.900 V 270.400 C 661.900 270.345 661.855 270.300 661.800 270.300 H 658.800 H 448.800 H 445.800 C 445.745 270.300 445.700 270.345 445.700 270.400 V 276.900 C 445.700 276.955 445.745 277.000 445.800 277.000 H 448.700 C 448.800 277.000 448.700 276.900 448.700 277.000 V 282.800 C 448.700 282.900 448.800 282.800 448.700 282.800 H 445.800 C 445.745 282.800 445.700 282.845 445.700 282.900 V 288.900 C 445.700 288.955 445.745 289.000 445.800 289.000 H 448.700 C 448.800 289.000 448.700 288.900 448.700 289.000 V 294.800 C 448.700 294.900 448.800 294.800 448.700 294.800 H 445.800 C 445.745 294.800 445.700 294.845 445.700 294.900 V 301.400 C 445.700 301.455 445.745 301.500 445.800 301.500 H 448.800 Z" stroke="rgb(0,0,0)" stroke-width="0.20" />
</g>
<g id="p-4" style="fill:none;stroke-linecap:round;stroke-linejoin:round;">
  <path d="M 666.500 301.500 H 672.400 C 672.500 301.500 672.400 301.400 672.400 301.500 V 304.400 C 672.400 304.455 672.445 304.500 672.500 304.500 H 678.500 C 678.555 304.500 678.600 304.455 678.600 304.400 V 301.500 C 678.600 301.400 678.500 301.500 678.600 301.500 H 684.400 C 684.500 301.500 684.400 301.400 684.400 301.500 V 304.400 C 684.400 304.455 684.445 304.500 684.500 304.500 H 690.500 C 690.555 304.500 690.600 304.455 690.600 304.400 V 301.500 C 690.600 301.400 690.500 301.500 690.600 301.500 H 696.400 C 696.500 301.500 696.400 301.400 696.400 301.500 V 304.400 C 696.400 304.455 696.445 304.500 696.500 304.500 H 702.500 C 702.555 304.500 702.600 304.455 702.600 304.400 V 301.500 C 702.600 301.400 702.500 301.500 702.600 301.500 H 708.400 C 708.500 301.500 708.400 301.400 708.400 301.500 V 304.400 C 708.400 304.455 708.445 304.500 708.500 304.500 H 714.500 C 714.555 304.500 714.600 304.455 714.600 304.400 V 301.500 C 714.600 301.400 714.500 301.500 714.600 301.500 H 720.400 C 720.500 301.500 720.400 301.400 720.400 301.500 V 304.400 C 720.400 304.455 720.445 304.500 720.500 304.500 H 726.500 C 726.555 304.500 726.600 304.455 726.600 304.400 V 301.500 C 726.600 301.400 726.500 301.500 726.600 301.500 H 732.400 C 732.500 301.500 732.400 301.400 732.400 301.500 V 304.400 C 732.400 304.455 732.445 304.500 732.500 304.500 H 738.500 C 738.555 304.500 738.600 304.455 738.600 304.400 V 301.500 C 738.600 301.400 738.500 301.500 738.600 301.500 H 744.400 C 744.500 301.500 744.400 301.400 744.400 301.500 V 304.400 C 744.400 304.455 744.445 304.500 744.500 304.500 H 750.500 C 750.555 304.500 750.600 304.455 750.600 304.400 V 301.500 C 750.600 301.400 750.500 301.500 750.600 301.500 H 756.400 C 756.500 301.500 756.400 301.400 756.400 301.500 V 304.400 C 756.400 304.455 756.445 304.500 756.500 304.500 H 762.500 C 762.555 304.500 762.600 304.455 762.600 304.400 V 301.500 C 762.600 301.400 762.500 301.500 762.600 301.500 H 768.400 C 768.500 301.500 768.400 301.400 768.400 301.500 V 304.400 C 768.400 304.455 768.445 304.500 768.500 304.500 H 774.500 C 774.555 304.500 774.600 304.455 774.600 304.400 V 301.500 C 774.600 301.400 774.500 301.500 774.600 301.500 H 780.400 C 780.500 301.500 780.400 301.400 780.400 301.500 V 304.400 C 780.400 304.455 780.445 304.500 780.500 304.500 H 786.500 C 786.555 304.500 786.600 304.455 786.600 304.400 V 301.500 C 786.600 301.400 786.500 301.500 786.600 301.500 H 792.400 C 792.500 301.500 792.400 301.400 792.400 301.500 V 304.400 C 792.400 304.455 792.445 304.500 792.500 304.500 H 798.500 C 798.555 304.500 798.600 304.455 798.600 304.400 V 301.500 C 798.600 301.400 798.500 301.500 798.600 301.500 H 804.400 C 804.500 301.500 804.400 301.400 804.400 301.500 V 304.400 C 804.400 304.455 804.445 304.500 804.500 304.500 H 810.500 C 810.555 304.500 810.600 304.455 810.600 304.400 V 301.500 C 810.600 301.400 810.500 301.500 810.600 301.500 H 816.400 C 816.500 301.500 816.400 301.400 816.400 301.500 V 304.400 C 816.400 304.455 816.445 304.500 816.500 304.500 H 822.500 C 822.555 304.500 822.600 304.455 822.600 304.400 V 301.500 C 822.600 301.400 822.500 301.500 822.600 301.500 H 828.400 C 828.500 301.500 828.400 301.400 828.400 301.500 V 304.400 C 828.400 304.455 828.445 304.500 828.500 304.500 H 834.500 C 834.555 304.500 834.600 304.455 834.600 304.400 V 301.500 C 834.600 301.400 834.500 301.500 834.600 301.500 H 840.400 C 840.500 301.500 840.400 301.400 840.400 301.500 V 304.400 C 840.400 304.455 840.445 304.500 840.500 304.500 H 846.500 C 846.555 304.500 846.600 304.455 846.600 304.400 V 301.500 C 846.600 301.400 846.500 301.500 846.600 301.500 H 852.400 C 852.500 301.500 852.400 301.400 852.400 301.500 V 304.400 C 852.400 304.455 852.445 304.500 852.500 304.500 H 858.500 C 858.555 304.500 858.600 304.455 858.600 304.400 V 301.500 C 858.600 301.400 858.500 301.500 858.600 301.500 H 864.400 C 864.500 301.500 864.400 301.400 864.400 301.500 V 304.400 C 864.400 304.455 864.445 304.500 864.500 304.500 H 870.500 C 870.555 304.500 870.600 304.455 870.600 304.400 V 301.500 C 870.600 301.400 870.500 301.500 870.600 301.500 H 876.500 C 876.555 301.500 876.600 301.455 876.600 301.400 V 295.000 C 876.600 294.900 876.500 295.000 876.600 295.000 H 879.500 C 879.555 295.000 879.600 294.955 879.600 294.900 V 288.900 C 879.600 288.845 879.555 288.800 879.500 288.800 H 876.600 C 876.500 288.800 876.600 288.900 876.600 288.800 V 283.000 C 876.600 282.900 876.500 283.000 876.600 283.000 H 879.500 C 879.555 283.000 879.600 282.955 879.600 282.900 V 276.900 C 879.600 276.845 879.555 276.800 879.500 276.800 H 876.600 C 876.500 276.800 876.600 276.900 876.600 276.800 V 270.400 C 876.600 270.345 876.555 270.300 876.500 270.300 H 666.500 C 666.445 270.300 666.400 270.345 666.400 270.400 V 276.800 C 666.400 276.900 666.500 276.800 666.400 276.800 H 663.500 C 663.445 276.800 663.400 276.845 663.400 276.900 V 282.900 C 663.400 282.955 663.445 283.000 663.500 283.000 H 666.400 C 666.500 283.000 666.400 282.900 666.400 283.000 V 288.800 C 666.400 288.900 666.500 288.800 666.400 288.800 H 663.500 C 663.445 288.800 663.400 288.845 663.400 288.900 V 294.900 C 663.400 294.955 663.445 295.000 663.500 295.000 H 666.400 C 666.500 295.000 666.400 294.900 666.400 295.000 V 301.400 C 666.400 301.455 666.445 301.500 666.500 301.500 Z" stroke="rgb(0,0,0)" stroke-width="0.20" />
</g>
<g id="p-5" style="fill:none;stroke-linecap:round;stroke-linejoin:round;">
  <path d="M 13.400 265.800 H 22.750 C 22.850 265.800 22.750 265.700 22.750 265.800 V 268.700 C 22.750 268.755 22.795 268.800 22.850 268.800 H 28.850 C 28.905 268.800 28.950 268.755 28.950 268.700 V 265.800 C 28.950 265.700 28.850 265.800 28.950 265.800 H 34.750 C 34.850 265.800 34.750 265.700 34.750 265.800 V 268.700 C 34.750 268.755 34.795 268.800 34.850 268.800 H 40.850 C 40.905 268.800 40.950 268.755 40.950 268.700 V 265.800 C 40.950 265.700 40.850 265.800 40.950 265.800 H 46.750 C 46.850 265.800 46.750 265.700 46.750 265.800 V 268.700 C 46.750 268.755 46.795 268.800 46.850 268.800 H 52.850 C 52.905 268.800 52.950 268.755 52.950 268.700 V 265.800 C 52.950 265.700 52.850 265.800 52.950 265.800 H 58.750 C 58.850 265.800 58.750 265.700 58.750 265.800 V 268.700 C 58.750 268.755 58.795 268.800 58.850 268.800 H 64.850 C 64.905 268.800 64.950 268.755 64.950 268.700 V 265.800 C 64.950 265.700 64.850 265.800 64.950 265.800 H 70.750 C 70.850 265.800 70.750 265.700 70.750 265.800 V 268.700 C 70.750 268.755 70.795 268.800 70.850 268.800 H 76.850 C 76.905 268.800 76.950 268.755 76.950 268.700 V 265.800 C 76.950 265.700 76.850 265.800 76.950 265.800 H 82.750 C 82.850 265.800 82.750 265.700 82.750 265.800 V 268.700 C 82.750 268.755 82.795 268.800 82.850 268.800 H 88.850 C 88.905 268.800 88.950 268.755 88.950 268.700 V 265.800 C 88.950 265.700 88.850 265.800 88.950 265.800 H 94.750 C 94.850 265.800 94.750 265.700 94.750 265.800 V 268.700 C 94.750 268.755 94.795 268.800 94.850 268.800 H 100.850 C 100.905 268.800 100.950 268.755 100.950 268.700 V 265.800 C 100.950 265.700 100.850 265.800 100.950 265.800 H 106.750 C 106.850 265.800 106.750 265.700 106.750 265.800 V 268.700 C 106.750 268.755 106.795 268.800 106.850 268.800 H 112.850 C 112.905 268.800 112.950 268.755 112.950 268.700 V 265.800 C 112.950 265.700 112.850 265.800 112.950 265.800 H 118.750 C 118.850 265.800 118.750 265.700 118.750 265.800 V 268.700 C 118.750 268.755 118.795 268.800 118.850 268.800 H 124.850 C 124.905 268.800 124.950 268.755 124.950 268.700 V 265.800 C 124.950 265.700 124.850 265.800 124.950 265.800 H 130.750 C 130.850 265.800 130.750 265.700 130.750 265.800 V 268.700 C 130.750 268.755 130.795 268.800 130.850 268.800 H 136.850 C 136.905 268.800 136.950 268.755 136.950 268.700 V 265.800 C 136.950 265.700 136.850 265.800 136.950 265.800 H 142.750 C 142.850 265.800 142.750 265.700 142.750 265.800 V 268.700 C 142.750 268.755 142.795 268.800 142.850 268.800 H 148.850 C 148.905 268.800 148.950 268.755 148.950 268.700 V 265.800 C 148.950 265.700 148.850 265.800 148.950 265.800 H 154.750 C 154.850 265.800 154.750 265.700 154.750 265.800 V 268.700 C 154.750 268.755 154.795 268.800 154.850 268.800 H 160.850 C 160.905 268.800 160.950 268.755 160.950 268.700 V 265.800 C 160.950 265.700 160.850 265.800 160.950 265.800 H 166.750 C 166.850 265.800 166.750 265.700 166.750 265.800 V 268.700 C 166.750 268.755 166.795 268.800 166.850 268.800 H 172.850 C 172.905 268.800 172.950 268.755 172.950 268.700 V 265.800 C 172.950 265.700 172.850 265.800 172.950 265.800 H 178.750 C 178.850 265.800 178.750 265.700 178.750 265.800 V 268.700 C 178.750 268.755 178.795 268.800 178.850 268.800 H 184.850 C 184.905 268.800 184.950 268.755 184.950 268.700 V 265.800 C 184.950 265.700 184.850 265.800 184.950 265.800 H 190.750 C 190.850 265.800 190.750 265.700 190.750 265.800 V 268.700 C 190.750 268.755 190.795 268.800 190.850 268.800 H 196.850 C 196.905 268.800 196.950 268.755 196.950 268.700 V 265.800 C 196.950 265.700 196.850 265.800 196.950 265.800 H 202.750 C 202.850 265.800 202.750 265.700 202.750 265.800 V 268.700 C 202.750 268.755 202.795 268.800 202.850 268.800 H 208.850 C 208.905 268.800 208.950 268.755 208.950 268.700 V 265.800 C 208.950 265.700 208.850 265.800 208.950 265.800 H 214.750 C 214.850 265.800 214.750 265.700 214.750 265.800 V 268.700 C 214.750 268.755 214.795 268.800 214.850 268.800 H 220.850 C 220.905 268.800 220.950 268.755 220.950 268.700 V 265.800 C 220.950 265.700 220.850 265.800 220.950 265.800 H 230.300 H 233.300 C 233.355 265.800 233.400 265.755 233.400 265.700 V 259.200 C 233.400 259.145 233.355 259.100 233.300 259.100 H 230.400 C 230.300 259.100 230.400 259.200 230.400 259.100 V 253.300 C 230.400 253.200 230.300 253.300 230.400 253.300 H 233.300 C 233.355 253.300 233.400 253.255 233.400 253.200 V 247.200 C 233.400 247.145 233.355 247.100 233.300 247.100 H 230.400 C 230.300 247.100 230.400 247.200 230.400 247.100 V 241.300 C 230.400 241.200 230.300 241.300 230.400 241.300 H 233.300 C 233.355 241.300 233.400 241.255 233.400 241.200 V 234.700 C 233.400 234.645 233.355 234.600 233.300 234.600 H 230.300 H 13.400 H 10.400 C 10.345 234.600 10.300 234.645 10.300 234.700 V 241.200 C 10.300 241.255 10.345 241.300 10.400 241.300 H 13.300 C 13.400 241.300 13.300 241.200 13.300 241.300 V 247.100 C 13.300 247.200 13.400 247.100 13.300 247.100 H 10.400 C 10.345 247.100 10.300 247.145 10.300 247.200 V 253.200 C 10.300 253.255 10.345 253.300 10.400 253.300 H 13.300 C 13.400 253.300 13.300 253.200 13.300 253.300 V 259.100 C 13.300 259.200 13.400 259.100 13.300 259.100 H 10.400 C 10.345 259.100 10.300 259.145 10.300 259.200 V 265.700 C 10.300 265.755 10.345 265.800 10.400 265.800 H 13.400 Z" stroke="rgb(0,0,0)" stroke-width="0.20" />
</g>
<g id="p-6" style="fill:none;stroke-linecap:round;stroke-linejoin:round;">
  <path d="M 238.000 265.800 H 247.350 C 247.450 265.800 247.350 265.700 247.350 265.800 V 268.700 C 247.350 268.755 247.395 268.800 247.450 268.800 H 253.450 C 253.505 268.800 253.550 268.755 253.550 268.700 V 265.800 C 253.550 265.700 253.450 265.800 253.550 265.800 H 259.350 C 259.450 265.800 259.350 265.700 259.350 265.800 V 268.700 C 259.350 268.755 259.395 268.800 259.450 268.800 H 265.450 C 265.505 268.800 265.550 268.755 265.550 268.700 V 265.800 C 265.550 265.700 265.450 265.800 265.550 265.800 H 271.350 C 271.450 265.800 271.350 265.700 271.350 265.800 V 268.700 C 271.350 268.755 271.395 268.800 271.450 268.800 H 277.450 C 277.505 268.800 277.550 268.755 277.550 268.700 V 265.800 C 277.550 265.700 277.450 265.800 277.550 265.800 H 283.350 C 283.450 265.800 283.350 265.700 283.350 265.800 V 268.700 C 283.350 268.755 283.395 268.800 283.450 268.800 H 289.450 C 289.505 268.800 289.550 268.755 289.550 268.700 V 265.800 C 289.550 265.700 289.450 265.800 289.550 265.800 H 295.350 C 295.450 265.800 295.350 265.700 295.350 265.800 V 268.700 C 295.350 268.755 295.395 268.800 295.450 268.800 H 301.450 C 301.505 268.800 301.550 268.755 301.550 268.700 V 265.800 C 301.550 265.700 301.450 265.800 301.550 265.800 H 307.350 C 307.450 265.800 307.350 265.700 307.350 265.800 V 268.700 C 307.350 268.755 307.395 268.800 307.450 268.800 H 313.450 C 313.505 268.800 313.550 268.755 313.550 268.700 V 265.800 C 313.550 265.700 313.450 265.800 313.550 265.800 H 319.350 C 319.450 265.800 319.350 265.700 319.350 265.800 V 268.700 C 319.350 268.755 319.395 268.800 319.450 268.800 H 325.450 C 325.505 268.800 325.550 268.755 325.550 268.700 V 265.800 C 325.550 265.700 325.450 265.800 325.550 265.800 H 331.350 C 331.450 265.800 331.350 265.700 331.350 265.800 V 268.700 C 331.350 268.755 331.395 268.800 331.450 268.800 H 337.450 C 337.505 268.800 337.550 268.755 337.550 268.700 V 265.800 C 337.550 265.700 337.450 265.800 337.550 265.800 H 343.350 C 343.450 265.800 343.350 265.700 343.350 265.800 V 268.700 C 343.350 268.755 343.395 268.800 343.450 268.800 H 349.450 C 349.505 268.800 349.550 268.755 349.550 268.700 V 265.800 C 349.550 265.700 349.450 265.800 349.550 265.800 H 355.350 C 355.450 265.800 355.350 265.700 355.350 265.800 V 268.700 C 355.350 268.755 355.395 268.800 355.450 268.800 H 361.450 C 361.505 268.800 361.550 268.755 361.550 268.700 V 265.800 C 361.550 265.700 361.450 265.800 361.550 265.800 H 367.350 C 367.450 265.800 367.350 265.700 367.350 265.800 V 268.700 C 367.350 268.755 367.395 268.800 367.450 268.800 H 373.450 C 373.505 268.800 373.550 268.755 373.550 268.700 V 265.800 C 373.550 265.700 373.450 265.800 373.550 265.800 H 379.350 C 379.450 265.800 379.350 265.700 379.350 265.800 V 268.700 C 379.350 268.755 379.395 268.800 379.450 268.800 H 385.450 C 385.505 268.800 385.550 268.755 385.550 268.700 V 265.800 C 385.550 265.700 385.450 265.800 385.550 265.800 H 391.350 C 391.450 265.800 391.350 265.700 391.350 265.800 V 268.700 C 391.350 268.755 391.395 268.800 391.450 268.800 H 397.450 C 397.505 268.800 397.550 268.755 397.550 268.700 V 265.800 C 397.550 265.700 397.450 265.800 397.550 265.800 H 403.350 C 403.450 265.800 403.350 265.700 403.350 265.800 V 268.700 C 403.350 268.755 403.395 268.800 403.450 268.800 H 409.450 C 409.505 268.800 409.550 268.755 409.550 268.700 V 265.800 C 409.550 265.700 409.450 265.800 409.550 265.800 H 415.350 C 415.450 265.800 415.350 265.700 415.350 265.800 V 268.700 C 415.350 268.755 415.395 268.800 415.450 268.800 H 421.450 C 421.505 268.800 421.550 268.755 421.550 268.700 V 265.800 C 421.550 265.700 421.450 265.800 421.550 265.800 H 427.350 C 427.450 265.800 427.350 265.700 427.350 265.800 V 268.700 C 427.350 268.755 427.395 268.800 427.450 268.800 H 433.450 C 433.505 268.800 433.550 268.755 433.550 268.700 V 265.800 C 433.550 265.700 433.450 265.800 433.550 265.800 H 439.350 C 439.450 265.800 439.350 265.700 439.350 265.800 V 268.700 C 439.350 268.755 439.395 268.800 439.450 268.800 H 445.450 C 445.505 268.800 445.550 268.755 445.550 268.700 V 265.800 C 445.550 265.700 445.450 265.800 445.550 265.800 H 454.900 C 454.955 265.800 455.000 265.755 455.000 265.700 V 259.300 C 455.000 259.200 454.900 259.300 455.000 259.300 H 457.900 C 457.955 259.300 458.000 259.255 458.000 259.200 V 253.200 C 458.000 253.145 457.955 253.100 457.900 253.100 H 455.000 C 454.900 253.100 455.000 253.200 455.000 253.100 V 247.300 C 455.000 247.200 454.900 247.300 455.000 247.300 H 457.900 C 457.955 247.300 458.000 247.255 458.000 247.200 V 241.200 C 458.000 241.145 457.955 241.100 457.900 241.100 H 455.000 C 454.900 241.100 455.000 241.200 455.000 241.100 V 234.700 C 455.000 234.645 454.955 234.600 454.900 234.600 H 238.000 C 237.945 234.600 237.900 234.645 237.900 234.700 V 241.100 C 237.900 241.200 238.000 241.100 237.900 241.100 H 235.000 C 234.945 241.100 234.900 241.145 234.900 241.200 V 247.200 C 234.900 247.255 234.945 247.300 235.000 247.300 H 237.900 C 238.000 247.300 237.900 247.200 237.900 247.300 V 253.100 C 237.900 253.200 238.000 253.100 237.900 253.100 H 235.000 C 234.945 253.100 234.900 253.145 234.900 253.200 V 259.200 C 234.900 259.255 234.945 259.300 235.000 259.300 H 237.900 C 238.000 259.300 237.900 259.200 237.900 259.300 V 265.700 C 237.900 265.755 237.945 265.800 238.000 265.800 Z" stroke="rgb(0,0,0)" stroke-width="0.20" />
</g>
<g id="p-7" style="fill:none;stroke-linecap:round;stroke-linejoin:round;">
  <path d="M 462.600 265.800 H 471.950 C 472.050 265.800 471.950 265.700 471.950 265.800 V 268.700 C 471.950 268.755 471.995 268.800 472.050 268.800 H 478.050 C 478.105 268.800 478.150 268.755 478.150 268.700 V 265.800 C 478.150 265.700 478.050 265.800 478.150 265.800 H 483.950 C 484.050 265.800 483.950 265.700 483.950 265.800 V 268.700 C 483.950 268.755 483.995 268.800 484.050 268.800 H 490.050 C 490.105 268.800 490.150 268.755 490.150 268.700 V 265.800 C 490.150 265.700 490.050 265.800 490.150 265.800 H 495.950 C 496.050 265.800 495.950 265.700 495.950 265.800 V 268.700 C 495.950 268.755 495.995 268.800 496.050 268.800 H 502.050 C 502.105 268.800 502.150 268.755 502.150 268.700 V 265.800 C 502.150 265.700 502.050 265.800 502.150 265.800 H 507.950 C 508.050 265.800 507.950 265.700 507.950 265.800 V 268.700 C 507.950 268.755 507.995 268.800 508.050 268.800 H 514.050 C 514.105 268.800 514.150 268.755 514.150 268.700 V 265.800 C 514.150 265.700 514.050 265.800 514.150 265.800 H 519.950 C 520.050 265.800 519.950 265.700 519.950 265.800 V 268.700 C 519.950 268.755 519.995 268.800 520.050 268.800 H 526.050 C 526.105 268.800 526.150 268.755 526.150 268.700 V 265.800 C 526.150 265.700 526.050 265.800 526.150 265.800 H 531.950 C 532.050 265.800 531.950 265.700 531.950 265.800 V 268.700 C 531.950 268.755 531.995 268.800 532.050 268.800 H 538.050 C 538.105 268.800 538.150 268.755 538.150 268.700 V 265.800 C 538.150 265.700 538.050 265.800 538.150 265.800 H 543.950 C 544.050 265.800 543.950 265.700 543.950 265.800 V 268.700 C 543.950 268.755 543.995 268.800 544.050 268.800 H 550.050 C 550.105 268.800 550.150 268.755 550.150 268.700 V 265.800 C 550.150 265.700 550.050 265.800 550.150 265.800 H 555.950 C 556.050 265.800 555.950 265.700 555.950 265.800 V 268.700 C 555.950 268.755 555.995 268.800 556.050 268.800 H 562.050 C 562.105 268.800 562.150 268.755 562.150 268.700 V 265.800 C 562.150 265.700 562.050 265.800 562.150 265.800 H 567.950 C 568.050 265.800 567.950 265.700 567.950 265.800 V 268.700 C 567.950 268.755 567.995 268.800 568.050 268.800 H 574.050 C 574.105 268.800 574.150 268.755 574.150 268.700 V 265.800 C 574.150 265.700 574.050 265.800 574.150 265.800 H 579.950 C 580.050 265.800 579.950 265.700 579.950 265.800 V 268.700 C 579.950 268.755 579.995 268.800 580.050 268.800 H 586.050 C 586.105 268.800 586.150 268.755 586.150 268.700 V 265.800 C 586.150 265.700 586.050 265.800 586.150 265.800 H 591.950 C 592.050 265.800 591.950 265.700 591.950 265.800 V 268.700 C 591.950 268.755 591.995 268.800 592.050 268.800 H 598.050 C 598.105 268.800 598.150 268.755 598.150 268.700 V 265.800 C 598.150 265.700 598.050 265.800 598.150 265.800 H 603.950 C 604.050 265.800 603.950 265.700 603.950 265.800 V 268.700 C 603.950 268.755 603.995 268.800 604.050 268.800 H 610.050 C 610.105 268.800 610.150 268.755 610.150 268.700 V 265.800 C 610.150 265.700 610.050 265.800 610.150 265.800 H 615.950 C 616.050 265.800 615.950 265.700 615.950 265.800 V 268.700 C 615.950 268.755 615.995 268.800 616.050 268.800 H 622.050 C 622.105 268.800 622.150 268.755 622.150 268.700 V 265.800 C 622.150 265.700 622.050 265.800 622.150 265.800 H 627.950 C 628.050 265.800 627.950 265.700 627.950 265.800 V 268.700 C 627.950 268.755 627.995 268.800 628.050 268.800 H 634.050 C 634.105 268.800 634.150 268.755 634.150 268.700 V 265.800 C 634.150 265.700 634.050 265.800 634.150 265.800 H 639.950 C 640.050 265.800 639.950 265.700 639.950 265.800 V 268.700 C 639.950 268.755 639.995 268.800 640.050 268.800 H 646.050 C 646.105 268.800 646.150 268.755 646.150 268.700 V 265.800 C 646.150 265.700 646.050 265.800 646.150 265.800 H 651.950 C 652.050 265.800 651.950 265.700 651.950 265.800 V 268.700 C 651.950 268.755 651.995 268.800 652.050 268.800 H 658.050 C 658.105 268.800 658.150 268.755 658.150 268.700 V 265.800 C 658.150 265.700 658.050 265.800 658.150 265.800 H 663.950 C 664.050 265.800 663.950 265.700 663.950 265.800 V 268.700 C 663.950 268.755 663.995 268.800 664.050 268.800 H 670.050 C 670.105 268.800 670.150 268.755 670.150 268.700 V 265.800 C 670.150 265.700 670.050 265.800 670.150 265.800 H 679.500 H 682.500 C 682.555 265.800 682.600 265.755 682.600 265.700 V 259.200 C 682.600 259.145 682.555 259.100 682.500 259.100 H 679.600 C 679.500 259.100 679.600 259.200 679.600 259.100 V 253.300 C 679.600 253.200 679.500 253.300 679.600 253.300 H 682.500 C 682.555 253.300 682.600 253.255 682.600 253.200 V 247.200 C 682.600 247.145 682.555 247.100 682.500 247.100 H 679.600 C 679.500 247.100 679.600 247.200 679.600 247.100 V 241.300 C 679.600 241.200 679.500 241.300 679.600 241.300 H 682.500 C 682.555 241.300 682.600 241.255 682.600 241.200 V 234.700 C 682.600 234.645 682.555 234.600 682.500 234.600 H 679.500 H 462.600 H 459.600 C 459.545 234.600 459.500 234.645 459.500 234.700 V 241.200 C 459.500 241.255 459.545 241.300 459.600 241.300 H 462.500 C 462.600 241.300 462.500 241.200 462.500 241.300 V 247.100 C 462.500 247.200 462.600 247.100 462.500 247.100 H 459.600 C 459.545 247.100 459.500 247.145 459.500 247.200 V 253.200 C 459.500 253.255 459.545 253.300 459.600 253.300 H 462.500 C 462.600 253.300 462.500 253.200 462.500 253.300 V 259.100 C 462.500 259.200 462.600 259.100 462.500 259.100 H 459.600 C 459.545 259.100 459.500 259.145 459.500 259.200 V 265.700 C 459.500 265.755 459.545 265.800 459.600 265.800 H 462.600 Z" stroke="rgb(0,0,0)" stroke-width="0.20" />
</g>
<g id="p-8" style="fill:none;stroke-linecap:round;stroke-linejoin:round;">
  <path d="M 687.200 265.800 H 696.550 C 696.650 265.800 696.550 265.700 696.550 265.800 V 268.700 C 696.550 268.755 696.595 268.800 696.650 268.800 H 702.650 C 702.705 268.800 702.750 268.755 702.750 268.700 V 265.800 C 702.750 265.700 702.650 265.800 702.750 265.800 H 708.550 C 708.650 265.800 708.550 265.700 708.550 265.800 V 268.700 C 708.550 268.755 708.595 268.800 708.650 268.800 H 714.650 C 714.705 268.800 714.750 268.755 714.750 268.700 V 265.800 C 714.750 265.700 714.650 265.800 714.750 265.800 H 720.550 C 720.650 265.800 720.550 265.700 720.550 265.800 V 268.700 C 720.550 268.755 720.595 268.800 720.650 268.800 H 726.650 C 726.705 268.800 726.750 268.755 726.750 268.700 V 265.800 C 726.750 265.700 726.650 265.800 726.750 265.800 H 732.550 C 732.650 265.800 732.550 265.700 732.550 265.800 V 268.700 C 732.550 268.755 732.595 268.800 732.650 268.800 H 738.650 C 738.705 268.800 738.750 268.755 738.750 268.700 V 265.800 C 738.750 265.700 738.650 265.800 738.750 265.800 H 744.550 C 744.650 265.800 744.550 265.700 744.550 265.800 V 268.700 C 744.550 268.755 744.595 268.800 744.650 268.800 H 750.650 C 750.705 268.800 750.750 268.755 750.750 268.700 V 265.800 C 750.750 265.700 750.650 265.800 750.750 265.800 H 756.550 C 756.650 265.800 756.550 265.700 756.550 265.800 V 268.700 C 756.550 268.755 756.595 268.800 756.650 268.800 H 762.650 C 762.705 268.800 762.750 268.755 762.750 268.700 V 265.800 C 762.750 265.700 762.650 265.800 762.750 265.800 H 768.550 C 768.650 265.800 768.550 265.700 768.550 265.800 V 268.700 C 768.550 268.755 768.595 268.800 768.650 268.800 H 774.650 C 774.705 268.800 774.750 268.755 774.750 268.700 V 265.800 C 774.750 265.700 774.650 265.800 774.750 265.800 H 780.550 C 780.650 265.800 780.550 265.700 780.550 265.800 V 268.700 C 780.550 268.755 780.595 268.800 780.650 268.800 H 786.650 C 786.705 268.800 786.750 268.755 786.750 268.700 V 265.800 C 786.750 265.700 786.650 265.800 786.750 265.800 H 792.550 C 792.650 265.800 792.550 265.700 792.550 265.800 V 268.700 C 792.550 268.755 792.595 268.800 792.650 268.800 H 798.650 C 798.705 268.800 798.750 268.755 798.750 268.700 V 265.800 C 798.750 265.700 798.650 265.800 798.750 265.800 H 804.550 C 804.650 265.800 804.550 265.700 804.550 265.800 V 268.700 C 804.550 268.755 804.595 268.800 804.650 268.800 H 810.650 C 810.705 268.800 810.750 268.755 810.750 268.700 V 265.800 C 810.750 265.700 810.650 265.800 810.750 265.800 H 816.550 C 816.650 265.800 816.550 265.700 816.550 265.800 V 268.700 C 816.550 268.755 816.595 268.800 816.650 268.800 H 822.650 C 822.705 268.800 822.750 268.755 822.750 268.700 V 265.800 C 822.750 265.700 822.650 265.800 822.750 265.800 H 828.550 C 828.650 265.800 828.550 265.700 828.550 265.800 V 268.700 C 828.550 268.755 828.595 268.800 828.650 268.800 H 834.650 C 834.705 268.800 834.750 268.755 834.750 268.700 V 265.800 C 834.750 265.700 834.650 265.800 834.750 265.800 H 840.550 C 840.650 265.800 840.550 265.700 840.550 265.800 V 268.700 C 840.550 268.755 840.595 268.800 840.650 268.800 H 846.650 C 846.705 268.800 846.750 268.755 846.750 268.700 V 265.800 C 846.750 265.700 846.650 265.800 846.750 265.800 H 852.550 C 852.650 265.800 852.550 265.700 852.550 265.800 V 268.700 C 852.550 268.755 852.595 268.800 852.650 268.800 H 858.650 C 858.705 268.800 858.750 268.755 858.750 268.700 V 265.800 C 858.750 265.700 858.650 265.800 858.750 265.800 H 864.550 C 864.650 265.800 864.550 265.700 864.550 265.800 V 268.700 C 864.550 268.755 864.595 268.800 864.650 268.800 H 870.650 C 870.705 268.800 870.750 268.755 870.750 268.700 V 265.800 C 870.750 265.700 870.650 265.800 870.750 265.800 H 876.550 C 876.650 265.800 876.550 265.700 876.550 265.800 V 268.700 C 876.550 268.755 876.595 268.800 876.650 268.800 H 882.650 C 882.705 268.800 882.750 268.755 882.750 268.700 V 265.800 C 882.750 265.700 882.650 265.800 882.750 265.800 H 888.550 C 888.650 265.800 888.550 265.700 888.550 265.800 V 268.700 C 888.550 268.755 888.595 268.800 888.650 268.800 H 894.650 C 894.705 268.800 894.750 268.755 894.750 268.700 V 265.800 C 894.750 265.700 894.650 265.800 894.750 265.800 H 904.100 C 904.155 265.800 904.200 265.755 904.200 265.700 V 259.300 C 904.200 259.200 904.100 259.300 904.200 259.300 H 907.100 C 907.155 259.300 907.200 259.255 907.200 259.200 V 253.200 C 907.200 253.145 907.155 253.100 907.100 253.100 H 904.200 C 904.100 253.100 904.200 253.200 904.200 253.100 V 247.300 C 904.200 247.200 904.100 247.300 904.200 247.300 H 907.100 C 907.155 247.300 907.200 247.255 907.200 247.200 V 241.200 C 907.200 241.145 907.155 241.100 907.100 241.100 H 904.200 C 904.100 241.100 904.200 241.200 904.200 241.100 V 234.700 C 904.200 234.645 904.155 234.600 904.100 234.600 H 687.200 C 687.145 234.600 687.100 234.645 687.100 234.700 V 241.100 C 687.100 241.200 687.200 241.100 687.100 241.100 H 684.200 C 684.145 241.100 684.100 241.145 684.100 241.200 V 247.200 C 684.100 247.255 684.145 247.300 684.200 247.300 H 687.100 C 687.200 247.300 687.100 247.200 687.100 247.300 V 253.100 C 687.100 253.200 687.200 253.100 687.100 253.100 H 684.200 C 684.145 253.100 684.100 253.145 684.100 253.200 V 259.200 C 684.100 259.255 684.145 259.300 684.200 259.300 H 687.100 C 687.200 259.300 687.100 259.200 687.100 259.300 V 265.700 C 687.100 265.755 687.145 265.800 687.200 265.800 Z" stroke="rgb(0,0,0)" stroke-width="0.20" />
</g>
<g id="p-9" style="fill:none;stroke-linecap:round;stroke-linejoin:round;">
  <path d="M 25.850 229.450 H 22.950 C 22.850 229.450 22.950 229.550 22.950 229.450 V 226.650 C 22.950 226.550 22.850 226.650 22.950 226.650 H 28.750 C 28.850 226.650 28.750 226.550 28.750 226.650 V 229.450 C 28.750 229.550 28.850 229.450 28.750 229.450 H 25.850 Z" stroke="rgb(0,0,255)" stroke-width="0.20" />
  <path d="M 37.850 229.450 H 34.950 C 34.850 229.450 34.950 229.550 34.950 229.450 V 226.650 C 34.950 226.550 34.850 226.650 34.950 226.650 H 40.750 C 40.850 226.650 40.750 226.550 40.750 226.650 V 229.450 C 40.750 229.550 40.850 229.450 40.750 229.450 H 37.850 Z" stroke="rgb(0,0,255)" stroke-width="0.20" />
  <path d="M 49.850 229.450 H 46.950 C 46.850 229.450 46.950 229.550 46.950 229.450 V 226.650 C 46.950 226.550 46.850 226.650 46.950 226.650 H 52.750 C 52.850 226.650 52.750 226.550 52.750 226.650 V 229.450 C 52.750 229.550 52.850 229.450 52.750 229.450 H 49.850 Z" stroke="rgb(0,0,255)" stroke-width="0.20" />
  <path d="M 61.850 229.450 H 58.950 C 58.850 229.450 58.950 229.550 58.950 229.450 V 226.650 C 58.950 226.550 58.850 226.650 58.950 226.650 H 64.750 C 64.850 226.650 64.750 226.550 64.750 226.650 V 229.450 C 64.750 229.550 64.850 229.450 64.750 229.450 H 61.850 Z" stroke="rgb(0,0,255)" stroke-width="0.20" />
  <path d="M 73.850 229.450 H 70.950 C 70.850 229.450 70.950 229.550 70.950 229.450 V 226.650 C 70.950 226.550 70.850 226.650 70.950 226.650 H 76.750 C 76.850 226.650 76.750 226.550 76.750 226.650 V 229.450 C 76.750 229.550 76.850 229.450 76.750 229.450 H 73.850 Z" stroke="rgb(0,0,255)" stroke-width="0.20" />
  <path d="M 85.850 229.450 H 82.950 C 82.850 229.450 82.950 229.550 82.950 229.450 V 226.650 C 82.950 226.550 82.850 226.650 82.950 226.650 H 88.750 C 88.850 226.650 88.750 226.550 88.750 226.650 V 229.450 C 88.750 229.550 88.850 229.450 88.750 229.450 H 85.850 Z" stroke="rgb(0,0,255)" stroke-width="0.20" />
  <path d="M 97.850 229.450 H 94.950 C 94.850 229.450 94.950 229.550 94.950 229.450 V 226.650 C 94.950 226.550 94.850 226.650 94.950 226.650 H 100.750 C 100.850 226.650 100.750 226.550 100.750 226.650 V 229.450 C 100.750 229.550 100.850 229.450 100.750 229.450 H 97.850 Z" stroke="rgb(0,0,255)" stroke-width="0.20" />
  <path d="M 109.850 229.450 H 106.950 C 106.850 229.450 106.950 229.550 106.950 229.450 V 226.650 C 106.950 226.550 106.850 226.650 106.950 226.650 H 112.750 C 112.850 226.650 112.750 226.550 112.750 226.650 V 229.450 C 112.750 229.550 112.850 229.450 112.750 229.450 H 109.850 Z" stroke="rgb(0,0,255)" stroke-width="0.20" />
  <path d="M 121.850 229.450 H 118.950 C 118.850 229.450 118.950 229.550 118.950 229.450 V 226.650 C 118.950 226.550 118.850 226.650 118.950 226.650 H 124.750 C 124.850 226.650 124.750 226.550 124.750 226.650 V 229.450 C 124.750 229.550 124.850 229.450 124.750 229.450 H 121.850 Z" stroke="rgb(0,0,255)" stroke-width="0.20" />
  <path d="M 133.850 229.450 H 130.950 C 130.850 229.450 130.950 229.550 130.950 229.450 V 226.650 C 130.950 226.550 130.850 226.650 130.950 226.650 H 136.750 C 136.850 226.650 136.750 226.550 136.750 226.650 V 229.450 C 136.750 229.550 136.850 229.450 136.750 229.450 H 133.850 Z" stroke="rgb(0,0,255)" stroke-width="0.20" />
  <path d="M 145.850 229.450 H 142.950 C 142.850 229.450 142.950 229.550 142.950 229.450 V 226.650 C 142.950 226.550 142.850 226.650 142.950 226.650 H 148.750 C 148.850 226.650 148.750 226.550 148.750 226.650 V 229.450 C 148.750 229.550 148.850 229.450 148.750 229.450 H 145.850 Z" stroke="rgb(0,0,255)" stroke-width="0.20" />
  <path d="M 157.850 229.450 H 154.950 C 154.850 229.450 154.950 229.550 154.950 229.450 V 226.650 C 154.950 226.550 154.850 226.650 154.950 226.650 H 160.750 C 160.850 226.650 160.750 226.550 160.750 226.650 V 229.450 C 160.750 229.550 160.850 229.450 160.750 229.450 H 157.850 Z" stroke="rgb(0,0,255)" stroke-width="0.20" />
  <path d="M 169.850 229.450 H 166.950 C 166.850 229.450 166.950 229.550 166.950 229.450 V 226.650 C 166.950 226.550 166.850 226.650 166.950 226.650 H 172.750 C 172.850 226.650 172.750 226.550 172.750 226.650 V 229.450 C 172.750 229.550 172.850 229.450 172.750 229.450 H 169.850 Z" stroke="rgb(0,0,255)" stroke-width="0.20" />
  <path d="M 181.850 229.450 H 178.950 C 178.850 229.450 178.950 229.550 178.950 229.450 V 226.650 C 178.950 226.550 178.850 226.650 178.950 226.650 H 184.750 C 184.850 226.650 184.750 226.550 184.750 226.650 V 229.450 C 184.750 229.550 184.850 229.450 184.750 229.450 H 181.850 Z" stroke="rgb(0,0,255)" stroke-width="0.20" />
  <path d="M 193.850 229.450 H 190.950 C 190.850 229.450 190.950 229.550 190.950 229.450 V 226.650 C 190.950 226.550 190.850 226.650 190.950 226.650 H 196.750 C 196.850 226.650 196.750 226.550 196.750 226.650 V 229.450 C 196.750 229.550 196.850 229.450 196.750 229.450 H 193.850 Z" stroke="rgb(0,0,255)" stroke-width="0.20" />
  <path d="M 205.850 229.450 H 202.950 C 202.850 229.450 202.950 229.550 202.950 229.450 V 226.650 C 202.950 226.550 202.850 226.650 202.950 226.650 H 208.750 C 208.850 226.650 208.750 226.550 208.750 226.650 V 229.450 C 208.750 229.550 208.850 229.450 208.750 229.450 H 205.850 Z" stroke="rgb(0,0,255)" stroke-width="0.20" />
  <path d="M 217.850 229.450 H 214.950 C 214.850 229.450 214.950 229.550 214.950 229.450 V 226.650 C 214.950 226.550 214.850 226.650 214.950 226.650 H 220.750 C 220.850 226.650 220.750 226.550 220.750 226.650 V 229.450 C 220.750 229.550 220.850 229.450 220.750 229.450 H 217.850 Z" stroke="rgb(0,0,255)" stroke-width="0.20" />
  <path d="M 16.850 233.100 H 226.850 H 233.300 C 233.355 233.100 233.400 233.055 233.400 233.000 V 226.550 V 16.550 V 10.100 C 233.400 10.045 233.355 10.000 233.300 10.000 H 226.850 H 16.850 H 10.400 C 10.345 10.000 10.300 10.045 10.300 10.100 V 16.550 V 226.550 V 233.000 C 10.300 233.055 10.345 233.100 10.400 233.100 H 16.850 Z" stroke="rgb(0,0,0)" stroke-width="0.20" />
  <path d="M 229.750 217.550 V 220.450 C 229.750 220.550 229.850 220.450 229.750 220.450 H 226.950 C 226.850 220.450 226.950 220.550 226.950 220.450 V 214.650 C 226.950 214.550 226.850 214.650 226.950 214.650 H 229.750 C 229.850 214.650 229.750 214.550 229.750 214.650 V 217.550 Z" stroke="rgb(0,0,255)" stroke-width="0.20" />
  <path d="M 229.750 205.550 V 208.450 C 229.750 208.550 229.850 208.450 229.750 208.450 H 226.950 C 226.850 208.450 226.950 208.550 226.950 208.450 V 202.650 C 226.950 202.550 226.850 202.650 226.950 202.650 H 229.750 C 229.850 202.650 229.750 202.550 229.750 202.650 V 205.550 Z" stroke="rgb(0,0,255)" stroke-width="0.20" />
  <path d="M 229.750 193.550 V 196.450 C 229.750 196.550 229.850 196.450 229.750 196.450 H 226.950 C 226.850 196.450 226.950 196.550 226.950 196.450 V 190.650 C 226.950 190.550 226.850 190.650 226.950 190.650 H 229.750 C 229.850 190.650 229.750 190.550 229.750 190.650 V 193.550 Z" stroke="rgb(0,0,255)" stroke-width="0.20" />
  <path d="M 229.750 181.550 V 184.450 C 229.750 184.550 229.850 184.450 229.750 184.450 H 226.950 C 226.850 184.450 226.950 184.550 226.950 184.450 V 178.650 C 226.950 178.550 226.850 178.650 226.950 178.650 H 229.750 C 229.850 178.650 229.750 178.550 229.750 178.650 V 181.550 Z" stroke="rgb(0,0,255)" stroke-width="0.20" />
  <path d="M 229.750 169.550 V 172.450 C 229.750 172.550 229.850 172.450 229.750 172.450 H 226.950 C 226.850 172.450 226.950 172.550 226.950 172.450 V 166.650 C 226.950 166.550 226.850 166.650 226.950 166.650 H 229.750 C 229.850 166.650 229.750 166.550 229.750 166.650 V 169.550 Z" stroke="rgb(0,0,255)" stroke-width="0.20" />
  <path d="M 229.750 157.550 V 160.450 C 229.750 160.550 229.850 160.450 229.750 160.450 H 226.950 C 226.850 160.450 226.950 160.550 226.950 160.450 V 154.650 C 226.950 154.550 226.850 154.650 226.950 154.650 H 229.750 C 229.850 154.650 229.750 154.550 229.750 154.650 V 157.550 Z" stroke="rgb(0,0,255)" stroke-width="0.20" />
  <path d="M 229.750 145.550 V 148.450 C 229.750 148.550 229.850 148.450 229.750 148.450 H 226.950 C 226.850 148.450 226.950 148.550 226.950 148.450 V 142.650 C 226.950 142.550 226.850 142.650 226.950 142.650 H 229.750 C 229.850 142.650 229.750 142.550 229.750 142.650 V 145.550 Z" stroke="rgb(0,0,255)" stroke-width="0.20" />
  <path d="M 229.750 133.550 V 136.450 C 229.750 136.550 229.850 136.450 229.750 136.450 H 226.950 C 226.850 136.450 226.950 136.550 226.950 136.450 V 130.650 C 226.950 130.550 226.850 130.650 226.950 130.650 H 229.750 C 229.850 130.650 229.750 130.550 229.750 130.650 V 133.550 Z" stroke="rgb(0,0,255)" stroke-width="0.20" />
  <path d="M 229.750 121.550 V 124.450 C 229.750 124.550 229.850 124.450 229.750 124.450 H 226.950 C 226.850 124.450 226.950 124.550 226.950 124.450 V 118.650 C 226.950 118.550 226.850 118.650 226.950 118.650 H 229.750 C 229.850 118.650 229.750 118.550 229.750 118.650 V 121.550 Z" stroke="rgb(0,0,255)" stroke-width="0.20" />
  <path d="M 229.750 109.550 V 112.450 C 229.750 112.550 229.850 112.450 229.750 112.450 H 226.950 C 226.850 112.450 226.950 112.550 226.950 112.450 V 106.650 C 226.950 106.550 226.850 106.650 226.950 106.650 H 229.750 C 229.850 106.650 229.750 106.550 229.750 106.650 V 109.550 Z" stroke="rgb(0,0,255)" stroke-width="0.20" />
  <path d="M 229.750 97.550 V 100.450 C 229.750 100.550 229.850 100.450 229.750 100.450 H 226.950 C 226.850 100.450 226.950 100.550 226.950 100.450 V 94.650 C 226.950 94.550 226.850 94.650 226.950 94.650 H 229.750 C 229.850 94.650 229.750 94.550 229.750 94.650 V 97.550 Z" stroke="rgb(0,0,255)" stroke-width="0.20" />
  <path d="M 229.750 85.550 V 88.450 C 229.750 88.550 229.850 88.450 229.750 88.450 H 226.950 C 226.850 88.450 226.950 88.550 226.950 88.450 V 82.650 C 226.950 82.550 226.850 82.650 226.950 82.650 H 229.750 C 229.850 82.650 229.750 82.550 229.750 82.650 V 85.550 Z" stroke="rgb(0,0,255)" stroke-width="0.20" />
  <path d="M 229.750 73.550 V 76.450 C 229.750 76.550 229.850 76.450 229.750 76.450 H 226.950 C 226.850 76.450 226.950 76.550 226.950 76.450 V 70.650 C 226.950 70.550 226.850 70.650 226.950 70.650 H 229.750 C 229.850 70.650 229.750 70.550 229.750 70.650 V 73.550 Z" stroke="rgb(0,0,255)" stroke-width="0.20" />
  <path d="M 229.750 61.550 V 64.450 C 229.750 64.550 229.850 64.450 229.750 64.450 H 226.950 C 226.850 64.450 226.950 64.550 226.950 64.450 V 58.650 C 226.950 58.550 226.850 58.650 226.950 58.650 H 229.750 C 229.850 58.650 229.750 58.550 229.750 58.650 V 61.550 Z" stroke="rgb(0,0,255)" stroke-width="0.20" />
  <path d="M 229.750 49.550 V 52.450 C 229.750 52.550 229.850 52.450 229.750 52.450 H 226.950 C 226.850 52.450 226.950 52.550 226.950 52.450 V 46.650 C 226.950 46.550 226.850 46.650 226.950 46.650 H 229.750 C 229.850 46.650 229.750 46.550 229.750 46.650 V 49.550 Z" stroke="rgb(0,0,255)" stroke-width="0.20" />
  <path d="M 229.750 37.550 V 40.450 C 229.750 40.550 229.850 40.450 229.750 40.450 H 226.950 C 226.850 40.450 226.950 40.550 226.950 40.450 V 34.650 C 226.950 34.550 226.850 34.650 226.950 34.650 H 229.750 C 229.850 34.650 229.750 34.550 229.750 34.650 V 37.550 Z" stroke="rgb(0,0,255)" stroke-width="0.20" />
  <path d="M 229.750 25.550 V 28.450 C 229.750 28.550 229.850 28.450 229.750 28.450 H 226.950 C 226.850 28.450 226.950 28.550 226.950 28.450 V 22.650 C 226.950 22.550 226.850 22.650 226.950 22.650 H 229.750 C 229.850 22.650 229.750 22.550 229.750 22.650 V 25.550 Z" stroke="rgb(0,0,255)" stroke-width="0.20" />
  <path d="M 217.850 13.650 H 220.750 C 220.850 13.650 220.750 13.550 220.750 13.650 V 16.450 C 220.750 16.550 220.850 16.450 220.750 16.450 H 214.950 C 214.850 16.450 214.950 16.550 214.950 16.450 V 13.650 C 214.950 13.550 214.850 13.650 214.950 13.650 H 217.850 Z" stroke="rgb(0,0,255)" stroke-width="0.20" />
  <path d="M 205.850 13.650 H 208.750 C 208.850 13.650 208.750 13.550 208.750 13.650 V 16.450 C 208.750 16.550 208.850 16.450 208.750 16.450 H 202.950 C 202.850 16.450 202.950 16.550 202.950 16.450 V 13.650 C 202.950 13.550 202.850 13.650 202.950 13.650 H 205.850 Z" stroke="rgb(0,0,255)" stroke-width="0.20" />
  <path d="M 193.850 13.650 H 196.750 C 196.850 13.650 196.750 13.550 196.750 13.650 V 16.450 C 196.750 16.550 196.850 16.450 196.750 16.450 H 190.950 C 190.850 16.450 190.950 16.550 190.950 16.450 V 13.650 C 190.950 13.550 190.850 13.650 190.950 13.650 H 193.850 Z" stroke="rgb(0,0,255)" stroke-width="0.20" />
  <path d="M 181.850 13.650 H 184.750 C 184.850 13.650 184.750 13.550 184.750 13.650 V 16.450 C 184.750 16.550 184.850 16.450 184.750 16.450 H 178.950 C 178.850 16.450 178.950 16.550 178.950 16.450 V 13.650 C 178.950 13.550 178.850 13.650 178.950 13.650 H 181.850 Z" stroke="rgb(0,0,255)" stroke-width="0.20" />
  <path d="M 169.850 13.650 H 172.750 C 172.850 13.650 172.750 13.550 172.750 13.650 V 16.450 C 172.750 16.550 172.850 16.450 172.750 16.450 H 166.950 C 166.850 16.450 166.950 16.550 166.950 16.450 V 13.650 C 166.950 13.550 166.850 13.650 166.950 13.650 H 169.850 Z" stroke="rgb(0,0,255)" stroke-width="0.20" />
  <path d="M 157.850 13.650 H 160.750 C 160.850 13.650 160.750 13.550 160.750 13.650 V 16.450 C 160.750 16.550 160.850 16.450 160.750 16.450 H 154.950 C 154.850 16.450 154.950 16.550 154.950 16.450 V 13.650 C 154.950 13.550 154.850 13.650 154.950 13.650 H 157.850 Z" stroke="rgb(0,0,255)" stroke-width="0.20" />
  <path d="M 145.850 13.650 H 148.750 C 148.850 13.650 148.750 13.550 148.750 13.650 V 16.450 C 148.750 16.550 148.850 16.450 148.750 16.450 H 142.950 C 142.850 16.450 142.950 16.550 142.950 16.450 V 13.650 C 142.950 13.550 142.850 13.650 142.950 13.650 H 145.850 Z" stroke="rgb(0,0,255)" stroke-width="0.20" />
  <path d="M 133.850 13.650 H 136.750 C 136.850 13.650 136.750 13.550 136.750 13.650 V 16.450 C 136.750 16.550 136.850 16.450 136.750 16.450 H 130.950 C 130.850 16.450 130.950 16.550 130.950 16.450 V 13.650 C 130.950 13.550 130.850 13.650 130.950 13.650 H 133.850 Z" stroke="rgb(0,0,255)" stroke-width="0.20" />
  <path d="M 121.850 13.650 H 124.750 C 124.850 13.650 124.750 13.550 124.750 13.650 V 16.450 C 124.750 16.550 124.850 16.450 124.750 16.450 H 118.950 C 118.850 16.450 118.950 16.550 118.950 16.450 V 13.650 C 118.950 13.550 118.850 13.650 118.950 13.650 H 121.850 Z" stroke="rgb(0,0,255)" stroke-width="0.20" />
  <path d="M 109.850 13.650 H 112.750 C 112.850 13.650 112.750 13.550 112.750 13.650 V 16.450 C 112.750 16.550 112.850 16.450 112.750 16.450 H 106.950 C 106.850 16.450 106.950 16.550 106.950 16.450 V 13.650 C 106.950 13.550 106.850 13.650 106.950 13.650 H 109.850 Z" stroke="rgb(0,0,255)" stroke-width="0.20" />
  <path d="M 97.850 13.650 H 100.750 C 100.850 13.650 100.750 13.550 100.750 13.650 V 16.450 C 100.750 16.550 100.850 16.450 100.750 16.450 H 94.950 C 94.850 16.450 94.950 16.550 94.950 16.450 V 13.650 C 94.950 13.550 94.850 13.650 94.950 13.650 H 97.850 Z" stroke="rgb(0,0,255)" stroke-width="0.20" />
  <path d="M 85.850 13.650 H 88.750 C 88.850 13.650 88.750 13.550 88.750 13.650 V 16.450 C 88.750 16.550 88.850 16.450 88.750 16.450 H 82.950 C 82.850 16.450 82.950 16.550 82.950 16.450 V 13.650 C 82.950 13.550 82.850 13.650 82.950 13.650 H 85.850 Z" stroke="rgb(0,0,255)" stroke-width="0.20" />
  <path d="M 73.850 13.650 H 76.750 C 76.850 13.650 76.750 13.550 76.750 13.650 V 16.450 C 76.750 16.550 76.850 16.450 76.750 16.450 H 70.950 C 70.850 16.450 70.950 16.550 70.950 16.450 V 13.650 C 70.950 13.550 70.850 13.650 70.950 13.650 H 73.850 Z" stroke="rgb(0,0,255)" stroke-width="0.20" />
  <path d="M 61.850 13.650 H 64.750 C 64.850 13.650 64.750 13.550 64.750 13.650 V 16.450 C 64.750 16.550 64.850 16.450 64.750 16.450 H 58.950 C 58.850 16.450 58.950 16.550 58.950 16.450 V 13.650 C 58.950 13.550 58.850 13.650 58.950 13.650 H 61.850 Z" stroke="rgb(0,0,255)" stroke-width="0.20" />
  <path d="M 49.850 13.650 H 52.750 C 52.850 13.650 52.750 13.550 52.750 13.650 V 16.450 C 52.750 16.550 52.850 16.450 52.750 16.450 H 46.950 C 46.850 16.450 46.950 16.550 46.950 16.450 V 13.650 C 46.950 13.550 46.850 13.650 46.950 13.650 H 49.850 Z" stroke="rgb(0,0,255)" stroke-width="0.20" />
  <path d="M 37.850 13.650 H 40.750 C 40.850 13.650 40.750 13.550 40.750 13.650 V 16.450 C 40.750 16.550 40.850 16.450 40.750 16.450 H 34.950 C 34.850 16.450 34.950 16.550 34.950 16.450 V 13.650 C 34.950 13.550 34.850 13.650 34.950 13.650 H 37.850 Z" stroke="rgb(0,0,255)" stroke-width="0.20" />
  <path d="M 25.850 13.650 H 28.750 C 28.850 13.650 28.750 13.550 28.750 13.650 V 16.450 C 28.750 16.550 28.850 16.450 28.750 16.450 H 22.950 C 22.850 16.450 22.950 16.550 22.950 16.450 V 13.650 C 22.950 13.550 22.850 13.650 22.950 13.650 H 25.850 Z" stroke="rgb(0,0,255)" stroke-width="0.20" />
  <path d="M 13.950 25.550 V 22.650 C 13.950 22.550 13.850 22.650 13.950 22.650 H 16.750 C 16.850 22.650 16.750 22.550 16.750 22.650 V 28.450 C 16.750 28.550 16.850 28.450 16.750 28.450 H 13.950 C 13.850 28.450 13.950 28.550 13.950 28.450 V 25.550 Z" stroke="rgb(0,0,255)" stroke-width="0.20" />
  <path d="M 13.950 37.550 V 34.650 C 13.950 34.550 13.850 34.650 13.950 34.650 H 16.750 C 16.850 34.650 16.750 34.550 16.750 34.650 V 40.450 C 16.750 40.550 16.850 40.450 16.750 40.450 H 13.950 C 13.850 40.450 13.950 40.550 13.950 40.450 V 37.550 Z" stroke="rgb(0,0,255)" stroke-width="0.20" />
  <path d="M 13.950 49.550 V 46.650 C 13.950 46.550 13.850 46.650 13.950 46.650 H 16.750 C 16.850 46.650 16.750 46.550 16.750 46.650 V 52.450 C 16.750 52.550 16.850 52.450 16.750 52.450 H 13.950 C 13.850 52.450 13.950 52.550 13.950 52.450 V 49.550 Z" stroke="rgb(0,0,255)" stroke-width="0.20" />
  <path d="M 13.950 61.550 V 58.650 C 13.950 58.550 13.850 58.650 13.950 58.650 H 16.750 C 16.850 58.650 16.750 58.550 16.750 58.650 V 64.450 C 16.750 64.550 16.850 64.450 16.750 64.450 H 13.950 C 13.850 64.450 13.950 64.550 13.950 64.450 V 61.550 Z" stroke="rgb(0,0,255)" stroke-width="0.20" />
  <path d="M 13.950 73.550 V 70.650 C 13.950 70.550 13.850 70.650 13.950 70.650 H 16.750 C 16.850 70.650 16.750 70.550 16.750 70.650 V 76.450 C 16.750 76.550 16.850 76.450 16.750 76.450 H 13.950 C 13.850 76.450 13.950 76.550 13.950 76.450 V 73.550 Z" stroke="rgb(0,0,255)" stroke-width="0.20" />
  <path d="M 13.950 85.550 V 82.650 C 13.950 82.550 13.850 82.650 13.950 82.650 H 16.750 C 16.850 82.650 16.750 82.550 16.750 82.650 V 88.450 C 16.750 88.550 16.850 88.450 16.750 88.450 H 13.950 C 13.850 88.450 13.950 88.550 13.950 88.450 V 85.550 Z" stroke="rgb(0,0,255)" stroke-width="0.20" />
  <path d="M 13.950 97.550 V 94.650 C 13.950 94.550 13.850 94.650 13.950 94.650 H 16.750 C 16.850 94.650 16.750 94.550 16.750 94.650 V 100.450 C 16.750 100.550 16.850 100.450 16.750 100.450 H 13.950 C 13.850 100.450 13.950 100.550 13.950 100.450 V 97.550 Z" stroke="rgb(0,0,255)" stroke-width="0.20" />
  <path d="M 13.950 109.550 V 106.650 C 13.950 106.550 13.850 106.650 13.950 106.650 H 16.750 C 16.850 106.650 16.750 106.550 16.750 106.650 V 112.450 C 16.750 112.550 16.850 112.450 16.750 112.450 H 13.950 C 13.850 112.450 13.950 112.550 13.950 112.450 V 109.550 Z" stroke="rgb(0,0,255)" stroke-width="0.20" />
  <path d="M 13.950 121.550 V 118.650 C 13.950 118.550 13.850 118.650 13.950 118.650 H 16.750 C 16.850 118.650 16.750 118.550 16.750 118.650 V 124.450 C 16.750 124.550 16.850 124.450 16.750 124.450 H 13.950 C 13.850 124.450 13.950 124.550 13.950 124.450 V 121.550 Z" stroke="rgb(0,0,255)" stroke-width="0.20" />
  <path d="M 13.950 133.550 V 130.650 C 13.950 130.550 13.850 130.650 13.950 130.650 H 16.750 C 16.850 130.650 16.750 130.550 16.750 130.650 V 136.450 C 16.750 136.550 16.850 136.450 16.750 136.450 H 13.950 C 13.850 136.450 13.950 136.550 13.950 136.450 V 133.550 Z" stroke="rgb(0,0,255)" stroke-width="0.20" />
  <path d="M 13.950 145.550 V 142.650 C 13.950 142.550 13.850 142.650 13.950 142.650 H 16.750 C 16.850 142.650 16.750 142.550 16.750 142.650 V 148.450 C 16.750 148.550 16.850 148.450 16.750 148.450 H 13.950 C 13.850 148.450 13.950 148.550 13.950 148.450 V 145.550 Z" stroke="rgb(0,0,255)" stroke-width="0.20" />
  <path d="M 13.950 157.550 V 154.650 C 13.950 154.550 13.850 154.650 13.950 154.650 H 16.750 C 16.850 154.650 16.750 154.550 16.750 154.650 V 160.450 C 16.750 160.550 16.850 160.450 16.750 160.450 H 13.950 C 13.850 160.450 13.950 160.550 13.950 160.450 V 157.550 Z" stroke="rgb(0,0,255)" stroke-width="0.20" />
  <path d="M 13.950 169.550 V 166.650 C 13.950 166.550 13.850 166.650 13.950 166.650 H 16.750 C 16.850 166.650 16.750 166.550 16.750 166.650 V 172.450 C 16.750 172.550 16.850 172.450 16.750 172.450 H 13.950 C 13.850 172.450 13.950 172.550 13.950 172.450 V 169.550 Z" stroke="rgb(0,0,255)" stroke-width="0.20" />
  <path d="M 13.950 181.550 V 178.650 C 13.950 178.550 13.850 178.650 13.950 178.650 H 16.750 C 16.850 178.650 16.750 178.550 16.750 178.650 V 184.450 C 16.750 184.550 16.850 184.450 16.750 184.450 H 13.950 C 13.850 184.450 13.950 184.550 13.950 184.450 V 181.550 Z" stroke="rgb(0,0,255)" stroke-width="0.20" />
  <path d="M 13.950 193.550 V 190.650 C 13.950 190.550 13.850 190.650 13.950 190.650 H 16.750 C 16.850 190.650 16.750 190.550 16.750 190.650 V 196.450 C 16.750 196.550 16.850 196.450 16.750 196.450 H 13.950 C 13.850 196.450 13.950 196.550 13.950 196.450 V 193.550 Z" stroke="rgb(0,0,255)" stroke-width="0.20" />
  <path d="M 13.950 205.550 V 202.650 C 13.950 202.550 13.850 202.650 13.950 202.650 H 16.750 C 16.850 202.650 16.750 202.550 16.750 202.650 V 208.450 C 16.750 208.550 16.850 208.450 16.750 208.450 H 13.950 C 13.850 208.450 13.950 208.550 13.950 208.450 V 205.550 Z" stroke="rgb(0,0,255)" stroke-width="0.20" />
  <path d="M 13.950 217.550 V 214.650 C 13.950 214.550 13.850 214.650 13.950 214.650 H 16.750 C 16.850 214.650 16.750 214.550 16.750 214.650 V 220.450 C 16.750 220.550 16.850 220.450 16.750 220.450 H 13.950 C 13.850 220.450 13.950 220.550 13.950 220.450 V 217.550 Z" stroke="rgb(0,0,255)" stroke-width="0.20" />
</g>
<g id="p-10" style="fill:none;stroke-linecap:round;stroke-linejoin:round;">
  <path d="M 238.000 233.100 H 247.450 C 247.505 233.100 247.550 233.055 247.550 233.000 V 230.100 C 247.550 230.000 247.450 230.100 247.550 230.100 H 253.350 C 253.450 230.100 253.350 230.000 253.350 230.100 V 233.000 C 253.350 233.055 253.395 233.100 253.450 233.100 H 259.450 C 259.505 233.100 259.550 233.055 259.550 233.000 V 230.100 C 259.550 230.000 259.450 230.100 259.550 230.100 H 265.350 C 265.450 230.100 265.350 230.000 265.350 230.100 V 233.000 C 265.350 233.055 265.395 233.100 265.450 233.100 H 271.450 C 271.505 233.100 271.550 233.055 271.550 233.000 V 230.100 C 271.550 230.000 271.450 230.100 271.550 230.100 H 277.350 C 277.450 230.100 277.350 230.000 277.350 230.100 V 233.000 C 277.350 233.055 277.395 233.100 277.450 233.100 H 283.450 C 283.505 233.100 283.550 233.055 283.550 233.000 V 230.100 C 283.550 230.000 283.450 230.100 283.550 230.100 H 289.350 C 289.450 230.100 289.350 230.000 289.350 230.100 V 233.000 C 289.350 233.055 289.395 233.100 289.450 233.100 H 295.450 C 295.505 233.100 295.550 233.055 295.550 233.000 V 230.100 C 295.550 230.000 295.450 230.100 295.550 230.100 H 301.350 C 301.450 230.100 301.350 230.000 301.350 230.100 V 233.000 C 301.350 233.055 301.395 233.100 301.450 233.100 H 307.450 C 307.505 233.100 307.550 233.055 307.550 233.000 V 230.100 C 307.550 230.000 307.450 230.100 307.550 230.100 H 313.350 C 313.450 230.100 313.350 230.000 313.350 230.100 V 233.000 C 313.350 233.055 313.395 233.100 313.450 233.100 H 319.450 C 319.505 233.100 319.550 233.055 319.550 233.000 V 230.100 C 319.550 230.000 319.450 230.100 319.550 230.100 H 325.350 C 325.450 230.100 325.350 230.000 325.350 230.100 V 233.000 C 325.350 233.055 325.395 233.100 325.450 233.100 H 331.450 C 331.505 233.100 331.550 233.055 331.550 233.000 V 230.100 C 331.550 230.000 331.450 230.100 331.550 230.100 H 337.350 C 337.450 230.100 337.350 230.000 337.350 230.100 V 233.000 C 337.350 233.055 337.395 233.100 337.450 233.100 H 343.450 C 343.505 233.100 343.550 233.055 343.550 233.000 V 230.100 C 343.550 230.000 343.450 230.100 343.550 230.100 H 349.350 C 349.450 230.100 349.350 230.000 349.350 230.100 V 233.000 C 349.350 233.055 349.395 233.100 349.450 233.100 H 355.450 C 355.505 233.100 355.550 233.055 355.550 233.000 V 230.100 C 355.550 230.000 355.450 230.100 355.550 230.100 H 361.350 C 361.450 230.100 361.350 230.000 361.350 230.100 V 233.000 C 361.350 233.055 361.395 233.100 361.450 233.100 H 367.450 C 367.505 233.100 367.550 233.055 367.550 233.000 V 230.100 C 367.550 230.000 367.450 230.100 367.550 230.100 H 373.350 C 373.450 230.100 373.350 230.000 373.350 230.100 V 233.000 C 373.350 233.055 373.395 233.100 373.450 233.100 H 379.450 C 379.505 233.100 379.550 233.055 379.550 233.000 V 230.100 C 379.550 230.000 379.450 230.100 379.550 230.100 H 385.350 C 385.450 230.100 385.350 230.000 385.350 230.100 V 233.000 C 385.350 233.055 385.395 233.100 385.450 233.100 H 391.450 C 391.505 233.100 391.550 233.055 391.550 233.000 V 230.100 C 391.550 230.000 391.450 230.100 391.550 230.100 H 397.350 C 397.450 230.100 397.350 230.000 397.350 230.100 V 233.000 C 397.350 233.055 397.395 233.100 397.450 233.100 H 403.450 C 403.505 233.100 403.550 233.055 403.550 233.000 V 230.100 C 403.550 230.000 403.450 230.100 403.550 230.100 H 409.350 C 409.450 230.100 409.350 230.000 409.350 230.100 V 233.000 C 409.350 233.055 409.395 233.100 409.450 233.100 H 415.450 C 415.505 233.100 415.550 233.055 415.550 233.000 V 230.100 C 415.550 230.000 415.450 230.100 415.550 230.100 H 421.350 C 421.450 230.100 421.350 230.000 421.350 230.100 V 233.000 C 421.350 233.055 421.395 233.100 421.450 233.100 H 427.450 C 427.505 233.100 427.550 233.055 427.550 233.000 V 230.100 C 427.550 230.000 427.450 230.100 427.550 230.100 H 433.350 C 433.450 230.100 433.350 230.000 433.350 230.100 V 233.000 C 433.350 233.055 433.395 233.100 433.450 233.100 H 439.450 C 439.505 233.100 439.550 233.055 439.550 233.000 V 230.100 C 439.550 230.000 439.450 230.100 439.550 230.100 H 445.350 C 445.450 230.100 445.350 230.000 445.350 230.100 V 233.000 C 445.350 233.055 445.395 233.100 445.450 233.100 H 454.900 H 457.900 C 457.955 233.100 458.000 233.055 458.000 233.000 V 230.000 V 220.550 C 458.000 220.495 457.955 220.450 457.900 220.450 H 455.000 C 454.900 220.450 455.000 220.550 455.000 220.450 V 214.650 C 455.000 214.550 454.900 214.650 455.000 214.650 H 457.900 C 457.955 214.650 458.000 214.605 458.000 214.550 V 208.550 C 458.000 208.495 457.955 208.450 457.900 208.450 H 455.000 C 454.900 208.450 455.000 208.550 455.000 208.450 V 202.650 C 455.000 202.550 454.900 202.650 455.000 202.650 H 457.900 C 457.955 202.650 458.000 202.605 458.000 202.550 V 196.550 C 458.000 196.495 457.955 196.450 457.900 196.450 H 455.000 C 454.900 196.450 455.000 196.550 455.000 196.450 V 190.650 C 455.000 190.550 454.900 190.650 455.000 190.650 H 457.900 C 457.955 190.650 458.000 190.605 458.000 190.550 V 184.550 C 458.000 184.495 457.955 184.450 457.900 184.450 H 455.000 C 454.900 184.450 455.000 184.550 455.000 184.450 V 178.650 C 455.000 178.550 454.900 178.650 455.000 178.650 H 457.900 C 457.955 178.650 458.000 178.605 458.000 178.550 V 172.550 C 458.000 172.495 457.955 172.450 457.900 172.450 H 455.000 C 454.900 172.450 455.000 172.550 455.000 172.450 V 166.650 C 455.000 166.550 454.900 166.650 455.000 166.650 H 457.900 C 457.955 166.650 458.000 166.605 458.000 166.550 V 160.550 C 458.000 160.495 457.955 160.450 457.900 160.450 H 455.000 C 454.900 160.450 455.000 160.550 455.000 160.450 V 154.650 C 455.000 154.550 454.900 154.650 455.000 154.650 H 457.900 C 457.955 154.650 458.000 154.605 458.000 154.550 V 148.550 C 458.000 148.495 457.955 148.450 457.900 148.450 H 455.000 C 454.900 148.450 455.000 148.550 455.000 148.450 V 142.650 C 455.000 142.550 454.900 142.650 455.000 142.650 H 457.900 C 457.955 142.650 458.000 142.605 458.000 142.550 V 136.550 C 458.000 136.495 457.955 136.450 457.900 136.450 H 455.000 C 454.900 136.450 455.000 136.550 455.000 136.450 V 130.650 C 455.000 130.550 454.900 130.650 455.000 130.650 H 457.900 C 457.955 130.650 458.000 130.605 458.000 130.550 V 124.550 C 458.000 124.495 457.955 124.450 457.900 124.450 H 455.000 C 454.900 124.450 455.000 124.550 455.000 124.450 V 118.650 C 455.000 118.550 454.900 118.650 455.000 118.650 H 457.900 C 457.955 118.650 458.000 118.605 458.000 118.550 V 112.550 C 458.000 112.495 457.955 112.450 457.900 112.450 H 455.000 C 454.900 112.450 455.000 112.550 455.000 112.450 V 106.650 C 455.000 106.550 454.900 106.650 455.000 106.650 H 457.900 C 457.955 106.650 458.000 106.605 458.000 106.550 V 100.550 C 458.000 100.495 457.955 100.450 457.900 100.450 H 455.000 C 454.900 100.450 455.000 100.550 455.000 100.450 V 94.650 C 455.000 94.550 454.900 94.650 455.000 94.650 H 457.900 C 457.955 94.650 458.000 94.605 458.000 94.550 V 88.550 C 458.000 88.495 457.955 88.450 457.900 88.450 H 455.000 C 454.900 88.450 455.000 88.550 455.000 88.450 V 82.650 C 455.000 82.550 454.900 82.650 455.000 82.650 H 457.900 C 457.955 82.650 458.000 82.605 458.000 82.550 V 76.550 C 458.000 76.495 457.955 76.450 457.900 76.450 H 455.000 C 454.900 76.450 455.000 76.550 455.000 76.450 V 70.650 C 455.000 70.550 454.900 70.650 455.000 70.650 H 457.900 C 457.955 70.650 458.000 70.605 458.000 70.550 V 64.550 C 458.000 64.495 457.955 64.450 457.900 64.450 H 455.000 C 454.900 64.450 455.000 64.550 455.000 64.450 V 58.650 C 455.000 58.550 454.900 58.650 455.000 58.650 H 457.900 C 457.955 58.650 458.000 58.605 458.000 58.550 V 52.550 C 458.000 52.495 457.955 52.450 457.900 52.450 H 455.000 C 454.900 52.450 455.000 52.550 455.000 52.450 V 46.650 C 455.000 46.550 454.900 46.650 455.000 46.650 H 457.900 C 457.955 46.650 458.000 46.605 458.000 46.550 V 40.550 C 458.000 40.495 457.955 40.450 457.900 40.450 H 455.000 C 454.900 40.450 455.000 40.550 455.000 40.450 V 34.650 C 455.000 34.550 454.900 34.650 455.000 34.650 H 457.900 C 457.955 34.650 458.000 34.605 458.000 34.550 V 28.550 C 458.000 28.495 457.955 28.450 457.900 28.450 H 455.000 C 454.900 28.450 455.000 28.550 455.000 28.450 V 22.650 C 455.000 22.550 454.900 22.650 455.000 22.650 H 457.900 C 457.955 22.650 458.000 22.605 458.000 22.550 V 13.100 V 10.100 C 458.000 10.045 457.955 10.000 457.900 10.000 H 454.900 H 445.450 C 445.395 10.000 445.350 10.045 445.350 10.100 V 13.000 C 445.350 13.100 445.450 13.000 445.350 13.000 H 439.550 C 439.450 13.000 439.550 13.100 439.550 13.000 V 10.100 C 439.550 10.045 439.505 10.000 439.450 10.000 H 433.450 C 433.395 10.000 433.350 10.045 433.350 10.100 V 13.000 C 433.350 13.100 433.450 13.000 433.350 13.000 H 427.550 C 427.450 13.000 427.550 13.100 427.550 13.000 V 10.100 C 427.550 10.045 427.505 10.000 427.450 10.000 H 421.450 C 421.395 10.000 421.350 10.045 421.350 10.100 V 13.000 C 421.350 13.100 421.450 13.000 421.350 13.000 H 415.550 C 415.450 13.000 415.550 13.100 415.550 13.000 V 10.100 C 415.550 10.045 415.505 10.000 415.450 10.000 H 409.450 C 409.395 10.000 409.350 10.045 409.350 10.100 V 13.000 C 409.350 13.100 409.450 13.000 409.350 13.000 H 403.550 C 403.450 13.000 403.550 13.100 403.550 13.000 V 10.100 C 403.550 10.045 403.505 10.000 403.450 10.000 H 397.450 C 397.395 10.000 397.350 10.045 397.350 10.100 V 13.000 C 397.350 13.100 397.450 13.000 397.350 13.000 H 391.550 C 391.450 13.000 391.550 13.100 391.550 13.000 V 10.100 C 391.550 10.045 391.505 10.000 391.450 10.000 H 385.450 C 385.395 10.000 385.350 10.045 385.350 10.100 V 13.000 C 385.350 13.100 385.450 13.000 385.350 13.000 H 379.550 C 379.450 13.000 379.550 13.100 379.550 13.000 V 10.100 C 379.550 10.045 379.505 10.000 379.450 10.000 H 373.450 C 373.395 10.000 373.350 10.045 373.350 10.100 V 13.000 C 373.350 13.100 373.450 13.000 373.350 13.000 H 367.550 C 367.450 13.000 367.550 13.100 367.550 13.000 V 10.100 C 367.550 10.045 367.505 10.000 367.450 10.000 H 361.450 C 361.395 10.000 361.350 10.045 361.350 10.100 V 13.000 C 361.350 13.100 361.450 13.000 361.350 13.000 H 355.550 C 355.450 13.000 355.550 13.100 355.550 13.000 V 10.100 C 355.550 10.045 355.505 10.000 355.450 10.000 H 349.450 C 349.395 10.000 349.350 10.045 349.350 10.100 V 13.000 C 349.350 13.100 349.450 13.000 349.350 13.000 H 343.550 C 343.450 13.000 343.550 13.100 343.550 13.000 V 10.100 C 343.550 10.045 343.505 10.000 343.450 10.000 H 337.450 C 337.395 10.000 337.350 10.045 337.350 10.100 V 13.000 C 337.350 13.100 337.450 13.000 337.350 13.000 H 331.550 C 331.450 13.000 331.550 13.100 331.550 13.000 V 10.100 C 331.550 10.045 331.505 10.000 331.450 10.000 H 325.450 C 325.395 10.000 325.350 10.045 325.350 10.100 V 13.000 C 325.350 13.100 325.450 13.000 325.350 13.000 H 319.550 C 319.450 13.000 319.550 13.100 319.550 13.000 V 10.100 C 319.550 10.045 319.505 10.000 319.450 10.000 H 313.450 C 313.395 10.000 313.350 10.045 313.350 10.100 V 13.000 C 313.350 13.100 313.450 13.000 313.350 13.000 H 307.550 C 307.450 13.000 307.550 13.100 307.550 13.000 V 10.100 C 307.550 10.045 307.505 10.000 307.450 10.000 H 301.450 C 301.395 10.000 301.350 10.045 301.350 10.100 V 13.000 C 301.350 13.100 301.450 13.000 301.350 13.000 H 295.550 C 295.450 13.000 295.550 13.100 295.550 13.000 V 10.100 C 295.550 10.045 295.505 10.000 295.450 10.000 H 289.450 C 289.395 10.000 289.350 10.045 289.350 10.100 V 13.000 C 289.350 13.100 289.450 13.000 289.350 13.000 H 283.550 C 283.450 13.000 283.550 13.100 283.550 13.000 V 10.100 C 283.550 10.045 283.505 10.000 283.450 10.000 H 277.450 C 277.395 10.000 277.350 10.045 277.350 10.100 V 13.000 C 277.350 13.100 277.450 13.000 277.350 13.000 H 271.550 C 271.450 13.000 271.550 13.100 271.550 13.000 V 10.100 C 271.550 10.045 271.505 10.000 271.450 10.000 H 265.450 C 265.395 10.000 265.350 10.045 265.350 10.100 V 13.000 C 265.350 13.100 265.450 13.000 265.350 13.000 H 259.550 C 259.450 13.000 259.550 13.100 259.550 13.000 V 10.100 C 259.550 10.045 259.505 10.000 259.450 10.000 H 253.450 C 253.395 10.000 253.350 10.045 253.350 10.100 V 13.000 C 253.350 13.100 253.450 13.000 253.350 13.000 H 247.550 C 247.450 13.000 247.550 13.100 247.550 13.000 V 10.100 C 247.550 10.045 247.505 10.000 247.450 10.000 H 238.000 H 235.000 C 234.945 10.000 234.900 10.045 234.900 10.100 V 13.100 V 22.550 C 234.900 22.605 234.945 22.650 235.000 22.650 H 237.900 C 238.000 22.650 237.900 22.550 237.900 22.650 V 28.450 C 237.900 28.550 238.000 28.450 237.900 28.450 H 235.000 C 234.945 28.450 234.900 28.495 234.900 28.550 V 34.550 C 234.900 34.605 234.945 34.650 235.000 34.650 H 237.900 C 238.000 34.650 237.900 34.550 237.900 34.650 V 40.450 C 237.900 40.550 238.000 40.450 237.900 40.450 H 235.000 C 234.945 40.450 234.900 40.495 234.900 40.550 V 46.550 C 234.900 46.605 234.945 46.650 235.000 46.650 H 237.900 C 238.000 46.650 237.900 46.550 237.900 46.650 V 52.450 C 237.900 52.550 238.000 52.450 237.900 52.450 H 235.000 C 234.945 52.450 234.900 52.495 234.900 52.550 V 58.550 C 234.900 58.605 234.945 58.650 235.000 58.650 H 237.900 C 238.000 58.650 237.900 58.550 237.900 58.650 V 64.450 C 237.900 64.550 238.000 64.450 237.900 64.450 H 235.000 C 234.945 64.450 234.900 64.495 234.900 64.550 V 70.550 C 234.900 70.605 234.945 70.650 235.000 70.650 H 237.900 C 238.000 70.650 237.900 70.550 237.900 70.650 V 76.450 C 237.900 76.550 238.000 76.450 237.900 76.450 H 235.000 C 234.945 76.450 234.900 76.495 234.900 76.550 V 82.550 C 234.900 82.605 234.945 82.650 235.000 82.650 H 237.900 C 238.000 82.650 237.900 82.550 237.900 82.650 V 88.450 C 237.900 88.550 238.000 88.450 237.900 88.450 H 235.000 C 234.945 88.450 234.900 88.495 234.900 88.550 V 94.550 C 234.900 94.605 234.945 94.650 235.000 94.650 H 237.900 C 238.000 94.650 237.900 94.550 237.900 94.650 V 100.450 C 237.900 100.550 238.000 100.450 237.900 100.450 H 235.000 C 234.945 100.450 234.900 100.495 234.900 100.550 V 106.550 C 234.900 106.605 234.945 106.650 235.000 106.650 H 237.900 C 238.000 106.650 237.900 106.550 237.900 106.650 V 112.450 C 237.900 112.550 238.000 112.450 237.900 112.450 H 235.000 C 234.945 112.450 234.900 112.495 234.900 112.550 V 118.550 C 234.900 118.605 234.945 118.650 235.000 118.650 H 237.900 C 238.000 118.650 237.900 118.550 237.900 118.650 V 124.450 C 237.900 124.550 238.000 124.450 237.900 124.450 H 235.000 C 234.945 124.450 234.900 124.495 234.900 124.550 V 130.550 C 234.900 130.605 234.945 130.650 235.000 130.650 H 237.900 C 238.000 130.650 237.900 130.550 237.900 130.650 V 136.450 C 237.900 136.550 238.000 136.450 237.900 136.450 H 235.000 C 234.945 136.450 234.900 136.495 234.900 136.550 V 142.550 C 234.900 142.605 234.945 142.650 235.000 142.650 H 237.900 C 238.000 142.650 237.900 142.550 237.900 142.650 V 148.450 C 237.900 148.550 238.000 148.450 237.900 148.450 H 235.000 C 234.945 148.450 234.900 148.495 234.900 148.550 V 154.550 C 234.900 154.605 234.945 154.650 235.000 154.650 H 237.900 C 238.000 154.650 237.900 154.550 237.900 154.650 V 160.450 C 237.900 160.550 238.000 160.450 237.900 160.450 H 235.000 C 234.945 160.450 234.900 160.495 234.900 160.550 V 166.550 C 234.900 166.605 234.945 166.650 235.000 166.650 H 237.900 C 238.000 166.650 237.900 166.550 237.900 166.650 V 172.450 C 237.900 172.550 238.000 172.450 237.900 172.450 H 235.000 C 234.945 172.450 234.900 172.495 234.900 172.550 V 178.550 C 234.900 178.605 234.945 178.650 235.000 178.650 H 237.900 C 238.000 178.650 237.900 178.550 237.900 178.650 V 184.450 C 237.900 184.550 238.000 184.450 237.900 184.450 H 235.000 C 234.945 184.450 234.900 184.495 234.900 184.550 V 190.550 C 234.900 190.605 234.945 190.650 235.000 190.650 H 237.900 C 238.000 190.650 237.900 190.550 237.900 190.650 V 196.450 C 237.900 196.550 238.000 196.450 237.900 196.450 H 235.000 C 234.945 196.450 234.900 196.495 234.900 196.550 V 202.550 C 234.900 202.605 234.945 202.650 235.000 202.650 H 237.900 C 238.000 202.650 237.900 202.550 237.900 202.650 V 208.450 C 237.900 208.550 238.000 208.450 237.900 208.450 H 235.000 C 234.945 208.450 234.900 208.495 234.900 208.550 V 214.550 C 234.900 214.605 234.945 214.650 235.000 214.650 H 237.900 C 238.000 214.650 237.900 214.550 237.900 214.650 V 220.450 C 237.900 220.550 238.000 220.450 237.900 220.450 H 235.000 C 234.945 220.450 234.900 220.495 234.900 220.550 V 230.000 V 233.000 C 234.900 233.055 234.945 233.100 235.000 233.100 H 238.000 Z" stroke="rgb(0,0,0)" stroke-width="0.20" />
</g>
</svg>