<?xml version='1.0' encoding='us-ascii'?>
<svg width="583.20mm" height="351.20mm" viewBox="0.0 0.0 583.20 351.20" xmlns="http://www.w3.org/2000/svg" xmlns:dc="http://purl.org/dc/elements/1.1/" xmlns:cc="http://creativecommons.org/ns#" xmlns:rdf="http://www.w3.org/1999/02/22-rdf-syntax-ns#" xmlns:svg="http://www.w3.org/2000/svg" xmlns:xlink="http://www.w3.org/1999/xlink" xmlns:inkscape="http://www.inkscape.org/namespaces/inkscape">
<!--
TwoPiece - A two piece box where top slips over the bottom half to form 
       the enclosure.
    



Set *hi* larger than *h* to leave gap between the inner and outer shell. This can be used to make opening the box easier. Set *hi* smaller to only have a small inner ridge that will allow the content to be momre visible after opening.

![Bottom view](static/samples/TwoPiece2.jpg)



Created with Boxes.py (https://festi.info/boxes.py)
Creation date: 2022-10-13 17:57:27
Command line (remove spaces between dashes): boxes TwoPiece - -FingerJoint_angle=90.0 - -FingerJoint_style=rectangular - -FingerJoint_surroundingspaces=2.0 - -FingerJoint_edge_width=1.0 - -FingerJoint_extra_length=0.0 - -FingerJoint_finger=2.0 - -FingerJoint_play=0.0 - -FingerJoint_space=2.0 - -FingerJoint_width=1.0 - -x=156 - -y=97 - -h=125 - -hi=75 - -outside=0 - -play=0.15 - -thickness=3.0 - -format=svg - -tabs=0.0 - -debug=0 - -labels=0 - -labels=1 - -reference=100 - -inner_corners=loop - -burn=0.1
Url: http://www.festi.info/TwoPiece?FingerJoint_angle=90.0&FingerJoint_style=rectangular&FingerJoint_surroundingspaces=2.0&FingerJoint_edge_width=1.0&FingerJoint_extra_length=0.0&FingerJoint_finger=2.0&FingerJoint_play=0.0&FingerJoint_space=2.0&FingerJoint_width=1.0&x=156&y=97&h=125&hi=75&outside=0&play=0.15&thickness=3.0&format=svg&tabs=0.0&debug=0&labels=0&labels=1&reference=100&inner_corners=loop&burn=0.1&render=1
SettingsUrl: http://www.festi.info/TwoPiece?FingerJoint_angle=90.0&FingerJoint_style=rectangular&FingerJoint_surroundingspaces=2.0&FingerJoint_edge_width=1.0&FingerJoint_extra_length=0.0&FingerJoint_finger=2.0&FingerJoint_play=0.0&FingerJoint_space=2.0&FingerJoint_width=1.0&x=156&y=97&h=125&hi=75&outside=0&play=0.15&thickness=3.0&format=svg&tabs=0.0&debug=0&labels=0&labels=1&reference=100&inner_corners=loop&burn=0.1
-->
<title>TwoPiece</title>
<metadata>
<rdf:RDF><cc:Work>
<dc:title>Box - TwoPiece</dc:title>
<dc:date>2022-10-13 17:57:27</dc:date>
<dc:source>http://www.festi.info/TwoPiece?FingerJoint_angle=90.0&amp;FingerJoint_style=rectangular&amp;FingerJoint_surroundingspaces=2.0&amp;FingerJoint_edge_width=1.0&amp;FingerJoint_extra_length=0.0&amp;FingerJoint_finger=2.0&amp;FingerJoint_play=0.0&amp;FingerJoint_space=2.0&amp;FingerJoint_width=1.0&amp;x=156&amp;y=97&amp;h=125&amp;hi=75&amp;outside=0&amp;play=0.15&amp;thickness=3.0&amp;format=svg&amp;tabs=0.0&amp;debug=0&amp;labels=0&amp;labels=1&amp;reference=100&amp;inner_corners=loop&amp;burn=0.1&amp;render=1</dc:source>
<dc:description>A two piece box where top slips over the bottom half to form 
       the enclosure.
    


Set *hi* larger than *h* to leave gap between the inner and outer shell. This can be used to make opening the box easier. Set *hi* smaller to only have a small inner ridge that will allow the content to be momre visible after opening.

![Bottom view](static/samples/TwoPiece2.jpg)


Created with Boxes.py (https://festi.info/boxes.py)
Command line: boxes TwoPiece --FingerJoint_angle=90.0 --FingerJoint_style=rectangular --FingerJoint_surroundingspaces=2.0 --FingerJoint_edge_width=1.0 --FingerJoint_extra_length=0.0 --FingerJoint_finger=2.0 --FingerJoint_play=0.0 --FingerJoint_space=2.0 --FingerJoint_width=1.0 --x=156 --y=97 --h=125 --hi=75 --outside=0 --play=0.15 --thickness=3.0 --format=svg --tabs=0.0 --debug=0 --labels=0 --labels=1 --reference=100 --inner_corners=loop --burn=0.1
Url: http://www.festi.info/TwoPiece?FingerJoint_angle=90.0&amp;FingerJoint_style=rectangular&amp;FingerJoint_surroundingspaces=2.0&amp;FingerJoint_edge_width=1.0&amp;FingerJoint_extra_length=0.0&amp;FingerJoint_finger=2.0&amp;FingerJoint_play=0.0&amp;FingerJoint_space=2.0&amp;FingerJoint_width=1.0&amp;x=156&amp;y=97&amp;h=125&amp;hi=75&amp;outside=0&amp;play=0.15&amp;thickness=3.0&amp;format=svg&amp;tabs=0.0&amp;debug=0&amp;labels=0&amp;labels=1&amp;reference=100&amp;inner_corners=loop&amp;burn=0.1&amp;render=1
SettingsUrl: http://www.festi.info/TwoPiece?FingerJoint_angle=90.0&amp;FingerJoint_style=rectangular&amp;FingerJoint_surroundingspaces=2.0&amp;FingerJoint_edge_width=1.0&amp;FingerJoint_extra_length=0.0&amp;FingerJoint_finger=2.0&amp;FingerJoint_play=0.0&amp;FingerJoint_space=2.0&amp;FingerJoint_width=1.0&amp;x=156&amp;y=97&amp;h=125&amp;hi=75&amp;outside=0&amp;play=0.15&amp;thickness=3.0&amp;format=svg&amp;tabs=0.0&amp;debug=0&amp;labels=0&amp;labels=1&amp;reference=100&amp;inner_corners=loop&amp;burn=0.1
</dc:description>
</cc:Work></rdf:RDF></metadata>
<g id="p-0" style="fill:none;stroke-linecap:round;stroke-linejoin:round;">
  <path d="M 10.400 341.200 H 110.400 V 331.200 H 10.400 V 341.200 Z" stroke="rgb(0,0,0)" stroke-width="0.20" />
  <text transform="matrix( 1.000 0.000 0.000 1.000 60.400 332.200 )" style="font-family: sans-serif ; font-weight: normal; font-style: normal; fill: rgb(255,0,0)" font-size="8px" text-anchor="middle" dominant-baseline="hanging">100mm, burn:0.10mm</text>
</g>
<g id="p-1" style="fill:none;stroke-linecap:round;stroke-linejoin:round;">
  <path d="M 13.400 326.500 H 22.300 C 22.400 326.500 22.300 326.400 22.300 326.500 V 329.400 C 22.300 329.455 22.345 329.500 22.400 329.500 H 28.400 C 28.455 329.500 28.500 329.455 28.500 329.400 V 326.500 C 28.500 326.400 28.400 326.500 28.500 326.500 H 34.300 C 34.400 326.500 34.300 326.400 34.300 326.500 V 329.400 C 34.300 329.455 34.345 329.500 34.400 329.500 H 40.400 C 40.455 329.500 40.500 329.455 40.500 329.400 V 326.500 C 40.500 326.400 40.400 326.500 40.500 326.500 H 46.300 C 46.400 326.500 46.300 326.400 46.300 326.500 V 329.400 C 46.300 329.455 46.345 329.500 46.400 329.500 H 52.400 C 52.455 329.500 52.500 329.455 52.500 329.400 V 326.500 C 52.500 326.400 52.400 326.500 52.500 326.500 H 58.300 C 58.400 326.500 58.300 326.400 58.300 326.500 V 329.400 C 58.300 329.455 58.345 329.500 58.400 329.500 H 64.400 C 64.455 329.500 64.500 329.455 64.500 329.400 V 326.500 C 64.500 326.400 64.400 326.500 64.500 326.500 H 70.300 C 70.400 326.500 70.300 326.400 70.300 326.500 V 329.400 C 70.300 329.455 70.345 329.500 70.400 329.500 H 76.400 C 76.455 329.500 76.500 329.455 76.500 329.400 V 326.500 C 76.500 326.400 76.400 326.500 76.500 326.500 H 82.300 C 82.400 326.500 82.300 326.400 82.300 326.500 V 329.400 C 82.300 329.455 82.345 329.500 82.400 329.500 H 88.400 C 88.455 329.500 88.500 329.455 88.500 329.400 V 326.500 C 88.500 326.400 88.400 326.500 88.500 326.500 H 94.300 C 94.400 326.500 94.300 326.400 94.300 326.500 V 329.400 C 94.300 329.455 94.345 329.500 94.400 329.500 H 100.400 C 100.455 329.500 100.500 329.455 100.500 329.400 V 326.500 C 100.500 326.400 100.400 326.500 100.500 326.500 H 106.300 C 106.400 326.500 106.300 326.400 106.300 326.500 V 329.400 C 106.300 329.455 106.345 329.500 106.400 329.500 H 112.400 C 112.455 329.500 112.500 329.455 112.500 329.400 V 326.500 C 112.500 326.400 112.400 326.500 112.500 326.500 H 118.300 C 118.400 326.500 118.300 326.400 118.300 326.500 V 329.400 C 118.300 329.455 118.345 329.500 118.400 329.500 H 124.400 C 124.455 329.500 124.500 329.455 124.500 329.400 V 326.500 C 124.500 326.400 124.400 326.500 124.500 326.500 H 130.300 C 130.400 326.500 130.300 326.400 130.300 326.500 V 329.400 C 130.300 329.455 130.345 329.500 130.400 329.500 H 136.400 C 136.455 329.500 136.500 329.455 136.500 329.400 V 326.500 C 136.500 326.400 136.400 326.500 136.500 326.500 H 142.300 C 142.400 326.500 142.300 326.400 142.300 326.500 V 329.400 C 142.300 329.455 142.345 329.500 142.400 329.500 H 148.400 C 148.455 329.500 148.500 329.455 148.500 329.400 V 326.500 C 148.500 326.400 148.400 326.500 148.500 326.500 H 154.300 C 154.400 326.500 154.300 326.400 154.300 326.500 V 329.400 C 154.300 329.455 154.345 329.500 154.400 329.500 H 160.400 C 160.455 329.500 160.500 329.455 160.500 329.400 V 326.500 C 160.500 326.400 160.400 326.500 160.500 326.500 H 169.400 H 172.400 C 172.455 326.500 172.500 326.455 172.500 326.400 V 315.900 C 172.500 315.845 172.455 315.800 172.400 315.800 H 169.500 C 169.400 315.800 169.500 315.900 169.500 315.800 V 310.000 C 169.500 309.900 169.400 310.000 169.500 310.000 H 172.400 C 172.455 310.000 172.500 309.955 172.500 309.900 V 303.900 C 172.500 303.845 172.455 303.800 172.400 303.800 H 169.500 C 169.400 303.800 169.500 303.900 169.500 303.800 V 298.000 C 169.500 297.900 169.400 298.000 169.500 298.000 H 172.400 C 172.455 298.000 172.500 297.955 172.500 297.900 V 291.900 C 172.500 291.845 172.455 291.800 172.400 291.800 H 169.500 C 169.400 291.800 169.500 291.900 169.500 291.800 V 286.000 C 169.500 285.900 169.400 286.000 169.500 286.000 H 172.400 C 172.455 286.000 172.500 285.955 172.500 285.900 V 279.900 C 172.500 279.845 172.455 279.800 172.400 279.800 H 169.500 C 169.400 279.800 169.500 279.900 169.500 279.800 V 274.000 C 169.500 273.900 169.400 274.000 169.500 274.000 H 172.400 C 172.455 274.000 172.500 273.955 172.500 273.900 V 267.900 C 172.500 267.845 172.455 267.800 172.400 267.800 H 169.500 C 169.400 267.800 169.500 267.900 169.500 267.800 V 262.000 C 169.500 261.900 169.400 262.000 169.500 262.000 H 172.400 C 172.455 262.000 172.500 261.955 172.500 261.900 V 251.400 C 172.500 251.345 172.455 251.300 172.400 251.300 H 169.400 H 13.400 H 10.400 C 10.345 251.300 10.300 251.345 10.300 251.400 V 261.900 C 10.300 261.955 10.345 262.000 10.400 262.000 H 13.300 C 13.400 262.000 13.300 261.900 13.300 262.000 V 267.800 C 13.300 267.900 13.400 267.800 13.300 267.800 H 10.400 C 10.345 267.800 10.300 267.845 10.300 267.900 V 273.900 C 10.300 273.955 10.345 274.000 10.400 274.000 H 13.300 C 13.400 274.000 13.300 273.900 13.300 274.000 V 279.800 C 13.300 279.900 13.400 279.800 13.300 279.800 H 10.400 C 10.345 279.800 10.300 279.845 10.300 279.900 V 285.900 C 10.300 285.955 10.345 286.000 10.400 286.000 H 13.300 C 13.400 286.000 13.300 285.900 13.300 286.000 V 291.800 C 13.300 291.900 13.400 291.800 13.300 291.800 H 10.400 C 10.345 291.800 10.300 291.845 10.300 291.900 V 297.900 C 10.300 297.955 10.345 298.000 10.400 298.000 H 13.300 C 13.400 298.000 13.300 297.900 13.300 298.000 V 303.800 C 13.300 303.900 13.400 303.800 13.300 303.800 H 10.400 C 10.345 303.800 10.300 303.845 10.300 303.900 V 309.900 C 10.300 309.955 10.345 310.000 10.400 310.000 H 13.300 C 13.400 310.000 13.300 309.900 13.300 310.000 V 315.800 C 13.300 315.900 13.400 315.800 13.300 315.800 H 10.400 C 10.345 315.800 10.300 315.845 10.300 315.900 V 326.400 C 10.300 326.455 10.345 326.500 10.400 326.500 H 13.400 Z" stroke="rgb(0,0,0)" stroke-width="0.20" />
</g>
<g id="p-2" style="fill:none;stroke-linecap:round;stroke-linejoin:round;">
  <path d="M 177.100 326.500 H 186.500 C 186.600 326.500 186.500 326.400 186.500 326.500 V 329.400 C 186.500 329.455 186.545 329.500 186.600 329.500 H 192.600 C 192.655 329.500 192.700 329.455 192.700 329.400 V 326.500 C 192.700 326.400 192.600 326.500 192.700 326.500 H 198.500 C 198.600 326.500 198.500 326.400 198.500 326.500 V 329.400 C 198.500 329.455 198.545 329.500 198.600 329.500 H 204.600 C 204.655 329.500 204.700 329.455 204.700 329.400 V 326.500 C 204.700 326.400 204.600 326.500 204.700 326.500 H 210.500 C 210.600 326.500 210.500 326.400 210.500 326.500 V 329.400 C 210.500 329.455 210.545 329.500 210.600 329.500 H 216.600 C 216.655 329.500 216.700 329.455 216.700 329.400 V 326.500 C 216.700 326.400 216.600 326.500 216.700 326.500 H 222.500 C 222.600 326.500 222.500 326.400 222.500 326.500 V 329.400 C 222.500 329.455 222.545 329.500 222.600 329.500 H 228.600 C 228.655 329.500 228.700 329.455 228.700 329.400 V 326.500 C 228.700 326.400 228.600 326.500 228.700 326.500 H 234.500 C 234.600 326.500 234.500 326.400 234.500 326.500 V 329.400 C 234.500 329.455 234.545 329.500 234.600 329.500 H 240.600 C 240.655 329.500 240.700 329.455 240.700 329.400 V 326.500 C 240.700 326.400 240.600 326.500 240.700 326.500 H 246.500 C 246.600 326.500 246.500 326.400 246.500 326.500 V 329.400 C 246.500 329.455 246.545 329.500 246.600 329.500 H 252.600 C 252.655 329.500 252.700 329.455 252.700 329.400 V 326.500 C 252.700 326.400 252.600 326.500 252.700 326.500 H 258.500 C 258.600 326.500 258.500 326.400 258.500 326.500 V 329.400 C 258.500 329.455 258.545 329.500 258.600 329.500 H 264.600 C 264.655 329.500 264.700 329.455 264.700 329.400 V 326.500 C 264.700 326.400 264.600 326.500 264.700 326.500 H 274.100 C 274.155 326.500 274.200 326.455 274.200 326.400 V 316.000 C 274.200 315.900 274.100 316.000 274.200 316.000 H 277.100 C 277.155 316.000 277.200 315.955 277.200 315.900 V 309.900 C 277.200 309.845 277.155 309.800 277.100 309.800 H 274.200 C 274.100 309.800 274.200 309.900 274.200 309.800 V 304.000 C 274.200 303.900 274.100 304.000 274.200 304.000 H 277.100 C 277.155 304.000 277.200 303.955 277.200 303.900 V 297.900 C 277.200 297.845 277.155 297.800 277.100 297.800 H 274.200 C 274.100 297.800 274.200 297.900 274.200 297.800 V 292.000 C 274.200 291.900 274.100 292.000 274.200 292.000 H 277.100 C 277.155 292.000 277.200 291.955 277.200 291.900 V 285.900 C 277.200 285.845 277.155 285.800 277.100 285.800 H 274.200 C 274.100 285.800 274.200 285.900 274.200 285.800 V 280.000 C 274.200 279.900 274.100 280.000 274.200 280.000 H 277.100 C 277.155 280.000 277.200 279.955 277.200 279.900 V 273.900 C 277.200 273.845 277.155 273.800 277.100 273.800 H 274.200 C 274.100 273.800 274.200 273.900 274.200 273.800 V 268.000 C 274.200 267.900 274.100 268.000 274.200 268.000 H 277.100 C 277.155 268.000 277.200 267.955 277.200 267.900 V 261.900 C 277.200 261.845 277.155 261.800 277.100 261.800 H 274.200 C 274.100 261.800 274.200 261.900 274.200 261.800 V 251.400 C 274.200 251.345 274.155 251.300 274.100 251.300 H 177.100 C 177.045 251.300 177.000 251.345 177.000 251.400 V 261.800 C 177.000 261.900 177.100 261.800 177.000 261.800 H 174.100 C 174.045 261.800 174.000 261.845 174.000 261.900 V 267.900 C 174.000 267.955 174.045 268.000 174.100 268.000 H 177.000 C 177.100 268.000 177.000 267.900 177.000 268.000 V 273.800 C 177.000 273.900 177.100 273.800 177.000 273.800 H 174.100 C 174.045 273.800 174.000 273.845 174.000 273.900 V 279.900 C 174.000 279.955 174.045 280.000 174.100 280.000 H 177.000 C 177.100 280.000 177.000 279.900 177.000 280.000 V 285.800 C 177.000 285.900 177.100 285.800 177.000 285.800 H 174.100 C 174.045 285.800 174.000 285.845 174.000 285.900 V 291.900 C 174.000 291.955 174.045 292.000 174.100 292.000 H 177.000 C 177.100 292.000 177.000 291.900 177.000 292.000 V 297.800 C 177.000 297.900 177.100 297.800 177.000 297.800 H 174.100 C 174.045 297.800 174.000 297.845 174.000 297.900 V 303.900 C 174.000 303.955 174.045 304.000 174.100 304.000 H 177.000 C 177.100 304.000 177.000 303.900 177.000 304.000 V 309.800 C 177.000 309.900 177.100 309.800 177.000 309.800 H 174.100 C 174.045 309.800 174.000 309.845 174.000 309.900 V 315.900 C 174.000 315.955 174.045 316.000 174.100 316.000 H 177.000 C 177.100 316.000 177.000 315.900 177.000 316.000 V 326.400 C 177.000 326.455 177.045 326.500 177.100 326.500 Z" stroke="rgb(0,0,0)" stroke-width="0.20" />
</g>
<g id="p-3" style="fill:none;stroke-linecap:round;stroke-linejoin:round;">
  <path d="M 281.800 326.500 H 290.700 C 290.800 326.500 290.700 326.400 290.700 326.500 V 329.400 C 290.700 329.455 290.745 329.500 290.800 329.500 H 296.800 C 296.855 329.500 296.900 329.455 296.900 329.400 V 326.500 C 296.900 326.400 296.800 326.500 296.900 326.500 H 302.700 C 302.800 326.500 302.700 326.400 302.700 326.500 V 329.400 C 302.700 329.455 302.745 329.500 302.800 329.500 H 308.800 C 308.855 329.500 308.900 329.455 308.900 329.400 V 326.500 C 308.900 326.400 308.800 326.500 308.900 326.500 H 314.700 C 314.800 326.500 314.700 326.400 314.700 326.500 V 329.400 C 314.700 329.455 314.745 329.500 314.800 329.500 H 320.800 C 320.855 329.500 320.900 329.455 320.900 329.400 V 326.500 C 320.900 326.400 320.800 326.500 320.900 326.500 H 326.700 C 326.800 326.500 326.700 326.400 326.700 326.500 V 329.400 C 326.700 329.455 326.745 329.500 326.800 329.500 H 332.800 C 332.855 329.500 332.900 329.455 332.900 329.400 V 326.500 C 332.900 326.400 332.800 326.500 332.900 326.500 H 338.700 C 338.800 326.500 338.700 326.400 338.700 326.500 V 329.400 C 338.700 329.455 338.745 329.500 338.800 329.500 H 344.800 C 344.855 329.500 344.900 329.455 344.900 329.400 V 326.500 C 344.900 326.400 344.800 326.500 344.900 326.500 H 350.700 C 350.800 326.500 350.700 326.400 350.700 326.500 V 329.400 C 350.700 329.455 350.745 329.500 350.800 329.500 H 356.800 C 356.855 329.500 356.900 329.455 356.900 329.400 V 326.500 C 356.900 326.400 356.800 326.500 356.900 326.500 H 362.700 C 362.800 326.500 362.700 326.400 362.700 326.500 V 329.400 C 362.700 329.455 362.745 329.500 362.800 329.500 H 368.800 C 368.855 329.500 368.900 329.455 368.900 329.400 V 326.500 C 368.900 326.400 368.800 326.500 368.900 326.500 H 374.700 C 374.800 326.500 374.700 326.400 374.700 326.500 V 329.400 C 374.700 329.455 374.745 329.500 374.800 329.500 H 380.800 C 380.855 329.500 380.900 329.455 380.900 329.400 V 326.500 C 380.900 326.400 380.800 326.500 380.900 326.500 H 386.700 C 386.800 326.500 386.700 326.400 386.700 326.500 V 329.400 C 386.700 329.455 386.745 329.500 386.800 329.500 H 392.800 C 392.855 329.500 392.900 329.455 392.900 329.400 V 326.500 C 392.900 326.400 392.800 326.500 392.900 326.500 H 398.700 C 398.800 326.500 398.700 326.400 398.700 326.500 V 329.400 C 398.700 329.455 398.745 329.500 398.800 329.500 H 404.800 C 404.855 329.500 404.900 329.455 404.900 329.400 V 326.500 C 404.900 326.400 404.800 326.500 404.900 326.500 H 410.700 C 410.800 326.500 410.700 326.400 410.700 326.500 V 329.400 C 410.700 329.455 410.745 329.500 410.800 329.500 H 416.800 C 416.855 329.500 416.900 329.455 416.900 329.400 V 326.500 C 416.900 326.400 416.800 326.500 416.900 326.500 H 422.700 C 422.800 326.500 422.700 326.400 422.700 326.500 V 329.400 C 422.700 329.455 422.745 329.500 422.800 329.500 H 428.800 C 428.855 329.500 428.900 329.455 428.900 329.400 V 326.500 C 428.900 326.400 428.800 326.500 428.900 326.500 H 437.800 H 440.800 C 440.855 326.500 440.900 326.455 440.900 326.400 V 315.900 C 440.900 315.845 440.855 315.800 440.800 315.800 H 437.900 C 437.800 315.800 437.900 315.900 437.900 315.800 V 310.000 C 437.900 309.900 437.800 310.000 437.900 310.000 H 440.800 C 440.855 310.000 440.900 309.955 440.900 309.900 V 303.900 C 440.900 303.845 440.855 303.800 440.800 303.800 H 437.900 C 437.800 303.800 437.900 303.900 437.900 303.800 V 298.000 C 437.900 297.900 437.800 298.000 437.900 298.000 H 440.800 C 440.855 298.000 440.900 297.955 440.900 297.900 V 291.900 C 440.900 291.845 440.855 291.800 440.800 291.800 H 437.900 C 437.800 291.800 437.900 291.900 437.900 291.800 V 286.000 C 437.900 285.900 437.800 286.000 437.900 286.000 H 440.800 C 440.855 286.000 440.900 285.955 440.900 285.900 V 279.900 C 440.900 279.845 440.855 279.800 440.800 279.800 H 437.900 C 437.800 279.800 437.900 279.900 437.900 279.800 V 274.000 C 437.900 273.900 437.800 274.000 437.900 274.000 H 440.800 C 440.855 274.000 440.900 273.955 440.900 273.900 V 267.900 C 440.900 267.845 440.855 267.800 440.800 267.800 H 437.900 C 437.800 267.800 437.900 267.900 437.900 267.800 V 262.000 C 437.900 261.900 437.800 262.000 437.900 262.000 H 440.800 C 440.855 262.000 440.900 261.955 440.900 261.900 V 251.400 C 440.900 251.345 440.855 251.300 440.800 251.300 H 437.800 H 281.800 H 278.800 C 278.745 251.300 278.700 251.345 278.700 251.400 V 261.900 C 278.700 261.955 278.745 262.000 278.800 262.000 H 281.700 C 281.800 262.000 281.700 261.900 281.700 262.000 V 267.800 C 281.700 267.900 281.800 267.800 281.700 267.800 H 278.800 C 278.745 267.800 278.700 267.845 278.700 267.900 V 273.900 C 278.700 273.955 278.745 274.000 278.800 274.000 H 281.700 C 281.800 274.000 281.700 273.900 281.700 274.000 V 279.800 C 281.700 279.900 281.800 279.800 281.700 279.800 H 278.800 C 278.745 279.800 278.700 279.845 278.700 279.900 V 285.900 C 278.700 285.955 278.745 286.000 278.800 286.000 H 281.700 C 281.800 286.000 281.700 285.900 281.700 286.000 V 291.800 C 281.700 291.900 281.800 291.800 281.700 291.800 H 278.800 C 278.745 291.800 278.700 291.845 278.700 291.900 V 297.900 C 278.700 297.955 278.745 298.000 278.800 298.000 H 281.700 C 281.800 298.000 281.700 297.900 281.700 298.000 V 303.800 C 281.700 303.900 281.800 303.800 281.700 303.800 H 278.800 C 278.745 303.800 278.700 303.845 278.700 303.900 V 309.900 C 278.700 309.955 278.745 310.000 278.800 310.000 H 281.700 C 281.800 310.000 281.700 309.900 281.700 310.000 V 315.800 C 281.700 315.900 281.800 315.800 281.700 315.800 H 278.800 C 278.745 315.800 278.700 315.845 278.700 315.900 V 326.400 C 278.700 326.455 278.745 326.500 278.800 326.500 H 281.800 Z" stroke="rgb(0,0,0)" stroke-width="0.20" />
</g>
<g id="p-4" style="fill:none;stroke-linecap:round;stroke-linejoin:round;">
  <path d="M 445.500 326.500 H 454.900 C 455.000 326.500 454.900 326.400 454.900 326.500 V 329.400 C 454.900 329.455 454.945 329.500 455.000 329.500 H 461.000 C 461.055 329.500 461.100 329.455 461.100 329.400 V 326.500 C 461.100 326.400 461.000 326.500 461.100 326.500 H 466.900 C 467.000 326.500 466.900 326.400 466.900 326.500 V 329.400 C 466.900 329.455 466.945 329.500 467.000 329.500 H 473.000 C 473.055 329.500 473.100 329.455 473.100 329.400 V 326.500 C 473.100 326.400 473.000 326.500 473.100 326.500 H 478.900 C 479.000 326.500 478.900 326.400 478.900 326.500 V 329.400 C 478.900 329.455 478.945 329.500 479.000 329.500 H 485.000 C 485.055 329.500 485.100 329.455 485.100 329.400 V 326.500 C 485.100 326.400 485.000 326.500 485.100 326.500 H 490.900 C 491.000 326.500 490.900 326.400 490.900 326.500 V 329.400 C 490.900 329.455 490.945 329.500 491.000 329.500 H 497.000 C 497.055 329.500 497.100 329.455 497.100 329.400 V 326.500 C 497.100 326.400 497.000 326.500 497.100 326.500 H 502.900 C 503.000 326.500 502.900 326.400 502.900 326.500 V 329.400 C 502.900 329.455 502.945 329.500 503.000 329.500 H 509.000 C 509.055 329.500 509.100 329.455 509.100 329.400 V 326.500 C 509.100 326.400 509.000 326.500 509.100 326.500 H 514.900 C 515.000 326.500 514.900 326.400 514.900 326.500 V 329.400 C 514.900 329.455 514.945 329.500 515.000 329.500 H 521.000 C 521.055 329.500 521.100 329.455 521.100 329.400 V 326.500 C 521.100 326.400 521.000 326.500 521.100 326.500 H 526.900 C 527.000 326.500 526.900 326.400 526.900 326.500 V 329.400 C 526.900 329.455 526.945 329.500 527.000 329.500 H 533.000 C 533.055 329.500 533.100 329.455 533.100 329.400 V 326.500 C 533.100 326.400 533.000 326.500 533.100 326.500 H 542.500 C 542.555 326.500 542.600 326.455 542.600 326.400 V 316.000 C 542.600 315.900 542.500 316.000 542.600 316.000 H 545.500 C 545.555 316.000 545.600 315.955 545.600 315.900 V 309.900 C 545.600 309.845 545.555 309.800 545.500 309.800 H 542.600 C 542.500 309.800 542.600 309.900 542.600 309.800 V 304.000 C 542.600 303.900 542.500 304.000 542.600 304.000 H 545.500 C 545.555 304.000 545.600 303.955 545.600 303.900 V 297.900 C 545.600 297.845 545.555 297.800 545.500 297.800 H 542.600 C 542.500 297.800 542.600 297.900 542.600 297.800 V 292.000 C 542.600 291.900 542.500 292.000 542.600 292.000 H 545.500 C 545.555 292.000 545.600 291.955 545.600 291.900 V 285.900 C 545.600 285.845 545.555 285.800 545.500 285.800 H 542.600 C 542.500 285.800 542.600 285.900 542.600 285.800 V 280.000 C 542.600 279.900 542.500 280.000 542.600 280.000 H 545.500 C 545.555 280.000 545.600 279.955 545.600 279.900 V 273.900 C 545.600 273.845 545.555 273.800 545.500 273.800 H 542.600 C 542.500 273.800 542.600 273.900 542.600 273.800 V 268.000 C 542.600 267.900 542.500 268.000 542.600 268.000 H 545.500 C 545.555 268.000 545.600 267.955 545.600 267.900 V 261.900 C 545.600 261.845 545.555 261.800 545.500 261.800 H 542.600 C 542.500 261.800 542.600 261.900 542.600 261.800 V 251.400 C 542.600 251.345 542.555 251.300 542.500 251.300 H 445.500 C 445.445 251.300 445.400 251.345 445.400 251.400 V 261.800 C 445.400 261.900 445.500 261.800 445.400 261.800 H 442.500 C 442.445 261.800 442.400 261.845 442.400 261.900 V 267.900 C 442.400 267.955 442.445 268.000 442.500 268.000 H 445.400 C 445.500 268.000 445.400 267.900 445.400 268.000 V 273.800 C 445.400 273.900 445.500 273.800 445.400 273.800 H 442.500 C 442.445 273.800 442.400 273.845 442.400 273.900 V 279.900 C 442.400 279.955 442.445 280.000 442.500 280.000 H 445.400 C 445.500 280.000 445.400 279.900 445.400 280.000 V 285.800 C 445.400 285.900 445.500 285.800 445.400 285.800 H 442.500 C 442.445 285.800 442.400 285.845 442.400 285.900 V 291.900 C 442.400 291.955 442.445 292.000 442.500 292.000 H 445.400 C 445.500 292.000 445.400 291.900 445.400 292.000 V 297.800 C 445.400 297.900 445.500 297.800 445.400 297.800 H 442.500 C 442.445 297.800 442.400 297.845 442.400 297.900 V 303.900 C 442.400 303.955 442.445 304.000 442.500 304.000 H 445.400 C 445.500 304.000 445.400 303.900 445.400 304.000 V 309.800 C 445.400 309.900 445.500 309.800 445.400 309.800 H 442.500 C 442.445 309.800 442.400 309.845 442.400 309.900 V 315.900 C 442.400 315.955 442.445 316.000 442.500 316.000 H 445.400 C 445.500 316.000 445.400 315.900 445.400 316.000 V 326.400 C 445.400 326.455 445.445 326.500 445.500 326.500 Z" stroke="rgb(0,0,0)" stroke-width="0.20" />
</g>
<g id="p-5" style="fill:none;stroke-linecap:round;stroke-linejoin:round;">
  <path d="M 13.400 246.800 H 19.750 C 19.850 246.800 19.750 246.700 19.750 246.800 V 249.700 C 19.750 249.755 19.795 249.800 19.850 249.800 H 25.850 C 25.905 249.800 25.950 249.755 25.950 249.700 V 246.800 C 25.950 246.700 25.850 246.800 25.950 246.800 H 31.750 C 31.850 246.800 31.750 246.700 31.750 246.800 V 249.700 C 31.750 249.755 31.795 249.800 31.850 249.800 H 37.850 C 37.905 249.800 37.950 249.755 37.950 249.700 V 246.800 C 37.950 246.700 37.850 246.800 37.950 246.800 H 43.750 C 43.850 246.800 43.750 246.700 43.750 246.800 V 249.700 C 43.750 249.755 43.795 249.800 43.850 249.800 H 49.850 C 49.905 249.800 49.950 249.755 49.950 249.700 V 246.800 C 49.950 246.700 49.850 246.800 49.950 246.800 H 55.750 C 55.850 246.800 55.750 246.700 55.750 246.800 V 249.700 C 55.750 249.755 55.795 249.800 55.850 249.800 H 61.850 C 61.905 249.800 61.950 249.755 61.950 249.700 V 246.800 C 61.950 246.700 61.850 246.800 61.950 246.800 H 67.750 C 67.850 246.800 67.750 246.700 67.750 246.800 V 249.700 C 67.750 249.755 67.795 249.800 67.850 249.800 H 73.850 C 73.905 249.800 73.950 249.755 73.950 249.700 V 246.800 C 73.950 246.700 73.850 246.800 73.950 246.800 H 79.750 C 79.850 246.800 79.750 246.700 79.750 246.800 V 249.700 C 79.750 249.755 79.795 249.800 79.850 249.800 H 85.850 C 85.905 249.800 85.950 249.755 85.950 249.700 V 246.800 C 85.950 246.700 85.850 246.800 85.950 246.800 H 91.750 C 91.850 246.800 91.750 246.700 91.750 246.800 V 249.700 C 91.750 249.755 91.795 249.800 91.850 249.800 H 97.850 C 97.905 249.800 97.950 249.755 97.950 249.700 V 246.800 C 97.950 246.700 97.850 246.800 97.950 246.800 H 103.750 C 103.850 246.800 103.750 246.700 103.750 246.800 V 249.700 C 103.750 249.755 103.795 249.800 103.850 249.800 H 109.850 C 109.905 249.800 109.950 249.755 109.950 249.700 V 246.800 C 109.950 246.700 109.850 246.800 109.950 246.800 H 115.750 C 115.850 246.800 115.750 246.700 115.750 246.800 V 249.700 C 115.750 249.755 115.795 249.800 115.850 249.800 H 121.850 C 121.905 249.800 121.950 249.755 121.950 249.700 V 246.800 C 121.950 246.700 121.850 246.800 121.950 246.800 H 127.750 C 127.850 246.800 127.750 246.700 127.750 246.800 V 249.700 C 127.750 249.755 127.795 249.800 127.850 249.800 H 133.850 C 133.905 249.800 133.950 249.755 133.950 249.700 V 246.800 C 133.950 246.700 133.850 246.800 133.950 246.800 H 139.750 C 139.850 246.800 139.750 246.700 139.750 246.800 V 249.700 C 139.750 249.755 139.795 249.800 139.850 249.800 H 145.850 C 145.905 249.800 145.950 249.755 145.950 249.700 V 246.800 C 145.950 246.700 145.850 246.800 145.950 246.800 H 151.750 C 151.850 246.800 151.750 246.700 151.750 246.800 V 249.700 C 151.750 249.755 151.795 249.800 151.850 249.800 H 157.850 C 157.905 249.800 157.950 249.755 157.950 249.700 V 246.800 C 157.950 246.700 157.850 246.800 157.950 246.800 H 163.750 C 163.850 246.800 163.750 246.700 163.750 246.800 V 249.700 C 163.750 249.755 163.795 249.800 163.850 249.800 H 169.850 C 169.905 249.800 169.950 249.755 169.950 249.700 V 246.800 C 169.950 246.700 169.850 246.800 169.950 246.800 H 176.300 H 179.300 C 179.355 246.800 179.400 246.755 179.400 246.700 V 235.200 C 179.400 235.145 179.355 235.100 179.300 235.100 H 176.400 C 176.300 235.100 176.400 235.200 176.400 235.100 V 229.300 C 176.400 229.200 176.300 229.300 176.400 229.300 H 179.300 C 179.355 229.300 179.400 229.255 179.400 229.200 V 223.200 C 179.400 223.145 179.355 223.100 179.300 223.100 H 176.400 C 176.300 223.100 176.400 223.200 176.400 223.100 V 217.300 C 176.400 217.200 176.300 217.300 176.400 217.300 H 179.300 C 179.355 217.300 179.400 217.255 179.400 217.200 V 211.200 C 179.400 211.145 179.355 211.100 179.300 211.100 H 176.400 C 176.300 211.100 176.400 211.200 176.400 211.100 V 205.300 C 176.400 205.200 176.300 205.300 176.400 205.300 H 179.300 C 179.355 205.300 179.400 205.255 179.400 205.200 V 199.200 C 179.400 199.145 179.355 199.100 179.300 199.100 H 176.400 C 176.300 199.100 176.400 199.200 176.400 199.100 V 193.300 C 176.400 193.200 176.300 193.300 176.400 193.300 H 179.300 C 179.355 193.300 179.400 193.255 179.400 193.200 V 187.200 C 179.400 187.145 179.355 187.100 179.300 187.100 H 176.400 C 176.300 187.100 176.400 187.200 176.400 187.100 V 181.300 C 176.400 181.200 176.300 181.300 176.400 181.300 H 179.300 C 179.355 181.300 179.400 181.255 179.400 181.200 V 175.200 C 179.400 175.145 179.355 175.100 179.300 175.100 H 176.400 C 176.300 175.100 176.400 175.200 176.400 175.100 V 169.300 C 176.400 169.200 176.300 169.300 176.400 169.300 H 179.300 C 179.355 169.300 179.400 169.255 179.400 169.200 V 163.200 C 179.400 163.145 179.355 163.100 179.300 163.100 H 176.400 C 176.300 163.100 176.400 163.200 176.400 163.100 V 157.300 C 176.400 157.200 176.300 157.300 176.400 157.300 H 179.300 C 179.355 157.300 179.400 157.255 179.400 157.200 V 151.200 C 179.400 151.145 179.355 151.100 179.300 151.100 H 176.400 C 176.300 151.100 176.400 151.200 176.400 151.100 V 145.300 C 176.400 145.200 176.300 145.300 176.400 145.300 H 179.300 C 179.355 145.300 179.400 145.255 179.400 145.200 V 139.200 C 179.400 139.145 179.355 139.100 179.300 139.100 H 176.400 C 176.300 139.100 176.400 139.200 176.400 139.100 V 133.300 C 176.400 133.200 176.300 133.300 176.400 133.300 H 179.300 C 179.355 133.300 179.400 133.255 179.400 133.200 V 121.700 C 179.400 121.645 179.355 121.600 179.300 121.600 H 176.300 H 13.400 H 10.400 C 10.345 121.600 10.300 121.645 10.300 121.700 V 133.200 C 10.300 133.255 10.345 133.300 10.400 133.300 H 13.300 C 13.400 133.300 13.300 133.200 13.300 133.300 V 139.100 C 13.300 139.200 13.400 139.100 13.300 139.100 H 10.400 C 10.345 139.100 10.300 139.145 10.300 139.200 V 145.200 C 10.300 145.255 10.345 145.300 10.400 145.300 H 13.300 C 13.400 145.300 13.300 145.200 13.300 145.300 V 151.100 C 13.300 151.200 13.400 151.100 13.300 151.100 H 10.400 C 10.345 151.100 10.300 151.145 10.300 151.200 V 157.200 C 10.300 157.255 10.345 157.300 10.400 157.300 H 13.300 C 13.400 157.300 13.300 157.200 13.300 157.300 V 163.100 C 13.300 163.200 13.400 163.100 13.300 163.100 H 10.400 C 10.345 163.100 10.300 163.145 10.300 163.200 V 169.200 C 10.300 169.255 10.345 169.300 10.400 169.300 H 13.300 C 13.400 169.300 13.300 169.200 13.300 169.300 V 175.100 C 13.300 175.200 13.400 175.100 13.300 175.100 H 10.400 C 10.345 175.100 10.300 175.145 10.300 175.200 V 181.200 C 10.300 181.255 10.345 181.300 10.400 181.300 H 13.300 C 13.400 181.300 13.300 181.200 13.300 181.300 V 187.100 C 13.300 187.200 13.400 187.100 13.300 187.100 H 10.400 C 10.345 187.100 10.300 187.145 10.300 187.200 V 193.200 C 10.300 193.255 10.345 193.300 10.400 193.300 H 13.300 C 13.400 193.300 13.300 193.200 13.300 193.300 V 199.100 C 13.300 199.200 13.400 199.100 13.300 199.100 H 10.400 C 10.345 199.100 10.300 199.145 10.300 199.200 V 205.200 C 10.300 205.255 10.345 205.300 10.400 205.300 H 13.300 C 13.400 205.300 13.300 205.200 13.300 205.300 V 211.100 C 13.300 211.200 13.400 211.100 13.300 211.100 H 10.400 C 10.345 211.100 10.300 211.145 10.300 211.200 V 217.200 C 10.300 217.255 10.345 217.300 10.400 217.300 H 13.300 C 13.400 217.300 13.300 217.200 13.300 217.300 V 223.100 C 13.300 223.200 13.400 223.100 13.300 223.100 H 10.400 C 10.345 223.100 10.300 223.145 10.300 223.200 V 229.200 C 10.300 229.255 10.345 229.300 10.400 229.300 H 13.300 C 13.400 229.300 13.300 229.200 13.300 229.300 V 235.100 C 13.300 235.200 13.400 235.100 13.300 235.100 H 10.400 C 10.345 235.100 10.300 235.145 10.300 235.200 V 246.700 C 10.300 246.755 10.345 246.800 10.400 246.800 H 13.400 Z" stroke="rgb(0,0,0)" stroke-width="0.20" />
</g>
<g id="p-6" style="fill:none;stroke-linecap:round;stroke-linejoin:round;">
  <path d="M 184.000 246.800 H 190.850 C 190.950 246.800 190.850 246.700 190.850 246.800 V 249.700 C 190.850 249.755 190.895 249.800 190.950 249.800 H 196.950 C 197.005 249.800 197.050 249.755 197.050 249.700 V 246.800 C 197.050 246.700 196.950 246.800 197.050 246.800 H 202.850 C 202.950 246.800 202.850 246.700 202.850 246.800 V 249.700 C 202.850 249.755 202.895 249.800 202.950 249.800 H 208.950 C 209.005 249.800 209.050 249.755 209.050 249.700 V 246.800 C 209.050 246.700 208.950 246.800 209.050 246.800 H 214.850 C 214.950 246.800 214.850 246.700 214.850 246.800 V 249.700 C 214.850 249.755 214.895 249.800 214.950 249.800 H 220.950 C 221.005 249.800 221.050 249.755 221.050 249.700 V 246.800 C 221.050 246.700 220.950 246.800 221.050 246.800 H 226.850 C 226.950 246.800 226.850 246.700 226.850 246.800 V 249.700 C 226.850 249.755 226.895 249.800 226.950 249.800 H 232.950 C 233.005 249.800 233.050 249.755 233.050 249.700 V 246.800 C 233.050 246.700 232.950 246.800 233.050 246.800 H 238.850 C 238.950 246.800 238.850 246.700 238.850 246.800 V 249.700 C 238.850 249.755 238.895 249.800 238.950 249.800 H 244.950 C 245.005 249.800 245.050 249.755 245.050 249.700 V 246.800 C 245.050 246.700 244.950 246.800 245.050 246.800 H 250.850 C 250.950 246.800 250.850 246.700 250.850 246.800 V 249.700 C 250.850 249.755 250.895 249.800 250.950 249.800 H 256.950 C 257.005 249.800 257.050 249.755 257.050 249.700 V 246.800 C 257.050 246.700 256.950 246.800 257.050 246.800 H 262.850 C 262.950 246.800 262.850 246.700 262.850 246.800 V 249.700 C 262.850 249.755 262.895 249.800 262.950 249.800 H 268.950 C 269.005 249.800 269.050 249.755 269.050 249.700 V 246.800 C 269.050 246.700 268.950 246.800 269.050 246.800 H 274.850 C 274.950 246.800 274.850 246.700 274.850 246.800 V 249.700 C 274.850 249.755 274.895 249.800 274.950 249.800 H 280.950 C 281.005 249.800 281.050 249.755 281.050 249.700 V 246.800 C 281.050 246.700 280.950 246.800 281.050 246.800 H 287.900 C 287.955 246.800 288.000 246.755 288.000 246.700 V 235.300 C 288.000 235.200 287.900 235.300 288.000 235.300 H 290.900 C 290.955 235.300 291.000 235.255 291.000 235.200 V 229.200 C 291.000 229.145 290.955 229.100 290.900 229.100 H 288.000 C 287.900 229.100 288.000 229.200 288.000 229.100 V 223.300 C 288.000 223.200 287.900 223.300 288.000 223.300 H 290.900 C 290.955 223.300 291.000 223.255 291.000 223.200 V 217.200 C 291.000 217.145 290.955 217.100 290.900 217.100 H 288.000 C 287.900 217.100 288.000 217.200 288.000 217.100 V 211.300 C 288.000 211.200 287.900 211.300 288.000 211.300 H 290.900 C 290.955 211.300 291.000 211.255 291.000 211.200 V 205.200 C 291.000 205.145 290.955 205.100 290.900 205.100 H 288.000 C 287.900 205.100 288.000 205.200 288.000 205.100 V 199.300 C 288.000 199.200 287.900 199.300 288.000 199.300 H 290.900 C 290.955 199.300 291.000 199.255 291.000 199.200 V 193.200 C 291.000 193.145 290.955 193.100 290.900 193.100 H 288.000 C 287.900 193.100 288.000 193.200 288.000 193.100 V 187.300 C 288.000 187.200 287.900 187.300 288.000 187.300 H 290.900 C 290.955 187.300 291.000 187.255 291.000 187.200 V 181.200 C 291.000 181.145 290.955 181.100 290.900 181.100 H 288.000 C 287.900 181.100 288.000 181.200 288.000 181.100 V 175.300 C 288.000 175.200 287.900 175.300 288.000 175.300 H 290.900 C 290.955 175.300 291.000 175.255 291.000 175.200 V 169.200 C 291.000 169.145 290.955 169.100 290.900 169.100 H 288.000 C 287.900 169.100 288.000 169.200 288.000 169.100 V 163.300 C 288.000 163.200 287.900 163.300 288.000 163.300 H 290.900 C 290.955 163.300 291.000 163.255 291.000 163.200 V 157.200 C 291.000 157.145 290.955 157.100 290.900 157.100 H 288.000 C 287.900 157.100 288.000 157.200 288.000 157.100 V 151.300 C 288.000 151.200 287.900 151.300 288.000 151.300 H 290.900 C 290.955 151.300 291.000 151.255 291.000 151.200 V 145.200 C 291.000 145.145 290.955 145.100 290.900 145.100 H 288.000 C 287.900 145.100 288.000 145.200 288.000 145.100 V 139.300 C 288.000 139.200 287.900 139.300 288.000 139.300 H 290.900 C 290.955 139.300 291.000 139.255 291.000 139.200 V 133.200 C 291.000 133.145 290.955 133.100 290.900 133.100 H 288.000 C 287.900 133.100 288.000 133.200 288.000 133.100 V 121.700 C 288.000 121.645 287.955 121.600 287.900 121.600 H 184.000 C 183.945 121.600 183.900 121.645 183.900 121.700 V 133.100 C 183.900 133.200 184.000 133.100 183.900 133.100 H 181.000 C 180.945 133.100 180.900 133.145 180.900 133.200 V 139.200 C 180.900 139.255 180.945 139.300 181.000 139.300 H 183.900 C 184.000 139.300 183.900 139.200 183.900 139.300 V 145.100 C 183.900 145.200 184.000 145.100 183.900 145.100 H 181.000 C 180.945 145.100 180.900 145.145 180.900 145.200 V 151.200 C 180.900 151.255 180.945 151.300 181.000 151.300 H 183.900 C 184.000 151.300 183.900 151.200 183.900 151.300 V 157.100 C 183.900 157.200 184.000 157.100 183.900 157.100 H 181.000 C 180.945 157.100 180.900 157.145 180.900 157.200 V 163.200 C 180.900 163.255 180.945 163.300 181.000 163.300 H 183.900 C 184.000 163.300 183.900 163.200 183.900 163.300 V 169.100 C 183.900 169.200 184.000 169.100 183.900 169.100 H 181.000 C 180.945 169.100 180.900 169.145 180.900 169.200 V 175.200 C 180.900 175.255 180.945 175.300 181.000 175.300 H 183.900 C 184.000 175.300 183.900 175.200 183.900 175.300 V 181.100 C 183.900 181.200 184.000 181.100 183.900 181.100 H 181.000 C 180.945 181.100 180.900 181.145 180.900 181.200 V 187.200 C 180.900 187.255 180.945 187.300 181.000 187.300 H 183.900 C 184.000 187.300 183.900 187.200 183.900 187.300 V 193.100 C 183.900 193.200 184.000 193.100 183.900 193.100 H 181.000 C 180.945 193.100 180.900 193.145 180.900 193.200 V 199.200 C 180.900 199.255 180.945 199.300 181.000 199.300 H 183.900 C 184.000 199.300 183.900 199.200 183.900 199.300 V 205.100 C 183.900 205.200 184.000 205.100 183.900 205.100 H 181.000 C 180.945 205.100 180.900 205.145 180.900 205.200 V 211.200 C 180.900 211.255 180.945 211.300 181.000 211.300 H 183.900 C 184.000 211.300 183.900 211.200 183.900 211.300 V 217.100 C 183.900 217.200 184.000 217.100 183.900 217.100 H 181.000 C 180.945 217.100 180.900 217.145 180.900 217.200 V 223.200 C 180.900 223.255 180.945 223.300 181.000 223.300 H 183.900 C 184.000 223.300 183.900 223.200 183.900 223.300 V 229.100 C 183.900 229.200 184.000 229.100 183.900 229.100 H 181.000 C 180.945 229.100 180.900 229.145 180.900 229.200 V 235.200 C 180.900 235.255 180.945 235.300 181.000 235.300 H 183.900 C 184.000 235.300 183.900 235.200 183.900 235.300 V 246.700 C 183.900 246.755 183.945 246.800 184.000 246.800 Z" stroke="rgb(0,0,0)" stroke-width="0.20" />
</g>
<g id="p-7" style="fill:none;stroke-linecap:round;stroke-linejoin:round;">
  <path d="M 295.600 246.800 H 301.950 C 302.050 246.800 301.950 246.700 301.950 246.800 V 249.700 C 301.950 249.755 301.995 249.800 302.050 249.800 H 308.050 C 308.105 249.800 308.150 249.755 308.150 249.700 V 246.800 C 308.150 246.700 308.050 246.800 308.150 246.800 H 313.950 C 314.050 246.800 313.950 246.700 313.950 246.800 V 249.700 C 313.950 249.755 313.995 249.800 314.050 249.800 H 320.050 C 320.105 249.800 320.150 249.755 320.150 249.700 V 246.800 C 320.150 246.700 320.050 246.800 320.150 246.800 H 325.950 C 326.050 246.800 325.950 246.700 325.950 246.800 V 249.700 C 325.950 249.755 325.995 249.800 326.050 249.800 H 332.050 C 332.105 249.800 332.150 249.755 332.150 249.700 V 246.800 C 332.150 246.700 332.050 246.800 332.150 246.800 H 337.950 C 338.050 246.800 337.950 246.700 337.950 246.800 V 249.700 C 337.950 249.755 337.995 249.800 338.050 249.800 H 344.050 C 344.105 249.800 344.150 249.755 344.150 249.700 V 246.800 C 344.150 246.700 344.050 246.800 344.150 246.800 H 349.950 C 350.050 246.800 349.950 246.700 349.950 246.800 V 249.700 C 349.950 249.755 349.995 249.800 350.050 249.800 H 356.050 C 356.105 249.800 356.150 249.755 356.150 249.700 V 246.800 C 356.150 246.700 356.050 246.800 356.150 246.800 H 361.950 C 362.050 246.800 361.950 246.700 361.950 246.800 V 249.700 C 361.950 249.755 361.995 249.800 362.050 249.800 H 368.050 C 368.105 249.800 368.150 249.755 368.150 249.700 V 246.800 C 368.150 246.700 368.050 246.800 368.150 246.800 H 373.950 C 374.050 246.800 373.950 246.700 373.950 246.800 V 249.700 C 373.950 249.755 373.995 249.800 374.050 249.800 H 380.050 C 380.105 249.800 380.150 249.755 380.150 249.700 V 246.800 C 380.150 246.700 380.050 246.800 380.150 246.800 H 385.950 C 386.050 246.800 385.950 246.700 385.950 246.800 V 249.700 C 385.950 249.755 385.995 249.800 386.050 249.800 H 392.050 C 392.105 249.800 392.150 249.755 392.150 249.700 V 246.800 C 392.150 246.700 392.050 246.800 392.150 246.800 H 397.950 C 398.050 246.800 397.950 246.700 397.950 246.800 V 249.700 C 397.950 249.755 397.995 249.800 398.050 249.800 H 404.050 C 404.105 249.800 404.150 249.755 404.150 249.700 V 246.800 C 404.150 246.700 404.050 246.800 404.150 246.800 H 409.950 C 410.050 246.800 409.950 246.700 409.950 246.800 V 249.700 C 409.950 249.755 409.995 249.800 410.050 249.800 H 416.050 C 416.105 249.800 416.150 249.755 416.150 249.700 V 246.800 C 416.150 246.700 416.050 246.800 416.150 246.800 H 421.950 C 422.050 246.800 421.950 246.700 421.950 246.800 V 249.700 C 421.950 249.755 421.995 249.800 422.050 249.800 H 428.050 C 428.105 249.800 428.150 249.755 428.150 249.700 V 246.800 C 428.150 246.700 428.050 246.800 428.150 246.800 H 433.950 C 434.050 246.800 433.950 246.700 433.950 246.800 V 249.700 C 433.950 249.755 433.995 249.800 434.050 249.800 H 440.050 C 440.105 249.800 440.150 249.755 440.150 249.700 V 246.800 C 440.150 246.700 440.050 246.800 440.150 246.800 H 445.950 C 446.050 246.800 445.950 246.700 445.950 246.800 V 249.700 C 445.950 249.755 445.995 249.800 446.050 249.800 H 452.050 C 452.105 249.800 452.150 249.755 452.150 249.700 V 246.800 C 452.150 246.700 452.050 246.800 452.150 246.800 H 458.500 H 461.500 C 461.555 246.800 461.600 246.755 461.600 246.700 V 235.200 C 461.600 235.145 461.555 235.100 461.500 235.100 H 458.600 C 458.500 235.100 458.600 235.200 458.600 235.100 V 229.300 C 458.600 229.200 458.500 229.300 458.600 229.300 H 461.500 C 461.555 229.300 461.600 229.255 461.600 229.200 V 223.200 C 461.600 223.145 461.555 223.100 461.500 223.100 H 458.600 C 458.500 223.100 458.600 223.200 458.600 223.100 V 217.300 C 458.600 217.200 458.500 217.300 458.600 217.300 H 461.500 C 461.555 217.300 461.600 217.255 461.600 217.200 V 211.200 C 461.600 211.145 461.555 211.100 461.500 211.100 H 458.600 C 458.500 211.100 458.600 211.200 458.600 211.100 V 205.300 C 458.600 205.200 458.500 205.300 458.600 205.300 H 461.500 C 461.555 205.300 461.600 205.255 461.600 205.200 V 199.200 C 461.600 199.145 461.555 199.100 461.500 199.100 H 458.600 C 458.500 199.100 458.600 199.200 458.600 199.100 V 193.300 C 458.600 193.200 458.500 193.300 458.600 193.300 H 461.500 C 461.555 193.300 461.600 193.255 461.600 193.200 V 187.200 C 461.600 187.145 461.555 187.100 461.500 187.100 H 458.600 C 458.500 187.100 458.600 187.200 458.600 187.100 V 181.300 C 458.600 181.200 458.500 181.300 458.600 181.300 H 461.500 C 461.555 181.300 461.600 181.255 461.600 181.200 V 175.200 C 461.600 175.145 461.555 175.100 461.500 175.100 H 458.600 C 458.500 175.100 458.600 175.200 458.600 175.100 V 169.300 C 458.600 169.200 458.500 169.300 458.600 169.300 H 461.500 C 461.555 169.300 461.600 169.255 461.600 169.200 V 163.200 C 461.600 163.145 461.555 163.100 461.500 163.100 H 458.600 C 458.500 163.100 458.600 163.200 458.600 163.100 V 157.300 C 458.600 157.200 458.500 157.300 458.600 157.300 H 461.500 C 461.555 157.300 461.600 157.255 461.600 157.200 V 151.200 C 461.600 151.145 461.555 151.100 461.500 151.100 H 458.600 C 458.500 151.100 458.600 151.200 458.600 151.100 V 145.300 C 458.600 145.200 458.500 145.300 458.600 145.300 H 461.500 C 461.555 145.300 461.600 145.255 461.600 145.200 V 139.200 C 461.600 139.145 461.555 139.100 461.500 139.100 H 458.600 C 458.500 139.100 458.600 139.200 458.600 139.100 V 133.300 C 458.600 133.200 458.500 133.300 458.600 133.300 H 461.500 C 461.555 133.300 461.600 133.255 461.600 133.200 V 121.700 C 461.600 121.645 461.555 121.600 461.500 121.600 H 458.500 H 295.600 H 292.600 C 292.545 121.600 292.500 121.645 292.500 121.700 V 133.200 C 292.500 133.255 292.545 133.300 292.600 133.300 H 295.500 C 295.600 133.300 295.500 133.200 295.500 133.300 V 139.100 C 295.500 139.200 295.600 139.100 295.500 139.100 H 292.600 C 292.545 139.100 292.500 139.145 292.500 139.200 V 145.200 C 292.500 145.255 292.545 145.300 292.600 145.300 H 295.500 C 295.600 145.300 295.500 145.200 295.500 145.300 V 151.100 C 295.500 151.200 295.600 151.100 295.500 151.100 H 292.600 C 292.545 151.100 292.500 151.145 292.500 151.200 V 157.200 C 292.500 157.255 292.545 157.300 292.600 157.300 H 295.500 C 295.600 157.300 295.500 157.200 295.500 157.300 V 163.100 C 295.500 163.200 295.600 163.100 295.500 163.100 H 292.600 C 292.545 163.100 292.500 163.145 292.500 163.200 V 169.200 C 292.500 169.255 292.545 169.300 292.600 169.300 H 295.500 C 295.600 169.300 295.500 169.200 295.500 169.300 V 175.100 C 295.500 175.200 295.600 175.100 295.500 175.100 H 292.600 C 292.545 175.100 292.500 175.145 292.500 175.200 V 181.200 C 292.500 181.255 292.545 181.300 292.600 181.300 H 295.500 C 295.600 181.300 295.500 181.200 295.500 181.300 V 187.100 C 295.500 187.200 295.600 187.100 295.500 187.100 H 292.600 C 292.545 187.100 292.500 187.145 292.500 187.200 V 193.200 C 292.500 193.255 292.545 193.300 292.600 193.300 H 295.500 C 295.600 193.300 295.500 193.200 295.500 193.300 V 199.100 C 295.500 199.200 295.600 199.100 295.500 199.100 H 292.600 C 292.545 199.100 292.500 199.145 292.500 199.200 V 205.200 C 292.500 205.255 292.545 205.300 292.600 205.300 H 295.500 C 295.600 205.300 295.500 205.200 295.500 205.300 V 211.100 C 295.500 211.200 295.600 211.100 295.500 211.100 H 292.600 C 292.545 211.100 292.500 211.145 292.500 211.200 V 217.200 C 292.500 217.255 292.545 217.300 292.600 217.300 H 295.500 C 295.600 217.300 295.500 217.200 295.500 217.300 V 223.100 C 295.500 223.200 295.600 223.100 295.500 223.100 H 292.600 C 292.545 223.100 292.500 223.145 292.500 223.200 V 229.200 C 292.500 229.255 292.545 229.300 292.600 229.300 H 295.500 C 295.600 229.300 295.500 229.200 295.500 229.300 V 235.100 C 295.500 235.200 295.600 235.100 295.500 235.100 H 292.600 C 292.545 235.100 292.500 235.145 292.500 235.200 V 246.700 C 292.500 246.755 292.545 246.800 292.600 246.800 H 295.600 Z" stroke="rgb(0,0,0)" stroke-width="0.20" />
</g>
<g id="p-8" style="fill:none;stroke-linecap:round;stroke-linejoin:round;">
  <path d="M 466.200 246.800 H 473.050 C 473.150 246.800 473.050 246.700 473.050 246.800 V 249.700 C 473.050 249.755 473.095 249.800 473.150 249.800 H 479.150 C 479.205 249.800 479.250 249.755 479.250 249.700 V 246.800 C 479.250 246.700 479.150 246.800 479.250 246.800 H 485.050 C 485.150 246.800 485.050 246.700 485.050 246.800 V 249.700 C 485.050 249.755 485.095 249.800 485.150 249.800 H 491.150 C 491.205 249.800 491.250 249.755 491.250 249.700 V 246.800 C 491.250 246.700 491.150 246.800 491.250 246.800 H 497.050 C 497.150 246.800 497.050 246.700 497.050 246.800 V 249.700 C 497.050 249.755 497.095 249.800 497.150 249.800 H 503.150 C 503.205 249.800 503.250 249.755 503.250 249.700 V 246.800 C 503.250 246.700 503.150 246.800 503.250 246.800 H 509.050 C 509.150 246.800 509.050 246.700 509.050 246.800 V 249.700 C 509.050 249.755 509.095 249.800 509.150 249.800 H 515.150 C 515.205 249.800 515.250 249.755 515.250 249.700 V 246.800 C 515.250 246.700 515.150 246.800 515.250 246.800 H 521.050 C 521.150 246.800 521.050 246.700 521.050 246.800 V 249.700 C 521.050 249.755 521.095 249.800 521.150 249.800 H 527.150 C 527.205 249.800 527.250 249.755 527.250 249.700 V 246.800 C 527.250 246.700 527.150 246.800 527.250 246.800 H 533.050 C 533.150 246.800 533.050 246.700 533.050 246.800 V 249.700 C 533.050 249.755 533.095 249.800 533.150 249.800 H 539.150 C 539.205 249.800 539.250 249.755 539.250 249.700 V 246.800 C 539.250 246.700 539.150 246.800 539.250 246.800 H 545.050 C 545.150 246.800 545.050 246.700 545.050 246.800 V 249.700 C 545.050 249.755 545.095 249.800 545.150 249.800 H 551.150 C 551.205 249.800 551.250 249.755 551.250 249.700 V 246.800 C 551.250 246.700 551.150 246.800 551.250 246.800 H 557.050 C 557.150 246.800 557.050 246.700 557.050 246.800 V 249.700 C 557.050 249.755 557.095 249.800 557.150 249.800 H 563.150 C 563.205 249.800 563.250 249.755 563.250 249.700 V 246.800 C 563.250 246.700 563.150 246.800 563.250 246.800 H 570.100 C 570.155 246.800 570.200 246.755 570.200 246.700 V 235.300 C 570.200 235.200 570.100 235.300 570.200 235.300 H 573.100 C 573.155 235.300 573.200 235.255 573.200 235.200 V 229.200 C 573.200 229.145 573.155 229.100 573.100 229.100 H 570.200 C 570.100 229.100 570.200 229.200 570.200 229.100 V 223.300 C 570.200 223.200 570.100 223.300 570.200 223.300 H 573.100 C 573.155 223.300 573.200 223.255 573.200 223.200 V 217.200 C 573.200 217.145 573.155 217.100 573.100 217.100 H 570.200 C 570.100 217.100 570.200 217.200 570.200 217.100 V 211.300 C 570.200 211.200 570.100 211.300 570.200 211.300 H 573.100 C 573.155 211.300 573.200 211.255 573.200 211.200 V 205.200 C 573.200 205.145 573.155 205.100 573.100 205.100 H 570.200 C 570.100 205.100 570.200 205.200 570.200 205.100 V 199.300 C 570.200 199.200 570.100 199.300 570.200 199.300 H 573.100 C 573.155 199.300 573.200 199.255 573.200 199.200 V 193.200 C 573.200 193.145 573.155 193.100 573.100 193.100 H 570.200 C 570.100 193.100 570.200 193.200 570.200 193.100 V 187.300 C 570.200 187.200 570.100 187.300 570.200 187.300 H 573.100 C 573.155 187.300 573.200 187.255 573.200 187.200 V 181.200 C 573.200 181.145 573.155 181.100 573.100 181.100 H 570.200 C 570.100 181.100 570.200 181.200 570.200 181.100 V 175.300 C 570.200 175.200 570.100 175.300 570.200 175.300 H 573.100 C 573.155 175.300 573.200 175.255 573.200 175.200 V 169.200 C 573.200 169.145 573.155 169.100 573.100 169.100 H 570.200 C 570.100 169.100 570.200 169.200 570.200 169.100 V 163.300 C 570.200 163.200 570.100 163.300 570.200 163.300 H 573.100 C 573.155 163.300 573.200 163.255 573.200 163.200 V 157.200 C 573.200 157.145 573.155 157.100 573.100 157.100 H 570.200 C 570.100 157.100 570.200 157.200 570.200 157.100 V 151.300 C 570.200 151.200 570.100 151.300 570.200 151.300 H 573.100 C 573.155 151.300 573.200 151.255 573.200 151.200 V 145.200 C 573.200 145.145 573.155 145.100 573.100 145.100 H 570.200 C 570.100 145.100 570.200 145.200 570.200 145.100 V 139.300 C 570.200 139.200 570.100 139.300 570.200 139.300 H 573.100 C 573.155 139.300 573.200 139.255 573.200 139.200 V 133.200 C 573.200 133.145 573.155 133.100 573.100 133.100 H 570.200 C 570.100 133.100 570.200 133.200 570.200 133.100 V 121.700 C 570.200 121.645 570.155 121.600 570.100 121.600 H 466.200 C 466.145 121.600 466.100 121.645 466.100 121.700 V 133.100 C 466.100 133.200 466.200 133.100 466.100 133.100 H 463.200 C 463.145 133.100 463.100 133.145 463.100 133.200 V 139.200 C 463.100 139.255 463.145 139.300 463.200 139.300 H 466.100 C 466.200 139.300 466.100 139.200 466.100 139.300 V 145.100 C 466.100 145.200 466.200 145.100 466.100 145.100 H 463.200 C 463.145 145.100 463.100 145.145 463.100 145.200 V 151.200 C 463.100 151.255 463.145 151.300 463.200 151.300 H 466.100 C 466.200 151.300 466.100 151.200 466.100 151.300 V 157.100 C 466.100 157.200 466.200 157.100 466.100 157.100 H 463.200 C 463.145 157.100 463.100 157.145 463.100 157.200 V 163.200 C 463.100 163.255 463.145 163.300 463.200 163.300 H 466.100 C 466.200 163.300 466.100 163.200 466.100 163.300 V 169.100 C 466.100 169.200 466.200 169.100 466.100 169.100 H 463.200 C 463.145 169.100 463.100 169.145 463.100 169.200 V 175.200 C 463.100 175.255 463.145 175.300 463.200 175.300 H 466.100 C 466.200 175.300 466.100 175.200 466.100 175.300 V 181.100 C 466.100 181.200 466.200 181.100 466.100 181.100 H 463.200 C 463.145 181.100 463.100 181.145 463.100 181.200 V 187.200 C 463.100 187.255 463.145 187.300 463.200 187.300 H 466.100 C 466.200 187.300 466.100 187.200 466.100 187.300 V 193.100 C 466.100 193.200 466.200 193.100 466.100 193.100 H 463.200 C 463.145 193.100 463.100 193.145 463.100 193.200 V 199.200 C 463.100 199.255 463.145 199.300 463.200 199.300 H 466.100 C 466.200 199.300 466.100 199.200 466.100 199.300 V 205.100 C 466.100 205.200 466.200 205.100 466.100 205.100 H 463.200 C 463.145 205.100 463.100 205.145 463.100 205.200 V 211.200 C 463.100 211.255 463.145 211.300 463.200 211.300 H 466.100 C 466.200 211.300 466.100 211.200 466.100 211.300 V 217.100 C 466.100 217.200 466.200 217.100 466.100 217.100 H 463.200 C 463.145 217.100 463.100 217.145 463.100 217.200 V 223.200 C 463.100 223.255 463.145 223.300 463.200 223.300 H 466.100 C 466.200 223.300 466.100 223.200 466.100 223.300 V 229.100 C 466.100 229.200 466.200 229.100 466.100 229.100 H 463.200 C 463.145 229.100 463.100 229.145 463.100 229.200 V 235.200 C 463.100 235.255 463.145 235.300 463.200 235.300 H 466.100 C 466.200 235.300 466.100 235.200 466.100 235.300 V 246.700 C 466.100 246.755 466.145 246.800 466.200 246.800 Z" stroke="rgb(0,0,0)" stroke-width="0.20" />
</g>
<g id="p-9" style="fill:none;stroke-linecap:round;stroke-linejoin:round;">
  <path d="M 28.850 116.450 H 25.950 C 25.850 116.450 25.950 116.550 25.950 116.450 V 113.650 C 25.950 113.550 25.850 113.650 25.950 113.650 H 31.750 C 31.850 113.650 31.750 113.550 31.750 113.650 V 116.450 C 31.750 116.550 31.850 116.450 31.750 116.450 H 28.850 Z" stroke="rgb(0,0,255)" stroke-width="0.20" />
  <path d="M 40.850 116.450 H 37.950 C 37.850 116.450 37.950 116.550 37.950 116.450 V 113.650 C 37.950 113.550 37.850 113.650 37.950 113.650 H 43.750 C 43.850 113.650 43.750 113.550 43.750 113.650 V 116.450 C 43.750 116.550 43.850 116.450 43.750 116.450 H 40.850 Z" stroke="rgb(0,0,255)" stroke-width="0.20" />
  <path d="M 52.850 116.450 H 49.950 C 49.850 116.450 49.950 116.550 49.950 116.450 V 113.650 C 49.950 113.550 49.850 113.650 49.950 113.650 H 55.750 C 55.850 113.650 55.750 113.550 55.750 113.650 V 116.450 C 55.750 116.550 55.850 116.450 55.750 116.450 H 52.850 Z" stroke="rgb(0,0,255)" stroke-width="0.20" />
  <path d="M 64.850 116.450 H 61.950 C 61.850 116.450 61.950 116.550 61.950 116.450 V 113.650 C 61.950 113.550 61.850 113.650 61.950 113.650 H 67.750 C 67.850 113.650 67.750 113.550 67.750 113.650 V 116.450 C 67.750 116.550 67.850 116.450 67.750 116.450 H 64.850 Z" stroke="rgb(0,0,255)" stroke-width="0.20" />
  <path d="M 76.850 116.450 H 73.950 C 73.850 116.450 73.950 116.550 73.950 116.450 V 113.650 C 73.950 113.550 73.850 113.650 73.950 113.650 H 79.750 C 79.850 113.650 79.750 113.550 79.750 113.650 V 116.450 C 79.750 116.550 79.850 116.450 79.750 116.450 H 76.850 Z" stroke="rgb(0,0,255)" stroke-width="0.20" />
  <path d="M 88.850 116.450 H 85.950 C 85.850 116.450 85.950 116.550 85.950 116.450 V 113.650 C 85.950 113.550 85.850 113.650 85.950 113.650 H 91.750 C 91.850 113.650 91.750 113.550 91.750 113.650 V 116.450 C 91.750 116.550 91.850 116.450 91.750 116.450 H 88.850 Z" stroke="rgb(0,0,255)" stroke-width="0.20" />
  <path d="M 100.850 116.450 H 97.950 C 97.850 116.450 97.950 116.550 97.950 116.450 V 113.650 C 97.950 113.550 97.850 113.650 97.950 113.650 H 103.750 C 103.850 113.650 103.750 113.550 103.750 113.650 V 116.450 C 103.750 116.550 103.850 116.450 103.750 116.450 H 100.850 Z" stroke="rgb(0,0,255)" stroke-width="0.20" />
  <path d="M 112.850 116.450 H 109.950 C 109.850 116.450 109.950 116.550 109.950 116.450 V 113.650 C 109.950 113.550 109.850 113.650 109.950 113.650 H 115.750 C 115.850 113.650 115.750 113.550 115.750 113.650 V 116.450 C 115.750 116.550 115.850 116.450 115.750 116.450 H 112.850 Z" stroke="rgb(0,0,255)" stroke-width="0.20" />
  <path d="M 124.850 116.450 H 121.950 C 121.850 116.450 121.950 116.550 121.950 116.450 V 113.650 C 121.950 113.550 121.850 113.650 121.950 113.650 H 127.750 C 127.850 113.650 127.750 113.550 127.750 113.650 V 116.450 C 127.750 116.550 127.850 116.450 127.750 116.450 H 124.850 Z" stroke="rgb(0,0,255)" stroke-width="0.20" />
  <path d="M 136.850 116.450 H 133.950 C 133.850 116.450 133.950 116.550 133.950 116.450 V 113.650 C 133.950 113.550 133.850 113.650 133.950 113.650 H 139.750 C 139.850 113.650 139.750 113.550 139.750 113.650 V 116.450 C 139.750 116.550 139.850 116.450 139.750 116.450 H 136.850 Z" stroke="rgb(0,0,255)" stroke-width="0.20" />
  <path d="M 148.850 116.450 H 145.950 C 145.850 116.450 145.950 116.550 145.950 116.450 V 113.650 C 145.950 113.550 145.850 113.650 145.950 113.650 H 151.750 C 151.850 113.650 151.750 113.550 151.750 113.650 V 116.450 C 151.750 116.550 151.850 116.450 151.750 116.450 H 148.850 Z" stroke="rgb(0,0,255)" stroke-width="0.20" />
  <path d="M 160.850 116.450 H 157.950 C 157.850 116.450 157.950 116.550 157.950 116.450 V 113.650 C 157.950 113.550 157.850 113.650 157.950 113.650 H 163.750 C 163.850 113.650 163.750 113.550 163.750 113.650 V 116.450 C 163.750 116.550 163.850 116.450 163.750 116.450 H 160.850 Z" stroke="rgb(0,0,255)" stroke-width="0.20" />
  <path d="M 16.850 120.100 H 172.850 H 179.300 C 179.355 120.100 179.400 120.055 179.400 120.000 V 113.550 V 16.550 V 10.100 C 179.400 10.045 179.355 10.000 179.300 10.000 H 172.850 H 16.850 H 10.400 C 10.345 10.000 10.300 10.045 10.300 10.100 V 16.550 V 113.550 V 120.000 C 10.300 120.055 10.345 120.100 10.400 120.100 H 16.850 Z" stroke="rgb(0,0,0)" stroke-width="0.20" />
  <path d="M 175.750 101.050 V 103.950 C 175.750 104.050 175.850 103.950 175.750 103.950 H 172.950 C 172.850 103.950 172.950 104.050 172.950 103.950 V 98.150 C 172.950 98.050 172.850 98.150 172.950 98.150 H 175.750 C 175.850 98.150 175.750 98.050 175.750 98.150 V 101.050 Z" stroke="rgb(0,0,255)" stroke-width="0.20" />
  <path d="M 175.750 89.050 V 91.950 C 175.750 92.050 175.850 91.950 175.750 91.950 H 172.950 C 172.850 91.950 172.950 92.050 172.950 91.950 V 86.150 C 172.950 86.050 172.850 86.150 172.950 86.150 H 175.750 C 175.850 86.150 175.750 86.050 175.750 86.150 V 89.050 Z" stroke="rgb(0,0,255)" stroke-width="0.20" />
  <path d="M 175.750 77.050 V 79.950 C 175.750 80.050 175.850 79.950 175.750 79.950 H 172.950 C 172.850 79.950 172.950 80.050 172.950 79.950 V 74.150 C 172.950 74.050 172.850 74.150 172.950 74.150 H 175.750 C 175.850 74.150 175.750 74.050 175.750 74.150 V 77.050 Z" stroke="rgb(0,0,255)" stroke-width="0.20" />
  <path d="M 175.750 65.050 V 67.950 C 175.750 68.050 175.850 67.950 175.750 67.950 H 172.950 C 172.850 67.950 172.950 68.050 172.950 67.950 V 62.150 C 172.950 62.050 172.850 62.150 172.950 62.150 H 175.750 C 175.850 62.150 175.750 62.050 175.750 62.150 V 65.050 Z" stroke="rgb(0,0,255)" stroke-width="0.20" />
  <path d="M 175.750 53.050 V 55.950 C 175.750 56.050 175.850 55.950 175.750 55.950 H 172.950 C 172.850 55.950 172.950 56.050 172.950 55.950 V 50.150 C 172.950 50.050 172.850 50.150 172.950 50.150 H 175.750 C 175.850 50.150 175.750 50.050 175.750 50.150 V 53.050 Z" stroke="rgb(0,0,255)" stroke-width="0.20" />
  <path d="M 175.750 41.050 V 43.950 C 175.750 44.050 175.850 43.950 175.750 43.950 H 172.950 C 172.850 43.950 172.950 44.050 172.950 43.950 V 38.150 C 172.950 38.050 172.850 38.150 172.950 38.150 H 175.750 C 175.850 38.150 175.750 38.050 175.750 38.150 V 41.050 Z" stroke="rgb(0,0,255)" stroke-width="0.20" />
  <path d="M 175.750 29.050 V 31.950 C 175.750 32.050 175.850 31.950 175.750 31.950 H 172.950 C 172.850 31.950 172.950 32.050 172.950 31.950 V 26.150 C 172.950 26.050 172.850 26.150 172.950 26.150 H 175.750 C 175.850 26.150 175.750 26.050 175.750 26.150 V 29.050 Z" stroke="rgb(0,0,255)" stroke-width="0.20" />
  <path d="M 160.850 13.650 H 163.750 C 163.850 13.650 163.750 13.550 163.750 13.650 V 16.450 C 163.750 16.550 163.850 16.450 163.750 16.450 H 157.950 C 157.850 16.450 157.950 16.550 157.950 16.450 V 13.650 C 157.950 13.550 157.850 13.650 157.950 13.650 H 160.850 Z" stroke="rgb(0,0,255)" stroke-width="0.20" />
  <path d="M 148.850 13.650 H 151.750 C 151.850 13.650 151.750 13.550 151.750 13.650 V 16.450 C 151.750 16.550 151.850 16.450 151.750 16.450 H 145.950 C 145.850 16.450 145.950 16.550 145.950 16.450 V 13.650 C 145.950 13.550 145.850 13.650 145.950 13.650 H 148.850 Z" stroke="rgb(0,0,255)" stroke-width="0.20" />
  <path d="M 136.850 13.650 H 139.750 C 139.850 13.650 139.750 13.550 139.750 13.650 V 16.450 C 139.750 16.550 139.850 16.450 139.750 16.450 H 133.950 C 133.850 16.450 133.950 16.550 133.950 16.450 V 13.650 C 133.950 13.550 133.850 13.650 133.950 13.650 H 136.850 Z" stroke="rgb(0,0,255)" stroke-width="0.20" />
  <path d="M 124.850 13.650 H 127.750 C 127.850 13.650 127.750 13.550 127.750 13.650 V 16.450 C 127.750 16.550 127.850 16.450 127.750 16.450 H 121.950 C 121.850 16.450 121.950 16.550 121.950 16.450 V 13.650 C 121.950 13.550 121.850 13.650 121.950 13.650 H 124.850 Z" stroke="rgb(0,0,255)" stroke-width="0.20" />
  <path d="M 112.850 13.650 H 115.750 C 115.850 13.650 115.750 13.550 115.750 13.650 V 16.450 C 115.750 16.550 115.850 16.450 115.750 16.450 H 109.950 C 109.850 16.450 109.950 16.550 109.950 16.450 V 13.650 C 109.950 13.550 109.850 13.650 109.950 13.650 H 112.850 Z" stroke="rgb(0,0,255)" stroke-width="0.20" />
  <path d="M 100.850 13.650 H 103.750 C 103.850 13.650 103.750 13.550 103.750 13.650 V 16.450 C 103.750 16.550 103.850 16.450 103.750 16.450 H 97.950 C 97.850 16.450 97.950 16.550 97.950 16.450 V 13.650 C 97.950 13.550 97.850 13.650 97.950 13.650 H 100.850 Z" stroke="rgb(0,0,255)" stroke-width="0.20" />
  <path d="M 88.850 13.650 H 91.750 C 91.850 13.650 91.750 13.550 91.750 13.650 V 16.450 C 91.750 16.550 91.850 16.450 91.750 16.450 H 85.950 C 85.850 16.450 85.950 16.550 85.950 16.450 V 13.650 C 85.950 13.550 85.850 13.650 85.950 13.650 H 88.850 Z" stroke="rgb(0,0,255)" stroke-width="0.20" />
  <path d="M 76.850 13.650 H 79.750 C 79.850 13.650 79.750 13.550 79.750 13.650 V 16.450 C 79.750 16.550 79.850 16.450 79.750 16.450 H 73.950 C 73.850 16.450 73.950 16.550 73.950 16.450 V 13.650 C 73.950 13.550 73.850 13.650 73.950 13.650 H 76.850 Z" stroke="rgb(0,0,255)" stroke-width="0.20" />
  <path d="M 64.850 13.650 H 67.750 C 67.850 13.650 67.750 13.550 67.750 13.650 V 16.450 C 67.750 16.550 67.850 16.450 67.750 16.450 H 61.950 C 61.850 16.450 61.950 16.550 61.950 16.450 V 13.650 C 61.950 13.550 61.850 13.650 61.950 13.650 H 64.850 Z" stroke="rgb(0,0,255)" stroke-width="0.20" />
  <path d="M 52.850 13.650 H 55.750 C 55.850 13.650 55.750 13.550 55.750 13.650 V 16.450 C 55.750 16.550 55.850 16.450 55.750 16.450 H 49.950 C 49.850 16.450 49.950 16.550 49.950 16.450 V 13.650 C 49.950 13.550 49.850 13.650 49.950 13.650 H 52.850 Z" stroke="rgb(0,0,255)" stroke-width="0.20" />
  <path d="M 40.850 13.650 H 43.750 C 43.850 13.650 43.750 13.550 43.750 13.650 V 16.450 C 43.750 16.550 43.850 16.450 43.750 16.450 H 37.950 C 37.850 16.450 37.950 16.550 37.950 16.450 V 13.650 C 37.950 13.550 37.850 13.650 37.950 13.650 H 40.850 Z" stroke="rgb(0,0,255)" stroke-width="0.20" />
  <path d="M 28.850 13.650 H 31.750 C 31.850 13.650 31.750 13.550 31.750 13.650 V 16.450 C 31.750 16.550 31.850 16.450 31.750 16.450 H 25.950 C 25.850 16.450 25.950 16.550 25.950 16.450 V 13.650 C 25.950 13.550 25.850 13.650 25.950 13.650 H 28.850 Z" stroke="rgb(0,0,255)" stroke-width="0.20" />
  <path d="M 13.950 29.050 V 26.150 C 13.950 26.050 13.850 26.150 13.950 26.150 H 16.750 C 16.850 26.150 16.750 26.050 16.750 26.150 V 31.950 C 16.750 32.050 16.850 31.950 16.750 31.950 H 13.950 C 13.850 31.950 13.950 32.050 13.950 31.950 V 29.050 Z" stroke="rgb(0,0,255)" stroke-width="0.20" />
  <path d="M 13.950 41.050 V 38.150 C 13.950 38.050 13.850 38.150 13.950 38.150 H 16.750 C 16.850 38.150 16.750 38.050 16.750 38.150 V 43.950 C 16.750 44.050 16.850 43.950 16.750 43.950 H 13.950 C 13.850 43.950 13.950 44.050 13.950 43.950 V 41.050 Z" stroke="rgb(0,0,255)" stroke-width="0.20" />
  <path d="M 13.950 53.050 V 50.150 C 13.950 50.050 13.850 50.150 13.950 50.150 H 16.750 C 16.850 50.150 16.750 50.050 16.750 50.150 V 55.950 C 16.750 56.050 16.850 55.950 16.750 55.950 H 13.950 C 13.850 55.950 13.950 56.050 13.950 55.950 V 53.050 Z" stroke="rgb(0,0,255)" stroke-width="0.20" />
  <path d="M 13.950 65.050 V 62.150 C 13.950 62.050 13.850 62.150 13.950 62.150 H 16.750 C 16.850 62.150 16.750 62.050 16.750 62.150 V 67.950 C 16.750 68.050 16.850 67.950 16.750 67.950 H 13.950 C 13.850 67.950 13.950 68.050 13.950 67.950 V 65.050 Z" stroke="rgb(0,0,255)" stroke-width="0.20" />
  <path d="M 13.950 77.050 V 74.150 C 13.950 74.050 13.850 74.150 13.950 74.150 H 16.750 C 16.850 74.150 16.750 74.050 16.750 74.150 V 79.950 C 16.750 80.050 16.850 79.950 16.750 79.950 H 13.950 C 13.850 79.950 13.950 80.050 13.950 79.950 V 77.050 Z" stroke="rgb(0,0,255)" stroke-width="0.20" />
  <path d="M 13.950 89.050 V 86.150 C 13.950 86.050 13.850 86.150 13.950 86.150 H 16.750 C 16.850 86.150 16.750 86.050 16.750 86.150 V 91.950 C 16.750 92.050 16.850 91.950 16.750 91.950 H 13.950 C 13.850 91.950 13.950 92.050 13.950 91.950 V 89.050 Z" stroke="rgb(0,0,255)" stroke-width="0.20" />
  <path d="M 13.950 101.050 V 98.150 C 13.950 98.050 13.850 98.150 13.950 98.150 H 16.750 C 16.850 98.150 16.750 98.050 16.750 98.150 V 103.950 C 16.750 104.050 16.850 103.950 16.750 103.950 H 13.950 C 13.850 103.950 13.950 104.050 13.950 103.950 V 101.050 Z" stroke="rgb(0,0,255)" stroke-width="0.20" />
</g>
<g id="p-10" style="fill:none;stroke-linecap:round;stroke-linejoin:round;">
  <path d="M 184.000 120.100 H 190.450 C 190.505 120.100 190.550 120.055 190.550 120.000 V 117.100 C 190.550 117.000 190.450 117.100 190.550 117.100 H 196.350 C 196.450 117.100 196.350 117.000 196.350 117.100 V 120.000 C 196.350 120.055 196.395 120.100 196.450 120.100 H 202.450 C 202.505 120.100 202.550 120.055 202.550 120.000 V 117.100 C 202.550 117.000 202.450 117.100 202.550 117.100 H 208.350 C 208.450 117.100 208.350 117.000 208.350 117.100 V 120.000 C 208.350 120.055 208.395 120.100 208.450 120.100 H 214.450 C 214.505 120.100 214.550 120.055 214.550 120.000 V 117.100 C 214.550 117.000 214.450 117.100 214.550 117.100 H 220.350 C 220.450 117.100 220.350 117.000 220.350 117.100 V 120.000 C 220.350 120.055 220.395 120.100 220.450 120.100 H 226.450 C 226.505 120.100 226.550 120.055 226.550 120.000 V 117.100 C 226.550 117.000 226.450 117.100 226.550 117.100 H 232.350 C 232.450 117.100 232.350 117.000 232.350 117.100 V 120.000 C 232.350 120.055 232.395 120.100 232.450 120.100 H 238.450 C 238.505 120.100 238.550 120.055 238.550 120.000 V 117.100 C 238.550 117.000 238.450 117.100 238.550 117.100 H 244.350 C 244.450 117.100 244.350 117.000 244.350 117.100 V 120.000 C 244.350 120.055 244.395 120.100 244.450 120.100 H 250.450 C 250.505 120.100 250.550 120.055 250.550 120.000 V 117.100 C 250.550 117.000 250.450 117.100 250.550 117.100 H 256.350 C 256.450 117.100 256.350 117.000 256.350 117.100 V 120.000 C 256.350 120.055 256.395 120.100 256.450 120.100 H 262.450 C 262.505 120.100 262.550 120.055 262.550 120.000 V 117.100 C 262.550 117.000 262.450 117.100 262.550 117.100 H 268.350 C 268.450 117.100 268.350 117.000 268.350 117.100 V 120.000 C 268.350 120.055 268.395 120.100 268.450 120.100 H 274.450 C 274.505 120.100 274.550 120.055 274.550 120.000 V 117.100 C 274.550 117.000 274.450 117.100 274.550 117.100 H 280.350 C 280.450 117.100 280.350 117.000 280.350 117.100 V 120.000 C 280.350 120.055 280.395 120.100 280.450 120.100 H 286.450 C 286.505 120.100 286.550 120.055 286.550 120.000 V 117.100 C 286.550 117.000 286.450 117.100 286.550 117.100 H 292.350 C 292.450 117.100 292.350 117.000 292.350 117.100 V 120.000 C 292.350 120.055 292.395 120.100 292.450 120.100 H 298.450 C 298.505 120.100 298.550 120.055 298.550 120.000 V 117.100 C 298.550 117.000 298.450 117.100 298.550 117.100 H 304.350 C 304.450 117.100 304.350 117.000 304.350 117.100 V 120.000 C 304.350 120.055 304.395 120.100 304.450 120.100 H 310.450 C 310.505 120.100 310.550 120.055 310.550 120.000 V 117.100 C 310.550 117.000 310.450 117.100 310.550 117.100 H 316.350 C 316.450 117.100 316.350 117.000 316.350 117.100 V 120.000 C 316.350 120.055 316.395 120.100 316.450 120.100 H 322.450 C 322.505 120.100 322.550 120.055 322.550 120.000 V 117.100 C 322.550 117.000 322.450 117.100 322.550 117.100 H 328.350 C 328.450 117.100 328.350 117.000 328.350 117.100 V 120.000 C 328.350 120.055 328.395 120.100 328.450 120.100 H 334.450 C 334.505 120.100 334.550 120.055 334.550 120.000 V 117.100 C 334.550 117.000 334.450 117.100 334.550 117.100 H 340.350 C 340.450 117.100 340.350 117.000 340.350 117.100 V 120.000 C 340.350 120.055 340.395 120.100 340.450 120.100 H 346.900 H 349.900 C 349.955 120.100 350.000 120.055 350.000 120.000 V 117.000 V 110.050 C 350.000 109.995 349.955 109.950 349.900 109.950 H 347.000 C 346.900 109.950 347.000 110.050 347.000 109.950 V 104.150 C 347.000 104.050 346.900 104.150 347.000 104.150 H 349.900 C 349.955 104.150 350.000 104.105 350.000 104.050 V 98.050 C 350.000 97.995 349.955 97.950 349.900 97.950 H 347.000 C 346.900 97.950 347.000 98.050 347.000 97.950 V 92.150 C 347.000 92.050 346.900 92.150 347.000 92.150 H 349.900 C 349.955 92.150 350.000 92.105 350.000 92.050 V 86.050 C 350.000 85.995 349.955 85.950 349.900 85.950 H 347.000 C 346.900 85.950 347.000 86.050 347.000 85.950 V 80.150 C 347.000 80.050 346.900 80.150 347.000 80.150 H 349.900 C 349.955 80.150 350.000 80.105 350.000 80.050 V 74.050 C 350.000 73.995 349.955 73.950 349.900 73.950 H 347.000 C 346.900 73.950 347.000 74.050 347.000 73.950 V 68.150 C 347.000 68.050 346.900 68.150 347.000 68.150 H 349.900 C 349.955 68.150 350.000 68.105 350.000 68.050 V 62.050 C 350.000 61.995 349.955 61.950 349.900 61.950 H 347.000 C 346.900 61.950 347.000 62.050 347.000 61.950 V 56.150 C 347.000 56.050 346.900 56.150 347.000 56.150 H 349.900 C 349.955 56.150 350.000 56.105 350.000 56.050 V 50.050 C 350.000 49.995 349.955 49.950 349.900 49.950 H 347.000 C 346.900 49.950 347.000 50.050 347.000 49.950 V 44.150 C 347.000 44.050 346.900 44.150 347.000 44.150 H 349.900 C 349.955 44.150 350.000 44.105 350.000 44.050 V 38.050 C 350.000 37.995 349.955 37.950 349.900 37.950 H 347.000 C 346.900 37.950 347.000 38.050 347.000 37.950 V 32.150 C 347.000 32.050 346.900 32.150 347.000 32.150 H 349.900 C 349.955 32.150 350.000 32.105 350.000 32.050 V 26.050 C 350.000 25.995 349.955 25.950 349.900 25.950 H 347.000 C 346.900 25.950 347.000 26.050 347.000 25.950 V 20.150 C 347.000 20.050 346.900 20.150 347.000 20.150 H 349.900 C 349.955 20.150 350.000 20.105 350.000 20.050 V 13.100 V 10.100 C 350.000 10.045 349.955 10.000 349.900 10.000 H 346.900 H 340.450 C 340.395 10.000 340.350 10.045 340.350 10.100 V 13.000 C 340.350 13.100 340.450 13.000 340.350 13.000 H 334.550 C 334.450 13.000 334.550 13.100 334.550 13.000 V 10.100 C 334.550 10.045 334.505 10.000 334.450 10.000 H 328.450 C 328.395 10.000 328.350 10.045 328.350 10.100 V 13.000 C 328.350 13.100 328.450 13.000 328.350 13.000 H 322.550 C 322.450 13.000 322.550 13.100 322.550 13.000 V 10.100 C 322.550 10.045 322.505 10.000 322.450 10.000 H 316.450 C 316.395 10.000 316.350 10.045 316.350 10.100 V 13.000 C 316.350 13.100 316.450 13.000 316.350 13.000 H 310.550 C 310.450 13.000 310.550 13.100 310.550 13.000 V 10.100 C 310.550 10.045 310.505 10.000 310.450 10.000 H 304.450 C 304.395 10.000 304.350 10.045 304.350 10.100 V 13.000 C 304.350 13.100 304.450 13.000 304.350 13.000 H 298.550 C 298.450 13.000 298.550 13.100 298.550 13.000 V 10.100 C 298.550 10.045 298.505 10.000 298.450 10.000 H 292.450 C 292.395 10.000 292.350 10.045 292.350 10.100 V 13.000 C 292.350 13.100 292.450 13.000 292.350 13.000 H 286.550 C 286.450 13.000 286.550 13.100 286.550 13.000 V 10.100 C 286.550 10.045 286.505 10.000 286.450 10.000 H 280.450 C 280.395 10.000 280.350 10.045 280.350 10.100 V 13.000 C 280.350 13.100 280.450 13.000 280.350 13.000 H 274.550 C 274.450 13.000 274.550 13.100 274.550 13.000 V 10.100 C 274.550 10.045 274.505 10.000 274.450 10.000 H 268.450 C 268.395 10.000 268.350 10.045 268.350 10.100 V 13.000 C 268.350 13.100 268.450 13.000 268.350 13.000 H 262.550 C 262.450 13.000 262.550 13.100 262.550 13.000 V 10.100 C 262.550 10.045 262.505 10.000 262.450 10.000 H 256.450 C 256.395 10.000 256.350 10.045 256.350 10.100 V 13.000 C 256.350 13.100 256.450 13.000 256.350 13.000 H 250.550 C 250.450 13.000 250.550 13.100 250.550 13.000 V 10.100 C 250.550 10.045 250.505 10.000 250.450 10.000 H 244.450 C 244.395 10.000 244.350 10.045 244.350 10.100 V 13.000 C 244.350 13.100 244.450 13.000 244.350 13.000 H 238.550 C 238.450 13.000 238.550 13.100 238.550 13.000 V 10.100 C 238.550 10.045 238.505 10.000 238.450 10.000 H 232.450 C 232.395 10.000 232.350 10.045 232.350 10.100 V 13.000 C 232.350 13.100 232.450 13.000 232.350 13.000 H 226.550 C 226.450 13.000 226.550 13.100 226.550 13.000 V 10.100 C 226.550 10.045 226.505 10.000 226.450 10.000 H 220.450 C 220.395 10.000 220.350 10.045 220.350 10.100 V 13.000 C 220.350 13.100 220.450 13.000 220.350 13.000 H 214.550 C 214.450 13.000 214.550 13.100 214.550 13.000 V 10.100 C 214.550 10.045 214.505 10.000 214.450 10.000 H 208.450 C 208.395 10.000 208.350 10.045 208.350 10.100 V 13.000 C 208.350 13.100 208.450 13.000 208.350 13.000 H 202.550 C 202.450 13.000 202.550 13.100 202.550 13.000 V 10.100 C 202.550 10.045 202.505 10.000 202.450 10.000 H 196.450 C 196.395 10.000 196.350 10.045 196.350 10.100 V 13.000 C 196.350 13.100 196.450 13.000 196.350 13.000 H 190.550 C 190.450 13.000 190.550 13.100 190.550 13.000 V 10.100 C 190.550 10.045 190.505 10.000 190.450 10.000 H 184.000 H 181.000 C 180.945 10.000 180.900 10.045 180.900 10.100 V 13.100 V 20.050 C 180.900 20.105 180.945 20.150 181.000 20.150 H 183.900 C 184.000 20.150 183.900 20.050 183.900 20.150 V 25.950 C 183.900 26.050 184.000 25.950 183.900 25.950 H 181.000 C 180.945 25.950 180.900 25.995 180.900 26.050 V 32.050 C 180.900 32.105 180.945 32.150 181.000 32.150 H 183.900 C 184.000 32.150 183.900 32.050 183.900 32.150 V 37.950 C 183.900 38.050 184.000 37.950 183.900 37.950 H 181.000 C 180.945 37.950 180.900 37.995 180.900 38.050 V 44.050 C 180.900 44.105 180.945 44.150 181.000 44.150 H 183.900 C 184.000 44.150 183.900 44.050 183.900 44.150 V 49.950 C 183.900 50.050 184.000 49.950 183.900 49.950 H 181.000 C 180.945 49.950 180.900 49.995 180.900 50.050 V 56.050 C 180.900 56.105 180.945 56.150 181.000 56.150 H 183.900 C 184.000 56.150 183.900 56.050 183.900 56.150 V 61.950 C 183.900 62.050 184.000 61.950 183.900 61.950 H 181.000 C 180.945 61.950 180.900 61.995 180.900 62.050 V 68.050 C 180.900 68.105 180.945 68.150 181.000 68.150 H 183.900 C 184.000 68.150 183.900 68.050 183.900 68.150 V 73.950 C 183.900 74.050 184.000 73.950 183.900 73.950 H 181.000 C 180.945 73.950 180.900 73.995 180.900 74.050 V 80.050 C 180.900 80.105 180.945 80.150 181.000 80.150 H 183.900 C 184.000 80.150 183.900 80.050 183.900 80.150 V 85.950 C 183.900 86.050 184.000 85.950 183.900 85.950 H 181.000 C 180.945 85.950 180.900 85.995 180.900 86.050 V 92.050 C 180.900 92.105 180.945 92.150 181.000 92.150 H 183.900 C 184.000 92.150 183.900 92.050 183.900 92.150 V 97.950 C 183.900 98.050 184.000 97.950 183.900 97.950 H 181.000 C 180.945 97.950 180.900 97.995 180.900 98.050 V 104.050 C 180.900 104.105 180.945 104.150 181.000 104.150 H 183.900 C 184.000 104.150 183.900 104.050 183.900 104.150 V 109.950 C 183.900 110.050 184.000 109.950 183.900 109.950 H 181.000 C 180.945 109.950 180.900 109.995 180.900 110.050 V 117.000 V 120.000 C 180.900 120.055 180.945 120.100 181.000 120.100 H 184.000 Z" stroke="rgb(0,0,0)" stroke-width="0.20" />
</g>
</svg>