<?xml version='1.0' encoding='us-ascii'?>
<svg width="539.20mm" height="277.20mm" viewBox="0.0 0.0 539.20 277.20" xmlns="http://www.w3.org/2000/svg" xmlns:dc="http://purl.org/dc/elements/1.1/" xmlns:cc="http://creativecommons.org/ns#" xmlns:rdf="http://www.w3.org/1999/02/22-rdf-syntax-ns#" xmlns:svg="http://www.w3.org/2000/svg" xmlns:xlink="http://www.w3.org/1999/xlink" xmlns:inkscape="http://www.inkscape.org/namespaces/inkscape">
<!--
TwoPiece - A two piece box where top slips over the bottom half to form 
       the enclosure.
    



Set *hi* larger than *h* to leave gap between the inner and outer shell. This can be used to make opening the box easier. Set *hi* smaller to only have a small inner ridge that will allow the content to be momre visible after opening.

![Bottom view](static/samples/TwoPiece2.jpg)



Created with Boxes.py (https://festi.info/boxes.py)
Creation date: 2022-10-13 16:25:16
Command line (remove spaces between dashes): boxes TwoPiece - -FingerJoint_angle=90.0 - -FingerJoint_style=rectangular - -FingerJoint_surroundingspaces=2.0 - -FingerJoint_edge_width=1.0 - -FingerJoint_extra_length=0.0 - -FingerJoint_finger=2.0 - -FingerJoint_play=0.0 - -FingerJoint_space=2.0 - -FingerJoint_width=1.0 - -x=90 - -y=141 - -h=41.0 - -hi=0.0 - -outside=0 - -play=0.15 - -thickness=3.0 - -format=svg - -tabs=0.0 - -debug=0 - -labels=0 - -labels=1 - -reference=100 - -inner_corners=loop - -burn=0.1
Url: http://www.festi.info/TwoPiece?FingerJoint_angle=90.0&FingerJoint_style=rectangular&FingerJoint_surroundingspaces=2.0&FingerJoint_edge_width=1.0&FingerJoint_extra_length=0.0&FingerJoint_finger=2.0&FingerJoint_play=0.0&FingerJoint_space=2.0&FingerJoint_width=1.0&x=90&y=141&h=41.0&hi=0.0&outside=0&play=0.15&thickness=3.0&format=svg&tabs=0.0&debug=0&labels=0&labels=1&reference=100&inner_corners=loop&burn=0.1&render=1
SettingsUrl: http://www.festi.info/TwoPiece?FingerJoint_angle=90.0&FingerJoint_style=rectangular&FingerJoint_surroundingspaces=2.0&FingerJoint_edge_width=1.0&FingerJoint_extra_length=0.0&FingerJoint_finger=2.0&FingerJoint_play=0.0&FingerJoint_space=2.0&FingerJoint_width=1.0&x=90&y=141&h=41.0&hi=0.0&outside=0&play=0.15&thickness=3.0&format=svg&tabs=0.0&debug=0&labels=0&labels=1&reference=100&inner_corners=loop&burn=0.1
-->
<title>TwoPiece</title>
<metadata>
<rdf:RDF><cc:Work>
<dc:title>Box - TwoPiece</dc:title>
<dc:date>2022-10-13 16:25:16</dc:date>
<dc:source>http://www.festi.info/TwoPiece?FingerJoint_angle=90.0&amp;FingerJoint_style=rectangular&amp;FingerJoint_surroundingspaces=2.0&amp;FingerJoint_edge_width=1.0&amp;FingerJoint_extra_length=0.0&amp;FingerJoint_finger=2.0&amp;FingerJoint_play=0.0&amp;FingerJoint_space=2.0&amp;FingerJoint_width=1.0&amp;x=90&amp;y=141&amp;h=41.0&amp;hi=0.0&amp;outside=0&amp;play=0.15&amp;thickness=3.0&amp;format=svg&amp;tabs=0.0&amp;debug=0&amp;labels=0&amp;labels=1&amp;reference=100&amp;inner_corners=loop&amp;burn=0.1&amp;render=1</dc:source>
<dc:description>A two piece box where top slips over the bottom half to form 
       the enclosure.
    


Set *hi* larger than *h* to leave gap between the inner and outer shell. This can be used to make opening the box easier. Set *hi* smaller to only have a small inner ridge that will allow the content to be momre visible after opening.

![Bottom view](static/samples/TwoPiece2.jpg)


Created with Boxes.py (https://festi.info/boxes.py)
Command line: boxes TwoPiece --FingerJoint_angle=90.0 --FingerJoint_style=rectangular --FingerJoint_surroundingspaces=2.0 --FingerJoint_edge_width=1.0 --FingerJoint_extra_length=0.0 --FingerJoint_finger=2.0 --FingerJoint_play=0.0 --FingerJoint_space=2.0 --FingerJoint_width=1.0 --x=90 --y=141 --h=41.0 --hi=0.0 --outside=0 --play=0.15 --thickness=3.0 --format=svg --tabs=0.0 --debug=0 --labels=0 --labels=1 --reference=100 --inner_corners=loop --burn=0.1
Url: http://www.festi.info/TwoPiece?FingerJoint_angle=90.0&amp;FingerJoint_style=rectangular&amp;FingerJoint_surroundingspaces=2.0&amp;FingerJoint_edge_width=1.0&amp;FingerJoint_extra_length=0.0&amp;FingerJoint_finger=2.0&amp;FingerJoint_play=0.0&amp;FingerJoint_space=2.0&amp;FingerJoint_width=1.0&amp;x=90&amp;y=141&amp;h=41.0&amp;hi=0.0&amp;outside=0&amp;play=0.15&amp;thickness=3.0&amp;format=svg&amp;tabs=0.0&amp;debug=0&amp;labels=0&amp;labels=1&amp;reference=100&amp;inner_corners=loop&amp;burn=0.1&amp;render=1
SettingsUrl: http://www.festi.info/TwoPiece?FingerJoint_angle=90.0&amp;FingerJoint_style=rectangular&amp;FingerJoint_surroundingspaces=2.0&amp;FingerJoint_edge_width=1.0&amp;FingerJoint_extra_length=0.0&amp;FingerJoint_finger=2.0&amp;FingerJoint_play=0.0&amp;FingerJoint_space=2.0&amp;FingerJoint_width=1.0&amp;x=90&amp;y=141&amp;h=41.0&amp;hi=0.0&amp;outside=0&amp;play=0.15&amp;thickness=3.0&amp;format=svg&amp;tabs=0.0&amp;debug=0&amp;labels=0&amp;labels=1&amp;reference=100&amp;inner_corners=loop&amp;burn=0.1
</dc:description>
</cc:Work></rdf:RDF></metadata>
<g id="p-0" style="fill:none;stroke-linecap:round;stroke-linejoin:round;">
  <path d="M 10.400 267.200 H 110.400 V 257.200 H 10.400 V 267.200 Z" stroke="rgb(0,0,0)" stroke-width="0.20" />
  <text transform="matrix( 1.000 0.000 0.000 1.000 60.400 258.200 )" style="font-family: sans-serif ; font-weight: normal; font-style: normal; fill: rgb(255,0,0)" font-size="8px" text-anchor="middle" dominant-baseline="hanging">100mm, burn:0.10mm</text>
</g>
<g id="p-1" style="fill:none;stroke-linecap:round;stroke-linejoin:round;">
  <path d="M 13.400 252.500 H 19.300 C 19.400 252.500 19.300 252.400 19.300 252.500 V 255.400 C 19.300 255.455 19.345 255.500 19.400 255.500 H 25.400 C 25.455 255.500 25.500 255.455 25.500 255.400 V 252.500 C 25.500 252.400 25.400 252.500 25.500 252.500 H 31.300 C 31.400 252.500 31.300 252.400 31.300 252.500 V 255.400 C 31.300 255.455 31.345 255.500 31.400 255.500 H 37.400 C 37.455 255.500 37.500 255.455 37.500 255.400 V 252.500 C 37.500 252.400 37.400 252.500 37.500 252.500 H 43.300 C 43.400 252.500 43.300 252.400 43.300 252.500 V 255.400 C 43.300 255.455 43.345 255.500 43.400 255.500 H 49.400 C 49.455 255.500 49.500 255.455 49.500 255.400 V 252.500 C 49.500 252.400 49.400 252.500 49.500 252.500 H 55.300 C 55.400 252.500 55.300 252.400 55.300 252.500 V 255.400 C 55.300 255.455 55.345 255.500 55.400 255.500 H 61.400 C 61.455 255.500 61.500 255.455 61.500 255.400 V 252.500 C 61.500 252.400 61.400 252.500 61.500 252.500 H 67.300 C 67.400 252.500 67.300 252.400 67.300 252.500 V 255.400 C 67.300 255.455 67.345 255.500 67.400 255.500 H 73.400 C 73.455 255.500 73.500 255.455 73.500 255.400 V 252.500 C 73.500 252.400 73.400 252.500 73.500 252.500 H 79.300 C 79.400 252.500 79.300 252.400 79.300 252.500 V 255.400 C 79.300 255.455 79.345 255.500 79.400 255.500 H 85.400 C 85.455 255.500 85.500 255.455 85.500 255.400 V 252.500 C 85.500 252.400 85.400 252.500 85.500 252.500 H 91.300 C 91.400 252.500 91.300 252.400 91.300 252.500 V 255.400 C 91.300 255.455 91.345 255.500 91.400 255.500 H 97.400 C 97.455 255.500 97.500 255.455 97.500 255.400 V 252.500 C 97.500 252.400 97.400 252.500 97.500 252.500 H 103.400 H 106.400 C 106.455 252.500 106.500 252.455 106.500 252.400 V 240.900 C 106.500 240.845 106.455 240.800 106.400 240.800 H 103.500 C 103.400 240.800 103.500 240.900 103.500 240.800 V 235.000 C 103.500 234.900 103.400 235.000 103.500 235.000 H 106.400 C 106.455 235.000 106.500 234.955 106.500 234.900 V 228.900 C 106.500 228.845 106.455 228.800 106.400 228.800 H 103.500 C 103.400 228.800 103.500 228.900 103.500 228.800 V 223.000 C 103.500 222.900 103.400 223.000 103.500 223.000 H 106.400 C 106.455 223.000 106.500 222.955 106.500 222.900 V 211.400 C 106.500 211.345 106.455 211.300 106.400 211.300 H 103.400 H 13.400 H 10.400 C 10.345 211.300 10.300 211.345 10.300 211.400 V 222.900 C 10.300 222.955 10.345 223.000 10.400 223.000 H 13.300 C 13.400 223.000 13.300 222.900 13.300 223.000 V 228.800 C 13.300 228.900 13.400 228.800 13.300 228.800 H 10.400 C 10.345 228.800 10.300 228.845 10.300 228.900 V 234.900 C 10.300 234.955 10.345 235.000 10.400 235.000 H 13.300 C 13.400 235.000 13.300 234.900 13.300 235.000 V 240.800 C 13.300 240.900 13.400 240.800 13.300 240.800 H 10.400 C 10.345 240.800 10.300 240.845 10.300 240.900 V 252.400 C 10.300 252.455 10.345 252.500 10.400 252.500 H 13.400 Z" stroke="rgb(0,0,0)" stroke-width="0.20" />
</g>
<g id="p-2" style="fill:none;stroke-linecap:round;stroke-linejoin:round;">
  <path d="M 111.100 252.500 H 118.500 C 118.600 252.500 118.500 252.400 118.500 252.500 V 255.400 C 118.500 255.455 118.545 255.500 118.600 255.500 H 124.600 C 124.655 255.500 124.700 255.455 124.700 255.400 V 252.500 C 124.700 252.400 124.600 252.500 124.700 252.500 H 130.500 C 130.600 252.500 130.500 252.400 130.500 252.500 V 255.400 C 130.500 255.455 130.545 255.500 130.600 255.500 H 136.600 C 136.655 255.500 136.700 255.455 136.700 255.400 V 252.500 C 136.700 252.400 136.600 252.500 136.700 252.500 H 142.500 C 142.600 252.500 142.500 252.400 142.500 252.500 V 255.400 C 142.500 255.455 142.545 255.500 142.600 255.500 H 148.600 C 148.655 255.500 148.700 255.455 148.700 255.400 V 252.500 C 148.700 252.400 148.600 252.500 148.700 252.500 H 154.500 C 154.600 252.500 154.500 252.400 154.500 252.500 V 255.400 C 154.500 255.455 154.545 255.500 154.600 255.500 H 160.600 C 160.655 255.500 160.700 255.455 160.700 255.400 V 252.500 C 160.700 252.400 160.600 252.500 160.700 252.500 H 166.500 C 166.600 252.500 166.500 252.400 166.500 252.500 V 255.400 C 166.500 255.455 166.545 255.500 166.600 255.500 H 172.600 C 172.655 255.500 172.700 255.455 172.700 255.400 V 252.500 C 172.700 252.400 172.600 252.500 172.700 252.500 H 178.500 C 178.600 252.500 178.500 252.400 178.500 252.500 V 255.400 C 178.500 255.455 178.545 255.500 178.600 255.500 H 184.600 C 184.655 255.500 184.700 255.455 184.700 255.400 V 252.500 C 184.700 252.400 184.600 252.500 184.700 252.500 H 190.500 C 190.600 252.500 190.500 252.400 190.500 252.500 V 255.400 C 190.500 255.455 190.545 255.500 190.600 255.500 H 196.600 C 196.655 255.500 196.700 255.455 196.700 255.400 V 252.500 C 196.700 252.400 196.600 252.500 196.700 252.500 H 202.500 C 202.600 252.500 202.500 252.400 202.500 252.500 V 255.400 C 202.500 255.455 202.545 255.500 202.600 255.500 H 208.600 C 208.655 255.500 208.700 255.455 208.700 255.400 V 252.500 C 208.700 252.400 208.600 252.500 208.700 252.500 H 214.500 C 214.600 252.500 214.500 252.400 214.500 252.500 V 255.400 C 214.500 255.455 214.545 255.500 214.600 255.500 H 220.600 C 220.655 255.500 220.700 255.455 220.700 255.400 V 252.500 C 220.700 252.400 220.600 252.500 220.700 252.500 H 226.500 C 226.600 252.500 226.500 252.400 226.500 252.500 V 255.400 C 226.500 255.455 226.545 255.500 226.600 255.500 H 232.600 C 232.655 255.500 232.700 255.455 232.700 255.400 V 252.500 C 232.700 252.400 232.600 252.500 232.700 252.500 H 238.500 C 238.600 252.500 238.500 252.400 238.500 252.500 V 255.400 C 238.500 255.455 238.545 255.500 238.600 255.500 H 244.600 C 244.655 255.500 244.700 255.455 244.700 255.400 V 252.500 C 244.700 252.400 244.600 252.500 244.700 252.500 H 252.100 C 252.155 252.500 252.200 252.455 252.200 252.400 V 241.000 C 252.200 240.900 252.100 241.000 252.200 241.000 H 255.100 C 255.155 241.000 255.200 240.955 255.200 240.900 V 234.900 C 255.200 234.845 255.155 234.800 255.100 234.800 H 252.200 C 252.100 234.800 252.200 234.900 252.200 234.800 V 229.000 C 252.200 228.900 252.100 229.000 252.200 229.000 H 255.100 C 255.155 229.000 255.200 228.955 255.200 228.900 V 222.900 C 255.200 222.845 255.155 222.800 255.100 222.800 H 252.200 C 252.100 222.800 252.200 222.900 252.200 222.800 V 211.400 C 252.200 211.345 252.155 211.300 252.100 211.300 H 111.100 C 111.045 211.300 111.000 211.345 111.000 211.400 V 222.800 C 111.000 222.900 111.100 222.800 111.000 222.800 H 108.100 C 108.045 222.800 108.000 222.845 108.000 222.900 V 228.900 C 108.000 228.955 108.045 229.000 108.100 229.000 H 111.000 C 111.100 229.000 111.000 228.900 111.000 229.000 V 234.800 C 111.000 234.900 111.100 234.800 111.000 234.800 H 108.100 C 108.045 234.800 108.000 234.845 108.000 234.900 V 240.900 C 108.000 240.955 108.045 241.000 108.100 241.000 H 111.000 C 111.100 241.000 111.000 240.900 111.000 241.000 V 252.400 C 111.000 252.455 111.045 252.500 111.100 252.500 Z" stroke="rgb(0,0,0)" stroke-width="0.20" />
</g>
<g id="p-3" style="fill:none;stroke-linecap:round;stroke-linejoin:round;">
  <path d="M 259.800 252.500 H 265.700 C 265.800 252.500 265.700 252.400 265.700 252.500 V 255.400 C 265.700 255.455 265.745 255.500 265.800 255.500 H 271.800 C 271.855 255.500 271.900 255.455 271.900 255.400 V 252.500 C 271.900 252.400 271.800 252.500 271.900 252.500 H 277.700 C 277.800 252.500 277.700 252.400 277.700 252.500 V 255.400 C 277.700 255.455 277.745 255.500 277.800 255.500 H 283.800 C 283.855 255.500 283.900 255.455 283.900 255.400 V 252.500 C 283.900 252.400 283.800 252.500 283.900 252.500 H 289.700 C 289.800 252.500 289.700 252.400 289.700 252.500 V 255.400 C 289.700 255.455 289.745 255.500 289.800 255.500 H 295.800 C 295.855 255.500 295.900 255.455 295.900 255.400 V 252.500 C 295.900 252.400 295.800 252.500 295.900 252.500 H 301.700 C 301.800 252.500 301.700 252.400 301.700 252.500 V 255.400 C 301.700 255.455 301.745 255.500 301.800 255.500 H 307.800 C 307.855 255.500 307.900 255.455 307.900 255.400 V 252.500 C 307.900 252.400 307.800 252.500 307.900 252.500 H 313.700 C 313.800 252.500 313.700 252.400 313.700 252.500 V 255.400 C 313.700 255.455 313.745 255.500 313.800 255.500 H 319.800 C 319.855 255.500 319.900 255.455 319.900 255.400 V 252.500 C 319.900 252.400 319.800 252.500 319.900 252.500 H 325.700 C 325.800 252.500 325.700 252.400 325.700 252.500 V 255.400 C 325.700 255.455 325.745 255.500 325.800 255.500 H 331.800 C 331.855 255.500 331.900 255.455 331.900 255.400 V 252.500 C 331.900 252.400 331.800 252.500 331.900 252.500 H 337.700 C 337.800 252.500 337.700 252.400 337.700 252.500 V 255.400 C 337.700 255.455 337.745 255.500 337.800 255.500 H 343.800 C 343.855 255.500 343.900 255.455 343.900 255.400 V 252.500 C 343.900 252.400 343.800 252.500 343.900 252.500 H 349.800 H 352.800 C 352.855 252.500 352.900 252.455 352.900 252.400 V 240.900 C 352.900 240.845 352.855 240.800 352.800 240.800 H 349.900 C 349.800 240.800 349.900 240.900 349.900 240.800 V 235.000 C 349.900 234.900 349.800 235.000 349.900 235.000 H 352.800 C 352.855 235.000 352.900 234.955 352.900 234.900 V 228.900 C 352.900 228.845 352.855 228.800 352.800 228.800 H 349.900 C 349.800 228.800 349.900 228.900 349.900 228.800 V 223.000 C 349.900 222.900 349.800 223.000 349.900 223.000 H 352.800 C 352.855 223.000 352.900 222.955 352.900 222.900 V 211.400 C 352.900 211.345 352.855 211.300 352.800 211.300 H 349.800 H 259.800 H 256.800 C 256.745 211.300 256.700 211.345 256.700 211.400 V 222.900 C 256.700 222.955 256.745 223.000 256.800 223.000 H 259.700 C 259.800 223.000 259.700 222.900 259.700 223.000 V 228.800 C 259.700 228.900 259.800 228.800 259.700 228.800 H 256.800 C 256.745 228.800 256.700 228.845 256.700 228.900 V 234.900 C 256.700 234.955 256.745 235.000 256.800 235.000 H 259.700 C 259.800 235.000 259.700 234.900 259.700 235.000 V 240.800 C 259.700 240.900 259.800 240.800 259.700 240.800 H 256.800 C 256.745 240.800 256.700 240.845 256.700 240.900 V 252.400 C 256.700 252.455 256.745 252.500 256.800 252.500 H 259.800 Z" stroke="rgb(0,0,0)" stroke-width="0.20" />
</g>
<g id="p-4" style="fill:none;stroke-linecap:round;stroke-linejoin:round;">
  <path d="M 357.500 252.500 H 364.900 C 365.000 252.500 364.900 252.400 364.900 252.500 V 255.400 C 364.900 255.455 364.945 255.500 365.000 255.500 H 371.000 C 371.055 255.500 371.100 255.455 371.100 255.400 V 252.500 C 371.100 252.400 371.000 252.500 371.100 252.500 H 376.900 C 377.000 252.500 376.900 252.400 376.900 252.500 V 255.400 C 376.900 255.455 376.945 255.500 377.000 255.500 H 383.000 C 383.055 255.500 383.100 255.455 383.100 255.400 V 252.500 C 383.100 252.400 383.000 252.500 383.100 252.500 H 388.900 C 389.000 252.500 388.900 252.400 388.900 252.500 V 255.400 C 388.900 255.455 388.945 255.500 389.000 255.500 H 395.000 C 395.055 255.500 395.100 255.455 395.100 255.400 V 252.500 C 395.100 252.400 395.000 252.500 395.100 252.500 H 400.900 C 401.000 252.500 400.900 252.400 400.900 252.500 V 255.400 C 400.900 255.455 400.945 255.500 401.000 255.500 H 407.000 C 407.055 255.500 407.100 255.455 407.100 255.400 V 252.500 C 407.100 252.400 407.000 252.500 407.100 252.500 H 412.900 C 413.000 252.500 412.900 252.400 412.900 252.500 V 255.400 C 412.900 255.455 412.945 255.500 413.000 255.500 H 419.000 C 419.055 255.500 419.100 255.455 419.100 255.400 V 252.500 C 419.100 252.400 419.000 252.500 419.100 252.500 H 424.900 C 425.000 252.500 424.900 252.400 424.900 252.500 V 255.400 C 424.900 255.455 424.945 255.500 425.000 255.500 H 431.000 C 431.055 255.500 431.100 255.455 431.100 255.400 V 252.500 C 431.100 252.400 431.000 252.500 431.100 252.500 H 436.900 C 437.000 252.500 436.900 252.400 436.900 252.500 V 255.400 C 436.900 255.455 436.945 255.500 437.000 255.500 H 443.000 C 443.055 255.500 443.100 255.455 443.100 255.400 V 252.500 C 443.100 252.400 443.000 252.500 443.100 252.500 H 448.900 C 449.000 252.500 448.900 252.400 448.900 252.500 V 255.400 C 448.900 255.455 448.945 255.500 449.000 255.500 H 455.000 C 455.055 255.500 455.100 255.455 455.100 255.400 V 252.500 C 455.100 252.400 455.000 252.500 455.100 252.500 H 460.900 C 461.000 252.500 460.900 252.400 460.900 252.500 V 255.400 C 460.900 255.455 460.945 255.500 461.000 255.500 H 467.000 C 467.055 255.500 467.100 255.455 467.100 255.400 V 252.500 C 467.100 252.400 467.000 252.500 467.100 252.500 H 472.900 C 473.000 252.500 472.900 252.400 472.900 252.500 V 255.400 C 472.900 255.455 472.945 255.500 473.000 255.500 H 479.000 C 479.055 255.500 479.100 255.455 479.100 255.400 V 252.500 C 479.100 252.400 479.000 252.500 479.100 252.500 H 484.900 C 485.000 252.500 484.900 252.400 484.900 252.500 V 255.400 C 484.900 255.455 484.945 255.500 485.000 255.500 H 491.000 C 491.055 255.500 491.100 255.455 491.100 255.400 V 252.500 C 491.100 252.400 491.000 252.500 491.100 252.500 H 498.500 C 498.555 252.500 498.600 252.455 498.600 252.400 V 241.000 C 498.600 240.900 498.500 241.000 498.600 241.000 H 501.500 C 501.555 241.000 501.600 240.955 501.600 240.900 V 234.900 C 501.600 234.845 501.555 234.800 501.500 234.800 H 498.600 C 498.500 234.800 498.600 234.900 498.600 234.800 V 229.000 C 498.600 228.900 498.500 229.000 498.600 229.000 H 501.500 C 501.555 229.000 501.600 228.955 501.600 228.900 V 222.900 C 501.600 222.845 501.555 222.800 501.500 222.800 H 498.600 C 498.500 222.800 498.600 222.900 498.600 222.800 V 211.400 C 498.600 211.345 498.555 211.300 498.500 211.300 H 357.500 C 357.445 211.300 357.400 211.345 357.400 211.400 V 222.800 C 357.400 222.900 357.500 222.800 357.400 222.800 H 354.500 C 354.445 222.800 354.400 222.845 354.400 222.900 V 228.900 C 354.400 228.955 354.445 229.000 354.500 229.000 H 357.400 C 357.500 229.000 357.400 228.900 357.400 229.000 V 234.800 C 357.400 234.900 357.500 234.800 357.400 234.800 H 354.500 C 354.445 234.800 354.400 234.845 354.400 234.900 V 240.900 C 354.400 240.955 354.445 241.000 354.500 241.000 H 357.400 C 357.500 241.000 357.400 240.900 357.400 241.000 V 252.400 C 357.400 252.455 357.445 252.500 357.500 252.500 Z" stroke="rgb(0,0,0)" stroke-width="0.20" />
</g>
<g id="p-5" style="fill:none;stroke-linecap:round;stroke-linejoin:round;">
  <path d="M 13.400 206.800 H 22.750 C 22.850 206.800 22.750 206.700 22.750 206.800 V 209.700 C 22.750 209.755 22.795 209.800 22.850 209.800 H 28.850 C 28.905 209.800 28.950 209.755 28.950 209.700 V 206.800 C 28.950 206.700 28.850 206.800 28.950 206.800 H 34.750 C 34.850 206.800 34.750 206.700 34.750 206.800 V 209.700 C 34.750 209.755 34.795 209.800 34.850 209.800 H 40.850 C 40.905 209.800 40.950 209.755 40.950 209.700 V 206.800 C 40.950 206.700 40.850 206.800 40.950 206.800 H 46.750 C 46.850 206.800 46.750 206.700 46.750 206.800 V 209.700 C 46.750 209.755 46.795 209.800 46.850 209.800 H 52.850 C 52.905 209.800 52.950 209.755 52.950 209.700 V 206.800 C 52.950 206.700 52.850 206.800 52.950 206.800 H 58.750 C 58.850 206.800 58.750 206.700 58.750 206.800 V 209.700 C 58.750 209.755 58.795 209.800 58.850 209.800 H 64.850 C 64.905 209.800 64.950 209.755 64.950 209.700 V 206.800 C 64.950 206.700 64.850 206.800 64.950 206.800 H 70.750 C 70.850 206.800 70.750 206.700 70.750 206.800 V 209.700 C 70.750 209.755 70.795 209.800 70.850 209.800 H 76.850 C 76.905 209.800 76.950 209.755 76.950 209.700 V 206.800 C 76.950 206.700 76.850 206.800 76.950 206.800 H 82.750 C 82.850 206.800 82.750 206.700 82.750 206.800 V 209.700 C 82.750 209.755 82.795 209.800 82.850 209.800 H 88.850 C 88.905 209.800 88.950 209.755 88.950 209.700 V 206.800 C 88.950 206.700 88.850 206.800 88.950 206.800 H 94.750 C 94.850 206.800 94.750 206.700 94.750 206.800 V 209.700 C 94.750 209.755 94.795 209.800 94.850 209.800 H 100.850 C 100.905 209.800 100.950 209.755 100.950 209.700 V 206.800 C 100.950 206.700 100.850 206.800 100.950 206.800 H 110.300 H 113.300 C 113.355 206.800 113.400 206.755 113.400 206.700 V 195.200 C 113.400 195.145 113.355 195.100 113.300 195.100 H 110.400 C 110.300 195.100 110.400 195.200 110.400 195.100 V 189.300 C 110.400 189.200 110.300 189.300 110.400 189.300 H 113.300 C 113.355 189.300 113.400 189.255 113.400 189.200 V 183.200 C 113.400 183.145 113.355 183.100 113.300 183.100 H 110.400 C 110.300 183.100 110.400 183.200 110.400 183.100 V 177.300 C 110.400 177.200 110.300 177.300 110.400 177.300 H 113.300 C 113.355 177.300 113.400 177.255 113.400 177.200 V 165.700 C 113.400 165.645 113.355 165.600 113.300 165.600 H 110.300 H 13.400 H 10.400 C 10.345 165.600 10.300 165.645 10.300 165.700 V 177.200 C 10.300 177.255 10.345 177.300 10.400 177.300 H 13.300 C 13.400 177.300 13.300 177.200 13.300 177.300 V 183.100 C 13.300 183.200 13.400 183.100 13.300 183.100 H 10.400 C 10.345 183.100 10.300 183.145 10.300 183.200 V 189.200 C 10.300 189.255 10.345 189.300 10.400 189.300 H 13.300 C 13.400 189.300 13.300 189.200 13.300 189.300 V 195.100 C 13.300 195.200 13.400 195.100 13.300 195.100 H 10.400 C 10.345 195.100 10.300 195.145 10.300 195.200 V 206.700 C 10.300 206.755 10.345 206.800 10.400 206.800 H 13.400 Z" stroke="rgb(0,0,0)" stroke-width="0.20" />
</g>
<g id="p-6" style="fill:none;stroke-linecap:round;stroke-linejoin:round;">
  <path d="M 118.000 206.800 H 128.850 C 128.950 206.800 128.850 206.700 128.850 206.800 V 209.700 C 128.850 209.755 128.895 209.800 128.950 209.800 H 134.950 C 135.005 209.800 135.050 209.755 135.050 209.700 V 206.800 C 135.050 206.700 134.950 206.800 135.050 206.800 H 140.850 C 140.950 206.800 140.850 206.700 140.850 206.800 V 209.700 C 140.850 209.755 140.895 209.800 140.950 209.800 H 146.950 C 147.005 209.800 147.050 209.755 147.050 209.700 V 206.800 C 147.050 206.700 146.950 206.800 147.050 206.800 H 152.850 C 152.950 206.800 152.850 206.700 152.850 206.800 V 209.700 C 152.850 209.755 152.895 209.800 152.950 209.800 H 158.950 C 159.005 209.800 159.050 209.755 159.050 209.700 V 206.800 C 159.050 206.700 158.950 206.800 159.050 206.800 H 164.850 C 164.950 206.800 164.850 206.700 164.850 206.800 V 209.700 C 164.850 209.755 164.895 209.800 164.950 209.800 H 170.950 C 171.005 209.800 171.050 209.755 171.050 209.700 V 206.800 C 171.050 206.700 170.950 206.800 171.050 206.800 H 176.850 C 176.950 206.800 176.850 206.700 176.850 206.800 V 209.700 C 176.850 209.755 176.895 209.800 176.950 209.800 H 182.950 C 183.005 209.800 183.050 209.755 183.050 209.700 V 206.800 C 183.050 206.700 182.950 206.800 183.050 206.800 H 188.850 C 188.950 206.800 188.850 206.700 188.850 206.800 V 209.700 C 188.850 209.755 188.895 209.800 188.950 209.800 H 194.950 C 195.005 209.800 195.050 209.755 195.050 209.700 V 206.800 C 195.050 206.700 194.950 206.800 195.050 206.800 H 200.850 C 200.950 206.800 200.850 206.700 200.850 206.800 V 209.700 C 200.850 209.755 200.895 209.800 200.950 209.800 H 206.950 C 207.005 209.800 207.050 209.755 207.050 209.700 V 206.800 C 207.050 206.700 206.950 206.800 207.050 206.800 H 212.850 C 212.950 206.800 212.850 206.700 212.850 206.800 V 209.700 C 212.850 209.755 212.895 209.800 212.950 209.800 H 218.950 C 219.005 209.800 219.050 209.755 219.050 209.700 V 206.800 C 219.050 206.700 218.950 206.800 219.050 206.800 H 224.850 C 224.950 206.800 224.850 206.700 224.850 206.800 V 209.700 C 224.850 209.755 224.895 209.800 224.950 209.800 H 230.950 C 231.005 209.800 231.050 209.755 231.050 209.700 V 206.800 C 231.050 206.700 230.950 206.800 231.050 206.800 H 236.850 C 236.950 206.800 236.850 206.700 236.850 206.800 V 209.700 C 236.850 209.755 236.895 209.800 236.950 209.800 H 242.950 C 243.005 209.800 243.050 209.755 243.050 209.700 V 206.800 C 243.050 206.700 242.950 206.800 243.050 206.800 H 248.850 C 248.950 206.800 248.850 206.700 248.850 206.800 V 209.700 C 248.850 209.755 248.895 209.800 248.950 209.800 H 254.950 C 255.005 209.800 255.050 209.755 255.050 209.700 V 206.800 C 255.050 206.700 254.950 206.800 255.050 206.800 H 265.900 C 265.955 206.800 266.000 206.755 266.000 206.700 V 195.300 C 266.000 195.200 265.900 195.300 266.000 195.300 H 268.900 C 268.955 195.300 269.000 195.255 269.000 195.200 V 189.200 C 269.000 189.145 268.955 189.100 268.900 189.100 H 266.000 C 265.900 189.100 266.000 189.200 266.000 189.100 V 183.300 C 266.000 183.200 265.900 183.300 266.000 183.300 H 268.900 C 268.955 183.300 269.000 183.255 269.000 183.200 V 177.200 C 269.000 177.145 268.955 177.100 268.900 177.100 H 266.000 C 265.900 177.100 266.000 177.200 266.000 177.100 V 165.700 C 266.000 165.645 265.955 165.600 265.900 165.600 H 118.000 C 117.945 165.600 117.900 165.645 117.900 165.700 V 177.100 C 117.900 177.200 118.000 177.100 117.900 177.100 H 115.000 C 114.945 177.100 114.900 177.145 114.900 177.200 V 183.200 C 114.900 183.255 114.945 183.300 115.000 183.300 H 117.900 C 118.000 183.300 117.900 183.200 117.900 183.300 V 189.100 C 117.900 189.200 118.000 189.100 117.900 189.100 H 115.000 C 114.945 189.100 114.900 189.145 114.900 189.200 V 195.200 C 114.900 195.255 114.945 195.300 115.000 195.300 H 117.900 C 118.000 195.300 117.900 195.200 117.900 195.300 V 206.700 C 117.900 206.755 117.945 206.800 118.000 206.800 Z" stroke="rgb(0,0,0)" stroke-width="0.20" />
</g>
<g id="p-7" style="fill:none;stroke-linecap:round;stroke-linejoin:round;">
  <path d="M 273.600 206.800 H 282.950 C 283.050 206.800 282.950 206.700 282.950 206.800 V 209.700 C 282.950 209.755 282.995 209.800 283.050 209.800 H 289.050 C 289.105 209.800 289.150 209.755 289.150 209.700 V 206.800 C 289.150 206.700 289.050 206.800 289.150 206.800 H 294.950 C 295.050 206.800 294.950 206.700 294.950 206.800 V 209.700 C 294.950 209.755 294.995 209.800 295.050 209.800 H 301.050 C 301.105 209.800 301.150 209.755 301.150 209.700 V 206.800 C 301.150 206.700 301.050 206.800 301.150 206.800 H 306.950 C 307.050 206.800 306.950 206.700 306.950 206.800 V 209.700 C 306.950 209.755 306.995 209.800 307.050 209.800 H 313.050 C 313.105 209.800 313.150 209.755 313.150 209.700 V 206.800 C 313.150 206.700 313.050 206.800 313.150 206.800 H 318.950 C 319.050 206.800 318.950 206.700 318.950 206.800 V 209.700 C 318.950 209.755 318.995 209.800 319.050 209.800 H 325.050 C 325.105 209.800 325.150 209.755 325.150 209.700 V 206.800 C 325.150 206.700 325.050 206.800 325.150 206.800 H 330.950 C 331.050 206.800 330.950 206.700 330.950 206.800 V 209.700 C 330.950 209.755 330.995 209.800 331.050 209.800 H 337.050 C 337.105 209.800 337.150 209.755 337.150 209.700 V 206.800 C 337.150 206.700 337.050 206.800 337.150 206.800 H 342.950 C 343.050 206.800 342.950 206.700 342.950 206.800 V 209.700 C 342.950 209.755 342.995 209.800 343.050 209.800 H 349.050 C 349.105 209.800 349.150 209.755 349.150 209.700 V 206.800 C 349.150 206.700 349.050 206.800 349.150 206.800 H 354.950 C 355.050 206.800 354.950 206.700 354.950 206.800 V 209.700 C 354.950 209.755 354.995 209.800 355.050 209.800 H 361.050 C 361.105 209.800 361.150 209.755 361.150 209.700 V 206.800 C 361.150 206.700 361.050 206.800 361.150 206.800 H 370.500 H 373.500 C 373.555 206.800 373.600 206.755 373.600 206.700 V 195.200 C 373.600 195.145 373.555 195.100 373.500 195.100 H 370.600 C 370.500 195.100 370.600 195.200 370.600 195.100 V 189.300 C 370.600 189.200 370.500 189.300 370.600 189.300 H 373.500 C 373.555 189.300 373.600 189.255 373.600 189.200 V 183.200 C 373.600 183.145 373.555 183.100 373.500 183.100 H 370.600 C 370.500 183.100 370.600 183.200 370.600 183.100 V 177.300 C 370.600 177.200 370.500 177.300 370.600 177.300 H 373.500 C 373.555 177.300 373.600 177.255 373.600 177.200 V 165.700 C 373.600 165.645 373.555 165.600 373.500 165.600 H 370.500 H 273.600 H 270.600 C 270.545 165.600 270.500 165.645 270.500 165.700 V 177.200 C 270.500 177.255 270.545 177.300 270.600 177.300 H 273.500 C 273.600 177.300 273.500 177.200 273.500 177.300 V 183.100 C 273.500 183.200 273.600 183.100 273.500 183.100 H 270.600 C 270.545 183.100 270.500 183.145 270.500 183.200 V 189.200 C 270.500 189.255 270.545 189.300 270.600 189.300 H 273.500 C 273.600 189.300 273.500 189.200 273.500 189.300 V 195.100 C 273.500 195.200 273.600 195.100 273.500 195.100 H 270.600 C 270.545 195.100 270.500 195.145 270.500 195.200 V 206.700 C 270.500 206.755 270.545 206.800 270.600 206.800 H 273.600 Z" stroke="rgb(0,0,0)" stroke-width="0.20" />
</g>
<g id="p-8" style="fill:none;stroke-linecap:round;stroke-linejoin:round;">
  <path d="M 378.200 206.800 H 389.050 C 389.150 206.800 389.050 206.700 389.050 206.800 V 209.700 C 389.050 209.755 389.095 209.800 389.150 209.800 H 395.150 C 395.205 209.800 395.250 209.755 395.250 209.700 V 206.800 C 395.250 206.700 395.150 206.800 395.250 206.800 H 401.050 C 401.150 206.800 401.050 206.700 401.050 206.800 V 209.700 C 401.050 209.755 401.095 209.800 401.150 209.800 H 407.150 C 407.205 209.800 407.250 209.755 407.250 209.700 V 206.800 C 407.250 206.700 407.150 206.800 407.250 206.800 H 413.050 C 413.150 206.800 413.050 206.700 413.050 206.800 V 209.700 C 413.050 209.755 413.095 209.800 413.150 209.800 H 419.150 C 419.205 209.800 419.250 209.755 419.250 209.700 V 206.800 C 419.250 206.700 419.150 206.800 419.250 206.800 H 425.050 C 425.150 206.800 425.050 206.700 425.050 206.800 V 209.700 C 425.050 209.755 425.095 209.800 425.150 209.800 H 431.150 C 431.205 209.800 431.250 209.755 431.250 209.700 V 206.800 C 431.250 206.700 431.150 206.800 431.250 206.800 H 437.050 C 437.150 206.800 437.050 206.700 437.050 206.800 V 209.700 C 437.050 209.755 437.095 209.800 437.150 209.800 H 443.150 C 443.205 209.800 443.250 209.755 443.250 209.700 V 206.800 C 443.250 206.700 443.150 206.800 443.250 206.800 H 449.050 C 449.150 206.800 449.050 206.700 449.050 206.800 V 209.700 C 449.050 209.755 449.095 209.800 449.150 209.800 H 455.150 C 455.205 209.800 455.250 209.755 455.250 209.700 V 206.800 C 455.250 206.700 455.150 206.800 455.250 206.800 H 461.050 C 461.150 206.800 461.050 206.700 461.050 206.800 V 209.700 C 461.050 209.755 461.095 209.800 461.150 209.800 H 467.150 C 467.205 209.800 467.250 209.755 467.250 209.700 V 206.800 C 467.250 206.700 467.150 206.800 467.250 206.800 H 473.050 C 473.150 206.800 473.050 206.700 473.050 206.800 V 209.700 C 473.050 209.755 473.095 209.800 473.150 209.800 H 479.150 C 479.205 209.800 479.250 209.755 479.250 209.700 V 206.800 C 479.250 206.700 479.150 206.800 479.250 206.800 H 485.050 C 485.150 206.800 485.050 206.700 485.050 206.800 V 209.700 C 485.050 209.755 485.095 209.800 485.150 209.800 H 491.150 C 491.205 209.800 491.250 209.755 491.250 209.700 V 206.800 C 491.250 206.700 491.150 206.800 491.250 206.800 H 497.050 C 497.150 206.800 497.050 206.700 497.050 206.800 V 209.700 C 497.050 209.755 497.095 209.800 497.150 209.800 H 503.150 C 503.205 209.800 503.250 209.755 503.250 209.700 V 206.800 C 503.250 206.700 503.150 206.800 503.250 206.800 H 509.050 C 509.150 206.800 509.050 206.700 509.050 206.800 V 209.700 C 509.050 209.755 509.095 209.800 509.150 209.800 H 515.150 C 515.205 209.800 515.250 209.755 515.250 209.700 V 206.800 C 515.250 206.700 515.150 206.800 515.250 206.800 H 526.100 C 526.155 206.800 526.200 206.755 526.200 206.700 V 195.300 C 526.200 195.200 526.100 195.300 526.200 195.300 H 529.100 C 529.155 195.300 529.200 195.255 529.200 195.200 V 189.200 C 529.200 189.145 529.155 189.100 529.100 189.100 H 526.200 C 526.100 189.100 526.200 189.200 526.200 189.100 V 183.300 C 526.200 183.200 526.100 183.300 526.200 183.300 H 529.100 C 529.155 183.300 529.200 183.255 529.200 183.200 V 177.200 C 529.200 177.145 529.155 177.100 529.100 177.100 H 526.200 C 526.100 177.100 526.200 177.200 526.200 177.100 V 165.700 C 526.200 165.645 526.155 165.600 526.100 165.600 H 378.200 C 378.145 165.600 378.100 165.645 378.100 165.700 V 177.100 C 378.100 177.200 378.200 177.100 378.100 177.100 H 375.200 C 375.145 177.100 375.100 177.145 375.100 177.200 V 183.200 C 375.100 183.255 375.145 183.300 375.200 183.300 H 378.100 C 378.200 183.300 378.100 183.200 378.100 183.300 V 189.100 C 378.100 189.200 378.200 189.100 378.100 189.100 H 375.200 C 375.145 189.100 375.100 189.145 375.100 189.200 V 195.200 C 375.100 195.255 375.145 195.300 375.200 195.300 H 378.100 C 378.200 195.300 378.100 195.200 378.100 195.300 V 206.700 C 378.100 206.755 378.145 206.800 378.200 206.800 Z" stroke="rgb(0,0,0)" stroke-width="0.20" />
</g>
<g id="p-9" style="fill:none;stroke-linecap:round;stroke-linejoin:round;">
  <path d="M 25.850 160.450 H 22.950 C 22.850 160.450 22.950 160.550 22.950 160.450 V 157.650 C 22.950 157.550 22.850 157.650 22.950 157.650 H 28.750 C 28.850 157.650 28.750 157.550 28.750 157.650 V 160.450 C 28.750 160.550 28.850 160.450 28.750 160.450 H 25.850 Z" stroke="rgb(0,0,255)" stroke-width="0.20" />
  <path d="M 37.850 160.450 H 34.950 C 34.850 160.450 34.950 160.550 34.950 160.450 V 157.650 C 34.950 157.550 34.850 157.650 34.950 157.650 H 40.750 C 40.850 157.650 40.750 157.550 40.750 157.650 V 160.450 C 40.750 160.550 40.850 160.450 40.750 160.450 H 37.850 Z" stroke="rgb(0,0,255)" stroke-width="0.20" />
  <path d="M 49.850 160.450 H 46.950 C 46.850 160.450 46.950 160.550 46.950 160.450 V 157.650 C 46.950 157.550 46.850 157.650 46.950 157.650 H 52.750 C 52.850 157.650 52.750 157.550 52.750 157.650 V 160.450 C 52.750 160.550 52.850 160.450 52.750 160.450 H 49.850 Z" stroke="rgb(0,0,255)" stroke-width="0.20" />
  <path d="M 61.850 160.450 H 58.950 C 58.850 160.450 58.950 160.550 58.950 160.450 V 157.650 C 58.950 157.550 58.850 157.650 58.950 157.650 H 64.750 C 64.850 157.650 64.750 157.550 64.750 157.650 V 160.450 C 64.750 160.550 64.850 160.450 64.750 160.450 H 61.850 Z" stroke="rgb(0,0,255)" stroke-width="0.20" />
  <path d="M 73.850 160.450 H 70.950 C 70.850 160.450 70.950 160.550 70.950 160.450 V 157.650 C 70.950 157.550 70.850 157.650 70.950 157.650 H 76.750 C 76.850 157.650 76.750 157.550 76.750 157.650 V 160.450 C 76.750 160.550 76.850 160.450 76.750 160.450 H 73.850 Z" stroke="rgb(0,0,255)" stroke-width="0.20" />
  <path d="M 85.850 160.450 H 82.950 C 82.850 160.450 82.950 160.550 82.950 160.450 V 157.650 C 82.950 157.550 82.850 157.650 82.950 157.650 H 88.750 C 88.850 157.650 88.750 157.550 88.750 157.650 V 160.450 C 88.750 160.550 88.850 160.450 88.750 160.450 H 85.850 Z" stroke="rgb(0,0,255)" stroke-width="0.20" />
  <path d="M 97.850 160.450 H 94.950 C 94.850 160.450 94.950 160.550 94.950 160.450 V 157.650 C 94.950 157.550 94.850 157.650 94.950 157.650 H 100.750 C 100.850 157.650 100.750 157.550 100.750 157.650 V 160.450 C 100.750 160.550 100.850 160.450 100.750 160.450 H 97.850 Z" stroke="rgb(0,0,255)" stroke-width="0.20" />
  <path d="M 16.850 164.100 H 106.850 H 113.300 C 113.355 164.100 113.400 164.055 113.400 164.000 V 157.550 V 16.550 V 10.100 C 113.400 10.045 113.355 10.000 113.300 10.000 H 106.850 H 16.850 H 10.400 C 10.345 10.000 10.300 10.045 10.300 10.100 V 16.550 V 157.550 V 164.000 C 10.300 164.055 10.345 164.100 10.400 164.100 H 16.850 Z" stroke="rgb(0,0,0)" stroke-width="0.20" />
  <path d="M 109.750 147.050 V 149.950 C 109.750 150.050 109.850 149.950 109.750 149.950 H 106.950 C 106.850 149.950 106.950 150.050 106.950 149.950 V 144.150 C 106.950 144.050 106.850 144.150 106.950 144.150 H 109.750 C 109.850 144.150 109.750 144.050 109.750 144.150 V 147.050 Z" stroke="rgb(0,0,255)" stroke-width="0.20" />
  <path d="M 109.750 135.050 V 137.950 C 109.750 138.050 109.850 137.950 109.750 137.950 H 106.950 C 106.850 137.950 106.950 138.050 106.950 137.950 V 132.150 C 106.950 132.050 106.850 132.150 106.950 132.150 H 109.750 C 109.850 132.150 109.750 132.050 109.750 132.150 V 135.050 Z" stroke="rgb(0,0,255)" stroke-width="0.20" />
  <path d="M 109.750 123.050 V 125.950 C 109.750 126.050 109.850 125.950 109.750 125.950 H 106.950 C 106.850 125.950 106.950 126.050 106.950 125.950 V 120.150 C 106.950 120.050 106.850 120.150 106.950 120.150 H 109.750 C 109.850 120.150 109.750 120.050 109.750 120.150 V 123.050 Z" stroke="rgb(0,0,255)" stroke-width="0.20" />
  <path d="M 109.750 111.050 V 113.950 C 109.750 114.050 109.850 113.950 109.750 113.950 H 106.950 C 106.850 113.950 106.950 114.050 106.950 113.950 V 108.150 C 106.950 108.050 106.850 108.150 106.950 108.150 H 109.750 C 109.850 108.150 109.750 108.050 109.750 108.150 V 111.050 Z" stroke="rgb(0,0,255)" stroke-width="0.20" />
  <path d="M 109.750 99.050 V 101.950 C 109.750 102.050 109.850 101.950 109.750 101.950 H 106.950 C 106.850 101.950 106.950 102.050 106.950 101.950 V 96.150 C 106.950 96.050 106.850 96.150 106.950 96.150 H 109.750 C 109.850 96.150 109.750 96.050 109.750 96.150 V 99.050 Z" stroke="rgb(0,0,255)" stroke-width="0.20" />
  <path d="M 109.750 87.050 V 89.950 C 109.750 90.050 109.850 89.950 109.750 89.950 H 106.950 C 106.850 89.950 106.950 90.050 106.950 89.950 V 84.150 C 106.950 84.050 106.850 84.150 106.950 84.150 H 109.750 C 109.850 84.150 109.750 84.050 109.750 84.150 V 87.050 Z" stroke="rgb(0,0,255)" stroke-width="0.20" />
  <path d="M 109.750 75.050 V 77.950 C 109.750 78.050 109.850 77.950 109.750 77.950 H 106.950 C 106.850 77.950 106.950 78.050 106.950 77.950 V 72.150 C 106.950 72.050 106.850 72.150 106.950 72.150 H 109.750 C 109.850 72.150 109.750 72.050 109.750 72.150 V 75.050 Z" stroke="rgb(0,0,255)" stroke-width="0.20" />
  <path d="M 109.750 63.050 V 65.950 C 109.750 66.050 109.850 65.950 109.750 65.950 H 106.950 C 106.850 65.950 106.950 66.050 106.950 65.950 V 60.150 C 106.950 60.050 106.850 60.150 106.950 60.150 H 109.750 C 109.850 60.150 109.750 60.050 109.750 60.150 V 63.050 Z" stroke="rgb(0,0,255)" stroke-width="0.20" />
  <path d="M 109.750 51.050 V 53.950 C 109.750 54.050 109.850 53.950 109.750 53.950 H 106.950 C 106.850 53.950 106.950 54.050 106.950 53.950 V 48.150 C 106.950 48.050 106.850 48.150 106.950 48.150 H 109.750 C 109.850 48.150 109.750 48.050 109.750 48.150 V 51.050 Z" stroke="rgb(0,0,255)" stroke-width="0.20" />
  <path d="M 109.750 39.050 V 41.950 C 109.750 42.050 109.850 41.950 109.750 41.950 H 106.950 C 106.850 41.950 106.950 42.050 106.950 41.950 V 36.150 C 106.950 36.050 106.850 36.150 106.950 36.150 H 109.750 C 109.850 36.150 109.750 36.050 109.750 36.150 V 39.050 Z" stroke="rgb(0,0,255)" stroke-width="0.20" />
  <path d="M 109.750 27.050 V 29.950 C 109.750 30.050 109.850 29.950 109.750 29.950 H 106.950 C 106.850 29.950 106.950 30.050 106.950 29.950 V 24.150 C 106.950 24.050 106.850 24.150 106.950 24.150 H 109.750 C 109.850 24.150 109.750 24.050 109.750 24.150 V 27.050 Z" stroke="rgb(0,0,255)" stroke-width="0.20" />
  <path d="M 97.850 13.650 H 100.750 C 100.850 13.650 100.750 13.550 100.750 13.650 V 16.450 C 100.750 16.550 100.850 16.450 100.750 16.450 H 94.950 C 94.850 16.450 94.950 16.550 94.950 16.450 V 13.650 C 94.950 13.550 94.850 13.650 94.950 13.650 H 97.850 Z" stroke="rgb(0,0,255)" stroke-width="0.20" />
  <path d="M 85.850 13.650 H 88.750 C 88.850 13.650 88.750 13.550 88.750 13.650 V 16.450 C 88.750 16.550 88.850 16.450 88.750 16.450 H 82.950 C 82.850 16.450 82.950 16.550 82.950 16.450 V 13.650 C 82.950 13.550 82.850 13.650 82.950 13.650 H 85.850 Z" stroke="rgb(0,0,255)" stroke-width="0.20" />
  <path d="M 73.850 13.650 H 76.750 C 76.850 13.650 76.750 13.550 76.750 13.650 V 16.450 C 76.750 16.550 76.850 16.450 76.750 16.450 H 70.950 C 70.850 16.450 70.950 16.550 70.950 16.450 V 13.650 C 70.950 13.550 70.850 13.650 70.950 13.650 H 73.850 Z" stroke="rgb(0,0,255)" stroke-width="0.20" />
  <path d="M 61.850 13.650 H 64.750 C 64.850 13.650 64.750 13.550 64.750 13.650 V 16.450 C 64.750 16.550 64.850 16.450 64.750 16.450 H 58.950 C 58.850 16.450 58.950 16.550 58.950 16.450 V 13.650 C 58.950 13.550 58.850 13.650 58.950 13.650 H 61.850 Z" stroke="rgb(0,0,255)" stroke-width="0.20" />
  <path d="M 49.850 13.650 H 52.750 C 52.850 13.650 52.750 13.550 52.750 13.650 V 16.450 C 52.750 16.550 52.850 16.450 52.750 16.450 H 46.950 C 46.850 16.450 46.950 16.550 46.950 16.450 V 13.650 C 46.950 13.550 46.850 13.650 46.950 13.650 H 49.850 Z" stroke="rgb(0,0,255)" stroke-width="0.20" />
  <path d="M 37.850 13.650 H 40.750 C 40.850 13.650 40.750 13.550 40.750 13.650 V 16.450 C 40.750 16.550 40.850 16.450 40.750 16.450 H 34.950 C 34.850 16.450 34.950 16.550 34.950 16.450 V 13.650 C 34.950 13.550 34.850 13.650 34.950 13.650 H 37.850 Z" stroke="rgb(0,0,255)" stroke-width="0.20" />
  <path d="M 25.850 13.650 H 28.750 C 28.850 13.650 28.750 13.550 28.750 13.650 V 16.450 C 28.750 16.550 28.850 16.450 28.750 16.450 H 22.950 C 22.850 16.450 22.950 16.550 22.950 16.450 V 13.650 C 22.950 13.550 22.850 13.650 22.950 13.650 H 25.850 Z" stroke="rgb(0,0,255)" stroke-width="0.20" />
  <path d="M 13.950 27.050 V 24.150 C 13.950 24.050 13.850 24.150 13.950 24.150 H 16.750 C 16.850 24.150 16.750 24.050 16.750 24.150 V 29.950 C 16.750 30.050 16.850 29.950 16.750 29.950 H 13.950 C 13.850 29.950 13.950 30.050 13.950 29.950 V 27.050 Z" stroke="rgb(0,0,255)" stroke-width="0.20" />
  <path d="M 13.950 39.050 V 36.150 C 13.950 36.050 13.850 36.150 13.950 36.150 H 16.750 C 16.850 36.150 16.750 36.050 16.750 36.150 V 41.950 C 16.750 42.050 16.850 41.950 16.750 41.950 H 13.950 C 13.850 41.950 13.950 42.050 13.950 41.950 V 39.050 Z" stroke="rgb(0,0,255)" stroke-width="0.20" />
  <path d="M 13.950 51.050 V 48.150 C 13.950 48.050 13.850 48.150 13.950 48.150 H 16.750 C 16.850 48.150 16.750 48.050 16.750 48.150 V 53.950 C 16.750 54.050 16.850 53.950 16.750 53.950 H 13.950 C 13.850 53.950 13.950 54.050 13.950 53.950 V 51.050 Z" stroke="rgb(0,0,255)" stroke-width="0.20" />
  <path d="M 13.950 63.050 V 60.150 C 13.950 60.050 13.850 60.150 13.950 60.150 H 16.750 C 16.850 60.150 16.750 60.050 16.750 60.150 V 65.950 C 16.750 66.050 16.850 65.950 16.750 65.950 H 13.950 C 13.850 65.950 13.950 66.050 13.950 65.950 V 63.050 Z" stroke="rgb(0,0,255)" stroke-width="0.20" />
  <path d="M 13.950 75.050 V 72.150 C 13.950 72.050 13.850 72.150 13.950 72.150 H 16.750 C 16.850 72.150 16.750 72.050 16.750 72.150 V 77.950 C 16.750 78.050 16.850 77.950 16.750 77.950 H 13.950 C 13.850 77.950 13.950 78.050 13.950 77.950 V 75.050 Z" stroke="rgb(0,0,255)" stroke-width="0.20" />
  <path d="M 13.950 87.050 V 84.150 C 13.950 84.050 13.850 84.150 13.950 84.150 H 16.750 C 16.850 84.150 16.750 84.050 16.750 84.150 V 89.950 C 16.750 90.050 16.850 89.950 16.750 89.950 H 13.950 C 13.850 89.950 13.950 90.050 13.950 89.950 V 87.050 Z" stroke="rgb(0,0,255)" stroke-width="0.20" />
  <path d="M 13.950 99.050 V 96.150 C 13.950 96.050 13.850 96.150 13.950 96.150 H 16.750 C 16.850 96.150 16.750 96.050 16.750 96.150 V 101.950 C 16.750 102.050 16.850 101.950 16.750 101.950 H 13.950 C 13.850 101.950 13.950 102.050 13.950 101.950 V 99.050 Z" stroke="rgb(0,0,255)" stroke-width="0.20" />
  <path d="M 13.950 111.050 V 108.150 C 13.950 108.050 13.850 108.150 13.950 108.150 H 16.750 C 16.850 108.150 16.750 108.050 16.750 108.150 V 113.950 C 16.750 114.050 16.850 113.950 16.750 113.950 H 13.950 C 13.850 113.950 13.950 114.050 13.950 113.950 V 111.050 Z" stroke="rgb(0,0,255)" stroke-width="0.20" />
  <path d="M 13.950 123.050 V 120.150 C 13.950 120.050 13.850 120.150 13.950 120.150 H 16.750 C 16.850 120.150 16.750 120.050 16.750 120.150 V 125.950 C 16.750 126.050 16.850 125.950 16.750 125.950 H 13.950 C 13.850 125.950 13.950 126.050 13.950 125.950 V 123.050 Z" stroke="rgb(0,0,255)" stroke-width="0.20" />
  <path d="M 13.950 135.050 V 132.150 C 13.950 132.050 13.850 132.150 13.950 132.150 H 16.750 C 16.850 132.150 16.750 132.050 16.750 132.150 V 137.950 C 16.750 138.050 16.850 137.950 16.750 137.950 H 13.950 C 13.850 137.950 13.950 138.050 13.950 137.950 V 135.050 Z" stroke="rgb(0,0,255)" stroke-width="0.20" />
  <path d="M 13.950 147.050 V 144.150 C 13.950 144.050 13.850 144.150 13.950 144.150 H 16.750 C 16.850 144.150 16.750 144.050 16.750 144.150 V 149.950 C 16.750 150.050 16.850 149.950 16.750 149.950 H 13.950 C 13.850 149.950 13.950 150.050 13.950 149.950 V 147.050 Z" stroke="rgb(0,0,255)" stroke-width="0.20" />
</g>
<g id="p-10" style="fill:none;stroke-linecap:round;stroke-linejoin:round;">
  <path d="M 118.000 164.100 H 127.450 C 127.505 164.100 127.550 164.055 127.550 164.000 V 161.100 C 127.550 161.000 127.450 161.100 127.550 161.100 H 133.350 C 133.450 161.100 133.350 161.000 133.350 161.100 V 164.000 C 133.350 164.055 133.395 164.100 133.450 164.100 H 139.450 C 139.505 164.100 139.550 164.055 139.550 164.000 V 161.100 C 139.550 161.000 139.450 161.100 139.550 161.100 H 145.350 C 145.450 161.100 145.350 161.000 145.350 161.100 V 164.000 C 145.350 164.055 145.395 164.100 145.450 164.100 H 151.450 C 151.505 164.100 151.550 164.055 151.550 164.000 V 161.100 C 151.550 161.000 151.450 161.100 151.550 161.100 H 157.350 C 157.450 161.100 157.350 161.000 157.350 161.100 V 164.000 C 157.350 164.055 157.395 164.100 157.450 164.100 H 163.450 C 163.505 164.100 163.550 164.055 163.550 164.000 V 161.100 C 163.550 161.000 163.450 161.100 163.550 161.100 H 169.350 C 169.450 161.100 169.350 161.000 169.350 161.100 V 164.000 C 169.350 164.055 169.395 164.100 169.450 164.100 H 175.450 C 175.505 164.100 175.550 164.055 175.550 164.000 V 161.100 C 175.550 161.000 175.450 161.100 175.550 161.100 H 181.350 C 181.450 161.100 181.350 161.000 181.350 161.100 V 164.000 C 181.350 164.055 181.395 164.100 181.450 164.100 H 187.450 C 187.505 164.100 187.550 164.055 187.550 164.000 V 161.100 C 187.550 161.000 187.450 161.100 187.550 161.100 H 193.350 C 193.450 161.100 193.350 161.000 193.350 161.100 V 164.000 C 193.350 164.055 193.395 164.100 193.450 164.100 H 199.450 C 199.505 164.100 199.550 164.055 199.550 164.000 V 161.100 C 199.550 161.000 199.450 161.100 199.550 161.100 H 205.350 C 205.450 161.100 205.350 161.000 205.350 161.100 V 164.000 C 205.350 164.055 205.395 164.100 205.450 164.100 H 214.900 H 217.900 C 217.955 164.100 218.000 164.055 218.000 164.000 V 161.000 V 150.050 C 218.000 149.995 217.955 149.950 217.900 149.950 H 215.000 C 214.900 149.950 215.000 150.050 215.000 149.950 V 144.150 C 215.000 144.050 214.900 144.150 215.000 144.150 H 217.900 C 217.955 144.150 218.000 144.105 218.000 144.050 V 138.050 C 218.000 137.995 217.955 137.950 217.900 137.950 H 215.000 C 214.900 137.950 215.000 138.050 215.000 137.950 V 132.150 C 215.000 132.050 214.900 132.150 215.000 132.150 H 217.900 C 217.955 132.150 218.000 132.105 218.000 132.050 V 126.050 C 218.000 125.995 217.955 125.950 217.900 125.950 H 215.000 C 214.900 125.950 215.000 126.050 215.000 125.950 V 120.150 C 215.000 120.050 214.900 120.150 215.000 120.150 H 217.900 C 217.955 120.150 218.000 120.105 218.000 120.050 V 114.050 C 218.000 113.995 217.955 113.950 217.900 113.950 H 215.000 C 214.900 113.950 215.000 114.050 215.000 113.950 V 108.150 C 215.000 108.050 214.900 108.150 215.000 108.150 H 217.900 C 217.955 108.150 218.000 108.105 218.000 108.050 V 102.050 C 218.000 101.995 217.955 101.950 217.900 101.950 H 215.000 C 214.900 101.950 215.000 102.050 215.000 101.950 V 96.150 C 215.000 96.050 214.900 96.150 215.000 96.150 H 217.900 C 217.955 96.150 218.000 96.105 218.000 96.050 V 90.050 C 218.000 89.995 217.955 89.950 217.900 89.950 H 215.000 C 214.900 89.950 215.000 90.050 215.000 89.950 V 84.150 C 215.000 84.050 214.900 84.150 215.000 84.150 H 217.900 C 217.955 84.150 218.000 84.105 218.000 84.050 V 78.050 C 218.000 77.995 217.955 77.950 217.900 77.950 H 215.000 C 214.900 77.950 215.000 78.050 215.000 77.950 V 72.150 C 215.000 72.050 214.900 72.150 215.000 72.150 H 217.900 C 217.955 72.150 218.000 72.105 218.000 72.050 V 66.050 C 218.000 65.995 217.955 65.950 217.900 65.950 H 215.000 C 214.900 65.950 215.000 66.050 215.000 65.950 V 60.150 C 215.000 60.050 214.900 60.150 215.000 60.150 H 217.900 C 217.955 60.150 218.000 60.105 218.000 60.050 V 54.050 C 218.000 53.995 217.955 53.950 217.900 53.950 H 215.000 C 214.900 53.950 215.000 54.050 215.000 53.950 V 48.150 C 215.000 48.050 214.900 48.150 215.000 48.150 H 217.900 C 217.955 48.150 218.000 48.105 218.000 48.050 V 42.050 C 218.000 41.995 217.955 41.950 217.900 41.950 H 215.000 C 214.900 41.950 215.000 42.050 215.000 41.950 V 36.150 C 215.000 36.050 214.900 36.150 215.000 36.150 H 217.900 C 217.955 36.150 218.000 36.105 218.000 36.050 V 30.050 C 218.000 29.995 217.955 29.950 217.900 29.950 H 215.000 C 214.900 29.950 215.000 30.050 215.000 29.950 V 24.150 C 215.000 24.050 214.900 24.150 215.000 24.150 H 217.900 C 217.955 24.150 218.000 24.105 218.000 24.050 V 13.100 V 10.100 C 218.000 10.045 217.955 10.000 217.900 10.000 H 214.900 H 205.450 C 205.395 10.000 205.350 10.045 205.350 10.100 V 13.000 C 205.350 13.100 205.450 13.000 205.350 13.000 H 199.550 C 199.450 13.000 199.550 13.100 199.550 13.000 V 10.100 C 199.550 10.045 199.505 10.000 199.450 10.000 H 193.450 C 193.395 10.000 193.350 10.045 193.350 10.100 V 13.000 C 193.350 13.100 193.450 13.000 193.350 13.000 H 187.550 C 187.450 13.000 187.550 13.100 187.550 13.000 V 10.100 C 187.550 10.045 187.505 10.000 187.450 10.000 H 181.450 C 181.395 10.000 181.350 10.045 181.350 10.100 V 13.000 C 181.350 13.100 181.450 13.000 181.350 13.000 H 175.550 C 175.450 13.000 175.550 13.100 175.550 13.000 V 10.100 C 175.550 10.045 175.505 10.000 175.450 10.000 H 169.450 C 169.395 10.000 169.350 10.045 169.350 10.100 V 13.000 C 169.350 13.100 169.450 13.000 169.350 13.000 H 163.550 C 163.450 13.000 163.550 13.100 163.550 13.000 V 10.100 C 163.550 10.045 163.505 10.000 163.450 10.000 H 157.450 C 157.395 10.000 157.350 10.045 157.350 10.100 V 13.000 C 157.350 13.100 157.450 13.000 157.350 13.000 H 151.550 C 151.450 13.000 151.550 13.100 151.550 13.000 V 10.100 C 151.550 10.045 151.505 10.000 151.450 10.000 H 145.450 C 145.395 10.000 145.350 10.045 145.350 10.100 V 13.000 C 145.350 13.100 145.450 13.000 145.350 13.000 H 139.550 C 139.450 13.000 139.550 13.100 139.550 13.000 V 10.100 C 139.550 10.045 139.505 10.000 139.450 10.000 H 133.450 C 133.395 10.000 133.350 10.045 133.350 10.100 V 13.000 C 133.350 13.100 133.450 13.000 133.350 13.000 H 127.550 C 127.450 13.000 127.550 13.100 127.550 13.000 V 10.100 C 127.550 10.045 127.505 10.000 127.450 10.000 H 118.000 H 115.000 C 114.945 10.000 114.900 10.045 114.900 10.100 V 13.100 V 24.050 C 114.900 24.105 114.945 24.150 115.000 24.150 H 117.900 C 118.000 24.150 117.900 24.050 117.900 24.150 V 29.950 C 117.900 30.050 118.000 29.950 117.900 29.950 H 115.000 C 114.945 29.950 114.900 29.995 114.900 30.050 V 36.050 C 114.900 36.105 114.945 36.150 115.000 36.150 H 117.900 C 118.000 36.150 117.900 36.050 117.900 36.150 V 41.950 C 117.900 42.050 118.000 41.950 117.900 41.950 H 115.000 C 114.945 41.950 114.900 41.995 114.900 42.050 V 48.050 C 114.900 48.105 114.945 48.150 115.000 48.150 H 117.900 C 118.000 48.150 117.900 48.050 117.900 48.150 V 53.950 C 117.900 54.050 118.000 53.950 117.900 53.950 H 115.000 C 114.945 53.950 114.900 53.995 114.900 54.050 V 60.050 C 114.900 60.105 114.945 60.150 115.000 60.150 H 117.900 C 118.000 60.150 117.900 60.050 117.900 60.150 V 65.950 C 117.900 66.050 118.000 65.950 117.900 65.950 H 115.000 C 114.945 65.950 114.900 65.995 114.900 66.050 V 72.050 C 114.900 72.105 114.945 72.150 115.000 72.150 H 117.900 C 118.000 72.150 117.900 72.050 117.900 72.150 V 77.950 C 117.900 78.050 118.000 77.950 117.900 77.950 H 115.000 C 114.945 77.950 114.900 77.995 114.900 78.050 V 84.050 C 114.900 84.105 114.945 84.150 115.000 84.150 H 117.900 C 118.000 84.150 117.900 84.050 117.900 84.150 V 89.950 C 117.900 90.050 118.000 89.950 117.900 89.950 H 115.000 C 114.945 89.950 114.900 89.995 114.900 90.050 V 96.050 C 114.900 96.105 114.945 96.150 115.000 96.150 H 117.900 C 118.000 96.150 117.900 96.050 117.900 96.150 V 101.950 C 117.900 102.050 118.000 101.950 117.900 101.950 H 115.000 C 114.945 101.950 114.900 101.995 114.900 102.050 V 108.050 C 114.900 108.105 114.945 108.150 115.000 108.150 H 117.900 C 118.000 108.150 117.900 108.050 117.900 108.150 V 113.950 C 117.900 114.050 118.000 113.950 117.900 113.950 H 115.000 C 114.945 113.950 114.900 113.995 114.900 114.050 V 120.050 C 114.900 120.105 114.945 120.150 115.000 120.150 H 117.900 C 118.000 120.150 117.900 120.050 117.900 120.150 V 125.950 C 117.900 126.050 118.000 125.950 117.900 125.950 H 115.000 C 114.945 125.950 114.900 125.995 114.900 126.050 V 132.050 C 114.900 132.105 114.945 132.150 115.000 132.150 H 117.900 C 118.000 132.150 117.900 132.050 117.900 132.150 V 137.950 C 117.900 138.050 118.000 137.950 117.900 137.950 H 115.000 C 114.945 137.950 114.900 137.995 114.900 138.050 V 144.050 C 114.900 144.105 114.945 144.150 115.000 144.150 H 117.900 C 118.000 144.150 117.900 144.050 117.900 144.150 V 149.950 C 117.900 150.050 118.000 149.950 117.900 149.950 H 115.000 C 114.945 149.950 114.900 149.995 114.900 150.050 V 161.000 V 164.000 C 114.900 164.055 114.945 164.100 115.000 164.100 H 118.000 Z" stroke="rgb(0,0,0)" stroke-width="0.20" />
</g>
</svg>