<?xml version='1.0' encoding='us-ascii'?>
<svg width="249.20mm" height="317.30mm" viewBox="0.0 0.0 249.20 317.30" xmlns="http://www.w3.org/2000/svg" xmlns:dc="http://purl.org/dc/elements/1.1/" xmlns:cc="http://creativecommons.org/ns#" xmlns:rdf="http://www.w3.org/1999/02/22-rdf-syntax-ns#" xmlns:svg="http://www.w3.org/2000/svg" xmlns:xlink="http://www.w3.org/1999/xlink" xmlns:inkscape="http://www.inkscape.org/namespaces/inkscape">
<!--
TypeTray - Type tray - allows only continuous walls

Created with Boxes.py (https://festi.info/boxes.py)
Creation date: 2022-09-20 17:05:03
Command line (remove spaces between dashes): boxes TypeTray - -FingerJoint_angle=90.0 - -FingerJoint_style=rectangular - -FingerJoint_surroundingspaces=0.5 - -FingerJoint_edge_width=1.0 - -FingerJoint_extra_length=0.0 - -FingerJoint_finger=2.0 - -FingerJoint_play=0.0 - -FingerJoint_space=2.0 - -FingerJoint_width=1.0 - -Stackable_angle=60 - -Stackable_height=2.0 - -Stackable_holedistance=1.0 - -Stackable_width=4.0 - -Hinge_grip_percentage=0 - -Hinge_outset=0 - -Hinge_pinwidth=0.5 - -Hinge_style=outset - -Hinge_axle=2.0 - -Hinge_grip_length=0 - -Hinge_hingestrength=1 - -CabinetHinge_bore=3.2 - -CabinetHinge_eyes_per_hinge=5 - -CabinetHinge_hinges=2 - -CabinetHinge_style=inside - -CabinetHinge_eye=1.5 - -CabinetHinge_play=0.05 - -CabinetHinge_spacing=2.0 - -Lid_angle=90.0 - -Lid_hole_width=0 - -Lid_second_pin=0 - -Lid_second_pin=1 - -Lid_spring=both - -Lid_style=rectangular - -Lid_surroundingspaces=2.0 - -Lid_edge_width=1.0 - -Lid_extra_length=0.0 - -Lid_finger=3.0 - -Lid_play=0.05 - -Lid_space=2.0 - -Lid_width=1.0 - -Click_angle=5.0 - -Click_bottom_radius=0.1 - -Click_depth=3.0 - -RoundedTriangleEdge_height=50.0 - -RoundedTriangleEdge_r_hole=2.0 - -RoundedTriangleEdge_radius=30.0 - -RoundedTriangleEdge_outset=1.0 - -Mounting_d_head=6.5 - -Mounting_d_shaft=3.0 - -Mounting_margin=0.125 - -Mounting_num=2 - -Mounting_side=back '- -Mounting_style=straight edge, within' '- -sx=14*5' '- -sy=14*8' - -h=7 - -hi=0.0 - -outside=0 - -bottom_edge=h - -top_edge=e - -back_height=0.0 - -radius=0.0 - -gripheight=30 - -gripwidth=70 - -thickness=3.0 - -format=svg - -tabs=0.0 - -debug=0 - -labels=0 - -labels=1 - -reference=100 - -inner_corners=loop - -burn=0.1
Url: http://www.festi.info/TypeTray?FingerJoint_angle=90.0&FingerJoint_style=rectangular&FingerJoint_surroundingspaces=0.5&FingerJoint_edge_width=1.0&FingerJoint_extra_length=0.0&FingerJoint_finger=2.0&FingerJoint_play=0.0&FingerJoint_space=2.0&FingerJoint_width=1.0&Stackable_angle=60&Stackable_height=2.0&Stackable_holedistance=1.0&Stackable_width=4.0&Hinge_grip_percentage=0&Hinge_outset=0&Hinge_pinwidth=0.5&Hinge_style=outset&Hinge_axle=2.0&Hinge_grip_length=0&Hinge_hingestrength=1&CabinetHinge_bore=3.2&CabinetHinge_eyes_per_hinge=5&CabinetHinge_hinges=2&CabinetHinge_style=inside&CabinetHinge_eye=1.5&CabinetHinge_play=0.05&CabinetHinge_spacing=2.0&Lid_angle=90.0&Lid_hole_width=0&Lid_second_pin=0&Lid_second_pin=1&Lid_spring=both&Lid_style=rectangular&Lid_surroundingspaces=2.0&Lid_edge_width=1.0&Lid_extra_length=0.0&Lid_finger=3.0&Lid_play=0.05&Lid_space=2.0&Lid_width=1.0&Click_angle=5.0&Click_bottom_radius=0.1&Click_depth=3.0&RoundedTriangleEdge_height=50.0&RoundedTriangleEdge_r_hole=2.0&RoundedTriangleEdge_radius=30.0&RoundedTriangleEdge_outset=1.0&Mounting_d_head=6.5&Mounting_d_shaft=3.0&Mounting_margin=0.125&Mounting_num=2&Mounting_side=back&Mounting_style=straight+edge%2C+within&sx=14*5&sy=14*8&h=7&hi=0.0&outside=0&bottom_edge=h&top_edge=e&back_height=0.0&radius=0.0&gripheight=30&gripwidth=70&thickness=3.0&format=svg&tabs=0.0&debug=0&labels=0&labels=1&reference=100&inner_corners=loop&burn=0.1&render=1
SettingsUrl: http://www.festi.info/TypeTray?FingerJoint_angle=90.0&FingerJoint_style=rectangular&FingerJoint_surroundingspaces=0.5&FingerJoint_edge_width=1.0&FingerJoint_extra_length=0.0&FingerJoint_finger=2.0&FingerJoint_play=0.0&FingerJoint_space=2.0&FingerJoint_width=1.0&Stackable_angle=60&Stackable_height=2.0&Stackable_holedistance=1.0&Stackable_width=4.0&Hinge_grip_percentage=0&Hinge_outset=0&Hinge_pinwidth=0.5&Hinge_style=outset&Hinge_axle=2.0&Hinge_grip_length=0&Hinge_hingestrength=1&CabinetHinge_bore=3.2&CabinetHinge_eyes_per_hinge=5&CabinetHinge_hinges=2&CabinetHinge_style=inside&CabinetHinge_eye=1.5&CabinetHinge_play=0.05&CabinetHinge_spacing=2.0&Lid_angle=90.0&Lid_hole_width=0&Lid_second_pin=0&Lid_second_pin=1&Lid_spring=both&Lid_style=rectangular&Lid_surroundingspaces=2.0&Lid_edge_width=1.0&Lid_extra_length=0.0&Lid_finger=3.0&Lid_play=0.05&Lid_space=2.0&Lid_width=1.0&Click_angle=5.0&Click_bottom_radius=0.1&Click_depth=3.0&RoundedTriangleEdge_height=50.0&RoundedTriangleEdge_r_hole=2.0&RoundedTriangleEdge_radius=30.0&RoundedTriangleEdge_outset=1.0&Mounting_d_head=6.5&Mounting_d_shaft=3.0&Mounting_margin=0.125&Mounting_num=2&Mounting_side=back&Mounting_style=straight+edge%2C+within&sx=14*5&sy=14*8&h=7&hi=0.0&outside=0&bottom_edge=h&top_edge=e&back_height=0.0&radius=0.0&gripheight=30&gripwidth=70&thickness=3.0&format=svg&tabs=0.0&debug=0&labels=0&labels=1&reference=100&inner_corners=loop&burn=0.1
-->
<title>TypeTray</title>
<metadata>
<rdf:RDF><cc:Work>
<dc:title>Tray - TypeTray</dc:title>
<dc:date>2022-09-20 17:05:03</dc:date>
<dc:source>http://www.festi.info/TypeTray?FingerJoint_angle=90.0&amp;FingerJoint_style=rectangular&amp;FingerJoint_surroundingspaces=0.5&amp;FingerJoint_edge_width=1.0&amp;FingerJoint_extra_length=0.0&amp;FingerJoint_finger=2.0&amp;FingerJoint_play=0.0&amp;FingerJoint_space=2.0&amp;FingerJoint_width=1.0&amp;Stackable_angle=60&amp;Stackable_height=2.0&amp;Stackable_holedistance=1.0&amp;Stackable_width=4.0&amp;Hinge_grip_percentage=0&amp;Hinge_outset=0&amp;Hinge_pinwidth=0.5&amp;Hinge_style=outset&amp;Hinge_axle=2.0&amp;Hinge_grip_length=0&amp;Hinge_hingestrength=1&amp;CabinetHinge_bore=3.2&amp;CabinetHinge_eyes_per_hinge=5&amp;CabinetHinge_hinges=2&amp;CabinetHinge_style=inside&amp;CabinetHinge_eye=1.5&amp;CabinetHinge_play=0.05&amp;CabinetHinge_spacing=2.0&amp;Lid_angle=90.0&amp;Lid_hole_width=0&amp;Lid_second_pin=0&amp;Lid_second_pin=1&amp;Lid_spring=both&amp;Lid_style=rectangular&amp;Lid_surroundingspaces=2.0&amp;Lid_edge_width=1.0&amp;Lid_extra_length=0.0&amp;Lid_finger=3.0&amp;Lid_play=0.05&amp;Lid_space=2.0&amp;Lid_width=1.0&amp;Click_angle=5.0&amp;Click_bottom_radius=0.1&amp;Click_depth=3.0&amp;RoundedTriangleEdge_height=50.0&amp;RoundedTriangleEdge_r_hole=2.0&amp;RoundedTriangleEdge_radius=30.0&amp;RoundedTriangleEdge_outset=1.0&amp;Mounting_d_head=6.5&amp;Mounting_d_shaft=3.0&amp;Mounting_margin=0.125&amp;Mounting_num=2&amp;Mounting_side=back&amp;Mounting_style=straight+edge%2C+within&amp;sx=14*5&amp;sy=14*8&amp;h=7&amp;hi=0.0&amp;outside=0&amp;bottom_edge=h&amp;top_edge=e&amp;back_height=0.0&amp;radius=0.0&amp;gripheight=30&amp;gripwidth=70&amp;thickness=3.0&amp;format=svg&amp;tabs=0.0&amp;debug=0&amp;labels=0&amp;labels=1&amp;reference=100&amp;inner_corners=loop&amp;burn=0.1&amp;render=1</dc:source>
<dc:description>Type tray - allows only continuous walls

Created with Boxes.py (https://festi.info/boxes.py)
Command line: boxes TypeTray --FingerJoint_angle=90.0 --FingerJoint_style=rectangular --FingerJoint_surroundingspaces=0.5 --FingerJoint_edge_width=1.0 --FingerJoint_extra_length=0.0 --FingerJoint_finger=2.0 --FingerJoint_play=0.0 --FingerJoint_space=2.0 --FingerJoint_width=1.0 --Stackable_angle=60 --Stackable_height=2.0 --Stackable_holedistance=1.0 --Stackable_width=4.0 --Hinge_grip_percentage=0 --Hinge_outset=0 --Hinge_pinwidth=0.5 --Hinge_style=outset --Hinge_axle=2.0 --Hinge_grip_length=0 --Hinge_hingestrength=1 --CabinetHinge_bore=3.2 --CabinetHinge_eyes_per_hinge=5 --CabinetHinge_hinges=2 --CabinetHinge_style=inside --CabinetHinge_eye=1.5 --CabinetHinge_play=0.05 --CabinetHinge_spacing=2.0 --Lid_angle=90.0 --Lid_hole_width=0 --Lid_second_pin=0 --Lid_second_pin=1 --Lid_spring=both --Lid_style=rectangular --Lid_surroundingspaces=2.0 --Lid_edge_width=1.0 --Lid_extra_length=0.0 --Lid_finger=3.0 --Lid_play=0.05 --Lid_space=2.0 --Lid_width=1.0 --Click_angle=5.0 --Click_bottom_radius=0.1 --Click_depth=3.0 --RoundedTriangleEdge_height=50.0 --RoundedTriangleEdge_r_hole=2.0 --RoundedTriangleEdge_radius=30.0 --RoundedTriangleEdge_outset=1.0 --Mounting_d_head=6.5 --Mounting_d_shaft=3.0 --Mounting_margin=0.125 --Mounting_num=2 --Mounting_side=back '--Mounting_style=straight edge, within' '--sx=14*5' '--sy=14*8' --h=7 --hi=0.0 --outside=0 --bottom_edge=h --top_edge=e --back_height=0.0 --radius=0.0 --gripheight=30 --gripwidth=70 --thickness=3.0 --format=svg --tabs=0.0 --debug=0 --labels=0 --labels=1 --reference=100 --inner_corners=loop --burn=0.1
Url: http://www.festi.info/TypeTray?FingerJoint_angle=90.0&amp;FingerJoint_style=rectangular&amp;FingerJoint_surroundingspaces=0.5&amp;FingerJoint_edge_width=1.0&amp;FingerJoint_extra_length=0.0&amp;FingerJoint_finger=2.0&amp;FingerJoint_play=0.0&amp;FingerJoint_space=2.0&amp;FingerJoint_width=1.0&amp;Stackable_angle=60&amp;Stackable_height=2.0&amp;Stackable_holedistance=1.0&amp;Stackable_width=4.0&amp;Hinge_grip_percentage=0&amp;Hinge_outset=0&amp;Hinge_pinwidth=0.5&amp;Hinge_style=outset&amp;Hinge_axle=2.0&amp;Hinge_grip_length=0&amp;Hinge_hingestrength=1&amp;CabinetHinge_bore=3.2&amp;CabinetHinge_eyes_per_hinge=5&amp;CabinetHinge_hinges=2&amp;CabinetHinge_style=inside&amp;CabinetHinge_eye=1.5&amp;CabinetHinge_play=0.05&amp;CabinetHinge_spacing=2.0&amp;Lid_angle=90.0&amp;Lid_hole_width=0&amp;Lid_second_pin=0&amp;Lid_second_pin=1&amp;Lid_spring=both&amp;Lid_style=rectangular&amp;Lid_surroundingspaces=2.0&amp;Lid_edge_width=1.0&amp;Lid_extra_length=0.0&amp;Lid_finger=3.0&amp;Lid_play=0.05&amp;Lid_space=2.0&amp;Lid_width=1.0&amp;Click_angle=5.0&amp;Click_bottom_radius=0.1&amp;Click_depth=3.0&amp;RoundedTriangleEdge_height=50.0&amp;RoundedTriangleEdge_r_hole=2.0&amp;RoundedTriangleEdge_radius=30.0&amp;RoundedTriangleEdge_outset=1.0&amp;Mounting_d_head=6.5&amp;Mounting_d_shaft=3.0&amp;Mounting_margin=0.125&amp;Mounting_num=2&amp;Mounting_side=back&amp;Mounting_style=straight+edge%2C+within&amp;sx=14*5&amp;sy=14*8&amp;h=7&amp;hi=0.0&amp;outside=0&amp;bottom_edge=h&amp;top_edge=e&amp;back_height=0.0&amp;radius=0.0&amp;gripheight=30&amp;gripwidth=70&amp;thickness=3.0&amp;format=svg&amp;tabs=0.0&amp;debug=0&amp;labels=0&amp;labels=1&amp;reference=100&amp;inner_corners=loop&amp;burn=0.1&amp;render=1
SettingsUrl: http://www.festi.info/TypeTray?FingerJoint_angle=90.0&amp;FingerJoint_style=rectangular&amp;FingerJoint_surroundingspaces=0.5&amp;FingerJoint_edge_width=1.0&amp;FingerJoint_extra_length=0.0&amp;FingerJoint_finger=2.0&amp;FingerJoint_play=0.0&amp;FingerJoint_space=2.0&amp;FingerJoint_width=1.0&amp;Stackable_angle=60&amp;Stackable_height=2.0&amp;Stackable_holedistance=1.0&amp;Stackable_width=4.0&amp;Hinge_grip_percentage=0&amp;Hinge_outset=0&amp;Hinge_pinwidth=0.5&amp;Hinge_style=outset&amp;Hinge_axle=2.0&amp;Hinge_grip_length=0&amp;Hinge_hingestrength=1&amp;CabinetHinge_bore=3.2&amp;CabinetHinge_eyes_per_hinge=5&amp;CabinetHinge_hinges=2&amp;CabinetHinge_style=inside&amp;CabinetHinge_eye=1.5&amp;CabinetHinge_play=0.05&amp;CabinetHinge_spacing=2.0&amp;Lid_angle=90.0&amp;Lid_hole_width=0&amp;Lid_second_pin=0&amp;Lid_second_pin=1&amp;Lid_spring=both&amp;Lid_style=rectangular&amp;Lid_surroundingspaces=2.0&amp;Lid_edge_width=1.0&amp;Lid_extra_length=0.0&amp;Lid_finger=3.0&amp;Lid_play=0.05&amp;Lid_space=2.0&amp;Lid_width=1.0&amp;Click_angle=5.0&amp;Click_bottom_radius=0.1&amp;Click_depth=3.0&amp;RoundedTriangleEdge_height=50.0&amp;RoundedTriangleEdge_r_hole=2.0&amp;RoundedTriangleEdge_radius=30.0&amp;RoundedTriangleEdge_outset=1.0&amp;Mounting_d_head=6.5&amp;Mounting_d_shaft=3.0&amp;Mounting_margin=0.125&amp;Mounting_num=2&amp;Mounting_side=back&amp;Mounting_style=straight+edge%2C+within&amp;sx=14*5&amp;sy=14*8&amp;h=7&amp;hi=0.0&amp;outside=0&amp;bottom_edge=h&amp;top_edge=e&amp;back_height=0.0&amp;radius=0.0&amp;gripheight=30&amp;gripwidth=70&amp;thickness=3.0&amp;format=svg&amp;tabs=0.0&amp;debug=0&amp;labels=0&amp;labels=1&amp;reference=100&amp;inner_corners=loop&amp;burn=0.1
</dc:description>
</cc:Work></rdf:RDF></metadata>
<g id="p-0" style="fill:none;stroke-linecap:round;stroke-linejoin:round;">
  <path d="M 10.400 272.200 H 110.400 V 262.200 H 10.400 V 272.200 Z" stroke="rgb(0,0,0)" stroke-width="0.20" />
  <text transform="matrix( 1.000 0.000 0.000 1.000 60.400 263.200 )" style="font-family: sans-serif ; font-weight: normal; font-style: normal; fill: rgb(255,0,0)" font-size="8px" text-anchor="middle" dominant-baseline="hanging">100mm, burn:0.10mm</text>
</g>
<g id="p-1" style="fill:none;stroke-linecap:round;stroke-linejoin:round;">
  <path d="M 18.400 257.300 H 15.500 C 15.400 257.300 15.500 257.400 15.500 257.300 V 254.500 C 15.500 254.400 15.400 254.500 15.500 254.500 H 21.300 C 21.400 254.500 21.300 254.400 21.300 254.500 V 257.300 C 21.300 257.400 21.400 257.300 21.300 257.300 H 18.400 Z" stroke="rgb(0,0,255)" stroke-width="0.20" />
  <path d="M 30.400 257.300 H 27.500 C 27.400 257.300 27.500 257.400 27.500 257.300 V 254.500 C 27.500 254.400 27.400 254.500 27.500 254.500 H 33.300 C 33.400 254.500 33.300 254.400 33.300 254.500 V 257.300 C 33.300 257.400 33.400 257.300 33.300 257.300 H 30.400 Z" stroke="rgb(0,0,255)" stroke-width="0.20" />
  <path d="M 42.400 257.300 H 39.500 C 39.400 257.300 39.500 257.400 39.500 257.300 V 254.500 C 39.500 254.400 39.400 254.500 39.500 254.500 H 45.300 C 45.400 254.500 45.300 254.400 45.300 254.500 V 257.300 C 45.300 257.400 45.400 257.300 45.300 257.300 H 42.400 Z" stroke="rgb(0,0,255)" stroke-width="0.20" />
  <path d="M 54.400 257.300 H 51.500 C 51.400 257.300 51.500 257.400 51.500 257.300 V 254.500 C 51.500 254.400 51.400 254.500 51.500 254.500 H 57.300 C 57.400 254.500 57.300 254.400 57.300 254.500 V 257.300 C 57.300 257.400 57.400 257.300 57.300 257.300 H 54.400 Z" stroke="rgb(0,0,255)" stroke-width="0.20" />
  <path d="M 66.400 257.300 H 63.500 C 63.400 257.300 63.500 257.400 63.500 257.300 V 254.500 C 63.500 254.400 63.400 254.500 63.500 254.500 H 69.300 C 69.400 254.500 69.300 254.400 69.300 254.500 V 257.300 C 69.300 257.400 69.400 257.300 69.300 257.300 H 66.400 Z" stroke="rgb(0,0,255)" stroke-width="0.20" />
  <path d="M 78.400 257.300 H 75.500 C 75.400 257.300 75.500 257.400 75.500 257.300 V 254.500 C 75.500 254.400 75.400 254.500 75.500 254.500 H 81.300 C 81.400 254.500 81.300 254.400 81.300 254.500 V 257.300 C 81.300 257.400 81.400 257.300 81.300 257.300 H 78.400 Z" stroke="rgb(0,0,255)" stroke-width="0.20" />
  <path d="M 90.400 257.300 H 87.500 C 87.400 257.300 87.500 257.400 87.500 257.300 V 254.500 C 87.500 254.400 87.400 254.500 87.500 254.500 H 93.300 C 93.400 254.500 93.300 254.400 93.300 254.500 V 257.300 C 93.300 257.400 93.400 257.300 93.300 257.300 H 90.400 Z" stroke="rgb(0,0,255)" stroke-width="0.20" />
  <path d="M 13.400 260.500 H 95.400 H 98.400 C 98.455 260.500 98.500 260.455 98.500 260.400 V 256.900 C 98.500 256.845 98.455 256.800 98.400 256.800 H 95.500 C 95.400 256.800 95.500 256.900 95.500 256.800 V 251.000 C 95.500 250.900 95.400 251.000 95.500 251.000 H 98.400 C 98.455 251.000 98.500 250.955 98.500 250.900 V 247.400 C 98.500 247.345 98.455 247.300 98.400 247.300 H 95.400 H 13.400 H 10.400 C 10.345 247.300 10.300 247.345 10.300 247.400 V 250.900 C 10.300 250.955 10.345 251.000 10.400 251.000 H 13.300 C 13.400 251.000 13.300 250.900 13.300 251.000 V 256.800 C 13.300 256.900 13.400 256.800 13.300 256.800 H 10.400 C 10.345 256.800 10.300 256.845 10.300 256.900 V 260.400 C 10.300 260.455 10.345 260.500 10.400 260.500 H 13.400 Z" stroke="rgb(0,0,0)" stroke-width="0.20" />
  <path d="M 54.400 277.500 H 74.400 C 77.015 277.500 79.585 278.188 81.850 279.496 C 84.115 280.804 85.996 282.685 87.304 284.950 C 88.612 287.215 89.300 289.785 89.300 292.400 C 89.300 295.015 88.612 297.585 87.304 299.850 C 85.996 302.115 84.115 303.996 81.850 305.304 C 79.585 306.612 77.015 307.300 74.400 307.300 H 34.400 C 31.785 307.300 29.215 306.612 26.950 305.304 C 24.685 303.996 22.804 302.115 21.496 299.850 C 20.188 297.585 19.500 295.015 19.500 292.400 C 19.500 289.785 20.188 287.215 21.496 284.950 C 22.804 282.685 24.685 280.804 26.950 279.496 C 29.215 278.188 31.785 277.500 34.400 277.500 H 54.400 Z" stroke="rgb(0,0,255)" stroke-width="0.20" />
</g>
<g id="p-2" style="fill:none;stroke-linecap:round;stroke-linejoin:round;">
  <path d="M 18.400 242.600 H 15.500 C 15.400 242.600 15.500 242.700 15.500 242.600 V 239.800 C 15.500 239.700 15.400 239.800 15.500 239.800 H 21.300 C 21.400 239.800 21.300 239.700 21.300 239.800 V 242.600 C 21.300 242.700 21.400 242.600 21.300 242.600 H 18.400 Z" stroke="rgb(0,0,255)" stroke-width="0.20" />
  <path d="M 30.400 242.600 H 27.500 C 27.400 242.600 27.500 242.700 27.500 242.600 V 239.800 C 27.500 239.700 27.400 239.800 27.500 239.800 H 33.300 C 33.400 239.800 33.300 239.700 33.300 239.800 V 242.600 C 33.300 242.700 33.400 242.600 33.300 242.600 H 30.400 Z" stroke="rgb(0,0,255)" stroke-width="0.20" />
  <path d="M 42.400 242.600 H 39.500 C 39.400 242.600 39.500 242.700 39.500 242.600 V 239.800 C 39.500 239.700 39.400 239.800 39.500 239.800 H 45.300 C 45.400 239.800 45.300 239.700 45.300 239.800 V 242.600 C 45.300 242.700 45.400 242.600 45.300 242.600 H 42.400 Z" stroke="rgb(0,0,255)" stroke-width="0.20" />
  <path d="M 54.400 242.600 H 51.500 C 51.400 242.600 51.500 242.700 51.500 242.600 V 239.800 C 51.500 239.700 51.400 239.800 51.500 239.800 H 57.300 C 57.400 239.800 57.300 239.700 57.300 239.800 V 242.600 C 57.300 242.700 57.400 242.600 57.300 242.600 H 54.400 Z" stroke="rgb(0,0,255)" stroke-width="0.20" />
  <path d="M 66.400 242.600 H 63.500 C 63.400 242.600 63.500 242.700 63.500 242.600 V 239.800 C 63.500 239.700 63.400 239.800 63.500 239.800 H 69.300 C 69.400 239.800 69.300 239.700 69.300 239.800 V 242.600 C 69.300 242.700 69.400 242.600 69.300 242.600 H 66.400 Z" stroke="rgb(0,0,255)" stroke-width="0.20" />
  <path d="M 78.400 242.600 H 75.500 C 75.400 242.600 75.500 242.700 75.500 242.600 V 239.800 C 75.500 239.700 75.400 239.800 75.500 239.800 H 81.300 C 81.400 239.800 81.300 239.700 81.300 239.800 V 242.600 C 81.300 242.700 81.400 242.600 81.300 242.600 H 78.400 Z" stroke="rgb(0,0,255)" stroke-width="0.20" />
  <path d="M 90.400 242.600 H 87.500 C 87.400 242.600 87.500 242.700 87.500 242.600 V 239.800 C 87.500 239.700 87.400 239.800 87.500 239.800 H 93.300 C 93.400 239.800 93.300 239.700 93.300 239.800 V 242.600 C 93.300 242.700 93.400 242.600 93.300 242.600 H 90.400 Z" stroke="rgb(0,0,255)" stroke-width="0.20" />
  <path d="M 13.400 245.800 H 95.400 H 98.400 C 98.455 245.800 98.500 245.755 98.500 245.700 V 242.200 C 98.500 242.145 98.455 242.100 98.400 242.100 H 95.500 C 95.400 242.100 95.500 242.200 95.500 242.100 V 236.300 C 95.500 236.200 95.400 236.300 95.500 236.300 H 98.400 C 98.455 236.300 98.500 236.255 98.500 236.200 V 232.700 C 98.500 232.645 98.455 232.600 98.400 232.600 H 95.400 H 13.400 H 10.400 C 10.345 232.600 10.300 232.645 10.300 232.700 V 236.200 C 10.300 236.255 10.345 236.300 10.400 236.300 H 13.300 C 13.400 236.300 13.300 236.200 13.300 236.300 V 242.100 C 13.300 242.200 13.400 242.100 13.300 242.100 H 10.400 C 10.345 242.100 10.300 242.145 10.300 242.200 V 245.700 C 10.300 245.755 10.345 245.800 10.400 245.800 H 13.400 Z" stroke="rgb(0,0,0)" stroke-width="0.20" />
</g>
<g id="p-3" style="fill:none;stroke-linecap:round;stroke-linejoin:round;">
  <path d="M 30.300 221.000 V 223.900 C 30.300 224.000 30.400 223.900 30.300 223.900 H 27.500 C 27.400 223.900 27.500 224.000 27.500 223.900 V 218.100 C 27.500 218.000 27.400 218.100 27.500 218.100 H 30.300 C 30.400 218.100 30.300 218.000 30.300 218.100 V 221.000 Z" stroke="rgb(0,0,255)" stroke-width="0.20" />
  <path d="M 30.300 204.000 V 206.900 C 30.300 207.000 30.400 206.900 30.300 206.900 H 27.500 C 27.400 206.900 27.500 207.000 27.500 206.900 V 201.100 C 27.500 201.000 27.400 201.100 27.500 201.100 H 30.300 C 30.400 201.100 30.300 201.000 30.300 201.100 V 204.000 Z" stroke="rgb(0,0,255)" stroke-width="0.20" />
  <path d="M 30.300 187.000 V 189.900 C 30.300 190.000 30.400 189.900 30.300 189.900 H 27.500 C 27.400 189.900 27.500 190.000 27.500 189.900 V 184.100 C 27.500 184.000 27.400 184.100 27.500 184.100 H 30.300 C 30.400 184.100 30.300 184.000 30.300 184.100 V 187.000 Z" stroke="rgb(0,0,255)" stroke-width="0.20" />
  <path d="M 30.300 170.000 V 172.900 C 30.300 173.000 30.400 172.900 30.300 172.900 H 27.500 C 27.400 172.900 27.500 173.000 27.500 172.900 V 167.100 C 27.500 167.000 27.400 167.100 27.500 167.100 H 30.300 C 30.400 167.100 30.300 167.000 30.300 167.100 V 170.000 Z" stroke="rgb(0,0,255)" stroke-width="0.20" />
  <path d="M 30.300 153.000 V 155.900 C 30.300 156.000 30.400 155.900 30.300 155.900 H 27.500 C 27.400 155.900 27.500 156.000 27.500 155.900 V 150.100 C 27.500 150.000 27.400 150.100 27.500 150.100 H 30.300 C 30.400 150.100 30.300 150.000 30.300 150.100 V 153.000 Z" stroke="rgb(0,0,255)" stroke-width="0.20" />
  <path d="M 30.300 136.000 V 138.900 C 30.300 139.000 30.400 138.900 30.300 138.900 H 27.500 C 27.400 138.900 27.500 139.000 27.500 138.900 V 133.100 C 27.500 133.000 27.400 133.100 27.500 133.100 H 30.300 C 30.400 133.100 30.300 133.000 30.300 133.100 V 136.000 Z" stroke="rgb(0,0,255)" stroke-width="0.20" />
  <path d="M 30.300 119.000 V 121.900 C 30.300 122.000 30.400 121.900 30.300 121.900 H 27.500 C 27.400 121.900 27.500 122.000 27.500 121.900 V 116.100 C 27.500 116.000 27.400 116.100 27.500 116.100 H 30.300 C 30.400 116.100 30.300 116.000 30.300 116.100 V 119.000 Z" stroke="rgb(0,0,255)" stroke-width="0.20" />
  <path d="M 30.300 102.000 V 104.900 C 30.300 105.000 30.400 104.900 30.300 104.900 H 27.500 C 27.400 104.900 27.500 105.000 27.500 104.900 V 99.100 C 27.500 99.000 27.400 99.100 27.500 99.100 H 30.300 C 30.400 99.100 30.300 99.000 30.300 99.100 V 102.000 Z" stroke="rgb(0,0,255)" stroke-width="0.20" />
  <path d="M 47.300 221.000 V 223.900 C 47.300 224.000 47.400 223.900 47.300 223.900 H 44.500 C 44.400 223.900 44.500 224.000 44.500 223.900 V 218.100 C 44.500 218.000 44.400 218.100 44.500 218.100 H 47.300 C 47.400 218.100 47.300 218.000 47.300 218.100 V 221.000 Z" stroke="rgb(0,0,255)" stroke-width="0.20" />
  <path d="M 47.300 204.000 V 206.900 C 47.300 207.000 47.400 206.900 47.300 206.900 H 44.500 C 44.400 206.900 44.500 207.000 44.500 206.900 V 201.100 C 44.500 201.000 44.400 201.100 44.500 201.100 H 47.300 C 47.400 201.100 47.300 201.000 47.300 201.100 V 204.000 Z" stroke="rgb(0,0,255)" stroke-width="0.20" />
  <path d="M 47.300 187.000 V 189.900 C 47.300 190.000 47.400 189.900 47.300 189.900 H 44.500 C 44.400 189.900 44.500 190.000 44.500 189.900 V 184.100 C 44.500 184.000 44.400 184.100 44.500 184.100 H 47.300 C 47.400 184.100 47.300 184.000 47.300 184.100 V 187.000 Z" stroke="rgb(0,0,255)" stroke-width="0.20" />
  <path d="M 47.300 170.000 V 172.900 C 47.300 173.000 47.400 172.900 47.300 172.900 H 44.500 C 44.400 172.900 44.500 173.000 44.500 172.900 V 167.100 C 44.500 167.000 44.400 167.100 44.500 167.100 H 47.300 C 47.400 167.100 47.300 167.000 47.300 167.100 V 170.000 Z" stroke="rgb(0,0,255)" stroke-width="0.20" />
  <path d="M 47.300 153.000 V 155.900 C 47.300 156.000 47.400 155.900 47.300 155.900 H 44.500 C 44.400 155.900 44.500 156.000 44.500 155.900 V 150.100 C 44.500 150.000 44.400 150.100 44.500 150.100 H 47.300 C 47.400 150.100 47.300 150.000 47.300 150.100 V 153.000 Z" stroke="rgb(0,0,255)" stroke-width="0.20" />
  <path d="M 47.300 136.000 V 138.900 C 47.300 139.000 47.400 138.900 47.300 138.900 H 44.500 C 44.400 138.900 44.500 139.000 44.500 138.900 V 133.100 C 44.500 133.000 44.400 133.100 44.500 133.100 H 47.300 C 47.400 133.100 47.300 133.000 47.300 133.100 V 136.000 Z" stroke="rgb(0,0,255)" stroke-width="0.20" />
  <path d="M 47.300 119.000 V 121.900 C 47.300 122.000 47.400 121.900 47.300 121.900 H 44.500 C 44.400 121.900 44.500 122.000 44.500 121.900 V 116.100 C 44.500 116.000 44.400 116.100 44.500 116.100 H 47.300 C 47.400 116.100 47.300 116.000 47.300 116.100 V 119.000 Z" stroke="rgb(0,0,255)" stroke-width="0.20" />
  <path d="M 47.300 102.000 V 104.900 C 47.300 105.000 47.400 104.900 47.300 104.900 H 44.500 C 44.400 104.900 44.500 105.000 44.500 104.900 V 99.100 C 44.500 99.000 44.400 99.100 44.500 99.100 H 47.300 C 47.400 99.100 47.300 99.000 47.300 99.100 V 102.000 Z" stroke="rgb(0,0,255)" stroke-width="0.20" />
  <path d="M 64.300 221.000 V 223.900 C 64.300 224.000 64.400 223.900 64.300 223.900 H 61.500 C 61.400 223.900 61.500 224.000 61.500 223.900 V 218.100 C 61.500 218.000 61.400 218.100 61.500 218.100 H 64.300 C 64.400 218.100 64.300 218.000 64.300 218.100 V 221.000 Z" stroke="rgb(0,0,255)" stroke-width="0.20" />
  <path d="M 64.300 204.000 V 206.900 C 64.300 207.000 64.400 206.900 64.300 206.900 H 61.500 C 61.400 206.900 61.500 207.000 61.500 206.900 V 201.100 C 61.500 201.000 61.400 201.100 61.500 201.100 H 64.300 C 64.400 201.100 64.300 201.000 64.300 201.100 V 204.000 Z" stroke="rgb(0,0,255)" stroke-width="0.20" />
  <path d="M 64.300 187.000 V 189.900 C 64.300 190.000 64.400 189.900 64.300 189.900 H 61.500 C 61.400 189.900 61.500 190.000 61.500 189.900 V 184.100 C 61.500 184.000 61.400 184.100 61.500 184.100 H 64.300 C 64.400 184.100 64.300 184.000 64.300 184.100 V 187.000 Z" stroke="rgb(0,0,255)" stroke-width="0.20" />
  <path d="M 64.300 170.000 V 172.900 C 64.300 173.000 64.400 172.900 64.300 172.900 H 61.500 C 61.400 172.900 61.500 173.000 61.500 172.900 V 167.100 C 61.500 167.000 61.400 167.100 61.500 167.100 H 64.300 C 64.400 167.100 64.300 167.000 64.300 167.100 V 170.000 Z" stroke="rgb(0,0,255)" stroke-width="0.20" />
  <path d="M 64.300 153.000 V 155.900 C 64.300 156.000 64.400 155.900 64.300 155.900 H 61.500 C 61.400 155.900 61.500 156.000 61.500 155.900 V 150.100 C 61.500 150.000 61.400 150.100 61.500 150.100 H 64.300 C 64.400 150.100 64.300 150.000 64.300 150.100 V 153.000 Z" stroke="rgb(0,0,255)" stroke-width="0.20" />
  <path d="M 64.300 136.000 V 138.900 C 64.300 139.000 64.400 138.900 64.300 138.900 H 61.500 C 61.400 138.900 61.500 139.000 61.500 138.900 V 133.100 C 61.500 133.000 61.400 133.100 61.500 133.100 H 64.300 C 64.400 133.100 64.300 133.000 64.300 133.100 V 136.000 Z" stroke="rgb(0,0,255)" stroke-width="0.20" />
  <path d="M 64.300 119.000 V 121.900 C 64.300 122.000 64.400 121.900 64.300 121.900 H 61.500 C 61.400 121.900 61.500 122.000 61.500 121.900 V 116.100 C 61.500 116.000 61.400 116.100 61.500 116.100 H 64.300 C 64.400 116.100 64.300 116.000 64.300 116.100 V 119.000 Z" stroke="rgb(0,0,255)" stroke-width="0.20" />
  <path d="M 64.300 102.000 V 104.900 C 64.300 105.000 64.400 104.900 64.300 104.900 H 61.500 C 61.400 104.900 61.500 105.000 61.500 104.900 V 99.100 C 61.500 99.000 61.400 99.100 61.500 99.100 H 64.300 C 64.400 99.100 64.300 99.000 64.300 99.100 V 102.000 Z" stroke="rgb(0,0,255)" stroke-width="0.20" />
  <path d="M 81.300 221.000 V 223.900 C 81.300 224.000 81.400 223.900 81.300 223.900 H 78.500 C 78.400 223.900 78.500 224.000 78.500 223.900 V 218.100 C 78.500 218.000 78.400 218.100 78.500 218.100 H 81.300 C 81.400 218.100 81.300 218.000 81.300 218.100 V 221.000 Z" stroke="rgb(0,0,255)" stroke-width="0.20" />
  <path d="M 81.300 204.000 V 206.900 C 81.300 207.000 81.400 206.900 81.300 206.900 H 78.500 C 78.400 206.900 78.500 207.000 78.500 206.900 V 201.100 C 78.500 201.000 78.400 201.100 78.500 201.100 H 81.300 C 81.400 201.100 81.300 201.000 81.300 201.100 V 204.000 Z" stroke="rgb(0,0,255)" stroke-width="0.20" />
  <path d="M 81.300 187.000 V 189.900 C 81.300 190.000 81.400 189.900 81.300 189.900 H 78.500 C 78.400 189.900 78.500 190.000 78.500 189.900 V 184.100 C 78.500 184.000 78.400 184.100 78.500 184.100 H 81.300 C 81.400 184.100 81.300 184.000 81.300 184.100 V 187.000 Z" stroke="rgb(0,0,255)" stroke-width="0.20" />
  <path d="M 81.300 170.000 V 172.900 C 81.300 173.000 81.400 172.900 81.300 172.900 H 78.500 C 78.400 172.900 78.500 173.000 78.500 172.900 V 167.100 C 78.500 167.000 78.400 167.100 78.500 167.100 H 81.300 C 81.400 167.100 81.300 167.000 81.300 167.100 V 170.000 Z" stroke="rgb(0,0,255)" stroke-width="0.20" />
  <path d="M 81.300 153.000 V 155.900 C 81.300 156.000 81.400 155.900 81.300 155.900 H 78.500 C 78.400 155.900 78.500 156.000 78.500 155.900 V 150.100 C 78.500 150.000 78.400 150.100 78.500 150.100 H 81.300 C 81.400 150.100 81.300 150.000 81.300 150.100 V 153.000 Z" stroke="rgb(0,0,255)" stroke-width="0.20" />
  <path d="M 81.300 136.000 V 138.900 C 81.300 139.000 81.400 138.900 81.300 138.900 H 78.500 C 78.400 138.900 78.500 139.000 78.500 138.900 V 133.100 C 78.500 133.000 78.400 133.100 78.500 133.100 H 81.300 C 81.400 133.100 81.300 133.000 81.300 133.100 V 136.000 Z" stroke="rgb(0,0,255)" stroke-width="0.20" />
  <path d="M 81.300 119.000 V 121.900 C 81.300 122.000 81.400 121.900 81.300 121.900 H 78.500 C 78.400 121.900 78.500 122.000 78.500 121.900 V 116.100 C 78.500 116.000 78.400 116.100 78.500 116.100 H 81.300 C 81.400 116.100 81.300 116.000 81.300 116.100 V 119.000 Z" stroke="rgb(0,0,255)" stroke-width="0.20" />
  <path d="M 81.300 102.000 V 104.900 C 81.300 105.000 81.400 104.900 81.300 104.900 H 78.500 C 78.400 104.900 78.500 105.000 78.500 104.900 V 99.100 C 78.500 99.000 78.400 99.100 78.500 99.100 H 81.300 C 81.400 99.100 81.300 99.000 81.300 99.100 V 102.000 Z" stroke="rgb(0,0,255)" stroke-width="0.20" />
  <path d="M 13.400 228.100 H 15.300 C 15.400 228.100 15.300 228.000 15.300 228.100 V 231.000 C 15.300 231.055 15.345 231.100 15.400 231.100 H 21.400 C 21.455 231.100 21.500 231.055 21.500 231.000 V 228.100 C 21.500 228.000 21.400 228.100 21.500 228.100 H 27.300 C 27.400 228.100 27.300 228.000 27.300 228.100 V 231.000 C 27.300 231.055 27.345 231.100 27.400 231.100 H 33.400 C 33.455 231.100 33.500 231.055 33.500 231.000 V 228.100 C 33.500 228.000 33.400 228.100 33.500 228.100 H 39.300 C 39.400 228.100 39.300 228.000 39.300 228.100 V 231.000 C 39.300 231.055 39.345 231.100 39.400 231.100 H 45.400 C 45.455 231.100 45.500 231.055 45.500 231.000 V 228.100 C 45.500 228.000 45.400 228.100 45.500 228.100 H 51.300 C 51.400 228.100 51.300 228.000 51.300 228.100 V 231.000 C 51.300 231.055 51.345 231.100 51.400 231.100 H 57.400 C 57.455 231.100 57.500 231.055 57.500 231.000 V 228.100 C 57.500 228.000 57.400 228.100 57.500 228.100 H 63.300 C 63.400 228.100 63.300 228.000 63.300 228.100 V 231.000 C 63.300 231.055 63.345 231.100 63.400 231.100 H 69.400 C 69.455 231.100 69.500 231.055 69.500 231.000 V 228.100 C 69.500 228.000 69.400 228.100 69.500 228.100 H 75.300 C 75.400 228.100 75.300 228.000 75.300 228.100 V 231.000 C 75.300 231.055 75.345 231.100 75.400 231.100 H 81.400 C 81.455 231.100 81.500 231.055 81.500 231.000 V 228.100 C 81.500 228.000 81.400 228.100 81.500 228.100 H 87.300 C 87.400 228.100 87.300 228.000 87.300 228.100 V 231.000 C 87.300 231.055 87.345 231.100 87.400 231.100 H 93.400 C 93.455 231.100 93.500 231.055 93.500 231.000 V 228.100 C 93.500 228.000 93.400 228.100 93.500 228.100 H 95.400 C 95.455 228.100 95.500 228.055 95.500 228.000 V 224.600 C 95.500 224.500 95.400 224.600 95.500 224.600 H 98.400 C 98.455 224.600 98.500 224.555 98.500 224.500 V 218.500 C 98.500 218.445 98.455 218.400 98.400 218.400 H 95.500 C 95.400 218.400 95.500 218.500 95.500 218.400 V 212.600 C 95.500 212.500 95.400 212.600 95.500 212.600 H 98.400 C 98.455 212.600 98.500 212.555 98.500 212.500 V 206.500 C 98.500 206.445 98.455 206.400 98.400 206.400 H 95.500 C 95.400 206.400 95.500 206.500 95.500 206.400 V 200.600 C 95.500 200.500 95.400 200.600 95.500 200.600 H 98.400 C 98.455 200.600 98.500 200.555 98.500 200.500 V 194.500 C 98.500 194.445 98.455 194.400 98.400 194.400 H 95.500 C 95.400 194.400 95.500 194.500 95.500 194.400 V 188.600 C 95.500 188.500 95.400 188.600 95.500 188.600 H 98.400 C 98.455 188.600 98.500 188.555 98.500 188.500 V 182.500 C 98.500 182.445 98.455 182.400 98.400 182.400 H 95.500 C 95.400 182.400 95.500 182.500 95.500 182.400 V 176.600 C 95.500 176.500 95.400 176.600 95.500 176.600 H 98.400 C 98.455 176.600 98.500 176.555 98.500 176.500 V 170.500 C 98.500 170.445 98.455 170.400 98.400 170.400 H 95.500 C 95.400 170.400 95.500 170.500 95.500 170.400 V 164.600 C 95.500 164.500 95.400 164.600 95.500 164.600 H 98.400 C 98.455 164.600 98.500 164.555 98.500 164.500 V 158.500 C 98.500 158.445 98.455 158.400 98.400 158.400 H 95.500 C 95.400 158.400 95.500 158.500 95.500 158.400 V 152.600 C 95.500 152.500 95.400 152.600 95.500 152.600 H 98.400 C 98.455 152.600 98.500 152.555 98.500 152.500 V 146.500 C 98.500 146.445 98.455 146.400 98.400 146.400 H 95.500 C 95.400 146.400 95.500 146.500 95.500 146.400 V 140.600 C 95.500 140.500 95.400 140.600 95.500 140.600 H 98.400 C 98.455 140.600 98.500 140.555 98.500 140.500 V 134.500 C 98.500 134.445 98.455 134.400 98.400 134.400 H 95.500 C 95.400 134.400 95.500 134.500 95.500 134.400 V 128.600 C 95.500 128.500 95.400 128.600 95.500 128.600 H 98.400 C 98.455 128.600 98.500 128.555 98.500 128.500 V 122.500 C 98.500 122.445 98.455 122.400 98.400 122.400 H 95.500 C 95.400 122.400 95.500 122.500 95.500 122.400 V 116.600 C 95.500 116.500 95.400 116.600 95.500 116.600 H 98.400 C 98.455 116.600 98.500 116.555 98.500 116.500 V 110.500 C 98.500 110.445 98.455 110.400 98.400 110.400 H 95.500 C 95.400 110.400 95.500 110.500 95.500 110.400 V 104.600 C 95.500 104.500 95.400 104.600 95.500 104.600 H 98.400 C 98.455 104.600 98.500 104.555 98.500 104.500 V 98.500 C 98.500 98.445 98.455 98.400 98.400 98.400 H 95.500 C 95.400 98.400 95.500 98.500 95.500 98.400 V 95.000 C 95.500 94.945 95.455 94.900 95.400 94.900 H 93.500 C 93.400 94.900 93.500 95.000 93.500 94.900 V 92.000 C 93.500 91.945 93.455 91.900 93.400 91.900 H 87.400 C 87.345 91.900 87.300 91.945 87.300 92.000 V 94.900 C 87.300 95.000 87.400 94.900 87.300 94.900 H 81.500 C 81.400 94.900 81.500 95.000 81.500 94.900 V 92.000 C 81.500 91.945 81.455 91.900 81.400 91.900 H 75.400 C 75.345 91.900 75.300 91.945 75.300 92.000 V 94.900 C 75.300 95.000 75.400 94.900 75.300 94.900 H 69.500 C 69.400 94.900 69.500 95.000 69.500 94.900 V 92.000 C 69.500 91.945 69.455 91.900 69.400 91.900 H 63.400 C 63.345 91.900 63.300 91.945 63.300 92.000 V 94.900 C 63.300 95.000 63.400 94.900 63.300 94.900 H 57.500 C 57.400 94.900 57.500 95.000 57.500 94.900 V 92.000 C 57.500 91.945 57.455 91.900 57.400 91.900 H 51.400 C 51.345 91.900 51.300 91.945 51.300 92.000 V 94.900 C 51.300 95.000 51.400 94.900 51.300 94.900 H 45.500 C 45.400 94.900 45.500 95.000 45.500 94.900 V 92.000 C 45.500 91.945 45.455 91.900 45.400 91.900 H 39.400 C 39.345 91.900 39.300 91.945 39.300 92.000 V 94.900 C 39.300 95.000 39.400 94.900 39.300 94.900 H 33.500 C 33.400 94.900 33.500 95.000 33.500 94.900 V 92.000 C 33.500 91.945 33.455 91.900 33.400 91.900 H 27.400 C 27.345 91.900 27.300 91.945 27.300 92.000 V 94.900 C 27.300 95.000 27.400 94.900 27.300 94.900 H 21.500 C 21.400 94.900 21.500 95.000 21.500 94.900 V 92.000 C 21.500 91.945 21.455 91.900 21.400 91.900 H 15.400 C 15.345 91.900 15.300 91.945 15.300 92.000 V 94.900 C 15.300 95.000 15.400 94.900 15.300 94.900 H 13.400 C 13.345 94.900 13.300 94.945 13.300 95.000 V 98.400 C 13.300 98.500 13.400 98.400 13.300 98.400 H 10.400 C 10.345 98.400 10.300 98.445 10.300 98.500 V 104.500 C 10.300 104.555 10.345 104.600 10.400 104.600 H 13.300 C 13.400 104.600 13.300 104.500 13.300 104.600 V 110.400 C 13.300 110.500 13.400 110.400 13.300 110.400 H 10.400 C 10.345 110.400 10.300 110.445 10.300 110.500 V 116.500 C 10.300 116.555 10.345 116.600 10.400 116.600 H 13.300 C 13.400 116.600 13.300 116.500 13.300 116.600 V 122.400 C 13.300 122.500 13.400 122.400 13.300 122.400 H 10.400 C 10.345 122.400 10.300 122.445 10.300 122.500 V 128.500 C 10.300 128.555 10.345 128.600 10.400 128.600 H 13.300 C 13.400 128.600 13.300 128.500 13.300 128.600 V 134.400 C 13.300 134.500 13.400 134.400 13.300 134.400 H 10.400 C 10.345 134.400 10.300 134.445 10.300 134.500 V 140.500 C 10.300 140.555 10.345 140.600 10.400 140.600 H 13.300 C 13.400 140.600 13.300 140.500 13.300 140.600 V 146.400 C 13.300 146.500 13.400 146.400 13.300 146.400 H 10.400 C 10.345 146.400 10.300 146.445 10.300 146.500 V 152.500 C 10.300 152.555 10.345 152.600 10.400 152.600 H 13.300 C 13.400 152.600 13.300 152.500 13.300 152.600 V 158.400 C 13.300 158.500 13.400 158.400 13.300 158.400 H 10.400 C 10.345 158.400 10.300 158.445 10.300 158.500 V 164.500 C 10.300 164.555 10.345 164.600 10.400 164.600 H 13.300 C 13.400 164.600 13.300 164.500 13.300 164.600 V 170.400 C 13.300 170.500 13.400 170.400 13.300 170.400 H 10.400 C 10.345 170.400 10.300 170.445 10.300 170.500 V 176.500 C 10.300 176.555 10.345 176.600 10.400 176.600 H 13.300 C 13.400 176.600 13.300 176.500 13.300 176.600 V 182.400 C 13.300 182.500 13.400 182.400 13.300 182.400 H 10.400 C 10.345 182.400 10.300 182.445 10.300 182.500 V 188.500 C 10.300 188.555 10.345 188.600 10.400 188.600 H 13.300 C 13.400 188.600 13.300 188.500 13.300 188.600 V 194.400 C 13.300 194.500 13.400 194.400 13.300 194.400 H 10.400 C 10.345 194.400 10.300 194.445 10.300 194.500 V 200.500 C 10.300 200.555 10.345 200.600 10.400 200.600 H 13.300 C 13.400 200.600 13.300 200.500 13.300 200.600 V 206.400 C 13.300 206.500 13.400 206.400 13.300 206.400 H 10.400 C 10.345 206.400 10.300 206.445 10.300 206.500 V 212.500 C 10.300 212.555 10.345 212.600 10.400 212.600 H 13.300 C 13.400 212.600 13.300 212.500 13.300 212.600 V 218.400 C 13.300 218.500 13.400 218.400 13.300 218.400 H 10.400 C 10.345 218.400 10.300 218.445 10.300 218.500 V 224.500 C 10.300 224.555 10.345 224.600 10.400 224.600 H 13.300 C 13.400 224.600 13.300 224.500 13.300 224.600 V 228.000 C 13.300 228.055 13.345 228.100 13.400 228.100 Z" stroke="rgb(0,0,0)" stroke-width="0.20" />
  <path d="M 88.400 211.100 H 91.300 C 91.400 211.100 91.300 211.000 91.300 211.100 V 213.900 C 91.300 214.000 91.400 213.900 91.300 213.900 H 85.500 C 85.400 213.900 85.500 214.000 85.500 213.900 V 211.100 C 85.500 211.000 85.400 211.100 85.500 211.100 H 88.400 Z" stroke="rgb(0,0,255)" stroke-width="0.20" />
  <path d="M 71.400 211.100 H 74.300 C 74.400 211.100 74.300 211.000 74.300 211.100 V 213.900 C 74.300 214.000 74.400 213.900 74.300 213.900 H 68.500 C 68.400 213.900 68.500 214.000 68.500 213.900 V 211.100 C 68.500 211.000 68.400 211.100 68.500 211.100 H 71.400 Z" stroke="rgb(0,0,255)" stroke-width="0.20" />
  <path d="M 54.400 211.100 H 57.300 C 57.400 211.100 57.300 211.000 57.300 211.100 V 213.900 C 57.300 214.000 57.400 213.900 57.300 213.900 H 51.500 C 51.400 213.900 51.500 214.000 51.500 213.900 V 211.100 C 51.500 211.000 51.400 211.100 51.500 211.100 H 54.400 Z" stroke="rgb(0,0,255)" stroke-width="0.20" />
  <path d="M 37.400 211.100 H 40.300 C 40.400 211.100 40.300 211.000 40.300 211.100 V 213.900 C 40.300 214.000 40.400 213.900 40.300 213.900 H 34.500 C 34.400 213.900 34.500 214.000 34.500 213.900 V 211.100 C 34.500 211.000 34.400 211.100 34.500 211.100 H 37.400 Z" stroke="rgb(0,0,255)" stroke-width="0.20" />
  <path d="M 20.400 211.100 H 23.300 C 23.400 211.100 23.300 211.000 23.300 211.100 V 213.900 C 23.300 214.000 23.400 213.900 23.300 213.900 H 17.500 C 17.400 213.900 17.500 214.000 17.500 213.900 V 211.100 C 17.500 211.000 17.400 211.100 17.500 211.100 H 20.400 Z" stroke="rgb(0,0,255)" stroke-width="0.20" />
  <path d="M 88.400 194.100 H 91.300 C 91.400 194.100 91.300 194.000 91.300 194.100 V 196.900 C 91.300 197.000 91.400 196.900 91.300 196.900 H 85.500 C 85.400 196.900 85.500 197.000 85.500 196.900 V 194.100 C 85.500 194.000 85.400 194.100 85.500 194.100 H 88.400 Z" stroke="rgb(0,0,255)" stroke-width="0.20" />
  <path d="M 71.400 194.100 H 74.300 C 74.400 194.100 74.300 194.000 74.300 194.100 V 196.900 C 74.300 197.000 74.400 196.900 74.300 196.900 H 68.500 C 68.400 196.900 68.500 197.000 68.500 196.900 V 194.100 C 68.500 194.000 68.400 194.100 68.500 194.100 H 71.400 Z" stroke="rgb(0,0,255)" stroke-width="0.20" />
  <path d="M 54.400 194.100 H 57.300 C 57.400 194.100 57.300 194.000 57.300 194.100 V 196.900 C 57.300 197.000 57.400 196.900 57.300 196.900 H 51.500 C 51.400 196.900 51.500 197.000 51.500 196.900 V 194.100 C 51.500 194.000 51.400 194.100 51.500 194.100 H 54.400 Z" stroke="rgb(0,0,255)" stroke-width="0.20" />
  <path d="M 37.400 194.100 H 40.300 C 40.400 194.100 40.300 194.000 40.300 194.100 V 196.900 C 40.300 197.000 40.400 196.900 40.300 196.900 H 34.500 C 34.400 196.900 34.500 197.000 34.500 196.900 V 194.100 C 34.500 194.000 34.400 194.100 34.500 194.100 H 37.400 Z" stroke="rgb(0,0,255)" stroke-width="0.20" />
  <path d="M 20.400 194.100 H 23.300 C 23.400 194.100 23.300 194.000 23.300 194.100 V 196.900 C 23.300 197.000 23.400 196.900 23.300 196.900 H 17.500 C 17.400 196.900 17.500 197.000 17.500 196.900 V 194.100 C 17.500 194.000 17.400 194.100 17.500 194.100 H 20.400 Z" stroke="rgb(0,0,255)" stroke-width="0.20" />
  <path d="M 88.400 177.100 H 91.300 C 91.400 177.100 91.300 177.000 91.300 177.100 V 179.900 C 91.300 180.000 91.400 179.900 91.300 179.900 H 85.500 C 85.400 179.900 85.500 180.000 85.500 179.900 V 177.100 C 85.500 177.000 85.400 177.100 85.500 177.100 H 88.400 Z" stroke="rgb(0,0,255)" stroke-width="0.20" />
  <path d="M 71.400 177.100 H 74.300 C 74.400 177.100 74.300 177.000 74.300 177.100 V 179.900 C 74.300 180.000 74.400 179.900 74.300 179.900 H 68.500 C 68.400 179.900 68.500 180.000 68.500 179.900 V 177.100 C 68.500 177.000 68.400 177.100 68.500 177.100 H 71.400 Z" stroke="rgb(0,0,255)" stroke-width="0.20" />
  <path d="M 54.400 177.100 H 57.300 C 57.400 177.100 57.300 177.000 57.300 177.100 V 179.900 C 57.300 180.000 57.400 179.900 57.300 179.900 H 51.500 C 51.400 179.900 51.500 180.000 51.500 179.900 V 177.100 C 51.500 177.000 51.400 177.100 51.500 177.100 H 54.400 Z" stroke="rgb(0,0,255)" stroke-width="0.20" />
  <path d="M 37.400 177.100 H 40.300 C 40.400 177.100 40.300 177.000 40.300 177.100 V 179.900 C 40.300 180.000 40.400 179.900 40.300 179.900 H 34.500 C 34.400 179.900 34.500 180.000 34.500 179.900 V 177.100 C 34.500 177.000 34.400 177.100 34.500 177.100 H 37.400 Z" stroke="rgb(0,0,255)" stroke-width="0.20" />
  <path d="M 20.400 177.100 H 23.300 C 23.400 177.100 23.300 177.000 23.300 177.100 V 179.900 C 23.300 180.000 23.400 179.900 23.300 179.900 H 17.500 C 17.400 179.900 17.500 180.000 17.500 179.900 V 177.100 C 17.500 177.000 17.400 177.100 17.500 177.100 H 20.400 Z" stroke="rgb(0,0,255)" stroke-width="0.20" />
  <path d="M 88.400 160.100 H 91.300 C 91.400 160.100 91.300 160.000 91.300 160.100 V 162.900 C 91.300 163.000 91.400 162.900 91.300 162.900 H 85.500 C 85.400 162.900 85.500 163.000 85.500 162.900 V 160.100 C 85.500 160.000 85.400 160.100 85.500 160.100 H 88.400 Z" stroke="rgb(0,0,255)" stroke-width="0.20" />
  <path d="M 71.400 160.100 H 74.300 C 74.400 160.100 74.300 160.000 74.300 160.100 V 162.900 C 74.300 163.000 74.400 162.900 74.300 162.900 H 68.500 C 68.400 162.900 68.500 163.000 68.500 162.900 V 160.100 C 68.500 160.000 68.400 160.100 68.500 160.100 H 71.400 Z" stroke="rgb(0,0,255)" stroke-width="0.20" />
  <path d="M 54.400 160.100 H 57.300 C 57.400 160.100 57.300 160.000 57.300 160.100 V 162.900 C 57.300 163.000 57.400 162.900 57.300 162.900 H 51.500 C 51.400 162.900 51.500 163.000 51.500 162.900 V 160.100 C 51.500 160.000 51.400 160.100 51.500 160.100 H 54.400 Z" stroke="rgb(0,0,255)" stroke-width="0.20" />
  <path d="M 37.400 160.100 H 40.300 C 40.400 160.100 40.300 160.000 40.300 160.100 V 162.900 C 40.300 163.000 40.400 162.900 40.300 162.900 H 34.500 C 34.400 162.900 34.500 163.000 34.500 162.900 V 160.100 C 34.500 160.000 34.400 160.100 34.500 160.100 H 37.400 Z" stroke="rgb(0,0,255)" stroke-width="0.20" />
  <path d="M 20.400 160.100 H 23.300 C 23.400 160.100 23.300 160.000 23.300 160.100 V 162.900 C 23.300 163.000 23.400 162.900 23.300 162.900 H 17.500 C 17.400 162.900 17.500 163.000 17.500 162.900 V 160.100 C 17.500 160.000 17.400 160.100 17.500 160.100 H 20.400 Z" stroke="rgb(0,0,255)" stroke-width="0.20" />
  <path d="M 88.400 143.100 H 91.300 C 91.400 143.100 91.300 143.000 91.300 143.100 V 145.900 C 91.300 146.000 91.400 145.900 91.300 145.900 H 85.500 C 85.400 145.900 85.500 146.000 85.500 145.900 V 143.100 C 85.500 143.000 85.400 143.100 85.500 143.100 H 88.400 Z" stroke="rgb(0,0,255)" stroke-width="0.20" />
  <path d="M 71.400 143.100 H 74.300 C 74.400 143.100 74.300 143.000 74.300 143.100 V 145.900 C 74.300 146.000 74.400 145.900 74.300 145.900 H 68.500 C 68.400 145.900 68.500 146.000 68.500 145.900 V 143.100 C 68.500 143.000 68.400 143.100 68.500 143.100 H 71.400 Z" stroke="rgb(0,0,255)" stroke-width="0.20" />
  <path d="M 54.400 143.100 H 57.300 C 57.400 143.100 57.300 143.000 57.300 143.100 V 145.900 C 57.300 146.000 57.400 145.900 57.300 145.900 H 51.500 C 51.400 145.900 51.500 146.000 51.500 145.900 V 143.100 C 51.500 143.000 51.400 143.100 51.500 143.100 H 54.400 Z" stroke="rgb(0,0,255)" stroke-width="0.20" />
  <path d="M 37.400 143.100 H 40.300 C 40.400 143.100 40.300 143.000 40.300 143.100 V 145.900 C 40.300 146.000 40.400 145.900 40.300 145.900 H 34.500 C 34.400 145.900 34.500 146.000 34.500 145.900 V 143.100 C 34.500 143.000 34.400 143.100 34.500 143.100 H 37.400 Z" stroke="rgb(0,0,255)" stroke-width="0.20" />
  <path d="M 20.400 143.100 H 23.300 C 23.400 143.100 23.300 143.000 23.300 143.100 V 145.900 C 23.300 146.000 23.400 145.900 23.300 145.900 H 17.500 C 17.400 145.900 17.500 146.000 17.500 145.900 V 143.100 C 17.500 143.000 17.400 143.100 17.500 143.100 H 20.400 Z" stroke="rgb(0,0,255)" stroke-width="0.20" />
  <path d="M 88.400 126.100 H 91.300 C 91.400 126.100 91.300 126.000 91.300 126.100 V 128.900 C 91.300 129.000 91.400 128.900 91.300 128.900 H 85.500 C 85.400 128.900 85.500 129.000 85.500 128.900 V 126.100 C 85.500 126.000 85.400 126.100 85.500 126.100 H 88.400 Z" stroke="rgb(0,0,255)" stroke-width="0.20" />
  <path d="M 71.400 126.100 H 74.300 C 74.400 126.100 74.300 126.000 74.300 126.100 V 128.900 C 74.300 129.000 74.400 128.900 74.300 128.900 H 68.500 C 68.400 128.900 68.500 129.000 68.500 128.900 V 126.100 C 68.500 126.000 68.400 126.100 68.500 126.100 H 71.400 Z" stroke="rgb(0,0,255)" stroke-width="0.20" />
  <path d="M 54.400 126.100 H 57.300 C 57.400 126.100 57.300 126.000 57.300 126.100 V 128.900 C 57.300 129.000 57.400 128.900 57.300 128.900 H 51.500 C 51.400 128.900 51.500 129.000 51.500 128.900 V 126.100 C 51.500 126.000 51.400 126.100 51.500 126.100 H 54.400 Z" stroke="rgb(0,0,255)" stroke-width="0.20" />
  <path d="M 37.400 126.100 H 40.300 C 40.400 126.100 40.300 126.000 40.300 126.100 V 128.900 C 40.300 129.000 40.400 128.900 40.300 128.900 H 34.500 C 34.400 128.900 34.500 129.000 34.500 128.900 V 126.100 C 34.500 126.000 34.400 126.100 34.500 126.100 H 37.400 Z" stroke="rgb(0,0,255)" stroke-width="0.20" />
  <path d="M 20.400 126.100 H 23.300 C 23.400 126.100 23.300 126.000 23.300 126.100 V 128.900 C 23.300 129.000 23.400 128.900 23.300 128.900 H 17.500 C 17.400 128.900 17.500 129.000 17.500 128.900 V 126.100 C 17.500 126.000 17.400 126.100 17.500 126.100 H 20.400 Z" stroke="rgb(0,0,255)" stroke-width="0.20" />
  <path d="M 88.400 109.100 H 91.300 C 91.400 109.100 91.300 109.000 91.300 109.100 V 111.900 C 91.300 112.000 91.400 111.900 91.300 111.900 H 85.500 C 85.400 111.900 85.500 112.000 85.500 111.900 V 109.100 C 85.500 109.000 85.400 109.100 85.500 109.100 H 88.400 Z" stroke="rgb(0,0,255)" stroke-width="0.20" />
  <path d="M 71.400 109.100 H 74.300 C 74.400 109.100 74.300 109.000 74.300 109.100 V 111.900 C 74.300 112.000 74.400 111.900 74.300 111.900 H 68.500 C 68.400 111.900 68.500 112.000 68.500 111.900 V 109.100 C 68.500 109.000 68.400 109.100 68.500 109.100 H 71.400 Z" stroke="rgb(0,0,255)" stroke-width="0.20" />
  <path d="M 54.400 109.100 H 57.300 C 57.400 109.100 57.300 109.000 57.300 109.100 V 111.900 C 57.300 112.000 57.400 111.900 57.300 111.900 H 51.500 C 51.400 111.900 51.500 112.000 51.500 111.900 V 109.100 C 51.500 109.000 51.400 109.100 51.500 109.100 H 54.400 Z" stroke="rgb(0,0,255)" stroke-width="0.20" />
  <path d="M 37.400 109.100 H 40.300 C 40.400 109.100 40.300 109.000 40.300 109.100 V 111.900 C 40.300 112.000 40.400 111.900 40.300 111.900 H 34.500 C 34.400 111.900 34.500 112.000 34.500 111.900 V 109.100 C 34.500 109.000 34.400 109.100 34.500 109.100 H 37.400 Z" stroke="rgb(0,0,255)" stroke-width="0.20" />
  <path d="M 20.400 109.100 H 23.300 C 23.400 109.100 23.300 109.000 23.300 109.100 V 111.900 C 23.300 112.000 23.400 111.900 23.300 111.900 H 17.500 C 17.400 111.900 17.500 112.000 17.500 111.900 V 109.100 C 17.500 109.000 17.400 109.100 17.500 109.100 H 20.400 Z" stroke="rgb(0,0,255)" stroke-width="0.20" />
</g>
<g id="p-4" style="fill:none;stroke-linecap:round;stroke-linejoin:round;">
  <path d="M 13.400 87.400 H 17.300 C 17.400 87.400 17.300 87.300 17.300 87.400 V 90.300 C 17.300 90.355 17.345 90.400 17.400 90.400 H 23.400 C 23.455 90.400 23.500 90.355 23.500 90.300 V 87.400 C 23.500 87.300 23.400 87.400 23.500 87.400 H 27.400 H 28.900 H 30.400 H 34.300 C 34.400 87.400 34.300 87.300 34.300 87.400 V 90.300 C 34.300 90.355 34.345 90.400 34.400 90.400 H 40.400 C 40.455 90.400 40.500 90.355 40.500 90.300 V 87.400 C 40.500 87.300 40.400 87.400 40.500 87.400 H 44.400 H 45.900 H 47.400 H 51.300 C 51.400 87.400 51.300 87.300 51.300 87.400 V 90.300 C 51.300 90.355 51.345 90.400 51.400 90.400 H 57.400 C 57.455 90.400 57.500 90.355 57.500 90.300 V 87.400 C 57.500 87.300 57.400 87.400 57.500 87.400 H 61.400 H 62.900 H 64.400 H 68.300 C 68.400 87.400 68.300 87.300 68.300 87.400 V 90.300 C 68.300 90.355 68.345 90.400 68.400 90.400 H 74.400 C 74.455 90.400 74.500 90.355 74.500 90.300 V 87.400 C 74.500 87.300 74.400 87.400 74.500 87.400 H 78.400 H 79.900 H 81.400 H 85.300 C 85.400 87.400 85.300 87.300 85.300 87.400 V 90.300 C 85.300 90.355 85.345 90.400 85.400 90.400 H 91.400 C 91.455 90.400 91.500 90.355 91.500 90.300 V 87.400 C 91.500 87.300 91.400 87.400 91.500 87.400 H 95.400 C 95.455 87.400 95.500 87.355 95.500 87.300 V 83.800 V 80.300 C 95.500 80.245 95.455 80.200 95.400 80.200 H 81.400 C 81.345 80.200 81.300 80.245 81.300 80.300 V 83.700 C 81.300 83.800 81.400 83.700 81.300 83.700 H 78.500 C 78.400 83.700 78.500 83.800 78.500 83.700 V 80.300 C 78.500 80.245 78.455 80.200 78.400 80.200 H 64.400 C 64.345 80.200 64.300 80.245 64.300 80.300 V 83.700 C 64.300 83.800 64.400 83.700 64.300 83.700 H 61.500 C 61.400 83.700 61.500 83.800 61.500 83.700 V 80.300 C 61.500 80.245 61.455 80.200 61.400 80.200 H 47.400 C 47.345 80.200 47.300 80.245 47.300 80.300 V 83.700 C 47.300 83.800 47.400 83.700 47.300 83.700 H 44.500 C 44.400 83.700 44.500 83.800 44.500 83.700 V 80.300 C 44.500 80.245 44.455 80.200 44.400 80.200 H 30.400 C 30.345 80.200 30.300 80.245 30.300 80.300 V 83.700 C 30.300 83.800 30.400 83.700 30.300 83.700 H 27.500 C 27.400 83.700 27.500 83.800 27.500 83.700 V 80.300 C 27.500 80.245 27.455 80.200 27.400 80.200 H 13.400 C 13.345 80.200 13.300 80.245 13.300 80.300 V 83.800 V 87.300 C 13.300 87.355 13.345 87.400 13.400 87.400 Z" stroke="rgb(0,0,0)" stroke-width="0.20" />
</g>
<g id="p-5" style="fill:none;stroke-linecap:round;stroke-linejoin:round;">
  <path d="M 13.400 75.700 H 17.300 C 17.400 75.700 17.300 75.600 17.300 75.700 V 78.600 C 17.300 78.655 17.345 78.700 17.400 78.700 H 23.400 C 23.455 78.700 23.500 78.655 23.500 78.600 V 75.700 C 23.500 75.600 23.400 75.700 23.500 75.700 H 27.400 H 28.900 H 30.400 H 34.300 C 34.400 75.700 34.300 75.600 34.300 75.700 V 78.600 C 34.300 78.655 34.345 78.700 34.400 78.700 H 40.400 C 40.455 78.700 40.500 78.655 40.500 78.600 V 75.700 C 40.500 75.600 40.400 75.700 40.500 75.700 H 44.400 H 45.900 H 47.400 H 51.300 C 51.400 75.700 51.300 75.600 51.300 75.700 V 78.600 C 51.300 78.655 51.345 78.700 51.400 78.700 H 57.400 C 57.455 78.700 57.500 78.655 57.500 78.600 V 75.700 C 57.500 75.600 57.400 75.700 57.500 75.700 H 61.400 H 62.900 H 64.400 H 68.300 C 68.400 75.700 68.300 75.600 68.300 75.700 V 78.600 C 68.300 78.655 68.345 78.700 68.400 78.700 H 74.400 C 74.455 78.700 74.500 78.655 74.500 78.600 V 75.700 C 74.500 75.600 74.400 75.700 74.500 75.700 H 78.400 H 79.900 H 81.400 H 85.300 C 85.400 75.700 85.300 75.600 85.300 75.700 V 78.600 C 85.300 78.655 85.345 78.700 85.400 78.700 H 91.400 C 91.455 78.700 91.500 78.655 91.500 78.600 V 75.700 C 91.500 75.600 91.400 75.700 91.500 75.700 H 95.400 C 95.455 75.700 95.500 75.655 95.500 75.600 V 72.100 V 68.600 C 95.500 68.545 95.455 68.500 95.400 68.500 H 81.400 C 81.345 68.500 81.300 68.545 81.300 68.600 V 72.000 C 81.300 72.100 81.400 72.000 81.300 72.000 H 78.500 C 78.400 72.000 78.500 72.100 78.500 72.000 V 68.600 C 78.500 68.545 78.455 68.500 78.400 68.500 H 64.400 C 64.345 68.500 64.300 68.545 64.300 68.600 V 72.000 C 64.300 72.100 64.400 72.000 64.300 72.000 H 61.500 C 61.400 72.000 61.500 72.100 61.500 72.000 V 68.600 C 61.500 68.545 61.455 68.500 61.400 68.500 H 47.400 C 47.345 68.500 47.300 68.545 47.300 68.600 V 72.000 C 47.300 72.100 47.400 72.000 47.300 72.000 H 44.500 C 44.400 72.000 44.500 72.100 44.500 72.000 V 68.600 C 44.500 68.545 44.455 68.500 44.400 68.500 H 30.400 C 30.345 68.500 30.300 68.545 30.300 68.600 V 72.000 C 30.300 72.100 30.400 72.000 30.300 72.000 H 27.500 C 27.400 72.000 27.500 72.100 27.500 72.000 V 68.600 C 27.500 68.545 27.455 68.500 27.400 68.500 H 13.400 C 13.345 68.500 13.300 68.545 13.300 68.600 V 72.100 V 75.600 C 13.300 75.655 13.345 75.700 13.400 75.700 Z" stroke="rgb(0,0,0)" stroke-width="0.20" />
</g>
<g id="p-6" style="fill:none;stroke-linecap:round;stroke-linejoin:round;">
  <path d="M 13.400 64.000 H 17.300 C 17.400 64.000 17.300 63.900 17.300 64.000 V 66.900 C 17.300 66.955 17.345 67.000 17.400 67.000 H 23.400 C 23.455 67.000 23.500 66.955 23.500 66.900 V 64.000 C 23.500 63.900 23.400 64.000 23.500 64.000 H 27.400 H 28.900 H 30.400 H 34.300 C 34.400 64.000 34.300 63.900 34.300 64.000 V 66.900 C 34.300 66.955 34.345 67.000 34.400 67.000 H 40.400 C 40.455 67.000 40.500 66.955 40.500 66.900 V 64.000 C 40.500 63.900 40.400 64.000 40.500 64.000 H 44.400 H 45.900 H 47.400 H 51.300 C 51.400 64.000 51.300 63.900 51.300 64.000 V 66.900 C 51.300 66.955 51.345 67.000 51.400 67.000 H 57.400 C 57.455 67.000 57.500 66.955 57.500 66.900 V 64.000 C 57.500 63.900 57.400 64.000 57.500 64.000 H 61.400 H 62.900 H 64.400 H 68.300 C 68.400 64.000 68.300 63.900 68.300 64.000 V 66.900 C 68.300 66.955 68.345 67.000 68.400 67.000 H 74.400 C 74.455 67.000 74.500 66.955 74.500 66.900 V 64.000 C 74.500 63.900 74.400 64.000 74.500 64.000 H 78.400 H 79.900 H 81.400 H 85.300 C 85.400 64.000 85.300 63.900 85.300 64.000 V 66.900 C 85.300 66.955 85.345 67.000 85.400 67.000 H 91.400 C 91.455 67.000 91.500 66.955 91.500 66.900 V 64.000 C 91.500 63.900 91.400 64.000 91.500 64.000 H 95.400 C 95.455 64.000 95.500 63.955 95.500 63.900 V 60.400 V 56.900 C 95.500 56.845 95.455 56.800 95.400 56.800 H 81.400 C 81.345 56.800 81.300 56.845 81.300 56.900 V 60.300 C 81.300 60.400 81.400 60.300 81.300 60.300 H 78.500 C 78.400 60.300 78.500 60.400 78.500 60.300 V 56.900 C 78.500 56.845 78.455 56.800 78.400 56.800 H 64.400 C 64.345 56.800 64.300 56.845 64.300 56.900 V 60.300 C 64.300 60.400 64.400 60.300 64.300 60.300 H 61.500 C 61.400 60.300 61.500 60.400 61.500 60.300 V 56.900 C 61.500 56.845 61.455 56.800 61.400 56.800 H 47.400 C 47.345 56.800 47.300 56.845 47.300 56.900 V 60.300 C 47.300 60.400 47.400 60.300 47.300 60.300 H 44.500 C 44.400 60.300 44.500 60.400 44.500 60.300 V 56.900 C 44.500 56.845 44.455 56.800 44.400 56.800 H 30.400 C 30.345 56.800 30.300 56.845 30.300 56.900 V 60.300 C 30.300 60.400 30.400 60.300 30.300 60.300 H 27.500 C 27.400 60.300 27.500 60.400 27.500 60.300 V 56.900 C 27.500 56.845 27.455 56.800 27.400 56.800 H 13.400 C 13.345 56.800 13.300 56.845 13.300 56.900 V 60.400 V 63.900 C 13.300 63.955 13.345 64.000 13.400 64.000 Z" stroke="rgb(0,0,0)" stroke-width="0.20" />
</g>
<g id="p-7" style="fill:none;stroke-linecap:round;stroke-linejoin:round;">
  <path d="M 13.400 52.300 H 17.300 C 17.400 52.300 17.300 52.200 17.300 52.300 V 55.200 C 17.300 55.255 17.345 55.300 17.400 55.300 H 23.400 C 23.455 55.300 23.500 55.255 23.500 55.200 V 52.300 C 23.500 52.200 23.400 52.300 23.500 52.300 H 27.400 H 28.900 H 30.400 H 34.300 C 34.400 52.300 34.300 52.200 34.300 52.300 V 55.200 C 34.300 55.255 34.345 55.300 34.400 55.300 H 40.400 C 40.455 55.300 40.500 55.255 40.500 55.200 V 52.300 C 40.500 52.200 40.400 52.300 40.500 52.300 H 44.400 H 45.900 H 47.400 H 51.300 C 51.400 52.300 51.300 52.200 51.300 52.300 V 55.200 C 51.300 55.255 51.345 55.300 51.400 55.300 H 57.400 C 57.455 55.300 57.500 55.255 57.500 55.200 V 52.300 C 57.500 52.200 57.400 52.300 57.500 52.300 H 61.400 H 62.900 H 64.400 H 68.300 C 68.400 52.300 68.300 52.200 68.300 52.300 V 55.200 C 68.300 55.255 68.345 55.300 68.400 55.300 H 74.400 C 74.455 55.300 74.500 55.255 74.500 55.200 V 52.300 C 74.500 52.200 74.400 52.300 74.500 52.300 H 78.400 H 79.900 H 81.400 H 85.300 C 85.400 52.300 85.300 52.200 85.300 52.300 V 55.200 C 85.300 55.255 85.345 55.300 85.400 55.300 H 91.400 C 91.455 55.300 91.500 55.255 91.500 55.200 V 52.300 C 91.500 52.200 91.400 52.300 91.500 52.300 H 95.400 C 95.455 52.300 95.500 52.255 95.500 52.200 V 48.700 V 45.200 C 95.500 45.145 95.455 45.100 95.400 45.100 H 81.400 C 81.345 45.100 81.300 45.145 81.300 45.200 V 48.600 C 81.300 48.700 81.400 48.600 81.300 48.600 H 78.500 C 78.400 48.600 78.500 48.700 78.500 48.600 V 45.200 C 78.500 45.145 78.455 45.100 78.400 45.100 H 64.400 C 64.345 45.100 64.300 45.145 64.300 45.200 V 48.600 C 64.300 48.700 64.400 48.600 64.300 48.600 H 61.500 C 61.400 48.600 61.500 48.700 61.500 48.600 V 45.200 C 61.500 45.145 61.455 45.100 61.400 45.100 H 47.400 C 47.345 45.100 47.300 45.145 47.300 45.200 V 48.600 C 47.300 48.700 47.400 48.600 47.300 48.600 H 44.500 C 44.400 48.600 44.500 48.700 44.500 48.600 V 45.200 C 44.500 45.145 44.455 45.100 44.400 45.100 H 30.400 C 30.345 45.100 30.300 45.145 30.300 45.200 V 48.600 C 30.300 48.700 30.400 48.600 30.300 48.600 H 27.500 C 27.400 48.600 27.500 48.700 27.500 48.600 V 45.200 C 27.500 45.145 27.455 45.100 27.400 45.100 H 13.400 C 13.345 45.100 13.300 45.145 13.300 45.200 V 48.700 V 52.200 C 13.300 52.255 13.345 52.300 13.400 52.300 Z" stroke="rgb(0,0,0)" stroke-width="0.20" />
</g>
<g id="p-8" style="fill:none;stroke-linecap:round;stroke-linejoin:round;">
  <path d="M 13.400 40.600 H 17.300 C 17.400 40.600 17.300 40.500 17.300 40.600 V 43.500 C 17.300 43.555 17.345 43.600 17.400 43.600 H 23.400 C 23.455 43.600 23.500 43.555 23.500 43.500 V 40.600 C 23.500 40.500 23.400 40.600 23.500 40.600 H 27.400 H 28.900 H 30.400 H 34.300 C 34.400 40.600 34.300 40.500 34.300 40.600 V 43.500 C 34.300 43.555 34.345 43.600 34.400 43.600 H 40.400 C 40.455 43.600 40.500 43.555 40.500 43.500 V 40.600 C 40.500 40.500 40.400 40.600 40.500 40.600 H 44.400 H 45.900 H 47.400 H 51.300 C 51.400 40.600 51.300 40.500 51.300 40.600 V 43.500 C 51.300 43.555 51.345 43.600 51.400 43.600 H 57.400 C 57.455 43.600 57.500 43.555 57.500 43.500 V 40.600 C 57.500 40.500 57.400 40.600 57.500 40.600 H 61.400 H 62.900 H 64.400 H 68.300 C 68.400 40.600 68.300 40.500 68.300 40.600 V 43.500 C 68.300 43.555 68.345 43.600 68.400 43.600 H 74.400 C 74.455 43.600 74.500 43.555 74.500 43.500 V 40.600 C 74.500 40.500 74.400 40.600 74.500 40.600 H 78.400 H 79.900 H 81.400 H 85.300 C 85.400 40.600 85.300 40.500 85.300 40.600 V 43.500 C 85.300 43.555 85.345 43.600 85.400 43.600 H 91.400 C 91.455 43.600 91.500 43.555 91.500 43.500 V 40.600 C 91.500 40.500 91.400 40.600 91.500 40.600 H 95.400 C 95.455 40.600 95.500 40.555 95.500 40.500 V 37.000 V 33.500 C 95.500 33.445 95.455 33.400 95.400 33.400 H 81.400 C 81.345 33.400 81.300 33.445 81.300 33.500 V 36.900 C 81.300 37.000 81.400 36.900 81.300 36.900 H 78.500 C 78.400 36.900 78.500 37.000 78.500 36.900 V 33.500 C 78.500 33.445 78.455 33.400 78.400 33.400 H 64.400 C 64.345 33.400 64.300 33.445 64.300 33.500 V 36.900 C 64.300 37.000 64.400 36.900 64.300 36.900 H 61.500 C 61.400 36.900 61.500 37.000 61.500 36.900 V 33.500 C 61.500 33.445 61.455 33.400 61.400 33.400 H 47.400 C 47.345 33.400 47.300 33.445 47.300 33.500 V 36.900 C 47.300 37.000 47.400 36.900 47.300 36.900 H 44.500 C 44.400 36.900 44.500 37.000 44.500 36.900 V 33.500 C 44.500 33.445 44.455 33.400 44.400 33.400 H 30.400 C 30.345 33.400 30.300 33.445 30.300 33.500 V 36.900 C 30.300 37.000 30.400 36.900 30.300 36.900 H 27.500 C 27.400 36.900 27.500 37.000 27.500 36.900 V 33.500 C 27.500 33.445 27.455 33.400 27.400 33.400 H 13.400 C 13.345 33.400 13.300 33.445 13.300 33.500 V 37.000 V 40.500 C 13.300 40.555 13.345 40.600 13.400 40.600 Z" stroke="rgb(0,0,0)" stroke-width="0.20" />
</g>
<g id="p-9" style="fill:none;stroke-linecap:round;stroke-linejoin:round;">
  <path d="M 13.400 28.900 H 17.300 C 17.400 28.900 17.300 28.800 17.300 28.900 V 31.800 C 17.300 31.855 17.345 31.900 17.400 31.900 H 23.400 C 23.455 31.900 23.500 31.855 23.500 31.800 V 28.900 C 23.500 28.800 23.400 28.900 23.500 28.900 H 27.400 H 28.900 H 30.400 H 34.300 C 34.400 28.900 34.300 28.800 34.300 28.900 V 31.800 C 34.300 31.855 34.345 31.900 34.400 31.900 H 40.400 C 40.455 31.900 40.500 31.855 40.500 31.800 V 28.900 C 40.500 28.800 40.400 28.900 40.500 28.900 H 44.400 H 45.900 H 47.400 H 51.300 C 51.400 28.900 51.300 28.800 51.300 28.900 V 31.800 C 51.300 31.855 51.345 31.900 51.400 31.900 H 57.400 C 57.455 31.900 57.500 31.855 57.500 31.800 V 28.900 C 57.500 28.800 57.400 28.900 57.500 28.900 H 61.400 H 62.900 H 64.400 H 68.300 C 68.400 28.900 68.300 28.800 68.300 28.900 V 31.800 C 68.300 31.855 68.345 31.900 68.400 31.900 H 74.400 C 74.455 31.900 74.500 31.855 74.500 31.800 V 28.900 C 74.500 28.800 74.400 28.900 74.500 28.900 H 78.400 H 79.900 H 81.400 H 85.300 C 85.400 28.900 85.300 28.800 85.300 28.900 V 31.800 C 85.300 31.855 85.345 31.900 85.400 31.900 H 91.400 C 91.455 31.900 91.500 31.855 91.500 31.800 V 28.900 C 91.500 28.800 91.400 28.900 91.500 28.900 H 95.400 C 95.455 28.900 95.500 28.855 95.500 28.800 V 25.300 V 21.800 C 95.500 21.745 95.455 21.700 95.400 21.700 H 81.400 C 81.345 21.700 81.300 21.745 81.300 21.800 V 25.200 C 81.300 25.300 81.400 25.200 81.300 25.200 H 78.500 C 78.400 25.200 78.500 25.300 78.500 25.200 V 21.800 C 78.500 21.745 78.455 21.700 78.400 21.700 H 64.400 C 64.345 21.700 64.300 21.745 64.300 21.800 V 25.200 C 64.300 25.300 64.400 25.200 64.300 25.200 H 61.500 C 61.400 25.200 61.500 25.300 61.500 25.200 V 21.800 C 61.500 21.745 61.455 21.700 61.400 21.700 H 47.400 C 47.345 21.700 47.300 21.745 47.300 21.800 V 25.200 C 47.300 25.300 47.400 25.200 47.300 25.200 H 44.500 C 44.400 25.200 44.500 25.300 44.500 25.200 V 21.800 C 44.500 21.745 44.455 21.700 44.400 21.700 H 30.400 C 30.345 21.700 30.300 21.745 30.300 21.800 V 25.200 C 30.300 25.300 30.400 25.200 30.300 25.200 H 27.500 C 27.400 25.200 27.500 25.300 27.500 25.200 V 21.800 C 27.500 21.745 27.455 21.700 27.400 21.700 H 13.400 C 13.345 21.700 13.300 21.745 13.300 21.800 V 25.300 V 28.800 C 13.300 28.855 13.345 28.900 13.400 28.900 Z" stroke="rgb(0,0,0)" stroke-width="0.20" />
</g>
<g id="p-10" style="fill:none;stroke-linecap:round;stroke-linejoin:round;">
  <path d="M 13.400 17.200 H 17.300 C 17.400 17.200 17.300 17.100 17.300 17.200 V 20.100 C 17.300 20.155 17.345 20.200 17.400 20.200 H 23.400 C 23.455 20.200 23.500 20.155 23.500 20.100 V 17.200 C 23.500 17.100 23.400 17.200 23.500 17.200 H 27.400 H 28.900 H 30.400 H 34.300 C 34.400 17.200 34.300 17.100 34.300 17.200 V 20.100 C 34.300 20.155 34.345 20.200 34.400 20.200 H 40.400 C 40.455 20.200 40.500 20.155 40.500 20.100 V 17.200 C 40.500 17.100 40.400 17.200 40.500 17.200 H 44.400 H 45.900 H 47.400 H 51.300 C 51.400 17.200 51.300 17.100 51.300 17.200 V 20.100 C 51.300 20.155 51.345 20.200 51.400 20.200 H 57.400 C 57.455 20.200 57.500 20.155 57.500 20.100 V 17.200 C 57.500 17.100 57.400 17.200 57.500 17.200 H 61.400 H 62.900 H 64.400 H 68.300 C 68.400 17.200 68.300 17.100 68.300 17.200 V 20.100 C 68.300 20.155 68.345 20.200 68.400 20.200 H 74.400 C 74.455 20.200 74.500 20.155 74.500 20.100 V 17.200 C 74.500 17.100 74.400 17.200 74.500 17.200 H 78.400 H 79.900 H 81.400 H 85.300 C 85.400 17.200 85.300 17.100 85.300 17.200 V 20.100 C 85.300 20.155 85.345 20.200 85.400 20.200 H 91.400 C 91.455 20.200 91.500 20.155 91.500 20.100 V 17.200 C 91.500 17.100 91.400 17.200 91.500 17.200 H 95.400 C 95.455 17.200 95.500 17.155 95.500 17.100 V 13.600 V 10.100 C 95.500 10.045 95.455 10.000 95.400 10.000 H 81.400 C 81.345 10.000 81.300 10.045 81.300 10.100 V 13.500 C 81.300 13.600 81.400 13.500 81.300 13.500 H 78.500 C 78.400 13.500 78.500 13.600 78.500 13.500 V 10.100 C 78.500 10.045 78.455 10.000 78.400 10.000 H 64.400 C 64.345 10.000 64.300 10.045 64.300 10.100 V 13.500 C 64.300 13.600 64.400 13.500 64.300 13.500 H 61.500 C 61.400 13.500 61.500 13.600 61.500 13.500 V 10.100 C 61.500 10.045 61.455 10.000 61.400 10.000 H 47.400 C 47.345 10.000 47.300 10.045 47.300 10.100 V 13.500 C 47.300 13.600 47.400 13.500 47.300 13.500 H 44.500 C 44.400 13.500 44.500 13.600 44.500 13.500 V 10.100 C 44.500 10.045 44.455 10.000 44.400 10.000 H 30.400 C 30.345 10.000 30.300 10.045 30.300 10.100 V 13.500 C 30.300 13.600 30.400 13.500 30.300 13.500 H 27.500 C 27.400 13.500 27.500 13.600 27.500 13.500 V 10.100 C 27.500 10.045 27.455 10.000 27.400 10.000 H 13.400 C 13.345 10.000 13.300 10.045 13.300 10.100 V 13.600 V 17.100 C 13.300 17.155 13.345 17.200 13.400 17.200 Z" stroke="rgb(0,0,0)" stroke-width="0.20" />
</g>
<g id="p-11" style="fill:none;stroke-linecap:round;stroke-linejoin:round;">
  <path d="M 109.600 257.300 H 106.700 C 106.600 257.300 106.700 257.400 106.700 257.300 V 254.500 C 106.700 254.400 106.600 254.500 106.700 254.500 H 112.500 C 112.600 254.500 112.500 254.400 112.500 254.500 V 257.300 C 112.500 257.400 112.600 257.300 112.500 257.300 H 109.600 Z" stroke="rgb(0,0,255)" stroke-width="0.20" />
  <path d="M 121.600 257.300 H 118.700 C 118.600 257.300 118.700 257.400 118.700 257.300 V 254.500 C 118.700 254.400 118.600 254.500 118.700 254.500 H 124.500 C 124.600 254.500 124.500 254.400 124.500 254.500 V 257.300 C 124.500 257.400 124.600 257.300 124.500 257.300 H 121.600 Z" stroke="rgb(0,0,255)" stroke-width="0.20" />
  <path d="M 133.600 257.300 H 130.700 C 130.600 257.300 130.700 257.400 130.700 257.300 V 254.500 C 130.700 254.400 130.600 254.500 130.700 254.500 H 136.500 C 136.600 254.500 136.500 254.400 136.500 254.500 V 257.300 C 136.500 257.400 136.600 257.300 136.500 257.300 H 133.600 Z" stroke="rgb(0,0,255)" stroke-width="0.20" />
  <path d="M 145.600 257.300 H 142.700 C 142.600 257.300 142.700 257.400 142.700 257.300 V 254.500 C 142.700 254.400 142.600 254.500 142.700 254.500 H 148.500 C 148.600 254.500 148.500 254.400 148.500 254.500 V 257.300 C 148.500 257.400 148.600 257.300 148.500 257.300 H 145.600 Z" stroke="rgb(0,0,255)" stroke-width="0.20" />
  <path d="M 157.600 257.300 H 154.700 C 154.600 257.300 154.700 257.400 154.700 257.300 V 254.500 C 154.700 254.400 154.600 254.500 154.700 254.500 H 160.500 C 160.600 254.500 160.500 254.400 160.500 254.500 V 257.300 C 160.500 257.400 160.600 257.300 160.500 257.300 H 157.600 Z" stroke="rgb(0,0,255)" stroke-width="0.20" />
  <path d="M 169.600 257.300 H 166.700 C 166.600 257.300 166.700 257.400 166.700 257.300 V 254.500 C 166.700 254.400 166.600 254.500 166.700 254.500 H 172.500 C 172.600 254.500 172.500 254.400 172.500 254.500 V 257.300 C 172.500 257.400 172.600 257.300 172.500 257.300 H 169.600 Z" stroke="rgb(0,0,255)" stroke-width="0.20" />
  <path d="M 181.600 257.300 H 178.700 C 178.600 257.300 178.700 257.400 178.700 257.300 V 254.500 C 178.700 254.400 178.600 254.500 178.700 254.500 H 184.500 C 184.600 254.500 184.500 254.400 184.500 254.500 V 257.300 C 184.500 257.400 184.600 257.300 184.500 257.300 H 181.600 Z" stroke="rgb(0,0,255)" stroke-width="0.20" />
  <path d="M 193.600 257.300 H 190.700 C 190.600 257.300 190.700 257.400 190.700 257.300 V 254.500 C 190.700 254.400 190.600 254.500 190.700 254.500 H 196.500 C 196.600 254.500 196.500 254.400 196.500 254.500 V 257.300 C 196.500 257.400 196.600 257.300 196.500 257.300 H 193.600 Z" stroke="rgb(0,0,255)" stroke-width="0.20" />
  <path d="M 205.600 257.300 H 202.700 C 202.600 257.300 202.700 257.400 202.700 257.300 V 254.500 C 202.700 254.400 202.600 254.500 202.700 254.500 H 208.500 C 208.600 254.500 208.500 254.400 208.500 254.500 V 257.300 C 208.500 257.400 208.600 257.300 208.500 257.300 H 205.600 Z" stroke="rgb(0,0,255)" stroke-width="0.20" />
  <path d="M 217.600 257.300 H 214.700 C 214.600 257.300 214.700 257.400 214.700 257.300 V 254.500 C 214.700 254.400 214.600 254.500 214.700 254.500 H 220.500 C 220.600 254.500 220.500 254.400 220.500 254.500 V 257.300 C 220.500 257.400 220.600 257.300 220.500 257.300 H 217.600 Z" stroke="rgb(0,0,255)" stroke-width="0.20" />
  <path d="M 229.600 257.300 H 226.700 C 226.600 257.300 226.700 257.400 226.700 257.300 V 254.500 C 226.700 254.400 226.600 254.500 226.700 254.500 H 232.500 C 232.600 254.500 232.500 254.400 232.500 254.500 V 257.300 C 232.500 257.400 232.600 257.300 232.500 257.300 H 229.600 Z" stroke="rgb(0,0,255)" stroke-width="0.20" />
  <path d="M 103.100 260.500 H 236.100 C 236.155 260.500 236.200 260.455 236.200 260.400 V 257.000 C 236.200 256.900 236.100 257.000 236.200 257.000 H 239.100 C 239.155 257.000 239.200 256.955 239.200 256.900 V 250.900 C 239.200 250.845 239.155 250.800 239.100 250.800 H 236.200 C 236.100 250.800 236.200 250.900 236.200 250.800 V 247.400 C 236.200 247.345 236.155 247.300 236.100 247.300 H 103.100 C 103.045 247.300 103.000 247.345 103.000 247.400 V 250.800 C 103.000 250.900 103.100 250.800 103.000 250.800 H 100.100 C 100.045 250.800 100.000 250.845 100.000 250.900 V 256.900 C 100.000 256.955 100.045 257.000 100.100 257.000 H 103.000 C 103.100 257.000 103.000 256.900 103.000 257.000 V 260.400 C 103.000 260.455 103.045 260.500 103.100 260.500 Z" stroke="rgb(0,0,0)" stroke-width="0.20" />
</g>
<g id="p-12" style="fill:none;stroke-linecap:round;stroke-linejoin:round;">
  <path d="M 109.600 242.600 H 106.700 C 106.600 242.600 106.700 242.700 106.700 242.600 V 239.800 C 106.700 239.700 106.600 239.800 106.700 239.800 H 112.500 C 112.600 239.800 112.500 239.700 112.500 239.800 V 242.600 C 112.500 242.700 112.600 242.600 112.500 242.600 H 109.600 Z" stroke="rgb(0,0,255)" stroke-width="0.20" />
  <path d="M 121.600 242.600 H 118.700 C 118.600 242.600 118.700 242.700 118.700 242.600 V 239.800 C 118.700 239.700 118.600 239.800 118.700 239.800 H 124.500 C 124.600 239.800 124.500 239.700 124.500 239.800 V 242.600 C 124.500 242.700 124.600 242.600 124.500 242.600 H 121.600 Z" stroke="rgb(0,0,255)" stroke-width="0.20" />
  <path d="M 133.600 242.600 H 130.700 C 130.600 242.600 130.700 242.700 130.700 242.600 V 239.800 C 130.700 239.700 130.600 239.800 130.700 239.800 H 136.500 C 136.600 239.800 136.500 239.700 136.500 239.800 V 242.600 C 136.500 242.700 136.600 242.600 136.500 242.600 H 133.600 Z" stroke="rgb(0,0,255)" stroke-width="0.20" />
  <path d="M 145.600 242.600 H 142.700 C 142.600 242.600 142.700 242.700 142.700 242.600 V 239.800 C 142.700 239.700 142.600 239.800 142.700 239.800 H 148.500 C 148.600 239.800 148.500 239.700 148.500 239.800 V 242.600 C 148.500 242.700 148.600 242.600 148.500 242.600 H 145.600 Z" stroke="rgb(0,0,255)" stroke-width="0.20" />
  <path d="M 157.600 242.600 H 154.700 C 154.600 242.600 154.700 242.700 154.700 242.600 V 239.800 C 154.700 239.700 154.600 239.800 154.700 239.800 H 160.500 C 160.600 239.800 160.500 239.700 160.500 239.800 V 242.600 C 160.500 242.700 160.600 242.600 160.500 242.600 H 157.600 Z" stroke="rgb(0,0,255)" stroke-width="0.20" />
  <path d="M 169.600 242.600 H 166.700 C 166.600 242.600 166.700 242.700 166.700 242.600 V 239.800 C 166.700 239.700 166.600 239.800 166.700 239.800 H 172.500 C 172.600 239.800 172.500 239.700 172.500 239.800 V 242.600 C 172.500 242.700 172.600 242.600 172.500 242.600 H 169.600 Z" stroke="rgb(0,0,255)" stroke-width="0.20" />
  <path d="M 181.600 242.600 H 178.700 C 178.600 242.600 178.700 242.700 178.700 242.600 V 239.800 C 178.700 239.700 178.600 239.800 178.700 239.800 H 184.500 C 184.600 239.800 184.500 239.700 184.500 239.800 V 242.600 C 184.500 242.700 184.600 242.600 184.500 242.600 H 181.600 Z" stroke="rgb(0,0,255)" stroke-width="0.20" />
  <path d="M 193.600 242.600 H 190.700 C 190.600 242.600 190.700 242.700 190.700 242.600 V 239.800 C 190.700 239.700 190.600 239.800 190.700 239.800 H 196.500 C 196.600 239.800 196.500 239.700 196.500 239.800 V 242.600 C 196.500 242.700 196.600 242.600 196.500 242.600 H 193.600 Z" stroke="rgb(0,0,255)" stroke-width="0.20" />
  <path d="M 205.600 242.600 H 202.700 C 202.600 242.600 202.700 242.700 202.700 242.600 V 239.800 C 202.700 239.700 202.600 239.800 202.700 239.800 H 208.500 C 208.600 239.800 208.500 239.700 208.500 239.800 V 242.600 C 208.500 242.700 208.600 242.600 208.500 242.600 H 205.600 Z" stroke="rgb(0,0,255)" stroke-width="0.20" />
  <path d="M 217.600 242.600 H 214.700 C 214.600 242.600 214.700 242.700 214.700 242.600 V 239.800 C 214.700 239.700 214.600 239.800 214.700 239.800 H 220.500 C 220.600 239.800 220.500 239.700 220.500 239.800 V 242.600 C 220.500 242.700 220.600 242.600 220.500 242.600 H 217.600 Z" stroke="rgb(0,0,255)" stroke-width="0.20" />
  <path d="M 229.600 242.600 H 226.700 C 226.600 242.600 226.700 242.700 226.700 242.600 V 239.800 C 226.700 239.700 226.600 239.800 226.700 239.800 H 232.500 C 232.600 239.800 232.500 239.700 232.500 239.800 V 242.600 C 232.500 242.700 232.600 242.600 232.500 242.600 H 229.600 Z" stroke="rgb(0,0,255)" stroke-width="0.20" />
  <path d="M 103.100 245.800 H 236.100 C 236.155 245.800 236.200 245.755 236.200 245.700 V 242.300 C 236.200 242.200 236.100 242.300 236.200 242.300 H 239.100 C 239.155 242.300 239.200 242.255 239.200 242.200 V 236.200 C 239.200 236.145 239.155 236.100 239.100 236.100 H 236.200 C 236.100 236.100 236.200 236.200 236.200 236.100 V 232.700 C 236.200 232.645 236.155 232.600 236.100 232.600 H 103.100 C 103.045 232.600 103.000 232.645 103.000 232.700 V 236.100 C 103.000 236.200 103.100 236.100 103.000 236.100 H 100.100 C 100.045 236.100 100.000 236.145 100.000 236.200 V 242.200 C 100.000 242.255 100.045 242.300 100.100 242.300 H 103.000 C 103.100 242.300 103.000 242.200 103.000 242.300 V 245.700 C 103.000 245.755 103.045 245.800 103.100 245.800 Z" stroke="rgb(0,0,0)" stroke-width="0.20" />
</g>
<g id="p-13" style="fill:none;stroke-linecap:round;stroke-linejoin:round;">
  <path d="M 103.100 228.100 H 107.000 C 107.100 228.100 107.000 228.000 107.000 228.100 V 231.000 C 107.000 231.055 107.045 231.100 107.100 231.100 H 113.100 C 113.155 231.100 113.200 231.055 113.200 231.000 V 228.100 C 113.200 228.000 113.100 228.100 113.200 228.100 H 117.100 C 117.155 228.100 117.200 228.055 117.200 228.000 V 224.600 C 117.200 224.500 117.100 224.600 117.200 224.600 H 120.000 C 120.100 224.600 120.000 224.500 120.000 224.600 V 228.000 C 120.000 228.055 120.045 228.100 120.100 228.100 H 124.000 C 124.100 228.100 124.000 228.000 124.000 228.100 V 231.000 C 124.000 231.055 124.045 231.100 124.100 231.100 H 130.100 C 130.155 231.100 130.200 231.055 130.200 231.000 V 228.100 C 130.200 228.000 130.100 228.100 130.200 228.100 H 134.100 C 134.155 228.100 134.200 228.055 134.200 228.000 V 224.600 C 134.200 224.500 134.100 224.600 134.200 224.600 H 137.000 C 137.100 224.600 137.000 224.500 137.000 224.600 V 228.000 C 137.000 228.055 137.045 228.100 137.100 228.100 H 141.000 C 141.100 228.100 141.000 228.000 141.000 228.100 V 231.000 C 141.000 231.055 141.045 231.100 141.100 231.100 H 147.100 C 147.155 231.100 147.200 231.055 147.200 231.000 V 228.100 C 147.200 228.000 147.100 228.100 147.200 228.100 H 151.100 C 151.155 228.100 151.200 228.055 151.200 228.000 V 224.600 C 151.200 224.500 151.100 224.600 151.200 224.600 H 154.000 C 154.100 224.600 154.000 224.500 154.000 224.600 V 228.000 C 154.000 228.055 154.045 228.100 154.100 228.100 H 158.000 C 158.100 228.100 158.000 228.000 158.000 228.100 V 231.000 C 158.000 231.055 158.045 231.100 158.100 231.100 H 164.100 C 164.155 231.100 164.200 231.055 164.200 231.000 V 228.100 C 164.200 228.000 164.100 228.100 164.200 228.100 H 168.100 C 168.155 228.100 168.200 228.055 168.200 228.000 V 224.600 C 168.200 224.500 168.100 224.600 168.200 224.600 H 171.000 C 171.100 224.600 171.000 224.500 171.000 224.600 V 228.000 C 171.000 228.055 171.045 228.100 171.100 228.100 H 175.000 C 175.100 228.100 175.000 228.000 175.000 228.100 V 231.000 C 175.000 231.055 175.045 231.100 175.100 231.100 H 181.100 C 181.155 231.100 181.200 231.055 181.200 231.000 V 228.100 C 181.200 228.000 181.100 228.100 181.200 228.100 H 185.100 C 185.155 228.100 185.200 228.055 185.200 228.000 V 224.600 C 185.200 224.500 185.100 224.600 185.200 224.600 H 188.000 C 188.100 224.600 188.000 224.500 188.000 224.600 V 228.000 C 188.000 228.055 188.045 228.100 188.100 228.100 H 192.000 C 192.100 228.100 192.000 228.000 192.000 228.100 V 231.000 C 192.000 231.055 192.045 231.100 192.100 231.100 H 198.100 C 198.155 231.100 198.200 231.055 198.200 231.000 V 228.100 C 198.200 228.000 198.100 228.100 198.200 228.100 H 202.100 C 202.155 228.100 202.200 228.055 202.200 228.000 V 224.600 C 202.200 224.500 202.100 224.600 202.200 224.600 H 205.000 C 205.100 224.600 205.000 224.500 205.000 224.600 V 228.000 C 205.000 228.055 205.045 228.100 205.100 228.100 H 209.000 C 209.100 228.100 209.000 228.000 209.000 228.100 V 231.000 C 209.000 231.055 209.045 231.100 209.100 231.100 H 215.100 C 215.155 231.100 215.200 231.055 215.200 231.000 V 228.100 C 215.200 228.000 215.100 228.100 215.200 228.100 H 219.100 C 219.155 228.100 219.200 228.055 219.200 228.000 V 224.600 C 219.200 224.500 219.100 224.600 219.200 224.600 H 222.000 C 222.100 224.600 222.000 224.500 222.000 224.600 V 228.000 C 222.000 228.055 222.045 228.100 222.100 228.100 H 226.000 C 226.100 228.100 226.000 228.000 226.000 228.100 V 231.000 C 226.000 231.055 226.045 231.100 226.100 231.100 H 232.100 C 232.155 231.100 232.200 231.055 232.200 231.000 V 228.100 C 232.200 228.000 232.100 228.100 232.200 228.100 H 236.100 C 236.155 228.100 236.200 228.055 236.200 228.000 V 224.500 V 221.000 C 236.200 220.945 236.155 220.900 236.100 220.900 H 103.100 C 103.045 220.900 103.000 220.945 103.000 221.000 V 224.500 V 228.000 C 103.000 228.055 103.045 228.100 103.100 228.100 Z" stroke="rgb(0,0,0)" stroke-width="0.20" />
</g>
<g id="p-14" style="fill:none;stroke-linecap:round;stroke-linejoin:round;">
  <path d="M 103.100 216.400 H 107.000 C 107.100 216.400 107.000 216.300 107.000 216.400 V 219.300 C 107.000 219.355 107.045 219.400 107.100 219.400 H 113.100 C 113.155 219.400 113.200 219.355 113.200 219.300 V 216.400 C 113.200 216.300 113.100 216.400 113.200 216.400 H 117.100 C 117.155 216.400 117.200 216.355 117.200 216.300 V 212.900 C 117.200 212.800 117.100 212.900 117.200 212.900 H 120.000 C 120.100 212.900 120.000 212.800 120.000 212.900 V 216.300 C 120.000 216.355 120.045 216.400 120.100 216.400 H 124.000 C 124.100 216.400 124.000 216.300 124.000 216.400 V 219.300 C 124.000 219.355 124.045 219.400 124.100 219.400 H 130.100 C 130.155 219.400 130.200 219.355 130.200 219.300 V 216.400 C 130.200 216.300 130.100 216.400 130.200 216.400 H 134.100 C 134.155 216.400 134.200 216.355 134.200 216.300 V 212.900 C 134.200 212.800 134.100 212.900 134.200 212.900 H 137.000 C 137.100 212.900 137.000 212.800 137.000 212.900 V 216.300 C 137.000 216.355 137.045 216.400 137.100 216.400 H 141.000 C 141.100 216.400 141.000 216.300 141.000 216.400 V 219.300 C 141.000 219.355 141.045 219.400 141.100 219.400 H 147.100 C 147.155 219.400 147.200 219.355 147.200 219.300 V 216.400 C 147.200 216.300 147.100 216.400 147.200 216.400 H 151.100 C 151.155 216.400 151.200 216.355 151.200 216.300 V 212.900 C 151.200 212.800 151.100 212.900 151.200 212.900 H 154.000 C 154.100 212.900 154.000 212.800 154.000 212.900 V 216.300 C 154.000 216.355 154.045 216.400 154.100 216.400 H 158.000 C 158.100 216.400 158.000 216.300 158.000 216.400 V 219.300 C 158.000 219.355 158.045 219.400 158.100 219.400 H 164.100 C 164.155 219.400 164.200 219.355 164.200 219.300 V 216.400 C 164.200 216.300 164.100 216.400 164.200 216.400 H 168.100 C 168.155 216.400 168.200 216.355 168.200 216.300 V 212.900 C 168.200 212.800 168.100 212.900 168.200 212.900 H 171.000 C 171.100 212.900 171.000 212.800 171.000 212.900 V 216.300 C 171.000 216.355 171.045 216.400 171.100 216.400 H 175.000 C 175.100 216.400 175.000 216.300 175.000 216.400 V 219.300 C 175.000 219.355 175.045 219.400 175.100 219.400 H 181.100 C 181.155 219.400 181.200 219.355 181.200 219.300 V 216.400 C 181.200 216.300 181.100 216.400 181.200 216.400 H 185.100 C 185.155 216.400 185.200 216.355 185.200 216.300 V 212.900 C 185.200 212.800 185.100 212.900 185.200 212.900 H 188.000 C 188.100 212.900 188.000 212.800 188.000 212.900 V 216.300 C 188.000 216.355 188.045 216.400 188.100 216.400 H 192.000 C 192.100 216.400 192.000 216.300 192.000 216.400 V 219.300 C 192.000 219.355 192.045 219.400 192.100 219.400 H 198.100 C 198.155 219.400 198.200 219.355 198.200 219.300 V 216.400 C 198.200 216.300 198.100 216.400 198.200 216.400 H 202.100 C 202.155 216.400 202.200 216.355 202.200 216.300 V 212.900 C 202.200 212.800 202.100 212.900 202.200 212.900 H 205.000 C 205.100 212.900 205.000 212.800 205.000 212.900 V 216.300 C 205.000 216.355 205.045 216.400 205.100 216.400 H 209.000 C 209.100 216.400 209.000 216.300 209.000 216.400 V 219.300 C 209.000 219.355 209.045 219.400 209.100 219.400 H 215.100 C 215.155 219.400 215.200 219.355 215.200 219.300 V 216.400 C 215.200 216.300 215.100 216.400 215.200 216.400 H 219.100 C 219.155 216.400 219.200 216.355 219.200 216.300 V 212.900 C 219.200 212.800 219.100 212.900 219.200 212.900 H 222.000 C 222.100 212.900 222.000 212.800 222.000 212.900 V 216.300 C 222.000 216.355 222.045 216.400 222.100 216.400 H 226.000 C 226.100 216.400 226.000 216.300 226.000 216.400 V 219.300 C 226.000 219.355 226.045 219.400 226.100 219.400 H 232.100 C 232.155 219.400 232.200 219.355 232.200 219.300 V 216.400 C 232.200 216.300 232.100 216.400 232.200 216.400 H 236.100 C 236.155 216.400 236.200 216.355 236.200 216.300 V 212.800 V 209.300 C 236.200 209.245 236.155 209.200 236.100 209.200 H 103.100 C 103.045 209.200 103.000 209.245 103.000 209.300 V 212.800 V 216.300 C 103.000 216.355 103.045 216.400 103.100 216.400 Z" stroke="rgb(0,0,0)" stroke-width="0.20" />
</g>
<g id="p-15" style="fill:none;stroke-linecap:round;stroke-linejoin:round;">
  <path d="M 103.100 204.700 H 107.000 C 107.100 204.700 107.000 204.600 107.000 204.700 V 207.600 C 107.000 207.655 107.045 207.700 107.100 207.700 H 113.100 C 113.155 207.700 113.200 207.655 113.200 207.600 V 204.700 C 113.200 204.600 113.100 204.700 113.200 204.700 H 117.100 C 117.155 204.700 117.200 204.655 117.200 204.600 V 201.200 C 117.200 201.100 117.100 201.200 117.200 201.200 H 120.000 C 120.100 201.200 120.000 201.100 120.000 201.200 V 204.600 C 120.000 204.655 120.045 204.700 120.100 204.700 H 124.000 C 124.100 204.700 124.000 204.600 124.000 204.700 V 207.600 C 124.000 207.655 124.045 207.700 124.100 207.700 H 130.100 C 130.155 207.700 130.200 207.655 130.200 207.600 V 204.700 C 130.200 204.600 130.100 204.700 130.200 204.700 H 134.100 C 134.155 204.700 134.200 204.655 134.200 204.600 V 201.200 C 134.200 201.100 134.100 201.200 134.200 201.200 H 137.000 C 137.100 201.200 137.000 201.100 137.000 201.200 V 204.600 C 137.000 204.655 137.045 204.700 137.100 204.700 H 141.000 C 141.100 204.700 141.000 204.600 141.000 204.700 V 207.600 C 141.000 207.655 141.045 207.700 141.100 207.700 H 147.100 C 147.155 207.700 147.200 207.655 147.200 207.600 V 204.700 C 147.200 204.600 147.100 204.700 147.200 204.700 H 151.100 C 151.155 204.700 151.200 204.655 151.200 204.600 V 201.200 C 151.200 201.100 151.100 201.200 151.200 201.200 H 154.000 C 154.100 201.200 154.000 201.100 154.000 201.200 V 204.600 C 154.000 204.655 154.045 204.700 154.100 204.700 H 158.000 C 158.100 204.700 158.000 204.600 158.000 204.700 V 207.600 C 158.000 207.655 158.045 207.700 158.100 207.700 H 164.100 C 164.155 207.700 164.200 207.655 164.200 207.600 V 204.700 C 164.200 204.600 164.100 204.700 164.200 204.700 H 168.100 C 168.155 204.700 168.200 204.655 168.200 204.600 V 201.200 C 168.200 201.100 168.100 201.200 168.200 201.200 H 171.000 C 171.100 201.200 171.000 201.100 171.000 201.200 V 204.600 C 171.000 204.655 171.045 204.700 171.100 204.700 H 175.000 C 175.100 204.700 175.000 204.600 175.000 204.700 V 207.600 C 175.000 207.655 175.045 207.700 175.100 207.700 H 181.100 C 181.155 207.700 181.200 207.655 181.200 207.600 V 204.700 C 181.200 204.600 181.100 204.700 181.200 204.700 H 185.100 C 185.155 204.700 185.200 204.655 185.200 204.600 V 201.200 C 185.200 201.100 185.100 201.200 185.200 201.200 H 188.000 C 188.100 201.200 188.000 201.100 188.000 201.200 V 204.600 C 188.000 204.655 188.045 204.700 188.100 204.700 H 192.000 C 192.100 204.700 192.000 204.600 192.000 204.700 V 207.600 C 192.000 207.655 192.045 207.700 192.100 207.700 H 198.100 C 198.155 207.700 198.200 207.655 198.200 207.600 V 204.700 C 198.200 204.600 198.100 204.700 198.200 204.700 H 202.100 C 202.155 204.700 202.200 204.655 202.200 204.600 V 201.200 C 202.200 201.100 202.100 201.200 202.200 201.200 H 205.000 C 205.100 201.200 205.000 201.100 205.000 201.200 V 204.600 C 205.000 204.655 205.045 204.700 205.100 204.700 H 209.000 C 209.100 204.700 209.000 204.600 209.000 204.700 V 207.600 C 209.000 207.655 209.045 207.700 209.100 207.700 H 215.100 C 215.155 207.700 215.200 207.655 215.200 207.600 V 204.700 C 215.200 204.600 215.100 204.700 215.200 204.700 H 219.100 C 219.155 204.700 219.200 204.655 219.200 204.600 V 201.200 C 219.200 201.100 219.100 201.200 219.200 201.200 H 222.000 C 222.100 201.200 222.000 201.100 222.000 201.200 V 204.600 C 222.000 204.655 222.045 204.700 222.100 204.700 H 226.000 C 226.100 204.700 226.000 204.600 226.000 204.700 V 207.600 C 226.000 207.655 226.045 207.700 226.100 207.700 H 232.100 C 232.155 207.700 232.200 207.655 232.200 207.600 V 204.700 C 232.200 204.600 232.100 204.700 232.200 204.700 H 236.100 C 236.155 204.700 236.200 204.655 236.200 204.600 V 201.100 V 197.600 C 236.200 197.545 236.155 197.500 236.100 197.500 H 103.100 C 103.045 197.500 103.000 197.545 103.000 197.600 V 201.100 V 204.600 C 103.000 204.655 103.045 204.700 103.100 204.700 Z" stroke="rgb(0,0,0)" stroke-width="0.20" />
</g>
<g id="p-16" style="fill:none;stroke-linecap:round;stroke-linejoin:round;">
  <path d="M 103.100 193.000 H 107.000 C 107.100 193.000 107.000 192.900 107.000 193.000 V 195.900 C 107.000 195.955 107.045 196.000 107.100 196.000 H 113.100 C 113.155 196.000 113.200 195.955 113.200 195.900 V 193.000 C 113.200 192.900 113.100 193.000 113.200 193.000 H 117.100 C 117.155 193.000 117.200 192.955 117.200 192.900 V 189.500 C 117.200 189.400 117.100 189.500 117.200 189.500 H 120.000 C 120.100 189.500 120.000 189.400 120.000 189.500 V 192.900 C 120.000 192.955 120.045 193.000 120.100 193.000 H 124.000 C 124.100 193.000 124.000 192.900 124.000 193.000 V 195.900 C 124.000 195.955 124.045 196.000 124.100 196.000 H 130.100 C 130.155 196.000 130.200 195.955 130.200 195.900 V 193.000 C 130.200 192.900 130.100 193.000 130.200 193.000 H 134.100 C 134.155 193.000 134.200 192.955 134.200 192.900 V 189.500 C 134.200 189.400 134.100 189.500 134.200 189.500 H 137.000 C 137.100 189.500 137.000 189.400 137.000 189.500 V 192.900 C 137.000 192.955 137.045 193.000 137.100 193.000 H 141.000 C 141.100 193.000 141.000 192.900 141.000 193.000 V 195.900 C 141.000 195.955 141.045 196.000 141.100 196.000 H 147.100 C 147.155 196.000 147.200 195.955 147.200 195.900 V 193.000 C 147.200 192.900 147.100 193.000 147.200 193.000 H 151.100 C 151.155 193.000 151.200 192.955 151.200 192.900 V 189.500 C 151.200 189.400 151.100 189.500 151.200 189.500 H 154.000 C 154.100 189.500 154.000 189.400 154.000 189.500 V 192.900 C 154.000 192.955 154.045 193.000 154.100 193.000 H 158.000 C 158.100 193.000 158.000 192.900 158.000 193.000 V 195.900 C 158.000 195.955 158.045 196.000 158.100 196.000 H 164.100 C 164.155 196.000 164.200 195.955 164.200 195.900 V 193.000 C 164.200 192.900 164.100 193.000 164.200 193.000 H 168.100 C 168.155 193.000 168.200 192.955 168.200 192.900 V 189.500 C 168.200 189.400 168.100 189.500 168.200 189.500 H 171.000 C 171.100 189.500 171.000 189.400 171.000 189.500 V 192.900 C 171.000 192.955 171.045 193.000 171.100 193.000 H 175.000 C 175.100 193.000 175.000 192.900 175.000 193.000 V 195.900 C 175.000 195.955 175.045 196.000 175.100 196.000 H 181.100 C 181.155 196.000 181.200 195.955 181.200 195.900 V 193.000 C 181.200 192.900 181.100 193.000 181.200 193.000 H 185.100 C 185.155 193.000 185.200 192.955 185.200 192.900 V 189.500 C 185.200 189.400 185.100 189.500 185.200 189.500 H 188.000 C 188.100 189.500 188.000 189.400 188.000 189.500 V 192.900 C 188.000 192.955 188.045 193.000 188.100 193.000 H 192.000 C 192.100 193.000 192.000 192.900 192.000 193.000 V 195.900 C 192.000 195.955 192.045 196.000 192.100 196.000 H 198.100 C 198.155 196.000 198.200 195.955 198.200 195.900 V 193.000 C 198.200 192.900 198.100 193.000 198.200 193.000 H 202.100 C 202.155 193.000 202.200 192.955 202.200 192.900 V 189.500 C 202.200 189.400 202.100 189.500 202.200 189.500 H 205.000 C 205.100 189.500 205.000 189.400 205.000 189.500 V 192.900 C 205.000 192.955 205.045 193.000 205.100 193.000 H 209.000 C 209.100 193.000 209.000 192.900 209.000 193.000 V 195.900 C 209.000 195.955 209.045 196.000 209.100 196.000 H 215.100 C 215.155 196.000 215.200 195.955 215.200 195.900 V 193.000 C 215.200 192.900 215.100 193.000 215.200 193.000 H 219.100 C 219.155 193.000 219.200 192.955 219.200 192.900 V 189.500 C 219.200 189.400 219.100 189.500 219.200 189.500 H 222.000 C 222.100 189.500 222.000 189.400 222.000 189.500 V 192.900 C 222.000 192.955 222.045 193.000 222.100 193.000 H 226.000 C 226.100 193.000 226.000 192.900 226.000 193.000 V 195.900 C 226.000 195.955 226.045 196.000 226.100 196.000 H 232.100 C 232.155 196.000 232.200 195.955 232.200 195.900 V 193.000 C 232.200 192.900 232.100 193.000 232.200 193.000 H 236.100 C 236.155 193.000 236.200 192.955 236.200 192.900 V 189.400 V 185.900 C 236.200 185.845 236.155 185.800 236.100 185.800 H 103.100 C 103.045 185.800 103.000 185.845 103.000 185.900 V 189.400 V 192.900 C 103.000 192.955 103.045 193.000 103.100 193.000 Z" stroke="rgb(0,0,0)" stroke-width="0.20" />
</g>
</svg>