<?xml version='1.0' encoding='us-ascii'?>
<svg width="271.20mm" height="176.70mm" viewBox="0.0 0.0 271.20 176.70" xmlns="http://www.w3.org/2000/svg" xmlns:dc="http://purl.org/dc/elements/1.1/" xmlns:cc="http://creativecommons.org/ns#" xmlns:rdf="http://www.w3.org/1999/02/22-rdf-syntax-ns#" xmlns:svg="http://www.w3.org/2000/svg" xmlns:xlink="http://www.w3.org/1999/xlink" xmlns:inkscape="http://www.inkscape.org/namespaces/inkscape">
<!--
TypeTray - Type tray - allows only continuous walls

Created with Boxes.py (https://festi.info/boxes.py)
Creation date: 2022-10-13 19:48:52
Command line (remove spaces between dashes): boxes TypeTray - -FingerJoint_angle=90.0 - -FingerJoint_style=rectangular - -FingerJoint_surroundingspaces=0.5 - -FingerJoint_edge_width=1.0 - -FingerJoint_extra_length=0.0 - -FingerJoint_finger=2.0 - -FingerJoint_play=0.0 - -FingerJoint_space=2.0 - -FingerJoint_width=1.0 - -Stackable_angle=60 - -Stackable_height=2.0 - -Stackable_holedistance=1.0 - -Stackable_width=4.0 - -Hinge_grip_percentage=0 - -Hinge_outset=0 - -Hinge_pinwidth=0.5 - -Hinge_style=outset - -Hinge_axle=2.0 - -Hinge_grip_length=0 - -Hinge_hingestrength=1 - -CabinetHinge_bore=3.2 - -CabinetHinge_eyes_per_hinge=5 - -CabinetHinge_hinges=2 - -CabinetHinge_style=inside - -CabinetHinge_eye=1.5 - -CabinetHinge_play=0.05 - -CabinetHinge_spacing=2.0 - -Lid_angle=90.0 - -Lid_hole_width=0 - -Lid_second_pin=0 - -Lid_second_pin=1 - -Lid_spring=both - -Lid_style=rectangular - -Lid_surroundingspaces=2.0 - -Lid_edge_width=1.0 - -Lid_extra_length=0.0 - -Lid_finger=3.0 - -Lid_play=0.05 - -Lid_space=2.0 - -Lid_width=1.0 - -Click_angle=5.0 - -Click_bottom_radius=0.1 - -Click_depth=3.0 - -RoundedTriangleEdge_height=50.0 - -RoundedTriangleEdge_r_hole=2.0 - -RoundedTriangleEdge_radius=30.0 - -RoundedTriangleEdge_outset=1.0 - -Mounting_d_head=6.5 - -Mounting_d_shaft=3.0 - -Mounting_margin=0.125 - -Mounting_num=2 - -Mounting_side=back '- -Mounting_style=straight edge, within' - -HandleEdge_height=20.0 - -HandleEdge_hole_height=75.0 - -HandleEdge_hole_width=40:40 - -HandleEdge_on_sides=0 - -HandleEdge_on_sides=1 - -HandleEdge_radius=10.0 - -HandleEdge_outset=1.0 '- -sx=77*2' '- -sy=95*1' - -h=20 - -hi=0.0 - -outside=0 - -outside=1 - -bottom_edge=h - -top_edge=e - -back_height=0.0 - -radius=0.0 - -gripheight=30 - -gripwidth=70 - -handle=0 - -thickness=3.0 - -format=svg - -tabs=0.0 - -debug=0 - -labels=0 - -labels=1 - -reference=100 - -inner_corners=loop - -burn=0.1
Url: http://localhost:8000/TypeTray?FingerJoint_angle=90.0&FingerJoint_style=rectangular&FingerJoint_surroundingspaces=0.5&FingerJoint_edge_width=1.0&FingerJoint_extra_length=0.0&FingerJoint_finger=2.0&FingerJoint_play=0.0&FingerJoint_space=2.0&FingerJoint_width=1.0&Stackable_angle=60&Stackable_height=2.0&Stackable_holedistance=1.0&Stackable_width=4.0&Hinge_grip_percentage=0&Hinge_outset=0&Hinge_pinwidth=0.5&Hinge_style=outset&Hinge_axle=2.0&Hinge_grip_length=0&Hinge_hingestrength=1&CabinetHinge_bore=3.2&CabinetHinge_eyes_per_hinge=5&CabinetHinge_hinges=2&CabinetHinge_style=inside&CabinetHinge_eye=1.5&CabinetHinge_play=0.05&CabinetHinge_spacing=2.0&Lid_angle=90.0&Lid_hole_width=0&Lid_second_pin=0&Lid_second_pin=1&Lid_spring=both&Lid_style=rectangular&Lid_surroundingspaces=2.0&Lid_edge_width=1.0&Lid_extra_length=0.0&Lid_finger=3.0&Lid_play=0.05&Lid_space=2.0&Lid_width=1.0&Click_angle=5.0&Click_bottom_radius=0.1&Click_depth=3.0&RoundedTriangleEdge_height=50.0&RoundedTriangleEdge_r_hole=2.0&RoundedTriangleEdge_radius=30.0&RoundedTriangleEdge_outset=1.0&Mounting_d_head=6.5&Mounting_d_shaft=3.0&Mounting_margin=0.125&Mounting_num=2&Mounting_side=back&Mounting_style=straight+edge%2C+within&HandleEdge_height=20.0&HandleEdge_hole_height=75.0&HandleEdge_hole_width=40%3A40&HandleEdge_on_sides=0&HandleEdge_on_sides=1&HandleEdge_radius=10.0&HandleEdge_outset=1.0&sx=77*2&sy=95*1&h=20&hi=0.0&outside=0&outside=1&bottom_edge=h&top_edge=e&back_height=0.0&radius=0.0&gripheight=30&gripwidth=70&handle=0&thickness=3.0&format=svg&tabs=0.0&debug=0&labels=0&labels=1&reference=100&inner_corners=loop&burn=0.1&render=1
SettingsUrl: http://localhost:8000/TypeTray?FingerJoint_angle=90.0&FingerJoint_style=rectangular&FingerJoint_surroundingspaces=0.5&FingerJoint_edge_width=1.0&FingerJoint_extra_length=0.0&FingerJoint_finger=2.0&FingerJoint_play=0.0&FingerJoint_space=2.0&FingerJoint_width=1.0&Stackable_angle=60&Stackable_height=2.0&Stackable_holedistance=1.0&Stackable_width=4.0&Hinge_grip_percentage=0&Hinge_outset=0&Hinge_pinwidth=0.5&Hinge_style=outset&Hinge_axle=2.0&Hinge_grip_length=0&Hinge_hingestrength=1&CabinetHinge_bore=3.2&CabinetHinge_eyes_per_hinge=5&CabinetHinge_hinges=2&CabinetHinge_style=inside&CabinetHinge_eye=1.5&CabinetHinge_play=0.05&CabinetHinge_spacing=2.0&Lid_angle=90.0&Lid_hole_width=0&Lid_second_pin=0&Lid_second_pin=1&Lid_spring=both&Lid_style=rectangular&Lid_surroundingspaces=2.0&Lid_edge_width=1.0&Lid_extra_length=0.0&Lid_finger=3.0&Lid_play=0.05&Lid_space=2.0&Lid_width=1.0&Click_angle=5.0&Click_bottom_radius=0.1&Click_depth=3.0&RoundedTriangleEdge_height=50.0&RoundedTriangleEdge_r_hole=2.0&RoundedTriangleEdge_radius=30.0&RoundedTriangleEdge_outset=1.0&Mounting_d_head=6.5&Mounting_d_shaft=3.0&Mounting_margin=0.125&Mounting_num=2&Mounting_side=back&Mounting_style=straight+edge%2C+within&HandleEdge_height=20.0&HandleEdge_hole_height=75.0&HandleEdge_hole_width=40%3A40&HandleEdge_on_sides=0&HandleEdge_on_sides=1&HandleEdge_radius=10.0&HandleEdge_outset=1.0&sx=77*2&sy=95*1&h=20&hi=0.0&outside=0&outside=1&bottom_edge=h&top_edge=e&back_height=0.0&radius=0.0&gripheight=30&gripwidth=70&handle=0&thickness=3.0&format=svg&tabs=0.0&debug=0&labels=0&labels=1&reference=100&inner_corners=loop&burn=0.1
-->
<title>TypeTray</title>
<metadata>
<rdf:RDF><cc:Work>
<dc:title>Tray - TypeTray</dc:title>
<dc:date>2022-10-13 19:48:52</dc:date>
<dc:source>http://localhost:8000/TypeTray?FingerJoint_angle=90.0&amp;FingerJoint_style=rectangular&amp;FingerJoint_surroundingspaces=0.5&amp;FingerJoint_edge_width=1.0&amp;FingerJoint_extra_length=0.0&amp;FingerJoint_finger=2.0&amp;FingerJoint_play=0.0&amp;FingerJoint_space=2.0&amp;FingerJoint_width=1.0&amp;Stackable_angle=60&amp;Stackable_height=2.0&amp;Stackable_holedistance=1.0&amp;Stackable_width=4.0&amp;Hinge_grip_percentage=0&amp;Hinge_outset=0&amp;Hinge_pinwidth=0.5&amp;Hinge_style=outset&amp;Hinge_axle=2.0&amp;Hinge_grip_length=0&amp;Hinge_hingestrength=1&amp;CabinetHinge_bore=3.2&amp;CabinetHinge_eyes_per_hinge=5&amp;CabinetHinge_hinges=2&amp;CabinetHinge_style=inside&amp;CabinetHinge_eye=1.5&amp;CabinetHinge_play=0.05&amp;CabinetHinge_spacing=2.0&amp;Lid_angle=90.0&amp;Lid_hole_width=0&amp;Lid_second_pin=0&amp;Lid_second_pin=1&amp;Lid_spring=both&amp;Lid_style=rectangular&amp;Lid_surroundingspaces=2.0&amp;Lid_edge_width=1.0&amp;Lid_extra_length=0.0&amp;Lid_finger=3.0&amp;Lid_play=0.05&amp;Lid_space=2.0&amp;Lid_width=1.0&amp;Click_angle=5.0&amp;Click_bottom_radius=0.1&amp;Click_depth=3.0&amp;RoundedTriangleEdge_height=50.0&amp;RoundedTriangleEdge_r_hole=2.0&amp;RoundedTriangleEdge_radius=30.0&amp;RoundedTriangleEdge_outset=1.0&amp;Mounting_d_head=6.5&amp;Mounting_d_shaft=3.0&amp;Mounting_margin=0.125&amp;Mounting_num=2&amp;Mounting_side=back&amp;Mounting_style=straight+edge%2C+within&amp;HandleEdge_height=20.0&amp;HandleEdge_hole_height=75.0&amp;HandleEdge_hole_width=40%3A40&amp;HandleEdge_on_sides=0&amp;HandleEdge_on_sides=1&amp;HandleEdge_radius=10.0&amp;HandleEdge_outset=1.0&amp;sx=77*2&amp;sy=95*1&amp;h=20&amp;hi=0.0&amp;outside=0&amp;outside=1&amp;bottom_edge=h&amp;top_edge=e&amp;back_height=0.0&amp;radius=0.0&amp;gripheight=30&amp;gripwidth=70&amp;handle=0&amp;thickness=3.0&amp;format=svg&amp;tabs=0.0&amp;debug=0&amp;labels=0&amp;labels=1&amp;reference=100&amp;inner_corners=loop&amp;burn=0.1&amp;render=1</dc:source>
<dc:description>Type tray - allows only continuous walls

Created with Boxes.py (https://festi.info/boxes.py)
Command line: boxes TypeTray --FingerJoint_angle=90.0 --FingerJoint_style=rectangular --FingerJoint_surroundingspaces=0.5 --FingerJoint_edge_width=1.0 --FingerJoint_extra_length=0.0 --FingerJoint_finger=2.0 --FingerJoint_play=0.0 --FingerJoint_space=2.0 --FingerJoint_width=1.0 --Stackable_angle=60 --Stackable_height=2.0 --Stackable_holedistance=1.0 --Stackable_width=4.0 --Hinge_grip_percentage=0 --Hinge_outset=0 --Hinge_pinwidth=0.5 --Hinge_style=outset --Hinge_axle=2.0 --Hinge_grip_length=0 --Hinge_hingestrength=1 --CabinetHinge_bore=3.2 --CabinetHinge_eyes_per_hinge=5 --CabinetHinge_hinges=2 --CabinetHinge_style=inside --CabinetHinge_eye=1.5 --CabinetHinge_play=0.05 --CabinetHinge_spacing=2.0 --Lid_angle=90.0 --Lid_hole_width=0 --Lid_second_pin=0 --Lid_second_pin=1 --Lid_spring=both --Lid_style=rectangular --Lid_surroundingspaces=2.0 --Lid_edge_width=1.0 --Lid_extra_length=0.0 --Lid_finger=3.0 --Lid_play=0.05 --Lid_space=2.0 --Lid_width=1.0 --Click_angle=5.0 --Click_bottom_radius=0.1 --Click_depth=3.0 --RoundedTriangleEdge_height=50.0 --RoundedTriangleEdge_r_hole=2.0 --RoundedTriangleEdge_radius=30.0 --RoundedTriangleEdge_outset=1.0 --Mounting_d_head=6.5 --Mounting_d_shaft=3.0 --Mounting_margin=0.125 --Mounting_num=2 --Mounting_side=back '--Mounting_style=straight edge, within' --HandleEdge_height=20.0 --HandleEdge_hole_height=75.0 --HandleEdge_hole_width=40:40 --HandleEdge_on_sides=0 --HandleEdge_on_sides=1 --HandleEdge_radius=10.0 --HandleEdge_outset=1.0 '--sx=77*2' '--sy=95*1' --h=20 --hi=0.0 --outside=0 --outside=1 --bottom_edge=h --top_edge=e --back_height=0.0 --radius=0.0 --gripheight=30 --gripwidth=70 --handle=0 --thickness=3.0 --format=svg --tabs=0.0 --debug=0 --labels=0 --labels=1 --reference=100 --inner_corners=loop --burn=0.1
Url: http://localhost:8000/TypeTray?FingerJoint_angle=90.0&amp;FingerJoint_style=rectangular&amp;FingerJoint_surroundingspaces=0.5&amp;FingerJoint_edge_width=1.0&amp;FingerJoint_extra_length=0.0&amp;FingerJoint_finger=2.0&amp;FingerJoint_play=0.0&amp;FingerJoint_space=2.0&amp;FingerJoint_width=1.0&amp;Stackable_angle=60&amp;Stackable_height=2.0&amp;Stackable_holedistance=1.0&amp;Stackable_width=4.0&amp;Hinge_grip_percentage=0&amp;Hinge_outset=0&amp;Hinge_pinwidth=0.5&amp;Hinge_style=outset&amp;Hinge_axle=2.0&amp;Hinge_grip_length=0&amp;Hinge_hingestrength=1&amp;CabinetHinge_bore=3.2&amp;CabinetHinge_eyes_per_hinge=5&amp;CabinetHinge_hinges=2&amp;CabinetHinge_style=inside&amp;CabinetHinge_eye=1.5&amp;CabinetHinge_play=0.05&amp;CabinetHinge_spacing=2.0&amp;Lid_angle=90.0&amp;Lid_hole_width=0&amp;Lid_second_pin=0&amp;Lid_second_pin=1&amp;Lid_spring=both&amp;Lid_style=rectangular&amp;Lid_surroundingspaces=2.0&amp;Lid_edge_width=1.0&amp;Lid_extra_length=0.0&amp;Lid_finger=3.0&amp;Lid_play=0.05&amp;Lid_space=2.0&amp;Lid_width=1.0&amp;Click_angle=5.0&amp;Click_bottom_radius=0.1&amp;Click_depth=3.0&amp;RoundedTriangleEdge_height=50.0&amp;RoundedTriangleEdge_r_hole=2.0&amp;RoundedTriangleEdge_radius=30.0&amp;RoundedTriangleEdge_outset=1.0&amp;Mounting_d_head=6.5&amp;Mounting_d_shaft=3.0&amp;Mounting_margin=0.125&amp;Mounting_num=2&amp;Mounting_side=back&amp;Mounting_style=straight+edge%2C+within&amp;HandleEdge_height=20.0&amp;HandleEdge_hole_height=75.0&amp;HandleEdge_hole_width=40%3A40&amp;HandleEdge_on_sides=0&amp;HandleEdge_on_sides=1&amp;HandleEdge_radius=10.0&amp;HandleEdge_outset=1.0&amp;sx=77*2&amp;sy=95*1&amp;h=20&amp;hi=0.0&amp;outside=0&amp;outside=1&amp;bottom_edge=h&amp;top_edge=e&amp;back_height=0.0&amp;radius=0.0&amp;gripheight=30&amp;gripwidth=70&amp;handle=0&amp;thickness=3.0&amp;format=svg&amp;tabs=0.0&amp;debug=0&amp;labels=0&amp;labels=1&amp;reference=100&amp;inner_corners=loop&amp;burn=0.1&amp;render=1
SettingsUrl: http://localhost:8000/TypeTray?FingerJoint_angle=90.0&amp;FingerJoint_style=rectangular&amp;FingerJoint_surroundingspaces=0.5&amp;FingerJoint_edge_width=1.0&amp;FingerJoint_extra_length=0.0&amp;FingerJoint_finger=2.0&amp;FingerJoint_play=0.0&amp;FingerJoint_space=2.0&amp;FingerJoint_width=1.0&amp;Stackable_angle=60&amp;Stackable_height=2.0&amp;Stackable_holedistance=1.0&amp;Stackable_width=4.0&amp;Hinge_grip_percentage=0&amp;Hinge_outset=0&amp;Hinge_pinwidth=0.5&amp;Hinge_style=outset&amp;Hinge_axle=2.0&amp;Hinge_grip_length=0&amp;Hinge_hingestrength=1&amp;CabinetHinge_bore=3.2&amp;CabinetHinge_eyes_per_hinge=5&amp;CabinetHinge_hinges=2&amp;CabinetHinge_style=inside&amp;CabinetHinge_eye=1.5&amp;CabinetHinge_play=0.05&amp;CabinetHinge_spacing=2.0&amp;Lid_angle=90.0&amp;Lid_hole_width=0&amp;Lid_second_pin=0&amp;Lid_second_pin=1&amp;Lid_spring=both&amp;Lid_style=rectangular&amp;Lid_surroundingspaces=2.0&amp;Lid_edge_width=1.0&amp;Lid_extra_length=0.0&amp;Lid_finger=3.0&amp;Lid_play=0.05&amp;Lid_space=2.0&amp;Lid_width=1.0&amp;Click_angle=5.0&amp;Click_bottom_radius=0.1&amp;Click_depth=3.0&amp;RoundedTriangleEdge_height=50.0&amp;RoundedTriangleEdge_r_hole=2.0&amp;RoundedTriangleEdge_radius=30.0&amp;RoundedTriangleEdge_outset=1.0&amp;Mounting_d_head=6.5&amp;Mounting_d_shaft=3.0&amp;Mounting_margin=0.125&amp;Mounting_num=2&amp;Mounting_side=back&amp;Mounting_style=straight+edge%2C+within&amp;HandleEdge_height=20.0&amp;HandleEdge_hole_height=75.0&amp;HandleEdge_hole_width=40%3A40&amp;HandleEdge_on_sides=0&amp;HandleEdge_on_sides=1&amp;HandleEdge_radius=10.0&amp;HandleEdge_outset=1.0&amp;sx=77*2&amp;sy=95*1&amp;h=20&amp;hi=0.0&amp;outside=0&amp;outside=1&amp;bottom_edge=h&amp;top_edge=e&amp;back_height=0.0&amp;radius=0.0&amp;gripheight=30&amp;gripwidth=70&amp;handle=0&amp;thickness=3.0&amp;format=svg&amp;tabs=0.0&amp;debug=0&amp;labels=0&amp;labels=1&amp;reference=100&amp;inner_corners=loop&amp;burn=0.1
</dc:description>
</cc:Work></rdf:RDF></metadata>
<g id="p-0" style="fill:none;stroke-linecap:round;stroke-linejoin:round;">
  <path d="M 10.400 166.300 H 110.400 V 156.300 H 10.400 V 166.300 Z" stroke="rgb(0,0,0)" stroke-width="0.20" />
  <text transform="matrix( 1.000 0.000 0.000 1.000 60.400 157.300 )" style="font-family: sans-serif ; font-weight: normal; font-style: normal; fill: rgb(255,0,0)" font-size="8px" text-anchor="middle" dominant-baseline="hanging">100mm, burn:0.10mm</text>
</g>
<g id="p-1" style="fill:none;stroke-linecap:round;stroke-linejoin:round;">
  <path d="M 88.800 140.000 V 142.900 C 88.800 143.000 88.900 142.900 88.800 142.900 H 86.000 C 85.900 142.900 86.000 143.000 86.000 142.900 V 137.100 C 86.000 137.000 85.900 137.100 86.000 137.100 H 88.800 C 88.900 137.100 88.800 137.000 88.800 137.100 V 140.000 Z" stroke="rgb(0,0,255)" stroke-width="0.20" />
  <path d="M 21.400 151.400 H 18.500 C 18.400 151.400 18.500 151.500 18.500 151.400 V 148.600 C 18.500 148.500 18.400 148.600 18.500 148.600 H 24.300 C 24.400 148.600 24.300 148.500 24.300 148.600 V 151.400 C 24.300 151.500 24.400 151.400 24.300 151.400 H 21.400 Z" stroke="rgb(0,0,255)" stroke-width="0.20" />
  <path d="M 33.400 151.400 H 30.500 C 30.400 151.400 30.500 151.500 30.500 151.400 V 148.600 C 30.500 148.500 30.400 148.600 30.500 148.600 H 36.300 C 36.400 148.600 36.300 148.500 36.300 148.600 V 151.400 C 36.300 151.500 36.400 151.400 36.300 151.400 H 33.400 Z" stroke="rgb(0,0,255)" stroke-width="0.20" />
  <path d="M 45.400 151.400 H 42.500 C 42.400 151.400 42.500 151.500 42.500 151.400 V 148.600 C 42.500 148.500 42.400 148.600 42.500 148.600 H 48.300 C 48.400 148.600 48.300 148.500 48.300 148.600 V 151.400 C 48.300 151.500 48.400 151.400 48.300 151.400 H 45.400 Z" stroke="rgb(0,0,255)" stroke-width="0.20" />
  <path d="M 57.400 151.400 H 54.500 C 54.400 151.400 54.500 151.500 54.500 151.400 V 148.600 C 54.500 148.500 54.400 148.600 54.500 148.600 H 60.300 C 60.400 148.600 60.300 148.500 60.300 148.600 V 151.400 C 60.300 151.500 60.400 151.400 60.300 151.400 H 57.400 Z" stroke="rgb(0,0,255)" stroke-width="0.20" />
  <path d="M 69.400 151.400 H 66.500 C 66.400 151.400 66.500 151.500 66.500 151.400 V 148.600 C 66.500 148.500 66.400 148.600 66.500 148.600 H 72.300 C 72.400 148.600 72.300 148.500 72.300 148.600 V 151.400 C 72.300 151.500 72.400 151.400 72.300 151.400 H 69.400 Z" stroke="rgb(0,0,255)" stroke-width="0.20" />
  <path d="M 81.400 151.400 H 78.500 C 78.400 151.400 78.500 151.500 78.500 151.400 V 148.600 C 78.500 148.500 78.400 148.600 78.500 148.600 H 84.300 C 84.400 148.600 84.300 148.500 84.300 148.600 V 151.400 C 84.300 151.500 84.400 151.400 84.300 151.400 H 81.400 Z" stroke="rgb(0,0,255)" stroke-width="0.20" />
  <path d="M 93.400 151.400 H 90.500 C 90.400 151.400 90.500 151.500 90.500 151.400 V 148.600 C 90.500 148.500 90.400 148.600 90.500 148.600 H 96.300 C 96.400 148.600 96.300 148.500 96.300 148.600 V 151.400 C 96.300 151.500 96.400 151.400 96.300 151.400 H 93.400 Z" stroke="rgb(0,0,255)" stroke-width="0.20" />
  <path d="M 105.400 151.400 H 102.500 C 102.400 151.400 102.500 151.500 102.500 151.400 V 148.600 C 102.500 148.500 102.400 148.600 102.500 148.600 H 108.300 C 108.400 148.600 108.300 148.500 108.300 148.600 V 151.400 C 108.300 151.500 108.400 151.400 108.300 151.400 H 105.400 Z" stroke="rgb(0,0,255)" stroke-width="0.20" />
  <path d="M 117.400 151.400 H 114.500 C 114.400 151.400 114.500 151.500 114.500 151.400 V 148.600 C 114.500 148.500 114.400 148.600 114.500 148.600 H 120.300 C 120.400 148.600 120.300 148.500 120.300 148.600 V 151.400 C 120.300 151.500 120.400 151.400 120.300 151.400 H 117.400 Z" stroke="rgb(0,0,255)" stroke-width="0.20" />
  <path d="M 129.400 151.400 H 126.500 C 126.400 151.400 126.500 151.500 126.500 151.400 V 148.600 C 126.500 148.500 126.400 148.600 126.500 148.600 H 132.300 C 132.400 148.600 132.300 148.500 132.300 148.600 V 151.400 C 132.300 151.500 132.400 151.400 132.300 151.400 H 129.400 Z" stroke="rgb(0,0,255)" stroke-width="0.20" />
  <path d="M 141.400 151.400 H 138.500 C 138.400 151.400 138.500 151.500 138.500 151.400 V 148.600 C 138.500 148.500 138.400 148.600 138.500 148.600 H 144.300 C 144.400 148.600 144.300 148.500 144.300 148.600 V 151.400 C 144.300 151.500 144.400 151.400 144.300 151.400 H 141.400 Z" stroke="rgb(0,0,255)" stroke-width="0.20" />
  <path d="M 153.400 151.400 H 150.500 C 150.400 151.400 150.500 151.500 150.500 151.400 V 148.600 C 150.500 148.500 150.400 148.600 150.500 148.600 H 156.300 C 156.400 148.600 156.300 148.500 156.300 148.600 V 151.400 C 156.300 151.500 156.400 151.400 156.300 151.400 H 153.400 Z" stroke="rgb(0,0,255)" stroke-width="0.20" />
  <text transform="matrix( 1.000 0.000 0.000 1.000 87.400 141.100 )" style="font-family: sans-serif ; font-weight: normal; font-style: normal; fill: rgb(255,0,0)" font-size="4px" text-anchor="middle" dominant-baseline="hanging">back</text><path d="M 13.400 154.600 H 161.400 H 164.400 C 164.455 154.600 164.500 154.555 164.500 154.500 V 152.000 C 164.500 151.945 164.455 151.900 164.400 151.900 H 161.500 C 161.400 151.900 161.500 152.000 161.500 151.900 V 146.100 C 161.500 146.000 161.400 146.100 161.500 146.100 H 164.400 C 164.455 146.100 164.500 146.055 164.500 146.000 V 140.000 C 164.500 139.945 164.455 139.900 164.400 139.900 H 161.500 C 161.400 139.900 161.500 140.000 161.500 139.900 V 134.100 C 161.500 134.000 161.400 134.100 161.500 134.100 H 164.400 C 164.455 134.100 164.500 134.055 164.500 134.000 V 131.500 C 164.500 131.445 164.455 131.400 164.400 131.400 H 161.400 H 13.400 H 10.400 C 10.345 131.400 10.300 131.445 10.300 131.500 V 134.000 C 10.300 134.055 10.345 134.100 10.400 134.100 H 13.300 C 13.400 134.100 13.300 134.000 13.300 134.100 V 139.900 C 13.300 140.000 13.400 139.900 13.300 139.900 H 10.400 C 10.345 139.900 10.300 139.945 10.300 140.000 V 146.000 C 10.300 146.055 10.345 146.100 10.400 146.100 H 13.300 C 13.400 146.100 13.300 146.000 13.300 146.100 V 151.900 C 13.300 152.000 13.400 151.900 13.300 151.900 H 10.400 C 10.345 151.900 10.300 151.945 10.300 152.000 V 154.500 C 10.300 154.555 10.345 154.600 10.400 154.600 H 13.400" stroke="rgb(0,0,0)" stroke-width="0.20" />
</g>
<g id="p-2" style="fill:none;stroke-linecap:round;stroke-linejoin:round;">
  <path d="M 86.000 115.300 V 118.200 C 86.000 118.300 85.900 118.200 86.000 118.200 H 88.800 C 88.900 118.200 88.800 118.300 88.800 118.200 V 112.400 C 88.800 112.300 88.900 112.400 88.800 112.400 H 86.000 C 85.900 112.400 86.000 112.300 86.000 112.400 V 115.300 Z" stroke="rgb(0,0,255)" stroke-width="0.20" />
  <path d="M 21.400 126.700 H 18.500 C 18.400 126.700 18.500 126.800 18.500 126.700 V 123.900 C 18.500 123.800 18.400 123.900 18.500 123.900 H 24.300 C 24.400 123.900 24.300 123.800 24.300 123.900 V 126.700 C 24.300 126.800 24.400 126.700 24.300 126.700 H 21.400 Z" stroke="rgb(0,0,255)" stroke-width="0.20" />
  <path d="M 33.400 126.700 H 30.500 C 30.400 126.700 30.500 126.800 30.500 126.700 V 123.900 C 30.500 123.800 30.400 123.900 30.500 123.900 H 36.300 C 36.400 123.900 36.300 123.800 36.300 123.900 V 126.700 C 36.300 126.800 36.400 126.700 36.300 126.700 H 33.400 Z" stroke="rgb(0,0,255)" stroke-width="0.20" />
  <path d="M 45.400 126.700 H 42.500 C 42.400 126.700 42.500 126.800 42.500 126.700 V 123.900 C 42.500 123.800 42.400 123.900 42.500 123.900 H 48.300 C 48.400 123.900 48.300 123.800 48.300 123.900 V 126.700 C 48.300 126.800 48.400 126.700 48.300 126.700 H 45.400 Z" stroke="rgb(0,0,255)" stroke-width="0.20" />
  <path d="M 57.400 126.700 H 54.500 C 54.400 126.700 54.500 126.800 54.500 126.700 V 123.900 C 54.500 123.800 54.400 123.900 54.500 123.900 H 60.300 C 60.400 123.900 60.300 123.800 60.300 123.900 V 126.700 C 60.300 126.800 60.400 126.700 60.300 126.700 H 57.400 Z" stroke="rgb(0,0,255)" stroke-width="0.20" />
  <path d="M 69.400 126.700 H 66.500 C 66.400 126.700 66.500 126.800 66.500 126.700 V 123.900 C 66.500 123.800 66.400 123.900 66.500 123.900 H 72.300 C 72.400 123.900 72.300 123.800 72.300 123.900 V 126.700 C 72.300 126.800 72.400 126.700 72.300 126.700 H 69.400 Z" stroke="rgb(0,0,255)" stroke-width="0.20" />
  <path d="M 81.400 126.700 H 78.500 C 78.400 126.700 78.500 126.800 78.500 126.700 V 123.900 C 78.500 123.800 78.400 123.900 78.500 123.900 H 84.300 C 84.400 123.900 84.300 123.800 84.300 123.900 V 126.700 C 84.300 126.800 84.400 126.700 84.300 126.700 H 81.400 Z" stroke="rgb(0,0,255)" stroke-width="0.20" />
  <path d="M 93.400 126.700 H 90.500 C 90.400 126.700 90.500 126.800 90.500 126.700 V 123.900 C 90.500 123.800 90.400 123.900 90.500 123.900 H 96.300 C 96.400 123.900 96.300 123.800 96.300 123.900 V 126.700 C 96.300 126.800 96.400 126.700 96.300 126.700 H 93.400 Z" stroke="rgb(0,0,255)" stroke-width="0.20" />
  <path d="M 105.400 126.700 H 102.500 C 102.400 126.700 102.500 126.800 102.500 126.700 V 123.900 C 102.500 123.800 102.400 123.900 102.500 123.900 H 108.300 C 108.400 123.900 108.300 123.800 108.300 123.900 V 126.700 C 108.300 126.800 108.400 126.700 108.300 126.700 H 105.400 Z" stroke="rgb(0,0,255)" stroke-width="0.20" />
  <path d="M 117.400 126.700 H 114.500 C 114.400 126.700 114.500 126.800 114.500 126.700 V 123.900 C 114.500 123.800 114.400 123.900 114.500 123.900 H 120.300 C 120.400 123.900 120.300 123.800 120.300 123.900 V 126.700 C 120.300 126.800 120.400 126.700 120.300 126.700 H 117.400 Z" stroke="rgb(0,0,255)" stroke-width="0.20" />
  <path d="M 129.400 126.700 H 126.500 C 126.400 126.700 126.500 126.800 126.500 126.700 V 123.900 C 126.500 123.800 126.400 123.900 126.500 123.900 H 132.300 C 132.400 123.900 132.300 123.800 132.300 123.900 V 126.700 C 132.300 126.800 132.400 126.700 132.300 126.700 H 129.400 Z" stroke="rgb(0,0,255)" stroke-width="0.20" />
  <path d="M 141.400 126.700 H 138.500 C 138.400 126.700 138.500 126.800 138.500 126.700 V 123.900 C 138.500 123.800 138.400 123.900 138.500 123.900 H 144.300 C 144.400 123.900 144.300 123.800 144.300 123.900 V 126.700 C 144.300 126.800 144.400 126.700 144.300 126.700 H 141.400 Z" stroke="rgb(0,0,255)" stroke-width="0.20" />
  <path d="M 153.400 126.700 H 150.500 C 150.400 126.700 150.500 126.800 150.500 126.700 V 123.900 C 150.500 123.800 150.400 123.900 150.500 123.900 H 156.300 C 156.400 123.900 156.300 123.800 156.300 123.900 V 126.700 C 156.300 126.800 156.400 126.700 156.300 126.700 H 153.400 Z" stroke="rgb(0,0,255)" stroke-width="0.20" />
  <text transform="matrix( 1.000 0.000 0.000 1.000 87.400 116.400 )" style="font-family: sans-serif ; font-weight: normal; font-style: normal; fill: rgb(255,0,0)" font-size="4px" text-anchor="middle" dominant-baseline="hanging">front</text><path d="M 13.400 129.900 H 161.400 H 164.400 C 164.455 129.900 164.500 129.855 164.500 129.800 V 127.300 C 164.500 127.245 164.455 127.200 164.400 127.200 H 161.500 C 161.400 127.200 161.500 127.300 161.500 127.200 V 121.400 C 161.500 121.300 161.400 121.400 161.500 121.400 H 164.400 C 164.455 121.400 164.500 121.355 164.500 121.300 V 115.300 C 164.500 115.245 164.455 115.200 164.400 115.200 H 161.500 C 161.400 115.200 161.500 115.300 161.500 115.200 V 109.400 C 161.500 109.300 161.400 109.400 161.500 109.400 H 164.400 C 164.455 109.400 164.500 109.355 164.500 109.300 V 106.800 C 164.500 106.745 164.455 106.700 164.400 106.700 H 161.400 H 13.400 H 10.400 C 10.345 106.700 10.300 106.745 10.300 106.800 V 109.300 C 10.300 109.355 10.345 109.400 10.400 109.400 H 13.300 C 13.400 109.400 13.300 109.300 13.300 109.400 V 115.200 C 13.300 115.300 13.400 115.200 13.300 115.200 H 10.400 C 10.345 115.200 10.300 115.245 10.300 115.300 V 121.300 C 10.300 121.355 10.345 121.400 10.400 121.400 H 13.300 C 13.400 121.400 13.300 121.300 13.300 121.400 V 127.200 C 13.300 127.300 13.400 127.200 13.300 127.200 H 10.400 C 10.345 127.200 10.300 127.245 10.300 127.300 V 129.800 C 10.300 129.855 10.345 129.900 10.400 129.900 H 13.400" stroke="rgb(0,0,0)" stroke-width="0.20" />
  <path d="M 87.400 136.900 H 107.400 C 110.015 136.900 112.585 137.588 114.850 138.896 C 117.115 140.204 118.996 142.085 120.304 144.350 C 121.612 146.615 122.300 149.185 122.300 151.800 C 122.300 154.415 121.612 156.985 120.304 159.250 C 118.996 161.515 117.115 163.396 114.850 164.704 C 112.585 166.012 110.015 166.700 107.400 166.700 H 67.400 C 64.785 166.700 62.215 166.012 59.950 164.704 C 57.685 163.396 55.804 161.515 54.496 159.250 C 53.188 156.985 52.500 154.415 52.500 151.800 C 52.500 149.185 53.188 146.615 54.496 144.350 C 55.804 142.085 57.685 140.204 59.950 138.896 C 62.215 137.588 64.785 136.900 67.400 136.900 H 87.400 Z" stroke="rgb(0,0,255)" stroke-width="0.20" />
</g>
<g id="p-3" style="fill:none;stroke-linecap:round;stroke-linejoin:round;">
  <path d="M 88.800 93.600 V 96.500 C 88.800 96.600 88.900 96.500 88.800 96.500 H 86.000 C 85.900 96.500 86.000 96.600 86.000 96.500 V 90.700 C 86.000 90.600 85.900 90.700 86.000 90.700 H 88.800 C 88.900 90.700 88.800 90.600 88.800 90.700 V 93.600 Z" stroke="rgb(0,0,255)" stroke-width="0.20" />
  <path d="M 88.800 81.600 V 84.500 C 88.800 84.600 88.900 84.500 88.800 84.500 H 86.000 C 85.900 84.500 86.000 84.600 86.000 84.500 V 78.700 C 86.000 78.600 85.900 78.700 86.000 78.700 H 88.800 C 88.900 78.700 88.800 78.600 88.800 78.700 V 81.600 Z" stroke="rgb(0,0,255)" stroke-width="0.20" />
  <path d="M 88.800 69.600 V 72.500 C 88.800 72.600 88.900 72.500 88.800 72.500 H 86.000 C 85.900 72.500 86.000 72.600 86.000 72.500 V 66.700 C 86.000 66.600 85.900 66.700 86.000 66.700 H 88.800 C 88.900 66.700 88.800 66.600 88.800 66.700 V 69.600 Z" stroke="rgb(0,0,255)" stroke-width="0.20" />
  <path d="M 88.800 57.600 V 60.500 C 88.800 60.600 88.900 60.500 88.800 60.500 H 86.000 C 85.900 60.500 86.000 60.600 86.000 60.500 V 54.700 C 86.000 54.600 85.900 54.700 86.000 54.700 H 88.800 C 88.900 54.700 88.800 54.600 88.800 54.700 V 57.600 Z" stroke="rgb(0,0,255)" stroke-width="0.20" />
  <path d="M 88.800 45.600 V 48.500 C 88.800 48.600 88.900 48.500 88.800 48.500 H 86.000 C 85.900 48.500 86.000 48.600 86.000 48.500 V 42.700 C 86.000 42.600 85.900 42.700 86.000 42.700 H 88.800 C 88.900 42.700 88.800 42.600 88.800 42.700 V 45.600 Z" stroke="rgb(0,0,255)" stroke-width="0.20" />
  <path d="M 88.800 33.600 V 36.500 C 88.800 36.600 88.900 36.500 88.800 36.500 H 86.000 C 85.900 36.500 86.000 36.600 86.000 36.500 V 30.700 C 86.000 30.600 85.900 30.700 86.000 30.700 H 88.800 C 88.900 30.700 88.800 30.600 88.800 30.700 V 33.600 Z" stroke="rgb(0,0,255)" stroke-width="0.20" />
  <path d="M 88.800 21.600 V 24.500 C 88.800 24.600 88.900 24.500 88.800 24.500 H 86.000 C 85.900 24.500 86.000 24.600 86.000 24.500 V 18.700 C 86.000 18.600 85.900 18.700 86.000 18.700 H 88.800 C 88.900 18.700 88.800 18.600 88.800 18.700 V 21.600 Z" stroke="rgb(0,0,255)" stroke-width="0.20" />
  <text transform="matrix( 1.000 0.000 0.000 1.000 87.400 55.700 )" style="font-family: sans-serif ; font-weight: normal; font-style: normal; fill: rgb(255,0,0)" font-size="4px" text-anchor="middle" dominant-baseline="hanging">bottom</text><path d="M 13.400 102.200 H 18.300 C 18.400 102.200 18.300 102.100 18.300 102.200 V 105.100 C 18.300 105.155 18.345 105.200 18.400 105.200 H 24.400 C 24.455 105.200 24.500 105.155 24.500 105.100 V 102.200 C 24.500 102.100 24.400 102.200 24.500 102.200 H 30.300 C 30.400 102.200 30.300 102.100 30.300 102.200 V 105.100 C 30.300 105.155 30.345 105.200 30.400 105.200 H 36.400 C 36.455 105.200 36.500 105.155 36.500 105.100 V 102.200 C 36.500 102.100 36.400 102.200 36.500 102.200 H 42.300 C 42.400 102.200 42.300 102.100 42.300 102.200 V 105.100 C 42.300 105.155 42.345 105.200 42.400 105.200 H 48.400 C 48.455 105.200 48.500 105.155 48.500 105.100 V 102.200 C 48.500 102.100 48.400 102.200 48.500 102.200 H 54.300 C 54.400 102.200 54.300 102.100 54.300 102.200 V 105.100 C 54.300 105.155 54.345 105.200 54.400 105.200 H 60.400 C 60.455 105.200 60.500 105.155 60.500 105.100 V 102.200 C 60.500 102.100 60.400 102.200 60.500 102.200 H 66.300 C 66.400 102.200 66.300 102.100 66.300 102.200 V 105.100 C 66.300 105.155 66.345 105.200 66.400 105.200 H 72.400 C 72.455 105.200 72.500 105.155 72.500 105.100 V 102.200 C 72.500 102.100 72.400 102.200 72.500 102.200 H 78.300 C 78.400 102.200 78.300 102.100 78.300 102.200 V 105.100 C 78.300 105.155 78.345 105.200 78.400 105.200 H 84.400 C 84.455 105.200 84.500 105.155 84.500 105.100 V 102.200 C 84.500 102.100 84.400 102.200 84.500 102.200 H 90.300 C 90.400 102.200 90.300 102.100 90.300 102.200 V 105.100 C 90.300 105.155 90.345 105.200 90.400 105.200 H 96.400 C 96.455 105.200 96.500 105.155 96.500 105.100 V 102.200 C 96.500 102.100 96.400 102.200 96.500 102.200 H 102.300 C 102.400 102.200 102.300 102.100 102.300 102.200 V 105.100 C 102.300 105.155 102.345 105.200 102.400 105.200 H 108.400 C 108.455 105.200 108.500 105.155 108.500 105.100 V 102.200 C 108.500 102.100 108.400 102.200 108.500 102.200 H 114.300 C 114.400 102.200 114.300 102.100 114.300 102.200 V 105.100 C 114.300 105.155 114.345 105.200 114.400 105.200 H 120.400 C 120.455 105.200 120.500 105.155 120.500 105.100 V 102.200 C 120.500 102.100 120.400 102.200 120.500 102.200 H 126.300 C 126.400 102.200 126.300 102.100 126.300 102.200 V 105.100 C 126.300 105.155 126.345 105.200 126.400 105.200 H 132.400 C 132.455 105.200 132.500 105.155 132.500 105.100 V 102.200 C 132.500 102.100 132.400 102.200 132.500 102.200 H 138.300 C 138.400 102.200 138.300 102.100 138.300 102.200 V 105.100 C 138.300 105.155 138.345 105.200 138.400 105.200 H 144.400 C 144.455 105.200 144.500 105.155 144.500 105.100 V 102.200 C 144.500 102.100 144.400 102.200 144.500 102.200 H 150.300 C 150.400 102.200 150.300 102.100 150.300 102.200 V 105.100 C 150.300 105.155 150.345 105.200 150.400 105.200 H 156.400 C 156.455 105.200 156.500 105.155 156.500 105.100 V 102.200 C 156.500 102.100 156.400 102.200 156.500 102.200 H 161.400 C 161.455 102.200 161.500 102.155 161.500 102.100 V 96.700 C 161.500 96.600 161.400 96.700 161.500 96.700 H 164.400 C 164.455 96.700 164.500 96.655 164.500 96.600 V 90.600 C 164.500 90.545 164.455 90.500 164.400 90.500 H 161.500 C 161.400 90.500 161.500 90.600 161.500 90.500 V 84.700 C 161.500 84.600 161.400 84.700 161.500 84.700 H 164.400 C 164.455 84.700 164.500 84.655 164.500 84.600 V 78.600 C 164.500 78.545 164.455 78.500 164.400 78.500 H 161.500 C 161.400 78.500 161.500 78.600 161.500 78.500 V 72.700 C 161.500 72.600 161.400 72.700 161.500 72.700 H 164.400 C 164.455 72.700 164.500 72.655 164.500 72.600 V 66.600 C 164.500 66.545 164.455 66.500 164.400 66.500 H 161.500 C 161.400 66.500 161.500 66.600 161.500 66.500 V 60.700 C 161.500 60.600 161.400 60.700 161.500 60.700 H 164.400 C 164.455 60.700 164.500 60.655 164.500 60.600 V 54.600 C 164.500 54.545 164.455 54.500 164.400 54.500 H 161.500 C 161.400 54.500 161.500 54.600 161.500 54.500 V 48.700 C 161.500 48.600 161.400 48.700 161.500 48.700 H 164.400 C 164.455 48.700 164.500 48.655 164.500 48.600 V 42.600 C 164.500 42.545 164.455 42.500 164.400 42.500 H 161.500 C 161.400 42.500 161.500 42.600 161.500 42.500 V 36.700 C 161.500 36.600 161.400 36.700 161.500 36.700 H 164.400 C 164.455 36.700 164.500 36.655 164.500 36.600 V 30.600 C 164.500 30.545 164.455 30.500 164.400 30.500 H 161.500 C 161.400 30.500 161.500 30.600 161.500 30.500 V 24.700 C 161.500 24.600 161.400 24.700 161.500 24.700 H 164.400 C 164.455 24.700 164.500 24.655 164.500 24.600 V 18.600 C 164.500 18.545 164.455 18.500 164.400 18.500 H 161.500 C 161.400 18.500 161.500 18.600 161.500 18.500 V 13.100 C 161.500 13.045 161.455 13.000 161.400 13.000 H 156.500 C 156.400 13.000 156.500 13.100 156.500 13.000 V 10.100 C 156.500 10.045 156.455 10.000 156.400 10.000 H 150.400 C 150.345 10.000 150.300 10.045 150.300 10.100 V 13.000 C 150.300 13.100 150.400 13.000 150.300 13.000 H 144.500 C 144.400 13.000 144.500 13.100 144.500 13.000 V 10.100 C 144.500 10.045 144.455 10.000 144.400 10.000 H 138.400 C 138.345 10.000 138.300 10.045 138.300 10.100 V 13.000 C 138.300 13.100 138.400 13.000 138.300 13.000 H 132.500 C 132.400 13.000 132.500 13.100 132.500 13.000 V 10.100 C 132.500 10.045 132.455 10.000 132.400 10.000 H 126.400 C 126.345 10.000 126.300 10.045 126.300 10.100 V 13.000 C 126.300 13.100 126.400 13.000 126.300 13.000 H 120.500 C 120.400 13.000 120.500 13.100 120.500 13.000 V 10.100 C 120.500 10.045 120.455 10.000 120.400 10.000 H 114.400 C 114.345 10.000 114.300 10.045 114.300 10.100 V 13.000 C 114.300 13.100 114.400 13.000 114.300 13.000 H 108.500 C 108.400 13.000 108.500 13.100 108.500 13.000 V 10.100 C 108.500 10.045 108.455 10.000 108.400 10.000 H 102.400 C 102.345 10.000 102.300 10.045 102.300 10.100 V 13.000 C 102.300 13.100 102.400 13.000 102.300 13.000 H 96.500 C 96.400 13.000 96.500 13.100 96.500 13.000 V 10.100 C 96.500 10.045 96.455 10.000 96.400 10.000 H 90.400 C 90.345 10.000 90.300 10.045 90.300 10.100 V 13.000 C 90.300 13.100 90.400 13.000 90.300 13.000 H 84.500 C 84.400 13.000 84.500 13.100 84.500 13.000 V 10.100 C 84.500 10.045 84.455 10.000 84.400 10.000 H 78.400 C 78.345 10.000 78.300 10.045 78.300 10.100 V 13.000 C 78.300 13.100 78.400 13.000 78.300 13.000 H 72.500 C 72.400 13.000 72.500 13.100 72.500 13.000 V 10.100 C 72.500 10.045 72.455 10.000 72.400 10.000 H 66.400 C 66.345 10.000 66.300 10.045 66.300 10.100 V 13.000 C 66.300 13.100 66.400 13.000 66.300 13.000 H 60.500 C 60.400 13.000 60.500 13.100 60.500 13.000 V 10.100 C 60.500 10.045 60.455 10.000 60.400 10.000 H 54.400 C 54.345 10.000 54.300 10.045 54.300 10.100 V 13.000 C 54.300 13.100 54.400 13.000 54.300 13.000 H 48.500 C 48.400 13.000 48.500 13.100 48.500 13.000 V 10.100 C 48.500 10.045 48.455 10.000 48.400 10.000 H 42.400 C 42.345 10.000 42.300 10.045 42.300 10.100 V 13.000 C 42.300 13.100 42.400 13.000 42.300 13.000 H 36.500 C 36.400 13.000 36.500 13.100 36.500 13.000 V 10.100 C 36.500 10.045 36.455 10.000 36.400 10.000 H 30.400 C 30.345 10.000 30.300 10.045 30.300 10.100 V 13.000 C 30.300 13.100 30.400 13.000 30.300 13.000 H 24.500 C 24.400 13.000 24.500 13.100 24.500 13.000 V 10.100 C 24.500 10.045 24.455 10.000 24.400 10.000 H 18.400 C 18.345 10.000 18.300 10.045 18.300 10.100 V 13.000 C 18.300 13.100 18.400 13.000 18.300 13.000 H 13.400 C 13.345 13.000 13.300 13.045 13.300 13.100 V 18.500 C 13.300 18.600 13.400 18.500 13.300 18.500 H 10.400 C 10.345 18.500 10.300 18.545 10.300 18.600 V 24.600 C 10.300 24.655 10.345 24.700 10.400 24.700 H 13.300 C 13.400 24.700 13.300 24.600 13.300 24.700 V 30.500 C 13.300 30.600 13.400 30.500 13.300 30.500 H 10.400 C 10.345 30.500 10.300 30.545 10.300 30.600 V 36.600 C 10.300 36.655 10.345 36.700 10.400 36.700 H 13.300 C 13.400 36.700 13.300 36.600 13.300 36.700 V 42.500 C 13.300 42.600 13.400 42.500 13.300 42.500 H 10.400 C 10.345 42.500 10.300 42.545 10.300 42.600 V 48.600 C 10.300 48.655 10.345 48.700 10.400 48.700 H 13.300 C 13.400 48.700 13.300 48.600 13.300 48.700 V 54.500 C 13.300 54.600 13.400 54.500 13.300 54.500 H 10.400 C 10.345 54.500 10.300 54.545 10.300 54.600 V 60.600 C 10.300 60.655 10.345 60.700 10.400 60.700 H 13.300 C 13.400 60.700 13.300 60.600 13.300 60.700 V 66.500 C 13.300 66.600 13.400 66.500 13.300 66.500 H 10.400 C 10.345 66.500 10.300 66.545 10.300 66.600 V 72.600 C 10.300 72.655 10.345 72.700 10.400 72.700 H 13.300 C 13.400 72.700 13.300 72.600 13.300 72.700 V 78.500 C 13.300 78.600 13.400 78.500 13.300 78.500 H 10.400 C 10.345 78.500 10.300 78.545 10.300 78.600 V 84.600 C 10.300 84.655 10.345 84.700 10.400 84.700 H 13.300 C 13.400 84.700 13.300 84.600 13.300 84.700 V 90.500 C 13.300 90.600 13.400 90.500 13.300 90.500 H 10.400 C 10.345 90.500 10.300 90.545 10.300 90.600 V 96.600 C 10.300 96.655 10.345 96.700 10.400 96.700 H 13.300 C 13.400 96.700 13.300 96.600 13.300 96.700 V 102.100 C 13.300 102.155 13.345 102.200 13.400 102.200" stroke="rgb(0,0,0)" stroke-width="0.20" />
</g>
<g id="p-4" style="fill:none;stroke-linecap:round;stroke-linejoin:round;">
  <path d="M 177.600 151.400 H 174.700 C 174.600 151.400 174.700 151.500 174.700 151.400 V 148.600 C 174.700 148.500 174.600 148.600 174.700 148.600 H 180.500 C 180.600 148.600 180.500 148.500 180.500 148.600 V 151.400 C 180.500 151.500 180.600 151.400 180.500 151.400 H 177.600 Z" stroke="rgb(0,0,255)" stroke-width="0.20" />
  <path d="M 189.600 151.400 H 186.700 C 186.600 151.400 186.700 151.500 186.700 151.400 V 148.600 C 186.700 148.500 186.600 148.600 186.700 148.600 H 192.500 C 192.600 148.600 192.500 148.500 192.500 148.600 V 151.400 C 192.500 151.500 192.600 151.400 192.500 151.400 H 189.600 Z" stroke="rgb(0,0,255)" stroke-width="0.20" />
  <path d="M 201.600 151.400 H 198.700 C 198.600 151.400 198.700 151.500 198.700 151.400 V 148.600 C 198.700 148.500 198.600 148.600 198.700 148.600 H 204.500 C 204.600 148.600 204.500 148.500 204.500 148.600 V 151.400 C 204.500 151.500 204.600 151.400 204.500 151.400 H 201.600 Z" stroke="rgb(0,0,255)" stroke-width="0.20" />
  <path d="M 213.600 151.400 H 210.700 C 210.600 151.400 210.700 151.500 210.700 151.400 V 148.600 C 210.700 148.500 210.600 148.600 210.700 148.600 H 216.500 C 216.600 148.600 216.500 148.500 216.500 148.600 V 151.400 C 216.500 151.500 216.600 151.400 216.500 151.400 H 213.600 Z" stroke="rgb(0,0,255)" stroke-width="0.20" />
  <path d="M 225.600 151.400 H 222.700 C 222.600 151.400 222.700 151.500 222.700 151.400 V 148.600 C 222.700 148.500 222.600 148.600 222.700 148.600 H 228.500 C 228.600 148.600 228.500 148.500 228.500 148.600 V 151.400 C 228.500 151.500 228.600 151.400 228.500 151.400 H 225.600 Z" stroke="rgb(0,0,255)" stroke-width="0.20" />
  <path d="M 237.600 151.400 H 234.700 C 234.600 151.400 234.700 151.500 234.700 151.400 V 148.600 C 234.700 148.500 234.600 148.600 234.700 148.600 H 240.500 C 240.600 148.600 240.500 148.500 240.500 148.600 V 151.400 C 240.500 151.500 240.600 151.400 240.500 151.400 H 237.600 Z" stroke="rgb(0,0,255)" stroke-width="0.20" />
  <path d="M 249.600 151.400 H 246.700 C 246.600 151.400 246.700 151.500 246.700 151.400 V 148.600 C 246.700 148.500 246.600 148.600 246.700 148.600 H 252.500 C 252.600 148.600 252.500 148.500 252.500 148.600 V 151.400 C 252.500 151.500 252.600 151.400 252.500 151.400 H 249.600 Z" stroke="rgb(0,0,255)" stroke-width="0.20" />
  <text transform="matrix( 1.000 0.000 0.000 1.000 213.600 141.100 )" style="font-family: sans-serif ; font-weight: normal; font-style: normal; fill: rgb(255,0,0)" font-size="4px" text-anchor="middle" dominant-baseline="hanging">left side</text><path d="M 169.100 154.600 H 258.100 C 258.155 154.600 258.200 154.555 258.200 154.500 V 152.100 C 258.200 152.000 258.100 152.100 258.200 152.100 H 261.100 C 261.155 152.100 261.200 152.055 261.200 152.000 V 146.000 C 261.200 145.945 261.155 145.900 261.100 145.900 H 258.200 C 258.100 145.900 258.200 146.000 258.200 145.900 V 140.100 C 258.200 140.000 258.100 140.100 258.200 140.100 H 261.100 C 261.155 140.100 261.200 140.055 261.200 140.000 V 134.000 C 261.200 133.945 261.155 133.900 261.100 133.900 H 258.200 C 258.100 133.900 258.200 134.000 258.200 133.900 V 131.500 C 258.200 131.445 258.155 131.400 258.100 131.400 H 169.100 C 169.045 131.400 169.000 131.445 169.000 131.500 V 133.900 C 169.000 134.000 169.100 133.900 169.000 133.900 H 166.100 C 166.045 133.900 166.000 133.945 166.000 134.000 V 140.000 C 166.000 140.055 166.045 140.100 166.100 140.100 H 169.000 C 169.100 140.100 169.000 140.000 169.000 140.100 V 145.900 C 169.000 146.000 169.100 145.900 169.000 145.900 H 166.100 C 166.045 145.900 166.000 145.945 166.000 146.000 V 152.000 C 166.000 152.055 166.045 152.100 166.100 152.100 H 169.000 C 169.100 152.100 169.000 152.000 169.000 152.100 V 154.500 C 169.000 154.555 169.045 154.600 169.100 154.600" stroke="rgb(0,0,0)" stroke-width="0.20" />
</g>
<g id="p-5" style="fill:none;stroke-linecap:round;stroke-linejoin:round;">
  <path d="M 177.600 126.700 H 174.700 C 174.600 126.700 174.700 126.800 174.700 126.700 V 123.900 C 174.700 123.800 174.600 123.900 174.700 123.900 H 180.500 C 180.600 123.900 180.500 123.800 180.500 123.900 V 126.700 C 180.500 126.800 180.600 126.700 180.500 126.700 H 177.600 Z" stroke="rgb(0,0,255)" stroke-width="0.20" />
  <path d="M 189.600 126.700 H 186.700 C 186.600 126.700 186.700 126.800 186.700 126.700 V 123.900 C 186.700 123.800 186.600 123.900 186.700 123.900 H 192.500 C 192.600 123.900 192.500 123.800 192.500 123.900 V 126.700 C 192.500 126.800 192.600 126.700 192.500 126.700 H 189.600 Z" stroke="rgb(0,0,255)" stroke-width="0.20" />
  <path d="M 201.600 126.700 H 198.700 C 198.600 126.700 198.700 126.800 198.700 126.700 V 123.900 C 198.700 123.800 198.600 123.900 198.700 123.900 H 204.500 C 204.600 123.900 204.500 123.800 204.500 123.900 V 126.700 C 204.500 126.800 204.600 126.700 204.500 126.700 H 201.600 Z" stroke="rgb(0,0,255)" stroke-width="0.20" />
  <path d="M 213.600 126.700 H 210.700 C 210.600 126.700 210.700 126.800 210.700 126.700 V 123.900 C 210.700 123.800 210.600 123.900 210.700 123.900 H 216.500 C 216.600 123.900 216.500 123.800 216.500 123.900 V 126.700 C 216.500 126.800 216.600 126.700 216.500 126.700 H 213.600 Z" stroke="rgb(0,0,255)" stroke-width="0.20" />
  <path d="M 225.600 126.700 H 222.700 C 222.600 126.700 222.700 126.800 222.700 126.700 V 123.900 C 222.700 123.800 222.600 123.900 222.700 123.900 H 228.500 C 228.600 123.900 228.500 123.800 228.500 123.900 V 126.700 C 228.500 126.800 228.600 126.700 228.500 126.700 H 225.600 Z" stroke="rgb(0,0,255)" stroke-width="0.20" />
  <path d="M 237.600 126.700 H 234.700 C 234.600 126.700 234.700 126.800 234.700 126.700 V 123.900 C 234.700 123.800 234.600 123.900 234.700 123.900 H 240.500 C 240.600 123.900 240.500 123.800 240.500 123.900 V 126.700 C 240.500 126.800 240.600 126.700 240.500 126.700 H 237.600 Z" stroke="rgb(0,0,255)" stroke-width="0.20" />
  <path d="M 249.600 126.700 H 246.700 C 246.600 126.700 246.700 126.800 246.700 126.700 V 123.900 C 246.700 123.800 246.600 123.900 246.700 123.900 H 252.500 C 252.600 123.900 252.500 123.800 252.500 123.900 V 126.700 C 252.500 126.800 252.600 126.700 252.500 126.700 H 249.600 Z" stroke="rgb(0,0,255)" stroke-width="0.20" />
  <text transform="matrix( 1.000 0.000 0.000 1.000 213.600 116.400 )" style="font-family: sans-serif ; font-weight: normal; font-style: normal; fill: rgb(255,0,0)" font-size="4px" text-anchor="middle" dominant-baseline="hanging">right side</text><path d="M 169.100 129.900 H 258.100 C 258.155 129.900 258.200 129.855 258.200 129.800 V 127.400 C 258.200 127.300 258.100 127.400 258.200 127.400 H 261.100 C 261.155 127.400 261.200 127.355 261.200 127.300 V 121.300 C 261.200 121.245 261.155 121.200 261.100 121.200 H 258.200 C 258.100 121.200 258.200 121.300 258.200 121.200 V 115.400 C 258.200 115.300 258.100 115.400 258.200 115.400 H 261.100 C 261.155 115.400 261.200 115.355 261.200 115.300 V 109.300 C 261.200 109.245 261.155 109.200 261.100 109.200 H 258.200 C 258.100 109.200 258.200 109.300 258.200 109.200 V 106.800 C 258.200 106.745 258.155 106.700 258.100 106.700 H 169.100 C 169.045 106.700 169.000 106.745 169.000 106.800 V 109.200 C 169.000 109.300 169.100 109.200 169.000 109.200 H 166.100 C 166.045 109.200 166.000 109.245 166.000 109.300 V 115.300 C 166.000 115.355 166.045 115.400 166.100 115.400 H 169.000 C 169.100 115.400 169.000 115.300 169.000 115.400 V 121.200 C 169.000 121.300 169.100 121.200 169.000 121.200 H 166.100 C 166.045 121.200 166.000 121.245 166.000 121.300 V 127.300 C 166.000 127.355 166.045 127.400 166.100 127.400 H 169.000 C 169.100 127.400 169.000 127.300 169.000 127.400 V 129.800 C 169.000 129.855 169.045 129.900 169.100 129.900" stroke="rgb(0,0,0)" stroke-width="0.20" />
</g>
<g id="p-6" style="fill:none;stroke-linecap:round;stroke-linejoin:round;">
  <text transform="matrix( 1.000 0.000 0.000 1.000 213.600 93.200 )" style="font-family: sans-serif ; font-weight: normal; font-style: normal; fill: rgb(255,0,0)" font-size="4px" text-anchor="middle" dominant-baseline="hanging">inner y 1</text><path d="M 169.100 102.200 H 174.500 C 174.600 102.200 174.500 102.100 174.500 102.200 V 105.100 C 174.500 105.155 174.545 105.200 174.600 105.200 H 180.600 C 180.655 105.200 180.700 105.155 180.700 105.100 V 102.200 C 180.700 102.100 180.600 102.200 180.700 102.200 H 186.500 C 186.600 102.200 186.500 102.100 186.500 102.200 V 105.100 C 186.500 105.155 186.545 105.200 186.600 105.200 H 192.600 C 192.655 105.200 192.700 105.155 192.700 105.100 V 102.200 C 192.700 102.100 192.600 102.200 192.700 102.200 H 198.500 C 198.600 102.200 198.500 102.100 198.500 102.200 V 105.100 C 198.500 105.155 198.545 105.200 198.600 105.200 H 204.600 C 204.655 105.200 204.700 105.155 204.700 105.100 V 102.200 C 204.700 102.100 204.600 102.200 204.700 102.200 H 210.500 C 210.600 102.200 210.500 102.100 210.500 102.200 V 105.100 C 210.500 105.155 210.545 105.200 210.600 105.200 H 216.600 C 216.655 105.200 216.700 105.155 216.700 105.100 V 102.200 C 216.700 102.100 216.600 102.200 216.700 102.200 H 222.500 C 222.600 102.200 222.500 102.100 222.500 102.200 V 105.100 C 222.500 105.155 222.545 105.200 222.600 105.200 H 228.600 C 228.655 105.200 228.700 105.155 228.700 105.100 V 102.200 C 228.700 102.100 228.600 102.200 228.700 102.200 H 234.500 C 234.600 102.200 234.500 102.100 234.500 102.200 V 105.100 C 234.500 105.155 234.545 105.200 234.600 105.200 H 240.600 C 240.655 105.200 240.700 105.155 240.700 105.100 V 102.200 C 240.700 102.100 240.600 102.200 240.700 102.200 H 246.500 C 246.600 102.200 246.500 102.100 246.500 102.200 V 105.100 C 246.500 105.155 246.545 105.200 246.600 105.200 H 252.600 C 252.655 105.200 252.700 105.155 252.700 105.100 V 102.200 C 252.700 102.100 252.600 102.200 252.700 102.200 H 258.100 C 258.155 102.200 258.200 102.155 258.200 102.100 V 96.700 C 258.200 96.600 258.100 96.700 258.200 96.700 H 261.100 C 261.155 96.700 261.200 96.655 261.200 96.600 V 90.600 C 261.200 90.545 261.155 90.500 261.100 90.500 H 258.200 C 258.100 90.500 258.200 90.600 258.200 90.500 V 85.100 C 258.200 85.045 258.155 85.000 258.100 85.000 H 169.100 C 169.045 85.000 169.000 85.045 169.000 85.100 V 90.500 C 169.000 90.600 169.100 90.500 169.000 90.500 H 166.100 C 166.045 90.500 166.000 90.545 166.000 90.600 V 96.600 C 166.000 96.655 166.045 96.700 166.100 96.700 H 169.000 C 169.100 96.700 169.000 96.600 169.000 96.700 V 102.100 C 169.000 102.155 169.045 102.200 169.100 102.200" stroke="rgb(0,0,0)" stroke-width="0.20" />
</g>
</svg>