<?xml version="1.0" encoding="UTF-8"?>
<!DOCTYPE svg PUBLIC "-//W3C//DTD SVG 1.1//EN" "http://www.w3.org/Graphics/SVG/1.1/DTD/svg11.dtd">
<!-- Creator: CorelDRAW SE (OEM-Version) -->
<svg xmlns="http://www.w3.org/2000/svg" xml:space="preserve" width="609mm" height="304mm" version="1.1" style="shape-rendering:geometricPrecision; text-rendering:geometricPrecision; image-rendering:optimizeQuality; fill-rule:evenodd; clip-rule:evenodd"
viewBox="0 0 60900 30400"
 xmlns:xlink="http://www.w3.org/1999/xlink">
 <defs>
  <style type="text/css">
   <![CDATA[
    .str0 {stroke:black;stroke-width:7.62;stroke-linecap:round;stroke-linejoin:round;stroke-miterlimit:10}
    .str1 {stroke:black;stroke-width:7.62;stroke-linecap:round;stroke-linejoin:round;stroke-miterlimit:10}
    .str2 {stroke:black;stroke-width:7.62;stroke-linecap:round;stroke-linejoin:round;stroke-miterlimit:10}
    .fil0 {fill:none;fill-rule:nonzero}
   ]]>
  </style>
 </defs>
 <g id="Ebene_x0020_1">
  <metadata id="CorelCorpID_0Corel-Layer"/>
  <path class="fil0 str0" d="M27331.69 18607.76l0 -8099.96c0,-5.51 -4.48,-10.02 -9.98,-10.02 5.5,0 9.98,4.51 9.98,10.02l0 -300.01c0,5.51 -4.48,10.02 -9.98,10.02 5.5,0 9.98,-4.51 9.98,-10.02 0,-5.51 -4.48,-10.02 -9.98,-10.02l-499.99 0c-42.13,0 -83.5,-11.11 -120.03,-32.18 -36.51,-21.03 -66.78,-51.32 -87.8,-87.82 -21.1,-36.46 -32.17,-77.9 -32.17,-119.96 0,-42.15 11.07,-83.5 32.17,-120.05 21.02,-36.45 51.29,-66.74 87.8,-87.77 36.53,-21.12 77.9,-32.18 120.03,-32.18l499.99 0c5.5,0 9.98,-4.51 9.98,-10.02 0,-5.51 -4.48,-10.02 -9.98,-10.02 5.5,0 9.98,4.51 9.98,10.02l0 -300.01c0,5.51 -4.48,10.02 -9.98,10.02 5.5,0 9.98,-4.51 9.98,-10.02l0 -8399.97c0,-5.5 -4.48,-9.96 -9.98,-9.96l-841.42 0c-5.6,0 -9.98,4.46 -9.98,9.96l0 290c0,10.01 9.98,0 0,0l-580 0c-10.01,0 0,10.01 0,0l0 -290c0,-5.5 -4.51,-9.96 -10.01,-9.96l-600.02 0c-5.56,0 -9.97,4.46 -9.97,9.96l0 290c0,10.01 9.97,0 0,0l-580 0c-9.97,0 0,10.01 0,0l0 -290c0,-5.5 -4.51,-9.96 -9.97,-9.96l-600.02 0c-5.6,0 -10.02,4.46 -10.02,9.96l0 290c0,10.01 10.02,0 0,0l-579.98 0c-10.02,0 0,10.01 0,0l0 -290c0,-5.5 -4.51,-9.96 -10.02,-9.96l-599.97 0c-5.65,0 -10.06,4.46 -10.06,9.96l0 290c0,10.01 10.06,0 0,0l-579.94 0c-10.02,0 0,10.01 0,0l0 -290c0,-5.5 -4.51,-9.96 -10.02,-9.96l-600.02 0c-5.6,0 -9.96,4.46 -9.96,9.96l0 290c0,10.01 9.96,0 0,0l-579.99 0c-10.02,0 0,10.01 0,0l0 -290c0,-5.5 -4.51,-9.96 -10.02,-9.96l-600.01 0c-5.56,0 -9.97,4.46 -9.97,9.96l0 290c0,10.01 9.97,0 0,0l-580.04 0c-9.96,0 0,10.01 0,0l0 -290c0,-5.5 -4.51,-9.96 -9.96,-9.96l-600.02 0c-5.6,0 -10.02,4.46 -10.02,9.96l0 290c0,10.01 10.02,0 0,0l-579.98 0c-9.97,0 0,10.01 0,0l0 -290c0,-5.5 -4.51,-9.96 -9.97,-9.96l-600.02 0c-5.6,0 -10.02,4.46 -10.02,9.96l0 290c0,10.01 10.02,0 0,0l-579.98 0c-10.02,0 0,10.01 0,0l0 -290c0,-5.5 -4.51,-9.96 -10.02,-9.96l-599.97 0c-5.65,0 -10.02,4.46 -10.02,9.96l0 290c0,10.01 10.02,0 0,0l-579.98 0c-10.02,0 0,10.01 0,0l0 -290c0,-5.5 -4.51,-9.96 -10.02,-9.96l-600.02 0c-5.55,0 -9.96,4.46 -9.96,9.96l0 290c0,10.01 9.96,0 0,0l-580.04 0c-9.97,0 0,10.01 0,0l0 -290c0,-5.5 -4.51,-9.96 -9.97,-9.96l-600.01 0c-5.61,0 -10.02,4.46 -10.02,9.96l0 290c0,10.01 10.02,0 0,0l-579.99 0c-9.96,0 0,10.01 0,0l0 -290c0,-5.5 -4.46,-9.96 -9.96,-9.96l-600.02 0c-5.6,0 -10.02,4.46 -10.02,9.96l0 290c0,10.01 10.02,0 0,0l-579.94 0c-10.01,0 0,10.01 0,0l0 -290c0,-5.5 -4.55,-9.96 -10.01,-9.96l-600.02 0c-5.65,0 -9.97,4.46 -9.97,9.96l0 290c0,10.01 9.97,0 0,0l-580.03 0c-10.02,0 0,10.01 0,0l0 -290c0,-5.5 -4.51,-9.96 -10.02,-9.96l-599.97 0c-5.6,0 -10.02,4.46 -10.02,9.96l0 290c0,10.01 10.02,0 0,0l-579.98 0c-10.02,0 0,10.01 0,0l0 -290c0,-5.5 -4.51,-9.96 -10.02,-9.96l-599.97 0c-5.6,0 -10.01,4.46 -10.01,9.96l0 290c0,10.01 10.01,0 0,0l-580.04 0c-9.97,0 0,10.01 0,0l0 -290c0,-5.5 -4.46,-9.96 -9.97,-9.96l-600.01 0c-5.61,0 -10.02,4.46 -10.02,9.96l0 290c0,10.01 10.02,0 0,0l-579.94 0c-10.01,0 0,10.01 0,0l0 -290c0,-5.5 -4.51,-9.96 -10.01,-9.96l-600.02 0c-5.6,0 -9.97,4.46 -9.97,9.96l0 290c0,10.01 9.97,0 0,0l-579.99 0c-10.01,0 0,10.01 0,0l0 -290c0,-5.5 -4.55,-9.96 -10.01,-9.96l-600.02 0c-5.6,0 -9.97,4.46 -9.97,9.96l0 290c0,10.01 9.97,0 0,0l-580.03 0c-9.97,0 0,10.01 0,0l0 -290c0,-5.5 -4.51,-9.96 -9.97,-9.96l-600.02 0c-5.6,0 -10.02,4.46 -10.02,9.96l0 290c0,10.01 10.02,0 0,0l-579.98 0c-10.02,0 0,10.01 0,0l0 -290c0,-5.5 -4.51,-9.96 -10.02,-9.96l-599.97 0c-5.6,0 -10.01,4.46 -10.01,9.96l0 290c0,10.01 10.01,0 0,0l-579.99 0c-10.02,0 0,10.01 0,0l0 -290c0,-5.5 -4.51,-9.96 -10.02,-9.96l-600.01 0c-5.61,0 -9.97,4.46 -9.97,9.96l0 290c0,10.01 9.97,0 0,0l-579.99 0c-10.01,0 0,10.01 0,0l0 -290c0,-5.5 -4.51,-9.96 -10.01,-9.96l-841.5 0c-5.51,0 -10.02,4.46 -10.02,9.96l0 17899.95c0,5.51 4.51,9.97 10.02,9.97l841.5 0c5.5,0 10.01,-4.46 10.01,-9.97l0 -289.99c0,-10.01 -10.01,0 0,0l579.99 0c9.97,0 0,-10.01 0,0l0 289.99c0,5.51 4.36,9.97 9.97,9.97l600.01 0c5.51,0 10.02,-4.46 10.02,-9.97l0 -289.99c0,-10.01 -10.02,0 0,0l579.99 0c10.01,0 0,-10.01 0,0l0 289.99c0,5.51 4.41,9.97 10.01,9.97l599.97 0c5.51,0 10.02,-4.46 10.02,-9.97l0 -289.99c0,-10.01 -10.02,0 0,0l579.98 0c10.02,0 0,-10.01 0,0l0 289.99c0,5.51 4.42,9.97 10.02,9.97l600.02 0c5.46,0 9.97,-4.46 9.97,-9.97l0 -289.99c0,-10.01 -9.97,0 0,0l580.03 0c9.97,0 0,-10.01 0,0l0 289.99c0,5.51 4.37,9.97 9.97,9.97l600.02 0c5.46,0 10.01,-4.46 10.01,-9.97l0 -289.99c0,-10.01 -10.01,0 0,0l579.99 0c9.97,0 0,-10.01 0,0l0 289.99c0,5.51 4.37,9.97 9.97,9.97l600.02 0c5.5,0 10.01,-4.46 10.01,-9.97l0 -289.99c0,-10.01 -10.01,0 0,0l579.94 0c10.02,0 0,-10.01 0,0l0 289.99c0,5.51 4.41,9.97 10.02,9.97l600.01 0c5.51,0 9.97,-4.46 9.97,-9.97l0 -289.99c0,-10.01 -9.97,0 0,0l580.04 0c10.01,0 0,-10.01 0,0l0 289.99c0,5.51 4.41,9.97 10.01,9.97l599.97 0c5.51,0 10.02,-4.46 10.02,-9.97l0 -289.99c0,-10.01 -10.02,0 0,0l579.98 0c10.02,0 0,-10.01 0,0l0 289.99c0,5.51 4.42,9.97 10.02,9.97l599.97 0c5.51,0 10.02,-4.46 10.02,-9.97l0 -289.99c0,-10.01 -10.02,0 0,0l580.03 0c9.97,0 0,-10.01 0,0l0 289.99c0,5.51 4.32,9.97 9.97,9.97l600.02 0c5.46,0 10.01,-4.46 10.01,-9.97l0 -289.99c0,-10.01 -10.01,0 0,0l579.94 0c10.02,0 0,-10.01 0,0l0 289.99c0,5.51 4.42,9.97 10.02,9.97l600.02 0c5.5,0 9.96,-4.46 9.96,-9.97l0 -289.99c0,-10.01 -9.96,0 0,0l579.99 0c10.02,0 0,-10.01 0,0l0 289.99c0,5.51 4.41,9.97 10.02,9.97l600.01 0c5.46,0 9.97,-4.46 9.97,-9.97l0 -289.99c0,-10.01 -9.97,0 0,0l580.04 0c9.96,0 0,-10.01 0,0l0 289.99c0,5.51 4.41,9.97 9.96,9.97l600.02 0c5.51,0 10.02,-4.46 10.02,-9.97l0 -289.99c0,-10.01 -10.02,0 0,0l579.98 0c10.02,0 0,-10.01 0,0l0 289.99c0,5.51 4.37,9.97 10.02,9.97l599.97 0c5.51,0 10.02,-4.46 10.02,-9.97l0 -289.99c0,-10.01 -10.02,0 0,0l579.98 0c10.02,0 0,-10.01 0,0l0 289.99c0,5.51 4.42,9.97 10.02,9.97l600.02 0c5.46,0 9.97,-4.46 9.97,-9.97l0 -289.99c0,-10.01 -9.97,0 0,0l579.98 0c10.02,0 0,-10.01 0,0l0 289.99c0,5.51 4.42,9.97 10.02,9.97l600.02 0c5.45,0 9.96,-4.46 9.96,-9.97l0 -289.99c0,-10.01 -9.96,0 0,0l580.04 0c9.97,0 0,-10.01 0,0l0 289.99c0,5.51 4.41,9.97 9.97,9.97l600.01 0c5.51,0 10.02,-4.46 10.02,-9.97l0 -289.99c0,-10.01 -10.02,0 0,0l579.99 0c9.96,0 0,-10.01 0,0l0 289.99c0,5.51 4.36,9.97 9.96,9.97l600.02 0c5.51,0 10.02,-4.46 10.02,-9.97l0 -289.99c0,-10.01 -10.02,0 0,0l579.94 0c10.06,0 0,-10.01 0,0l0 289.99c0,5.51 4.41,9.97 10.06,9.97l599.97 0c5.51,0 10.02,-4.46 10.02,-9.97l0 -289.99c0,-10.01 -10.02,0 0,0l579.98 0c10.02,0 0,-10.01 0,0l0 289.99c0,5.51 4.42,9.97 10.02,9.97l600.02 0c5.46,0 9.97,-4.46 9.97,-9.97l0 -289.99c0,-10.01 -9.97,0 0,0l580 0c9.97,0 0,-10.01 0,0l0 289.99c0,5.51 4.41,9.97 9.97,9.97l600.02 0c5.5,0 10.01,-4.46 10.01,-9.97l0 -289.99c0,-10.01 -10.01,0 0,0l580 0c9.98,0 0,-10.01 0,0l0 289.99c0,5.51 4.38,9.97 9.98,9.97l841.42 0c5.5,0 9.98,-4.46 9.98,-9.97l0 -300z"/>
  <path class="fil0 str1" d="M1440.55 26368.98l0 -5916.63c0,-1.43 0.28,-2.85 0.88,-4.28 156.5,-335.61 398.71,-624.22 702.1,-836.41 303.42,-212.67 657.29,-341.31 1026.3,-373.59 369,-32.28 740.03,32.75 1075.64,189.4l2175.16 1014.43c49.27,22.79 91.66,58.39 122.9,103.01 31.18,44.62 50.13,96.84 54.87,150.96 4.7,54.11 -4.89,108.7 -27.86,158.07 -23.03,48.89 -58.49,91.62 -103.11,122.47 -44.62,31.33 -96.6,50.32 -150.81,55.07 -54.21,4.75 -108.66,-4.75 -157.98,-27.53l-407.91 -190.36c-6.31,-2.85 -13.38,-4.27 -20.41,-3.8 -6.98,0.95 -13.67,3.33 -19.41,7.12 -5.75,4.28 -10.35,9.5 -13.29,16.14l-608.57 1304.95c-4.22,9.02 -9.11,-4.27 0,0l978.78 456.18c9.12,4.28 -4.22,9.5 0,0l122.57 -262.5c2.33,-5.23 8.35,-7.13 13.29,-4.75l543.72 253.49c5.03,2.37 7.26,8.07 4.89,13.29l-122.57 262.98c-4.18,8.55 -9.02,-4.75 0,0l525.68 244.95c9.02,4.27 -4.17,9.01 0,0l122.52 -262.99c2.38,-5.22 8.31,-7.12 13.29,-4.74l543.82 253.48c4.98,2.38 7.17,8.55 4.79,13.3l-122.47 262.98c-4.23,9.02 -9.11,-4.27 0,0l525.59 244.94c9.11,4.27 -4.18,9.02 0,0l122.56 -262.98c2.33,-4.75 8.31,-7.12 13.29,-4.75l543.82 253.49c4.98,2.37 7.12,8.55 4.79,13.29l-122.47 262.99c-4.32,9.01 -9.11,-4.28 0,0l525.59 245.41c9.11,3.8 -4.18,8.55 0,0l122.56 -262.98c2.33,-5.22 8.36,-7.12 13.29,-4.75l543.72 253.49c5.13,2.38 7.27,8.07 4.89,13.29l-122.57 262.51c-4.22,9.5 -9.01,-3.79 0,0l525.73 245.42c8.97,4.27 -4.22,9.02 0,0l122.47 -262.98c2.38,-4.75 8.31,-7.12 13.3,-4.75l543.81 253.49c4.98,2.37 7.17,8.55 4.89,13.29l-122.57 262.98c-4.22,9.02 -9.11,-4.27 0,0l525.64 244.95c9.06,4.27 -4.23,9.02 0,0l122.51 -262.98c2.33,-4.75 8.31,-7.12 13.3,-4.75l543.81 253.96c4.98,1.9 7.22,8.07 4.79,12.82l-122.47 262.98c-4.32,9.02 -9.11,-4.27 0,0l525.59 244.95c9.11,4.27 -4.23,9.49 0,0l122.56 -262.51c2.33,-5.22 8.36,-7.12 13.3,-4.75l543.81 253.49c5.03,2.37 7.17,8.07 4.79,13.29l-122.56 262.51c-4.23,9.49 -9.02,-3.8 0,0l987.89 460.93c1.71,0.48 3.09,1.9 4.13,3.32 0.95,1.43 1.57,3.33 1.66,5.23 0.1,1.89 -0.33,3.32 -1.18,5.22 -0.81,1.42 -2.14,2.85 -3.71,3.79 -1.47,0.95 -3.32,1.43 -5.12,1.43l-12688.26 0c-5.5,0 -9.98,-4.27 -9.98,-9.97z"/>
  <path class="fil0 str2" d="M27384.23 26538.74l0 -5916.63c0,-1.43 -0.28,-2.85 -0.88,-4.28 -156.5,-335.61 -398.71,-624.22 -702.1,-836.89 -303.42,-212.19 -657.29,-341.31 -1026.3,-373.59 -369,-31.8 -740.03,33.23 -1075.64,189.88l-2175.16 1014.43c-49.27,22.79 -91.66,58.39 -122.9,103.01 -31.18,44.62 -50.13,96.36 -54.87,150.96 -4.7,54.11 4.89,108.7 27.86,158.07 23.03,49.37 58.49,91.62 103.11,122.95 44.62,30.85 96.6,49.84 150.81,54.59 54.21,4.74 108.66,-4.75 157.98,-28.01l407.91 -189.88c6.31,-2.85 13.38,-4.27 20.41,-3.8 6.98,0.48 13.67,3.33 19.41,7.12 5.75,4.28 10.35,9.5 13.29,16.14l608.57 1304.95c4.22,9.02 9.11,-4.28 0,0l-978.78 456.18c-9.12,4.27 4.22,9.02 0,0l-122.57 -262.51c-2.33,-5.22 -8.35,-7.12 -13.29,-4.74l-543.72 253.49c-5.03,2.37 -7.26,8.07 -4.89,13.29l122.57 262.5c4.18,9.5 9.02,-3.79 0,0l-525.68 245.42c-9.02,4.28 4.17,9.02 0,0l-122.52 -262.98c-2.38,-5.22 -8.31,-7.12 -13.29,-4.75l-543.82 253.49c-4.98,2.38 -7.17,8.07 -4.79,13.29l122.47 262.99c4.23,9.02 9.11,-4.28 0,0l-525.59 244.94c-9.11,4.27 4.18,9.02 0,0l-122.56 -262.98c-2.33,-4.75 -8.31,-7.12 -13.29,-4.75l-543.82 253.49c-4.98,2.37 -7.12,8.54 -4.79,13.29l122.47 262.98c4.32,9.02 9.11,-4.27 0,0l-525.59 244.95c-9.11,4.27 4.18,9.49 0,0l-122.56 -262.51c-2.33,-5.22 -8.36,-7.12 -13.29,-5.22l-543.72 253.96c-5.13,2.38 -7.27,8.07 -4.89,13.29l122.57 262.51c4.22,9.02 9.01,-4.27 0,0l-525.73 245.42c-8.97,4.27 4.22,9.02 0,0l-122.47 -262.98c-2.38,-4.75 -8.31,-7.12 -13.3,-4.75l-543.81 253.49c-4.98,2.37 -7.17,8.07 -4.89,13.29l122.57 262.98c4.22,9.02 9.11,-4.27 0,0l-525.64 244.95c-9.06,4.27 4.23,9.02 0,0l-122.51 -262.51c-2.33,-5.22 -8.31,-7.6 -13.3,-5.22l-543.81 253.49c-4.98,2.37 -7.22,8.54 -4.79,13.29l122.47 262.98c4.32,9.02 9.11,-4.27 0,0l-525.59 244.94c-9.11,4.28 4.23,9.5 0,0l-122.56 -262.5c-2.33,-5.23 -8.36,-7.12 -13.3,-4.75l-543.81 253.49c-5.03,2.37 -7.17,8.07 -4.79,13.29l122.56 262.51c4.23,9.02 9.02,-4.27 0,0l-987.89 460.93c-1.71,0.47 -3.09,1.9 -4.13,3.32 -0.95,1.43 -1.57,3.32 -1.66,5.22 -0.1,1.9 0.33,3.33 1.18,5.23 0.81,1.42 2.14,2.84 3.71,3.79 1.47,0.95 3.32,1.43 5.12,1.43l12688.26 0c5.5,0 9.98,-4.28 9.98,-9.97z"/>
 </g>
</svg>
