<?xml version="1.0" encoding="UTF-8"?>
<svg height="246.66mm" viewBox="0.0 0.0 457.08 246.66" width="457.08mm" xmlns="http://www.w3.org/2000/svg" xmlns:cc="http://creativecommons.org/ns#" xmlns:dc="http://purl.org/dc/elements/1.1/" xmlns:inkscape="http://www.inkscape.org/namespaces/inkscape" xmlns:rdf="http://www.w3.org/1999/02/22-rdf-syntax-ns#" xmlns:svg="http://www.w3.org/2000/svg" xmlns:xlink="http://www.w3.org/1999/xlink">
<!--
PhoneHolder - 
    Smartphone desk holder
    



    This phone stand holds your phone between two tabs, with access to its
    bottom, in order to connect a charger, headphones, and also not to obstruct
    the mic.

    Default values are currently based on Galaxy S7.



Created with Boxes.py (https://festi.info/boxes.py)
Creation date: 2021-04-13 10:30:05
Command line (remove spaces between dashes): boxes PhoneHolder - -FingerJoint_angle=90.0 - -FingerJoint_style=rectangular - -FingerJoint_surroundingspaces=2.0 - -FingerJoint_edge_width=1.0 - -FingerJoint_finger=2.0 - -FingerJoint_play=0.0 - -FingerJoint_space=2.0 - -FingerJoint_width=1.0 - -phone_height=170 - -phone_width=85 - -phone_depth=13 - -angle=25 - -bottom_margin=30 - -tab_size=76 - -bottom_support_spacing=16 - -thickness=3.0 - -format=svg - -tabs=0.0 - -debug=0 - -reference=100 - -burn=0.1
Url: http://festi.info/PhoneHolder?FingerJoint_angle=90.0&FingerJoint_style=rectangular&FingerJoint_surroundingspaces=2.0&FingerJoint_edge_width=1.0&FingerJoint_finger=2.0&FingerJoint_play=0.0&FingerJoint_space=2.0&FingerJoint_width=1.0&phone_height=170&phone_width=85&phone_depth=13&angle=25&bottom_margin=30&tab_size=76&bottom_support_spacing=16&thickness=3.0&format=svg&tabs=0.0&debug=0&reference=100&burn=0.1&render=1
SettingsUrl: http://festi.info/PhoneHolder?FingerJoint_angle=90.0&FingerJoint_style=rectangular&FingerJoint_surroundingspaces=2.0&FingerJoint_edge_width=1.0&FingerJoint_finger=2.0&FingerJoint_play=0.0&FingerJoint_space=2.0&FingerJoint_width=1.0&phone_height=170&phone_width=85&phone_depth=13&angle=25&bottom_margin=30&tab_size=76&bottom_support_spacing=16&thickness=3.0&format=svg&tabs=0.0&debug=0&reference=100&burn=0.1
-->
<title>PhoneHolder</title>
<metadata>
<rdf:RDF><cc:Work>
<dc:title>Misc - PhoneHolder</dc:title>
<dc:date>2021-04-13 10:30:05</dc:date>
<dc:source>http://festi.info/PhoneHolder?FingerJoint_angle=90.0&amp;FingerJoint_style=rectangular&amp;FingerJoint_surroundingspaces=2.0&amp;FingerJoint_edge_width=1.0&amp;FingerJoint_finger=2.0&amp;FingerJoint_play=0.0&amp;FingerJoint_space=2.0&amp;FingerJoint_width=1.0&amp;phone_height=170&amp;phone_width=85&amp;phone_depth=13&amp;angle=25&amp;bottom_margin=30&amp;tab_size=76&amp;bottom_support_spacing=16&amp;thickness=3.0&amp;format=svg&amp;tabs=0.0&amp;debug=0&amp;reference=100&amp;burn=0.1&amp;render=1</dc:source>
<dc:description>
    Smartphone desk holder
    


    This phone stand holds your phone between two tabs, with access to its
    bottom, in order to connect a charger, headphones, and also not to obstruct
    the mic.

    Default values are currently based on Galaxy S7.


Created with Boxes.py (https://festi.info/boxes.py)
Command line: boxes PhoneHolder --FingerJoint_angle=90.0 --FingerJoint_style=rectangular --FingerJoint_surroundingspaces=2.0 --FingerJoint_edge_width=1.0 --FingerJoint_finger=2.0 --FingerJoint_play=0.0 --FingerJoint_space=2.0 --FingerJoint_width=1.0 --phone_height=170 --phone_width=85 --phone_depth=13 --angle=25 --bottom_margin=30 --tab_size=76 --bottom_support_spacing=16 --thickness=3.0 --format=svg --tabs=0.0 --debug=0 --reference=100 --burn=0.1
Url: http://festi.info/PhoneHolder?FingerJoint_angle=90.0&amp;FingerJoint_style=rectangular&amp;FingerJoint_surroundingspaces=2.0&amp;FingerJoint_edge_width=1.0&amp;FingerJoint_finger=2.0&amp;FingerJoint_play=0.0&amp;FingerJoint_space=2.0&amp;FingerJoint_width=1.0&amp;phone_height=170&amp;phone_width=85&amp;phone_depth=13&amp;angle=25&amp;bottom_margin=30&amp;tab_size=76&amp;bottom_support_spacing=16&amp;thickness=3.0&amp;format=svg&amp;tabs=0.0&amp;debug=0&amp;reference=100&amp;burn=0.1&amp;render=1
SettingsUrl: http://festi.info/PhoneHolder?FingerJoint_angle=90.0&amp;FingerJoint_style=rectangular&amp;FingerJoint_surroundingspaces=2.0&amp;FingerJoint_edge_width=1.0&amp;FingerJoint_finger=2.0&amp;FingerJoint_play=0.0&amp;FingerJoint_space=2.0&amp;FingerJoint_width=1.0&amp;phone_height=170&amp;phone_width=85&amp;phone_depth=13&amp;angle=25&amp;bottom_margin=30&amp;tab_size=76&amp;bottom_support_spacing=16&amp;thickness=3.0&amp;format=svg&amp;tabs=0.0&amp;debug=0&amp;reference=100&amp;burn=0.1
</dc:description>
</cc:Work></rdf:RDF></metadata>
<g id="p-0" style="fill:none;stroke-linecap:round;stroke-linejoin:round;">
  <path d="M 10.100 236.662 H 110.100 V 226.662 H 10.100 V 236.662 Z" stroke="rgb(0,0,0)" stroke-width="0.20"/>
  <text alignment-baseline="hanging" font-size="10px" style="font-family: sans-serif ; font-weight: normal; font-style: normal; fill: rgb(0,0,0)" text-anchor="middle" transform="matrix( 1.000 0.000 0.000 1.000 60.100 226.662 )">100mm</text>
</g>
<g id="p-1" style="fill:none;stroke-linecap:round;stroke-linejoin:round;">
  <path d="M 47.500 180.862 V 183.762 C 47.500 183.862 47.600 183.762 47.500 183.762 H 44.700 C 44.600 183.762 44.700 183.862 44.700 183.762 V 177.962 C 44.700 177.862 44.600 177.962 44.700 177.962 H 47.500 C 47.600 177.962 47.500 177.862 47.500 177.962 V 180.862 Z" stroke="rgb(0,0,255)" stroke-width="0.20"/>
  <path d="M 47.500 168.862 V 171.762 C 47.500 171.862 47.600 171.762 47.500 171.762 H 44.700 C 44.600 171.762 44.700 171.862 44.700 171.762 V 165.962 C 44.700 165.862 44.600 165.962 44.700 165.962 H 47.500 C 47.600 165.962 47.500 165.862 47.500 165.962 V 168.862 Z" stroke="rgb(0,0,255)" stroke-width="0.20"/>
  <path d="M 47.500 156.862 V 159.762 C 47.500 159.862 47.600 159.762 47.500 159.762 H 44.700 C 44.600 159.762 44.700 159.862 44.700 159.762 V 153.962 C 44.700 153.862 44.600 153.962 44.700 153.962 H 47.500 C 47.600 153.962 47.500 153.862 47.500 153.962 V 156.862 Z" stroke="rgb(0,0,255)" stroke-width="0.20"/>
  <path d="M 47.500 144.862 V 147.762 C 47.500 147.862 47.600 147.762 47.500 147.762 H 44.700 C 44.600 147.762 44.700 147.862 44.700 147.762 V 141.962 C 44.700 141.862 44.600 141.962 44.700 141.962 H 47.500 C 47.600 141.962 47.500 141.862 47.500 141.962 V 144.862 Z" stroke="rgb(0,0,255)" stroke-width="0.20"/>
  <path d="M 47.500 132.862 V 135.762 C 47.500 135.862 47.600 135.762 47.500 135.762 H 44.700 C 44.600 135.762 44.700 135.862 44.700 135.762 V 129.962 C 44.700 129.862 44.600 129.962 44.700 129.962 H 47.500 C 47.600 129.962 47.500 129.862 47.500 129.962 V 132.862 Z" stroke="rgb(0,0,255)" stroke-width="0.20"/>
  <path d="M 66.500 180.862 V 183.762 C 66.500 183.862 66.600 183.762 66.500 183.762 H 63.700 C 63.600 183.762 63.700 183.862 63.700 183.762 V 177.962 C 63.700 177.862 63.600 177.962 63.700 177.962 H 66.500 C 66.600 177.962 66.500 177.862 66.500 177.962 V 180.862 Z" stroke="rgb(0,0,255)" stroke-width="0.20"/>
  <path d="M 66.500 168.862 V 171.762 C 66.500 171.862 66.600 171.762 66.500 171.762 H 63.700 C 63.600 171.762 63.700 171.862 63.700 171.762 V 165.962 C 63.700 165.862 63.600 165.962 63.700 165.962 H 66.500 C 66.600 165.962 66.500 165.862 66.500 165.962 V 168.862 Z" stroke="rgb(0,0,255)" stroke-width="0.20"/>
  <path d="M 66.500 156.862 V 159.762 C 66.500 159.862 66.600 159.762 66.500 159.762 H 63.700 C 63.600 159.762 63.700 159.862 63.700 159.762 V 153.962 C 63.700 153.862 63.600 153.962 63.700 153.962 H 66.500 C 66.600 153.962 66.500 153.862 66.500 153.962 V 156.862 Z" stroke="rgb(0,0,255)" stroke-width="0.20"/>
  <path d="M 66.500 144.862 V 147.762 C 66.500 147.862 66.600 147.762 66.500 147.762 H 63.700 C 63.600 147.762 63.700 147.862 63.700 147.762 V 141.962 C 63.700 141.862 63.600 141.962 63.700 141.962 H 66.500 C 66.600 141.962 66.500 141.862 66.500 141.962 V 144.862 Z" stroke="rgb(0,0,255)" stroke-width="0.20"/>
  <path d="M 66.500 132.862 V 135.762 C 66.500 135.862 66.600 135.762 66.500 135.762 H 63.700 C 63.600 135.762 63.700 135.862 63.700 135.762 V 129.962 C 63.700 129.862 63.600 129.962 63.700 129.962 H 66.500 C 66.600 129.962 66.500 129.862 66.500 129.962 V 132.862 Z" stroke="rgb(0,0,255)" stroke-width="0.20"/>
  <path d="M 13.100 224.962 H 44.600 C 44.655 224.962 44.700 224.917 44.700 224.862 V 194.962 C 44.700 194.862 44.600 194.962 44.700 194.962 H 47.500 C 47.600 194.962 47.500 194.862 47.500 194.962 V 224.862 C 47.500 224.917 47.545 224.962 47.600 224.962 H 53.100 C 53.155 224.962 53.200 224.917 53.200 224.862 V 219.862 C 53.200 219.440 53.311 219.026 53.522 218.662 C 53.732 218.297 54.035 217.994 54.400 217.783 C 54.765 217.572 55.179 217.462 55.600 217.462 C 56.021 217.462 56.435 217.572 56.800 217.783 C 57.165 217.994 57.468 218.297 57.678 218.662 C 57.889 219.026 58.000 219.440 58.000 219.862 V 224.862 C 58.000 224.917 58.045 224.962 58.100 224.962 H 63.600 C 63.655 224.962 63.700 224.917 63.700 224.862 V 194.962 C 63.700 194.862 63.600 194.962 63.700 194.962 H 66.500 C 66.600 194.962 66.500 194.862 66.500 194.962 V 224.862 C 66.500 224.917 66.545 224.962 66.600 224.962 H 98.100 H 101.100 C 101.155 224.962 101.200 224.917 101.200 224.862 V 218.862 C 101.200 218.806 101.155 218.762 101.100 218.762 H 98.200 C 98.100 218.762 98.200 218.862 98.200 218.762 V 212.962 C 98.200 212.862 98.100 212.962 98.200 212.962 H 101.100 C 101.155 212.962 101.200 212.917 101.200 212.862 V 206.862 C 101.200 206.806 101.155 206.762 101.100 206.762 H 98.200 C 98.100 206.762 98.200 206.862 98.200 206.762 V 200.962 C 98.200 200.862 98.100 200.962 98.200 200.962 H 101.100 C 101.155 200.962 101.200 200.917 101.200 200.862 V 194.862 C 101.200 194.806 101.155 194.762 101.100 194.762 H 98.200 C 98.100 194.762 98.200 194.862 98.200 194.762 V 183.962 C 98.200 183.862 98.100 183.962 98.200 183.962 H 101.100 C 101.155 183.962 101.200 183.917 101.200 183.862 V 177.862 C 101.200 177.806 101.155 177.762 101.100 177.762 H 98.200 C 98.100 177.762 98.200 177.862 98.200 177.762 V 171.962 C 98.200 171.862 98.100 171.962 98.200 171.962 H 101.100 C 101.155 171.962 101.200 171.917 101.200 171.862 V 165.862 C 101.200 165.806 101.155 165.762 101.100 165.762 H 98.200 C 98.100 165.762 98.200 165.862 98.200 165.762 V 159.962 C 98.200 159.862 98.100 159.962 98.200 159.962 H 101.100 C 101.155 159.962 101.200 159.917 101.200 159.862 V 153.862 C 101.200 153.806 101.155 153.762 101.100 153.762 H 98.200 C 98.100 153.762 98.200 153.862 98.200 153.762 V 147.962 C 98.200 147.862 98.100 147.962 98.200 147.962 H 101.100 C 101.155 147.962 101.200 147.917 101.200 147.862 V 141.862 C 101.200 141.806 101.155 141.762 101.100 141.762 H 98.200 C 98.100 141.762 98.200 141.862 98.200 141.762 V 135.962 C 98.200 135.862 98.100 135.962 98.200 135.962 H 101.100 C 101.155 135.962 101.200 135.917 101.200 135.862 V 129.862 C 101.200 129.806 101.155 129.762 101.100 129.762 H 98.200 C 98.100 129.762 98.200 129.862 98.200 129.762 V 118.962 C 98.200 118.862 98.100 118.962 98.200 118.962 H 101.100 C 101.155 118.962 101.200 118.917 101.200 118.862 V 110.862 C 101.200 110.806 101.155 110.762 101.100 110.762 H 98.200 C 98.100 110.762 98.200 110.862 98.200 110.762 V 104.962 C 98.200 104.862 98.100 104.962 98.200 104.962 H 101.100 C 101.155 104.962 101.200 104.917 101.200 104.862 V 98.862 C 101.200 98.806 101.155 98.762 101.100 98.762 H 98.200 C 98.100 98.762 98.200 98.862 98.200 98.762 V 92.962 C 98.200 92.862 98.100 92.962 98.200 92.962 H 101.100 C 101.155 92.962 101.200 92.917 101.200 92.862 V 86.862 C 101.200 86.806 101.155 86.762 101.100 86.762 H 98.200 C 98.100 86.762 98.200 86.862 98.200 86.762 V 80.962 C 98.200 80.862 98.100 80.962 98.200 80.962 H 101.100 C 101.155 80.962 101.200 80.917 101.200 80.862 V 74.862 C 101.200 74.806 101.155 74.762 101.100 74.762 H 98.200 C 98.100 74.762 98.200 74.862 98.200 74.762 V 68.962 C 98.200 68.862 98.100 68.962 98.200 68.962 H 101.100 C 101.155 68.962 101.200 68.917 101.200 68.862 V 62.862 C 101.200 62.806 101.155 62.762 101.100 62.762 H 98.200 C 98.100 62.762 98.200 62.862 98.200 62.762 V 56.962 C 98.200 56.862 98.100 56.962 98.200 56.962 H 101.100 C 101.155 56.962 101.200 56.917 101.200 56.862 V 50.862 C 101.200 50.806 101.155 50.762 101.100 50.762 H 98.200 C 98.100 50.762 98.200 50.862 98.200 50.762 V 44.962 C 98.200 44.862 98.100 44.962 98.200 44.962 H 101.100 C 101.155 44.962 101.200 44.917 101.200 44.862 V 38.862 C 101.200 38.806 101.155 38.762 101.100 38.762 H 98.200 C 98.100 38.762 98.200 38.862 98.200 38.762 V 32.962 C 98.200 32.862 98.100 32.962 98.200 32.962 H 101.100 C 101.155 32.962 101.200 32.917 101.200 32.862 V 24.862 C 101.200 24.806 101.155 24.762 101.100 24.762 H 98.100 H 13.100 H 10.100 C 10.045 24.762 10.000 24.806 10.000 24.862 V 32.862 C 10.000 32.917 10.045 32.962 10.100 32.962 H 13.000 C 13.100 32.962 13.000 32.862 13.000 32.962 V 38.762 C 13.000 38.862 13.100 38.762 13.000 38.762 H 10.100 C 10.045 38.762 10.000 38.806 10.000 38.862 V 44.862 C 10.000 44.917 10.045 44.962 10.100 44.962 H 13.000 C 13.100 44.962 13.000 44.862 13.000 44.962 V 50.762 C 13.000 50.862 13.100 50.762 13.000 50.762 H 10.100 C 10.045 50.762 10.000 50.806 10.000 50.862 V 56.862 C 10.000 56.917 10.045 56.962 10.100 56.962 H 13.000 C 13.100 56.962 13.000 56.862 13.000 56.962 V 62.762 C 13.000 62.862 13.100 62.762 13.000 62.762 H 10.100 C 10.045 62.762 10.000 62.806 10.000 62.862 V 68.862 C 10.000 68.917 10.045 68.962 10.100 68.962 H 13.000 C 13.100 68.962 13.000 68.862 13.000 68.962 V 74.762 C 13.000 74.862 13.100 74.762 13.000 74.762 H 10.100 C 10.045 74.762 10.000 74.806 10.000 74.862 V 80.862 C 10.000 80.917 10.045 80.962 10.100 80.962 H 13.000 C 13.100 80.962 13.000 80.862 13.000 80.962 V 86.762 C 13.000 86.862 13.100 86.762 13.000 86.762 H 10.100 C 10.045 86.762 10.000 86.806 10.000 86.862 V 92.862 C 10.000 92.917 10.045 92.962 10.100 92.962 H 13.000 C 13.100 92.962 13.000 92.862 13.000 92.962 V 98.762 C 13.000 98.862 13.100 98.762 13.000 98.762 H 10.100 C 10.045 98.762 10.000 98.806 10.000 98.862 V 104.862 C 10.000 104.917 10.045 104.962 10.100 104.962 H 13.000 C 13.100 104.962 13.000 104.862 13.000 104.962 V 110.762 C 13.000 110.862 13.100 110.762 13.000 110.762 H 10.100 C 10.045 110.762 10.000 110.806 10.000 110.862 V 118.862 C 10.000 118.917 10.045 118.962 10.100 118.962 H 13.000 C 13.100 118.962 13.000 118.862 13.000 118.962 V 129.762 C 13.000 129.862 13.100 129.762 13.000 129.762 H 10.100 C 10.045 129.762 10.000 129.806 10.000 129.862 V 135.862 C 10.000 135.917 10.045 135.962 10.100 135.962 H 13.000 C 13.100 135.962 13.000 135.862 13.000 135.962 V 141.762 C 13.000 141.862 13.100 141.762 13.000 141.762 H 10.100 C 10.045 141.762 10.000 141.806 10.000 141.862 V 147.862 C 10.000 147.917 10.045 147.962 10.100 147.962 H 13.000 C 13.100 147.962 13.000 147.862 13.000 147.962 V 153.762 C 13.000 153.862 13.100 153.762 13.000 153.762 H 10.100 C 10.045 153.762 10.000 153.806 10.000 153.862 V 159.862 C 10.000 159.917 10.045 159.962 10.100 159.962 H 13.000 C 13.100 159.962 13.000 159.862 13.000 159.962 V 165.762 C 13.000 165.862 13.100 165.762 13.000 165.762 H 10.100 C 10.045 165.762 10.000 165.806 10.000 165.862 V 171.862 C 10.000 171.917 10.045 171.962 10.100 171.962 H 13.000 C 13.100 171.962 13.000 171.862 13.000 171.962 V 177.762 C 13.000 177.862 13.100 177.762 13.000 177.762 H 10.100 C 10.045 177.762 10.000 177.806 10.000 177.862 V 183.862 C 10.000 183.917 10.045 183.962 10.100 183.962 H 13.000 C 13.100 183.962 13.000 183.862 13.000 183.962 V 194.762 C 13.000 194.862 13.100 194.762 13.000 194.762 H 10.100 C 10.045 194.762 10.000 194.806 10.000 194.862 V 200.862 C 10.000 200.917 10.045 200.962 10.100 200.962 H 13.000 C 13.100 200.962 13.000 200.862 13.000 200.962 V 206.762 C 13.000 206.862 13.100 206.762 13.000 206.762 H 10.100 C 10.045 206.762 10.000 206.806 10.000 206.862 V 212.862 C 10.000 212.917 10.045 212.962 10.100 212.962 H 13.000 C 13.100 212.962 13.000 212.862 13.000 212.962 V 218.762 C 13.000 218.862 13.100 218.762 13.000 218.762 H 10.100 C 10.045 218.762 10.000 218.806 10.000 218.862 V 224.862 C 10.000 224.917 10.045 224.962 10.100 224.962 H 13.100 Z" stroke="rgb(0,0,0)" stroke-width="0.20"/>
</g>
<g id="p-2" style="fill:none;stroke-linecap:round;stroke-linejoin:round;">
  <path d="M 105.800 224.962 H 142.800 C 142.855 224.962 142.900 224.917 142.900 224.862 C 142.900 224.917 142.855 224.962 142.800 224.962 H 145.800 C 145.745 224.962 145.700 224.917 145.700 224.862 C 145.700 224.917 145.745 224.962 145.800 224.962 C 145.855 224.962 145.900 224.917 145.900 224.862 V 219.862 C 145.900 219.440 146.011 219.026 146.222 218.662 C 146.432 218.297 146.735 217.994 147.100 217.783 C 147.465 217.572 147.879 217.462 148.300 217.462 C 148.721 217.462 149.135 217.572 149.500 217.783 C 149.865 217.994 150.168 218.297 150.378 218.662 C 150.589 219.026 150.700 219.440 150.700 219.862 V 224.862 C 150.700 224.917 150.745 224.962 150.800 224.962 C 150.855 224.962 150.900 224.917 150.900 224.862 C 150.900 224.917 150.855 224.962 150.800 224.962 H 153.800 C 153.745 224.962 153.700 224.917 153.700 224.862 C 153.700 224.917 153.745 224.962 153.800 224.962 H 190.800 H 193.800 C 193.855 224.962 193.900 224.917 193.900 224.862 V 215.231 C 193.900 215.176 193.855 215.131 193.800 215.131 H 190.900 C 190.800 215.131 190.900 215.231 190.900 215.131 V 209.331 C 190.900 209.231 190.800 209.331 190.900 209.331 H 193.800 C 193.855 209.331 193.900 209.286 193.900 209.231 V 203.231 C 193.900 203.176 193.855 203.131 193.800 203.131 H 190.900 C 190.800 203.131 190.900 203.231 190.900 203.131 V 197.331 C 190.900 197.231 190.800 197.331 190.900 197.331 H 193.800 C 193.855 197.331 193.900 197.286 193.900 197.231 V 191.231 C 193.900 191.176 193.855 191.131 193.800 191.131 H 190.900 C 190.800 191.131 190.900 191.231 190.900 191.131 V 185.331 C 190.900 185.231 190.800 185.331 190.900 185.331 H 193.800 C 193.855 185.331 193.900 185.286 193.900 185.231 V 179.231 C 193.900 179.176 193.855 179.131 193.800 179.131 H 190.900 C 190.800 179.131 190.900 179.231 190.900 179.131 V 173.331 C 190.900 173.231 190.800 173.331 190.900 173.331 H 193.800 C 193.855 173.331 193.900 173.286 193.900 173.231 V 167.231 C 193.900 167.176 193.855 167.131 193.800 167.131 H 190.900 C 190.800 167.131 190.900 167.231 190.900 167.131 V 161.331 C 190.900 161.231 190.800 161.331 190.900 161.331 H 193.800 C 193.855 161.331 193.900 161.286 193.900 161.231 V 155.231 C 193.900 155.176 193.855 155.131 193.800 155.131 H 190.900 C 190.800 155.131 190.900 155.231 190.900 155.131 V 149.331 C 190.900 149.231 190.800 149.331 190.900 149.331 H 193.800 C 193.855 149.331 193.900 149.286 193.900 149.231 V 143.231 C 193.900 143.176 193.855 143.131 193.800 143.131 H 190.900 C 190.800 143.131 190.900 143.231 190.900 143.131 V 137.331 C 190.900 137.231 190.800 137.331 190.900 137.331 H 193.800 C 193.855 137.331 193.900 137.286 193.900 137.231 V 131.231 C 193.900 131.176 193.855 131.131 193.800 131.131 H 190.900 C 190.800 131.131 190.900 131.231 190.900 131.131 V 125.331 C 190.900 125.231 190.800 125.331 190.900 125.331 H 193.800 C 193.855 125.331 193.900 125.286 193.900 125.231 V 119.231 C 193.900 119.176 193.855 119.131 193.800 119.131 H 190.900 C 190.800 119.131 190.900 119.231 190.900 119.131 V 113.331 C 190.900 113.231 190.800 113.331 190.900 113.331 H 193.800 C 193.855 113.331 193.900 113.286 193.900 113.231 V 107.231 C 193.900 107.176 193.855 107.131 193.800 107.131 H 190.900 C 190.800 107.131 190.900 107.231 190.900 107.131 V 101.331 C 190.900 101.231 190.800 101.331 190.900 101.331 H 193.800 C 193.855 101.331 193.900 101.286 193.900 101.231 V 95.231 C 193.900 95.176 193.855 95.131 193.800 95.131 H 190.900 C 190.800 95.131 190.900 95.231 190.900 95.131 V 89.331 C 190.900 89.231 190.800 89.331 190.900 89.331 H 193.800 C 193.855 89.331 193.900 89.286 193.900 89.231 V 83.231 C 193.900 83.176 193.855 83.131 193.800 83.131 H 190.900 C 190.800 83.131 190.900 83.231 190.900 83.131 V 77.331 C 190.900 77.231 190.800 77.331 190.900 77.331 H 193.800 C 193.855 77.331 193.900 77.286 193.900 77.231 V 71.231 C 193.900 71.176 193.855 71.131 193.800 71.131 H 190.900 C 190.800 71.131 190.900 71.231 190.900 71.131 V 65.331 C 190.900 65.231 190.800 65.331 190.900 65.331 H 193.800 C 193.855 65.331 193.900 65.286 193.900 65.231 V 59.231 C 193.900 59.176 193.855 59.131 193.800 59.131 H 190.900 C 190.800 59.131 190.900 59.231 190.900 59.131 V 53.331 C 190.900 53.231 190.800 53.331 190.900 53.331 H 193.800 C 193.855 53.331 193.900 53.286 193.900 53.231 V 43.600 C 193.900 43.545 193.855 43.500 193.800 43.500 H 190.800 H 105.800 H 102.800 C 102.745 43.500 102.700 43.545 102.700 43.600 V 53.231 C 102.700 53.286 102.745 53.331 102.800 53.331 H 105.700 C 105.800 53.331 105.700 53.231 105.700 53.331 V 59.131 C 105.700 59.231 105.800 59.131 105.700 59.131 H 102.800 C 102.745 59.131 102.700 59.176 102.700 59.231 V 65.231 C 102.700 65.286 102.745 65.331 102.800 65.331 H 105.700 C 105.800 65.331 105.700 65.231 105.700 65.331 V 71.131 C 105.700 71.231 105.800 71.131 105.700 71.131 H 102.800 C 102.745 71.131 102.700 71.176 102.700 71.231 V 77.231 C 102.700 77.286 102.745 77.331 102.800 77.331 H 105.700 C 105.800 77.331 105.700 77.231 105.700 77.331 V 83.131 C 105.700 83.231 105.800 83.131 105.700 83.131 H 102.800 C 102.745 83.131 102.700 83.176 102.700 83.231 V 89.231 C 102.700 89.286 102.745 89.331 102.800 89.331 H 105.700 C 105.800 89.331 105.700 89.231 105.700 89.331 V 95.131 C 105.700 95.231 105.800 95.131 105.700 95.131 H 102.800 C 102.745 95.131 102.700 95.176 102.700 95.231 V 101.231 C 102.700 101.286 102.745 101.331 102.800 101.331 H 105.700 C 105.800 101.331 105.700 101.231 105.700 101.331 V 107.131 C 105.700 107.231 105.800 107.131 105.700 107.131 H 102.800 C 102.745 107.131 102.700 107.176 102.700 107.231 V 113.231 C 102.700 113.286 102.745 113.331 102.800 113.331 H 105.700 C 105.800 113.331 105.700 113.231 105.700 113.331 V 119.131 C 105.700 119.231 105.800 119.131 105.700 119.131 H 102.800 C 102.745 119.131 102.700 119.176 102.700 119.231 V 125.231 C 102.700 125.286 102.745 125.331 102.800 125.331 H 105.700 C 105.800 125.331 105.700 125.231 105.700 125.331 V 131.131 C 105.700 131.231 105.800 131.131 105.700 131.131 H 102.800 C 102.745 131.131 102.700 131.176 102.700 131.231 V 137.231 C 102.700 137.286 102.745 137.331 102.800 137.331 H 105.700 C 105.800 137.331 105.700 137.231 105.700 137.331 V 143.131 C 105.700 143.231 105.800 143.131 105.700 143.131 H 102.800 C 102.745 143.131 102.700 143.176 102.700 143.231 V 149.231 C 102.700 149.286 102.745 149.331 102.800 149.331 H 105.700 C 105.800 149.331 105.700 149.231 105.700 149.331 V 155.131 C 105.700 155.231 105.800 155.131 105.700 155.131 H 102.800 C 102.745 155.131 102.700 155.176 102.700 155.231 V 161.231 C 102.700 161.286 102.745 161.331 102.800 161.331 H 105.700 C 105.800 161.331 105.700 161.231 105.700 161.331 V 167.131 C 105.700 167.231 105.800 167.131 105.700 167.131 H 102.800 C 102.745 167.131 102.700 167.176 102.700 167.231 V 173.231 C 102.700 173.286 102.745 173.331 102.800 173.331 H 105.700 C 105.800 173.331 105.700 173.231 105.700 173.331 V 179.131 C 105.700 179.231 105.800 179.131 105.700 179.131 H 102.800 C 102.745 179.131 102.700 179.176 102.700 179.231 V 185.231 C 102.700 185.286 102.745 185.331 102.800 185.331 H 105.700 C 105.800 185.331 105.700 185.231 105.700 185.331 V 191.131 C 105.700 191.231 105.800 191.131 105.700 191.131 H 102.800 C 102.745 191.131 102.700 191.176 102.700 191.231 V 197.231 C 102.700 197.286 102.745 197.331 102.800 197.331 H 105.700 C 105.800 197.331 105.700 197.231 105.700 197.331 V 203.131 C 105.700 203.231 105.800 203.131 105.700 203.131 H 102.800 C 102.745 203.131 102.700 203.176 102.700 203.231 V 209.231 C 102.700 209.286 102.745 209.331 102.800 209.331 H 105.700 C 105.800 209.331 105.700 209.231 105.700 209.331 V 215.131 C 105.700 215.231 105.800 215.131 105.700 215.131 H 102.800 C 102.745 215.131 102.700 215.176 102.700 215.231 V 224.862 C 102.700 224.917 102.745 224.962 102.800 224.962 H 105.800 Z" stroke="rgb(0,0,0)" stroke-width="0.20"/>
</g>
<g id="p-3" style="fill:none;stroke-linecap:round;stroke-linejoin:round;">
  <path d="M 233.900 224.962 H 318.424 C 318.479 224.962 318.524 224.917 318.524 224.862 V 215.331 C 318.524 215.231 318.424 215.331 318.524 215.331 H 321.424 C 321.479 215.331 321.524 215.286 321.524 215.231 V 209.231 C 321.524 209.176 321.479 209.131 321.424 209.131 H 318.524 C 318.424 209.131 318.524 209.231 318.524 209.131 V 203.331 C 318.524 203.231 318.424 203.331 318.524 203.331 H 321.424 C 321.479 203.331 321.524 203.286 321.524 203.231 V 197.231 C 321.524 197.176 321.479 197.131 321.424 197.131 H 318.524 C 318.424 197.131 318.524 197.231 318.524 197.131 V 191.331 C 318.524 191.231 318.424 191.331 318.524 191.331 H 321.424 C 321.479 191.331 321.524 191.286 321.524 191.231 V 185.231 C 321.524 185.176 321.479 185.131 321.424 185.131 H 318.524 C 318.424 185.131 318.524 185.231 318.524 185.131 V 179.331 C 318.524 179.231 318.424 179.331 318.524 179.331 H 321.424 C 321.479 179.331 321.524 179.286 321.524 179.231 V 173.231 C 321.524 173.176 321.479 173.131 321.424 173.131 H 318.524 C 318.424 173.131 318.524 173.231 318.524 173.131 V 167.331 C 318.524 167.231 318.424 167.331 318.524 167.331 H 321.424 C 321.479 167.331 321.524 167.286 321.524 167.231 V 161.231 C 321.524 161.176 321.479 161.131 321.424 161.131 H 318.524 C 318.424 161.131 318.524 161.231 318.524 161.131 V 155.331 C 318.524 155.231 318.424 155.331 318.524 155.331 H 321.424 C 321.479 155.331 321.524 155.286 321.524 155.231 V 149.231 C 321.524 149.176 321.479 149.131 321.424 149.131 H 318.524 C 318.424 149.131 318.524 149.231 318.524 149.131 V 143.331 C 318.524 143.231 318.424 143.331 318.524 143.331 H 321.424 C 321.479 143.331 321.524 143.286 321.524 143.231 V 137.231 C 321.524 137.176 321.479 137.131 321.424 137.131 H 318.524 C 318.424 137.131 318.524 137.231 318.524 137.131 V 131.331 C 318.524 131.231 318.424 131.331 318.524 131.331 H 321.424 C 321.479 131.331 321.524 131.286 321.524 131.231 V 125.231 C 321.524 125.176 321.479 125.131 321.424 125.131 H 318.524 C 318.424 125.131 318.524 125.231 318.524 125.131 V 119.331 C 318.524 119.231 318.424 119.331 318.524 119.331 H 321.424 C 321.479 119.331 321.524 119.286 321.524 119.231 V 113.231 C 321.524 113.176 321.479 113.131 321.424 113.131 H 318.524 C 318.424 113.131 318.524 113.231 318.524 113.131 V 107.331 C 318.524 107.231 318.424 107.331 318.524 107.331 H 321.424 C 321.479 107.331 321.524 107.286 321.524 107.231 V 101.231 C 321.524 101.176 321.479 101.131 321.424 101.131 H 318.524 C 318.424 101.131 318.524 101.231 318.524 101.131 V 95.331 C 318.524 95.231 318.424 95.331 318.524 95.331 H 321.424 C 321.479 95.331 321.524 95.286 321.524 95.231 V 89.231 C 321.524 89.176 321.479 89.131 321.424 89.131 H 318.524 C 318.424 89.131 318.524 89.231 318.524 89.131 V 83.331 C 318.524 83.231 318.424 83.331 318.524 83.331 H 321.424 C 321.479 83.331 321.524 83.286 321.524 83.231 V 77.231 C 321.524 77.176 321.479 77.131 321.424 77.131 H 318.524 C 318.424 77.131 318.524 77.231 318.524 77.131 V 71.331 C 318.524 71.231 318.424 71.331 318.524 71.331 H 321.424 C 321.479 71.331 321.524 71.286 321.524 71.231 V 65.231 C 321.524 65.176 321.479 65.131 321.424 65.131 H 318.524 C 318.424 65.131 318.524 65.231 318.524 65.131 V 59.331 C 318.524 59.231 318.424 59.331 318.524 59.331 H 321.424 C 321.479 59.331 321.524 59.286 321.524 59.231 V 53.231 C 321.524 53.176 321.479 53.131 321.424 53.131 H 318.524 C 318.424 53.131 318.524 53.231 318.524 53.131 V 43.600 C 318.524 43.545 318.479 43.500 318.424 43.500 C 318.385 43.500 318.349 43.523 318.333 43.558 L 314.994 50.718 C 314.952 50.808 315.085 50.760 314.994 50.718 L 312.366 49.492 C 312.316 49.469 312.256 49.490 312.233 49.540 L 309.697 54.978 C 309.674 55.028 309.696 55.088 309.746 55.111 L 312.374 56.337 C 312.465 56.379 312.416 56.246 312.374 56.337 L 309.923 61.593 C 309.881 61.684 310.014 61.636 309.923 61.593 L 307.295 60.368 C 307.245 60.344 307.185 60.366 307.162 60.416 L 304.626 65.854 C 304.603 65.904 304.624 65.963 304.674 65.987 L 307.303 67.212 C 307.393 67.255 307.345 67.122 307.303 67.212 L 304.851 72.469 C 304.809 72.560 304.942 72.511 304.851 72.469 L 302.223 71.243 C 302.173 71.220 302.114 71.242 302.090 71.292 L 299.555 76.730 C 299.531 76.780 299.553 76.839 299.603 76.862 L 302.231 78.088 C 302.322 78.130 302.274 77.997 302.231 78.088 L 299.780 83.345 C 299.738 83.435 299.871 83.387 299.780 83.345 L 297.152 82.119 C 297.102 82.096 297.042 82.117 297.019 82.167 L 294.483 87.605 C 294.460 87.655 294.482 87.715 294.532 87.738 L 297.160 88.964 C 297.250 89.006 297.202 88.873 297.160 88.964 L 294.709 94.220 C 294.666 94.311 294.799 94.263 294.709 94.220 L 292.080 92.995 C 292.030 92.971 291.971 92.993 291.947 93.043 L 289.412 98.481 C 289.388 98.531 289.410 98.591 289.460 98.614 L 292.088 99.839 C 292.179 99.882 292.131 99.749 292.088 99.839 L 289.637 105.096 C 289.595 105.187 289.728 105.138 289.637 105.096 L 287.009 103.870 C 286.959 103.847 286.899 103.869 286.876 103.919 L 284.340 109.357 C 284.317 109.407 284.339 109.466 284.389 109.490 L 287.017 110.715 C 287.108 110.757 287.059 110.625 287.017 110.715 L 284.566 115.972 C 284.524 116.062 284.656 116.014 284.566 115.972 L 281.938 114.746 C 281.887 114.723 281.828 114.744 281.805 114.795 L 279.269 120.232 C 279.246 120.282 279.267 120.342 279.317 120.365 L 281.946 121.591 C 282.036 121.633 281.988 121.500 281.946 121.591 L 278.649 128.660 C 278.607 128.751 278.740 128.702 278.649 128.660 L 276.021 127.434 C 273.937 126.463 271.634 126.057 269.343 126.257 C 267.052 126.457 264.854 127.257 262.971 128.576 C 261.087 129.895 259.584 131.687 258.612 133.771 L 237.481 179.086 C 236.509 181.170 236.103 183.473 236.304 185.764 C 236.504 188.055 237.304 190.253 238.623 192.136 C 239.942 194.020 241.733 195.523 243.817 196.495 L 246.446 197.721 C 246.536 197.763 246.488 197.630 246.446 197.721 L 243.994 202.977 C 243.952 203.068 244.085 203.020 243.994 202.977 L 241.366 201.752 C 241.316 201.728 241.257 201.750 241.233 201.800 L 238.698 207.238 C 238.674 207.288 238.696 207.347 238.746 207.371 L 241.374 208.596 C 241.465 208.639 241.416 208.506 241.374 208.596 L 238.923 213.853 C 238.881 213.944 239.014 213.895 238.923 213.853 L 236.295 212.627 C 236.245 212.604 236.185 212.626 236.162 212.676 L 233.626 218.114 C 233.603 218.164 233.624 218.223 233.675 218.246 L 236.303 219.472 C 236.393 219.514 236.345 219.381 236.303 219.472 L 233.809 224.819 C 233.803 224.833 233.800 224.847 233.800 224.862 C 233.800 224.917 233.845 224.962 233.900 224.962 Z" stroke="rgb(0,0,0)" stroke-width="0.20"/>
  <path d="M 270.062 140.213 L 271.288 137.585 C 271.330 137.494 271.197 137.543 271.288 137.585 L 273.825 138.768 C 273.916 138.811 273.867 138.678 273.825 138.768 L 271.374 144.025 C 271.332 144.116 271.465 144.067 271.374 144.025 L 268.836 142.842 C 268.746 142.799 268.794 142.932 268.836 142.842 L 270.062 140.213 Z" stroke="rgb(0,0,255)" stroke-width="0.20"/>
  <path d="M 264.991 151.089 L 266.216 148.461 C 266.258 148.370 266.125 148.419 266.216 148.461 L 268.754 149.644 C 268.844 149.686 268.796 149.553 268.754 149.644 L 266.303 154.901 C 266.260 154.991 266.393 154.943 266.303 154.901 L 263.765 153.717 C 263.674 153.675 263.723 153.808 263.765 153.717 L 264.991 151.089 Z" stroke="rgb(0,0,255)" stroke-width="0.20"/>
  <path d="M 259.919 161.965 L 261.145 159.336 C 261.187 159.246 261.054 159.294 261.145 159.336 L 263.682 160.520 C 263.773 160.562 263.725 160.429 263.682 160.520 L 261.231 165.776 C 261.189 165.867 261.322 165.819 261.231 165.776 L 258.694 164.593 C 258.603 164.551 258.651 164.684 258.694 164.593 L 259.919 161.965 Z" stroke="rgb(0,0,255)" stroke-width="0.20"/>
  <path d="M 254.848 172.840 L 256.073 170.212 C 256.116 170.122 255.983 170.170 256.073 170.212 L 258.611 171.396 C 258.702 171.438 258.653 171.305 258.611 171.396 L 256.160 176.652 C 256.118 176.743 256.250 176.694 256.160 176.652 L 253.622 175.469 C 253.531 175.426 253.580 175.559 253.622 175.469 L 254.848 172.840 Z" stroke="rgb(0,0,255)" stroke-width="0.20"/>
  <path d="M 249.776 183.716 L 251.002 181.088 C 251.044 180.997 250.911 181.046 251.002 181.088 L 253.540 182.271 C 253.630 182.313 253.582 182.181 253.540 182.271 L 251.088 187.528 C 251.046 187.618 251.179 187.570 251.088 187.528 L 248.551 186.344 C 248.460 186.302 248.508 186.435 248.551 186.344 L 249.776 183.716 Z" stroke="rgb(0,0,255)" stroke-width="0.20"/>
  <path d="M 300.724 10.000 H 216.200 C 216.145 10.000 216.100 10.045 216.100 10.100 V 19.631 C 216.100 19.731 216.200 19.631 216.100 19.631 H 213.200 C 213.145 19.631 213.100 19.676 213.100 19.731 V 25.731 C 213.100 25.786 213.145 25.831 213.200 25.831 H 216.100 C 216.200 25.831 216.100 25.731 216.100 25.831 V 31.631 C 216.100 31.731 216.200 31.631 216.100 31.631 H 213.200 C 213.145 31.631 213.100 31.676 213.100 31.731 V 37.731 C 213.100 37.786 213.145 37.831 213.200 37.831 H 216.100 C 216.200 37.831 216.100 37.731 216.100 37.831 V 43.631 C 216.100 43.731 216.200 43.631 216.100 43.631 H 213.200 C 213.145 43.631 213.100 43.676 213.100 43.731 V 49.731 C 213.100 49.786 213.145 49.831 213.200 49.831 H 216.100 C 216.200 49.831 216.100 49.731 216.100 49.831 V 55.631 C 216.100 55.731 216.200 55.631 216.100 55.631 H 213.200 C 213.145 55.631 213.100 55.676 213.100 55.731 V 61.731 C 213.100 61.786 213.145 61.831 213.200 61.831 H 216.100 C 216.200 61.831 216.100 61.731 216.100 61.831 V 67.631 C 216.100 67.731 216.200 67.631 216.100 67.631 H 213.200 C 213.145 67.631 213.100 67.676 213.100 67.731 V 73.731 C 213.100 73.786 213.145 73.831 213.200 73.831 H 216.100 C 216.200 73.831 216.100 73.731 216.100 73.831 V 79.631 C 216.100 79.731 216.200 79.631 216.100 79.631 H 213.200 C 213.145 79.631 213.100 79.676 213.100 79.731 V 85.731 C 213.100 85.786 213.145 85.831 213.200 85.831 H 216.100 C 216.200 85.831 216.100 85.731 216.100 85.831 V 91.631 C 216.100 91.731 216.200 91.631 216.100 91.631 H 213.200 C 213.145 91.631 213.100 91.676 213.100 91.731 V 97.731 C 213.100 97.786 213.145 97.831 213.200 97.831 H 216.100 C 216.200 97.831 216.100 97.731 216.100 97.831 V 103.631 C 216.100 103.731 216.200 103.631 216.100 103.631 H 213.200 C 213.145 103.631 213.100 103.676 213.100 103.731 V 109.731 C 213.100 109.786 213.145 109.831 213.200 109.831 H 216.100 C 216.200 109.831 216.100 109.731 216.100 109.831 V 115.631 C 216.100 115.731 216.200 115.631 216.100 115.631 H 213.200 C 213.145 115.631 213.100 115.676 213.100 115.731 V 121.731 C 213.100 121.786 213.145 121.831 213.200 121.831 H 216.100 C 216.200 121.831 216.100 121.731 216.100 121.831 V 127.631 C 216.100 127.731 216.200 127.631 216.100 127.631 H 213.200 C 213.145 127.631 213.100 127.676 213.100 127.731 V 133.731 C 213.100 133.786 213.145 133.831 213.200 133.831 H 216.100 C 216.200 133.831 216.100 133.731 216.100 133.831 V 139.631 C 216.100 139.731 216.200 139.631 216.100 139.631 H 213.200 C 213.145 139.631 213.100 139.676 213.100 139.731 V 145.731 C 213.100 145.786 213.145 145.831 213.200 145.831 H 216.100 C 216.200 145.831 216.100 145.731 216.100 145.831 V 151.631 C 216.100 151.731 216.200 151.631 216.100 151.631 H 213.200 C 213.145 151.631 213.100 151.676 213.100 151.731 V 157.731 C 213.100 157.786 213.145 157.831 213.200 157.831 H 216.100 C 216.200 157.831 216.100 157.731 216.100 157.831 V 163.631 C 216.100 163.731 216.200 163.631 216.100 163.631 H 213.200 C 213.145 163.631 213.100 163.676 213.100 163.731 V 169.731 C 213.100 169.786 213.145 169.831 213.200 169.831 H 216.100 C 216.200 169.831 216.100 169.731 216.100 169.831 V 175.631 C 216.100 175.731 216.200 175.631 216.100 175.631 H 213.200 C 213.145 175.631 213.100 175.676 213.100 175.731 V 181.731 C 213.100 181.786 213.145 181.831 213.200 181.831 H 216.100 C 216.200 181.831 216.100 181.731 216.100 181.831 V 191.362 C 216.100 191.417 216.145 191.462 216.200 191.462 C 216.239 191.462 216.274 191.439 216.291 191.404 L 218.784 186.057 C 218.826 185.966 218.693 186.014 218.784 186.057 L 221.412 187.282 C 221.462 187.306 221.522 187.284 221.545 187.234 L 224.081 181.796 C 224.104 181.746 224.083 181.686 224.033 181.663 L 221.404 180.437 C 221.314 180.395 221.362 180.528 221.404 180.437 L 223.855 175.181 C 223.898 175.090 223.765 175.139 223.855 175.181 L 226.484 176.407 C 226.534 176.430 226.593 176.408 226.617 176.358 L 229.152 170.920 C 229.176 170.870 229.154 170.811 229.104 170.787 L 226.476 169.562 C 226.385 169.520 226.433 169.652 226.476 169.562 L 228.927 164.305 C 228.969 164.215 228.836 164.263 228.927 164.305 L 231.555 165.531 C 233.639 166.503 235.942 166.909 238.233 166.708 C 240.524 166.508 242.722 165.708 244.605 164.389 C 246.489 163.070 247.992 161.279 248.964 159.194 L 270.095 113.879 C 271.067 111.795 271.473 109.492 271.273 107.201 C 271.072 104.910 270.272 102.713 268.953 100.829 C 267.634 98.945 265.843 97.442 263.759 96.470 L 261.130 95.245 C 261.040 95.202 261.088 95.335 261.130 95.245 L 264.427 88.175 C 264.469 88.085 264.336 88.133 264.427 88.175 L 267.055 89.401 C 267.105 89.424 267.165 89.403 267.188 89.353 L 269.724 83.915 C 269.747 83.865 269.725 83.805 269.675 83.782 L 267.047 82.556 C 266.956 82.514 267.005 82.647 267.047 82.556 L 269.498 77.300 C 269.541 77.209 269.408 77.257 269.498 77.300 L 272.127 78.525 C 272.177 78.549 272.236 78.527 272.259 78.477 L 274.795 73.039 C 274.819 72.989 274.797 72.929 274.747 72.906 L 272.119 71.681 C 272.028 71.638 272.076 71.771 272.119 71.681 L 274.570 66.424 C 274.612 66.333 274.479 66.382 274.570 66.424 L 277.198 67.650 C 277.248 67.673 277.308 67.651 277.331 67.601 L 279.867 62.163 C 279.890 62.113 279.868 62.054 279.818 62.030 L 277.190 60.805 C 277.099 60.763 277.148 60.895 277.190 60.805 L 279.641 55.548 C 279.683 55.458 279.550 55.506 279.641 55.548 L 282.269 56.774 C 282.319 56.797 282.379 56.776 282.402 56.726 L 284.938 51.288 C 284.961 51.238 284.940 51.178 284.890 51.155 L 282.261 49.929 C 282.171 49.887 282.219 50.020 282.261 49.929 L 284.713 44.673 C 284.755 44.582 284.622 44.630 284.713 44.673 L 287.341 45.898 C 287.391 45.922 287.450 45.900 287.474 45.850 L 290.009 40.412 C 290.033 40.362 290.011 40.302 289.961 40.279 L 287.333 39.053 C 287.242 39.011 287.290 39.144 287.333 39.053 L 289.784 33.797 C 289.826 33.706 289.693 33.755 289.784 33.797 L 292.412 35.022 C 292.462 35.046 292.522 35.024 292.545 34.974 L 295.081 29.536 C 295.104 29.486 295.083 29.427 295.032 29.403 L 292.404 28.178 C 292.314 28.136 292.362 28.268 292.404 28.178 L 294.855 22.921 C 294.898 22.831 294.765 22.879 294.855 22.921 L 297.484 24.147 C 297.534 24.170 297.593 24.148 297.617 24.098 L 300.152 18.661 C 300.176 18.611 300.154 18.551 300.104 18.528 L 297.476 17.302 C 297.385 17.260 297.433 17.393 297.476 17.302 L 300.814 10.142 C 300.820 10.129 300.824 10.115 300.824 10.100 C 300.824 10.045 300.779 10.000 300.724 10.000 Z" stroke="rgb(0,0,0)" stroke-width="0.20"/>
  <path d="M 237.514 152.752 L 236.289 155.380 C 236.246 155.471 236.379 155.422 236.289 155.380 L 233.751 154.197 C 233.660 154.155 233.709 154.287 233.751 154.197 L 236.202 148.940 C 236.244 148.850 236.111 148.898 236.202 148.940 L 238.740 150.124 C 238.830 150.166 238.782 150.033 238.740 150.124 L 237.514 152.752 Z" stroke="rgb(0,0,255)" stroke-width="0.20"/>
  <path d="M 242.586 141.876 L 241.360 144.504 C 241.318 144.595 241.451 144.547 241.360 144.504 L 238.822 143.321 C 238.732 143.279 238.780 143.412 238.822 143.321 L 241.273 138.065 C 241.316 137.974 241.183 138.022 241.273 138.065 L 243.811 139.248 C 243.902 139.290 243.853 139.157 243.811 139.248 L 242.586 141.876 Z" stroke="rgb(0,0,255)" stroke-width="0.20"/>
  <path d="M 247.657 131.000 L 246.431 133.629 C 246.389 133.719 246.522 133.671 246.431 133.629 L 243.894 132.445 C 243.803 132.403 243.851 132.536 243.894 132.445 L 246.345 127.189 C 246.387 127.098 246.254 127.147 246.345 127.189 L 248.883 128.372 C 248.973 128.414 248.925 128.282 248.883 128.372 L 247.657 131.000 Z" stroke="rgb(0,0,255)" stroke-width="0.20"/>
  <path d="M 252.728 120.125 L 251.503 122.753 C 251.461 122.844 251.593 122.795 251.503 122.753 L 248.965 121.570 C 248.874 121.527 248.923 121.660 248.965 121.570 L 251.416 116.313 C 251.459 116.223 251.326 116.271 251.416 116.313 L 253.954 117.496 C 254.045 117.539 253.996 117.406 253.954 117.496 L 252.728 120.125 Z" stroke="rgb(0,0,255)" stroke-width="0.20"/>
  <path d="M 257.800 109.249 L 256.574 111.877 C 256.532 111.968 256.665 111.920 256.574 111.877 L 254.037 110.694 C 253.946 110.652 253.994 110.785 254.037 110.694 L 256.488 105.437 C 256.530 105.347 256.397 105.395 256.488 105.437 L 259.025 106.621 C 259.116 106.663 259.068 106.530 259.025 106.621 L 257.800 109.249 Z" stroke="rgb(0,0,255)" stroke-width="0.20"/>
</g>
<g id="p-4" style="fill:none;stroke-linecap:round;stroke-linejoin:round;">
  <path d="M 387.860 224.962 H 343.062 C 343.048 224.962 343.033 224.958 343.020 224.952 C 339.504 223.313 336.482 220.777 334.257 217.599 C 332.032 214.421 330.682 210.714 330.344 206.849 C 330.006 202.984 330.691 199.099 332.331 195.583 L 337.825 183.801 C 338.055 183.308 338.410 182.884 338.856 182.572 C 339.302 182.260 339.822 182.070 340.364 182.023 C 340.906 181.975 341.451 182.072 341.944 182.301 C 342.438 182.531 342.861 182.887 343.174 183.333 C 343.486 183.779 343.675 184.299 343.722 184.841 C 343.770 185.383 343.674 185.928 343.444 186.421 L 341.542 190.500 C 341.512 190.563 341.500 190.634 341.506 190.703 C 341.512 190.773 341.537 190.841 341.577 190.898 C 341.617 190.956 341.672 191.001 341.735 191.031 L 355.693 197.539 C 355.783 197.582 355.650 197.630 355.693 197.539 L 360.257 187.751 C 360.299 187.661 360.348 187.794 360.257 187.751 L 357.629 186.526 C 357.579 186.502 357.557 186.443 357.580 186.393 L 360.116 180.955 C 360.139 180.905 360.199 180.883 360.249 180.907 L 362.877 182.132 C 362.968 182.174 362.835 182.223 362.877 182.132 L 365.328 176.876 C 365.371 176.785 365.419 176.918 365.328 176.876 L 362.700 175.650 C 362.650 175.627 362.628 175.567 362.652 175.517 L 365.187 170.079 C 365.211 170.029 365.270 170.008 365.320 170.031 L 367.949 171.257 C 368.039 171.299 367.906 171.347 367.949 171.257 L 370.400 166.000 C 370.442 165.909 370.490 166.042 370.400 166.000 L 367.771 164.774 C 367.721 164.751 367.700 164.691 367.723 164.641 L 370.259 159.204 C 370.282 159.154 370.342 159.132 370.392 159.155 L 373.020 160.381 C 373.111 160.423 372.978 160.471 373.020 160.381 L 375.471 155.124 C 375.513 155.034 375.562 155.166 375.471 155.124 L 372.843 153.899 C 372.793 153.875 372.771 153.816 372.794 153.766 L 375.330 148.328 C 375.354 148.278 375.413 148.256 375.463 148.280 L 378.091 149.505 C 378.182 149.547 378.049 149.596 378.091 149.505 L 380.543 144.249 C 380.585 144.158 380.633 144.291 380.543 144.249 L 377.914 143.023 C 377.864 143.000 377.843 142.940 377.866 142.890 L 380.402 137.452 C 380.425 137.402 380.484 137.380 380.534 137.404 L 383.163 138.629 C 383.253 138.672 383.121 138.720 383.163 138.629 L 387.769 128.751 C 387.777 128.734 387.789 128.720 387.804 128.710 C 387.819 128.700 387.837 128.694 387.855 128.693 C 387.873 128.692 387.891 128.696 387.907 128.705 C 387.923 128.713 387.936 128.726 387.946 128.741 C 387.955 128.757 387.960 128.775 387.960 128.793 V 224.862 C 387.960 224.917 387.915 224.962 387.860 224.962 Z" stroke="rgb(0,0,0)" stroke-width="0.20"/>
</g>
<g id="p-5" style="fill:none;stroke-linecap:round;stroke-linejoin:round;">
  <path d="M 389.560 224.962 H 434.357 C 434.372 224.962 434.387 224.958 434.400 224.952 C 437.916 223.313 440.938 220.777 443.163 217.599 C 445.388 214.421 446.738 210.714 447.076 206.849 C 447.414 202.984 446.729 199.099 445.089 195.583 L 439.595 183.801 C 439.365 183.308 439.010 182.884 438.564 182.572 C 438.118 182.260 437.598 182.070 437.056 182.023 C 436.514 181.975 435.969 182.072 435.476 182.301 C 434.982 182.531 434.558 182.887 434.246 183.333 C 433.934 183.779 433.745 184.299 433.698 184.841 C 433.650 185.383 433.746 185.928 433.976 186.421 L 435.878 190.500 C 435.908 190.563 435.920 190.634 435.914 190.703 C 435.908 190.773 435.883 190.841 435.843 190.898 C 435.803 190.956 435.748 191.001 435.684 191.031 L 421.727 197.539 C 421.637 197.582 421.770 197.630 421.727 197.539 L 417.163 187.751 C 417.121 187.661 417.072 187.794 417.163 187.751 L 419.791 186.526 C 419.841 186.502 419.863 186.443 419.840 186.393 L 417.304 180.955 C 417.281 180.905 417.221 180.883 417.171 180.907 L 414.543 182.132 C 414.452 182.174 414.585 182.223 414.543 182.132 L 412.092 176.876 C 412.049 176.785 412.001 176.918 412.092 176.876 L 414.720 175.650 C 414.770 175.627 414.792 175.567 414.768 175.517 L 412.233 170.079 C 412.209 170.029 412.150 170.008 412.100 170.031 L 409.471 171.257 C 409.381 171.299 409.514 171.347 409.471 171.257 L 407.020 166.000 C 406.978 165.909 406.930 166.042 407.020 166.000 L 409.648 164.774 C 409.699 164.751 409.720 164.691 409.697 164.641 L 407.161 159.204 C 407.138 159.154 407.078 159.132 407.028 159.155 L 404.400 160.381 C 404.309 160.423 404.442 160.471 404.400 160.381 L 401.949 155.124 C 401.907 155.034 401.858 155.166 401.949 155.124 L 404.577 153.899 C 404.627 153.875 404.649 153.816 404.625 153.766 L 402.090 148.328 C 402.066 148.278 402.007 148.256 401.957 148.280 L 399.329 149.505 C 399.238 149.547 399.371 149.596 399.329 149.505 L 396.877 144.249 C 396.835 144.158 396.787 144.291 396.877 144.249 L 399.506 143.023 C 399.556 143.000 399.577 142.940 399.554 142.890 L 397.018 137.452 C 396.995 137.402 396.935 137.380 396.885 137.404 L 394.257 138.629 C 394.166 138.672 394.299 138.720 394.257 138.629 L 389.651 128.751 C 389.643 128.734 389.631 128.720 389.616 128.710 C 389.601 128.700 389.583 128.694 389.565 128.693 C 389.547 128.692 389.529 128.696 389.513 128.705 C 389.497 128.713 389.484 128.726 389.474 128.741 C 389.465 128.757 389.460 128.775 389.460 128.793 V 224.862 C 389.460 224.917 389.505 224.962 389.560 224.962 Z" stroke="rgb(0,0,0)" stroke-width="0.20"/>
</g>
</svg>