<?xml version="1.0" encoding="UTF-8"?>
<!DOCTYPE svg PUBLIC "-//W3C//DTD SVG 1.1//EN" "http://www.w3.org/Graphics/SVG/1.1/DTD/svg11.dtd">
<!-- Creator: CorelDRAW SE (OEM-Version) -->
<svg xmlns="http://www.w3.org/2000/svg" xml:space="preserve" width="609mm" height="304mm" version="1.1" style="shape-rendering:geometricPrecision; text-rendering:geometricPrecision; image-rendering:optimizeQuality; fill-rule:evenodd; clip-rule:evenodd"
viewBox="0 0 60900 30400"
 xmlns:xlink="http://www.w3.org/1999/xlink">
 <defs>
  <style type="text/css">
   <![CDATA[
    .str4 {stroke:black;stroke-width:7.62;stroke-linecap:round;stroke-linejoin:round;stroke-miterlimit:10}
    .str2 {stroke:black;stroke-width:7.62;stroke-linecap:round;stroke-linejoin:round;stroke-miterlimit:10}
    .str3 {stroke:black;stroke-width:7.62;stroke-linecap:round;stroke-linejoin:round;stroke-miterlimit:10}
    .str1 {stroke:black;stroke-width:7.62;stroke-linecap:round;stroke-linejoin:round;stroke-miterlimit:10}
    .str0 {stroke:black;stroke-width:7.62;stroke-linecap:round;stroke-linejoin:round;stroke-miterlimit:10}
    .fil0 {fill:none;fill-rule:nonzero}
   ]]>
  </style>
 </defs>
 <g id="Ebene_x0020_1">
  <metadata id="CorelCorpID_0Corel-Layer"/>
  <path class="fil0 str0" d="M24260.91 12412.52l579.99 0c9.97,0 0,-9.97 0,0l0 280.03c0,10.01 9.97,0 0,0l-579.99 0c-10.01,0 0,10.01 0,0l0 -280.03c0,-9.97 -10.01,0 0,0z"/>
  <path class="fil0 str0" d="M23060.92 12412.52l579.99 0c9.97,0 0,-9.97 0,0l0 280.03c0,10.01 9.97,0 0,0l-579.99 0c-10.06,0 0,10.01 0,0l0 -280.03c0,-9.97 -10.06,0 0,0z"/>
  <path class="fil0 str0" d="M21860.89 12412.52l579.98 0c10.02,0 0,-9.97 0,0l0 280.03c0,10.01 10.02,0 0,0l-579.98 0c-9.97,0 0,10.01 0,0l0 -280.03c0,-9.97 -9.97,0 0,0z"/>
  <path class="fil0 str0" d="M20660.9 12412.52l579.99 0c10.01,0 0,-9.97 0,0l0 280.03c0,10.01 10.01,0 0,0l-579.99 0c-9.97,0 0,10.01 0,0l0 -280.03c0,-9.97 -9.97,0 0,0z"/>
  <path class="fil0 str0" d="M19460.91 12412.52l580.03 0c9.97,0 0,-9.97 0,0l0 280.03c0,10.01 9.97,0 0,0l-580.03 0c-10.01,0 0,10.01 0,0l0 -280.03c0,-9.97 -10.01,0 0,0z"/>
  <path class="fil0 str0" d="M18260.92 12412.52l579.99 0c9.97,0 0,-9.97 0,0l0 280.03c0,10.01 9.97,0 0,0l-579.99 0c-10.01,0 0,10.01 0,0l0 -280.03c0,-9.97 -10.01,0 0,0z"/>
  <path class="fil0 str0" d="M17060.93 12412.52l579.99 0c9.97,0 0,-9.97 0,0l0 280.03c0,10.01 9.97,0 0,0l-579.99 0c-10.01,0 0,10.01 0,0l0 -280.03c0,-9.97 -10.01,0 0,0z"/>
  <path class="fil0 str0" d="M24260.91 6107.02l579.99 0c9.97,0 0,-10.02 0,0l0 279.97c0,10.02 9.97,0 0,0l-579.99 0c-10.01,0 0,10.02 0,0l0 -279.97c0,-10.02 -10.01,0 0,0z"/>
  <path class="fil0 str0" d="M23060.92 6107.02l579.99 0c9.97,0 0,-10.02 0,0l0 279.97c0,10.02 9.97,0 0,0l-579.99 0c-10.06,0 0,10.02 0,0l0 -279.97c0,-10.02 -10.06,0 0,0z"/>
  <path class="fil0 str0" d="M21860.89 6107.02l579.98 0c10.02,0 0,-10.02 0,0l0 279.97c0,10.02 10.02,0 0,0l-579.98 0c-9.97,0 0,10.02 0,0l0 -279.97c0,-10.02 -9.97,0 0,0z"/>
  <path class="fil0 str0" d="M20660.9 6107.02l579.99 0c10.01,0 0,-10.02 0,0l0 279.97c0,10.02 10.01,0 0,0l-579.99 0c-9.97,0 0,10.02 0,0l0 -279.97c0,-10.02 -9.97,0 0,0z"/>
  <path class="fil0 str0" d="M19460.91 6107.02l580.03 0c9.97,0 0,-10.02 0,0l0 279.97c0,10.02 9.97,0 0,0l-580.03 0c-10.01,0 0,10.02 0,0l0 -279.97c0,-10.02 -10.01,0 0,0z"/>
  <path class="fil0 str0" d="M18260.92 6107.02l579.99 0c9.97,0 0,-10.02 0,0l0 279.97c0,10.02 9.97,0 0,0l-579.99 0c-10.01,0 0,10.02 0,0l0 -279.97c0,-10.02 -10.01,0 0,0z"/>
  <path class="fil0 str0" d="M17060.93 6107.02l579.99 0c9.97,0 0,-10.02 0,0l0 279.97c0,10.02 9.97,0 0,0l-579.99 0c-10.01,0 0,10.02 0,0l0 -279.97c0,-10.02 -10.01,0 0,0z"/>
  <path class="fil0 str1" d="M29960.87 18546.97l0 -5850.01c0,-5.51 -4.48,-9.97 -9.98,-9.97l-3989.99 0c-10.02,0 0,9.97 0,0l0 -279.97c0,-10.07 -10.02,0 0,0l3989.99 0c5.5,0 9.98,-4.56 9.98,-10.07l0 1625.56c0,-5.46 -4.48,-9.97 -9.98,-9.97l-499.99 0c-42.13,0 -83.5,-11.11 -120.03,-32.19 -36.51,-20.98 -66.78,-51.31 -87.8,-87.82 -21.1,-36.45 -32.17,-77.89 -32.17,-120 0,-42.1 11.07,-83.5 32.17,-120 21.02,-36.46 51.29,-66.74 87.8,-87.77 36.53,-21.13 77.9,-32.19 120.03,-32.19l499.99 0c5.5,0 9.98,-4.51 9.98,-10.01l0 -7125.55c0,-5.51 -4.48,-10.02 -9.98,-10.02l-3989.99 0c-10.02,0 0,10.02 0,0l0 -279.97c0,-10.02 -10.02,0 0,0l3989.99 0c5.5,0 9.98,-4.51 9.98,-10.02l0 -5149.95c0,-5.5 -4.48,-10.01 -9.98,-10.01l-1100 0c-5.51,0 -10.02,4.51 -10.02,10.01l0 289.99c0,9.97 10.02,0 0,0l-580 0c-9.97,0 0,9.97 0,0l0 -289.99c0,-5.5 -4.49,-10.01 -9.97,-10.01l-600.01 0c-5.51,0 -9.98,4.51 -9.98,10.01l0 289.99c0,9.97 9.98,0 0,0l-579.99 0c-10.07,0 0,9.97 0,0l0 -289.99c0,-5.5 -4.56,-10.01 -10.07,-10.01l-1099.97 0c-5.5,0 -9.96,4.51 -9.96,10.01l0 289.99c0,9.97 9.96,0 0,0l-1080.04 0c-10.01,0 0,9.97 0,0l0 -289.99c0,-5.5 -4.46,-10.01 -10.01,-10.01l-599.97 0c-5.51,0 -10.02,4.51 -10.02,10.01l0 289.99c0,9.97 10.02,0 0,0l-579.98 0c-10.02,0 0,9.97 0,0l0 -289.99c0,-5.5 -4.51,-10.01 -10.02,-10.01l-600.02 0c-5.46,0 -9.97,4.51 -9.97,10.01l0 289.99c0,9.97 9.97,0 0,0l-579.98 0c-10.02,0 0,9.97 0,0l0 -289.99c0,-5.5 -4.51,-10.01 -10.02,-10.01l-599.97 0c-5.51,0 -10.02,4.51 -10.02,10.01l0 289.99c0,9.97 10.02,0 0,0l-579.98 0c-10.02,0 0,9.97 0,0l0 -289.99c0,-5.5 -4.51,-10.01 -10.02,-10.01l-599.97 0c-5.51,0 -10.01,4.51 -10.01,10.01l0 289.99c0,9.97 10.01,0 0,0l-580.04 0c-9.97,0 0,9.97 0,0l0 -289.99c0,-5.5 -4.46,-10.01 -9.97,-10.01l-600.01 0c-5.51,0 -9.97,4.51 -9.97,10.01l0 289.99c0,9.97 9.97,0 0,0l-580.04 0c-10.01,0 0,9.97 0,0l0 -289.99c0,-5.5 -4.51,-10.01 -10.01,-10.01l-599.97 0c-5.51,0 -10.02,4.51 -10.02,10.01l0 289.99c0,9.97 10.02,0 0,0l-579.98 0c-10.02,0 0,9.97 0,0l0 -289.99c0,-5.5 -4.51,-10.01 -10.02,-10.01l-599.97 0c-5.51,0 -10.02,4.51 -10.02,10.01l0 289.99c0,9.97 10.02,0 0,0l-1079.98 0c-10.02,0 0,9.97 0,0l0 -289.99c0,-5.5 -4.51,-10.01 -10.02,-10.01l-599.97 0c-5.51,0 -10.02,4.51 -10.02,10.01l0 289.99c0,9.97 10.02,0 0,0l-579.98 0c-10.02,0 0,9.97 0,0l0 -289.99c0,-5.5 -4.51,-10.01 -10.02,-10.01l-599.97 0c-5.5,0 -10.01,4.51 -10.01,10.01l0 289.99c0,9.97 10.01,0 0,0l-580.04 0c-9.97,0 0,9.97 0,0l0 -289.99c0,-5.5 -4.46,-10.01 -9.97,-10.01l-600.01 0c-5.51,0 -9.97,4.51 -9.97,10.01l0 289.99c0,9.97 9.97,0 0,0l-580.04 0c-10.01,0 0,9.97 0,0l0 -289.99c0,-5.5 -4.46,-10.01 -10.01,-10.01l-599.97 0c-5.51,0 -10.02,4.51 -10.02,10.01l0 289.99c0,9.97 10.02,0 0,0l-579.98 0c-9.97,0 0,9.97 0,0l0 -289.99c0,-5.5 -4.51,-10.01 -9.97,-10.01l-600.02 0c-5.51,0 -10.02,4.51 -10.02,10.01l0 289.99c0,9.97 10.02,0 0,0l-579.98 0c-9.97,0 0,9.97 0,0l0 -289.99c0,-5.5 -4.51,-10.01 -9.97,-10.01l-600.02 0c-5.51,0 -10.02,4.51 -10.02,10.01l0 289.99c0,9.97 10.02,0 0,0l-579.98 0c-10.02,0 0,9.97 0,0l0 -289.99c0,-5.5 -4.51,-10.01 -10.02,-10.01l-599.97 0c-5.5,0 -10.01,4.51 -10.01,10.01l0 289.99c0,9.97 10.01,0 0,0l-579.99 0c-10.02,0 0,9.97 0,0l0 -289.99c0,-5.5 -4.51,-10.01 -10.02,-10.01l-600.01 0c-5.51,0 -9.97,4.51 -9.97,10.01l0 289.99c0,9.97 9.97,0 0,0l-580.04 0c-9.96,0 0,9.97 0,0l0 -289.99c0,-5.5 -4.51,-10.01 -9.96,-10.01l-600.02 0c-5.46,0 -10.02,4.51 -10.02,10.01l0 289.99c0,9.97 10.02,0 0,0l-579.98 0c-9.97,0 0,9.97 0,0l0 -289.99c0,-5.5 -4.47,-10.01 -9.97,-10.01l-600.02 0c-5.51,0 -10.02,4.51 -10.02,10.01l0 289.99c0,9.97 10.02,0 0,0l-579.98 0c-9.97,0 0,9.97 0,0l0 -289.99c0,-5.5 -4.51,-10.01 -9.97,-10.01l-600.02 0c-5.51,0 -9.97,4.51 -9.97,10.01l0 289.99c0,9.97 9.97,0 0,0l-580.03 0c-10.02,0 0,9.97 0,0l0 -289.99c0,-5.5 -4.51,-10.01 -10.02,-10.01l-600.02 0c-5.5,0 -9.96,4.51 -9.96,10.01l0 289.99c0,9.97 9.96,0 0,0l-579.99 0c-10.02,0 0,9.97 0,0l0 -289.99c0,-5.5 -4.51,-10.01 -10.02,-10.01l-599.97 0c-5.5,0 -10.01,4.51 -10.01,10.01l0 17899.92c0,5.5 4.51,10.02 10.01,10.02l599.97 0c5.51,0 10.02,-4.52 10.02,-10.02l0 -289.98c0,-10.02 -10.02,0 0,0l579.99 0c9.96,0 0,-10.02 0,0l0 289.98c0,5.5 4.46,10.02 9.96,10.02l600.02 0c5.51,0 10.02,-4.52 10.02,-10.02l0 -289.98c0,-10.02 -10.02,0 0,0l580.03 0c9.97,0 0,-10.02 0,0l0 289.98c0,5.5 4.46,10.02 9.97,10.02l600.02 0c5.46,0 9.97,-4.52 9.97,-10.02l0 -289.98c0,-10.02 -9.97,0 0,0l579.98 0c10.02,0 0,-10.02 0,0l0 289.98c0,5.5 4.51,10.02 10.02,10.02l600.02 0c5.5,0 9.97,-4.52 9.97,-10.02l0 -289.98c0,-10.02 -9.97,0 0,0l579.98 0c10.02,0 0,-10.02 0,0l0 289.98c0,5.5 4.56,10.02 10.02,10.02l600.02 0c5.45,0 9.96,-4.52 9.96,-10.02l0 -289.98c0,-10.02 -9.96,0 0,0l580.04 0c9.97,0 0,-10.02 0,0l0 289.98c0,5.5 4.46,10.02 9.97,10.02l600.01 0c5.51,0 10.02,-4.52 10.02,-10.02l0 -289.98c0,-10.02 -10.02,0 0,0l579.99 0c10.01,0 0,-10.02 0,0l0 289.98c0,5.5 4.51,10.02 10.01,10.02l599.97 0c5.51,0 10.02,-4.52 10.02,-10.02l0 -289.98c0,-10.02 -10.02,0 0,0l579.98 0c10.02,0 0,-10.02 0,0l0 289.98c0,5.5 4.51,10.02 10.02,10.02l600.02 0c5.46,0 9.97,-4.52 9.97,-10.02l0 -289.98c0,-10.02 -9.97,0 0,0l579.98 0c10.02,0 0,-10.02 0,0l0 289.98c0,5.5 4.51,10.02 10.02,10.02l600.02 0c5.46,0 9.97,-4.52 9.97,-10.02l0 -289.98c0,-10.02 -9.97,0 0,0l579.98 0c10.02,0 0,-10.02 0,0l0 289.98c0,5.5 4.51,10.02 10.02,10.02l599.97 0c5.55,0 10.01,-4.52 10.01,-10.02l0 -289.98c0,-10.02 -10.01,0 0,0l580.04 0c9.97,0 0,-10.02 0,0l0 289.98c0,5.5 4.46,10.02 9.97,10.02l600.01 0c5.51,0 9.97,-4.52 9.97,-10.02l0 -289.98c0,-10.02 -9.97,0 0,0l580.04 0c10.01,0 0,-10.02 0,0l0 289.98c0,5.5 4.51,10.02 10.01,10.02l599.97 0c5.51,0 10.02,-4.52 10.02,-10.02l0 -289.98c0,-10.02 -10.02,0 0,0l579.98 0c10.02,0 0,-10.02 0,0l0 289.98c0,5.5 4.51,10.02 10.02,10.02l599.97 0c5.51,0 10.02,-4.52 10.02,-10.02l0 -289.98c0,-10.02 -10.02,0 0,0l1079.98 0c10.02,0 0,-10.02 0,0l0 289.98c0,5.5 4.51,10.02 10.02,10.02l599.97 0c5.51,0 10.02,-4.52 10.02,-10.02l0 -289.98c0,-10.02 -10.02,0 0,0l579.98 0c10.02,0 0,-10.02 0,0l0 289.98c0,5.5 4.51,10.02 10.02,10.02l599.97 0c5.5,0 10.01,-4.52 10.01,-10.02l0 -289.98c0,-10.02 -10.01,0 0,0l580.04 0c9.97,0 0,-10.02 0,0l0 289.98c0,5.5 4.46,10.02 9.97,10.02l600.01 0c5.51,0 9.97,-4.52 9.97,-10.02l0 -289.98c0,-10.02 -9.97,0 0,0l580.04 0c10.01,0 0,-10.02 0,0l0 289.98c0,5.5 4.5,10.02 10.01,10.02l599.97 0c5.51,0 10.02,-4.52 10.02,-10.02l0 -289.98c0,-10.02 -10.02,0 0,0l579.98 0c10.02,0 0,-10.02 0,0l0 289.98c0,5.5 4.51,10.02 10.02,10.02l599.97 0c5.51,0 10.02,-4.52 10.02,-10.02l0 -289.98c0,-10.02 -10.02,0 0,0l579.98 0c9.97,0 0,-10.02 0,0l0 289.98c0,5.5 4.51,10.02 9.97,10.02l600.02 0c5.51,0 10.02,-4.52 10.02,-10.02l0 -289.98c0,-10.02 -10.02,0 0,0l579.98 0c10.02,0 0,-10.02 0,0l0 289.98c0,5.5 4.51,10.02 10.02,10.02l599.97 0c5.55,0 10.01,-4.52 10.01,-10.02l0 -289.98c0,-10.02 -10.01,0 0,0l1080.04 0c9.96,0 0,-10.02 0,0l0 289.98c0,5.5 4.46,10.02 9.96,10.02l1099.97 0c5.51,0 10.07,-4.52 10.07,-10.02l0 -289.98c0,-10.02 -10.07,0 0,0l579.99 0c9.98,0 0,-10.02 0,0l0 289.98c0,5.5 4.47,10.02 9.98,10.02l600.01 0c5.48,0 9.97,-4.52 9.97,-10.02l0 -289.98c0,-10.02 -9.97,0 0,0l580 0c10.02,0 0,-10.02 0,0l0 289.98c0,5.5 4.51,10.02 10.02,10.02l1100 0c5.5,0 9.98,-4.52 9.98,-10.02l0 -300z"/>
  <path class="fil0 str2" d="M56502.62 13670.43l0 -12255.65c0,-5.69 -4.48,-10.44 -9.98,-10.44l-831.39 0c-10.03,0 0,10.44 0,0l0 -289.57c0,-5.69 -4.53,-9.97 -10.03,-9.97l-599.99 0c-5.59,0 -10,4.28 -10,9.97l0 289.57c0,10.44 10,0 0,0l-579.98 0c-10.04,0 0,10.44 0,0l0 -289.57c0,-5.69 -4.53,-9.97 -10.04,-9.97l-599.94 0c-5.65,0 -10.02,4.28 -10.02,9.97l0 289.57c0,10.44 10.02,0 0,0l-580.03 0c-9.97,0 0,10.44 0,0l0 -289.57c0,-5.69 -4.46,-9.97 -9.97,-9.97l-600.02 0c-5.6,0 -10.01,4.28 -10.01,9.97l0 289.57c0,10.44 10.01,0 0,0l-579.99 0c-9.97,0 0,10.44 0,0l0 -289.57c0,-5.69 -4.46,-9.97 -9.97,-9.97l-600.02 0c-5.6,0 -9.97,4.28 -9.97,9.97l0 289.57c0,10.44 9.97,0 0,0l-580.03 0c-10.02,0 0,10.44 0,0l0 -289.57c0,-5.69 -4.51,-9.97 -10.02,-9.97l-599.97 0c-5.6,0 -10.01,4.28 -10.01,9.97l0 289.57c0,10.44 10.01,0 0,0l-579.99 0c-10.01,0 0,10.44 0,0l0 -289.57c0,-5.69 -4.51,-9.97 -10.01,-9.97l-599.97 0c-5.61,0 -10.02,4.28 -10.02,9.97l0 289.57c0,10.44 10.02,0 0,0l-579.99 0c-10.01,0 0,10.44 0,0l0 -289.57c0,-5.69 -4.51,-9.97 -10.01,-9.97l-599.97 0c-5.65,0 -10.07,4.28 -10.07,9.97l0 289.57c0,10.44 10.07,0 0,0l-579.98 0c-9.97,0 0,10.44 0,0l0 -289.57c0,-5.69 -4.46,-9.97 -9.97,-9.97l-600.02 0c-5.6,0 -9.97,4.28 -9.97,9.97l0 289.57c0,10.44 9.97,0 0,0l-579.98 0c-10.02,0 0,10.44 0,0l0 -289.57c0,-5.69 -4.51,-9.97 -10.02,-9.97l-600.02 0c-5.55,0 -9.97,4.28 -9.97,9.97l0 289.57c0,10.44 9.97,0 0,0l-580.03 0c-10.02,0 0,10.44 0,0l0 -289.57c0,-5.69 -4.51,-9.97 -10.02,-9.97l-599.97 0c-5.6,0 -10.01,4.28 -10.01,9.97l0 289.57c0,10.44 10.01,0 0,0l-579.99 0c-10.01,0 0,10.44 0,0l0 -289.57c0,-5.69 -4.51,-9.97 -10.01,-9.97l-599.97 0c-5.61,0 -10.02,4.28 -10.02,9.97l0 289.57c0,10.44 10.02,0 0,0l-579.99 0c-10.01,0 0,10.44 0,0l0 -289.57c0,-5.69 -4.51,-9.97 -10.01,-9.97l-599.97 0c-5.65,0 -10.02,4.28 -10.02,9.97l0 289.57c0,10.44 10.02,0 0,0l-579.98 0c-10.02,0 0,10.44 0,0l0 -289.57c0,-5.69 -4.51,-9.97 -10.02,-9.97l-600.02 0c-5.55,0 -9.97,4.28 -9.97,9.97l0 289.57c0,10.44 9.97,0 0,0l-580.03 0c-9.97,0 0,10.44 0,0l0 -289.57c0,-5.69 -4.46,-9.97 -9.97,-9.97l-600.02 0c-5.6,0 -9.97,4.28 -9.97,9.97l0 289.57c0,10.44 9.97,0 0,0l-580.03 0c-9.97,0 0,10.44 0,0l0 -289.57c0,-5.69 -4.46,-9.97 -9.97,-9.97l-600.02 0c-5.6,0 -10.01,4.28 -10.01,9.97l0 289.57c0,10.44 10.01,0 0,0l-579.99 0c-10.01,0 0,10.44 0,0l0 -289.57c0,-5.69 -4.51,-9.97 -10.01,-9.97l-599.97 0c-5.61,0 -10.02,4.28 -10.02,9.97l0 289.57c0,10.44 10.02,0 0,0l-579.99 0c-10.01,0 0,10.44 0,0l0 -289.57c0,-5.69 -4.51,-9.97 -10.01,-9.97l-599.97 0c-5.6,0 -10.02,4.28 -10.02,9.97l0 289.57c0,10.44 10.02,0 0,0l-579.98 0c-10.02,0 0,10.44 0,0l0 -289.57c0,-5.69 -4.51,-9.97 -10.02,-9.97l-599.97 0c-5.6,0 -10.02,4.28 -10.02,9.97l0 289.57c0,10.44 10.02,0 0,0l-580.03 0c-9.97,0 0,10.44 0,0l0 -289.57c0,-5.69 -4.46,-9.97 -9.97,-9.97l-600.02 0c-5.6,0 -10.01,4.28 -10.01,9.97l0 289.57c0,10.44 10.01,0 0,0l-579.99 0c-9.97,0 0,10.44 0,0l0 -289.57c0,-5.69 -4.46,-9.97 -9.97,-9.97l-600.02 0c-5.6,0 -9.96,4.28 -9.96,9.97l0 289.57c0,10.44 9.96,0 0,0l-579.99 0c-10.06,0 0,10.44 0,0l0 -289.57c0,-5.69 -4.56,-9.97 -10.06,-9.97l-599.97 0c-5.61,0 -10.02,4.28 -10.02,9.97l0 289.57c0,10.44 10.02,0 0,0l-831.48 0c-5.51,0 -10.02,4.75 -10.02,10.44 0,3.8 2.33,7.12 5.84,9.02l534.7 249.22c9.07,4.27 4.18,-9.02 0,0l-122.66 262.98c-2.28,4.75 -0.1,10.92 4.94,13.29l543.81 253.49c4.98,2.37 10.87,0 13.2,-4.75l122.56 -262.98c4.23,-9.02 -9.06,-4.27 0,0l525.73 244.94c8.97,4.28 4.18,-9.01 0,0l-122.61 262.99c-2.28,5.22 -0.19,10.92 4.79,13.29l543.81 253.49c5.04,2.37 11.02,0 13.3,-4.75l122.61 -262.98c4.18,-9.02 -9.11,-4.27 0,0l525.59 245.42c9.11,3.79 4.32,-9.5 0,0l-122.48 262.5c-2.42,5.23 -0.23,10.92 4.8,13.3l543.76 253.96c5.04,1.9 11.02,0 13.3,-5.22l122.52 -262.51c4.32,-9.49 -8.98,-4.27 0,0l525.72 244.94c9.07,4.28 4.18,-9.02 0,0l-122.66 262.99c-2.28,4.74 -0.09,10.91 4.94,13.29l543.77 253.49c5.03,2.37 10.91,0 13.33,-4.75l122.48 -262.98c4.22,-9.02 -8.98,-4.28 0,0l525.72 244.94c8.98,4.27 4.18,-9.02 0,0l-122.61 262.98c-2.28,5.23 -0.19,10.92 4.89,13.3l543.72 253.48c5.03,2.38 11.01,0 13.29,-4.74l122.61 -262.99c4.18,-9.01 -9.11,-4.27 0,0l525.59 245.42c9.11,4.28 4.32,-9.02 0,0l-122.47 262.51c-2.42,5.22 -0.24,10.92 4.79,13.29l543.77 253.97c5.03,1.89 11.01,0 13.29,-5.23l122.61 -262.5c4.23,-9.5 -9.06,-4.28 0,0l525.64 244.94c9.06,4.27 4.17,-9.02 0,0l-122.52 262.98c-2.42,4.75 -0.24,10.92 4.79,12.82l543.77 253.96c5.03,2.38 10.92,0 13.34,-4.74l122.47 -262.99c4.18,-9.02 -8.97,-4.27 0,0l525.73 244.95c8.97,4.27 4.17,-9.02 0,0l-122.62 262.98c-2.28,5.22 -0.09,10.92 4.89,13.29l543.72 253.49c4.98,2.37 11.01,0 13.29,-4.75l122.62 -262.98c4.17,-9.02 -9.12,-4.27 0,0l525.68 245.42c9.02,3.8 4.22,-9.02 0,0l-122.57 262.51c-2.33,5.22 -0.24,10.92 4.79,13.29l543.77 253.96c5.03,1.9 11.01,0 13.29,-5.22l122.62 -262.51c4.22,-9.02 -9.07,-4.27 0,0l525.63 244.95c9.07,4.27 4.18,-9.02 0,0l-122.52 262.98c-2.42,4.75 -0.24,10.92 4.79,13.29l543.77 253.49c5.03,2.37 10.92,0 13.34,-4.75l122.47 -262.98c4.32,-9.02 -8.97,-4.27 0,0l525.73 244.94c9.07,4.28 4.18,-9.02 0,0l-122.62 262.99c-2.27,4.98 -0.09,10.96 4.89,13.29l543.82 253.58c4.98,2.33 10.92,0.19 13.19,-4.89l122.62 -262.84c4.18,-8.97 -9.12,-4.18 0,0l525.68 245.14c9.02,4.32 4.22,-9.02 0,0l-122.61 262.88c-2.28,4.99 -0.19,10.92 4.84,13.3l543.76 253.48c5.04,2.42 11.02,0.24 13.29,-4.74l122.62 -262.8c4.22,-9.11 -9.07,-4.32 0,0l525.63 245.04c9.07,4.28 4.27,-9.06 0,0l-122.52 262.84c-89.81,192.49 -127.31,405.21 -108.8,616.78 18.47,211.62 92.38,414.6 214.19,588.62 121.9,173.98 287.33,312.78 479.77,402.59l6888.01 3211.9c192.54,89.77 405.2,127.27 616.82,108.81 211.57,-18.52 414.56,-92.43 588.58,-214.24 174.02,-121.9 312.78,-287.38 402.59,-479.87l122.52 -262.84c4.27,-8.97 -9.02,-4.18 0,0l978.78 456.47c9.11,4.27 4.32,-9.02 0,0l-122.52 262.84c-2.28,5.03 -0.19,10.92 4.84,13.34l543.77 253.49c5.02,2.42 11.01,0.19 13.31,-4.8l122.62 -262.84c4.19,-9.11 -9.1,-4.27 0,0l525.56 245.14c9.11,4.18 4.23,-9.12 0,0l-122.47 262.79c-2.41,4.99 -0.23,11.01 4.78,13.29l543.81 253.63c5.01,2.28 10.91,0.05 13.31,-4.93l122.48 -262.8c4.3,-9.06 -8.99,-4.17 0,0l987.91 460.7c1.32,0.62 2.8,0.9 4.21,0.9 5.5,0 9.98,-4.51 9.98,-10.02z"/>
  <path class="fil0 str3" d="M44946.46 8617.37l-262.89 -122.61c-9.02,-4.18 -4.18,9.11 0,0l118.39 -253.68c4.18,-9.12 -9.11,-4.18 0,0l525.59 245.09c9.11,4.22 4.32,-9.07 0,0l-118.3 253.82c-4.22,8.97 9.12,4.17 0,0l-262.79 -122.62z"/>
  <path class="fil0 str3" d="M46033.94 9124.44l-262.79 -122.47c-9.11,-4.18 -4.18,9.02 0,0l118.3 -253.82c4.32,-8.97 -8.98,-4.18 0,0l525.68 245.13c9.11,4.28 4.22,-9.01 0,0l-118.3 253.78c-4.27,9.11 9.02,4.18 0,0l-262.84 -122.62 -0.05 0z"/>
  <path class="fil0 str3" d="M47121.52 9631.66l-262.74 -122.62c-9.12,-4.17 -4.32,9.12 0,0l118.25 -253.63c4.22,-9.11 -9.07,-4.32 0,0l525.72 245.04c8.98,4.23 4.18,-9.11 0,0l-118.39 253.73c-4.17,9.11 9.12,4.32 0,0l-262.84 -122.52z"/>
  <path class="fil0 str3" d="M48209.15 10138.78l-262.89 -122.52c-9.02,-4.27 -4.17,9.02 0,0l118.39 -253.78c4.18,-9.11 -9.11,-4.22 0,0l525.59 245.09c9.11,4.23 4.32,-9.02 0,0l-118.3 253.77c-4.22,9.12 9.12,4.23 0,0l-262.79 -122.56z"/>
  <path class="fil0 str3" d="M49296.64 10645.94l-262.8 -122.56c-9.11,-4.23 -4.17,9.11 0,0l118.3 -253.82c4.32,-9.02 -8.97,-4.18 0,0l525.68 245.23c9.11,4.17 4.22,-9.12 0,0l-118.3 253.67c-4.27,9.12 9.02,4.32 0,0l-262.88 -122.52z"/>
  <path class="fil0 str3" d="M50384.22 11153.06l-262.75 -122.51c-9.11,-4.28 -4.22,9.01 0,0l118.25 -253.78c4.22,-9.11 -9.07,-4.22 0,0l525.73 245.09c8.97,4.22 4.17,-9.07 0,0l-118.39 253.82c-4.18,8.97 9.11,4.18 0,0l-262.84 -122.62z"/>
  <path class="fil0 str3" d="M51471.84 11660.23l-262.88 -122.57c-8.97,-4.17 -4.23,9.12 0,0l118.39 -253.82c4.17,-8.97 -9.12,-4.17 0,0l525.58 245.09c9.12,4.32 4.32,-8.97 0,0l-118.29 253.82c-4.18,9.12 9.11,4.18 0,0l-262.8 -122.52z"/>
  <path class="fil0 str4" d="M30346.44 4103.11l0 12255.7c0,5.51 4.51,9.97 10.02,9.97l831.53 0c9.97,0 0,-9.97 0,0l0 290.04c0,5.46 4.36,9.97 9.97,9.97l600.01 0c5.51,0 9.97,-4.51 9.97,-9.97l0 -290.04c0,-9.97 -9.97,0 0,0l579.99 0c10.01,0 0,-9.97 0,0l0 290.04c0,5.46 4.41,9.97 10.01,9.97l600.02 0c5.51,0 9.97,-4.51 9.97,-9.97l0 -290.04c0,-9.97 -9.97,0 0,0l580.03 0c10.02,0 0,-9.97 0,0l0 290.04c0,5.46 4.42,9.97 10.02,9.97l599.97 0c5.51,0 10.02,-4.51 10.02,-9.97l0 -290.04c0,-9.97 -10.02,0 0,0l579.98 0c9.97,0 0,-9.97 0,0l0 290.04c0,5.46 4.42,9.97 9.97,9.97l600.02 0c5.51,0 10.02,-4.51 10.02,-9.97l0 -290.04c0,-9.97 -10.02,0 0,0l580.03 0c9.97,0 0,-9.97 0,0l0 290.04c0,5.46 4.37,9.97 9.97,9.97l600.02 0c5.45,0 9.96,-4.51 9.96,-9.97l0 -290.04c0,-9.97 -9.96,0 0,0l579.99 0c10.02,0 0,-9.97 0,0l0 290.04c0,5.46 4.41,9.97 10.02,9.97l600.01 0c5.51,0 9.97,-4.51 9.97,-9.97l0 -290.04c0,-9.97 -9.97,0 0,0l579.99 0c10.01,0 0,-9.97 0,0l0 290.04c0,5.46 4.41,9.97 10.01,9.97l599.98 0c5.5,0 10.01,-4.51 10.01,-9.97l0 -290.04c0,-9.97 -10.01,0 0,0l580.03 0c9.97,0 0,-9.97 0,0l0 290.04c0,5.46 4.42,9.97 9.97,9.97l600.02 0c5.51,0 10.02,-4.51 10.02,-9.97l0 -290.04c0,-9.97 -10.02,0 0,0l579.98 0c10.02,0 0,-9.97 0,0l0 290.04c0,5.46 4.37,9.97 10.02,9.97l599.97 0c5.51,0 10.02,-4.51 10.02,-9.97l0 -290.04c0,-9.97 -10.02,0 0,0l579.98 0c10.02,0 0,-9.97 0,0l0 290.04c0,5.46 4.42,9.97 10.02,9.97l600.02 0c5.45,0 9.96,-4.51 9.96,-9.97l0 -290.04c0,-9.97 -9.96,0 0,0l579.99 0c9.97,0 0,-9.97 0,0l0 290.04c0,5.46 4.41,9.97 9.97,9.97l600.02 0c5.5,0 10.01,-4.51 10.01,-9.97l0 -290.04c0,-9.97 -10.01,0 0,0l580.04 0c9.96,0 0,-9.97 0,0l0 290.04c0,5.46 4.36,9.97 9.96,9.97l600.02 0c5.51,0 9.97,-4.51 9.97,-9.97l0 -290.04c0,-9.97 -9.97,0 0,0l580.03 0c9.97,0 0,-9.97 0,0l0 290.04c0,5.46 4.37,9.97 9.97,9.97l600.02 0c5.51,0 9.97,-4.51 9.97,-9.97l0 -290.04c0,-9.97 -9.97,0 0,0l580.03 0c10.02,0 0,-9.97 0,0l0 290.04c0,5.46 4.37,9.97 10.02,9.97l599.97 0c5.51,0 10.02,-4.51 10.02,-9.97l0 -290.04c0,-9.97 -10.02,0 0,0l579.98 0c9.97,0 0,-9.97 0,0l0 290.04c0,5.46 4.42,9.97 9.97,9.97l600.02 0c5.5,0 10.01,-4.51 10.01,-9.97l0 -290.04c0,-9.97 -10.01,0 0,0l579.99 0c9.97,0 0,-9.97 0,0l0 290.04c0,5.46 4.37,9.97 9.97,9.97l600.02 0c5.5,0 10.01,-4.51 10.01,-9.97l0 -290.04c0,-9.97 -10.01,0 0,0l580.04 0c9.96,0 0,-9.97 0,0l0 290.04c0,5.46 4.36,9.97 9.96,9.97l600.02 0c5.51,0 9.97,-4.51 9.97,-9.97l0 -290.04c0,-9.97 -9.97,0 0,0l579.99 0c10.01,0 0,-9.97 0,0l0 290.04c0,5.46 4.41,9.97 10.01,9.97l600.02 0c5.51,0 9.97,-4.51 9.97,-9.97l0 -290.04c0,-9.97 -9.97,0 0,0l580.03 0c9.97,0 0,-9.97 0,0l0 290.04c0,5.46 4.37,9.97 9.97,9.97l600.02 0c5.46,0 10.02,-4.51 10.02,-9.97l0 -290.04c0,-9.97 -10.02,0 0,0l579.98 0c9.97,0 0,-9.97 0,0l0 290.04c0,5.46 4.37,9.97 9.97,9.97l600.02 0c5.5,0 10.01,-4.51 10.01,-9.97l0 -290.04c0,-9.97 -10.01,0 0,0l579.99 0c10.02,0 0,-9.97 0,0l0 290.04c0,5.46 4.41,9.97 10.02,9.97l599.97 0c5.5,0 10.01,-4.51 10.01,-9.97l0 -290.04c0,-9.97 -10.01,0 0,0l831.39 0c5.5,0 10.01,-4.46 10.01,-9.97 0,-3.94 -2.18,-7.41 -5.74,-9.12l-534.75 -249.31c-9.02,-4.17 -4.22,9.12 0,0l122.57 -262.79c2.28,-4.98 0.24,-11.01 -4.79,-13.29l-543.82 -253.58c-4.98,-2.33 -10.96,-0.24 -13.29,4.79l-122.57 262.89c-4.22,8.97 9.12,4.17 0,0l-525.63 -245.14c-9.07,-4.27 -4.27,9.02 0,0l122.52 -262.88c2.37,-4.99 0.19,-10.87 -4.79,-13.3l-543.82 -253.48c-4.98,-2.43 -10.96,-0.19 -13.29,4.79l-122.47 262.84c-4.32,9.07 8.97,4.27 0,0l-525.73 -245.13c-9.11,-4.18 -4.22,9.11 0,0l122.62 -262.8c2.27,-5.03 0.04,-11.01 -4.89,-13.29l-543.82 -253.63c-5.03,-2.28 -10.92,-0.09 -13.29,4.94l-122.47 262.74c-4.27,9.02 8.97,4.23 0,0l-525.73 -245.04c-8.97,-4.32 -4.22,8.98 0,0l122.57 -262.93c2.28,-4.99 0.24,-10.92 -4.89,-13.29l-543.72 -253.54c-4.98,-2.37 -10.97,-0.14 -13.29,4.84l-122.57 262.8c-4.22,9.11 9.12,4.32 0,0l-525.58 -245.09c-9.12,-4.23 -4.32,9.07 0,0l122.47 -262.79c2.32,-5.03 0.19,-11.02 -4.8,-13.29l-543.81 -253.64c-4.98,-2.27 -10.97,-0.09 -13.29,4.89l-122.62 262.8c-4.17,9.11 9.12,4.22 0,0l-525.58 -245.09c-9.12,-4.18 -4.23,9.02 0,0l122.52 -262.79c2.37,-5.08 0.19,-10.97 -4.8,-13.29l-543.81 -253.59c-5.03,-2.32 -10.92,-0.24 -13.29,4.8l-122.47 262.88c-4.32,9.02 8.97,4.18 0,0l-525.73 -245.22c-9.02,-4.18 -4.23,9.11 0,0l122.57 -262.75c2.32,-5.03 0.14,-10.92 -4.89,-13.34l-543.72 -253.49c-5.08,-2.42 -10.97,-0.19 -13.29,4.8l-122.57 262.79c-4.23,9.11 9.11,4.22 0,0l-525.73 -245.09c-8.97,-4.22 -4.18,9.12 0,0l122.62 -262.79c2.32,-4.98 0.18,-10.96 -4.85,-13.29l-543.76 -253.63c-4.99,-2.28 -10.97,-0.19 -13.29,4.84l-122.62 262.89c-4.18,8.97 9.12,4.17 0,0l-525.58 -245.14c-9.12,-4.27 -4.28,9.07 0,0l122.51 -262.88c2.38,-4.99 0.19,-10.92 -4.79,-13.3l-543.81 -253.48c-5.04,-2.43 -10.92,-0.19 -13.29,4.74l-122.48 262.84c-4.32,9.12 8.97,4.32 0,0l-525.72 -245.08c-9.12,-4.23 -4.23,9.06 0,0l122.56 -262.8c2.33,-5.03 0.14,-11.01 -4.89,-13.34l-543.81 -253.58c-4.99,-2.28 -10.87,-0.09 -13.2,4.89l-122.56 262.79c-4.18,9.12 9.11,4.23 0,0l-525.73 -245.08c-8.97,-4.28 -4.18,9.02 0,0l122.61 -262.89c2.33,-4.99 0.19,-10.92 -4.84,-13.2l-543.77 -253.58c-4.98,-2.42 -10.96,-0.19 -13.29,4.79l-122.61 262.8c-4.18,9.06 9.11,4.32 0,0l-525.59 -245.14c-9.11,-4.17 -4.27,9.12 0,0l122.52 -262.79c2.38,-4.98 0.19,-10.97 -4.79,-13.29l-543.82 -253.59c-5.03,-2.32 -10.91,-0.14 -13.29,4.89l-122.52 262.84c-4.27,9.07 9.02,4.18 0,0l-525.68 -245.13c-9.11,-4.18 -4.17,9.11 0,0l122.57 -262.79c89.72,-192.49 127.22,-405.3 108.71,-616.92 -18.47,-211.62 -92.38,-414.46 -214.19,-588.48 -121.81,-174.03 -287.29,-312.92 -479.78,-402.64l-6887.91 -3211.95c-192.49,-89.72 -405.29,-127.22 -616.91,-108.7 -211.58,18.51 -414.56,92.56 -588.44,214.08 -174.02,122 -312.92,287.2 -402.64,479.92l-122.61 262.99c-4.18,9.02 9.11,4.27 0,0l-978.78 -456.66c-9.07,-4.28 -4.23,9.02 0,0l122.52 -262.99c2.37,-4.74 0.19,-10.91 -4.84,-13.29l-543.82 -253.49c-4.98,-2.37 -10.87,0 -13.29,5.23l-122.47 262.5c-4.27,9.02 9.02,4.28 0,0l-525.68 -244.94c-9.12,-4.27 -4.23,9.02 0,0l122.56 -262.98c2.33,-4.75 0.1,-10.92 -4.89,-13.29l-543.71 -253.49c-5.08,-2.38 -11.02,0 -13.3,4.74l-122.56 262.99c-4.23,9.02 9.06,4.27 0,0l-987.9 -460.94c-1.33,-0.47 -2.7,-0.47 -4.22,-0.47 -5.51,0 -10.02,4.27 -10.02,9.97z"/>
  <path class="fil0 str4" d="M41902.72 9156.03l262.84 122.47c9.12,4.32 4.18,-9.02 0,0l-118.34 253.82c-4.27,9.07 9.02,4.18 0,0l-525.68 -245.08c-9.07,-4.32 -4.22,8.97 0,0l118.3 -253.83c4.32,-9.06 -8.98,-4.22 0,0l262.88 122.62z"/>
  <path class="fil0 str4" d="M40815.14 8648.81l262.8 122.62c9.11,4.18 4.17,-9.11 0,0l-118.3 253.77c-4.18,9.02 9.12,4.23 0,0l-525.68 -245.23c-9.02,-4.17 -4.22,9.12 0,0l118.39 -253.63c4.18,-9.11 -9.11,-4.32 0,0l262.79 122.47z"/>
  <path class="fil0 str4" d="M39727.52 8141.7l262.93 122.51c8.97,4.28 4.18,-9.01 0,0l-118.44 253.83c-4.17,9.06 9.12,4.17 0,0l-525.58 -245.14c-9.12,-4.18 -4.27,9.12 0,0l118.29 -253.77c4.23,-9.02 -9.06,-4.18 0,0l262.8 122.61 0 -0.04z"/>
  <path class="fil0 str4" d="M38640.03 7634.39l262.84 122.94c8.97,3.8 4.18,-9.49 0,0l-118.34 253.59c-4.32,8.97 9.02,4.17 0,0l-525.68 -245.04c-9.12,-4.28 -4.23,9.02 0,0l118.29 -253.97c4.32,-9.02 -8.97,-4.27 0,0l262.89 122.48z"/>
  <path class="fil0 str4" d="M37289.66 7004.94l525.58 244.94c9.12,4.27 4.18,-9.02 0,0l-118.29 253.96c-4.18,9.02 9.02,4.28 0,0l-525.68 -245.41c-9.02,-3.8 -4.23,9.49 0,0l118.39 -253.49c4.17,-9.02 -9.12,-4.28 0,0z"/>
  <path class="fil0 str4" d="M36464.82 6620.43l262.8 122.47c9.11,4.28 4.32,-9.02 0,0l-118.3 253.49c-4.18,9.02 9.11,4.27 0,0l-525.58 -244.94c-9.12,-4.27 -4.28,9.02 0,0l118.34 -253.97c4.17,-9.01 -9.12,-3.79 0,0l262.74 122.95z"/>
  <path class="fil0 str4" d="M35377.24 6112.98l262.94 122.95c8.97,3.79 4.18,-9.5 0,0l-118.44 253.48c-4.22,9.02 9.11,4.28 0,0l-525.58 -244.94c-9.12,-4.27 -4.23,9.02 0,0l118.29 -253.96c4.18,-9.02 -8.97,-4.28 0,0l262.79 122.47z"/>
 </g>
</svg>
