<?xml version="1.0" encoding="UTF-8"?>
<!DOCTYPE svg PUBLIC "-//W3C//DTD SVG 1.1//EN" "http://www.w3.org/Graphics/SVG/1.1/DTD/svg11.dtd">
<svg version="1.2" width="210mm" height="297mm" viewBox="0 0 21000 29700" preserveAspectRatio="xMidYMid" fill-rule="evenodd" stroke-width="28.222" stroke-linejoin="round" xmlns="http://www.w3.org/2000/svg" xmlns:ooo="http://xml.openoffice.org/svg/export" xmlns:xlink="http://www.w3.org/1999/xlink" xmlns:presentation="http://sun.com/xmlns/staroffice/presentation" xmlns:smil="http://www.w3.org/2001/SMIL20/" xmlns:anim="urn:oasis:names:tc:opendocument:xmlns:animation:1.0" xml:space="preserve">
 <defs class="ClipPathGroup">
  <clipPath id="presentation_clip_path" clipPathUnits="userSpaceOnUse">
   <rect x="0" y="0" width="21000" height="29700"/>
  </clipPath>
  <clipPath id="presentation_clip_path_shrink" clipPathUnits="userSpaceOnUse">
   <rect x="21" y="29" width="20958" height="29641"/>
  </clipPath>
 </defs>
 <defs class="TextShapeIndex">
  <g ooo:slide="id1" ooo:id-list="id3"/>
 </defs>
 <defs class="EmbeddedBulletChars">
  <g id="bullet-char-template-57356" transform="scale(0.00048828125,-0.00048828125)">
   <path d="M 580,1141 L 1163,571 580,0 -4,571 580,1141 Z"/>
  </g>
  <g id="bullet-char-template-57354" transform="scale(0.00048828125,-0.00048828125)">
   <path d="M 8,1128 L 1137,1128 1137,0 8,0 8,1128 Z"/>
  </g>
  <g id="bullet-char-template-10146" transform="scale(0.00048828125,-0.00048828125)">
   <path d="M 174,0 L 602,739 174,1481 1456,739 174,0 Z M 1358,739 L 309,1346 659,739 1358,739 Z"/>
  </g>
  <g id="bullet-char-template-10132" transform="scale(0.00048828125,-0.00048828125)">
   <path d="M 2015,739 L 1276,0 717,0 1260,543 174,543 174,936 1260,936 717,1481 1274,1481 2015,739 Z"/>
  </g>
  <g id="bullet-char-template-10007" transform="scale(0.00048828125,-0.00048828125)">
   <path d="M 0,-2 C -7,14 -16,27 -25,37 L 356,567 C 262,823 215,952 215,954 215,979 228,992 255,992 264,992 276,990 289,987 310,991 331,999 354,1012 L 381,999 492,748 772,1049 836,1024 860,1049 C 881,1039 901,1025 922,1006 886,937 835,863 770,784 769,783 710,716 594,584 L 774,223 C 774,196 753,168 711,139 L 727,119 C 717,90 699,76 672,76 641,76 570,178 457,381 L 164,-76 C 142,-110 111,-127 72,-127 30,-127 9,-110 8,-76 1,-67 -2,-52 -2,-32 -2,-23 -1,-13 0,-2 Z"/>
  </g>
  <g id="bullet-char-template-10004" transform="scale(0.00048828125,-0.00048828125)">
   <path d="M 285,-33 C 182,-33 111,30 74,156 52,228 41,333 41,471 41,549 55,616 82,672 116,743 169,778 240,778 293,778 328,747 346,684 L 369,508 C 377,444 397,411 428,410 L 1163,1116 C 1174,1127 1196,1133 1229,1133 1271,1133 1292,1118 1292,1087 L 1292,965 C 1292,929 1282,901 1262,881 L 442,47 C 390,-6 338,-33 285,-33 Z"/>
  </g>
  <g id="bullet-char-template-9679" transform="scale(0.00048828125,-0.00048828125)">
   <path d="M 813,0 C 632,0 489,54 383,161 276,268 223,411 223,592 223,773 276,916 383,1023 489,1130 632,1184 813,1184 992,1184 1136,1130 1245,1023 1353,916 1407,772 1407,592 1407,412 1353,268 1245,161 1136,54 992,0 813,0 Z"/>
  </g>
  <g id="bullet-char-template-8226" transform="scale(0.00048828125,-0.00048828125)">
   <path d="M 346,457 C 273,457 209,483 155,535 101,586 74,649 74,723 74,796 101,859 155,911 209,963 273,989 346,989 419,989 480,963 531,910 582,859 608,796 608,723 608,648 583,586 532,535 482,483 420,457 346,457 Z"/>
  </g>
  <g id="bullet-char-template-8211" transform="scale(0.00048828125,-0.00048828125)">
   <path d="M -4,459 L 1135,459 1135,606 -4,606 -4,459 Z"/>
  </g>
  <g id="bullet-char-template-61548" transform="scale(0.00048828125,-0.00048828125)">
   <path d="M 173,740 C 173,903 231,1043 346,1159 462,1274 601,1332 765,1332 928,1332 1067,1274 1183,1159 1299,1043 1357,903 1357,740 1357,577 1299,437 1183,322 1067,206 928,148 765,148 601,148 462,206 346,322 231,437 173,577 173,740 Z"/>
  </g>
 </defs>
 <g>
  <g id="id2" class="Master_Slide">
   <g id="bg-id2" class="Background"/>
   <g id="bo-id2" class="BackgroundObjects"/>
  </g>
 </g>
 <g class="SlideGroup">
  <g>
   <g id="container-id1">
    <g id="id1" class="Slide" clip-path="url(#presentation_clip_path)">
     <g class="Page">
      <g class="Graphic">
       <g id="id3">
        <rect class="BoundingBox" stroke="none" fill="none" x="3206" y="2775" width="10001" height="5340"/>
        <path fill="none" stroke="rgb(15,15,15)" d="M 10537,5667 L 10325,5879 10537,6091 10748,5879 Z"/>
        <path fill="none" stroke="rgb(15,15,15)" d="M 10537,4798 L 10325,5010 10537,5222 10748,5010 Z"/>
        <path fill="none" stroke="rgb(15,15,15)" d="M 8799,3612 L 8704,3707 8799,3803 8895,3707 Z"/>
        <path fill="none" stroke="rgb(15,15,15)" d="M 10537,3930 L 10325,4142 10537,4353 10748,4142 Z"/>
        <path fill="none" stroke="rgb(15,15,15)" d="M 10971,6536 L 10759,6747 10971,6959 11183,6747 Z"/>
        <path fill="none" stroke="rgb(15,15,15)" d="M 10102,6536 L 9890,6747 10102,6959 10314,6747 Z"/>
        <path fill="none" stroke="rgb(15,15,15)" d="M 9668,3930 L 9456,4142 9668,4353 9880,4142 Z"/>
        <path fill="none" stroke="rgb(15,15,15)" d="M 9668,4798 L 9456,5010 9668,5222 9880,5010 Z"/>
        <path fill="none" stroke="rgb(15,15,15)" d="M 9668,5667 L 9456,5879 9668,6091 9880,5879 Z"/>
        <path fill="none" stroke="rgb(15,15,15)" d="M 8799,7086 L 8704,7182 8799,7277 8895,7182 Z"/>
        <path fill="none" stroke="rgb(15,15,15)" d="M 12274,3612 L 12178,3707 12274,3803 12369,3707 Z"/>
        <path fill="none" stroke="rgb(15,15,15)" d="M 12274,7086 L 12178,7182 12274,7277 12369,7182 Z"/>
        <path fill="none" stroke="rgb(15,15,15)" d="M 11405,5667 L 11193,5879 11405,6091 11617,5879 Z"/>
        <path fill="none" stroke="rgb(15,15,15)" d="M 11405,4798 L 11193,5010 11405,5222 11617,5010 Z"/>
        <path fill="none" stroke="rgb(15,15,15)" d="M 11405,3930 L 11193,4142 11405,4353 11617,4142 Z"/>
        <path fill="none" stroke="rgb(15,15,15)" d="M 4138,3612 L 4043,3707 4138,3803 4234,3707 Z"/>
        <path fill="none" stroke="rgb(15,15,15)" d="M 4138,7086 L 4043,7182 4138,7277 4234,7182 Z"/>
        <path fill="none" stroke="rgb(15,15,15)" d="M 5875,3538 L 3969,5444 5875,7351 7782,5444 Z"/>
        <path fill="none" stroke="rgb(15,15,15)" d="M 7613,7086 L 7517,7182 7613,7277 7708,7182 Z"/>
        <path fill="none" stroke="rgb(15,15,15)" d="M 7613,3612 L 7517,3707 7613,3803 7708,3707 Z"/>
        <path fill="none" stroke="rgb(15,15,15)" d="M 7899,3421 L 3852,3421 3852,7468 7899,7468 Z"/>
        <path fill="none" stroke="rgb(15,15,15)" d="M 13206,8114 L 13206,2775"/>
        <path fill="none" stroke="rgb(15,15,15)" d="M 3206,8114 L 13206,8114"/>
        <path fill="none" stroke="rgb(15,15,15)" d="M 3206,8114 L 3206,2775 13206,2775"/>
       </g>
      </g>
     </g>
    </g>
   </g>
  </g>
 </g>
</svg>