<?xml version="1.0" encoding="UTF-8"?>
<!DOCTYPE svg PUBLIC "-//W3C//DTD SVG 1.1//EN" "http://www.w3.org/Graphics/SVG/1.1/DTD/svg11.dtd">
<!-- Creator: CorelDRAW SE (OEM-Version) -->
<svg xmlns="http://www.w3.org/2000/svg" xml:space="preserve" width="609mm" height="304mm" version="1.1" style="shape-rendering:geometricPrecision; text-rendering:geometricPrecision; image-rendering:optimizeQuality; fill-rule:evenodd; clip-rule:evenodd"
viewBox="0 0 60900 30400"
 xmlns:xlink="http://www.w3.org/1999/xlink">
 <defs>
  <style type="text/css">
   <![CDATA[
    .fil0 {fill:blue}
   ]]>
  </style>
 </defs>
 <g id="Ebene_x0020_1">
  <metadata id="CorelCorpID_0Corel-Layer"/>
  <polygon id="power.svg" class="fil0" points="27427.06,13689.36 28252.39,13924.58 28252.39,13689.36 29077.73,13846.17 28046.06,13297.32 28046.06,13610.95 27427.06,13375.73 "/>
  <path id="volume-plus.svg" class="fil0" d="M29104.36 2282.67l0 244.21 244.22 0 0 162.82 -244.22 0 0 244.21 -162.81 0 0 -244.21 -244.22 0 0 -162.82 244.22 0 0 -244.21 162.81 0zm488.43 773.34c0,0 0,0.02 0,0.02 0,10.79 -4.29,21.14 -11.92,28.77l-313.7 313.7 0 145.95c0,22.48 -18.22,40.71 -40.7,40.71l-407.03 0c-22.48,0 -40.71,-18.23 -40.71,-40.71l0 -145.95 -313.7 -313.7c-7.63,-7.63 -11.92,-17.99 -11.92,-28.78 0,-5.34 1.06,-10.64 3.1,-15.58 6.3,-15.2 21.15,-25.12 37.6,-25.12 0,0 0,0 0,0l1058.28 0c0,0 0,0 0,0 22.48,0 40.7,18.22 40.7,40.69l0 0z"/>
  <path id="volume-minus.svg" class="fil0" d="M28939.68 4773.01l0 -651.25 162.81 0 0 651.25 -162.81 0zm651.24 122.1c0,0 0,0.01 0,0.01 0,10.8 -4.3,21.15 -11.93,28.78l-313.69 313.7 0 145.95c0,22.48 -18.22,40.71 -40.71,40.71l-407.02 0c-22.48,0 -40.71,-18.23 -40.71,-40.71l0 -145.95 -313.7 -313.7c-7.63,-7.63 -11.92,-17.99 -11.92,-28.78 0,-5.34 1.06,-10.64 3.1,-15.58 6.3,-15.2 21.15,-25.12 37.6,-25.12 0,0 0,0 0,0l1058.28 0c0,0 0,0 0,0 22.47,0 40.7,18.22 40.7,40.69l0 0z"/>
  <path id="settings-power.svg" class="fil0" d="M29797.87 7399.14l0 -108.54 -108.54 0 0 108.54 108.54 0 0 0zm0 -217.08l0 -108.54 -108.54 0 0 108.54 108.54 0 0 0zm-1193.94 -108.54l0 108.54 542.7 0 0 -108.54 -542.7 0zm132.14 -193.48l78.42 78.43c57.26,-93.62 160.1,-156.3 277.87,-156.3 179.91,0 325.62,145.71 325.62,325.62 0,179.91 -145.71,325.62 -325.62,325.62 -117.77,0 -220.61,-62.68 -277.87,-156.3l-78.42 78.43c78.42,112.61 208.67,186.42 356.29,186.42 239.88,0 434.16,-194.29 434.16,-434.17 0,-239.88 -194.29,-434.17 -434.16,-434.17 -147.61,0 -277.86,73.81 -356.29,186.42l0 0zm1061.8 84.94l0 -108.54 -108.54 0 0 108.54 108.54 0 0 0z"/>
 </g>
</svg>
