<?xml version="1.0" encoding="UTF-8"?>
<!DOCTYPE svg PUBLIC "-//W3C//DTD SVG 1.1//EN" "http://www.w3.org/Graphics/SVG/1.1/DTD/svg11.dtd">
<!-- Creator: CorelDRAW SE (OEM-Version) -->
<svg xmlns="http://www.w3.org/2000/svg" xml:space="preserve" width="696.031mm" height="325.967mm" version="1.1" style="shape-rendering:geometricPrecision; text-rendering:geometricPrecision; image-rendering:optimizeQuality; fill-rule:evenodd; clip-rule:evenodd"
viewBox="0 0 69603.06 32596.66"
 xmlns:xlink="http://www.w3.org/1999/xlink">
 <defs>
  <style type="text/css">
   <![CDATA[
    .str0 {stroke:#2B2A29;stroke-width:20;stroke-linecap:round;stroke-linejoin:round;stroke-miterlimit:10}
    .fil0 {fill:none;fill-rule:nonzero}
   ]]>
  </style>
 </defs>
 <g id="Ebene_x0020_1">
  <metadata id="CorelCorpID_0Corel-Layer"/>
  <path class="fil0 str0" d="M7444.45 24726.6l0 579.99c0,9.97 9.97,0 0,0l-280.03 0c-10.01,0 0,9.97 0,0l0 -579.99c0,-10.01 -10.01,0 0,0l280.03 0c9.97,0 0,-10.01 0,0z"/>
  <path class="fil0 str0" d="M7444.45 23526.61l0 579.99c0,9.97 9.97,0 0,0l-280.03 0c-10.01,0 0,9.97 0,0l0 -579.99c0,-10.06 -10.01,0 0,0l280.03 0c9.97,0 0,-10.06 0,0z"/>
  <path class="fil0 str0" d="M7444.45 22326.58l0 579.98c0,10.02 9.97,0 0,0l-280.03 0c-10.01,0 0,10.02 0,0l0 -579.98c0,-9.97 -10.01,0 0,0l280.03 0c9.97,0 0,-9.97 0,0z"/>
  <path class="fil0 str0" d="M7444.45 21126.59l0 579.99c0,10.01 9.97,0 0,0l-280.03 0c-10.01,0 0,10.01 0,0l0 -579.99c0,-9.97 -10.01,0 0,0l280.03 0c9.97,0 0,-9.97 0,0z"/>
  <path class="fil0 str0" d="M7444.45 19926.6l0 580.03c0,9.97 9.97,0 0,0l-280.03 0c-10.01,0 0,9.97 0,0l0 -580.03c0,-10.01 -10.01,0 0,0l280.03 0c9.97,0 0,-10.01 0,0z"/>
  <path class="fil0 str0" d="M7444.45 18726.61l0 579.99c0,9.97 9.97,0 0,0l-280.03 0c-10.01,0 0,9.97 0,0l0 -579.99c0,-10.01 -10.01,0 0,0l280.03 0c9.97,0 0,-10.01 0,0z"/>
  <path class="fil0 str0" d="M7444.45 17526.62l0 579.99c0,9.97 9.97,0 0,0l-280.03 0c-10.01,0 0,9.97 0,0l0 -579.99c0,-10.01 -10.01,0 0,0l280.03 0c9.97,0 0,-10.01 0,0z"/>
  <path class="fil0 str0" d="M13749.95 24726.6l0 579.99c0,9.97 10.02,0 0,0l-279.97 0c-10.02,0 0,9.97 0,0l0 -579.99c0,-10.01 -10.02,0 0,0l279.97 0c10.02,0 0,-10.01 0,0z"/>
  <path class="fil0 str0" d="M13749.95 23526.61l0 579.99c0,9.97 10.02,0 0,0l-279.97 0c-10.02,0 0,9.97 0,0l0 -579.99c0,-10.06 -10.02,0 0,0l279.97 0c10.02,0 0,-10.06 0,0z"/>
  <path class="fil0 str0" d="M13749.95 22326.58l0 579.98c0,10.02 10.02,0 0,0l-279.97 0c-10.02,0 0,10.02 0,0l0 -579.98c0,-9.97 -10.02,0 0,0l279.97 0c10.02,0 0,-9.97 0,0z"/>
  <path class="fil0 str0" d="M13749.95 21126.59l0 579.99c0,10.01 10.02,0 0,0l-279.97 0c-10.02,0 0,10.01 0,0l0 -579.99c0,-9.97 -10.02,0 0,0l279.97 0c10.02,0 0,-9.97 0,0z"/>
  <path class="fil0 str0" d="M13749.95 19926.6l0 580.03c0,9.97 10.02,0 0,0l-279.97 0c-10.02,0 0,9.97 0,0l0 -580.03c0,-10.01 -10.02,0 0,0l279.97 0c10.02,0 0,-10.01 0,0z"/>
  <path class="fil0 str0" d="M13749.95 18726.61l0 579.99c0,9.97 10.02,0 0,0l-279.97 0c-10.02,0 0,9.97 0,0l0 -579.99c0,-10.01 -10.02,0 0,0l279.97 0c10.02,0 0,-10.01 0,0z"/>
  <path class="fil0 str0" d="M13749.95 17526.62l0 579.99c0,9.97 10.02,0 0,0l-279.97 0c-10.02,0 0,9.97 0,0l0 -579.99c0,-10.01 -10.02,0 0,0l279.97 0c10.02,0 0,-10.01 0,0z"/>
  <path class="fil0 str0" d="M1310 30426.56l5850.01 0c5.51,0 9.97,-4.48 9.97,-9.98l0 -3989.99c0,-10.02 -9.97,0 0,0l279.97 0c10.07,0 0,-10.02 0,0l0 3989.99c0,5.5 4.56,9.98 10.07,9.98l-1625.56 0c5.46,0 9.97,-4.48 9.97,-9.98l0 -499.99c0,-42.13 11.11,-83.5 32.19,-120.03 20.98,-36.51 51.31,-66.78 87.82,-87.8 36.45,-21.1 77.89,-32.17 120,-32.17 42.1,0 83.5,11.07 120,32.17 36.46,21.02 66.74,51.29 87.77,87.8 21.13,36.53 32.19,77.9 32.19,120.03l0 499.99c0,5.5 4.51,9.98 10.01,9.98l7125.55 0c5.51,0 10.02,-4.48 10.02,-9.98l0 -3989.99c0,-10.02 -10.02,0 0,0l279.97 0c10.02,0 0,-10.02 0,0l0 3989.99c0,5.5 4.51,9.98 10.02,9.98l5149.95 0c5.5,0 10.01,-4.48 10.01,-9.98l0 -1100c0,-5.51 -4.51,-10.02 -10.01,-10.02l-289.99 0c-9.97,0 0,10.02 0,0l0 -580c0,-9.97 -9.97,0 0,0l289.99 0c5.5,0 10.01,-4.49 10.01,-9.97l0 -600.01c0,-5.51 -4.51,-9.98 -10.01,-9.98l-289.99 0c-9.97,0 0,9.98 0,0l0 -579.99c0,-10.07 -9.97,0 0,0l289.99 0c5.5,0 10.01,-4.56 10.01,-10.07l0 -1099.97c0,-5.5 -4.51,-9.96 -10.01,-9.96l-289.99 0c-9.97,0 0,9.96 0,0l0 -1080.04c0,-10.01 -9.97,0 0,0l289.99 0c5.5,0 10.01,-4.46 10.01,-10.01l0 -599.97c0,-5.51 -4.51,-10.02 -10.01,-10.02l-289.99 0c-9.97,0 0,10.02 0,0l0 -579.98c0,-10.02 -9.97,0 0,0l289.99 0c5.5,0 10.01,-4.51 10.01,-10.02l0 -600.02c0,-5.46 -4.51,-9.97 -10.01,-9.97l-289.99 0c-9.97,0 0,9.97 0,0l0 -579.98c0,-10.02 -9.97,0 0,0l289.99 0c5.5,0 10.01,-4.51 10.01,-10.02l0 -599.97c0,-5.51 -4.51,-10.02 -10.01,-10.02l-289.99 0c-9.97,0 0,10.02 0,0l0 -579.98c0,-10.02 -9.97,0 0,0l289.99 0c5.5,0 10.01,-4.51 10.01,-10.02l0 -599.97c0,-5.51 -4.51,-10.01 -10.01,-10.01l-289.99 0c-9.97,0 0,10.01 0,0l0 -580.04c0,-9.97 -9.97,0 0,0l289.99 0c5.5,0 10.01,-4.46 10.01,-9.97l0 -600.01c0,-5.51 -4.51,-9.97 -10.01,-9.97l-289.99 0c-9.97,0 0,9.97 0,0l0 -580.04c0,-10.01 -9.97,0 0,0l289.99 0c5.5,0 10.01,-4.51 10.01,-10.01l0 -599.97c0,-5.51 -4.51,-10.02 -10.01,-10.02l-289.99 0c-9.97,0 0,10.02 0,0l0 -579.98c0,-10.02 -9.97,0 0,0l289.99 0c5.5,0 10.01,-4.51 10.01,-10.02l0 -599.97c0,-5.51 -4.51,-10.02 -10.01,-10.02l-289.99 0c-9.97,0 0,10.02 0,0l0 -1079.98c0,-10.02 -9.97,0 0,0l289.99 0c5.5,0 10.01,-4.51 10.01,-10.02l0 -599.97c0,-5.51 -4.51,-10.02 -10.01,-10.02l-289.99 0c-9.97,0 0,10.02 0,0l0 -579.98c0,-10.02 -9.97,0 0,0l289.99 0c5.5,0 10.01,-4.51 10.01,-10.02l0 -599.97c0,-5.5 -4.51,-10.01 -10.01,-10.01l-289.99 0c-9.97,0 0,10.01 0,0l0 -580.04c0,-9.97 -9.97,0 0,0l289.99 0c5.5,0 10.01,-4.46 10.01,-9.97l0 -600.01c0,-5.51 -4.51,-9.97 -10.01,-9.97l-289.99 0c-9.97,0 0,9.97 0,0l0 -580.04c0,-10.01 -9.97,0 0,0l289.99 0c5.5,0 10.01,-4.46 10.01,-10.01l0 -599.97c0,-5.51 -4.51,-10.02 -10.01,-10.02l-289.99 0c-9.97,0 0,10.02 0,0l0 -579.98c0,-9.97 -9.97,0 0,0l289.99 0c5.5,0 10.01,-4.51 10.01,-9.97l0 -600.02c0,-5.51 -4.51,-10.02 -10.01,-10.02l-289.99 0c-9.97,0 0,10.02 0,0l0 -579.98c0,-9.97 -9.97,0 0,0l289.99 0c5.5,0 10.01,-4.51 10.01,-9.97l0 -600.02c0,-5.51 -4.51,-10.02 -10.01,-10.02l-289.99 0c-9.97,0 0,10.02 0,0l0 -579.98c0,-10.02 -9.97,0 0,0l289.99 0c5.5,0 10.01,-4.51 10.01,-10.02l0 -599.97c0,-5.5 -4.51,-10.01 -10.01,-10.01l-289.99 0c-9.97,0 0,10.01 0,0l0 -579.99c0,-10.02 -9.97,0 0,0l289.99 0c5.5,0 10.01,-4.51 10.01,-10.02l0 -600.01c0,-5.51 -4.51,-9.97 -10.01,-9.97l-289.99 0c-9.97,0 0,9.97 0,0l0 -580.04c0,-9.96 -9.97,0 0,0l289.99 0c5.5,0 10.01,-4.51 10.01,-9.96l0 -600.02c0,-5.46 -4.51,-10.02 -10.01,-10.02l-289.99 0c-9.97,0 0,10.02 0,0l0 -579.98c0,-9.97 -9.97,0 0,0l289.99 0c5.5,0 10.01,-4.47 10.01,-9.97l0 -600.02c0,-5.51 -4.51,-10.02 -10.01,-10.02l-289.99 0c-9.97,0 0,10.02 0,0l0 -579.98c0,-9.97 -9.97,0 0,0l289.99 0c5.5,0 10.01,-4.51 10.01,-9.97l0 -600.02c0,-5.51 -4.51,-9.97 -10.01,-9.97l-289.99 0c-9.97,0 0,9.97 0,0l0 -580.03c0,-10.02 -9.97,0 0,0l289.99 0c5.5,0 10.01,-4.51 10.01,-10.02l0 -600.02c0,-5.5 -4.51,-9.96 -10.01,-9.96l-289.99 0c-9.97,0 0,9.96 0,0l0 -579.99c0,-10.02 -9.97,0 0,0l289.99 0c5.5,0 10.01,-4.51 10.01,-10.02l0 -599.97c0,-5.5 -4.51,-10.01 -10.01,-10.01l-17899.92 0c-5.5,0 -10.02,4.51 -10.02,10.01l0 599.97c0,5.51 4.52,10.02 10.02,10.02l289.98 0c10.02,0 0,-10.02 0,0l0 579.99c0,9.96 10.02,0 0,0l-289.98 0c-5.5,0 -10.02,4.46 -10.02,9.96l0 600.02c0,5.51 4.52,10.02 10.02,10.02l289.98 0c10.02,0 0,-10.02 0,0l0 580.03c0,9.97 10.02,0 0,0l-289.98 0c-5.5,0 -10.02,4.46 -10.02,9.97l0 600.02c0,5.46 4.52,9.97 10.02,9.97l289.98 0c10.02,0 0,-9.97 0,0l0 579.98c0,10.02 10.02,0 0,0l-289.98 0c-5.5,0 -10.02,4.51 -10.02,10.02l0 600.02c0,5.5 4.52,9.97 10.02,9.97l289.98 0c10.02,0 0,-9.97 0,0l0 579.98c0,10.02 10.02,0 0,0l-289.98 0c-5.5,0 -10.02,4.56 -10.02,10.02l0 600.02c0,5.45 4.52,9.96 10.02,9.96l289.98 0c10.02,0 0,-9.96 0,0l0 580.04c0,9.97 10.02,0 0,0l-289.98 0c-5.5,0 -10.02,4.46 -10.02,9.97l0 600.01c0,5.51 4.52,10.02 10.02,10.02l289.98 0c10.02,0 0,-10.02 0,0l0 579.99c0,10.01 10.02,0 0,0l-289.98 0c-5.5,0 -10.02,4.51 -10.02,10.01l0 599.97c0,5.51 4.52,10.02 10.02,10.02l289.98 0c10.02,0 0,-10.02 0,0l0 579.98c0,10.02 10.02,0 0,0l-289.98 0c-5.5,0 -10.02,4.51 -10.02,10.02l0 600.02c0,5.46 4.52,9.97 10.02,9.97l289.98 0c10.02,0 0,-9.97 0,0l0 579.98c0,10.02 10.02,0 0,0l-289.98 0c-5.5,0 -10.02,4.51 -10.02,10.02l0 600.02c0,5.46 4.52,9.97 10.02,9.97l289.98 0c10.02,0 0,-9.97 0,0l0 579.98c0,10.02 10.02,0 0,0l-289.98 0c-5.5,0 -10.02,4.51 -10.02,10.02l0 599.97c0,5.55 4.52,10.01 10.02,10.01l289.98 0c10.02,0 0,-10.01 0,0l0 580.04c0,9.97 10.02,0 0,0l-289.98 0c-5.5,0 -10.02,4.46 -10.02,9.97l0 600.01c0,5.51 4.52,9.97 10.02,9.97l289.98 0c10.02,0 0,-9.97 0,0l0 580.04c0,10.01 10.02,0 0,0l-289.98 0c-5.5,0 -10.02,4.51 -10.02,10.01l0 599.97c0,5.51 4.52,10.02 10.02,10.02l289.98 0c10.02,0 0,-10.02 0,0l0 579.98c0,10.02 10.02,0 0,0l-289.98 0c-5.5,0 -10.02,4.51 -10.02,10.02l0 599.97c0,5.51 4.52,10.02 10.02,10.02l289.98 0c10.02,0 0,-10.02 0,0l0 1079.98c0,10.02 10.02,0 0,0l-289.98 0c-5.5,0 -10.02,4.51 -10.02,10.02l0 599.97c0,5.51 4.52,10.02 10.02,10.02l289.98 0c10.02,0 0,-10.02 0,0l0 579.98c0,10.02 10.02,0 0,0l-289.98 0c-5.5,0 -10.02,4.51 -10.02,10.02l0 599.97c0,5.5 4.52,10.01 10.02,10.01l289.98 0c10.02,0 0,-10.01 0,0l0 580.04c0,9.97 10.02,0 0,0l-289.98 0c-5.5,0 -10.02,4.46 -10.02,9.97l0 600.01c0,5.51 4.52,9.97 10.02,9.97l289.98 0c10.02,0 0,-9.97 0,0l0 580.04c0,10.01 10.02,0 0,0l-289.98 0c-5.5,0 -10.02,4.5 -10.02,10.01l0 599.97c0,5.51 4.52,10.02 10.02,10.02l289.98 0c10.02,0 0,-10.02 0,0l0 579.98c0,10.02 10.02,0 0,0l-289.98 0c-5.5,0 -10.02,4.51 -10.02,10.02l0 599.97c0,5.51 4.52,10.02 10.02,10.02l289.98 0c10.02,0 0,-10.02 0,0l0 579.98c0,9.97 10.02,0 0,0l-289.98 0c-5.5,0 -10.02,4.51 -10.02,9.97l0 600.02c0,5.51 4.52,10.02 10.02,10.02l289.98 0c10.02,0 0,-10.02 0,0l0 579.98c0,10.02 10.02,0 0,0l-289.98 0c-5.5,0 -10.02,4.51 -10.02,10.02l0 599.97c0,5.55 4.52,10.01 10.02,10.01l289.98 0c10.02,0 0,-10.01 0,0l0 1080.04c0,9.96 10.02,0 0,0l-289.98 0c-5.5,0 -10.02,4.46 -10.02,9.96l0 1099.97c0,5.51 4.52,10.07 10.02,10.07l289.98 0c10.02,0 0,-10.07 0,0l0 579.99c0,9.98 10.02,0 0,0l-289.98 0c-5.5,0 -10.02,4.47 -10.02,9.98l0 600.01c0,5.48 4.52,9.97 10.02,9.97l289.98 0c10.02,0 0,-9.97 0,0l0 580c0,10.02 10.02,0 0,0l-289.98 0c-5.5,0 -10.02,4.51 -10.02,10.02l0 1100c0,5.5 4.52,9.98 10.02,9.98l300 0z"/>
  <path class="fil0 str0" d="M19379.96 30426.56l8099.96 0c5.51,0 10.02,-4.48 10.02,-9.98 0,5.5 -4.51,9.98 -10.02,9.98l300.01 0c-5.51,0 -10.02,-4.48 -10.02,-9.98 0,5.5 4.51,9.98 10.02,9.98 5.51,0 10.02,-4.48 10.02,-9.98l0 -499.99c0,-42.13 11.11,-83.5 32.18,-120.03 21.03,-36.51 51.32,-66.78 87.82,-87.8 36.46,-21.1 77.9,-32.17 119.96,-32.17 42.15,0 83.5,11.07 120.05,32.17 36.45,21.02 66.74,51.29 87.77,87.8 21.12,36.53 32.18,77.9 32.18,120.03l0 499.99c0,5.5 4.51,9.98 10.02,9.98 5.51,0 10.02,-4.48 10.02,-9.98 0,5.5 -4.51,9.98 -10.02,9.98l300.01 0c-5.51,0 -10.02,-4.48 -10.02,-9.98 0,5.5 4.51,9.98 10.02,9.98l8399.97 0c5.5,0 9.96,-4.48 9.96,-9.98l0 -841.42c0,-5.6 -4.46,-9.98 -9.96,-9.98l-290 0c-10.01,0 0,9.98 0,0l0 -580c0,-10.01 -10.01,0 0,0l290 0c5.5,0 9.96,-4.51 9.96,-10.01l0 -600.02c0,-5.56 -4.46,-9.97 -9.96,-9.97l-290 0c-10.01,0 0,9.97 0,0l0 -580c0,-9.97 -10.01,0 0,0l290 0c5.5,0 9.96,-4.51 9.96,-9.97l0 -600.02c0,-5.6 -4.46,-10.02 -9.96,-10.02l-290 0c-10.01,0 0,10.02 0,0l0 -579.98c0,-10.02 -10.01,0 0,0l290 0c5.5,0 9.96,-4.51 9.96,-10.02l0 -599.97c0,-5.65 -4.46,-10.06 -9.96,-10.06l-290 0c-10.01,0 0,10.06 0,0l0 -579.94c0,-10.02 -10.01,0 0,0l290 0c5.5,0 9.96,-4.51 9.96,-10.02l0 -600.02c0,-5.6 -4.46,-9.96 -9.96,-9.96l-290 0c-10.01,0 0,9.96 0,0l0 -579.99c0,-10.02 -10.01,0 0,0l290 0c5.5,0 9.96,-4.51 9.96,-10.02l0 -600.01c0,-5.56 -4.46,-9.97 -9.96,-9.97l-290 0c-10.01,0 0,9.97 0,0l0 -580.04c0,-9.96 -10.01,0 0,0l290 0c5.5,0 9.96,-4.51 9.96,-9.96l0 -600.02c0,-5.6 -4.46,-10.02 -9.96,-10.02l-290 0c-10.01,0 0,10.02 0,0l0 -579.98c0,-9.97 -10.01,0 0,0l290 0c5.5,0 9.96,-4.51 9.96,-9.97l0 -600.02c0,-5.6 -4.46,-10.02 -9.96,-10.02l-290 0c-10.01,0 0,10.02 0,0l0 -579.98c0,-10.02 -10.01,0 0,0l290 0c5.5,0 9.96,-4.51 9.96,-10.02l0 -599.97c0,-5.65 -4.46,-10.02 -9.96,-10.02l-290 0c-10.01,0 0,10.02 0,0l0 -579.98c0,-10.02 -10.01,0 0,0l290 0c5.5,0 9.96,-4.51 9.96,-10.02l0 -600.02c0,-5.55 -4.46,-9.96 -9.96,-9.96l-290 0c-10.01,0 0,9.96 0,0l0 -580.04c0,-9.97 -10.01,0 0,0l290 0c5.5,0 9.96,-4.51 9.96,-9.97l0 -600.01c0,-5.61 -4.46,-10.02 -9.96,-10.02l-290 0c-10.01,0 0,10.02 0,0l0 -579.99c0,-9.96 -10.01,0 0,0l290 0c5.5,0 9.96,-4.46 9.96,-9.96l0 -600.02c0,-5.6 -4.46,-10.02 -9.96,-10.02l-290 0c-10.01,0 0,10.02 0,0l0 -579.94c0,-10.01 -10.01,0 0,0l290 0c5.5,0 9.96,-4.55 9.96,-10.01l0 -600.02c0,-5.65 -4.46,-9.97 -9.96,-9.97l-290 0c-10.01,0 0,9.97 0,0l0 -580.03c0,-10.02 -10.01,0 0,0l290 0c5.5,0 9.96,-4.51 9.96,-10.02l0 -599.97c0,-5.6 -4.46,-10.02 -9.96,-10.02l-290 0c-10.01,0 0,10.02 0,0l0 -579.98c0,-10.02 -10.01,0 0,0l290 0c5.5,0 9.96,-4.51 9.96,-10.02l0 -599.97c0,-5.6 -4.46,-10.01 -9.96,-10.01l-290 0c-10.01,0 0,10.01 0,0l0 -580.04c0,-9.97 -10.01,0 0,0l290 0c5.5,0 9.96,-4.46 9.96,-9.97l0 -600.01c0,-5.61 -4.46,-10.02 -9.96,-10.02l-290 0c-10.01,0 0,10.02 0,0l0 -579.94c0,-10.01 -10.01,0 0,0l290 0c5.5,0 9.96,-4.51 9.96,-10.01l0 -600.02c0,-5.6 -4.46,-9.97 -9.96,-9.97l-290 0c-10.01,0 0,9.97 0,0l0 -579.99c0,-10.01 -10.01,0 0,0l290 0c5.5,0 9.96,-4.55 9.96,-10.01l0 -600.02c0,-5.6 -4.46,-9.97 -9.96,-9.97l-290 0c-10.01,0 0,9.97 0,0l0 -580.03c0,-9.97 -10.01,0 0,0l290 0c5.5,0 9.96,-4.51 9.96,-9.97l0 -600.02c0,-5.6 -4.46,-10.02 -9.96,-10.02l-290 0c-10.01,0 0,10.02 0,0l0 -579.98c0,-10.02 -10.01,0 0,0l290 0c5.5,0 9.96,-4.51 9.96,-10.02l0 -599.97c0,-5.6 -4.46,-10.01 -9.96,-10.01l-290 0c-10.01,0 0,10.01 0,0l0 -579.99c0,-10.02 -10.01,0 0,0l290 0c5.5,0 9.96,-4.51 9.96,-10.02l0 -600.01c0,-5.61 -4.46,-9.97 -9.96,-9.97l-290 0c-10.01,0 0,9.97 0,0l0 -579.99c0,-10.01 -10.01,0 0,0l290 0c5.5,0 9.96,-4.51 9.96,-10.01l0 -841.5c0,-5.51 -4.46,-10.02 -9.96,-10.02l-17899.95 0c-5.51,0 -9.97,4.51 -9.97,10.02l0 841.5c0,5.5 4.46,10.01 9.97,10.01l289.99 0c10.01,0 0,-10.01 0,0l0 579.99c0,9.97 10.01,0 0,0l-289.99 0c-5.51,0 -9.97,4.36 -9.97,9.97l0 600.01c0,5.51 4.46,10.02 9.97,10.02l289.99 0c10.01,0 0,-10.02 0,0l0 579.99c0,10.01 10.01,0 0,0l-289.99 0c-5.51,0 -9.97,4.41 -9.97,10.01l0 599.97c0,5.51 4.46,10.02 9.97,10.02l289.99 0c10.01,0 0,-10.02 0,0l0 579.98c0,10.02 10.01,0 0,0l-289.99 0c-5.51,0 -9.97,4.42 -9.97,10.02l0 600.02c0,5.46 4.46,9.97 9.97,9.97l289.99 0c10.01,0 0,-9.97 0,0l0 580.03c0,9.97 10.01,0 0,0l-289.99 0c-5.51,0 -9.97,4.37 -9.97,9.97l0 600.02c0,5.46 4.46,10.01 9.97,10.01l289.99 0c10.01,0 0,-10.01 0,0l0 579.99c0,9.97 10.01,0 0,0l-289.99 0c-5.51,0 -9.97,4.37 -9.97,9.97l0 600.02c0,5.5 4.46,10.01 9.97,10.01l289.99 0c10.01,0 0,-10.01 0,0l0 579.94c0,10.02 10.01,0 0,0l-289.99 0c-5.51,0 -9.97,4.41 -9.97,10.02l0 600.01c0,5.51 4.46,9.97 9.97,9.97l289.99 0c10.01,0 0,-9.97 0,0l0 580.04c0,10.01 10.01,0 0,0l-289.99 0c-5.51,0 -9.97,4.41 -9.97,10.01l0 599.97c0,5.51 4.46,10.02 9.97,10.02l289.99 0c10.01,0 0,-10.02 0,0l0 579.98c0,10.02 10.01,0 0,0l-289.99 0c-5.51,0 -9.97,4.42 -9.97,10.02l0 599.97c0,5.51 4.46,10.02 9.97,10.02l289.99 0c10.01,0 0,-10.02 0,0l0 580.03c0,9.97 10.01,0 0,0l-289.99 0c-5.51,0 -9.97,4.32 -9.97,9.97l0 600.02c0,5.46 4.46,10.01 9.97,10.01l289.99 0c10.01,0 0,-10.01 0,0l0 579.94c0,10.02 10.01,0 0,0l-289.99 0c-5.51,0 -9.97,4.42 -9.97,10.02l0 600.02c0,5.5 4.46,9.96 9.97,9.96l289.99 0c10.01,0 0,-9.96 0,0l0 579.99c0,10.02 10.01,0 0,0l-289.99 0c-5.51,0 -9.97,4.41 -9.97,10.02l0 600.01c0,5.46 4.46,9.97 9.97,9.97l289.99 0c10.01,0 0,-9.97 0,0l0 580.04c0,9.96 10.01,0 0,0l-289.99 0c-5.51,0 -9.97,4.41 -9.97,9.96l0 600.02c0,5.51 4.46,10.02 9.97,10.02l289.99 0c10.01,0 0,-10.02 0,0l0 579.98c0,10.02 10.01,0 0,0l-289.99 0c-5.51,0 -9.97,4.37 -9.97,10.02l0 599.97c0,5.51 4.46,10.02 9.97,10.02l289.99 0c10.01,0 0,-10.02 0,0l0 579.98c0,10.02 10.01,0 0,0l-289.99 0c-5.51,0 -9.97,4.42 -9.97,10.02l0 600.02c0,5.46 4.46,9.97 9.97,9.97l289.99 0c10.01,0 0,-9.97 0,0l0 579.98c0,10.02 10.01,0 0,0l-289.99 0c-5.51,0 -9.97,4.42 -9.97,10.02l0 600.02c0,5.45 4.46,9.96 9.97,9.96l289.99 0c10.01,0 0,-9.96 0,0l0 580.04c0,9.97 10.01,0 0,0l-289.99 0c-5.51,0 -9.97,4.41 -9.97,9.97l0 600.01c0,5.51 4.46,10.02 9.97,10.02l289.99 0c10.01,0 0,-10.02 0,0l0 579.99c0,9.96 10.01,0 0,0l-289.99 0c-5.51,0 -9.97,4.36 -9.97,9.96l0 600.02c0,5.51 4.46,10.02 9.97,10.02l289.99 0c10.01,0 0,-10.02 0,0l0 579.94c0,10.06 10.01,0 0,0l-289.99 0c-5.51,0 -9.97,4.41 -9.97,10.06l0 599.97c0,5.51 4.46,10.02 9.97,10.02l289.99 0c10.01,0 0,-10.02 0,0l0 579.98c0,10.02 10.01,0 0,0l-289.99 0c-5.51,0 -9.97,4.42 -9.97,10.02l0 600.02c0,5.46 4.46,9.97 9.97,9.97l289.99 0c10.01,0 0,-9.97 0,0l0 580c0,9.97 10.01,0 0,0l-289.99 0c-5.51,0 -9.97,4.41 -9.97,9.97l0 600.02c0,5.5 4.46,10.01 9.97,10.01l289.99 0c10.01,0 0,-10.01 0,0l0 580c0,9.98 10.01,0 0,0l-289.99 0c-5.51,0 -9.97,4.38 -9.97,9.98l0 841.42c0,5.5 4.46,9.98 9.97,9.98l300 0z"/>
  <path class="fil0 str0" d="M40789.93 30426.56l12255.65 0c5.69,0 10.44,-4.48 10.44,-9.98l0 -831.39c0,-10.03 -10.44,0 0,0l289.57 0c5.69,0 9.97,-4.53 9.97,-10.03l0 -599.99c0,-5.59 -4.28,-10 -9.97,-10l-289.57 0c-10.44,0 0,10 0,0l0 -579.98c0,-10.04 -10.44,0 0,0l289.57 0c5.69,0 9.97,-4.53 9.97,-10.04l0 -599.94c0,-5.65 -4.28,-10.02 -9.97,-10.02l-289.57 0c-10.44,0 0,10.02 0,0l0 -580.03c0,-9.97 -10.44,0 0,0l289.57 0c5.69,0 9.97,-4.46 9.97,-9.97l0 -600.02c0,-5.6 -4.28,-10.01 -9.97,-10.01l-289.57 0c-10.44,0 0,10.01 0,0l0 -579.99c0,-9.97 -10.44,0 0,0l289.57 0c5.69,0 9.97,-4.46 9.97,-9.97l0 -600.02c0,-5.6 -4.28,-9.97 -9.97,-9.97l-289.57 0c-10.44,0 0,9.97 0,0l0 -580.03c0,-10.02 -10.44,0 0,0l289.57 0c5.69,0 9.97,-4.51 9.97,-10.02l0 -599.97c0,-5.6 -4.28,-10.01 -9.97,-10.01l-289.57 0c-10.44,0 0,10.01 0,0l0 -579.99c0,-10.01 -10.44,0 0,0l289.57 0c5.69,0 9.97,-4.51 9.97,-10.01l0 -599.97c0,-5.61 -4.28,-10.02 -9.97,-10.02l-289.57 0c-10.44,0 0,10.02 0,0l0 -579.99c0,-10.01 -10.44,0 0,0l289.57 0c5.69,0 9.97,-4.51 9.97,-10.01l0 -599.97c0,-5.65 -4.28,-10.07 -9.97,-10.07l-289.57 0c-10.44,0 0,10.07 0,0l0 -579.98c0,-9.97 -10.44,0 0,0l289.57 0c5.69,0 9.97,-4.46 9.97,-9.97l0 -600.02c0,-5.6 -4.28,-9.97 -9.97,-9.97l-289.57 0c-10.44,0 0,9.97 0,0l0 -579.98c0,-10.02 -10.44,0 0,0l289.57 0c5.69,0 9.97,-4.51 9.97,-10.02l0 -600.02c0,-5.55 -4.28,-9.97 -9.97,-9.97l-289.57 0c-10.44,0 0,9.97 0,0l0 -580.03c0,-10.02 -10.44,0 0,0l289.57 0c5.69,0 9.97,-4.51 9.97,-10.02l0 -599.97c0,-5.6 -4.28,-10.01 -9.97,-10.01l-289.57 0c-10.44,0 0,10.01 0,0l0 -579.99c0,-10.01 -10.44,0 0,0l289.57 0c5.69,0 9.97,-4.51 9.97,-10.01l0 -599.97c0,-5.61 -4.28,-10.02 -9.97,-10.02l-289.57 0c-10.44,0 0,10.02 0,0l0 -579.99c0,-10.01 -10.44,0 0,0l289.57 0c5.69,0 9.97,-4.51 9.97,-10.01l0 -599.97c0,-5.65 -4.28,-10.02 -9.97,-10.02l-289.57 0c-10.44,0 0,10.02 0,0l0 -579.98c0,-10.02 -10.44,0 0,0l289.57 0c5.69,0 9.97,-4.51 9.97,-10.02l0 -600.02c0,-5.55 -4.28,-9.97 -9.97,-9.97l-289.57 0c-10.44,0 0,9.97 0,0l0 -580.03c0,-9.97 -10.44,0 0,0l289.57 0c5.69,0 9.97,-4.46 9.97,-9.97l0 -600.02c0,-5.6 -4.28,-9.97 -9.97,-9.97l-289.57 0c-10.44,0 0,9.97 0,0l0 -580.03c0,-9.97 -10.44,0 0,0l289.57 0c5.69,0 9.97,-4.46 9.97,-9.97l0 -600.02c0,-5.6 -4.28,-10.01 -9.97,-10.01l-289.57 0c-10.44,0 0,10.01 0,0l0 -579.99c0,-10.01 -10.44,0 0,0l289.57 0c5.69,0 9.97,-4.51 9.97,-10.01l0 -599.97c0,-5.61 -4.28,-10.02 -9.97,-10.02l-289.57 0c-10.44,0 0,10.02 0,0l0 -579.99c0,-10.01 -10.44,0 0,0l289.57 0c5.69,0 9.97,-4.51 9.97,-10.01l0 -599.97c0,-5.6 -4.28,-10.02 -9.97,-10.02l-289.57 0c-10.44,0 0,10.02 0,0l0 -579.98c0,-10.02 -10.44,0 0,0l289.57 0c5.69,0 9.97,-4.51 9.97,-10.02l0 -599.97c0,-5.6 -4.28,-10.02 -9.97,-10.02l-289.57 0c-10.44,0 0,10.02 0,0l0 -580.03c0,-9.97 -10.44,0 0,0l289.57 0c5.69,0 9.97,-4.46 9.97,-9.97l0 -600.02c0,-5.6 -4.28,-10.01 -9.97,-10.01l-289.57 0c-10.44,0 0,10.01 0,0l0 -579.99c0,-9.97 -10.44,0 0,0l289.57 0c5.69,0 9.97,-4.46 9.97,-9.97l0 -600.02c0,-5.6 -4.28,-9.96 -9.97,-9.96l-289.57 0c-10.44,0 0,9.96 0,0l0 -579.99c0,-10.06 -10.44,0 0,0l289.57 0c5.69,0 9.97,-4.56 9.97,-10.06l0 -599.97c0,-5.61 -4.28,-10.02 -9.97,-10.02l-289.57 0c-10.44,0 0,10.02 0,0l0 -831.48c0,-5.51 -4.75,-10.02 -10.44,-10.02 -3.8,0 -7.12,2.33 -9.02,5.84l-249.22 534.7c-4.27,9.07 9.02,4.18 0,0l-262.98 -122.66c-4.75,-2.28 -10.92,-0.1 -13.29,4.94l-253.49 543.81c-2.37,4.98 0,10.87 4.75,13.2l262.98 122.56c9.02,4.23 4.27,-9.06 0,0l-244.94 525.73c-4.28,8.97 9.01,4.18 0,0l-262.99 -122.61c-5.22,-2.28 -10.92,-0.19 -13.29,4.79l-253.49 543.81c-2.37,5.04 0,11.02 4.75,13.3l262.98 122.61c9.02,4.18 4.27,-9.11 0,0l-245.42 525.59c-3.79,9.11 9.5,4.32 0,0l-262.5 -122.48c-5.23,-2.42 -10.92,-0.23 -13.3,4.8l-253.96 543.76c-1.9,5.04 0,11.02 5.22,13.3l262.51 122.52c9.49,4.32 4.27,-8.98 0,0l-244.94 525.72c-4.28,9.07 9.02,4.18 0,0l-262.99 -122.66c-4.74,-2.28 -10.91,-0.09 -13.29,4.94l-253.49 543.77c-2.37,5.03 0,10.91 4.75,13.33l262.98 122.48c9.02,4.22 4.28,-8.98 0,0l-244.94 525.72c-4.27,8.98 9.02,4.18 0,0l-262.98 -122.61c-5.23,-2.28 -10.92,-0.19 -13.3,4.89l-253.48 543.72c-2.38,5.03 0,11.01 4.74,13.29l262.99 122.61c9.01,4.18 4.27,-9.11 0,0l-245.42 525.59c-4.28,9.11 9.02,4.32 0,0l-262.51 -122.47c-5.22,-2.42 -10.92,-0.24 -13.29,4.79l-253.97 543.77c-1.89,5.03 0,11.01 5.23,13.29l262.5 122.61c9.5,4.23 4.28,-9.06 0,0l-244.94 525.64c-4.27,9.06 9.02,4.17 0,0l-262.98 -122.52c-4.75,-2.42 -10.92,-0.24 -12.82,4.79l-253.96 543.77c-2.38,5.03 0,10.92 4.74,13.34l262.99 122.47c9.02,4.18 4.27,-8.97 0,0l-244.95 525.73c-4.27,8.97 9.02,4.17 0,0l-262.98 -122.62c-5.22,-2.28 -10.92,-0.09 -13.29,4.89l-253.49 543.72c-2.37,4.98 0,11.01 4.75,13.29l262.98 122.62c9.02,4.17 4.27,-9.12 0,0l-245.42 525.68c-3.8,9.02 9.02,4.22 0,0l-262.51 -122.57c-5.22,-2.33 -10.92,-0.24 -13.29,4.79l-253.96 543.77c-1.9,5.03 0,11.01 5.22,13.29l262.51 122.62c9.02,4.22 4.27,-9.07 0,0l-244.95 525.63c-4.27,9.07 9.02,4.18 0,0l-262.98 -122.52c-4.75,-2.42 -10.92,-0.24 -13.29,4.79l-253.49 543.77c-2.37,5.03 0,10.92 4.75,13.34l262.98 122.47c9.02,4.32 4.27,-8.97 0,0l-244.94 525.73c-4.28,9.07 9.02,4.18 0,0l-262.99 -122.62c-4.98,-2.27 -10.96,-0.09 -13.29,4.89l-253.58 543.82c-2.33,4.98 -0.19,10.92 4.89,13.19l262.84 122.62c8.97,4.18 4.18,-9.12 0,0l-245.14 525.68c-4.32,9.02 9.02,4.22 0,0l-262.88 -122.61c-4.99,-2.28 -10.92,-0.19 -13.3,4.84l-253.48 543.76c-2.42,5.04 -0.24,11.02 4.74,13.29l262.8 122.62c9.11,4.22 4.32,-9.07 0,0l-245.04 525.63c-4.28,9.07 9.06,4.27 0,0l-262.84 -122.52c-192.49,-89.81 -405.21,-127.31 -616.78,-108.8 -211.62,18.47 -414.6,92.38 -588.62,214.19 -173.98,121.9 -312.78,287.33 -402.59,479.77l-3211.9 6888.01c-89.77,192.54 -127.27,405.2 -108.81,616.82 18.52,211.57 92.43,414.56 214.24,588.58 121.9,174.02 287.38,312.78 479.87,402.59l262.84 122.52c8.97,4.27 4.18,-9.02 0,0l-456.47 978.78c-4.27,9.11 9.02,4.32 0,0l-262.84 -122.52c-5.03,-2.28 -10.92,-0.19 -13.34,4.84l-253.49 543.77c-2.42,5.02 -0.19,11.01 4.8,13.31l262.84 122.62c9.11,4.19 4.27,-9.1 0,0l-245.14 525.56c-4.18,9.11 9.12,4.23 0,0l-262.79 -122.47c-4.99,-2.41 -11.01,-0.23 -13.29,4.78l-253.63 543.81c-2.28,5.01 -0.05,10.91 4.93,13.31l262.8 122.48c9.06,4.3 4.17,-8.99 0,0l-460.7 987.91c-0.62,1.32 -0.9,2.8 -0.9,4.21 0,5.5 4.51,9.98 10.02,9.98z"/>
  <path class="fil0 str0" d="M45842.99 18870.4l122.61 -262.89c4.18,-9.02 -9.11,-4.18 0,0l253.68 118.39c9.12,4.18 4.18,-9.11 0,0l-245.09 525.59c-4.22,9.11 9.07,4.32 0,0l-253.82 -118.3c-8.97,-4.22 -4.17,9.12 0,0l122.62 -262.79z"/>
  <path class="fil0 str0" d="M45335.92 19957.88l122.47 -262.79c4.18,-9.11 -9.02,-4.18 0,0l253.82 118.3c8.97,4.32 4.18,-8.98 0,0l-245.13 525.68c-4.28,9.11 9.01,4.22 0,0l-253.78 -118.3c-9.11,-4.27 -4.18,9.02 0,0l122.62 -262.84 0 -0.05z"/>
  <path class="fil0 str0" d="M44828.7 21045.46l122.62 -262.74c4.17,-9.12 -9.12,-4.32 0,0l253.63 118.25c9.11,4.22 4.32,-9.07 0,0l-245.04 525.72c-4.23,8.98 9.11,4.18 0,0l-253.73 -118.39c-9.11,-4.17 -4.32,9.12 0,0l122.52 -262.84z"/>
  <path class="fil0 str0" d="M44321.58 22133.09l122.52 -262.89c4.27,-9.02 -9.02,-4.17 0,0l253.78 118.39c9.11,4.18 4.22,-9.11 0,0l-245.09 525.59c-4.23,9.11 9.02,4.32 0,0l-253.77 -118.3c-9.12,-4.22 -4.23,9.12 0,0l122.56 -262.79z"/>
  <path class="fil0 str0" d="M43814.42 23220.58l122.56 -262.8c4.23,-9.11 -9.11,-4.17 0,0l253.82 118.3c9.02,4.32 4.18,-8.97 0,0l-245.23 525.68c-4.17,9.11 9.12,4.22 0,0l-253.67 -118.3c-9.12,-4.27 -4.32,9.02 0,0l122.52 -262.88z"/>
  <path class="fil0 str0" d="M43307.3 24308.16l122.51 -262.75c4.28,-9.11 -9.01,-4.22 0,0l253.78 118.25c9.11,4.22 4.22,-9.07 0,0l-245.09 525.73c-4.22,8.97 9.07,4.17 0,0l-253.82 -118.39c-8.97,-4.18 -4.18,9.11 0,0l122.62 -262.84z"/>
  <path class="fil0 str0" d="M42800.13 25395.78l122.57 -262.88c4.17,-8.97 -9.12,-4.23 0,0l253.82 118.39c8.97,4.17 4.17,-9.12 0,0l-245.09 525.58c-4.32,9.12 8.97,4.32 0,0l-253.82 -118.29c-9.12,-4.18 -4.18,9.11 0,0l122.52 -262.8z"/>
  <path class="fil0 str0" d="M51375.59 973.72l-12255.7 0c-5.51,0 -9.97,4.51 -9.97,10.02l0 831.53c0,9.97 9.97,0 0,0l-290.04 0c-5.46,0 -9.97,4.36 -9.97,9.97l0 600.01c0,5.51 4.51,9.97 9.97,9.97l290.04 0c9.97,0 0,-9.97 0,0l0 579.99c0,10.01 9.97,0 0,0l-290.04 0c-5.46,0 -9.97,4.41 -9.97,10.01l0 600.02c0,5.51 4.51,9.97 9.97,9.97l290.04 0c9.97,0 0,-9.97 0,0l0 580.03c0,10.02 9.97,0 0,0l-290.04 0c-5.46,0 -9.97,4.42 -9.97,10.02l0 599.97c0,5.51 4.51,10.02 9.97,10.02l290.04 0c9.97,0 0,-10.02 0,0l0 579.98c0,9.97 9.97,0 0,0l-290.04 0c-5.46,0 -9.97,4.42 -9.97,9.97l0 600.02c0,5.51 4.51,10.02 9.97,10.02l290.04 0c9.97,0 0,-10.02 0,0l0 580.03c0,9.97 9.97,0 0,0l-290.04 0c-5.46,0 -9.97,4.37 -9.97,9.97l0 600.02c0,5.45 4.51,9.96 9.97,9.96l290.04 0c9.97,0 0,-9.96 0,0l0 579.99c0,10.02 9.97,0 0,0l-290.04 0c-5.46,0 -9.97,4.41 -9.97,10.02l0 600.01c0,5.51 4.51,9.97 9.97,9.97l290.04 0c9.97,0 0,-9.97 0,0l0 579.99c0,10.01 9.97,0 0,0l-290.04 0c-5.46,0 -9.97,4.41 -9.97,10.01l0 599.98c0,5.5 4.51,10.01 9.97,10.01l290.04 0c9.97,0 0,-10.01 0,0l0 580.03c0,9.97 9.97,0 0,0l-290.04 0c-5.46,0 -9.97,4.42 -9.97,9.97l0 600.02c0,5.51 4.51,10.02 9.97,10.02l290.04 0c9.97,0 0,-10.02 0,0l0 579.98c0,10.02 9.97,0 0,0l-290.04 0c-5.46,0 -9.97,4.37 -9.97,10.02l0 599.97c0,5.51 4.51,10.02 9.97,10.02l290.04 0c9.97,0 0,-10.02 0,0l0 579.98c0,10.02 9.97,0 0,0l-290.04 0c-5.46,0 -9.97,4.42 -9.97,10.02l0 600.02c0,5.45 4.51,9.96 9.97,9.96l290.04 0c9.97,0 0,-9.96 0,0l0 579.99c0,9.97 9.97,0 0,0l-290.04 0c-5.46,0 -9.97,4.41 -9.97,9.97l0 600.02c0,5.5 4.51,10.01 9.97,10.01l290.04 0c9.97,0 0,-10.01 0,0l0 580.04c0,9.96 9.97,0 0,0l-290.04 0c-5.46,0 -9.97,4.36 -9.97,9.96l0 600.02c0,5.51 4.51,9.97 9.97,9.97l290.04 0c9.97,0 0,-9.97 0,0l0 580.03c0,9.97 9.97,0 0,0l-290.04 0c-5.46,0 -9.97,4.37 -9.97,9.97l0 600.02c0,5.51 4.51,9.97 9.97,9.97l290.04 0c9.97,0 0,-9.97 0,0l0 580.03c0,10.02 9.97,0 0,0l-290.04 0c-5.46,0 -9.97,4.37 -9.97,10.02l0 599.97c0,5.51 4.51,10.02 9.97,10.02l290.04 0c9.97,0 0,-10.02 0,0l0 579.98c0,9.97 9.97,0 0,0l-290.04 0c-5.46,0 -9.97,4.42 -9.97,9.97l0 600.02c0,5.5 4.51,10.01 9.97,10.01l290.04 0c9.97,0 0,-10.01 0,0l0 579.99c0,9.97 9.97,0 0,0l-290.04 0c-5.46,0 -9.97,4.37 -9.97,9.97l0 600.02c0,5.5 4.51,10.01 9.97,10.01l290.04 0c9.97,0 0,-10.01 0,0l0 580.04c0,9.96 9.97,0 0,0l-290.04 0c-5.46,0 -9.97,4.36 -9.97,9.96l0 600.02c0,5.51 4.51,9.97 9.97,9.97l290.04 0c9.97,0 0,-9.97 0,0l0 579.99c0,10.01 9.97,0 0,0l-290.04 0c-5.46,0 -9.97,4.41 -9.97,10.01l0 600.02c0,5.51 4.51,9.97 9.97,9.97l290.04 0c9.97,0 0,-9.97 0,0l0 580.03c0,9.97 9.97,0 0,0l-290.04 0c-5.46,0 -9.97,4.37 -9.97,9.97l0 600.02c0,5.46 4.51,10.02 9.97,10.02l290.04 0c9.97,0 0,-10.02 0,0l0 579.98c0,9.97 9.97,0 0,0l-290.04 0c-5.46,0 -9.97,4.37 -9.97,9.97l0 600.02c0,5.5 4.51,10.01 9.97,10.01l290.04 0c9.97,0 0,-10.01 0,0l0 579.99c0,10.02 9.97,0 0,0l-290.04 0c-5.46,0 -9.97,4.41 -9.97,10.02l0 599.97c0,5.5 4.51,10.01 9.97,10.01l290.04 0c9.97,0 0,-10.01 0,0l0 831.39c0,5.5 4.46,10.01 9.97,10.01 3.94,0 7.41,-2.18 9.12,-5.74l249.31 -534.75c4.17,-9.02 -9.12,-4.22 0,0l262.79 122.57c4.98,2.28 11.01,0.24 13.29,-4.79l253.58 -543.82c2.33,-4.98 0.24,-10.96 -4.79,-13.29l-262.89 -122.57c-8.97,-4.22 -4.17,9.12 0,0l245.14 -525.63c4.27,-9.07 -9.02,-4.27 0,0l262.88 122.52c4.99,2.37 10.87,0.19 13.3,-4.79l253.48 -543.82c2.43,-4.98 0.19,-10.96 -4.79,-13.29l-262.84 -122.47c-9.07,-4.32 -4.27,8.97 0,0l245.13 -525.73c4.18,-9.11 -9.11,-4.22 0,0l262.8 122.62c5.03,2.27 11.01,0.04 13.29,-4.89l253.63 -543.82c2.28,-5.03 0.09,-10.92 -4.94,-13.29l-262.74 -122.47c-9.02,-4.27 -4.23,8.97 0,0l245.04 -525.73c4.32,-8.97 -8.98,-4.22 0,0l262.93 122.57c4.99,2.28 10.92,0.24 13.29,-4.89l253.54 -543.72c2.37,-4.98 0.14,-10.97 -4.84,-13.29l-262.8 -122.57c-9.11,-4.22 -4.32,9.12 0,0l245.09 -525.58c4.23,-9.12 -9.07,-4.32 0,0l262.79 122.47c5.03,2.32 11.02,0.19 13.29,-4.8l253.64 -543.81c2.27,-4.98 0.09,-10.97 -4.89,-13.29l-262.8 -122.62c-9.11,-4.17 -4.22,9.12 0,0l245.09 -525.58c4.18,-9.12 -9.02,-4.23 0,0l262.79 122.52c5.08,2.37 10.97,0.19 13.29,-4.8l253.59 -543.81c2.32,-5.03 0.24,-10.92 -4.8,-13.29l-262.88 -122.47c-9.02,-4.32 -4.18,8.97 0,0l245.22 -525.73c4.18,-9.02 -9.11,-4.23 0,0l262.75 122.57c5.03,2.32 10.92,0.14 13.34,-4.89l253.49 -543.72c2.42,-5.08 0.19,-10.97 -4.8,-13.29l-262.79 -122.57c-9.11,-4.23 -4.22,9.11 0,0l245.09 -525.73c4.22,-8.97 -9.12,-4.18 0,0l262.79 122.62c4.98,2.32 10.96,0.18 13.29,-4.85l253.63 -543.76c2.28,-4.99 0.19,-10.97 -4.84,-13.29l-262.89 -122.62c-8.97,-4.18 -4.17,9.12 0,0l245.14 -525.58c4.27,-9.12 -9.07,-4.28 0,0l262.88 122.51c4.99,2.38 10.92,0.19 13.3,-4.79l253.48 -543.81c2.43,-5.04 0.19,-10.92 -4.74,-13.29l-262.84 -122.48c-9.12,-4.32 -4.32,8.97 0,0l245.08 -525.72c4.23,-9.12 -9.06,-4.23 0,0l262.8 122.56c5.03,2.33 11.01,0.14 13.34,-4.89l253.58 -543.81c2.28,-4.99 0.09,-10.87 -4.89,-13.2l-262.79 -122.56c-9.12,-4.18 -4.23,9.11 0,0l245.08 -525.73c4.28,-8.97 -9.02,-4.18 0,0l262.89 122.61c4.99,2.33 10.92,0.19 13.2,-4.84l253.58 -543.77c2.42,-4.98 0.19,-10.96 -4.79,-13.29l-262.8 -122.61c-9.06,-4.18 -4.32,9.11 0,0l245.14 -525.59c4.17,-9.11 -9.12,-4.27 0,0l262.79 122.52c4.98,2.38 10.97,0.19 13.29,-4.79l253.59 -543.82c2.32,-5.03 0.14,-10.91 -4.89,-13.29l-262.84 -122.52c-9.07,-4.27 -4.18,9.02 0,0l245.13 -525.68c4.18,-9.11 -9.11,-4.17 0,0l262.79 122.57c192.49,89.72 405.3,127.22 616.92,108.71 211.62,-18.47 414.46,-92.38 588.48,-214.19 174.03,-121.81 312.92,-287.29 402.64,-479.78l3211.95 -6887.91c89.72,-192.49 127.22,-405.29 108.7,-616.91 -18.51,-211.58 -92.56,-414.56 -214.08,-588.44 -122,-174.02 -287.2,-312.92 -479.92,-402.64l-262.99 -122.61c-9.02,-4.18 -4.27,9.11 0,0l456.66 -978.78c4.28,-9.07 -9.02,-4.23 0,0l262.99 122.52c4.74,2.37 10.91,0.19 13.29,-4.84l253.49 -543.82c2.37,-4.98 0,-10.87 -5.23,-13.29l-262.5 -122.47c-9.02,-4.27 -4.28,9.02 0,0l244.94 -525.68c4.27,-9.12 -9.02,-4.23 0,0l262.98 122.56c4.75,2.33 10.92,0.1 13.29,-4.89l253.49 -543.71c2.38,-5.08 0,-11.02 -4.74,-13.3l-262.99 -122.56c-9.02,-4.23 -4.27,9.06 0,0l460.94 -987.9c0.47,-1.33 0.47,-2.7 0.47,-4.22 0,-5.51 -4.27,-10.02 -9.97,-10.02z"/>
  <path class="fil0 str0" d="M46322.67 12530l-122.47 262.84c-4.32,9.12 9.02,4.18 0,0l-253.82 -118.34c-9.07,-4.27 -4.18,9.02 0,0l245.08 -525.68c4.32,-9.07 -8.97,-4.22 0,0l253.83 118.3c9.06,4.32 4.22,-8.98 0,0l-122.62 262.88z"/>
  <path class="fil0 str0" d="M46829.89 11442.42l-122.62 262.8c-4.18,9.11 9.11,4.17 0,0l-253.77 -118.3c-9.02,-4.18 -4.23,9.12 0,0l245.23 -525.68c4.17,-9.02 -9.12,-4.22 0,0l253.63 118.39c9.11,4.18 4.32,-9.11 0,0l-122.47 262.79z"/>
  <path class="fil0 str0" d="M47337 10354.8l-122.51 262.93c-4.28,8.97 9.01,4.18 0,0l-253.83 -118.44c-9.06,-4.17 -4.17,9.12 0,0l245.14 -525.58c4.18,-9.12 -9.12,-4.27 0,0l253.77 118.29c9.02,4.23 4.18,-9.06 0,0l-122.61 262.8 0.04 0z"/>
  <path class="fil0 str0" d="M47844.31 9267.31l-122.94 262.84c-3.8,8.97 9.49,4.18 0,0l-253.59 -118.34c-8.97,-4.32 -4.17,9.02 0,0l245.04 -525.68c4.28,-9.12 -9.02,-4.23 0,0l253.97 118.29c9.02,4.32 4.27,-8.97 0,0l-122.48 262.89z"/>
  <path class="fil0 str0" d="M48473.76 7916.94l-244.94 525.58c-4.27,9.12 9.02,4.18 0,0l-253.96 -118.29c-9.02,-4.18 -4.28,9.02 0,0l245.41 -525.68c3.8,-9.02 -9.49,-4.23 0,0l253.49 118.39c9.02,4.17 4.28,-9.12 0,0z"/>
  <path class="fil0 str0" d="M48858.27 7092.1l-122.47 262.8c-4.28,9.11 9.02,4.32 0,0l-253.49 -118.3c-9.02,-4.18 -4.27,9.11 0,0l244.94 -525.58c4.27,-9.12 -9.02,-4.28 0,0l253.97 118.34c9.01,4.17 3.79,-9.12 0,0l-122.95 262.74z"/>
  <path class="fil0 str0" d="M49365.72 6004.52l-122.95 262.94c-3.79,8.97 9.5,4.18 0,0l-253.48 -118.44c-9.02,-4.22 -4.28,9.11 0,0l244.94 -525.58c4.27,-9.12 -9.02,-4.23 0,0l253.96 118.29c9.02,4.18 4.28,-8.97 0,0l-122.47 262.79z"/>
  <path class="fil0 str0" d="M61335.7 30426.56l-5916.63 0c-1.43,0 -2.85,-0.28 -4.28,-0.88 -335.61,-156.5 -624.22,-398.71 -836.41,-702.1 -212.67,-303.42 -341.31,-657.29 -373.59,-1026.3 -32.28,-369 32.75,-740.03 189.4,-1075.64l1014.43 -2175.16c22.79,-49.27 58.39,-91.66 103.01,-122.9 44.62,-31.18 96.84,-50.13 150.96,-54.87 54.11,-4.7 108.7,4.89 158.07,27.86 48.89,23.03 91.62,58.49 122.47,103.11 31.33,44.62 50.32,96.6 55.07,150.81 4.75,54.21 -4.75,108.66 -27.53,157.98l-190.36 407.91c-2.85,6.31 -4.27,13.38 -3.8,20.41 0.95,6.98 3.33,13.67 7.12,19.41 4.28,5.75 9.5,10.35 16.14,13.29l1304.95 608.57c9.02,4.22 -4.27,9.11 0,0l456.18 -978.78c4.28,-9.12 9.5,4.22 0,0l-262.5 -122.57c-5.23,-2.33 -7.13,-8.35 -4.75,-13.29l253.49 -543.72c2.37,-5.03 8.07,-7.26 13.29,-4.89l262.98 122.57c8.55,4.18 -4.75,9.02 0,0l244.95 -525.68c4.27,-9.02 9.01,4.17 0,0l-262.99 -122.52c-5.22,-2.38 -7.12,-8.31 -4.74,-13.29l253.48 -543.82c2.38,-4.98 8.55,-7.17 13.3,-4.79l262.98 122.47c9.02,4.23 -4.27,9.11 0,0l244.94 -525.59c4.27,-9.11 9.02,4.18 0,0l-262.98 -122.56c-4.75,-2.33 -7.12,-8.31 -4.75,-13.29l253.49 -543.82c2.37,-4.98 8.55,-7.12 13.29,-4.79l262.99 122.47c9.01,4.32 -4.28,9.11 0,0l245.41 -525.59c3.8,-9.11 8.55,4.18 0,0l-262.98 -122.56c-5.22,-2.33 -7.12,-8.36 -4.75,-13.29l253.49 -543.72c2.38,-5.13 8.07,-7.27 13.29,-4.89l262.51 122.57c9.5,4.22 -3.79,9.01 0,0l245.42 -525.73c4.27,-8.97 9.02,4.22 0,0l-262.98 -122.47c-4.75,-2.38 -7.12,-8.31 -4.75,-13.3l253.49 -543.81c2.37,-4.98 8.55,-7.17 13.29,-4.89l262.98 122.57c9.02,4.22 -4.27,9.11 0,0l244.95 -525.64c4.27,-9.06 9.02,4.23 0,0l-262.98 -122.51c-4.75,-2.33 -7.12,-8.31 -4.75,-13.3l253.96 -543.81c1.9,-4.98 8.07,-7.22 12.82,-4.79l262.98 122.47c9.02,4.32 -4.27,9.11 0,0l244.95 -525.59c4.27,-9.11 9.49,4.23 0,0l-262.51 -122.56c-5.22,-2.33 -7.12,-8.36 -4.75,-13.3l253.49 -543.81c2.37,-5.03 8.07,-7.17 13.29,-4.79l262.51 122.56c9.49,4.23 -3.8,9.02 0,0l460.93 -987.89c0.48,-1.71 1.9,-3.09 3.32,-4.13 1.43,-0.95 3.33,-1.57 5.23,-1.66 1.89,-0.1 3.32,0.33 5.22,1.18 1.42,0.81 2.85,2.14 3.79,3.71 0.95,1.47 1.43,3.32 1.43,5.12l0 12688.26c0,5.5 -4.27,9.98 -9.97,9.98z"/>
  <path class="fil0 str0" d="M61505.64 30426.56l5916.63 0c1.43,0 2.85,-0.28 4.28,-0.88 335.61,-156.5 624.22,-398.71 836.89,-702.1 212.19,-303.42 341.31,-657.29 373.59,-1026.3 31.8,-369 -33.23,-740.03 -189.88,-1075.64l-1014.43 -2175.16c-22.79,-49.27 -58.39,-91.66 -103.01,-122.9 -44.62,-31.18 -96.36,-50.13 -150.96,-54.87 -54.11,-4.7 -108.7,4.89 -158.07,27.86 -49.37,23.03 -91.62,58.49 -122.95,103.11 -30.85,44.62 -49.84,96.6 -54.59,150.81 -4.74,54.21 4.75,108.66 28.01,157.98l189.88 407.91c2.85,6.31 4.27,13.38 3.8,20.41 -0.48,6.98 -3.33,13.67 -7.12,19.41 -4.28,5.75 -9.5,10.35 -16.14,13.29l-1304.95 608.57c-9.02,4.22 4.28,9.11 0,0l-456.18 -978.78c-4.27,-9.12 -9.02,4.22 0,0l262.51 -122.57c5.22,-2.33 7.12,-8.35 4.74,-13.29l-253.49 -543.72c-2.37,-5.03 -8.07,-7.26 -13.29,-4.89l-262.5 122.57c-9.5,4.18 3.79,9.02 0,0l-245.42 -525.68c-4.28,-9.02 -9.02,4.17 0,0l262.98 -122.52c5.22,-2.38 7.12,-8.31 4.75,-13.29l-253.49 -543.82c-2.38,-4.98 -8.07,-7.17 -13.29,-4.79l-262.99 122.47c-9.02,4.23 4.28,9.11 0,0l-244.94 -525.59c-4.27,-9.11 -9.02,4.18 0,0l262.98 -122.56c4.75,-2.33 7.12,-8.31 4.75,-13.29l-253.49 -543.82c-2.37,-4.98 -8.54,-7.12 -13.29,-4.79l-262.98 122.47c-9.02,4.32 4.27,9.11 0,0l-244.95 -525.59c-4.27,-9.11 -9.49,4.18 0,0l262.51 -122.56c5.22,-2.33 7.12,-8.36 5.22,-13.29l-253.96 -543.72c-2.38,-5.13 -8.07,-7.27 -13.29,-4.89l-262.51 122.57c-9.02,4.22 4.27,9.01 0,0l-245.42 -525.73c-4.27,-8.97 -9.02,4.22 0,0l262.98 -122.47c4.75,-2.38 7.12,-8.31 4.75,-13.3l-253.49 -543.81c-2.37,-4.98 -8.07,-7.17 -13.29,-4.89l-262.98 122.57c-9.02,4.22 4.27,9.11 0,0l-244.95 -525.64c-4.27,-9.06 -9.02,4.23 0,0l262.51 -122.51c5.22,-2.33 7.6,-8.31 5.22,-13.3l-253.49 -543.81c-2.37,-4.98 -8.54,-7.22 -13.29,-4.79l-262.98 122.47c-9.02,4.32 4.27,9.11 0,0l-244.94 -525.59c-4.28,-9.11 -9.5,4.23 0,0l262.5 -122.56c5.23,-2.33 7.12,-8.36 4.75,-13.3l-253.49 -543.81c-2.37,-5.03 -8.07,-7.17 -13.29,-4.79l-262.51 122.56c-9.02,4.23 4.27,9.02 0,0l-460.93 -987.89c-0.47,-1.71 -1.9,-3.09 -3.32,-4.13 -1.43,-0.95 -3.32,-1.57 -5.22,-1.66 -1.9,-0.1 -3.33,0.33 -5.23,1.18 -1.42,0.81 -2.84,2.14 -3.79,3.71 -0.95,1.47 -1.43,3.32 -1.43,5.12l0 12688.26c0,5.5 4.28,9.98 9.97,9.98z"/>
 </g>
</svg>
